%MOIN*%
%OFA0B0*%
%FSLAX46Y46*%
%IPPOS*%
%LPD*%
%ADD10C,0.0039370078740157488*%
%ADD21C,0.0039370078740157488*%
%ADD22C,0.0039370078740157488*%
%ADD23C,0.0039370078740157488*%
%ADD24C,0.0039370078740157488*%
%ADD25C,0.0039370078740157488*%
%ADD26C,0.0039370078740157488*%
%ADD27C,0.0039370078740157488*%
%ADD28C,0.0039370078740157488*%
%ADD29C,0.0039370078740157488*%
%ADD30C,0.0039370078740157488*%
%ADD31C,0.0039370078740157488*%
%ADD32C,0.0039370078740157488*%
%ADD33C,0.0039370078740157488*%
%ADD34C,0.0039370078740157488*%
%ADD35C,0.0039370078740157488*%
D10*
G36*
X0000118149Y0003704761D02*
G01*
X0000118244Y0003703801D01*
X0000118524Y0003702878D01*
X0000118978Y0003702027D01*
X0000119590Y0003701281D01*
X0000120336Y0003700669D01*
X0000121187Y0003700214D01*
X0000122110Y0003699934D01*
X0000123070Y0003699840D01*
X0000124030Y0003699934D01*
X0000124954Y0003700214D01*
X0000125804Y0003700669D01*
X0000126550Y0003701281D01*
X0000126833Y0003701564D01*
X0000129902Y0003703615D01*
X0000131315Y0003704200D01*
X0000133313Y0003705027D01*
X0000136933Y0003705748D01*
X0000140625Y0003705748D01*
X0000144245Y0003705027D01*
X0000146243Y0003704200D01*
X0000147656Y0003703615D01*
X0000150725Y0003701564D01*
X0000153336Y0003698953D01*
X0000154372Y0003697402D01*
X0000154984Y0003696656D01*
X0000155730Y0003696044D01*
X0000156581Y0003695589D01*
X0000157504Y0003695309D01*
X0000158464Y0003695215D01*
X0000159424Y0003695309D01*
X0000160347Y0003695589D01*
X0000161198Y0003696044D01*
X0000161944Y0003696656D01*
X0000162556Y0003697402D01*
X0000163593Y0003698953D01*
X0000166203Y0003701564D01*
X0000169272Y0003703615D01*
X0000170685Y0003704200D01*
X0000172683Y0003705027D01*
X0000176303Y0003705748D01*
X0000179995Y0003705748D01*
X0000183615Y0003705027D01*
X0000185613Y0003704200D01*
X0000187026Y0003703615D01*
X0000190095Y0003701564D01*
X0000192706Y0003698953D01*
X0000193742Y0003697402D01*
X0000194354Y0003696656D01*
X0000195100Y0003696044D01*
X0000195951Y0003695589D01*
X0000196874Y0003695309D01*
X0000197834Y0003695215D01*
X0000198794Y0003695309D01*
X0000199717Y0003695589D01*
X0000200568Y0003696044D01*
X0000201314Y0003696656D01*
X0000201926Y0003697402D01*
X0000202963Y0003698953D01*
X0000205573Y0003701564D01*
X0000208642Y0003703615D01*
X0000210055Y0003704200D01*
X0000212053Y0003705027D01*
X0000215673Y0003705748D01*
X0000219365Y0003705748D01*
X0000222985Y0003705027D01*
X0000224983Y0003704200D01*
X0000226396Y0003703615D01*
X0000229465Y0003701564D01*
X0000232076Y0003698954D01*
X0000234127Y0003695884D01*
X0000234365Y0003695309D01*
X0000235539Y0003692474D01*
X0000236259Y0003688853D01*
X0000236259Y0003685162D01*
X0000235539Y0003681541D01*
X0000234712Y0003679543D01*
X0000234127Y0003678131D01*
X0000232076Y0003675061D01*
X0000229465Y0003672451D01*
X0000226396Y0003670400D01*
X0000225947Y0003670214D01*
X0000222985Y0003668987D01*
X0000219365Y0003668267D01*
X0000215673Y0003668267D01*
X0000212053Y0003668987D01*
X0000209092Y0003670214D01*
X0000208642Y0003670400D01*
X0000205573Y0003672451D01*
X0000202963Y0003675061D01*
X0000201926Y0003676613D01*
X0000201314Y0003677359D01*
X0000200568Y0003677971D01*
X0000199717Y0003678425D01*
X0000198794Y0003678705D01*
X0000197834Y0003678800D01*
X0000196874Y0003678705D01*
X0000195951Y0003678425D01*
X0000195100Y0003677971D01*
X0000194354Y0003677359D01*
X0000193742Y0003676613D01*
X0000192706Y0003675061D01*
X0000190095Y0003672451D01*
X0000187026Y0003670400D01*
X0000186576Y0003670214D01*
X0000183615Y0003668987D01*
X0000179995Y0003668267D01*
X0000176303Y0003668267D01*
X0000172683Y0003668987D01*
X0000169722Y0003670214D01*
X0000169272Y0003670400D01*
X0000166203Y0003672451D01*
X0000163593Y0003675061D01*
X0000162556Y0003676613D01*
X0000161944Y0003677359D01*
X0000161198Y0003677971D01*
X0000160347Y0003678425D01*
X0000159424Y0003678705D01*
X0000158464Y0003678800D01*
X0000157504Y0003678705D01*
X0000156581Y0003678425D01*
X0000155730Y0003677971D01*
X0000154984Y0003677359D01*
X0000154372Y0003676613D01*
X0000153336Y0003675061D01*
X0000150725Y0003672451D01*
X0000147656Y0003670400D01*
X0000147206Y0003670214D01*
X0000144245Y0003668987D01*
X0000140625Y0003668267D01*
X0000136933Y0003668267D01*
X0000133313Y0003668987D01*
X0000130352Y0003670214D01*
X0000129902Y0003670400D01*
X0000126833Y0003672451D01*
X0000126550Y0003672734D01*
X0000125804Y0003673346D01*
X0000124954Y0003673800D01*
X0000124030Y0003674080D01*
X0000123070Y0003674175D01*
X0000122110Y0003674080D01*
X0000121187Y0003673800D01*
X0000120336Y0003673346D01*
X0000119590Y0003672734D01*
X0000118978Y0003671988D01*
X0000118524Y0003671137D01*
X0000118244Y0003670214D01*
X0000118149Y0003669254D01*
X0000118149Y0003668267D01*
X0000080669Y0003668267D01*
X0000080669Y0003705748D01*
X0000118149Y0003705748D01*
X0000118149Y0003704761D01*
G37*
G36*
X0000305267Y0003801893D02*
G01*
X0000253692Y0003801893D01*
X0000253692Y0003875271D01*
X0000305267Y0003875271D01*
X0000305267Y0003801893D01*
G37*
G36*
X0000061267Y0003801893D02*
G01*
X0000009692Y0003801893D01*
X0000009692Y0003875271D01*
X0000061267Y0003875271D01*
X0000061267Y0003801893D01*
G37*
G04 next file*
G04 #@! TF.GenerationSoftware,KiCad,Pcbnew,(5.1.5)-3*
G04 #@! TF.CreationDate,2021-04-29T13:46:15+02:00*
G04 #@! TF.ProjectId,Hivetracker,48697665-7472-4616-936b-65722e6b6963,rev?*
G04 #@! TF.SameCoordinates,PX2562500PY28a0640*
G04 #@! TF.FileFunction,Soldermask,Top*
G04 #@! TF.FilePolarity,Negative*
G04 Gerber Fmt 4.6, Leading zero omitted, Abs format (unit mm)*
G04 Created by KiCad (PCBNEW (5.1.5)-3) date 2021-04-29 13:46:15*
G04 APERTURE LIST*
G04 APERTURE END LIST*
D21*
G36*
X0000511850Y0003704761D02*
G01*
X0000511944Y0003703801D01*
X0000512225Y0003702878D01*
X0000512679Y0003702027D01*
X0000513291Y0003701281D01*
X0000514037Y0003700669D01*
X0000514888Y0003700214D01*
X0000515811Y0003699934D01*
X0000516771Y0003699840D01*
X0000517731Y0003699934D01*
X0000518654Y0003700214D01*
X0000519505Y0003700669D01*
X0000520251Y0003701281D01*
X0000520534Y0003701564D01*
X0000523603Y0003703615D01*
X0000525016Y0003704200D01*
X0000527014Y0003705027D01*
X0000530634Y0003705748D01*
X0000534326Y0003705748D01*
X0000537946Y0003705027D01*
X0000539944Y0003704200D01*
X0000541357Y0003703615D01*
X0000544426Y0003701564D01*
X0000547036Y0003698953D01*
X0000548073Y0003697402D01*
X0000548685Y0003696656D01*
X0000549431Y0003696044D01*
X0000550282Y0003695589D01*
X0000551205Y0003695309D01*
X0000552165Y0003695215D01*
X0000553125Y0003695309D01*
X0000554048Y0003695589D01*
X0000554899Y0003696044D01*
X0000555645Y0003696656D01*
X0000556257Y0003697402D01*
X0000557293Y0003698953D01*
X0000559904Y0003701564D01*
X0000562973Y0003703615D01*
X0000564386Y0003704200D01*
X0000566384Y0003705027D01*
X0000570004Y0003705748D01*
X0000573696Y0003705748D01*
X0000577316Y0003705027D01*
X0000579314Y0003704200D01*
X0000580727Y0003703615D01*
X0000583796Y0003701564D01*
X0000586406Y0003698953D01*
X0000587443Y0003697402D01*
X0000588055Y0003696656D01*
X0000588801Y0003696044D01*
X0000589652Y0003695589D01*
X0000590575Y0003695309D01*
X0000591535Y0003695215D01*
X0000592495Y0003695309D01*
X0000593418Y0003695589D01*
X0000594269Y0003696044D01*
X0000595015Y0003696656D01*
X0000595627Y0003697402D01*
X0000596663Y0003698953D01*
X0000599274Y0003701564D01*
X0000602343Y0003703615D01*
X0000603756Y0003704200D01*
X0000605754Y0003705027D01*
X0000609374Y0003705748D01*
X0000613066Y0003705748D01*
X0000616686Y0003705027D01*
X0000618684Y0003704200D01*
X0000620097Y0003703615D01*
X0000623166Y0003701564D01*
X0000625776Y0003698954D01*
X0000627827Y0003695884D01*
X0000628065Y0003695309D01*
X0000629240Y0003692474D01*
X0000629960Y0003688853D01*
X0000629960Y0003685162D01*
X0000629240Y0003681541D01*
X0000628412Y0003679543D01*
X0000627827Y0003678131D01*
X0000625776Y0003675061D01*
X0000623166Y0003672451D01*
X0000620097Y0003670400D01*
X0000619647Y0003670214D01*
X0000616686Y0003668987D01*
X0000613066Y0003668267D01*
X0000609374Y0003668267D01*
X0000605754Y0003668987D01*
X0000602793Y0003670214D01*
X0000602343Y0003670400D01*
X0000599274Y0003672451D01*
X0000596663Y0003675061D01*
X0000595627Y0003676613D01*
X0000595015Y0003677359D01*
X0000594269Y0003677971D01*
X0000593418Y0003678425D01*
X0000592495Y0003678705D01*
X0000591535Y0003678800D01*
X0000590575Y0003678705D01*
X0000589652Y0003678425D01*
X0000588801Y0003677971D01*
X0000588055Y0003677359D01*
X0000587443Y0003676613D01*
X0000586406Y0003675061D01*
X0000583796Y0003672451D01*
X0000580727Y0003670400D01*
X0000580277Y0003670214D01*
X0000577316Y0003668987D01*
X0000573696Y0003668267D01*
X0000570004Y0003668267D01*
X0000566384Y0003668987D01*
X0000563423Y0003670214D01*
X0000562973Y0003670400D01*
X0000559904Y0003672451D01*
X0000557293Y0003675061D01*
X0000556257Y0003676613D01*
X0000555645Y0003677359D01*
X0000554899Y0003677971D01*
X0000554048Y0003678425D01*
X0000553125Y0003678705D01*
X0000552165Y0003678800D01*
X0000551205Y0003678705D01*
X0000550282Y0003678425D01*
X0000549431Y0003677971D01*
X0000548685Y0003677359D01*
X0000548073Y0003676613D01*
X0000547036Y0003675061D01*
X0000544426Y0003672451D01*
X0000541357Y0003670400D01*
X0000540907Y0003670214D01*
X0000537946Y0003668987D01*
X0000534326Y0003668267D01*
X0000530634Y0003668267D01*
X0000527014Y0003668987D01*
X0000524052Y0003670214D01*
X0000523603Y0003670400D01*
X0000520534Y0003672451D01*
X0000520251Y0003672734D01*
X0000519505Y0003673346D01*
X0000518654Y0003673800D01*
X0000517731Y0003674080D01*
X0000516771Y0003674175D01*
X0000515811Y0003674080D01*
X0000514888Y0003673800D01*
X0000514037Y0003673346D01*
X0000513291Y0003672734D01*
X0000512679Y0003671988D01*
X0000512225Y0003671137D01*
X0000511944Y0003670214D01*
X0000511850Y0003669254D01*
X0000511850Y0003668267D01*
X0000474370Y0003668267D01*
X0000474370Y0003705748D01*
X0000511850Y0003705748D01*
X0000511850Y0003704761D01*
G37*
G36*
X0000698968Y0003801893D02*
G01*
X0000647393Y0003801893D01*
X0000647393Y0003875271D01*
X0000698968Y0003875271D01*
X0000698968Y0003801893D01*
G37*
G36*
X0000454968Y0003801893D02*
G01*
X0000403393Y0003801893D01*
X0000403393Y0003875271D01*
X0000454968Y0003875271D01*
X0000454968Y0003801893D01*
G37*
G04 next file*
G04 #@! TF.GenerationSoftware,KiCad,Pcbnew,(5.1.5)-3*
G04 #@! TF.CreationDate,2021-04-29T13:46:15+02:00*
G04 #@! TF.ProjectId,Hivetracker,48697665-7472-4616-936b-65722e6b6963,rev?*
G04 #@! TF.SameCoordinates,PX2562500PY28a0640*
G04 #@! TF.FileFunction,Soldermask,Top*
G04 #@! TF.FilePolarity,Negative*
G04 Gerber Fmt 4.6, Leading zero omitted, Abs format (unit mm)*
G04 Created by KiCad (PCBNEW (5.1.5)-3) date 2021-04-29 13:46:15*
G04 APERTURE LIST*
G04 APERTURE END LIST*
D22*
G36*
X0000905551Y0003704761D02*
G01*
X0000905645Y0003703801D01*
X0000905925Y0003702878D01*
X0000906380Y0003702027D01*
X0000906992Y0003701281D01*
X0000907738Y0003700669D01*
X0000908589Y0003700214D01*
X0000909512Y0003699934D01*
X0000910472Y0003699840D01*
X0000911432Y0003699934D01*
X0000912355Y0003700214D01*
X0000913206Y0003700669D01*
X0000913952Y0003701281D01*
X0000914234Y0003701564D01*
X0000917304Y0003703615D01*
X0000918716Y0003704200D01*
X0000920714Y0003705027D01*
X0000924335Y0003705748D01*
X0000928026Y0003705748D01*
X0000931647Y0003705027D01*
X0000933645Y0003704200D01*
X0000935057Y0003703615D01*
X0000938127Y0003701564D01*
X0000940737Y0003698953D01*
X0000941774Y0003697402D01*
X0000942386Y0003696656D01*
X0000943132Y0003696044D01*
X0000943982Y0003695589D01*
X0000944906Y0003695309D01*
X0000945866Y0003695215D01*
X0000946826Y0003695309D01*
X0000947749Y0003695589D01*
X0000948600Y0003696044D01*
X0000949345Y0003696656D01*
X0000949957Y0003697402D01*
X0000950994Y0003698953D01*
X0000953605Y0003701564D01*
X0000956674Y0003703615D01*
X0000958087Y0003704200D01*
X0000960084Y0003705027D01*
X0000963705Y0003705748D01*
X0000967396Y0003705748D01*
X0000971017Y0003705027D01*
X0000973015Y0003704200D01*
X0000974427Y0003703615D01*
X0000977497Y0003701564D01*
X0000980107Y0003698953D01*
X0000981144Y0003697402D01*
X0000981756Y0003696656D01*
X0000982502Y0003696044D01*
X0000983352Y0003695589D01*
X0000984276Y0003695309D01*
X0000985236Y0003695215D01*
X0000986196Y0003695309D01*
X0000987119Y0003695589D01*
X0000987970Y0003696044D01*
X0000988716Y0003696656D01*
X0000989328Y0003697402D01*
X0000990364Y0003698953D01*
X0000992975Y0003701564D01*
X0000996044Y0003703615D01*
X0000997457Y0003704200D01*
X0000999455Y0003705027D01*
X0001003075Y0003705748D01*
X0001006767Y0003705748D01*
X0001010387Y0003705027D01*
X0001012385Y0003704200D01*
X0001013798Y0003703615D01*
X0001016867Y0003701564D01*
X0001019477Y0003698954D01*
X0001021528Y0003695884D01*
X0001021766Y0003695309D01*
X0001022941Y0003692474D01*
X0001023661Y0003688853D01*
X0001023661Y0003685162D01*
X0001022941Y0003681541D01*
X0001022113Y0003679543D01*
X0001021528Y0003678131D01*
X0001019477Y0003675061D01*
X0001016867Y0003672451D01*
X0001013798Y0003670400D01*
X0001013348Y0003670214D01*
X0001010387Y0003668987D01*
X0001006767Y0003668267D01*
X0001003075Y0003668267D01*
X0000999455Y0003668987D01*
X0000996493Y0003670214D01*
X0000996044Y0003670400D01*
X0000992975Y0003672451D01*
X0000990364Y0003675061D01*
X0000989328Y0003676613D01*
X0000988716Y0003677359D01*
X0000987970Y0003677971D01*
X0000987119Y0003678425D01*
X0000986196Y0003678705D01*
X0000985236Y0003678800D01*
X0000984276Y0003678705D01*
X0000983352Y0003678425D01*
X0000982502Y0003677971D01*
X0000981756Y0003677359D01*
X0000981144Y0003676613D01*
X0000980107Y0003675061D01*
X0000977497Y0003672451D01*
X0000974427Y0003670400D01*
X0000973978Y0003670214D01*
X0000971017Y0003668987D01*
X0000967396Y0003668267D01*
X0000963705Y0003668267D01*
X0000960084Y0003668987D01*
X0000957123Y0003670214D01*
X0000956674Y0003670400D01*
X0000953605Y0003672451D01*
X0000950994Y0003675061D01*
X0000949957Y0003676613D01*
X0000949345Y0003677359D01*
X0000948600Y0003677971D01*
X0000947749Y0003678425D01*
X0000946826Y0003678705D01*
X0000945866Y0003678800D01*
X0000944906Y0003678705D01*
X0000943982Y0003678425D01*
X0000943132Y0003677971D01*
X0000942386Y0003677359D01*
X0000941774Y0003676613D01*
X0000940737Y0003675061D01*
X0000938127Y0003672451D01*
X0000935057Y0003670400D01*
X0000934608Y0003670214D01*
X0000931647Y0003668987D01*
X0000928026Y0003668267D01*
X0000924335Y0003668267D01*
X0000920714Y0003668987D01*
X0000917753Y0003670214D01*
X0000917304Y0003670400D01*
X0000914234Y0003672451D01*
X0000913952Y0003672734D01*
X0000913206Y0003673346D01*
X0000912355Y0003673800D01*
X0000911432Y0003674080D01*
X0000910472Y0003674175D01*
X0000909512Y0003674080D01*
X0000908589Y0003673800D01*
X0000907738Y0003673346D01*
X0000906992Y0003672734D01*
X0000906380Y0003671988D01*
X0000905925Y0003671137D01*
X0000905645Y0003670214D01*
X0000905551Y0003669254D01*
X0000905551Y0003668267D01*
X0000868070Y0003668267D01*
X0000868070Y0003705748D01*
X0000905551Y0003705748D01*
X0000905551Y0003704761D01*
G37*
G36*
X0001092669Y0003801893D02*
G01*
X0001041094Y0003801893D01*
X0001041094Y0003875271D01*
X0001092669Y0003875271D01*
X0001092669Y0003801893D01*
G37*
G36*
X0000848669Y0003801893D02*
G01*
X0000797094Y0003801893D01*
X0000797094Y0003875271D01*
X0000848669Y0003875271D01*
X0000848669Y0003801893D01*
G37*
G04 next file*
G04 #@! TF.GenerationSoftware,KiCad,Pcbnew,(5.1.5)-3*
G04 #@! TF.CreationDate,2021-04-29T13:46:15+02:00*
G04 #@! TF.ProjectId,Hivetracker,48697665-7472-4616-936b-65722e6b6963,rev?*
G04 #@! TF.SameCoordinates,PX2562500PY28a0640*
G04 #@! TF.FileFunction,Soldermask,Top*
G04 #@! TF.FilePolarity,Negative*
G04 Gerber Fmt 4.6, Leading zero omitted, Abs format (unit mm)*
G04 Created by KiCad (PCBNEW (5.1.5)-3) date 2021-04-29 13:46:15*
G04 APERTURE LIST*
G04 APERTURE END LIST*
D23*
G36*
X0000118149Y0003311060D02*
G01*
X0000118244Y0003310100D01*
X0000118524Y0003309177D01*
X0000118978Y0003308326D01*
X0000119590Y0003307580D01*
X0000120336Y0003306968D01*
X0000121187Y0003306514D01*
X0000122110Y0003306233D01*
X0000123070Y0003306139D01*
X0000124030Y0003306233D01*
X0000124954Y0003306514D01*
X0000125804Y0003306968D01*
X0000126550Y0003307580D01*
X0000126833Y0003307863D01*
X0000129902Y0003309914D01*
X0000131315Y0003310499D01*
X0000133313Y0003311327D01*
X0000136933Y0003312047D01*
X0000140625Y0003312047D01*
X0000144245Y0003311327D01*
X0000146243Y0003310499D01*
X0000147656Y0003309914D01*
X0000150725Y0003307863D01*
X0000153336Y0003305253D01*
X0000154372Y0003303701D01*
X0000154984Y0003302955D01*
X0000155730Y0003302343D01*
X0000156581Y0003301889D01*
X0000157504Y0003301609D01*
X0000158464Y0003301514D01*
X0000159424Y0003301609D01*
X0000160347Y0003301889D01*
X0000161198Y0003302343D01*
X0000161944Y0003302955D01*
X0000162556Y0003303701D01*
X0000163593Y0003305253D01*
X0000166203Y0003307863D01*
X0000169272Y0003309914D01*
X0000170685Y0003310499D01*
X0000172683Y0003311327D01*
X0000176303Y0003312047D01*
X0000179995Y0003312047D01*
X0000183615Y0003311327D01*
X0000185613Y0003310499D01*
X0000187026Y0003309914D01*
X0000190095Y0003307863D01*
X0000192706Y0003305253D01*
X0000193742Y0003303701D01*
X0000194354Y0003302955D01*
X0000195100Y0003302343D01*
X0000195951Y0003301889D01*
X0000196874Y0003301609D01*
X0000197834Y0003301514D01*
X0000198794Y0003301609D01*
X0000199717Y0003301889D01*
X0000200568Y0003302343D01*
X0000201314Y0003302955D01*
X0000201926Y0003303701D01*
X0000202963Y0003305253D01*
X0000205573Y0003307863D01*
X0000208642Y0003309914D01*
X0000210055Y0003310499D01*
X0000212053Y0003311327D01*
X0000215673Y0003312047D01*
X0000219365Y0003312047D01*
X0000222985Y0003311327D01*
X0000224983Y0003310499D01*
X0000226396Y0003309914D01*
X0000229465Y0003307863D01*
X0000232076Y0003305253D01*
X0000234127Y0003302183D01*
X0000234365Y0003301609D01*
X0000235539Y0003298773D01*
X0000236259Y0003295152D01*
X0000236259Y0003291461D01*
X0000235539Y0003287840D01*
X0000234712Y0003285842D01*
X0000234127Y0003284430D01*
X0000232076Y0003281360D01*
X0000229465Y0003278750D01*
X0000226396Y0003276699D01*
X0000225947Y0003276513D01*
X0000222985Y0003275287D01*
X0000219365Y0003274566D01*
X0000215673Y0003274566D01*
X0000212053Y0003275287D01*
X0000209092Y0003276513D01*
X0000208642Y0003276699D01*
X0000205573Y0003278750D01*
X0000202963Y0003281361D01*
X0000201926Y0003282912D01*
X0000201314Y0003283658D01*
X0000200568Y0003284270D01*
X0000199717Y0003284725D01*
X0000198794Y0003285005D01*
X0000197834Y0003285099D01*
X0000196874Y0003285005D01*
X0000195951Y0003284725D01*
X0000195100Y0003284270D01*
X0000194354Y0003283658D01*
X0000193742Y0003282912D01*
X0000192706Y0003281361D01*
X0000190095Y0003278750D01*
X0000187026Y0003276699D01*
X0000186576Y0003276513D01*
X0000183615Y0003275287D01*
X0000179995Y0003274566D01*
X0000176303Y0003274566D01*
X0000172683Y0003275287D01*
X0000169722Y0003276513D01*
X0000169272Y0003276699D01*
X0000166203Y0003278750D01*
X0000163593Y0003281361D01*
X0000162556Y0003282912D01*
X0000161944Y0003283658D01*
X0000161198Y0003284270D01*
X0000160347Y0003284725D01*
X0000159424Y0003285005D01*
X0000158464Y0003285099D01*
X0000157504Y0003285005D01*
X0000156581Y0003284725D01*
X0000155730Y0003284270D01*
X0000154984Y0003283658D01*
X0000154372Y0003282912D01*
X0000153336Y0003281361D01*
X0000150725Y0003278750D01*
X0000147656Y0003276699D01*
X0000147206Y0003276513D01*
X0000144245Y0003275287D01*
X0000140625Y0003274566D01*
X0000136933Y0003274566D01*
X0000133313Y0003275287D01*
X0000130352Y0003276513D01*
X0000129902Y0003276699D01*
X0000126833Y0003278750D01*
X0000126550Y0003279033D01*
X0000125804Y0003279645D01*
X0000124954Y0003280100D01*
X0000124030Y0003280380D01*
X0000123070Y0003280474D01*
X0000122110Y0003280380D01*
X0000121187Y0003280100D01*
X0000120336Y0003279645D01*
X0000119590Y0003279033D01*
X0000118978Y0003278287D01*
X0000118524Y0003277436D01*
X0000118244Y0003276513D01*
X0000118149Y0003275553D01*
X0000118149Y0003274566D01*
X0000080669Y0003274566D01*
X0000080669Y0003312047D01*
X0000118149Y0003312047D01*
X0000118149Y0003311060D01*
G37*
G36*
X0000305267Y0003408192D02*
G01*
X0000253692Y0003408192D01*
X0000253692Y0003481570D01*
X0000305267Y0003481570D01*
X0000305267Y0003408192D01*
G37*
G36*
X0000061267Y0003408192D02*
G01*
X0000009692Y0003408192D01*
X0000009692Y0003481570D01*
X0000061267Y0003481570D01*
X0000061267Y0003408192D01*
G37*
G04 next file*
G04 #@! TF.GenerationSoftware,KiCad,Pcbnew,(5.1.5)-3*
G04 #@! TF.CreationDate,2021-04-29T13:46:15+02:00*
G04 #@! TF.ProjectId,Hivetracker,48697665-7472-4616-936b-65722e6b6963,rev?*
G04 #@! TF.SameCoordinates,PX2562500PY28a0640*
G04 #@! TF.FileFunction,Soldermask,Top*
G04 #@! TF.FilePolarity,Negative*
G04 Gerber Fmt 4.6, Leading zero omitted, Abs format (unit mm)*
G04 Created by KiCad (PCBNEW (5.1.5)-3) date 2021-04-29 13:46:15*
G04 APERTURE LIST*
G04 APERTURE END LIST*
D24*
G36*
X0000511850Y0003311060D02*
G01*
X0000511944Y0003310100D01*
X0000512225Y0003309177D01*
X0000512679Y0003308326D01*
X0000513291Y0003307580D01*
X0000514037Y0003306968D01*
X0000514888Y0003306514D01*
X0000515811Y0003306233D01*
X0000516771Y0003306139D01*
X0000517731Y0003306233D01*
X0000518654Y0003306514D01*
X0000519505Y0003306968D01*
X0000520251Y0003307580D01*
X0000520534Y0003307863D01*
X0000523603Y0003309914D01*
X0000525016Y0003310499D01*
X0000527014Y0003311327D01*
X0000530634Y0003312047D01*
X0000534326Y0003312047D01*
X0000537946Y0003311327D01*
X0000539944Y0003310499D01*
X0000541357Y0003309914D01*
X0000544426Y0003307863D01*
X0000547036Y0003305253D01*
X0000548073Y0003303701D01*
X0000548685Y0003302955D01*
X0000549431Y0003302343D01*
X0000550282Y0003301889D01*
X0000551205Y0003301609D01*
X0000552165Y0003301514D01*
X0000553125Y0003301609D01*
X0000554048Y0003301889D01*
X0000554899Y0003302343D01*
X0000555645Y0003302955D01*
X0000556257Y0003303701D01*
X0000557293Y0003305253D01*
X0000559904Y0003307863D01*
X0000562973Y0003309914D01*
X0000564386Y0003310499D01*
X0000566384Y0003311327D01*
X0000570004Y0003312047D01*
X0000573696Y0003312047D01*
X0000577316Y0003311327D01*
X0000579314Y0003310499D01*
X0000580727Y0003309914D01*
X0000583796Y0003307863D01*
X0000586406Y0003305253D01*
X0000587443Y0003303701D01*
X0000588055Y0003302955D01*
X0000588801Y0003302343D01*
X0000589652Y0003301889D01*
X0000590575Y0003301609D01*
X0000591535Y0003301514D01*
X0000592495Y0003301609D01*
X0000593418Y0003301889D01*
X0000594269Y0003302343D01*
X0000595015Y0003302955D01*
X0000595627Y0003303701D01*
X0000596663Y0003305253D01*
X0000599274Y0003307863D01*
X0000602343Y0003309914D01*
X0000603756Y0003310499D01*
X0000605754Y0003311327D01*
X0000609374Y0003312047D01*
X0000613066Y0003312047D01*
X0000616686Y0003311327D01*
X0000618684Y0003310499D01*
X0000620097Y0003309914D01*
X0000623166Y0003307863D01*
X0000625776Y0003305253D01*
X0000627827Y0003302183D01*
X0000628065Y0003301609D01*
X0000629240Y0003298773D01*
X0000629960Y0003295152D01*
X0000629960Y0003291461D01*
X0000629240Y0003287840D01*
X0000628412Y0003285842D01*
X0000627827Y0003284430D01*
X0000625776Y0003281360D01*
X0000623166Y0003278750D01*
X0000620097Y0003276699D01*
X0000619647Y0003276513D01*
X0000616686Y0003275287D01*
X0000613066Y0003274566D01*
X0000609374Y0003274566D01*
X0000605754Y0003275287D01*
X0000602793Y0003276513D01*
X0000602343Y0003276699D01*
X0000599274Y0003278750D01*
X0000596663Y0003281361D01*
X0000595627Y0003282912D01*
X0000595015Y0003283658D01*
X0000594269Y0003284270D01*
X0000593418Y0003284725D01*
X0000592495Y0003285005D01*
X0000591535Y0003285099D01*
X0000590575Y0003285005D01*
X0000589652Y0003284725D01*
X0000588801Y0003284270D01*
X0000588055Y0003283658D01*
X0000587443Y0003282912D01*
X0000586406Y0003281361D01*
X0000583796Y0003278750D01*
X0000580727Y0003276699D01*
X0000580277Y0003276513D01*
X0000577316Y0003275287D01*
X0000573696Y0003274566D01*
X0000570004Y0003274566D01*
X0000566384Y0003275287D01*
X0000563423Y0003276513D01*
X0000562973Y0003276699D01*
X0000559904Y0003278750D01*
X0000557293Y0003281361D01*
X0000556257Y0003282912D01*
X0000555645Y0003283658D01*
X0000554899Y0003284270D01*
X0000554048Y0003284725D01*
X0000553125Y0003285005D01*
X0000552165Y0003285099D01*
X0000551205Y0003285005D01*
X0000550282Y0003284725D01*
X0000549431Y0003284270D01*
X0000548685Y0003283658D01*
X0000548073Y0003282912D01*
X0000547036Y0003281361D01*
X0000544426Y0003278750D01*
X0000541357Y0003276699D01*
X0000540907Y0003276513D01*
X0000537946Y0003275287D01*
X0000534326Y0003274566D01*
X0000530634Y0003274566D01*
X0000527014Y0003275287D01*
X0000524052Y0003276513D01*
X0000523603Y0003276699D01*
X0000520534Y0003278750D01*
X0000520251Y0003279033D01*
X0000519505Y0003279645D01*
X0000518654Y0003280100D01*
X0000517731Y0003280380D01*
X0000516771Y0003280474D01*
X0000515811Y0003280380D01*
X0000514888Y0003280100D01*
X0000514037Y0003279645D01*
X0000513291Y0003279033D01*
X0000512679Y0003278287D01*
X0000512225Y0003277436D01*
X0000511944Y0003276513D01*
X0000511850Y0003275553D01*
X0000511850Y0003274566D01*
X0000474370Y0003274566D01*
X0000474370Y0003312047D01*
X0000511850Y0003312047D01*
X0000511850Y0003311060D01*
G37*
G36*
X0000698968Y0003408192D02*
G01*
X0000647393Y0003408192D01*
X0000647393Y0003481570D01*
X0000698968Y0003481570D01*
X0000698968Y0003408192D01*
G37*
G36*
X0000454968Y0003408192D02*
G01*
X0000403393Y0003408192D01*
X0000403393Y0003481570D01*
X0000454968Y0003481570D01*
X0000454968Y0003408192D01*
G37*
G04 next file*
G04 #@! TF.GenerationSoftware,KiCad,Pcbnew,(5.1.5)-3*
G04 #@! TF.CreationDate,2021-04-29T13:46:15+02:00*
G04 #@! TF.ProjectId,Hivetracker,48697665-7472-4616-936b-65722e6b6963,rev?*
G04 #@! TF.SameCoordinates,PX2562500PY28a0640*
G04 #@! TF.FileFunction,Soldermask,Top*
G04 #@! TF.FilePolarity,Negative*
G04 Gerber Fmt 4.6, Leading zero omitted, Abs format (unit mm)*
G04 Created by KiCad (PCBNEW (5.1.5)-3) date 2021-04-29 13:46:15*
G04 APERTURE LIST*
G04 APERTURE END LIST*
D25*
G36*
X0000118149Y0002917359D02*
G01*
X0000118244Y0002916399D01*
X0000118524Y0002915476D01*
X0000118978Y0002914625D01*
X0000119590Y0002913880D01*
X0000120336Y0002913267D01*
X0000121187Y0002912813D01*
X0000122110Y0002912533D01*
X0000123070Y0002912438D01*
X0000124030Y0002912533D01*
X0000124954Y0002912813D01*
X0000125804Y0002913267D01*
X0000126550Y0002913880D01*
X0000126833Y0002914162D01*
X0000129902Y0002916213D01*
X0000131315Y0002916798D01*
X0000133313Y0002917626D01*
X0000136933Y0002918346D01*
X0000140625Y0002918346D01*
X0000144245Y0002917626D01*
X0000146243Y0002916798D01*
X0000147656Y0002916213D01*
X0000150725Y0002914162D01*
X0000153336Y0002911552D01*
X0000154372Y0002910000D01*
X0000154984Y0002909255D01*
X0000155730Y0002908643D01*
X0000156581Y0002908188D01*
X0000157504Y0002907908D01*
X0000158464Y0002907813D01*
X0000159424Y0002907908D01*
X0000160347Y0002908188D01*
X0000161198Y0002908643D01*
X0000161944Y0002909255D01*
X0000162556Y0002910000D01*
X0000163593Y0002911552D01*
X0000166203Y0002914162D01*
X0000169272Y0002916213D01*
X0000170685Y0002916798D01*
X0000172683Y0002917626D01*
X0000176303Y0002918346D01*
X0000179995Y0002918346D01*
X0000183615Y0002917626D01*
X0000185613Y0002916798D01*
X0000187026Y0002916213D01*
X0000190095Y0002914162D01*
X0000192706Y0002911552D01*
X0000193742Y0002910000D01*
X0000194354Y0002909255D01*
X0000195100Y0002908643D01*
X0000195951Y0002908188D01*
X0000196874Y0002907908D01*
X0000197834Y0002907813D01*
X0000198794Y0002907908D01*
X0000199717Y0002908188D01*
X0000200568Y0002908643D01*
X0000201314Y0002909255D01*
X0000201926Y0002910000D01*
X0000202963Y0002911552D01*
X0000205573Y0002914162D01*
X0000208642Y0002916213D01*
X0000210055Y0002916798D01*
X0000212053Y0002917626D01*
X0000215673Y0002918346D01*
X0000219365Y0002918346D01*
X0000222985Y0002917626D01*
X0000224983Y0002916798D01*
X0000226396Y0002916213D01*
X0000229465Y0002914162D01*
X0000232076Y0002911552D01*
X0000234127Y0002908483D01*
X0000234365Y0002907908D01*
X0000235539Y0002905072D01*
X0000236259Y0002901452D01*
X0000236259Y0002897760D01*
X0000235539Y0002894140D01*
X0000234712Y0002892142D01*
X0000234127Y0002890729D01*
X0000232076Y0002887660D01*
X0000229465Y0002885049D01*
X0000226396Y0002882998D01*
X0000225947Y0002882812D01*
X0000222985Y0002881586D01*
X0000219365Y0002880866D01*
X0000215673Y0002880866D01*
X0000212053Y0002881586D01*
X0000209092Y0002882812D01*
X0000208642Y0002882998D01*
X0000205573Y0002885049D01*
X0000202963Y0002887660D01*
X0000201926Y0002889211D01*
X0000201314Y0002889957D01*
X0000200568Y0002890569D01*
X0000199717Y0002891024D01*
X0000198794Y0002891304D01*
X0000197834Y0002891398D01*
X0000196874Y0002891304D01*
X0000195951Y0002891024D01*
X0000195100Y0002890569D01*
X0000194354Y0002889957D01*
X0000193742Y0002889211D01*
X0000192706Y0002887660D01*
X0000190095Y0002885049D01*
X0000187026Y0002882998D01*
X0000186576Y0002882812D01*
X0000183615Y0002881586D01*
X0000179995Y0002880866D01*
X0000176303Y0002880866D01*
X0000172683Y0002881586D01*
X0000169722Y0002882812D01*
X0000169272Y0002882998D01*
X0000166203Y0002885049D01*
X0000163593Y0002887660D01*
X0000162556Y0002889211D01*
X0000161944Y0002889957D01*
X0000161198Y0002890569D01*
X0000160347Y0002891024D01*
X0000159424Y0002891304D01*
X0000158464Y0002891398D01*
X0000157504Y0002891304D01*
X0000156581Y0002891024D01*
X0000155730Y0002890569D01*
X0000154984Y0002889957D01*
X0000154372Y0002889211D01*
X0000153336Y0002887660D01*
X0000150725Y0002885049D01*
X0000147656Y0002882998D01*
X0000147206Y0002882812D01*
X0000144245Y0002881586D01*
X0000140625Y0002880866D01*
X0000136933Y0002880866D01*
X0000133313Y0002881586D01*
X0000130352Y0002882812D01*
X0000129902Y0002882998D01*
X0000126833Y0002885049D01*
X0000126550Y0002885332D01*
X0000125804Y0002885944D01*
X0000124954Y0002886399D01*
X0000124030Y0002886679D01*
X0000123070Y0002886773D01*
X0000122110Y0002886679D01*
X0000121187Y0002886399D01*
X0000120336Y0002885944D01*
X0000119590Y0002885332D01*
X0000118978Y0002884586D01*
X0000118524Y0002883736D01*
X0000118244Y0002882812D01*
X0000118149Y0002881852D01*
X0000118149Y0002880866D01*
X0000080669Y0002880866D01*
X0000080669Y0002918346D01*
X0000118149Y0002918346D01*
X0000118149Y0002917359D01*
G37*
G36*
X0000305267Y0003014492D02*
G01*
X0000253692Y0003014492D01*
X0000253692Y0003087870D01*
X0000305267Y0003087870D01*
X0000305267Y0003014492D01*
G37*
G36*
X0000061267Y0003014492D02*
G01*
X0000009692Y0003014492D01*
X0000009692Y0003087870D01*
X0000061267Y0003087870D01*
X0000061267Y0003014492D01*
G37*
G04 next file*
G04 #@! TF.GenerationSoftware,KiCad,Pcbnew,(5.1.5)-3*
G04 #@! TF.CreationDate,2021-04-29T13:46:15+02:00*
G04 #@! TF.ProjectId,Hivetracker,48697665-7472-4616-936b-65722e6b6963,rev?*
G04 #@! TF.SameCoordinates,PX2562500PY28a0640*
G04 #@! TF.FileFunction,Soldermask,Top*
G04 #@! TF.FilePolarity,Negative*
G04 Gerber Fmt 4.6, Leading zero omitted, Abs format (unit mm)*
G04 Created by KiCad (PCBNEW (5.1.5)-3) date 2021-04-29 13:46:15*
G04 APERTURE LIST*
G04 APERTURE END LIST*
D26*
G36*
X0000511850Y0002917359D02*
G01*
X0000511944Y0002916399D01*
X0000512225Y0002915476D01*
X0000512679Y0002914625D01*
X0000513291Y0002913880D01*
X0000514037Y0002913267D01*
X0000514888Y0002912813D01*
X0000515811Y0002912533D01*
X0000516771Y0002912438D01*
X0000517731Y0002912533D01*
X0000518654Y0002912813D01*
X0000519505Y0002913267D01*
X0000520251Y0002913880D01*
X0000520534Y0002914162D01*
X0000523603Y0002916213D01*
X0000525016Y0002916798D01*
X0000527014Y0002917626D01*
X0000530634Y0002918346D01*
X0000534326Y0002918346D01*
X0000537946Y0002917626D01*
X0000539944Y0002916798D01*
X0000541357Y0002916213D01*
X0000544426Y0002914162D01*
X0000547036Y0002911552D01*
X0000548073Y0002910000D01*
X0000548685Y0002909255D01*
X0000549431Y0002908643D01*
X0000550282Y0002908188D01*
X0000551205Y0002907908D01*
X0000552165Y0002907813D01*
X0000553125Y0002907908D01*
X0000554048Y0002908188D01*
X0000554899Y0002908643D01*
X0000555645Y0002909255D01*
X0000556257Y0002910000D01*
X0000557293Y0002911552D01*
X0000559904Y0002914162D01*
X0000562973Y0002916213D01*
X0000564386Y0002916798D01*
X0000566384Y0002917626D01*
X0000570004Y0002918346D01*
X0000573696Y0002918346D01*
X0000577316Y0002917626D01*
X0000579314Y0002916798D01*
X0000580727Y0002916213D01*
X0000583796Y0002914162D01*
X0000586406Y0002911552D01*
X0000587443Y0002910000D01*
X0000588055Y0002909255D01*
X0000588801Y0002908643D01*
X0000589652Y0002908188D01*
X0000590575Y0002907908D01*
X0000591535Y0002907813D01*
X0000592495Y0002907908D01*
X0000593418Y0002908188D01*
X0000594269Y0002908643D01*
X0000595015Y0002909255D01*
X0000595627Y0002910000D01*
X0000596663Y0002911552D01*
X0000599274Y0002914162D01*
X0000602343Y0002916213D01*
X0000603756Y0002916798D01*
X0000605754Y0002917626D01*
X0000609374Y0002918346D01*
X0000613066Y0002918346D01*
X0000616686Y0002917626D01*
X0000618684Y0002916798D01*
X0000620097Y0002916213D01*
X0000623166Y0002914162D01*
X0000625776Y0002911552D01*
X0000627827Y0002908483D01*
X0000628065Y0002907908D01*
X0000629240Y0002905072D01*
X0000629960Y0002901452D01*
X0000629960Y0002897760D01*
X0000629240Y0002894140D01*
X0000628412Y0002892142D01*
X0000627827Y0002890729D01*
X0000625776Y0002887660D01*
X0000623166Y0002885049D01*
X0000620097Y0002882998D01*
X0000619647Y0002882812D01*
X0000616686Y0002881586D01*
X0000613066Y0002880866D01*
X0000609374Y0002880866D01*
X0000605754Y0002881586D01*
X0000602793Y0002882812D01*
X0000602343Y0002882998D01*
X0000599274Y0002885049D01*
X0000596663Y0002887660D01*
X0000595627Y0002889211D01*
X0000595015Y0002889957D01*
X0000594269Y0002890569D01*
X0000593418Y0002891024D01*
X0000592495Y0002891304D01*
X0000591535Y0002891398D01*
X0000590575Y0002891304D01*
X0000589652Y0002891024D01*
X0000588801Y0002890569D01*
X0000588055Y0002889957D01*
X0000587443Y0002889211D01*
X0000586406Y0002887660D01*
X0000583796Y0002885049D01*
X0000580727Y0002882998D01*
X0000580277Y0002882812D01*
X0000577316Y0002881586D01*
X0000573696Y0002880866D01*
X0000570004Y0002880866D01*
X0000566384Y0002881586D01*
X0000563423Y0002882812D01*
X0000562973Y0002882998D01*
X0000559904Y0002885049D01*
X0000557293Y0002887660D01*
X0000556257Y0002889211D01*
X0000555645Y0002889957D01*
X0000554899Y0002890569D01*
X0000554048Y0002891024D01*
X0000553125Y0002891304D01*
X0000552165Y0002891398D01*
X0000551205Y0002891304D01*
X0000550282Y0002891024D01*
X0000549431Y0002890569D01*
X0000548685Y0002889957D01*
X0000548073Y0002889211D01*
X0000547036Y0002887660D01*
X0000544426Y0002885049D01*
X0000541357Y0002882998D01*
X0000540907Y0002882812D01*
X0000537946Y0002881586D01*
X0000534326Y0002880866D01*
X0000530634Y0002880866D01*
X0000527014Y0002881586D01*
X0000524052Y0002882812D01*
X0000523603Y0002882998D01*
X0000520534Y0002885049D01*
X0000520251Y0002885332D01*
X0000519505Y0002885944D01*
X0000518654Y0002886399D01*
X0000517731Y0002886679D01*
X0000516771Y0002886773D01*
X0000515811Y0002886679D01*
X0000514888Y0002886399D01*
X0000514037Y0002885944D01*
X0000513291Y0002885332D01*
X0000512679Y0002884586D01*
X0000512225Y0002883736D01*
X0000511944Y0002882812D01*
X0000511850Y0002881852D01*
X0000511850Y0002880866D01*
X0000474370Y0002880866D01*
X0000474370Y0002918346D01*
X0000511850Y0002918346D01*
X0000511850Y0002917359D01*
G37*
G36*
X0000698968Y0003014492D02*
G01*
X0000647393Y0003014492D01*
X0000647393Y0003087870D01*
X0000698968Y0003087870D01*
X0000698968Y0003014492D01*
G37*
G36*
X0000454968Y0003014492D02*
G01*
X0000403393Y0003014492D01*
X0000403393Y0003087870D01*
X0000454968Y0003087870D01*
X0000454968Y0003014492D01*
G37*
G04 next file*
G04 #@! TF.GenerationSoftware,KiCad,Pcbnew,(5.1.5)-3*
G04 #@! TF.CreationDate,2021-04-29T13:46:15+02:00*
G04 #@! TF.ProjectId,Hivetracker,48697665-7472-4616-936b-65722e6b6963,rev?*
G04 #@! TF.SameCoordinates,PX2562500PY28a0640*
G04 #@! TF.FileFunction,Soldermask,Top*
G04 #@! TF.FilePolarity,Negative*
G04 Gerber Fmt 4.6, Leading zero omitted, Abs format (unit mm)*
G04 Created by KiCad (PCBNEW (5.1.5)-3) date 2021-04-29 13:46:15*
G04 APERTURE LIST*
G04 APERTURE END LIST*
D27*
G36*
X0000905551Y0002917359D02*
G01*
X0000905645Y0002916399D01*
X0000905925Y0002915476D01*
X0000906380Y0002914625D01*
X0000906992Y0002913880D01*
X0000907738Y0002913267D01*
X0000908589Y0002912813D01*
X0000909512Y0002912533D01*
X0000910472Y0002912438D01*
X0000911432Y0002912533D01*
X0000912355Y0002912813D01*
X0000913206Y0002913267D01*
X0000913952Y0002913880D01*
X0000914234Y0002914162D01*
X0000917304Y0002916213D01*
X0000918716Y0002916798D01*
X0000920714Y0002917626D01*
X0000924335Y0002918346D01*
X0000928026Y0002918346D01*
X0000931647Y0002917626D01*
X0000933645Y0002916798D01*
X0000935057Y0002916213D01*
X0000938127Y0002914162D01*
X0000940737Y0002911552D01*
X0000941774Y0002910000D01*
X0000942386Y0002909255D01*
X0000943132Y0002908643D01*
X0000943982Y0002908188D01*
X0000944906Y0002907908D01*
X0000945866Y0002907813D01*
X0000946826Y0002907908D01*
X0000947749Y0002908188D01*
X0000948600Y0002908643D01*
X0000949345Y0002909255D01*
X0000949957Y0002910000D01*
X0000950994Y0002911552D01*
X0000953605Y0002914162D01*
X0000956674Y0002916213D01*
X0000958087Y0002916798D01*
X0000960084Y0002917626D01*
X0000963705Y0002918346D01*
X0000967396Y0002918346D01*
X0000971017Y0002917626D01*
X0000973015Y0002916798D01*
X0000974427Y0002916213D01*
X0000977497Y0002914162D01*
X0000980107Y0002911552D01*
X0000981144Y0002910000D01*
X0000981756Y0002909255D01*
X0000982502Y0002908643D01*
X0000983352Y0002908188D01*
X0000984276Y0002907908D01*
X0000985236Y0002907813D01*
X0000986196Y0002907908D01*
X0000987119Y0002908188D01*
X0000987970Y0002908643D01*
X0000988716Y0002909255D01*
X0000989328Y0002910000D01*
X0000990364Y0002911552D01*
X0000992975Y0002914162D01*
X0000996044Y0002916213D01*
X0000997457Y0002916798D01*
X0000999455Y0002917626D01*
X0001003075Y0002918346D01*
X0001006767Y0002918346D01*
X0001010387Y0002917626D01*
X0001012385Y0002916798D01*
X0001013798Y0002916213D01*
X0001016867Y0002914162D01*
X0001019477Y0002911552D01*
X0001021528Y0002908483D01*
X0001021766Y0002907908D01*
X0001022941Y0002905072D01*
X0001023661Y0002901452D01*
X0001023661Y0002897760D01*
X0001022941Y0002894140D01*
X0001022113Y0002892142D01*
X0001021528Y0002890729D01*
X0001019477Y0002887660D01*
X0001016867Y0002885049D01*
X0001013798Y0002882998D01*
X0001013348Y0002882812D01*
X0001010387Y0002881586D01*
X0001006767Y0002880866D01*
X0001003075Y0002880866D01*
X0000999455Y0002881586D01*
X0000996493Y0002882812D01*
X0000996044Y0002882998D01*
X0000992975Y0002885049D01*
X0000990364Y0002887660D01*
X0000989328Y0002889211D01*
X0000988716Y0002889957D01*
X0000987970Y0002890569D01*
X0000987119Y0002891024D01*
X0000986196Y0002891304D01*
X0000985236Y0002891398D01*
X0000984276Y0002891304D01*
X0000983352Y0002891024D01*
X0000982502Y0002890569D01*
X0000981756Y0002889957D01*
X0000981144Y0002889211D01*
X0000980107Y0002887660D01*
X0000977497Y0002885049D01*
X0000974427Y0002882998D01*
X0000973978Y0002882812D01*
X0000971017Y0002881586D01*
X0000967396Y0002880866D01*
X0000963705Y0002880866D01*
X0000960084Y0002881586D01*
X0000957123Y0002882812D01*
X0000956674Y0002882998D01*
X0000953605Y0002885049D01*
X0000950994Y0002887660D01*
X0000949957Y0002889211D01*
X0000949345Y0002889957D01*
X0000948600Y0002890569D01*
X0000947749Y0002891024D01*
X0000946826Y0002891304D01*
X0000945866Y0002891398D01*
X0000944906Y0002891304D01*
X0000943982Y0002891024D01*
X0000943132Y0002890569D01*
X0000942386Y0002889957D01*
X0000941774Y0002889211D01*
X0000940737Y0002887660D01*
X0000938127Y0002885049D01*
X0000935057Y0002882998D01*
X0000934608Y0002882812D01*
X0000931647Y0002881586D01*
X0000928026Y0002880866D01*
X0000924335Y0002880866D01*
X0000920714Y0002881586D01*
X0000917753Y0002882812D01*
X0000917304Y0002882998D01*
X0000914234Y0002885049D01*
X0000913952Y0002885332D01*
X0000913206Y0002885944D01*
X0000912355Y0002886399D01*
X0000911432Y0002886679D01*
X0000910472Y0002886773D01*
X0000909512Y0002886679D01*
X0000908589Y0002886399D01*
X0000907738Y0002885944D01*
X0000906992Y0002885332D01*
X0000906380Y0002884586D01*
X0000905925Y0002883736D01*
X0000905645Y0002882812D01*
X0000905551Y0002881852D01*
X0000905551Y0002880866D01*
X0000868070Y0002880866D01*
X0000868070Y0002918346D01*
X0000905551Y0002918346D01*
X0000905551Y0002917359D01*
G37*
G36*
X0001092669Y0003014492D02*
G01*
X0001041094Y0003014492D01*
X0001041094Y0003087870D01*
X0001092669Y0003087870D01*
X0001092669Y0003014492D01*
G37*
G36*
X0000848669Y0003014492D02*
G01*
X0000797094Y0003014492D01*
X0000797094Y0003087870D01*
X0000848669Y0003087870D01*
X0000848669Y0003014492D01*
G37*
G04 next file*
G04 #@! TF.GenerationSoftware,KiCad,Pcbnew,(5.1.5)-3*
G04 #@! TF.CreationDate,2021-04-29T13:46:15+02:00*
G04 #@! TF.ProjectId,Hivetracker,48697665-7472-4616-936b-65722e6b6963,rev?*
G04 #@! TF.SameCoordinates,PX2562500PY28a0640*
G04 #@! TF.FileFunction,Soldermask,Top*
G04 #@! TF.FilePolarity,Negative*
G04 Gerber Fmt 4.6, Leading zero omitted, Abs format (unit mm)*
G04 Created by KiCad (PCBNEW (5.1.5)-3) date 2021-04-29 13:46:15*
G04 APERTURE LIST*
G04 APERTURE END LIST*
D28*
G36*
X0000905551Y0003311060D02*
G01*
X0000905645Y0003310100D01*
X0000905925Y0003309177D01*
X0000906380Y0003308326D01*
X0000906992Y0003307580D01*
X0000907738Y0003306968D01*
X0000908589Y0003306514D01*
X0000909512Y0003306233D01*
X0000910472Y0003306139D01*
X0000911432Y0003306233D01*
X0000912355Y0003306514D01*
X0000913206Y0003306968D01*
X0000913952Y0003307580D01*
X0000914234Y0003307863D01*
X0000917304Y0003309914D01*
X0000918716Y0003310499D01*
X0000920714Y0003311327D01*
X0000924335Y0003312047D01*
X0000928026Y0003312047D01*
X0000931647Y0003311327D01*
X0000933645Y0003310499D01*
X0000935057Y0003309914D01*
X0000938127Y0003307863D01*
X0000940737Y0003305253D01*
X0000941774Y0003303701D01*
X0000942386Y0003302955D01*
X0000943132Y0003302343D01*
X0000943982Y0003301889D01*
X0000944906Y0003301609D01*
X0000945866Y0003301514D01*
X0000946826Y0003301609D01*
X0000947749Y0003301889D01*
X0000948600Y0003302343D01*
X0000949345Y0003302955D01*
X0000949957Y0003303701D01*
X0000950994Y0003305253D01*
X0000953605Y0003307863D01*
X0000956674Y0003309914D01*
X0000958087Y0003310499D01*
X0000960084Y0003311327D01*
X0000963705Y0003312047D01*
X0000967396Y0003312047D01*
X0000971017Y0003311327D01*
X0000973015Y0003310499D01*
X0000974427Y0003309914D01*
X0000977497Y0003307863D01*
X0000980107Y0003305253D01*
X0000981144Y0003303701D01*
X0000981756Y0003302955D01*
X0000982502Y0003302343D01*
X0000983352Y0003301889D01*
X0000984276Y0003301609D01*
X0000985236Y0003301514D01*
X0000986196Y0003301609D01*
X0000987119Y0003301889D01*
X0000987970Y0003302343D01*
X0000988716Y0003302955D01*
X0000989328Y0003303701D01*
X0000990364Y0003305253D01*
X0000992975Y0003307863D01*
X0000996044Y0003309914D01*
X0000997457Y0003310499D01*
X0000999455Y0003311327D01*
X0001003075Y0003312047D01*
X0001006767Y0003312047D01*
X0001010387Y0003311327D01*
X0001012385Y0003310499D01*
X0001013798Y0003309914D01*
X0001016867Y0003307863D01*
X0001019477Y0003305253D01*
X0001021528Y0003302183D01*
X0001021766Y0003301609D01*
X0001022941Y0003298773D01*
X0001023661Y0003295152D01*
X0001023661Y0003291461D01*
X0001022941Y0003287840D01*
X0001022113Y0003285842D01*
X0001021528Y0003284430D01*
X0001019477Y0003281360D01*
X0001016867Y0003278750D01*
X0001013798Y0003276699D01*
X0001013348Y0003276513D01*
X0001010387Y0003275287D01*
X0001006767Y0003274566D01*
X0001003075Y0003274566D01*
X0000999455Y0003275287D01*
X0000996493Y0003276513D01*
X0000996044Y0003276699D01*
X0000992975Y0003278750D01*
X0000990364Y0003281361D01*
X0000989328Y0003282912D01*
X0000988716Y0003283658D01*
X0000987970Y0003284270D01*
X0000987119Y0003284725D01*
X0000986196Y0003285005D01*
X0000985236Y0003285099D01*
X0000984276Y0003285005D01*
X0000983352Y0003284725D01*
X0000982502Y0003284270D01*
X0000981756Y0003283658D01*
X0000981144Y0003282912D01*
X0000980107Y0003281361D01*
X0000977497Y0003278750D01*
X0000974427Y0003276699D01*
X0000973978Y0003276513D01*
X0000971017Y0003275287D01*
X0000967396Y0003274566D01*
X0000963705Y0003274566D01*
X0000960084Y0003275287D01*
X0000957123Y0003276513D01*
X0000956674Y0003276699D01*
X0000953605Y0003278750D01*
X0000950994Y0003281361D01*
X0000949957Y0003282912D01*
X0000949345Y0003283658D01*
X0000948600Y0003284270D01*
X0000947749Y0003284725D01*
X0000946826Y0003285005D01*
X0000945866Y0003285099D01*
X0000944906Y0003285005D01*
X0000943982Y0003284725D01*
X0000943132Y0003284270D01*
X0000942386Y0003283658D01*
X0000941774Y0003282912D01*
X0000940737Y0003281361D01*
X0000938127Y0003278750D01*
X0000935057Y0003276699D01*
X0000934608Y0003276513D01*
X0000931647Y0003275287D01*
X0000928026Y0003274566D01*
X0000924335Y0003274566D01*
X0000920714Y0003275287D01*
X0000917753Y0003276513D01*
X0000917304Y0003276699D01*
X0000914234Y0003278750D01*
X0000913952Y0003279033D01*
X0000913206Y0003279645D01*
X0000912355Y0003280100D01*
X0000911432Y0003280380D01*
X0000910472Y0003280474D01*
X0000909512Y0003280380D01*
X0000908589Y0003280100D01*
X0000907738Y0003279645D01*
X0000906992Y0003279033D01*
X0000906380Y0003278287D01*
X0000905925Y0003277436D01*
X0000905645Y0003276513D01*
X0000905551Y0003275553D01*
X0000905551Y0003274566D01*
X0000868070Y0003274566D01*
X0000868070Y0003312047D01*
X0000905551Y0003312047D01*
X0000905551Y0003311060D01*
G37*
G36*
X0001092669Y0003408192D02*
G01*
X0001041094Y0003408192D01*
X0001041094Y0003481570D01*
X0001092669Y0003481570D01*
X0001092669Y0003408192D01*
G37*
G36*
X0000848669Y0003408192D02*
G01*
X0000797094Y0003408192D01*
X0000797094Y0003481570D01*
X0000848669Y0003481570D01*
X0000848669Y0003408192D01*
G37*
G04 next file*
G04 #@! TF.GenerationSoftware,KiCad,Pcbnew,(5.1.5)-3*
G04 #@! TF.CreationDate,2021-04-29T13:46:15+02:00*
G04 #@! TF.ProjectId,Hivetracker,48697665-7472-4616-936b-65722e6b6963,rev?*
G04 #@! TF.SameCoordinates,PX2562500PY28a0640*
G04 #@! TF.FileFunction,Soldermask,Top*
G04 #@! TF.FilePolarity,Negative*
G04 Gerber Fmt 4.6, Leading zero omitted, Abs format (unit mm)*
G04 Created by KiCad (PCBNEW (5.1.5)-3) date 2021-04-29 13:46:15*
G04 APERTURE LIST*
G04 APERTURE END LIST*
D29*
G36*
X0001299251Y0003704761D02*
G01*
X0001299346Y0003703801D01*
X0001299626Y0003702878D01*
X0001300081Y0003702027D01*
X0001300693Y0003701281D01*
X0001301439Y0003700669D01*
X0001302289Y0003700214D01*
X0001303213Y0003699934D01*
X0001304173Y0003699840D01*
X0001305133Y0003699934D01*
X0001306056Y0003700214D01*
X0001306907Y0003700669D01*
X0001307653Y0003701281D01*
X0001307935Y0003701564D01*
X0001311005Y0003703615D01*
X0001312417Y0003704200D01*
X0001314415Y0003705027D01*
X0001318036Y0003705748D01*
X0001321727Y0003705748D01*
X0001325348Y0003705027D01*
X0001327345Y0003704200D01*
X0001328758Y0003703615D01*
X0001331828Y0003701564D01*
X0001334438Y0003698953D01*
X0001335475Y0003697402D01*
X0001336087Y0003696656D01*
X0001336832Y0003696044D01*
X0001337683Y0003695589D01*
X0001338606Y0003695309D01*
X0001339566Y0003695215D01*
X0001340526Y0003695309D01*
X0001341450Y0003695589D01*
X0001342300Y0003696044D01*
X0001343046Y0003696656D01*
X0001343658Y0003697402D01*
X0001344695Y0003698953D01*
X0001347305Y0003701564D01*
X0001350375Y0003703615D01*
X0001351787Y0003704200D01*
X0001353785Y0003705027D01*
X0001357406Y0003705748D01*
X0001361097Y0003705748D01*
X0001364718Y0003705027D01*
X0001366716Y0003704200D01*
X0001368128Y0003703615D01*
X0001371198Y0003701564D01*
X0001373808Y0003698953D01*
X0001374845Y0003697402D01*
X0001375457Y0003696656D01*
X0001376202Y0003696044D01*
X0001377053Y0003695589D01*
X0001377976Y0003695309D01*
X0001378936Y0003695215D01*
X0001379897Y0003695309D01*
X0001380820Y0003695589D01*
X0001381671Y0003696044D01*
X0001382416Y0003696656D01*
X0001383028Y0003697402D01*
X0001384065Y0003698953D01*
X0001386675Y0003701564D01*
X0001389745Y0003703615D01*
X0001391157Y0003704200D01*
X0001393155Y0003705027D01*
X0001396776Y0003705748D01*
X0001400467Y0003705748D01*
X0001404088Y0003705027D01*
X0001406086Y0003704200D01*
X0001407498Y0003703615D01*
X0001410568Y0003701564D01*
X0001413178Y0003698954D01*
X0001415229Y0003695884D01*
X0001415467Y0003695309D01*
X0001416642Y0003692474D01*
X0001417362Y0003688853D01*
X0001417362Y0003685162D01*
X0001416642Y0003681541D01*
X0001415814Y0003679543D01*
X0001415229Y0003678131D01*
X0001413178Y0003675061D01*
X0001410568Y0003672451D01*
X0001407498Y0003670400D01*
X0001407049Y0003670214D01*
X0001404088Y0003668987D01*
X0001400467Y0003668267D01*
X0001396776Y0003668267D01*
X0001393155Y0003668987D01*
X0001390194Y0003670214D01*
X0001389745Y0003670400D01*
X0001386675Y0003672451D01*
X0001384065Y0003675061D01*
X0001383028Y0003676613D01*
X0001382416Y0003677359D01*
X0001381671Y0003677971D01*
X0001380820Y0003678425D01*
X0001379897Y0003678705D01*
X0001378937Y0003678800D01*
X0001377976Y0003678705D01*
X0001377053Y0003678425D01*
X0001376202Y0003677971D01*
X0001375457Y0003677359D01*
X0001374845Y0003676613D01*
X0001373808Y0003675061D01*
X0001371198Y0003672451D01*
X0001368128Y0003670400D01*
X0001367679Y0003670214D01*
X0001364718Y0003668987D01*
X0001361097Y0003668267D01*
X0001357406Y0003668267D01*
X0001353785Y0003668987D01*
X0001350824Y0003670214D01*
X0001350375Y0003670400D01*
X0001347305Y0003672451D01*
X0001344695Y0003675061D01*
X0001343658Y0003676613D01*
X0001343046Y0003677359D01*
X0001342301Y0003677971D01*
X0001341450Y0003678425D01*
X0001340527Y0003678705D01*
X0001339566Y0003678800D01*
X0001338606Y0003678705D01*
X0001337683Y0003678425D01*
X0001336832Y0003677971D01*
X0001336087Y0003677359D01*
X0001335475Y0003676613D01*
X0001334438Y0003675061D01*
X0001331828Y0003672451D01*
X0001328758Y0003670400D01*
X0001328309Y0003670214D01*
X0001325348Y0003668987D01*
X0001321727Y0003668267D01*
X0001318036Y0003668267D01*
X0001314415Y0003668987D01*
X0001311454Y0003670214D01*
X0001311005Y0003670400D01*
X0001307935Y0003672451D01*
X0001307653Y0003672734D01*
X0001306907Y0003673346D01*
X0001306056Y0003673800D01*
X0001305133Y0003674080D01*
X0001304173Y0003674175D01*
X0001303213Y0003674080D01*
X0001302289Y0003673800D01*
X0001301439Y0003673346D01*
X0001300693Y0003672734D01*
X0001300081Y0003671988D01*
X0001299626Y0003671137D01*
X0001299346Y0003670214D01*
X0001299251Y0003669254D01*
X0001299251Y0003668267D01*
X0001261771Y0003668267D01*
X0001261771Y0003705748D01*
X0001299251Y0003705748D01*
X0001299251Y0003704761D01*
G37*
G36*
X0001486370Y0003801893D02*
G01*
X0001434795Y0003801893D01*
X0001434795Y0003875271D01*
X0001486370Y0003875271D01*
X0001486370Y0003801893D01*
G37*
G36*
X0001242370Y0003801893D02*
G01*
X0001190795Y0003801893D01*
X0001190795Y0003875271D01*
X0001242370Y0003875271D01*
X0001242370Y0003801893D01*
G37*
G04 next file*
G04 #@! TF.GenerationSoftware,KiCad,Pcbnew,(5.1.5)-3*
G04 #@! TF.CreationDate,2021-04-29T13:46:15+02:00*
G04 #@! TF.ProjectId,Hivetracker,48697665-7472-4616-936b-65722e6b6963,rev?*
G04 #@! TF.SameCoordinates,PX2562500PY28a0640*
G04 #@! TF.FileFunction,Soldermask,Top*
G04 #@! TF.FilePolarity,Negative*
G04 Gerber Fmt 4.6, Leading zero omitted, Abs format (unit mm)*
G04 Created by KiCad (PCBNEW (5.1.5)-3) date 2021-04-29 13:46:15*
G04 APERTURE LIST*
G04 APERTURE END LIST*
D30*
G36*
X0001299251Y0003311060D02*
G01*
X0001299346Y0003310100D01*
X0001299626Y0003309177D01*
X0001300081Y0003308326D01*
X0001300693Y0003307580D01*
X0001301439Y0003306968D01*
X0001302289Y0003306514D01*
X0001303213Y0003306233D01*
X0001304173Y0003306139D01*
X0001305133Y0003306233D01*
X0001306056Y0003306514D01*
X0001306907Y0003306968D01*
X0001307653Y0003307580D01*
X0001307935Y0003307863D01*
X0001311005Y0003309914D01*
X0001312417Y0003310499D01*
X0001314415Y0003311327D01*
X0001318036Y0003312047D01*
X0001321727Y0003312047D01*
X0001325348Y0003311327D01*
X0001327345Y0003310499D01*
X0001328758Y0003309914D01*
X0001331828Y0003307863D01*
X0001334438Y0003305253D01*
X0001335475Y0003303701D01*
X0001336087Y0003302955D01*
X0001336832Y0003302343D01*
X0001337683Y0003301889D01*
X0001338606Y0003301609D01*
X0001339566Y0003301514D01*
X0001340526Y0003301609D01*
X0001341450Y0003301889D01*
X0001342300Y0003302343D01*
X0001343046Y0003302955D01*
X0001343658Y0003303701D01*
X0001344695Y0003305253D01*
X0001347305Y0003307863D01*
X0001350375Y0003309914D01*
X0001351787Y0003310499D01*
X0001353785Y0003311327D01*
X0001357406Y0003312047D01*
X0001361097Y0003312047D01*
X0001364718Y0003311327D01*
X0001366716Y0003310499D01*
X0001368128Y0003309914D01*
X0001371198Y0003307863D01*
X0001373808Y0003305253D01*
X0001374845Y0003303701D01*
X0001375457Y0003302955D01*
X0001376202Y0003302343D01*
X0001377053Y0003301889D01*
X0001377976Y0003301609D01*
X0001378936Y0003301514D01*
X0001379897Y0003301609D01*
X0001380820Y0003301889D01*
X0001381671Y0003302343D01*
X0001382416Y0003302955D01*
X0001383028Y0003303701D01*
X0001384065Y0003305253D01*
X0001386675Y0003307863D01*
X0001389745Y0003309914D01*
X0001391157Y0003310499D01*
X0001393155Y0003311327D01*
X0001396776Y0003312047D01*
X0001400467Y0003312047D01*
X0001404088Y0003311327D01*
X0001406086Y0003310499D01*
X0001407498Y0003309914D01*
X0001410568Y0003307863D01*
X0001413178Y0003305253D01*
X0001415229Y0003302183D01*
X0001415467Y0003301609D01*
X0001416642Y0003298773D01*
X0001417362Y0003295152D01*
X0001417362Y0003291461D01*
X0001416642Y0003287840D01*
X0001415814Y0003285842D01*
X0001415229Y0003284430D01*
X0001413178Y0003281360D01*
X0001410568Y0003278750D01*
X0001407498Y0003276699D01*
X0001407049Y0003276513D01*
X0001404088Y0003275287D01*
X0001400467Y0003274566D01*
X0001396776Y0003274566D01*
X0001393155Y0003275287D01*
X0001390194Y0003276513D01*
X0001389745Y0003276699D01*
X0001386675Y0003278750D01*
X0001384065Y0003281361D01*
X0001383028Y0003282912D01*
X0001382416Y0003283658D01*
X0001381671Y0003284270D01*
X0001380820Y0003284725D01*
X0001379897Y0003285005D01*
X0001378937Y0003285099D01*
X0001377976Y0003285005D01*
X0001377053Y0003284725D01*
X0001376202Y0003284270D01*
X0001375457Y0003283658D01*
X0001374845Y0003282912D01*
X0001373808Y0003281361D01*
X0001371198Y0003278750D01*
X0001368128Y0003276699D01*
X0001367679Y0003276513D01*
X0001364718Y0003275287D01*
X0001361097Y0003274566D01*
X0001357406Y0003274566D01*
X0001353785Y0003275287D01*
X0001350824Y0003276513D01*
X0001350375Y0003276699D01*
X0001347305Y0003278750D01*
X0001344695Y0003281361D01*
X0001343658Y0003282912D01*
X0001343046Y0003283658D01*
X0001342301Y0003284270D01*
X0001341450Y0003284725D01*
X0001340527Y0003285005D01*
X0001339566Y0003285099D01*
X0001338606Y0003285005D01*
X0001337683Y0003284725D01*
X0001336832Y0003284270D01*
X0001336087Y0003283658D01*
X0001335475Y0003282912D01*
X0001334438Y0003281361D01*
X0001331828Y0003278750D01*
X0001328758Y0003276699D01*
X0001328309Y0003276513D01*
X0001325348Y0003275287D01*
X0001321727Y0003274566D01*
X0001318036Y0003274566D01*
X0001314415Y0003275287D01*
X0001311454Y0003276513D01*
X0001311005Y0003276699D01*
X0001307935Y0003278750D01*
X0001307653Y0003279033D01*
X0001306907Y0003279645D01*
X0001306056Y0003280100D01*
X0001305133Y0003280380D01*
X0001304173Y0003280474D01*
X0001303213Y0003280380D01*
X0001302289Y0003280100D01*
X0001301439Y0003279645D01*
X0001300693Y0003279033D01*
X0001300081Y0003278287D01*
X0001299626Y0003277436D01*
X0001299346Y0003276513D01*
X0001299251Y0003275553D01*
X0001299251Y0003274566D01*
X0001261771Y0003274566D01*
X0001261771Y0003312047D01*
X0001299251Y0003312047D01*
X0001299251Y0003311060D01*
G37*
G36*
X0001486370Y0003408192D02*
G01*
X0001434795Y0003408192D01*
X0001434795Y0003481570D01*
X0001486370Y0003481570D01*
X0001486370Y0003408192D01*
G37*
G36*
X0001242370Y0003408192D02*
G01*
X0001190795Y0003408192D01*
X0001190795Y0003481570D01*
X0001242370Y0003481570D01*
X0001242370Y0003408192D01*
G37*
G04 next file*
G04 #@! TF.GenerationSoftware,KiCad,Pcbnew,(5.1.5)-3*
G04 #@! TF.CreationDate,2021-04-29T13:46:15+02:00*
G04 #@! TF.ProjectId,Hivetracker,48697665-7472-4616-936b-65722e6b6963,rev?*
G04 #@! TF.SameCoordinates,PX2562500PY28a0640*
G04 #@! TF.FileFunction,Soldermask,Top*
G04 #@! TF.FilePolarity,Negative*
G04 Gerber Fmt 4.6, Leading zero omitted, Abs format (unit mm)*
G04 Created by KiCad (PCBNEW (5.1.5)-3) date 2021-04-29 13:46:15*
G04 APERTURE LIST*
G04 APERTURE END LIST*
D31*
G36*
X0001299251Y0002917359D02*
G01*
X0001299346Y0002916399D01*
X0001299626Y0002915476D01*
X0001300081Y0002914625D01*
X0001300693Y0002913880D01*
X0001301439Y0002913267D01*
X0001302289Y0002912813D01*
X0001303213Y0002912533D01*
X0001304173Y0002912438D01*
X0001305133Y0002912533D01*
X0001306056Y0002912813D01*
X0001306907Y0002913267D01*
X0001307653Y0002913880D01*
X0001307935Y0002914162D01*
X0001311005Y0002916213D01*
X0001312417Y0002916798D01*
X0001314415Y0002917626D01*
X0001318036Y0002918346D01*
X0001321727Y0002918346D01*
X0001325348Y0002917626D01*
X0001327345Y0002916798D01*
X0001328758Y0002916213D01*
X0001331828Y0002914162D01*
X0001334438Y0002911552D01*
X0001335475Y0002910000D01*
X0001336087Y0002909255D01*
X0001336832Y0002908643D01*
X0001337683Y0002908188D01*
X0001338606Y0002907908D01*
X0001339566Y0002907813D01*
X0001340526Y0002907908D01*
X0001341450Y0002908188D01*
X0001342300Y0002908643D01*
X0001343046Y0002909255D01*
X0001343658Y0002910000D01*
X0001344695Y0002911552D01*
X0001347305Y0002914162D01*
X0001350375Y0002916213D01*
X0001351787Y0002916798D01*
X0001353785Y0002917626D01*
X0001357406Y0002918346D01*
X0001361097Y0002918346D01*
X0001364718Y0002917626D01*
X0001366716Y0002916798D01*
X0001368128Y0002916213D01*
X0001371198Y0002914162D01*
X0001373808Y0002911552D01*
X0001374845Y0002910000D01*
X0001375457Y0002909255D01*
X0001376202Y0002908643D01*
X0001377053Y0002908188D01*
X0001377976Y0002907908D01*
X0001378936Y0002907813D01*
X0001379897Y0002907908D01*
X0001380820Y0002908188D01*
X0001381671Y0002908643D01*
X0001382416Y0002909255D01*
X0001383028Y0002910000D01*
X0001384065Y0002911552D01*
X0001386675Y0002914162D01*
X0001389745Y0002916213D01*
X0001391157Y0002916798D01*
X0001393155Y0002917626D01*
X0001396776Y0002918346D01*
X0001400467Y0002918346D01*
X0001404088Y0002917626D01*
X0001406086Y0002916798D01*
X0001407498Y0002916213D01*
X0001410568Y0002914162D01*
X0001413178Y0002911552D01*
X0001415229Y0002908483D01*
X0001415467Y0002907908D01*
X0001416642Y0002905072D01*
X0001417362Y0002901452D01*
X0001417362Y0002897760D01*
X0001416642Y0002894140D01*
X0001415814Y0002892142D01*
X0001415229Y0002890729D01*
X0001413178Y0002887660D01*
X0001410568Y0002885049D01*
X0001407498Y0002882998D01*
X0001407049Y0002882812D01*
X0001404088Y0002881586D01*
X0001400467Y0002880866D01*
X0001396776Y0002880866D01*
X0001393155Y0002881586D01*
X0001390194Y0002882812D01*
X0001389745Y0002882998D01*
X0001386675Y0002885049D01*
X0001384065Y0002887660D01*
X0001383028Y0002889211D01*
X0001382416Y0002889957D01*
X0001381671Y0002890569D01*
X0001380820Y0002891024D01*
X0001379897Y0002891304D01*
X0001378937Y0002891398D01*
X0001377976Y0002891304D01*
X0001377053Y0002891024D01*
X0001376202Y0002890569D01*
X0001375457Y0002889957D01*
X0001374845Y0002889211D01*
X0001373808Y0002887660D01*
X0001371198Y0002885049D01*
X0001368128Y0002882998D01*
X0001367679Y0002882812D01*
X0001364718Y0002881586D01*
X0001361097Y0002880866D01*
X0001357406Y0002880866D01*
X0001353785Y0002881586D01*
X0001350824Y0002882812D01*
X0001350375Y0002882998D01*
X0001347305Y0002885049D01*
X0001344695Y0002887660D01*
X0001343658Y0002889211D01*
X0001343046Y0002889957D01*
X0001342301Y0002890569D01*
X0001341450Y0002891024D01*
X0001340527Y0002891304D01*
X0001339566Y0002891398D01*
X0001338606Y0002891304D01*
X0001337683Y0002891024D01*
X0001336832Y0002890569D01*
X0001336087Y0002889957D01*
X0001335475Y0002889211D01*
X0001334438Y0002887660D01*
X0001331828Y0002885049D01*
X0001328758Y0002882998D01*
X0001328309Y0002882812D01*
X0001325348Y0002881586D01*
X0001321727Y0002880866D01*
X0001318036Y0002880866D01*
X0001314415Y0002881586D01*
X0001311454Y0002882812D01*
X0001311005Y0002882998D01*
X0001307935Y0002885049D01*
X0001307653Y0002885332D01*
X0001306907Y0002885944D01*
X0001306056Y0002886399D01*
X0001305133Y0002886679D01*
X0001304173Y0002886773D01*
X0001303213Y0002886679D01*
X0001302289Y0002886399D01*
X0001301439Y0002885944D01*
X0001300693Y0002885332D01*
X0001300081Y0002884586D01*
X0001299626Y0002883736D01*
X0001299346Y0002882812D01*
X0001299251Y0002881852D01*
X0001299251Y0002880866D01*
X0001261771Y0002880866D01*
X0001261771Y0002918346D01*
X0001299251Y0002918346D01*
X0001299251Y0002917359D01*
G37*
G36*
X0001486370Y0003014492D02*
G01*
X0001434795Y0003014492D01*
X0001434795Y0003087870D01*
X0001486370Y0003087870D01*
X0001486370Y0003014492D01*
G37*
G36*
X0001242370Y0003014492D02*
G01*
X0001190795Y0003014492D01*
X0001190795Y0003087870D01*
X0001242370Y0003087870D01*
X0001242370Y0003014492D01*
G37*
G04 next file*
G04 #@! TF.GenerationSoftware,KiCad,Pcbnew,(5.1.5)-3*
G04 #@! TF.CreationDate,2021-04-29T13:46:15+02:00*
G04 #@! TF.ProjectId,Hivetracker,48697665-7472-4616-936b-65722e6b6963,rev?*
G04 #@! TF.SameCoordinates,PX2562500PY28a0640*
G04 #@! TF.FileFunction,Soldermask,Top*
G04 #@! TF.FilePolarity,Negative*
G04 Gerber Fmt 4.6, Leading zero omitted, Abs format (unit mm)*
G04 Created by KiCad (PCBNEW (5.1.5)-3) date 2021-04-29 13:46:15*
G04 APERTURE LIST*
G04 APERTURE END LIST*
D32*
G36*
X0000118149Y0002523659D02*
G01*
X0000118244Y0002522698D01*
X0000118524Y0002521775D01*
X0000118978Y0002520924D01*
X0000119590Y0002520179D01*
X0000120336Y0002519567D01*
X0000121187Y0002519112D01*
X0000122110Y0002518832D01*
X0000123070Y0002518737D01*
X0000124030Y0002518832D01*
X0000124954Y0002519112D01*
X0000125804Y0002519567D01*
X0000126550Y0002520179D01*
X0000126833Y0002520461D01*
X0000129902Y0002522512D01*
X0000131315Y0002523097D01*
X0000133313Y0002523925D01*
X0000136933Y0002524645D01*
X0000140625Y0002524645D01*
X0000144245Y0002523925D01*
X0000146243Y0002523097D01*
X0000147656Y0002522512D01*
X0000150725Y0002520461D01*
X0000153336Y0002517851D01*
X0000154372Y0002516300D01*
X0000154984Y0002515554D01*
X0000155730Y0002514942D01*
X0000156581Y0002514487D01*
X0000157504Y0002514207D01*
X0000158464Y0002514112D01*
X0000159424Y0002514207D01*
X0000160347Y0002514487D01*
X0000161198Y0002514942D01*
X0000161944Y0002515554D01*
X0000162556Y0002516300D01*
X0000163593Y0002517851D01*
X0000166203Y0002520461D01*
X0000169272Y0002522512D01*
X0000170685Y0002523097D01*
X0000172683Y0002523925D01*
X0000176303Y0002524645D01*
X0000179995Y0002524645D01*
X0000183615Y0002523925D01*
X0000185613Y0002523097D01*
X0000187026Y0002522512D01*
X0000190095Y0002520461D01*
X0000192706Y0002517851D01*
X0000193742Y0002516300D01*
X0000194354Y0002515554D01*
X0000195100Y0002514942D01*
X0000195951Y0002514487D01*
X0000196874Y0002514207D01*
X0000197834Y0002514112D01*
X0000198794Y0002514207D01*
X0000199717Y0002514487D01*
X0000200568Y0002514942D01*
X0000201314Y0002515554D01*
X0000201926Y0002516300D01*
X0000202963Y0002517851D01*
X0000205573Y0002520461D01*
X0000208642Y0002522512D01*
X0000210055Y0002523097D01*
X0000212053Y0002523925D01*
X0000215673Y0002524645D01*
X0000219365Y0002524645D01*
X0000222985Y0002523925D01*
X0000224983Y0002523097D01*
X0000226396Y0002522512D01*
X0000229465Y0002520461D01*
X0000232076Y0002517851D01*
X0000234127Y0002514782D01*
X0000234365Y0002514207D01*
X0000235539Y0002511371D01*
X0000236259Y0002507751D01*
X0000236259Y0002504059D01*
X0000235539Y0002500439D01*
X0000234712Y0002498441D01*
X0000234127Y0002497028D01*
X0000232076Y0002493959D01*
X0000229465Y0002491349D01*
X0000226396Y0002489298D01*
X0000225947Y0002489112D01*
X0000222985Y0002487885D01*
X0000219365Y0002487165D01*
X0000215673Y0002487165D01*
X0000212053Y0002487885D01*
X0000209092Y0002489112D01*
X0000208642Y0002489298D01*
X0000205573Y0002491349D01*
X0000202963Y0002493959D01*
X0000201926Y0002495510D01*
X0000201314Y0002496256D01*
X0000200568Y0002496868D01*
X0000199717Y0002497323D01*
X0000198794Y0002497603D01*
X0000197834Y0002497698D01*
X0000196874Y0002497603D01*
X0000195951Y0002497323D01*
X0000195100Y0002496868D01*
X0000194354Y0002496256D01*
X0000193742Y0002495510D01*
X0000192706Y0002493959D01*
X0000190095Y0002491349D01*
X0000187026Y0002489298D01*
X0000186576Y0002489112D01*
X0000183615Y0002487885D01*
X0000179995Y0002487165D01*
X0000176303Y0002487165D01*
X0000172683Y0002487885D01*
X0000169722Y0002489112D01*
X0000169272Y0002489298D01*
X0000166203Y0002491349D01*
X0000163593Y0002493959D01*
X0000162556Y0002495510D01*
X0000161944Y0002496256D01*
X0000161198Y0002496868D01*
X0000160347Y0002497323D01*
X0000159424Y0002497603D01*
X0000158464Y0002497698D01*
X0000157504Y0002497603D01*
X0000156581Y0002497323D01*
X0000155730Y0002496868D01*
X0000154984Y0002496256D01*
X0000154372Y0002495510D01*
X0000153336Y0002493959D01*
X0000150725Y0002491349D01*
X0000147656Y0002489298D01*
X0000147206Y0002489112D01*
X0000144245Y0002487885D01*
X0000140625Y0002487165D01*
X0000136933Y0002487165D01*
X0000133313Y0002487885D01*
X0000130352Y0002489112D01*
X0000129902Y0002489298D01*
X0000126833Y0002491349D01*
X0000126550Y0002491631D01*
X0000125804Y0002492243D01*
X0000124954Y0002492698D01*
X0000124030Y0002492978D01*
X0000123070Y0002493073D01*
X0000122110Y0002492978D01*
X0000121187Y0002492698D01*
X0000120336Y0002492243D01*
X0000119590Y0002491631D01*
X0000118978Y0002490886D01*
X0000118524Y0002490035D01*
X0000118244Y0002489112D01*
X0000118149Y0002488151D01*
X0000118149Y0002487165D01*
X0000080669Y0002487165D01*
X0000080669Y0002524645D01*
X0000118149Y0002524645D01*
X0000118149Y0002523659D01*
G37*
G36*
X0000305267Y0002620791D02*
G01*
X0000253692Y0002620791D01*
X0000253692Y0002694169D01*
X0000305267Y0002694169D01*
X0000305267Y0002620791D01*
G37*
G36*
X0000061267Y0002620791D02*
G01*
X0000009692Y0002620791D01*
X0000009692Y0002694169D01*
X0000061267Y0002694169D01*
X0000061267Y0002620791D01*
G37*
G04 next file*
G04 #@! TF.GenerationSoftware,KiCad,Pcbnew,(5.1.5)-3*
G04 #@! TF.CreationDate,2021-04-29T13:46:15+02:00*
G04 #@! TF.ProjectId,Hivetracker,48697665-7472-4616-936b-65722e6b6963,rev?*
G04 #@! TF.SameCoordinates,PX2562500PY28a0640*
G04 #@! TF.FileFunction,Soldermask,Top*
G04 #@! TF.FilePolarity,Negative*
G04 Gerber Fmt 4.6, Leading zero omitted, Abs format (unit mm)*
G04 Created by KiCad (PCBNEW (5.1.5)-3) date 2021-04-29 13:46:15*
G04 APERTURE LIST*
G04 APERTURE END LIST*
D33*
G36*
X0000511850Y0002523659D02*
G01*
X0000511944Y0002522698D01*
X0000512225Y0002521775D01*
X0000512679Y0002520924D01*
X0000513291Y0002520179D01*
X0000514037Y0002519567D01*
X0000514888Y0002519112D01*
X0000515811Y0002518832D01*
X0000516771Y0002518737D01*
X0000517731Y0002518832D01*
X0000518654Y0002519112D01*
X0000519505Y0002519567D01*
X0000520251Y0002520179D01*
X0000520534Y0002520461D01*
X0000523603Y0002522512D01*
X0000525016Y0002523097D01*
X0000527014Y0002523925D01*
X0000530634Y0002524645D01*
X0000534326Y0002524645D01*
X0000537946Y0002523925D01*
X0000539944Y0002523097D01*
X0000541357Y0002522512D01*
X0000544426Y0002520461D01*
X0000547036Y0002517851D01*
X0000548073Y0002516300D01*
X0000548685Y0002515554D01*
X0000549431Y0002514942D01*
X0000550282Y0002514487D01*
X0000551205Y0002514207D01*
X0000552165Y0002514112D01*
X0000553125Y0002514207D01*
X0000554048Y0002514487D01*
X0000554899Y0002514942D01*
X0000555645Y0002515554D01*
X0000556257Y0002516300D01*
X0000557293Y0002517851D01*
X0000559904Y0002520461D01*
X0000562973Y0002522512D01*
X0000564386Y0002523097D01*
X0000566384Y0002523925D01*
X0000570004Y0002524645D01*
X0000573696Y0002524645D01*
X0000577316Y0002523925D01*
X0000579314Y0002523097D01*
X0000580727Y0002522512D01*
X0000583796Y0002520461D01*
X0000586406Y0002517851D01*
X0000587443Y0002516300D01*
X0000588055Y0002515554D01*
X0000588801Y0002514942D01*
X0000589652Y0002514487D01*
X0000590575Y0002514207D01*
X0000591535Y0002514112D01*
X0000592495Y0002514207D01*
X0000593418Y0002514487D01*
X0000594269Y0002514942D01*
X0000595015Y0002515554D01*
X0000595627Y0002516300D01*
X0000596663Y0002517851D01*
X0000599274Y0002520461D01*
X0000602343Y0002522512D01*
X0000603756Y0002523097D01*
X0000605754Y0002523925D01*
X0000609374Y0002524645D01*
X0000613066Y0002524645D01*
X0000616686Y0002523925D01*
X0000618684Y0002523097D01*
X0000620097Y0002522512D01*
X0000623166Y0002520461D01*
X0000625776Y0002517851D01*
X0000627827Y0002514782D01*
X0000628065Y0002514207D01*
X0000629240Y0002511371D01*
X0000629960Y0002507751D01*
X0000629960Y0002504059D01*
X0000629240Y0002500439D01*
X0000628412Y0002498441D01*
X0000627827Y0002497028D01*
X0000625776Y0002493959D01*
X0000623166Y0002491349D01*
X0000620097Y0002489298D01*
X0000619647Y0002489112D01*
X0000616686Y0002487885D01*
X0000613066Y0002487165D01*
X0000609374Y0002487165D01*
X0000605754Y0002487885D01*
X0000602793Y0002489112D01*
X0000602343Y0002489298D01*
X0000599274Y0002491349D01*
X0000596663Y0002493959D01*
X0000595627Y0002495510D01*
X0000595015Y0002496256D01*
X0000594269Y0002496868D01*
X0000593418Y0002497323D01*
X0000592495Y0002497603D01*
X0000591535Y0002497698D01*
X0000590575Y0002497603D01*
X0000589652Y0002497323D01*
X0000588801Y0002496868D01*
X0000588055Y0002496256D01*
X0000587443Y0002495510D01*
X0000586406Y0002493959D01*
X0000583796Y0002491349D01*
X0000580727Y0002489298D01*
X0000580277Y0002489112D01*
X0000577316Y0002487885D01*
X0000573696Y0002487165D01*
X0000570004Y0002487165D01*
X0000566384Y0002487885D01*
X0000563423Y0002489112D01*
X0000562973Y0002489298D01*
X0000559904Y0002491349D01*
X0000557293Y0002493959D01*
X0000556257Y0002495510D01*
X0000555645Y0002496256D01*
X0000554899Y0002496868D01*
X0000554048Y0002497323D01*
X0000553125Y0002497603D01*
X0000552165Y0002497698D01*
X0000551205Y0002497603D01*
X0000550282Y0002497323D01*
X0000549431Y0002496868D01*
X0000548685Y0002496256D01*
X0000548073Y0002495510D01*
X0000547036Y0002493959D01*
X0000544426Y0002491349D01*
X0000541357Y0002489298D01*
X0000540907Y0002489112D01*
X0000537946Y0002487885D01*
X0000534326Y0002487165D01*
X0000530634Y0002487165D01*
X0000527014Y0002487885D01*
X0000524052Y0002489112D01*
X0000523603Y0002489298D01*
X0000520534Y0002491349D01*
X0000520251Y0002491631D01*
X0000519505Y0002492243D01*
X0000518654Y0002492698D01*
X0000517731Y0002492978D01*
X0000516771Y0002493073D01*
X0000515811Y0002492978D01*
X0000514888Y0002492698D01*
X0000514037Y0002492243D01*
X0000513291Y0002491631D01*
X0000512679Y0002490886D01*
X0000512225Y0002490035D01*
X0000511944Y0002489112D01*
X0000511850Y0002488151D01*
X0000511850Y0002487165D01*
X0000474370Y0002487165D01*
X0000474370Y0002524645D01*
X0000511850Y0002524645D01*
X0000511850Y0002523659D01*
G37*
G36*
X0000698968Y0002620791D02*
G01*
X0000647393Y0002620791D01*
X0000647393Y0002694169D01*
X0000698968Y0002694169D01*
X0000698968Y0002620791D01*
G37*
G36*
X0000454968Y0002620791D02*
G01*
X0000403393Y0002620791D01*
X0000403393Y0002694169D01*
X0000454968Y0002694169D01*
X0000454968Y0002620791D01*
G37*
G04 next file*
G04 #@! TF.GenerationSoftware,KiCad,Pcbnew,(5.1.5)-3*
G04 #@! TF.CreationDate,2021-04-29T13:46:15+02:00*
G04 #@! TF.ProjectId,Hivetracker,48697665-7472-4616-936b-65722e6b6963,rev?*
G04 #@! TF.SameCoordinates,PX2562500PY28a0640*
G04 #@! TF.FileFunction,Soldermask,Top*
G04 #@! TF.FilePolarity,Negative*
G04 Gerber Fmt 4.6, Leading zero omitted, Abs format (unit mm)*
G04 Created by KiCad (PCBNEW (5.1.5)-3) date 2021-04-29 13:46:15*
G04 APERTURE LIST*
G04 APERTURE END LIST*
D34*
G36*
X0000905551Y0002523659D02*
G01*
X0000905645Y0002522698D01*
X0000905925Y0002521775D01*
X0000906380Y0002520924D01*
X0000906992Y0002520179D01*
X0000907738Y0002519567D01*
X0000908589Y0002519112D01*
X0000909512Y0002518832D01*
X0000910472Y0002518737D01*
X0000911432Y0002518832D01*
X0000912355Y0002519112D01*
X0000913206Y0002519567D01*
X0000913952Y0002520179D01*
X0000914234Y0002520461D01*
X0000917304Y0002522512D01*
X0000918716Y0002523097D01*
X0000920714Y0002523925D01*
X0000924335Y0002524645D01*
X0000928026Y0002524645D01*
X0000931647Y0002523925D01*
X0000933645Y0002523097D01*
X0000935057Y0002522512D01*
X0000938127Y0002520461D01*
X0000940737Y0002517851D01*
X0000941774Y0002516300D01*
X0000942386Y0002515554D01*
X0000943132Y0002514942D01*
X0000943982Y0002514487D01*
X0000944906Y0002514207D01*
X0000945866Y0002514112D01*
X0000946826Y0002514207D01*
X0000947749Y0002514487D01*
X0000948600Y0002514942D01*
X0000949345Y0002515554D01*
X0000949957Y0002516300D01*
X0000950994Y0002517851D01*
X0000953605Y0002520461D01*
X0000956674Y0002522512D01*
X0000958087Y0002523097D01*
X0000960084Y0002523925D01*
X0000963705Y0002524645D01*
X0000967396Y0002524645D01*
X0000971017Y0002523925D01*
X0000973015Y0002523097D01*
X0000974427Y0002522512D01*
X0000977497Y0002520461D01*
X0000980107Y0002517851D01*
X0000981144Y0002516300D01*
X0000981756Y0002515554D01*
X0000982502Y0002514942D01*
X0000983352Y0002514487D01*
X0000984276Y0002514207D01*
X0000985236Y0002514112D01*
X0000986196Y0002514207D01*
X0000987119Y0002514487D01*
X0000987970Y0002514942D01*
X0000988716Y0002515554D01*
X0000989328Y0002516300D01*
X0000990364Y0002517851D01*
X0000992975Y0002520461D01*
X0000996044Y0002522512D01*
X0000997457Y0002523097D01*
X0000999455Y0002523925D01*
X0001003075Y0002524645D01*
X0001006767Y0002524645D01*
X0001010387Y0002523925D01*
X0001012385Y0002523097D01*
X0001013798Y0002522512D01*
X0001016867Y0002520461D01*
X0001019477Y0002517851D01*
X0001021528Y0002514782D01*
X0001021766Y0002514207D01*
X0001022941Y0002511371D01*
X0001023661Y0002507751D01*
X0001023661Y0002504059D01*
X0001022941Y0002500439D01*
X0001022113Y0002498441D01*
X0001021528Y0002497028D01*
X0001019477Y0002493959D01*
X0001016867Y0002491349D01*
X0001013798Y0002489298D01*
X0001013348Y0002489112D01*
X0001010387Y0002487885D01*
X0001006767Y0002487165D01*
X0001003075Y0002487165D01*
X0000999455Y0002487885D01*
X0000996493Y0002489112D01*
X0000996044Y0002489298D01*
X0000992975Y0002491349D01*
X0000990364Y0002493959D01*
X0000989328Y0002495510D01*
X0000988716Y0002496256D01*
X0000987970Y0002496868D01*
X0000987119Y0002497323D01*
X0000986196Y0002497603D01*
X0000985236Y0002497698D01*
X0000984276Y0002497603D01*
X0000983352Y0002497323D01*
X0000982502Y0002496868D01*
X0000981756Y0002496256D01*
X0000981144Y0002495510D01*
X0000980107Y0002493959D01*
X0000977497Y0002491349D01*
X0000974427Y0002489298D01*
X0000973978Y0002489112D01*
X0000971017Y0002487885D01*
X0000967396Y0002487165D01*
X0000963705Y0002487165D01*
X0000960084Y0002487885D01*
X0000957123Y0002489112D01*
X0000956674Y0002489298D01*
X0000953605Y0002491349D01*
X0000950994Y0002493959D01*
X0000949957Y0002495510D01*
X0000949345Y0002496256D01*
X0000948600Y0002496868D01*
X0000947749Y0002497323D01*
X0000946826Y0002497603D01*
X0000945866Y0002497698D01*
X0000944906Y0002497603D01*
X0000943982Y0002497323D01*
X0000943132Y0002496868D01*
X0000942386Y0002496256D01*
X0000941774Y0002495510D01*
X0000940737Y0002493959D01*
X0000938127Y0002491349D01*
X0000935057Y0002489298D01*
X0000934608Y0002489112D01*
X0000931647Y0002487885D01*
X0000928026Y0002487165D01*
X0000924335Y0002487165D01*
X0000920714Y0002487885D01*
X0000917753Y0002489112D01*
X0000917304Y0002489298D01*
X0000914234Y0002491349D01*
X0000913952Y0002491631D01*
X0000913206Y0002492243D01*
X0000912355Y0002492698D01*
X0000911432Y0002492978D01*
X0000910472Y0002493073D01*
X0000909512Y0002492978D01*
X0000908589Y0002492698D01*
X0000907738Y0002492243D01*
X0000906992Y0002491631D01*
X0000906380Y0002490886D01*
X0000905925Y0002490035D01*
X0000905645Y0002489112D01*
X0000905551Y0002488151D01*
X0000905551Y0002487165D01*
X0000868070Y0002487165D01*
X0000868070Y0002524645D01*
X0000905551Y0002524645D01*
X0000905551Y0002523659D01*
G37*
G36*
X0001092669Y0002620791D02*
G01*
X0001041094Y0002620791D01*
X0001041094Y0002694169D01*
X0001092669Y0002694169D01*
X0001092669Y0002620791D01*
G37*
G36*
X0000848669Y0002620791D02*
G01*
X0000797094Y0002620791D01*
X0000797094Y0002694169D01*
X0000848669Y0002694169D01*
X0000848669Y0002620791D01*
G37*
G04 next file*
G04 #@! TF.GenerationSoftware,KiCad,Pcbnew,(5.1.5)-3*
G04 #@! TF.CreationDate,2021-04-29T13:46:15+02:00*
G04 #@! TF.ProjectId,Hivetracker,48697665-7472-4616-936b-65722e6b6963,rev?*
G04 #@! TF.SameCoordinates,PX2562500PY28a0640*
G04 #@! TF.FileFunction,Soldermask,Top*
G04 #@! TF.FilePolarity,Negative*
G04 Gerber Fmt 4.6, Leading zero omitted, Abs format (unit mm)*
G04 Created by KiCad (PCBNEW (5.1.5)-3) date 2021-04-29 13:46:15*
G04 APERTURE LIST*
G04 APERTURE END LIST*
D35*
G36*
X0001299251Y0002523659D02*
G01*
X0001299346Y0002522698D01*
X0001299626Y0002521775D01*
X0001300081Y0002520924D01*
X0001300693Y0002520179D01*
X0001301439Y0002519567D01*
X0001302289Y0002519112D01*
X0001303213Y0002518832D01*
X0001304173Y0002518737D01*
X0001305133Y0002518832D01*
X0001306056Y0002519112D01*
X0001306907Y0002519567D01*
X0001307653Y0002520179D01*
X0001307935Y0002520461D01*
X0001311005Y0002522512D01*
X0001312417Y0002523097D01*
X0001314415Y0002523925D01*
X0001318036Y0002524645D01*
X0001321727Y0002524645D01*
X0001325348Y0002523925D01*
X0001327345Y0002523097D01*
X0001328758Y0002522512D01*
X0001331828Y0002520461D01*
X0001334438Y0002517851D01*
X0001335475Y0002516300D01*
X0001336087Y0002515554D01*
X0001336832Y0002514942D01*
X0001337683Y0002514487D01*
X0001338606Y0002514207D01*
X0001339566Y0002514112D01*
X0001340526Y0002514207D01*
X0001341450Y0002514487D01*
X0001342300Y0002514942D01*
X0001343046Y0002515554D01*
X0001343658Y0002516300D01*
X0001344695Y0002517851D01*
X0001347305Y0002520461D01*
X0001350375Y0002522512D01*
X0001351787Y0002523097D01*
X0001353785Y0002523925D01*
X0001357406Y0002524645D01*
X0001361097Y0002524645D01*
X0001364718Y0002523925D01*
X0001366716Y0002523097D01*
X0001368128Y0002522512D01*
X0001371198Y0002520461D01*
X0001373808Y0002517851D01*
X0001374845Y0002516300D01*
X0001375457Y0002515554D01*
X0001376202Y0002514942D01*
X0001377053Y0002514487D01*
X0001377976Y0002514207D01*
X0001378936Y0002514112D01*
X0001379897Y0002514207D01*
X0001380820Y0002514487D01*
X0001381671Y0002514942D01*
X0001382416Y0002515554D01*
X0001383028Y0002516300D01*
X0001384065Y0002517851D01*
X0001386675Y0002520461D01*
X0001389745Y0002522512D01*
X0001391157Y0002523097D01*
X0001393155Y0002523925D01*
X0001396776Y0002524645D01*
X0001400467Y0002524645D01*
X0001404088Y0002523925D01*
X0001406086Y0002523097D01*
X0001407498Y0002522512D01*
X0001410568Y0002520461D01*
X0001413178Y0002517851D01*
X0001415229Y0002514782D01*
X0001415467Y0002514207D01*
X0001416642Y0002511371D01*
X0001417362Y0002507751D01*
X0001417362Y0002504059D01*
X0001416642Y0002500439D01*
X0001415814Y0002498441D01*
X0001415229Y0002497028D01*
X0001413178Y0002493959D01*
X0001410568Y0002491349D01*
X0001407498Y0002489298D01*
X0001407049Y0002489112D01*
X0001404088Y0002487885D01*
X0001400467Y0002487165D01*
X0001396776Y0002487165D01*
X0001393155Y0002487885D01*
X0001390194Y0002489112D01*
X0001389745Y0002489298D01*
X0001386675Y0002491349D01*
X0001384065Y0002493959D01*
X0001383028Y0002495510D01*
X0001382416Y0002496256D01*
X0001381671Y0002496868D01*
X0001380820Y0002497323D01*
X0001379897Y0002497603D01*
X0001378937Y0002497698D01*
X0001377976Y0002497603D01*
X0001377053Y0002497323D01*
X0001376202Y0002496868D01*
X0001375457Y0002496256D01*
X0001374845Y0002495510D01*
X0001373808Y0002493959D01*
X0001371198Y0002491349D01*
X0001368128Y0002489298D01*
X0001367679Y0002489112D01*
X0001364718Y0002487885D01*
X0001361097Y0002487165D01*
X0001357406Y0002487165D01*
X0001353785Y0002487885D01*
X0001350824Y0002489112D01*
X0001350375Y0002489298D01*
X0001347305Y0002491349D01*
X0001344695Y0002493959D01*
X0001343658Y0002495510D01*
X0001343046Y0002496256D01*
X0001342301Y0002496868D01*
X0001341450Y0002497323D01*
X0001340527Y0002497603D01*
X0001339566Y0002497698D01*
X0001338606Y0002497603D01*
X0001337683Y0002497323D01*
X0001336832Y0002496868D01*
X0001336087Y0002496256D01*
X0001335475Y0002495510D01*
X0001334438Y0002493959D01*
X0001331828Y0002491349D01*
X0001328758Y0002489298D01*
X0001328309Y0002489112D01*
X0001325348Y0002487885D01*
X0001321727Y0002487165D01*
X0001318036Y0002487165D01*
X0001314415Y0002487885D01*
X0001311454Y0002489112D01*
X0001311005Y0002489298D01*
X0001307935Y0002491349D01*
X0001307653Y0002491631D01*
X0001306907Y0002492243D01*
X0001306056Y0002492698D01*
X0001305133Y0002492978D01*
X0001304173Y0002493073D01*
X0001303213Y0002492978D01*
X0001302289Y0002492698D01*
X0001301439Y0002492243D01*
X0001300693Y0002491631D01*
X0001300081Y0002490886D01*
X0001299626Y0002490035D01*
X0001299346Y0002489112D01*
X0001299251Y0002488151D01*
X0001299251Y0002487165D01*
X0001261771Y0002487165D01*
X0001261771Y0002524645D01*
X0001299251Y0002524645D01*
X0001299251Y0002523659D01*
G37*
G36*
X0001486370Y0002620791D02*
G01*
X0001434795Y0002620791D01*
X0001434795Y0002694169D01*
X0001486370Y0002694169D01*
X0001486370Y0002620791D01*
G37*
G36*
X0001242370Y0002620791D02*
G01*
X0001190795Y0002620791D01*
X0001190795Y0002694169D01*
X0001242370Y0002694169D01*
X0001242370Y0002620791D01*
G37*
M02*