%MOIN*%
%OFA0B0*%
%FSLAX46Y46*%
%IPPOS*%
%LPD*%
%ADD10C,0.0039370078740157488*%
%ADD21C,0.0039370078740157488*%
%ADD22C,0.0039370078740157488*%
%ADD23C,0.0039370078740157488*%
%ADD24C,0.0039370078740157488*%
%ADD25C,0.0039370078740157488*%
%ADD26C,0.0039370078740157488*%
%ADD27C,0.0039370078740157488*%
%ADD28C,0.0039370078740157488*%
%ADD29C,0.0039370078740157488*%
%ADD30C,0.0039370078740157488*%
%ADD31C,0.0039370078740157488*%
%ADD32C,0.0039370078740157488*%
%ADD33C,0.0039370078740157488*%
%ADD34C,0.0039370078740157488*%
%ADD35C,0.0039370078740157488*%
D10*
X0000188976Y0003793307D02*
X0000125984Y0003793307D01*
X0000125984Y0003793307D02*
X0000125984Y0003730314D01*
X0000125984Y0003730314D02*
X0000188976Y0003730314D01*
X0000188976Y0003730314D02*
X0000188976Y0003793307D01*
X0000064116Y0003784776D02*
X0000065054Y0003785714D01*
X0000065991Y0003788526D01*
X0000065991Y0003790401D01*
X0000065054Y0003793213D01*
X0000063179Y0003795088D01*
X0000061304Y0003796025D01*
X0000057555Y0003796962D01*
X0000054743Y0003796962D01*
X0000050993Y0003796025D01*
X0000049118Y0003795088D01*
X0000047244Y0003793213D01*
X0000046306Y0003790401D01*
X0000046306Y0003788526D01*
X0000047244Y0003785714D01*
X0000048181Y0003784776D01*
X0000065991Y0003766029D02*
X0000065991Y0003777277D01*
X0000065991Y0003771653D02*
X0000046306Y0003771653D01*
X0000049118Y0003773528D01*
X0000050993Y0003775403D01*
X0000051930Y0003777277D01*
X0000166479Y0003841076D02*
X0000167416Y0003842013D01*
X0000168353Y0003844825D01*
X0000168353Y0003846700D01*
X0000167416Y0003849512D01*
X0000165541Y0003851387D01*
X0000163667Y0003852324D01*
X0000159917Y0003853262D01*
X0000157105Y0003853262D01*
X0000153355Y0003852324D01*
X0000151481Y0003851387D01*
X0000149606Y0003849512D01*
X0000148668Y0003846700D01*
X0000148668Y0003844825D01*
X0000149606Y0003842013D01*
X0000150543Y0003841076D01*
X0000150543Y0003833577D02*
X0000149606Y0003832639D01*
X0000148668Y0003830764D01*
X0000148668Y0003826077D01*
X0000149606Y0003824203D01*
X0000150543Y0003823265D01*
X0000152418Y0003822328D01*
X0000154293Y0003822328D01*
X0000157105Y0003823265D01*
X0000168353Y0003834514D01*
X0000168353Y0003822328D01*
X0000275834Y0003840682D02*
X0000266460Y0003847244D01*
X0000275834Y0003851931D02*
X0000256149Y0003851931D01*
X0000256149Y0003844431D01*
X0000257086Y0003842557D01*
X0000258023Y0003841619D01*
X0000259898Y0003840682D01*
X0000262710Y0003840682D01*
X0000264585Y0003841619D01*
X0000265523Y0003842557D01*
X0000266460Y0003844431D01*
X0000266460Y0003851931D01*
X0000275834Y0003821934D02*
X0000275834Y0003833183D01*
X0000275834Y0003827559D02*
X0000256149Y0003827559D01*
X0000258961Y0003829433D01*
X0000260836Y0003831308D01*
X0000261773Y0003833183D01*
G04 next file*
G04 #@! TF.GenerationSoftware,KiCad,Pcbnew,(5.1.5)-3*
G04 #@! TF.CreationDate,2021-04-29T13:46:15+02:00*
G04 #@! TF.ProjectId,Hivetracker,48697665-7472-4616-936b-65722e6b6963,rev?*
G04 #@! TF.SameCoordinates,PX2562500PY28a0640*
G04 #@! TF.FileFunction,Legend,Bot*
G04 #@! TF.FilePolarity,Positive*
G04 Gerber Fmt 4.6, Leading zero omitted, Abs format (unit mm)*
G04 Created by KiCad (PCBNEW (5.1.5)-3) date 2021-04-29 13:46:15*
G04 APERTURE LIST*
G04 APERTURE END LIST*
D21*
X0000582677Y0003793307D02*
X0000519685Y0003793307D01*
X0000519685Y0003793307D02*
X0000519685Y0003730314D01*
X0000519685Y0003730314D02*
X0000582677Y0003730314D01*
X0000582677Y0003730314D02*
X0000582677Y0003793307D01*
X0000457817Y0003784776D02*
X0000458755Y0003785714D01*
X0000459692Y0003788526D01*
X0000459692Y0003790401D01*
X0000458755Y0003793213D01*
X0000456880Y0003795088D01*
X0000455005Y0003796025D01*
X0000451256Y0003796962D01*
X0000448443Y0003796962D01*
X0000444694Y0003796025D01*
X0000442819Y0003795088D01*
X0000440944Y0003793213D01*
X0000440007Y0003790401D01*
X0000440007Y0003788526D01*
X0000440944Y0003785714D01*
X0000441882Y0003784776D01*
X0000459692Y0003766029D02*
X0000459692Y0003777277D01*
X0000459692Y0003771653D02*
X0000440007Y0003771653D01*
X0000442819Y0003773528D01*
X0000444694Y0003775403D01*
X0000445631Y0003777277D01*
X0000560179Y0003841076D02*
X0000561117Y0003842013D01*
X0000562054Y0003844825D01*
X0000562054Y0003846700D01*
X0000561117Y0003849512D01*
X0000559242Y0003851387D01*
X0000557367Y0003852324D01*
X0000553618Y0003853262D01*
X0000550806Y0003853262D01*
X0000547056Y0003852324D01*
X0000545181Y0003851387D01*
X0000543307Y0003849512D01*
X0000542369Y0003846700D01*
X0000542369Y0003844825D01*
X0000543307Y0003842013D01*
X0000544244Y0003841076D01*
X0000544244Y0003833577D02*
X0000543307Y0003832639D01*
X0000542369Y0003830764D01*
X0000542369Y0003826077D01*
X0000543307Y0003824203D01*
X0000544244Y0003823265D01*
X0000546119Y0003822328D01*
X0000547993Y0003822328D01*
X0000550806Y0003823265D01*
X0000562054Y0003834514D01*
X0000562054Y0003822328D01*
X0000669535Y0003840682D02*
X0000660161Y0003847244D01*
X0000669535Y0003851931D02*
X0000649850Y0003851931D01*
X0000649850Y0003844431D01*
X0000650787Y0003842557D01*
X0000651724Y0003841619D01*
X0000653599Y0003840682D01*
X0000656411Y0003840682D01*
X0000658286Y0003841619D01*
X0000659223Y0003842557D01*
X0000660161Y0003844431D01*
X0000660161Y0003851931D01*
X0000669535Y0003821934D02*
X0000669535Y0003833183D01*
X0000669535Y0003827559D02*
X0000649850Y0003827559D01*
X0000652662Y0003829433D01*
X0000654536Y0003831308D01*
X0000655474Y0003833183D01*
G04 next file*
G04 #@! TF.GenerationSoftware,KiCad,Pcbnew,(5.1.5)-3*
G04 #@! TF.CreationDate,2021-04-29T13:46:15+02:00*
G04 #@! TF.ProjectId,Hivetracker,48697665-7472-4616-936b-65722e6b6963,rev?*
G04 #@! TF.SameCoordinates,PX2562500PY28a0640*
G04 #@! TF.FileFunction,Legend,Bot*
G04 #@! TF.FilePolarity,Positive*
G04 Gerber Fmt 4.6, Leading zero omitted, Abs format (unit mm)*
G04 Created by KiCad (PCBNEW (5.1.5)-3) date 2021-04-29 13:46:15*
G04 APERTURE LIST*
G04 APERTURE END LIST*
D22*
X0000976377Y0003793307D02*
X0000913385Y0003793307D01*
X0000913385Y0003793307D02*
X0000913385Y0003730314D01*
X0000913385Y0003730314D02*
X0000976377Y0003730314D01*
X0000976377Y0003730314D02*
X0000976377Y0003793307D01*
X0000851518Y0003784776D02*
X0000852455Y0003785714D01*
X0000853393Y0003788526D01*
X0000853393Y0003790401D01*
X0000852455Y0003793213D01*
X0000850581Y0003795088D01*
X0000848706Y0003796025D01*
X0000844956Y0003796962D01*
X0000842144Y0003796962D01*
X0000838395Y0003796025D01*
X0000836520Y0003795088D01*
X0000834645Y0003793213D01*
X0000833708Y0003790401D01*
X0000833708Y0003788526D01*
X0000834645Y0003785714D01*
X0000835583Y0003784776D01*
X0000853393Y0003766029D02*
X0000853393Y0003777277D01*
X0000853393Y0003771653D02*
X0000833708Y0003771653D01*
X0000836520Y0003773528D01*
X0000838395Y0003775403D01*
X0000839332Y0003777277D01*
X0000953880Y0003841076D02*
X0000954818Y0003842013D01*
X0000955755Y0003844825D01*
X0000955755Y0003846700D01*
X0000954818Y0003849512D01*
X0000952943Y0003851387D01*
X0000951068Y0003852324D01*
X0000947319Y0003853262D01*
X0000944506Y0003853262D01*
X0000940757Y0003852324D01*
X0000938882Y0003851387D01*
X0000937007Y0003849512D01*
X0000936070Y0003846700D01*
X0000936070Y0003844825D01*
X0000937007Y0003842013D01*
X0000937945Y0003841076D01*
X0000937945Y0003833577D02*
X0000937007Y0003832639D01*
X0000936070Y0003830764D01*
X0000936070Y0003826077D01*
X0000937007Y0003824203D01*
X0000937945Y0003823265D01*
X0000939820Y0003822328D01*
X0000941694Y0003822328D01*
X0000944506Y0003823265D01*
X0000955755Y0003834514D01*
X0000955755Y0003822328D01*
X0001063235Y0003840682D02*
X0001053862Y0003847244D01*
X0001063235Y0003851931D02*
X0001043550Y0003851931D01*
X0001043550Y0003844431D01*
X0001044488Y0003842557D01*
X0001045425Y0003841619D01*
X0001047300Y0003840682D01*
X0001050112Y0003840682D01*
X0001051987Y0003841619D01*
X0001052924Y0003842557D01*
X0001053862Y0003844431D01*
X0001053862Y0003851931D01*
X0001063235Y0003821934D02*
X0001063235Y0003833183D01*
X0001063235Y0003827559D02*
X0001043550Y0003827559D01*
X0001046362Y0003829433D01*
X0001048237Y0003831308D01*
X0001049175Y0003833183D01*
G04 next file*
G04 #@! TF.GenerationSoftware,KiCad,Pcbnew,(5.1.5)-3*
G04 #@! TF.CreationDate,2021-04-29T13:46:15+02:00*
G04 #@! TF.ProjectId,Hivetracker,48697665-7472-4616-936b-65722e6b6963,rev?*
G04 #@! TF.SameCoordinates,PX2562500PY28a0640*
G04 #@! TF.FileFunction,Legend,Bot*
G04 #@! TF.FilePolarity,Positive*
G04 Gerber Fmt 4.6, Leading zero omitted, Abs format (unit mm)*
G04 Created by KiCad (PCBNEW (5.1.5)-3) date 2021-04-29 13:46:15*
G04 APERTURE LIST*
G04 APERTURE END LIST*
D23*
X0000188976Y0003399606D02*
X0000125984Y0003399606D01*
X0000125984Y0003399606D02*
X0000125984Y0003336614D01*
X0000125984Y0003336614D02*
X0000188976Y0003336614D01*
X0000188976Y0003336614D02*
X0000188976Y0003399606D01*
X0000064116Y0003391076D02*
X0000065054Y0003392013D01*
X0000065991Y0003394825D01*
X0000065991Y0003396700D01*
X0000065054Y0003399512D01*
X0000063179Y0003401387D01*
X0000061304Y0003402324D01*
X0000057555Y0003403262D01*
X0000054743Y0003403262D01*
X0000050993Y0003402324D01*
X0000049118Y0003401387D01*
X0000047244Y0003399512D01*
X0000046306Y0003396700D01*
X0000046306Y0003394825D01*
X0000047244Y0003392013D01*
X0000048181Y0003391076D01*
X0000065991Y0003372328D02*
X0000065991Y0003383577D01*
X0000065991Y0003377952D02*
X0000046306Y0003377952D01*
X0000049118Y0003379827D01*
X0000050993Y0003381702D01*
X0000051930Y0003383577D01*
X0000166479Y0003447375D02*
X0000167416Y0003448312D01*
X0000168353Y0003451124D01*
X0000168353Y0003452999D01*
X0000167416Y0003455811D01*
X0000165541Y0003457686D01*
X0000163667Y0003458623D01*
X0000159917Y0003459561D01*
X0000157105Y0003459561D01*
X0000153355Y0003458623D01*
X0000151481Y0003457686D01*
X0000149606Y0003455811D01*
X0000148668Y0003452999D01*
X0000148668Y0003451124D01*
X0000149606Y0003448312D01*
X0000150543Y0003447375D01*
X0000150543Y0003439876D02*
X0000149606Y0003438938D01*
X0000148668Y0003437064D01*
X0000148668Y0003432377D01*
X0000149606Y0003430502D01*
X0000150543Y0003429565D01*
X0000152418Y0003428627D01*
X0000154293Y0003428627D01*
X0000157105Y0003429565D01*
X0000168353Y0003440813D01*
X0000168353Y0003428627D01*
X0000275834Y0003446981D02*
X0000266460Y0003453543D01*
X0000275834Y0003458230D02*
X0000256149Y0003458230D01*
X0000256149Y0003450731D01*
X0000257086Y0003448856D01*
X0000258023Y0003447919D01*
X0000259898Y0003446981D01*
X0000262710Y0003446981D01*
X0000264585Y0003447919D01*
X0000265523Y0003448856D01*
X0000266460Y0003450731D01*
X0000266460Y0003458230D01*
X0000275834Y0003428233D02*
X0000275834Y0003439482D01*
X0000275834Y0003433858D02*
X0000256149Y0003433858D01*
X0000258961Y0003435733D01*
X0000260836Y0003437607D01*
X0000261773Y0003439482D01*
G04 next file*
G04 #@! TF.GenerationSoftware,KiCad,Pcbnew,(5.1.5)-3*
G04 #@! TF.CreationDate,2021-04-29T13:46:15+02:00*
G04 #@! TF.ProjectId,Hivetracker,48697665-7472-4616-936b-65722e6b6963,rev?*
G04 #@! TF.SameCoordinates,PX2562500PY28a0640*
G04 #@! TF.FileFunction,Legend,Bot*
G04 #@! TF.FilePolarity,Positive*
G04 Gerber Fmt 4.6, Leading zero omitted, Abs format (unit mm)*
G04 Created by KiCad (PCBNEW (5.1.5)-3) date 2021-04-29 13:46:15*
G04 APERTURE LIST*
G04 APERTURE END LIST*
D24*
X0000582677Y0003399606D02*
X0000519685Y0003399606D01*
X0000519685Y0003399606D02*
X0000519685Y0003336614D01*
X0000519685Y0003336614D02*
X0000582677Y0003336614D01*
X0000582677Y0003336614D02*
X0000582677Y0003399606D01*
X0000457817Y0003391076D02*
X0000458755Y0003392013D01*
X0000459692Y0003394825D01*
X0000459692Y0003396700D01*
X0000458755Y0003399512D01*
X0000456880Y0003401387D01*
X0000455005Y0003402324D01*
X0000451256Y0003403262D01*
X0000448443Y0003403262D01*
X0000444694Y0003402324D01*
X0000442819Y0003401387D01*
X0000440944Y0003399512D01*
X0000440007Y0003396700D01*
X0000440007Y0003394825D01*
X0000440944Y0003392013D01*
X0000441882Y0003391076D01*
X0000459692Y0003372328D02*
X0000459692Y0003383577D01*
X0000459692Y0003377952D02*
X0000440007Y0003377952D01*
X0000442819Y0003379827D01*
X0000444694Y0003381702D01*
X0000445631Y0003383577D01*
X0000560179Y0003447375D02*
X0000561117Y0003448312D01*
X0000562054Y0003451124D01*
X0000562054Y0003452999D01*
X0000561117Y0003455811D01*
X0000559242Y0003457686D01*
X0000557367Y0003458623D01*
X0000553618Y0003459561D01*
X0000550806Y0003459561D01*
X0000547056Y0003458623D01*
X0000545181Y0003457686D01*
X0000543307Y0003455811D01*
X0000542369Y0003452999D01*
X0000542369Y0003451124D01*
X0000543307Y0003448312D01*
X0000544244Y0003447375D01*
X0000544244Y0003439876D02*
X0000543307Y0003438938D01*
X0000542369Y0003437064D01*
X0000542369Y0003432377D01*
X0000543307Y0003430502D01*
X0000544244Y0003429565D01*
X0000546119Y0003428627D01*
X0000547993Y0003428627D01*
X0000550806Y0003429565D01*
X0000562054Y0003440813D01*
X0000562054Y0003428627D01*
X0000669535Y0003446981D02*
X0000660161Y0003453543D01*
X0000669535Y0003458230D02*
X0000649850Y0003458230D01*
X0000649850Y0003450731D01*
X0000650787Y0003448856D01*
X0000651724Y0003447919D01*
X0000653599Y0003446981D01*
X0000656411Y0003446981D01*
X0000658286Y0003447919D01*
X0000659223Y0003448856D01*
X0000660161Y0003450731D01*
X0000660161Y0003458230D01*
X0000669535Y0003428233D02*
X0000669535Y0003439482D01*
X0000669535Y0003433858D02*
X0000649850Y0003433858D01*
X0000652662Y0003435733D01*
X0000654536Y0003437607D01*
X0000655474Y0003439482D01*
G04 next file*
G04 #@! TF.GenerationSoftware,KiCad,Pcbnew,(5.1.5)-3*
G04 #@! TF.CreationDate,2021-04-29T13:46:15+02:00*
G04 #@! TF.ProjectId,Hivetracker,48697665-7472-4616-936b-65722e6b6963,rev?*
G04 #@! TF.SameCoordinates,PX2562500PY28a0640*
G04 #@! TF.FileFunction,Legend,Bot*
G04 #@! TF.FilePolarity,Positive*
G04 Gerber Fmt 4.6, Leading zero omitted, Abs format (unit mm)*
G04 Created by KiCad (PCBNEW (5.1.5)-3) date 2021-04-29 13:46:15*
G04 APERTURE LIST*
G04 APERTURE END LIST*
D25*
X0000188976Y0003005905D02*
X0000125984Y0003005905D01*
X0000125984Y0003005905D02*
X0000125984Y0002942913D01*
X0000125984Y0002942913D02*
X0000188976Y0002942913D01*
X0000188976Y0002942913D02*
X0000188976Y0003005905D01*
X0000064116Y0002997375D02*
X0000065054Y0002998312D01*
X0000065991Y0003001124D01*
X0000065991Y0003002999D01*
X0000065054Y0003005811D01*
X0000063179Y0003007686D01*
X0000061304Y0003008623D01*
X0000057555Y0003009561D01*
X0000054743Y0003009561D01*
X0000050993Y0003008623D01*
X0000049118Y0003007686D01*
X0000047244Y0003005811D01*
X0000046306Y0003002999D01*
X0000046306Y0003001124D01*
X0000047244Y0002998312D01*
X0000048181Y0002997375D01*
X0000065991Y0002978627D02*
X0000065991Y0002989876D01*
X0000065991Y0002984251D02*
X0000046306Y0002984251D01*
X0000049118Y0002986126D01*
X0000050993Y0002988001D01*
X0000051930Y0002989876D01*
X0000166479Y0003053674D02*
X0000167416Y0003054611D01*
X0000168353Y0003057424D01*
X0000168353Y0003059298D01*
X0000167416Y0003062111D01*
X0000165541Y0003063985D01*
X0000163667Y0003064923D01*
X0000159917Y0003065860D01*
X0000157105Y0003065860D01*
X0000153355Y0003064923D01*
X0000151481Y0003063985D01*
X0000149606Y0003062111D01*
X0000148668Y0003059298D01*
X0000148668Y0003057424D01*
X0000149606Y0003054611D01*
X0000150543Y0003053674D01*
X0000150543Y0003046175D02*
X0000149606Y0003045238D01*
X0000148668Y0003043363D01*
X0000148668Y0003038676D01*
X0000149606Y0003036801D01*
X0000150543Y0003035864D01*
X0000152418Y0003034926D01*
X0000154293Y0003034926D01*
X0000157105Y0003035864D01*
X0000168353Y0003047112D01*
X0000168353Y0003034926D01*
X0000275834Y0003053280D02*
X0000266460Y0003059842D01*
X0000275834Y0003064529D02*
X0000256149Y0003064529D01*
X0000256149Y0003057030D01*
X0000257086Y0003055155D01*
X0000258023Y0003054218D01*
X0000259898Y0003053280D01*
X0000262710Y0003053280D01*
X0000264585Y0003054218D01*
X0000265523Y0003055155D01*
X0000266460Y0003057030D01*
X0000266460Y0003064529D01*
X0000275834Y0003034533D02*
X0000275834Y0003045781D01*
X0000275834Y0003040157D02*
X0000256149Y0003040157D01*
X0000258961Y0003042032D01*
X0000260836Y0003043907D01*
X0000261773Y0003045781D01*
G04 next file*
G04 #@! TF.GenerationSoftware,KiCad,Pcbnew,(5.1.5)-3*
G04 #@! TF.CreationDate,2021-04-29T13:46:15+02:00*
G04 #@! TF.ProjectId,Hivetracker,48697665-7472-4616-936b-65722e6b6963,rev?*
G04 #@! TF.SameCoordinates,PX2562500PY28a0640*
G04 #@! TF.FileFunction,Legend,Bot*
G04 #@! TF.FilePolarity,Positive*
G04 Gerber Fmt 4.6, Leading zero omitted, Abs format (unit mm)*
G04 Created by KiCad (PCBNEW (5.1.5)-3) date 2021-04-29 13:46:15*
G04 APERTURE LIST*
G04 APERTURE END LIST*
D26*
X0000582677Y0003005905D02*
X0000519685Y0003005905D01*
X0000519685Y0003005905D02*
X0000519685Y0002942913D01*
X0000519685Y0002942913D02*
X0000582677Y0002942913D01*
X0000582677Y0002942913D02*
X0000582677Y0003005905D01*
X0000457817Y0002997375D02*
X0000458755Y0002998312D01*
X0000459692Y0003001124D01*
X0000459692Y0003002999D01*
X0000458755Y0003005811D01*
X0000456880Y0003007686D01*
X0000455005Y0003008623D01*
X0000451256Y0003009561D01*
X0000448443Y0003009561D01*
X0000444694Y0003008623D01*
X0000442819Y0003007686D01*
X0000440944Y0003005811D01*
X0000440007Y0003002999D01*
X0000440007Y0003001124D01*
X0000440944Y0002998312D01*
X0000441882Y0002997375D01*
X0000459692Y0002978627D02*
X0000459692Y0002989876D01*
X0000459692Y0002984251D02*
X0000440007Y0002984251D01*
X0000442819Y0002986126D01*
X0000444694Y0002988001D01*
X0000445631Y0002989876D01*
X0000560179Y0003053674D02*
X0000561117Y0003054611D01*
X0000562054Y0003057424D01*
X0000562054Y0003059298D01*
X0000561117Y0003062111D01*
X0000559242Y0003063985D01*
X0000557367Y0003064923D01*
X0000553618Y0003065860D01*
X0000550806Y0003065860D01*
X0000547056Y0003064923D01*
X0000545181Y0003063985D01*
X0000543307Y0003062111D01*
X0000542369Y0003059298D01*
X0000542369Y0003057424D01*
X0000543307Y0003054611D01*
X0000544244Y0003053674D01*
X0000544244Y0003046175D02*
X0000543307Y0003045238D01*
X0000542369Y0003043363D01*
X0000542369Y0003038676D01*
X0000543307Y0003036801D01*
X0000544244Y0003035864D01*
X0000546119Y0003034926D01*
X0000547993Y0003034926D01*
X0000550806Y0003035864D01*
X0000562054Y0003047112D01*
X0000562054Y0003034926D01*
X0000669535Y0003053280D02*
X0000660161Y0003059842D01*
X0000669535Y0003064529D02*
X0000649850Y0003064529D01*
X0000649850Y0003057030D01*
X0000650787Y0003055155D01*
X0000651724Y0003054218D01*
X0000653599Y0003053280D01*
X0000656411Y0003053280D01*
X0000658286Y0003054218D01*
X0000659223Y0003055155D01*
X0000660161Y0003057030D01*
X0000660161Y0003064529D01*
X0000669535Y0003034533D02*
X0000669535Y0003045781D01*
X0000669535Y0003040157D02*
X0000649850Y0003040157D01*
X0000652662Y0003042032D01*
X0000654536Y0003043907D01*
X0000655474Y0003045781D01*
G04 next file*
G04 #@! TF.GenerationSoftware,KiCad,Pcbnew,(5.1.5)-3*
G04 #@! TF.CreationDate,2021-04-29T13:46:15+02:00*
G04 #@! TF.ProjectId,Hivetracker,48697665-7472-4616-936b-65722e6b6963,rev?*
G04 #@! TF.SameCoordinates,PX2562500PY28a0640*
G04 #@! TF.FileFunction,Legend,Bot*
G04 #@! TF.FilePolarity,Positive*
G04 Gerber Fmt 4.6, Leading zero omitted, Abs format (unit mm)*
G04 Created by KiCad (PCBNEW (5.1.5)-3) date 2021-04-29 13:46:15*
G04 APERTURE LIST*
G04 APERTURE END LIST*
D27*
X0000976377Y0003005905D02*
X0000913385Y0003005905D01*
X0000913385Y0003005905D02*
X0000913385Y0002942913D01*
X0000913385Y0002942913D02*
X0000976377Y0002942913D01*
X0000976377Y0002942913D02*
X0000976377Y0003005905D01*
X0000851518Y0002997375D02*
X0000852455Y0002998312D01*
X0000853393Y0003001124D01*
X0000853393Y0003002999D01*
X0000852455Y0003005811D01*
X0000850581Y0003007686D01*
X0000848706Y0003008623D01*
X0000844956Y0003009561D01*
X0000842144Y0003009561D01*
X0000838395Y0003008623D01*
X0000836520Y0003007686D01*
X0000834645Y0003005811D01*
X0000833708Y0003002999D01*
X0000833708Y0003001124D01*
X0000834645Y0002998312D01*
X0000835583Y0002997375D01*
X0000853393Y0002978627D02*
X0000853393Y0002989876D01*
X0000853393Y0002984251D02*
X0000833708Y0002984251D01*
X0000836520Y0002986126D01*
X0000838395Y0002988001D01*
X0000839332Y0002989876D01*
X0000953880Y0003053674D02*
X0000954818Y0003054611D01*
X0000955755Y0003057424D01*
X0000955755Y0003059298D01*
X0000954818Y0003062111D01*
X0000952943Y0003063985D01*
X0000951068Y0003064923D01*
X0000947319Y0003065860D01*
X0000944506Y0003065860D01*
X0000940757Y0003064923D01*
X0000938882Y0003063985D01*
X0000937007Y0003062111D01*
X0000936070Y0003059298D01*
X0000936070Y0003057424D01*
X0000937007Y0003054611D01*
X0000937945Y0003053674D01*
X0000937945Y0003046175D02*
X0000937007Y0003045238D01*
X0000936070Y0003043363D01*
X0000936070Y0003038676D01*
X0000937007Y0003036801D01*
X0000937945Y0003035864D01*
X0000939820Y0003034926D01*
X0000941694Y0003034926D01*
X0000944506Y0003035864D01*
X0000955755Y0003047112D01*
X0000955755Y0003034926D01*
X0001063235Y0003053280D02*
X0001053862Y0003059842D01*
X0001063235Y0003064529D02*
X0001043550Y0003064529D01*
X0001043550Y0003057030D01*
X0001044488Y0003055155D01*
X0001045425Y0003054218D01*
X0001047300Y0003053280D01*
X0001050112Y0003053280D01*
X0001051987Y0003054218D01*
X0001052924Y0003055155D01*
X0001053862Y0003057030D01*
X0001053862Y0003064529D01*
X0001063235Y0003034533D02*
X0001063235Y0003045781D01*
X0001063235Y0003040157D02*
X0001043550Y0003040157D01*
X0001046362Y0003042032D01*
X0001048237Y0003043907D01*
X0001049175Y0003045781D01*
G04 next file*
G04 #@! TF.GenerationSoftware,KiCad,Pcbnew,(5.1.5)-3*
G04 #@! TF.CreationDate,2021-04-29T13:46:15+02:00*
G04 #@! TF.ProjectId,Hivetracker,48697665-7472-4616-936b-65722e6b6963,rev?*
G04 #@! TF.SameCoordinates,PX2562500PY28a0640*
G04 #@! TF.FileFunction,Legend,Bot*
G04 #@! TF.FilePolarity,Positive*
G04 Gerber Fmt 4.6, Leading zero omitted, Abs format (unit mm)*
G04 Created by KiCad (PCBNEW (5.1.5)-3) date 2021-04-29 13:46:15*
G04 APERTURE LIST*
G04 APERTURE END LIST*
D28*
X0000976377Y0003399606D02*
X0000913385Y0003399606D01*
X0000913385Y0003399606D02*
X0000913385Y0003336614D01*
X0000913385Y0003336614D02*
X0000976377Y0003336614D01*
X0000976377Y0003336614D02*
X0000976377Y0003399606D01*
X0000851518Y0003391076D02*
X0000852455Y0003392013D01*
X0000853393Y0003394825D01*
X0000853393Y0003396700D01*
X0000852455Y0003399512D01*
X0000850581Y0003401387D01*
X0000848706Y0003402324D01*
X0000844956Y0003403262D01*
X0000842144Y0003403262D01*
X0000838395Y0003402324D01*
X0000836520Y0003401387D01*
X0000834645Y0003399512D01*
X0000833708Y0003396700D01*
X0000833708Y0003394825D01*
X0000834645Y0003392013D01*
X0000835583Y0003391076D01*
X0000853393Y0003372328D02*
X0000853393Y0003383577D01*
X0000853393Y0003377952D02*
X0000833708Y0003377952D01*
X0000836520Y0003379827D01*
X0000838395Y0003381702D01*
X0000839332Y0003383577D01*
X0000953880Y0003447375D02*
X0000954818Y0003448312D01*
X0000955755Y0003451124D01*
X0000955755Y0003452999D01*
X0000954818Y0003455811D01*
X0000952943Y0003457686D01*
X0000951068Y0003458623D01*
X0000947319Y0003459561D01*
X0000944506Y0003459561D01*
X0000940757Y0003458623D01*
X0000938882Y0003457686D01*
X0000937007Y0003455811D01*
X0000936070Y0003452999D01*
X0000936070Y0003451124D01*
X0000937007Y0003448312D01*
X0000937945Y0003447375D01*
X0000937945Y0003439876D02*
X0000937007Y0003438938D01*
X0000936070Y0003437064D01*
X0000936070Y0003432377D01*
X0000937007Y0003430502D01*
X0000937945Y0003429565D01*
X0000939820Y0003428627D01*
X0000941694Y0003428627D01*
X0000944506Y0003429565D01*
X0000955755Y0003440813D01*
X0000955755Y0003428627D01*
X0001063235Y0003446981D02*
X0001053862Y0003453543D01*
X0001063235Y0003458230D02*
X0001043550Y0003458230D01*
X0001043550Y0003450731D01*
X0001044488Y0003448856D01*
X0001045425Y0003447919D01*
X0001047300Y0003446981D01*
X0001050112Y0003446981D01*
X0001051987Y0003447919D01*
X0001052924Y0003448856D01*
X0001053862Y0003450731D01*
X0001053862Y0003458230D01*
X0001063235Y0003428233D02*
X0001063235Y0003439482D01*
X0001063235Y0003433858D02*
X0001043550Y0003433858D01*
X0001046362Y0003435733D01*
X0001048237Y0003437607D01*
X0001049175Y0003439482D01*
G04 next file*
G04 #@! TF.GenerationSoftware,KiCad,Pcbnew,(5.1.5)-3*
G04 #@! TF.CreationDate,2021-04-29T13:46:15+02:00*
G04 #@! TF.ProjectId,Hivetracker,48697665-7472-4616-936b-65722e6b6963,rev?*
G04 #@! TF.SameCoordinates,PX2562500PY28a0640*
G04 #@! TF.FileFunction,Legend,Bot*
G04 #@! TF.FilePolarity,Positive*
G04 Gerber Fmt 4.6, Leading zero omitted, Abs format (unit mm)*
G04 Created by KiCad (PCBNEW (5.1.5)-3) date 2021-04-29 13:46:15*
G04 APERTURE LIST*
G04 APERTURE END LIST*
D29*
X0001370078Y0003793307D02*
X0001307086Y0003793307D01*
X0001307086Y0003793307D02*
X0001307086Y0003730314D01*
X0001307086Y0003730314D02*
X0001370078Y0003730314D01*
X0001370078Y0003730314D02*
X0001370078Y0003793307D01*
X0001245219Y0003784776D02*
X0001246156Y0003785714D01*
X0001247094Y0003788526D01*
X0001247094Y0003790401D01*
X0001246156Y0003793213D01*
X0001244281Y0003795088D01*
X0001242407Y0003796025D01*
X0001238657Y0003796962D01*
X0001235845Y0003796962D01*
X0001232095Y0003796025D01*
X0001230221Y0003795088D01*
X0001228346Y0003793213D01*
X0001227409Y0003790401D01*
X0001227409Y0003788526D01*
X0001228346Y0003785714D01*
X0001229283Y0003784776D01*
X0001247094Y0003766029D02*
X0001247094Y0003777277D01*
X0001247094Y0003771653D02*
X0001227409Y0003771653D01*
X0001230221Y0003773528D01*
X0001232095Y0003775403D01*
X0001233033Y0003777277D01*
X0001347581Y0003841076D02*
X0001348518Y0003842013D01*
X0001349456Y0003844825D01*
X0001349456Y0003846700D01*
X0001348518Y0003849512D01*
X0001346644Y0003851387D01*
X0001344769Y0003852324D01*
X0001341019Y0003853262D01*
X0001338207Y0003853262D01*
X0001334458Y0003852324D01*
X0001332583Y0003851387D01*
X0001330708Y0003849512D01*
X0001329771Y0003846700D01*
X0001329771Y0003844825D01*
X0001330708Y0003842013D01*
X0001331646Y0003841076D01*
X0001331646Y0003833577D02*
X0001330708Y0003832639D01*
X0001329771Y0003830764D01*
X0001329771Y0003826077D01*
X0001330708Y0003824203D01*
X0001331646Y0003823265D01*
X0001333520Y0003822328D01*
X0001335395Y0003822328D01*
X0001338207Y0003823265D01*
X0001349456Y0003834514D01*
X0001349456Y0003822328D01*
X0001456936Y0003840682D02*
X0001447562Y0003847244D01*
X0001456936Y0003851931D02*
X0001437251Y0003851931D01*
X0001437251Y0003844431D01*
X0001438188Y0003842557D01*
X0001439126Y0003841619D01*
X0001441001Y0003840682D01*
X0001443813Y0003840682D01*
X0001445688Y0003841619D01*
X0001446625Y0003842557D01*
X0001447562Y0003844431D01*
X0001447562Y0003851931D01*
X0001456936Y0003821934D02*
X0001456936Y0003833183D01*
X0001456936Y0003827559D02*
X0001437251Y0003827559D01*
X0001440063Y0003829433D01*
X0001441938Y0003831308D01*
X0001442875Y0003833183D01*
G04 next file*
G04 #@! TF.GenerationSoftware,KiCad,Pcbnew,(5.1.5)-3*
G04 #@! TF.CreationDate,2021-04-29T13:46:15+02:00*
G04 #@! TF.ProjectId,Hivetracker,48697665-7472-4616-936b-65722e6b6963,rev?*
G04 #@! TF.SameCoordinates,PX2562500PY28a0640*
G04 #@! TF.FileFunction,Legend,Bot*
G04 #@! TF.FilePolarity,Positive*
G04 Gerber Fmt 4.6, Leading zero omitted, Abs format (unit mm)*
G04 Created by KiCad (PCBNEW (5.1.5)-3) date 2021-04-29 13:46:15*
G04 APERTURE LIST*
G04 APERTURE END LIST*
D30*
X0001370078Y0003399606D02*
X0001307086Y0003399606D01*
X0001307086Y0003399606D02*
X0001307086Y0003336614D01*
X0001307086Y0003336614D02*
X0001370078Y0003336614D01*
X0001370078Y0003336614D02*
X0001370078Y0003399606D01*
X0001245219Y0003391076D02*
X0001246156Y0003392013D01*
X0001247094Y0003394825D01*
X0001247094Y0003396700D01*
X0001246156Y0003399512D01*
X0001244281Y0003401387D01*
X0001242407Y0003402324D01*
X0001238657Y0003403262D01*
X0001235845Y0003403262D01*
X0001232095Y0003402324D01*
X0001230221Y0003401387D01*
X0001228346Y0003399512D01*
X0001227409Y0003396700D01*
X0001227409Y0003394825D01*
X0001228346Y0003392013D01*
X0001229283Y0003391076D01*
X0001247094Y0003372328D02*
X0001247094Y0003383577D01*
X0001247094Y0003377952D02*
X0001227409Y0003377952D01*
X0001230221Y0003379827D01*
X0001232095Y0003381702D01*
X0001233033Y0003383577D01*
X0001347581Y0003447375D02*
X0001348518Y0003448312D01*
X0001349456Y0003451124D01*
X0001349456Y0003452999D01*
X0001348518Y0003455811D01*
X0001346644Y0003457686D01*
X0001344769Y0003458623D01*
X0001341019Y0003459561D01*
X0001338207Y0003459561D01*
X0001334458Y0003458623D01*
X0001332583Y0003457686D01*
X0001330708Y0003455811D01*
X0001329771Y0003452999D01*
X0001329771Y0003451124D01*
X0001330708Y0003448312D01*
X0001331646Y0003447375D01*
X0001331646Y0003439876D02*
X0001330708Y0003438938D01*
X0001329771Y0003437064D01*
X0001329771Y0003432377D01*
X0001330708Y0003430502D01*
X0001331646Y0003429565D01*
X0001333520Y0003428627D01*
X0001335395Y0003428627D01*
X0001338207Y0003429565D01*
X0001349456Y0003440813D01*
X0001349456Y0003428627D01*
X0001456936Y0003446981D02*
X0001447562Y0003453543D01*
X0001456936Y0003458230D02*
X0001437251Y0003458230D01*
X0001437251Y0003450731D01*
X0001438188Y0003448856D01*
X0001439126Y0003447919D01*
X0001441001Y0003446981D01*
X0001443813Y0003446981D01*
X0001445688Y0003447919D01*
X0001446625Y0003448856D01*
X0001447562Y0003450731D01*
X0001447562Y0003458230D01*
X0001456936Y0003428233D02*
X0001456936Y0003439482D01*
X0001456936Y0003433858D02*
X0001437251Y0003433858D01*
X0001440063Y0003435733D01*
X0001441938Y0003437607D01*
X0001442875Y0003439482D01*
G04 next file*
G04 #@! TF.GenerationSoftware,KiCad,Pcbnew,(5.1.5)-3*
G04 #@! TF.CreationDate,2021-04-29T13:46:15+02:00*
G04 #@! TF.ProjectId,Hivetracker,48697665-7472-4616-936b-65722e6b6963,rev?*
G04 #@! TF.SameCoordinates,PX2562500PY28a0640*
G04 #@! TF.FileFunction,Legend,Bot*
G04 #@! TF.FilePolarity,Positive*
G04 Gerber Fmt 4.6, Leading zero omitted, Abs format (unit mm)*
G04 Created by KiCad (PCBNEW (5.1.5)-3) date 2021-04-29 13:46:15*
G04 APERTURE LIST*
G04 APERTURE END LIST*
D31*
X0001370078Y0003005905D02*
X0001307086Y0003005905D01*
X0001307086Y0003005905D02*
X0001307086Y0002942913D01*
X0001307086Y0002942913D02*
X0001370078Y0002942913D01*
X0001370078Y0002942913D02*
X0001370078Y0003005905D01*
X0001245219Y0002997375D02*
X0001246156Y0002998312D01*
X0001247094Y0003001124D01*
X0001247094Y0003002999D01*
X0001246156Y0003005811D01*
X0001244281Y0003007686D01*
X0001242407Y0003008623D01*
X0001238657Y0003009561D01*
X0001235845Y0003009561D01*
X0001232095Y0003008623D01*
X0001230221Y0003007686D01*
X0001228346Y0003005811D01*
X0001227409Y0003002999D01*
X0001227409Y0003001124D01*
X0001228346Y0002998312D01*
X0001229283Y0002997375D01*
X0001247094Y0002978627D02*
X0001247094Y0002989876D01*
X0001247094Y0002984251D02*
X0001227409Y0002984251D01*
X0001230221Y0002986126D01*
X0001232095Y0002988001D01*
X0001233033Y0002989876D01*
X0001347581Y0003053674D02*
X0001348518Y0003054611D01*
X0001349456Y0003057424D01*
X0001349456Y0003059298D01*
X0001348518Y0003062111D01*
X0001346644Y0003063985D01*
X0001344769Y0003064923D01*
X0001341019Y0003065860D01*
X0001338207Y0003065860D01*
X0001334458Y0003064923D01*
X0001332583Y0003063985D01*
X0001330708Y0003062111D01*
X0001329771Y0003059298D01*
X0001329771Y0003057424D01*
X0001330708Y0003054611D01*
X0001331646Y0003053674D01*
X0001331646Y0003046175D02*
X0001330708Y0003045238D01*
X0001329771Y0003043363D01*
X0001329771Y0003038676D01*
X0001330708Y0003036801D01*
X0001331646Y0003035864D01*
X0001333520Y0003034926D01*
X0001335395Y0003034926D01*
X0001338207Y0003035864D01*
X0001349456Y0003047112D01*
X0001349456Y0003034926D01*
X0001456936Y0003053280D02*
X0001447562Y0003059842D01*
X0001456936Y0003064529D02*
X0001437251Y0003064529D01*
X0001437251Y0003057030D01*
X0001438188Y0003055155D01*
X0001439126Y0003054218D01*
X0001441001Y0003053280D01*
X0001443813Y0003053280D01*
X0001445688Y0003054218D01*
X0001446625Y0003055155D01*
X0001447562Y0003057030D01*
X0001447562Y0003064529D01*
X0001456936Y0003034533D02*
X0001456936Y0003045781D01*
X0001456936Y0003040157D02*
X0001437251Y0003040157D01*
X0001440063Y0003042032D01*
X0001441938Y0003043907D01*
X0001442875Y0003045781D01*
G04 next file*
G04 #@! TF.GenerationSoftware,KiCad,Pcbnew,(5.1.5)-3*
G04 #@! TF.CreationDate,2021-04-29T13:46:15+02:00*
G04 #@! TF.ProjectId,Hivetracker,48697665-7472-4616-936b-65722e6b6963,rev?*
G04 #@! TF.SameCoordinates,PX2562500PY28a0640*
G04 #@! TF.FileFunction,Legend,Bot*
G04 #@! TF.FilePolarity,Positive*
G04 Gerber Fmt 4.6, Leading zero omitted, Abs format (unit mm)*
G04 Created by KiCad (PCBNEW (5.1.5)-3) date 2021-04-29 13:46:15*
G04 APERTURE LIST*
G04 APERTURE END LIST*
D32*
X0000188976Y0002612204D02*
X0000125984Y0002612204D01*
X0000125984Y0002612204D02*
X0000125984Y0002549212D01*
X0000125984Y0002549212D02*
X0000188976Y0002549212D01*
X0000188976Y0002549212D02*
X0000188976Y0002612204D01*
X0000064116Y0002603674D02*
X0000065054Y0002604611D01*
X0000065991Y0002607424D01*
X0000065991Y0002609298D01*
X0000065054Y0002612111D01*
X0000063179Y0002613985D01*
X0000061304Y0002614923D01*
X0000057555Y0002615860D01*
X0000054743Y0002615860D01*
X0000050993Y0002614923D01*
X0000049118Y0002613985D01*
X0000047244Y0002612111D01*
X0000046306Y0002609298D01*
X0000046306Y0002607424D01*
X0000047244Y0002604611D01*
X0000048181Y0002603674D01*
X0000065991Y0002584926D02*
X0000065991Y0002596175D01*
X0000065991Y0002590551D02*
X0000046306Y0002590551D01*
X0000049118Y0002592425D01*
X0000050993Y0002594300D01*
X0000051930Y0002596175D01*
X0000166479Y0002659973D02*
X0000167416Y0002660911D01*
X0000168353Y0002663723D01*
X0000168353Y0002665598D01*
X0000167416Y0002668410D01*
X0000165541Y0002670285D01*
X0000163667Y0002671222D01*
X0000159917Y0002672159D01*
X0000157105Y0002672159D01*
X0000153355Y0002671222D01*
X0000151481Y0002670285D01*
X0000149606Y0002668410D01*
X0000148668Y0002665598D01*
X0000148668Y0002663723D01*
X0000149606Y0002660911D01*
X0000150543Y0002659973D01*
X0000150543Y0002652474D02*
X0000149606Y0002651537D01*
X0000148668Y0002649662D01*
X0000148668Y0002644975D01*
X0000149606Y0002643100D01*
X0000150543Y0002642163D01*
X0000152418Y0002641226D01*
X0000154293Y0002641226D01*
X0000157105Y0002642163D01*
X0000168353Y0002653412D01*
X0000168353Y0002641226D01*
X0000275834Y0002659580D02*
X0000266460Y0002666141D01*
X0000275834Y0002670828D02*
X0000256149Y0002670828D01*
X0000256149Y0002663329D01*
X0000257086Y0002661454D01*
X0000258023Y0002660517D01*
X0000259898Y0002659580D01*
X0000262710Y0002659580D01*
X0000264585Y0002660517D01*
X0000265523Y0002661454D01*
X0000266460Y0002663329D01*
X0000266460Y0002670828D01*
X0000275834Y0002640832D02*
X0000275834Y0002652081D01*
X0000275834Y0002646456D02*
X0000256149Y0002646456D01*
X0000258961Y0002648331D01*
X0000260836Y0002650206D01*
X0000261773Y0002652081D01*
G04 next file*
G04 #@! TF.GenerationSoftware,KiCad,Pcbnew,(5.1.5)-3*
G04 #@! TF.CreationDate,2021-04-29T13:46:15+02:00*
G04 #@! TF.ProjectId,Hivetracker,48697665-7472-4616-936b-65722e6b6963,rev?*
G04 #@! TF.SameCoordinates,PX2562500PY28a0640*
G04 #@! TF.FileFunction,Legend,Bot*
G04 #@! TF.FilePolarity,Positive*
G04 Gerber Fmt 4.6, Leading zero omitted, Abs format (unit mm)*
G04 Created by KiCad (PCBNEW (5.1.5)-3) date 2021-04-29 13:46:15*
G04 APERTURE LIST*
G04 APERTURE END LIST*
D33*
X0000582677Y0002612204D02*
X0000519685Y0002612204D01*
X0000519685Y0002612204D02*
X0000519685Y0002549212D01*
X0000519685Y0002549212D02*
X0000582677Y0002549212D01*
X0000582677Y0002549212D02*
X0000582677Y0002612204D01*
X0000457817Y0002603674D02*
X0000458755Y0002604611D01*
X0000459692Y0002607424D01*
X0000459692Y0002609298D01*
X0000458755Y0002612111D01*
X0000456880Y0002613985D01*
X0000455005Y0002614923D01*
X0000451256Y0002615860D01*
X0000448443Y0002615860D01*
X0000444694Y0002614923D01*
X0000442819Y0002613985D01*
X0000440944Y0002612111D01*
X0000440007Y0002609298D01*
X0000440007Y0002607424D01*
X0000440944Y0002604611D01*
X0000441882Y0002603674D01*
X0000459692Y0002584926D02*
X0000459692Y0002596175D01*
X0000459692Y0002590551D02*
X0000440007Y0002590551D01*
X0000442819Y0002592425D01*
X0000444694Y0002594300D01*
X0000445631Y0002596175D01*
X0000560179Y0002659973D02*
X0000561117Y0002660911D01*
X0000562054Y0002663723D01*
X0000562054Y0002665598D01*
X0000561117Y0002668410D01*
X0000559242Y0002670285D01*
X0000557367Y0002671222D01*
X0000553618Y0002672159D01*
X0000550806Y0002672159D01*
X0000547056Y0002671222D01*
X0000545181Y0002670285D01*
X0000543307Y0002668410D01*
X0000542369Y0002665598D01*
X0000542369Y0002663723D01*
X0000543307Y0002660911D01*
X0000544244Y0002659973D01*
X0000544244Y0002652474D02*
X0000543307Y0002651537D01*
X0000542369Y0002649662D01*
X0000542369Y0002644975D01*
X0000543307Y0002643100D01*
X0000544244Y0002642163D01*
X0000546119Y0002641226D01*
X0000547993Y0002641226D01*
X0000550806Y0002642163D01*
X0000562054Y0002653412D01*
X0000562054Y0002641226D01*
X0000669535Y0002659580D02*
X0000660161Y0002666141D01*
X0000669535Y0002670828D02*
X0000649850Y0002670828D01*
X0000649850Y0002663329D01*
X0000650787Y0002661454D01*
X0000651724Y0002660517D01*
X0000653599Y0002659580D01*
X0000656411Y0002659580D01*
X0000658286Y0002660517D01*
X0000659223Y0002661454D01*
X0000660161Y0002663329D01*
X0000660161Y0002670828D01*
X0000669535Y0002640832D02*
X0000669535Y0002652081D01*
X0000669535Y0002646456D02*
X0000649850Y0002646456D01*
X0000652662Y0002648331D01*
X0000654536Y0002650206D01*
X0000655474Y0002652081D01*
G04 next file*
G04 #@! TF.GenerationSoftware,KiCad,Pcbnew,(5.1.5)-3*
G04 #@! TF.CreationDate,2021-04-29T13:46:15+02:00*
G04 #@! TF.ProjectId,Hivetracker,48697665-7472-4616-936b-65722e6b6963,rev?*
G04 #@! TF.SameCoordinates,PX2562500PY28a0640*
G04 #@! TF.FileFunction,Legend,Bot*
G04 #@! TF.FilePolarity,Positive*
G04 Gerber Fmt 4.6, Leading zero omitted, Abs format (unit mm)*
G04 Created by KiCad (PCBNEW (5.1.5)-3) date 2021-04-29 13:46:15*
G04 APERTURE LIST*
G04 APERTURE END LIST*
D34*
X0000976377Y0002612204D02*
X0000913385Y0002612204D01*
X0000913385Y0002612204D02*
X0000913385Y0002549212D01*
X0000913385Y0002549212D02*
X0000976377Y0002549212D01*
X0000976377Y0002549212D02*
X0000976377Y0002612204D01*
X0000851518Y0002603674D02*
X0000852455Y0002604611D01*
X0000853393Y0002607424D01*
X0000853393Y0002609298D01*
X0000852455Y0002612111D01*
X0000850581Y0002613985D01*
X0000848706Y0002614923D01*
X0000844956Y0002615860D01*
X0000842144Y0002615860D01*
X0000838395Y0002614923D01*
X0000836520Y0002613985D01*
X0000834645Y0002612111D01*
X0000833708Y0002609298D01*
X0000833708Y0002607424D01*
X0000834645Y0002604611D01*
X0000835583Y0002603674D01*
X0000853393Y0002584926D02*
X0000853393Y0002596175D01*
X0000853393Y0002590551D02*
X0000833708Y0002590551D01*
X0000836520Y0002592425D01*
X0000838395Y0002594300D01*
X0000839332Y0002596175D01*
X0000953880Y0002659973D02*
X0000954818Y0002660911D01*
X0000955755Y0002663723D01*
X0000955755Y0002665598D01*
X0000954818Y0002668410D01*
X0000952943Y0002670285D01*
X0000951068Y0002671222D01*
X0000947319Y0002672159D01*
X0000944506Y0002672159D01*
X0000940757Y0002671222D01*
X0000938882Y0002670285D01*
X0000937007Y0002668410D01*
X0000936070Y0002665598D01*
X0000936070Y0002663723D01*
X0000937007Y0002660911D01*
X0000937945Y0002659973D01*
X0000937945Y0002652474D02*
X0000937007Y0002651537D01*
X0000936070Y0002649662D01*
X0000936070Y0002644975D01*
X0000937007Y0002643100D01*
X0000937945Y0002642163D01*
X0000939820Y0002641226D01*
X0000941694Y0002641226D01*
X0000944506Y0002642163D01*
X0000955755Y0002653412D01*
X0000955755Y0002641226D01*
X0001063235Y0002659580D02*
X0001053862Y0002666141D01*
X0001063235Y0002670828D02*
X0001043550Y0002670828D01*
X0001043550Y0002663329D01*
X0001044488Y0002661454D01*
X0001045425Y0002660517D01*
X0001047300Y0002659580D01*
X0001050112Y0002659580D01*
X0001051987Y0002660517D01*
X0001052924Y0002661454D01*
X0001053862Y0002663329D01*
X0001053862Y0002670828D01*
X0001063235Y0002640832D02*
X0001063235Y0002652081D01*
X0001063235Y0002646456D02*
X0001043550Y0002646456D01*
X0001046362Y0002648331D01*
X0001048237Y0002650206D01*
X0001049175Y0002652081D01*
G04 next file*
G04 #@! TF.GenerationSoftware,KiCad,Pcbnew,(5.1.5)-3*
G04 #@! TF.CreationDate,2021-04-29T13:46:15+02:00*
G04 #@! TF.ProjectId,Hivetracker,48697665-7472-4616-936b-65722e6b6963,rev?*
G04 #@! TF.SameCoordinates,PX2562500PY28a0640*
G04 #@! TF.FileFunction,Legend,Bot*
G04 #@! TF.FilePolarity,Positive*
G04 Gerber Fmt 4.6, Leading zero omitted, Abs format (unit mm)*
G04 Created by KiCad (PCBNEW (5.1.5)-3) date 2021-04-29 13:46:15*
G04 APERTURE LIST*
G04 APERTURE END LIST*
D35*
X0001370078Y0002612204D02*
X0001307086Y0002612204D01*
X0001307086Y0002612204D02*
X0001307086Y0002549212D01*
X0001307086Y0002549212D02*
X0001370078Y0002549212D01*
X0001370078Y0002549212D02*
X0001370078Y0002612204D01*
X0001245219Y0002603674D02*
X0001246156Y0002604611D01*
X0001247094Y0002607424D01*
X0001247094Y0002609298D01*
X0001246156Y0002612111D01*
X0001244281Y0002613985D01*
X0001242407Y0002614923D01*
X0001238657Y0002615860D01*
X0001235845Y0002615860D01*
X0001232095Y0002614923D01*
X0001230221Y0002613985D01*
X0001228346Y0002612111D01*
X0001227409Y0002609298D01*
X0001227409Y0002607424D01*
X0001228346Y0002604611D01*
X0001229283Y0002603674D01*
X0001247094Y0002584926D02*
X0001247094Y0002596175D01*
X0001247094Y0002590551D02*
X0001227409Y0002590551D01*
X0001230221Y0002592425D01*
X0001232095Y0002594300D01*
X0001233033Y0002596175D01*
X0001347581Y0002659973D02*
X0001348518Y0002660911D01*
X0001349456Y0002663723D01*
X0001349456Y0002665598D01*
X0001348518Y0002668410D01*
X0001346644Y0002670285D01*
X0001344769Y0002671222D01*
X0001341019Y0002672159D01*
X0001338207Y0002672159D01*
X0001334458Y0002671222D01*
X0001332583Y0002670285D01*
X0001330708Y0002668410D01*
X0001329771Y0002665598D01*
X0001329771Y0002663723D01*
X0001330708Y0002660911D01*
X0001331646Y0002659973D01*
X0001331646Y0002652474D02*
X0001330708Y0002651537D01*
X0001329771Y0002649662D01*
X0001329771Y0002644975D01*
X0001330708Y0002643100D01*
X0001331646Y0002642163D01*
X0001333520Y0002641226D01*
X0001335395Y0002641226D01*
X0001338207Y0002642163D01*
X0001349456Y0002653412D01*
X0001349456Y0002641226D01*
X0001456936Y0002659580D02*
X0001447562Y0002666141D01*
X0001456936Y0002670828D02*
X0001437251Y0002670828D01*
X0001437251Y0002663329D01*
X0001438188Y0002661454D01*
X0001439126Y0002660517D01*
X0001441001Y0002659580D01*
X0001443813Y0002659580D01*
X0001445688Y0002660517D01*
X0001446625Y0002661454D01*
X0001447562Y0002663329D01*
X0001447562Y0002670828D01*
X0001456936Y0002640832D02*
X0001456936Y0002652081D01*
X0001456936Y0002646456D02*
X0001437251Y0002646456D01*
X0001440063Y0002648331D01*
X0001441938Y0002650206D01*
X0001442875Y0002652081D01*
M02*