%MOIN*%
%OFA0B0*%
%FSLAX36Y36*%
%IPPOS*%
%LPD*%
%ADD10C,0*%
D10*
X001064517Y003543187D02*
X001064517Y003543187D01*
X001061589Y003543528D01*
X001058696Y003544087D01*
X001055852Y003544860D01*
X001053075Y003545845D01*
X001050379Y003547034D01*
X001047779Y003548422D01*
X001045290Y003550000D01*
X001042927Y003551760D01*
X001040701Y003553692D01*
X001038627Y003555785D01*
X001036714Y003558027D01*
X001034975Y003560406D01*
X001033419Y003562908D01*
X001032054Y003565520D01*
X001030888Y003568227D01*
X001029928Y003571013D01*
X001029180Y003573863D01*
X001028646Y003576761D01*
X001028331Y003579691D01*
X001028236Y003582637D01*
X001028238Y003583120D01*
X001028362Y003586044D01*
X001028702Y003588951D01*
X001029258Y003591824D01*
X001030026Y003594648D01*
X001031001Y003597408D01*
X001032178Y003600087D01*
X001033552Y003602671D01*
X001035113Y003605147D01*
X001036854Y003607499D01*
X001038765Y003609716D01*
X001040835Y003611784D01*
X001043054Y003613693D01*
X001045408Y003615432D01*
X001047884Y003616992D01*
X001050470Y003618363D01*
X001053150Y003619538D01*
X001055911Y003620511D01*
X001058736Y003621276D01*
X001061609Y003621829D01*
X001064516Y003622167D01*
X001069150Y003622532D01*
X001075157Y003623974D01*
X001080865Y003626338D01*
X001086133Y003629566D01*
X001090830Y003633578D01*
X001094842Y003638276D01*
X001098070Y003643543D01*
X001100435Y003649251D01*
X001101877Y003655258D01*
X001102242Y003659892D01*
X001102580Y003662799D01*
X001103133Y003665673D01*
X001103898Y003668498D01*
X001104871Y003671258D01*
X001106046Y003673938D01*
X001107417Y003676524D01*
X001108976Y003679001D01*
X001110715Y003681355D01*
X001112624Y003683573D01*
X001114693Y003685643D01*
X001116909Y003687554D01*
X001119262Y003689295D01*
X001121737Y003690857D01*
X001124321Y003692230D01*
X001127001Y003693408D01*
X001129760Y003694383D01*
X001132584Y003695150D01*
X001135458Y003695706D01*
X001138365Y003696047D01*
X001141289Y003696170D01*
X001141772Y003696173D01*
X001144717Y003696078D01*
X001147647Y003695762D01*
X001150545Y003695229D01*
X001153395Y003694480D01*
X001156182Y003693520D01*
X001158888Y003692354D01*
X001161500Y003690990D01*
X001164002Y003689433D01*
X001166381Y003687694D01*
X001168624Y003685782D01*
X001170717Y003683707D01*
X001172648Y003681482D01*
X001174408Y003679118D01*
X001175987Y003676630D01*
X001177374Y003674030D01*
X001178564Y003671334D01*
X001179548Y003668556D01*
X001180322Y003665712D01*
X001180881Y003662819D01*
X001181222Y003659892D01*
X001181587Y003655258D01*
X001183029Y003649251D01*
X001185393Y003643543D01*
X001188621Y003638276D01*
X001192633Y003633578D01*
X001197331Y003629566D01*
X001202598Y003626338D01*
X001208306Y003623974D01*
X001214313Y003622532D01*
X001218947Y003622167D01*
X001221853Y003621829D01*
X001224726Y003621276D01*
X001227551Y003620511D01*
X001230310Y003619539D01*
X001232990Y003618364D01*
X001235575Y003616994D01*
X001238051Y003615436D01*
X001240405Y003613698D01*
X001242623Y003611789D01*
X001244693Y003609722D01*
X001246604Y003607506D01*
X001248345Y003605155D01*
X001249907Y003602681D01*
X001251280Y003600097D01*
X001252458Y003597419D01*
X001253434Y003594661D01*
X001254202Y003591838D01*
X001254759Y003588965D01*
X001255100Y003586060D01*
X001255225Y003583136D01*
X001255228Y003582654D01*
X001255134Y003579707D01*
X001254820Y003576776D01*
X001254287Y003573877D01*
X001253539Y003571026D01*
X001252580Y003568239D01*
X001251415Y003565531D01*
X001250050Y003562918D01*
X001248494Y003560414D01*
X001246755Y003558034D01*
X001244843Y003555791D01*
X001242768Y003553697D01*
X001240542Y003551764D01*
X001238178Y003550003D01*
X001235689Y003548424D01*
X001233089Y003547036D01*
X001230392Y003545846D01*
X001227614Y003544861D01*
X001224769Y003544087D01*
X001221875Y003543528D01*
X001218947Y003543187D01*
X001214313Y003542822D01*
X001208306Y003541380D01*
X001202598Y003539016D01*
X001197331Y003535788D01*
X001192633Y003531775D01*
X001188621Y003527078D01*
X001185393Y003521811D01*
X001183029Y003516103D01*
X001181587Y003510096D01*
X001181222Y003505461D01*
X001180881Y003502535D01*
X001180322Y003499642D01*
X001179549Y003496800D01*
X001178565Y003494023D01*
X001177376Y003491327D01*
X001175989Y003488728D01*
X001174412Y003486240D01*
X001172653Y003483877D01*
X001170722Y003481652D01*
X001168630Y003479577D01*
X001166389Y003477665D01*
X001164011Y003475926D01*
X001161509Y003474369D01*
X001158899Y003473004D01*
X001156193Y003471838D01*
X001153408Y003470877D01*
X001150559Y003470128D01*
X001147662Y003469593D01*
X001144733Y003469277D01*
X001141788Y003469180D01*
X001141305Y003469183D01*
X001138380Y003469305D01*
X001135473Y003469645D01*
X001132598Y003470200D01*
X001129773Y003470966D01*
X001127012Y003471941D01*
X001124332Y003473118D01*
X001121746Y003474491D01*
X001119270Y003476052D01*
X001116916Y003477793D01*
X001114699Y003479704D01*
X001112629Y003481775D01*
X001110719Y003483993D01*
X001108979Y003486348D01*
X001107419Y003488825D01*
X001106048Y003491411D01*
X001104872Y003494092D01*
X001103899Y003496853D01*
X001103133Y003499679D01*
X001102580Y003502553D01*
X001102242Y003505461D01*
X001101877Y003510096D01*
X001100435Y003516103D01*
X001098070Y003521811D01*
X001094842Y003527078D01*
X001090830Y003531775D01*
X001086133Y003535788D01*
X001080865Y003539016D01*
X001075157Y003541380D01*
X001069150Y003542822D01*
X001064517Y003543187D01*
X001181222Y003111761D02*
X001181222Y003111761D01*
X001180881Y003108834D01*
X001180322Y003105942D01*
X001179549Y003103099D01*
X001178565Y003100322D01*
X001177376Y003097626D01*
X001175989Y003095027D01*
X001174412Y003092539D01*
X001172653Y003090176D01*
X001170722Y003087951D01*
X001168630Y003085876D01*
X001166389Y003083964D01*
X001164011Y003082225D01*
X001161509Y003080668D01*
X001158899Y003079303D01*
X001156193Y003078137D01*
X001153408Y003077176D01*
X001150559Y003076427D01*
X001147662Y003075892D01*
X001144733Y003075576D01*
X001141788Y003075480D01*
X001141305Y003075482D01*
X001138380Y003075604D01*
X001135473Y003075944D01*
X001132598Y003076499D01*
X001129773Y003077266D01*
X001127012Y003078240D01*
X001124332Y003079417D01*
X001121746Y003080790D01*
X001119270Y003082351D01*
X001116916Y003084092D01*
X001114699Y003086003D01*
X001112629Y003088074D01*
X001110719Y003090293D01*
X001108979Y003092647D01*
X001107419Y003095124D01*
X001106048Y003097710D01*
X001104872Y003100391D01*
X001103899Y003103152D01*
X001103133Y003105978D01*
X001102580Y003108853D01*
X001102242Y003111761D01*
X001101877Y003116395D01*
X001100435Y003122402D01*
X001098070Y003128110D01*
X001094842Y003133377D01*
X001090830Y003138075D01*
X001086133Y003142087D01*
X001080865Y003145315D01*
X001075157Y003147679D01*
X001069150Y003149121D01*
X001064517Y003149486D01*
X001061589Y003149827D01*
X001058696Y003150386D01*
X001055852Y003151160D01*
X001053075Y003152144D01*
X001050379Y003153333D01*
X001047779Y003154721D01*
X001045290Y003156299D01*
X001042927Y003158059D01*
X001040701Y003159991D01*
X001038627Y003162084D01*
X001036714Y003164326D01*
X001034975Y003166705D01*
X001033419Y003169208D01*
X001032054Y003171820D01*
X001030888Y003174526D01*
X001029928Y003177312D01*
X001029180Y003180162D01*
X001028646Y003183061D01*
X001028331Y003185991D01*
X001028236Y003188936D01*
X001028238Y003189419D01*
X001028362Y003192343D01*
X001028702Y003195250D01*
X001029258Y003198123D01*
X001030026Y003200947D01*
X001031001Y003203707D01*
X001032178Y003206386D01*
X001033552Y003208971D01*
X001035113Y003211446D01*
X001036854Y003213798D01*
X001038765Y003216015D01*
X001040835Y003218084D01*
X001043054Y003219993D01*
X001045408Y003221732D01*
X001047884Y003223291D01*
X001050470Y003224662D01*
X001053150Y003225837D01*
X001055911Y003226810D01*
X001058736Y003227575D01*
X001061609Y003228128D01*
X001064516Y003228466D01*
X001069150Y003228831D01*
X001075157Y003230273D01*
X001080865Y003232637D01*
X001086133Y003235865D01*
X001090830Y003239877D01*
X001094842Y003244575D01*
X001098070Y003249842D01*
X001100435Y003255550D01*
X001101877Y003261557D01*
X001102242Y003266191D01*
X001102580Y003269098D01*
X001103133Y003271972D01*
X001103898Y003274797D01*
X001104871Y003277557D01*
X001106046Y003280238D01*
X001107417Y003282823D01*
X001108976Y003285300D01*
X001110715Y003287654D01*
X001112624Y003289872D01*
X001114693Y003291943D01*
X001116909Y003293854D01*
X001119262Y003295595D01*
X001121737Y003297156D01*
X001124321Y003298529D01*
X001127001Y003299707D01*
X001129760Y003300682D01*
X001132584Y003301450D01*
X001135458Y003302005D01*
X001138365Y003302346D01*
X001141289Y003302470D01*
X001141772Y003302472D01*
X001144717Y003302377D01*
X001147647Y003302062D01*
X001150545Y003301528D01*
X001153395Y003300779D01*
X001156182Y003299819D01*
X001158888Y003298654D01*
X001161500Y003297289D01*
X001164002Y003295732D01*
X001166381Y003293993D01*
X001168624Y003292081D01*
X001170717Y003290006D01*
X001172648Y003287781D01*
X001174408Y003285417D01*
X001175987Y003282929D01*
X001177374Y003280329D01*
X001178564Y003277633D01*
X001179548Y003274855D01*
X001180322Y003272012D01*
X001180881Y003269118D01*
X001181222Y003266191D01*
X001181587Y003261557D01*
X001183029Y003255550D01*
X001185393Y003249842D01*
X001188621Y003244575D01*
X001192633Y003239877D01*
X001197331Y003235865D01*
X001202598Y003232637D01*
X001208306Y003230273D01*
X001214313Y003228831D01*
X001218947Y003228466D01*
X001221853Y003228128D01*
X001224726Y003227575D01*
X001227551Y003226811D01*
X001230310Y003225838D01*
X001232990Y003224664D01*
X001235575Y003223293D01*
X001238051Y003221735D01*
X001240405Y003219997D01*
X001242623Y003218089D01*
X001244693Y003216021D01*
X001246604Y003213806D01*
X001248345Y003211454D01*
X001249907Y003208980D01*
X001251280Y003206397D01*
X001252458Y003203718D01*
X001253434Y003200960D01*
X001254202Y003198137D01*
X001254759Y003195265D01*
X001255100Y003192359D01*
X001255225Y003189436D01*
X001255228Y003188953D01*
X001255134Y003186006D01*
X001254820Y003183076D01*
X001254287Y003180176D01*
X001253539Y003177325D01*
X001252580Y003174538D01*
X001251415Y003171830D01*
X001250050Y003169217D01*
X001248494Y003166714D01*
X001246755Y003164333D01*
X001244843Y003162090D01*
X001242768Y003159996D01*
X001240542Y003158063D01*
X001238178Y003156303D01*
X001235689Y003154723D01*
X001233089Y003153335D01*
X001230392Y003152145D01*
X001227614Y003151160D01*
X001224769Y003150386D01*
X001221875Y003149827D01*
X001218947Y003149486D01*
X001214313Y003149121D01*
X001208306Y003147679D01*
X001202598Y003145315D01*
X001197331Y003142087D01*
X001192633Y003138075D01*
X001188621Y003133377D01*
X001185393Y003128110D01*
X001183029Y003122402D01*
X001181587Y003116395D01*
X001181222Y003111761D01*
X001064517Y002755785D02*
X001064517Y002755785D01*
X001061589Y002756126D01*
X001058696Y002756685D01*
X001055852Y002757459D01*
X001053075Y002758443D01*
X001050379Y002759633D01*
X001047779Y002761020D01*
X001045290Y002762598D01*
X001042927Y002764358D01*
X001040701Y002766290D01*
X001038627Y002768383D01*
X001036714Y002770626D01*
X001034975Y002773004D01*
X001033419Y002775507D01*
X001032054Y002778119D01*
X001030888Y002780825D01*
X001029928Y002783612D01*
X001029180Y002786462D01*
X001028646Y002789360D01*
X001028331Y002792290D01*
X001028236Y002795235D01*
X001028238Y002795718D01*
X001028362Y002798642D01*
X001028702Y002801549D01*
X001029258Y002804422D01*
X001030026Y002807247D01*
X001031001Y002810006D01*
X001032178Y002812685D01*
X001033552Y002815270D01*
X001035113Y002817745D01*
X001036854Y002820098D01*
X001038765Y002822314D01*
X001040835Y002824383D01*
X001043054Y002826292D01*
X001045408Y002828031D01*
X001047884Y002829590D01*
X001050470Y002830961D01*
X001053150Y002832136D01*
X001055911Y002833109D01*
X001058736Y002833874D01*
X001061609Y002834427D01*
X001064516Y002834765D01*
X001069150Y002835130D01*
X001075157Y002836572D01*
X001080865Y002838937D01*
X001086133Y002842164D01*
X001090830Y002846177D01*
X001094842Y002850874D01*
X001098070Y002856142D01*
X001100435Y002861849D01*
X001101877Y002867857D01*
X001102242Y002872490D01*
X001102580Y002875397D01*
X001103133Y002878271D01*
X001103898Y002881096D01*
X001104871Y002883856D01*
X001106046Y002886537D01*
X001107417Y002889123D01*
X001108976Y002891599D01*
X001110715Y002893953D01*
X001112624Y002896171D01*
X001114693Y002898242D01*
X001116909Y002900153D01*
X001119262Y002901894D01*
X001121737Y002903455D01*
X001124321Y002904829D01*
X001127001Y002906006D01*
X001129760Y002906981D01*
X001132584Y002907749D01*
X001135458Y002908304D01*
X001138365Y002908645D01*
X001141289Y002908769D01*
X001141772Y002908771D01*
X001144717Y002908676D01*
X001147647Y002908361D01*
X001150545Y002907827D01*
X001153395Y002907078D01*
X001156182Y002906119D01*
X001158888Y002904953D01*
X001161500Y002903588D01*
X001164002Y002902032D01*
X001166381Y002900293D01*
X001168624Y002898380D01*
X001170717Y002896306D01*
X001172648Y002894080D01*
X001174408Y002891717D01*
X001175987Y002889228D01*
X001177374Y002886628D01*
X001178564Y002883932D01*
X001179548Y002881154D01*
X001180322Y002878311D01*
X001180881Y002875417D01*
X001181222Y002872490D01*
X001181587Y002867857D01*
X001183029Y002861849D01*
X001185393Y002856142D01*
X001188621Y002850874D01*
X001192633Y002846177D01*
X001197331Y002842164D01*
X001202598Y002838937D01*
X001208306Y002836572D01*
X001214313Y002835130D01*
X001218947Y002834765D01*
X001221853Y002834427D01*
X001224726Y002833874D01*
X001227551Y002833110D01*
X001230310Y002832137D01*
X001232990Y002830963D01*
X001235575Y002829593D01*
X001238051Y002828034D01*
X001240405Y002826296D01*
X001242623Y002824388D01*
X001244693Y002822320D01*
X001246604Y002820105D01*
X001248345Y002817753D01*
X001249907Y002815279D01*
X001251280Y002812696D01*
X001252458Y002810018D01*
X001253434Y002807259D01*
X001254202Y002804436D01*
X001254759Y002801564D01*
X001255100Y002798658D01*
X001255225Y002795735D01*
X001255228Y002795252D01*
X001255134Y002792306D01*
X001254820Y002789375D01*
X001254287Y002786476D01*
X001253539Y002783624D01*
X001252580Y002780837D01*
X001251415Y002778129D01*
X001250050Y002775516D01*
X001248494Y002773013D01*
X001246755Y002770633D01*
X001244843Y002768389D01*
X001242768Y002766295D01*
X001240542Y002764363D01*
X001238178Y002762602D01*
X001235689Y002761023D01*
X001233089Y002759634D01*
X001230392Y002758444D01*
X001227614Y002757460D01*
X001224769Y002756685D01*
X001221875Y002756126D01*
X001218947Y002755785D01*
X001214313Y002755420D01*
X001208306Y002753978D01*
X001202598Y002751614D01*
X001197331Y002748386D01*
X001192633Y002744374D01*
X001188621Y002739676D01*
X001185393Y002734409D01*
X001183029Y002728701D01*
X001181587Y002722694D01*
X001181222Y002718060D01*
X001180881Y002715134D01*
X001180322Y002712241D01*
X001179549Y002709398D01*
X001178565Y002706621D01*
X001177376Y002703926D01*
X001175989Y002701326D01*
X001174412Y002698838D01*
X001172653Y002696475D01*
X001170722Y002694250D01*
X001168630Y002692176D01*
X001166389Y002690263D01*
X001164011Y002688524D01*
X001161509Y002686967D01*
X001158899Y002685602D01*
X001156193Y002684436D01*
X001153408Y002683476D01*
X001150559Y002682726D01*
X001147662Y002682192D01*
X001144733Y002681875D01*
X001141788Y002681779D01*
X001141305Y002681781D01*
X001138380Y002681904D01*
X001135473Y002682243D01*
X001132598Y002682798D01*
X001129773Y002683565D01*
X001127012Y002684539D01*
X001124332Y002685716D01*
X001121746Y002687089D01*
X001119270Y002688651D01*
X001116916Y002690392D01*
X001114699Y002692303D01*
X001112629Y002694373D01*
X001110719Y002696592D01*
X001108979Y002698946D01*
X001107419Y002701423D01*
X001106048Y002704010D01*
X001104872Y002706691D01*
X001103899Y002709452D01*
X001103133Y002712277D01*
X001102580Y002715152D01*
X001102242Y002718060D01*
X001101877Y002722694D01*
X001100435Y002728701D01*
X001098070Y002734409D01*
X001094842Y002739676D01*
X001090830Y002744374D01*
X001086133Y002748386D01*
X001080865Y002751614D01*
X001075157Y002753978D01*
X001069150Y002755420D01*
X001064517Y002755785D01*
X000670816Y003543187D02*
X000670816Y003543187D01*
X000667889Y003543528D01*
X000664995Y003544087D01*
X000662152Y003544860D01*
X000659374Y003545845D01*
X000656678Y003547034D01*
X000654078Y003548422D01*
X000651589Y003550000D01*
X000649226Y003551760D01*
X000647000Y003553692D01*
X000644926Y003555785D01*
X000643014Y003558027D01*
X000641274Y003560406D01*
X000639718Y003562908D01*
X000638353Y003565520D01*
X000637188Y003568227D01*
X000636228Y003571013D01*
X000635479Y003573863D01*
X000634945Y003576761D01*
X000634630Y003579691D01*
X000634535Y003582637D01*
X000634537Y003583120D01*
X000634661Y003586044D01*
X000635002Y003588951D01*
X000635557Y003591824D01*
X000636325Y003594648D01*
X000637300Y003597408D01*
X000638477Y003600087D01*
X000639851Y003602671D01*
X000641412Y003605147D01*
X000643153Y003607499D01*
X000645064Y003609716D01*
X000647135Y003611784D01*
X000649353Y003613693D01*
X000651707Y003615432D01*
X000654184Y003616992D01*
X000656769Y003618363D01*
X000659450Y003619538D01*
X000662210Y003620511D01*
X000665035Y003621276D01*
X000667909Y003621829D01*
X000670816Y003622167D01*
X000675449Y003622532D01*
X000681457Y003623974D01*
X000687164Y003626338D01*
X000692432Y003629566D01*
X000697129Y003633578D01*
X000701142Y003638276D01*
X000704370Y003643543D01*
X000706734Y003649251D01*
X000708176Y003655258D01*
X000708541Y003659892D01*
X000708879Y003662799D01*
X000709432Y003665673D01*
X000710197Y003668498D01*
X000711170Y003671258D01*
X000712345Y003673938D01*
X000713716Y003676524D01*
X000715275Y003679001D01*
X000717014Y003681355D01*
X000718923Y003683573D01*
X000720992Y003685643D01*
X000723208Y003687554D01*
X000725561Y003689295D01*
X000728036Y003690857D01*
X000730621Y003692230D01*
X000733300Y003693408D01*
X000736059Y003694383D01*
X000738884Y003695150D01*
X000741757Y003695706D01*
X000744664Y003696047D01*
X000747588Y003696170D01*
X000748071Y003696173D01*
X000751016Y003696078D01*
X000753946Y003695762D01*
X000756844Y003695229D01*
X000759695Y003694480D01*
X000762481Y003693520D01*
X000765187Y003692354D01*
X000767799Y003690990D01*
X000770302Y003689433D01*
X000772681Y003687694D01*
X000774923Y003685782D01*
X000777016Y003683707D01*
X000778948Y003681482D01*
X000780708Y003679118D01*
X000782286Y003676630D01*
X000783674Y003674030D01*
X000784863Y003671334D01*
X000785847Y003668556D01*
X000786621Y003665712D01*
X000787180Y003662819D01*
X000787521Y003659892D01*
X000787886Y003655258D01*
X000789328Y003649251D01*
X000791692Y003643543D01*
X000794920Y003638276D01*
X000798932Y003633578D01*
X000803630Y003629566D01*
X000808897Y003626338D01*
X000814605Y003623974D01*
X000820612Y003622532D01*
X000825246Y003622167D01*
X000828153Y003621829D01*
X000831026Y003621276D01*
X000833850Y003620511D01*
X000836609Y003619539D01*
X000839289Y003618364D01*
X000841874Y003616994D01*
X000844350Y003615436D01*
X000846704Y003613698D01*
X000848922Y003611789D01*
X000850992Y003609722D01*
X000852903Y003607506D01*
X000854644Y003605155D01*
X000856206Y003602681D01*
X000857579Y003600097D01*
X000858757Y003597419D01*
X000859733Y003594661D01*
X000860502Y003591838D01*
X000861058Y003588965D01*
X000861400Y003586060D01*
X000861525Y003583136D01*
X000861527Y003582654D01*
X000861433Y003579707D01*
X000861119Y003576776D01*
X000860586Y003573877D01*
X000859838Y003571026D01*
X000858879Y003568239D01*
X000857714Y003565531D01*
X000856349Y003562918D01*
X000854793Y003560414D01*
X000853054Y003558034D01*
X000851142Y003555791D01*
X000849067Y003553697D01*
X000846841Y003551764D01*
X000844477Y003550003D01*
X000841988Y003548424D01*
X000839388Y003547036D01*
X000836691Y003545846D01*
X000833913Y003544861D01*
X000831068Y003544087D01*
X000828174Y003543528D01*
X000825246Y003543187D01*
X000820612Y003542822D01*
X000814605Y003541380D01*
X000808897Y003539016D01*
X000803630Y003535788D01*
X000798932Y003531775D01*
X000794920Y003527078D01*
X000791692Y003521811D01*
X000789328Y003516103D01*
X000787886Y003510096D01*
X000787521Y003505461D01*
X000787180Y003502535D01*
X000786621Y003499642D01*
X000785848Y003496800D01*
X000784864Y003494023D01*
X000783675Y003491327D01*
X000782288Y003488728D01*
X000780711Y003486240D01*
X000778952Y003483877D01*
X000777021Y003481652D01*
X000774929Y003479577D01*
X000772688Y003477665D01*
X000770310Y003475926D01*
X000767809Y003474369D01*
X000765198Y003473004D01*
X000762492Y003471838D01*
X000759707Y003470877D01*
X000756858Y003470128D01*
X000753961Y003469593D01*
X000751032Y003469277D01*
X000748087Y003469180D01*
X000747604Y003469183D01*
X000744680Y003469305D01*
X000741772Y003469645D01*
X000738897Y003470200D01*
X000736072Y003470966D01*
X000733312Y003471941D01*
X000730631Y003473118D01*
X000728046Y003474491D01*
X000725569Y003476052D01*
X000723216Y003477793D01*
X000720998Y003479704D01*
X000718928Y003481775D01*
X000717018Y003483993D01*
X000715278Y003486348D01*
X000713718Y003488825D01*
X000712347Y003491411D01*
X000711171Y003494092D01*
X000710198Y003496853D01*
X000709432Y003499679D01*
X000708879Y003502553D01*
X000708541Y003505461D01*
X000708176Y003510096D01*
X000706734Y003516103D01*
X000704370Y003521811D01*
X000701142Y003527078D01*
X000697129Y003531775D01*
X000692432Y003535788D01*
X000687164Y003539016D01*
X000681457Y003541380D01*
X000675449Y003542822D01*
X000670816Y003543187D01*
X000277115Y003543187D02*
X000277115Y003543187D01*
X000274188Y003543528D01*
X000271294Y003544087D01*
X000268451Y003544860D01*
X000265673Y003545845D01*
X000262977Y003547034D01*
X000260377Y003548422D01*
X000257889Y003550000D01*
X000255525Y003551760D01*
X000253300Y003553692D01*
X000251225Y003555785D01*
X000249313Y003558027D01*
X000247574Y003560406D01*
X000246017Y003562908D01*
X000244652Y003565520D01*
X000243487Y003568227D01*
X000242527Y003571013D01*
X000241778Y003573863D01*
X000241244Y003576761D01*
X000240929Y003579691D01*
X000240834Y003582637D01*
X000240836Y003583120D01*
X000240960Y003586044D01*
X000241301Y003588951D01*
X000241856Y003591824D01*
X000242624Y003594648D01*
X000243599Y003597408D01*
X000244777Y003600087D01*
X000246150Y003602671D01*
X000247711Y003605147D01*
X000249452Y003607499D01*
X000251363Y003609716D01*
X000253434Y003611784D01*
X000255652Y003613693D01*
X000258006Y003615432D01*
X000260483Y003616992D01*
X000263068Y003618363D01*
X000265749Y003619538D01*
X000268509Y003620511D01*
X000271334Y003621276D01*
X000274208Y003621829D01*
X000277115Y003622167D01*
X000281749Y003622532D01*
X000287756Y003623974D01*
X000293464Y003626338D01*
X000298731Y003629566D01*
X000303429Y003633578D01*
X000307441Y003638276D01*
X000310669Y003643543D01*
X000313033Y003649251D01*
X000314475Y003655258D01*
X000314840Y003659892D01*
X000314840Y003659892D01*
X000315178Y003662799D01*
X000315731Y003665673D01*
X000316496Y003668498D01*
X000317469Y003671258D01*
X000318644Y003673938D01*
X000320015Y003676524D01*
X000321574Y003679001D01*
X000323313Y003681355D01*
X000325222Y003683573D01*
X000327291Y003685643D01*
X000329508Y003687554D01*
X000331860Y003689295D01*
X000334335Y003690857D01*
X000336920Y003692230D01*
X000339599Y003693408D01*
X000342359Y003694383D01*
X000345183Y003695150D01*
X000348056Y003695706D01*
X000350963Y003696047D01*
X000353887Y003696170D01*
X000354370Y003696173D01*
X000357315Y003696078D01*
X000360245Y003695762D01*
X000363144Y003695229D01*
X000365994Y003694480D01*
X000368780Y003693520D01*
X000371487Y003692354D01*
X000374098Y003690990D01*
X000376601Y003689433D01*
X000378980Y003687694D01*
X000381222Y003685782D01*
X000383315Y003683707D01*
X000385247Y003681482D01*
X000387007Y003679118D01*
X000388585Y003676630D01*
X000389973Y003674030D01*
X000391162Y003671334D01*
X000392147Y003668556D01*
X000392920Y003665712D01*
X000393479Y003662819D01*
X000393820Y003659892D01*
X000394185Y003655258D01*
X000395627Y003649251D01*
X000397991Y003643543D01*
X000401219Y003638276D01*
X000405231Y003633578D01*
X000409929Y003629566D01*
X000415196Y003626338D01*
X000420904Y003623974D01*
X000426911Y003622532D01*
X000431545Y003622167D01*
X000434452Y003621829D01*
X000437325Y003621276D01*
X000440149Y003620511D01*
X000442909Y003619539D01*
X000445588Y003618364D01*
X000448173Y003616994D01*
X000450649Y003615436D01*
X000453003Y003613698D01*
X000455221Y003611789D01*
X000457291Y003609722D01*
X000459202Y003607506D01*
X000460943Y003605155D01*
X000462505Y003602681D01*
X000463879Y003600097D01*
X000465057Y003597419D01*
X000466032Y003594661D01*
X000466801Y003591838D01*
X000467357Y003588965D01*
X000467699Y003586060D01*
X000467824Y003583136D01*
X000467827Y003582654D01*
X000467732Y003579707D01*
X000467418Y003576776D01*
X000466886Y003573877D01*
X000466138Y003571026D01*
X000465178Y003568239D01*
X000464013Y003565531D01*
X000462649Y003562918D01*
X000461093Y003560414D01*
X000459353Y003558034D01*
X000457441Y003555791D01*
X000455366Y003553697D01*
X000453141Y003551764D01*
X000450777Y003550003D01*
X000448288Y003548424D01*
X000445687Y003547036D01*
X000442990Y003545846D01*
X000440212Y003544861D01*
X000437368Y003544087D01*
X000434473Y003543528D01*
X000431545Y003543187D01*
X000426911Y003542822D01*
X000420904Y003541380D01*
X000415196Y003539016D01*
X000409929Y003535788D01*
X000405231Y003531775D01*
X000401219Y003527078D01*
X000397991Y003521811D01*
X000395627Y003516103D01*
X000394185Y003510096D01*
X000393820Y003505461D01*
X000393479Y003502535D01*
X000392921Y003499642D01*
X000392147Y003496800D01*
X000391163Y003494023D01*
X000389975Y003491327D01*
X000388588Y003488728D01*
X000387010Y003486240D01*
X000385251Y003483877D01*
X000383320Y003481652D01*
X000381228Y003479577D01*
X000378987Y003477665D01*
X000376609Y003475926D01*
X000374108Y003474369D01*
X000371497Y003473004D01*
X000368792Y003471838D01*
X000366006Y003470877D01*
X000363157Y003470128D01*
X000360260Y003469593D01*
X000357331Y003469277D01*
X000354387Y003469180D01*
X000353904Y003469183D01*
X000350979Y003469305D01*
X000348071Y003469645D01*
X000345197Y003470200D01*
X000342371Y003470966D01*
X000339611Y003471941D01*
X000336930Y003473118D01*
X000334345Y003474491D01*
X000331868Y003476052D01*
X000329515Y003477793D01*
X000327297Y003479704D01*
X000325228Y003481775D01*
X000323318Y003483993D01*
X000321578Y003486348D01*
X000320018Y003488825D01*
X000318646Y003491411D01*
X000317470Y003494092D01*
X000316497Y003496853D01*
X000315732Y003499679D01*
X000315178Y003502553D01*
X000314840Y003505461D01*
X000314840Y003505461D01*
X000314475Y003510096D01*
X000313033Y003516103D01*
X000310669Y003521811D01*
X000307441Y003527078D01*
X000303429Y003531775D01*
X000298731Y003535788D01*
X000293464Y003539016D01*
X000287756Y003541380D01*
X000281749Y003542822D01*
X000277115Y003543187D01*
X000670816Y003149486D02*
X000670816Y003149486D01*
X000667889Y003149827D01*
X000664995Y003150386D01*
X000662152Y003151160D01*
X000659374Y003152144D01*
X000656678Y003153333D01*
X000654078Y003154721D01*
X000651589Y003156299D01*
X000649226Y003158059D01*
X000647000Y003159991D01*
X000644926Y003162084D01*
X000643014Y003164326D01*
X000641274Y003166705D01*
X000639718Y003169208D01*
X000638353Y003171820D01*
X000637188Y003174526D01*
X000636228Y003177312D01*
X000635479Y003180162D01*
X000634945Y003183061D01*
X000634630Y003185991D01*
X000634535Y003188936D01*
X000634537Y003189419D01*
X000634661Y003192343D01*
X000635002Y003195250D01*
X000635557Y003198123D01*
X000636325Y003200947D01*
X000637300Y003203707D01*
X000638477Y003206386D01*
X000639851Y003208971D01*
X000641412Y003211446D01*
X000643153Y003213798D01*
X000645064Y003216015D01*
X000647135Y003218084D01*
X000649353Y003219993D01*
X000651707Y003221732D01*
X000654184Y003223291D01*
X000656769Y003224662D01*
X000659450Y003225837D01*
X000662210Y003226810D01*
X000665035Y003227575D01*
X000667909Y003228128D01*
X000670816Y003228466D01*
X000675449Y003228831D01*
X000681457Y003230273D01*
X000687164Y003232637D01*
X000692432Y003235865D01*
X000697129Y003239877D01*
X000701142Y003244575D01*
X000704370Y003249842D01*
X000706734Y003255550D01*
X000708176Y003261557D01*
X000708541Y003266191D01*
X000708879Y003269098D01*
X000709432Y003271972D01*
X000710197Y003274797D01*
X000711170Y003277557D01*
X000712345Y003280238D01*
X000713716Y003282823D01*
X000715275Y003285300D01*
X000717014Y003287654D01*
X000718923Y003289872D01*
X000720992Y003291943D01*
X000723208Y003293854D01*
X000725561Y003295595D01*
X000728036Y003297156D01*
X000730621Y003298529D01*
X000733300Y003299707D01*
X000736059Y003300682D01*
X000738884Y003301450D01*
X000741757Y003302005D01*
X000744664Y003302346D01*
X000747588Y003302470D01*
X000748071Y003302472D01*
X000751016Y003302377D01*
X000753946Y003302062D01*
X000756844Y003301528D01*
X000759695Y003300779D01*
X000762481Y003299819D01*
X000765187Y003298654D01*
X000767799Y003297289D01*
X000770302Y003295732D01*
X000772681Y003293993D01*
X000774923Y003292081D01*
X000777016Y003290006D01*
X000778948Y003287781D01*
X000780708Y003285417D01*
X000782286Y003282929D01*
X000783674Y003280329D01*
X000784863Y003277633D01*
X000785847Y003274855D01*
X000786621Y003272012D01*
X000787180Y003269118D01*
X000787521Y003266191D01*
X000787886Y003261557D01*
X000789328Y003255550D01*
X000791692Y003249842D01*
X000794920Y003244575D01*
X000798932Y003239877D01*
X000803630Y003235865D01*
X000808897Y003232637D01*
X000814605Y003230273D01*
X000820612Y003228831D01*
X000825246Y003228466D01*
X000828153Y003228128D01*
X000831026Y003227575D01*
X000833850Y003226811D01*
X000836609Y003225838D01*
X000839289Y003224664D01*
X000841874Y003223293D01*
X000844350Y003221735D01*
X000846704Y003219997D01*
X000848922Y003218089D01*
X000850992Y003216021D01*
X000852903Y003213806D01*
X000854644Y003211454D01*
X000856206Y003208980D01*
X000857579Y003206397D01*
X000858757Y003203718D01*
X000859733Y003200960D01*
X000860502Y003198137D01*
X000861058Y003195265D01*
X000861400Y003192359D01*
X000861525Y003189436D01*
X000861527Y003188953D01*
X000861433Y003186006D01*
X000861119Y003183076D01*
X000860586Y003180176D01*
X000859838Y003177325D01*
X000858879Y003174538D01*
X000857714Y003171830D01*
X000856349Y003169217D01*
X000854793Y003166714D01*
X000853054Y003164333D01*
X000851142Y003162090D01*
X000849067Y003159996D01*
X000846841Y003158063D01*
X000844477Y003156303D01*
X000841988Y003154723D01*
X000839388Y003153335D01*
X000836691Y003152145D01*
X000833913Y003151160D01*
X000831068Y003150386D01*
X000828174Y003149827D01*
X000825246Y003149486D01*
X000820612Y003149121D01*
X000814605Y003147679D01*
X000808897Y003145315D01*
X000803630Y003142087D01*
X000798932Y003138075D01*
X000794920Y003133377D01*
X000791692Y003128110D01*
X000789328Y003122402D01*
X000787886Y003116395D01*
X000787521Y003111761D01*
X000787180Y003108834D01*
X000786621Y003105942D01*
X000785848Y003103099D01*
X000784864Y003100322D01*
X000783675Y003097626D01*
X000782288Y003095027D01*
X000780711Y003092539D01*
X000778952Y003090176D01*
X000777021Y003087951D01*
X000774929Y003085876D01*
X000772688Y003083964D01*
X000770310Y003082225D01*
X000767809Y003080668D01*
X000765198Y003079303D01*
X000762492Y003078137D01*
X000759707Y003077176D01*
X000756858Y003076427D01*
X000753961Y003075892D01*
X000751032Y003075576D01*
X000748087Y003075480D01*
X000747604Y003075482D01*
X000744680Y003075604D01*
X000741772Y003075944D01*
X000738897Y003076499D01*
X000736072Y003077266D01*
X000733312Y003078240D01*
X000730631Y003079417D01*
X000728046Y003080790D01*
X000725569Y003082351D01*
X000723216Y003084092D01*
X000720998Y003086003D01*
X000718928Y003088074D01*
X000717018Y003090293D01*
X000715278Y003092647D01*
X000713718Y003095124D01*
X000712347Y003097710D01*
X000711171Y003100391D01*
X000710198Y003103152D01*
X000709432Y003105978D01*
X000708879Y003108853D01*
X000708541Y003111761D01*
X000708176Y003116395D01*
X000706734Y003122402D01*
X000704370Y003128110D01*
X000701142Y003133377D01*
X000697129Y003138075D01*
X000692432Y003142087D01*
X000687164Y003145315D01*
X000681457Y003147679D01*
X000675449Y003149121D01*
X000670816Y003149486D01*
X000393820Y003111761D02*
X000393820Y003111761D01*
X000393479Y003108834D01*
X000392921Y003105942D01*
X000392147Y003103099D01*
X000391163Y003100322D01*
X000389975Y003097626D01*
X000388588Y003095027D01*
X000387010Y003092539D01*
X000385251Y003090176D01*
X000383320Y003087951D01*
X000381228Y003085876D01*
X000378987Y003083964D01*
X000376609Y003082225D01*
X000374108Y003080668D01*
X000371497Y003079303D01*
X000368792Y003078137D01*
X000366006Y003077176D01*
X000363157Y003076427D01*
X000360260Y003075892D01*
X000357331Y003075576D01*
X000354387Y003075480D01*
X000353904Y003075482D01*
X000350979Y003075604D01*
X000348071Y003075944D01*
X000345197Y003076499D01*
X000342371Y003077266D01*
X000339611Y003078240D01*
X000336930Y003079417D01*
X000334345Y003080790D01*
X000331868Y003082351D01*
X000329515Y003084092D01*
X000327297Y003086003D01*
X000325228Y003088074D01*
X000323318Y003090293D01*
X000321578Y003092647D01*
X000320018Y003095124D01*
X000318646Y003097710D01*
X000317470Y003100391D01*
X000316497Y003103152D01*
X000315732Y003105978D01*
X000315178Y003108853D01*
X000314840Y003111761D01*
X000314840Y003111761D01*
X000314475Y003116395D01*
X000313033Y003122402D01*
X000310669Y003128110D01*
X000307441Y003133377D01*
X000303429Y003138075D01*
X000298731Y003142087D01*
X000293464Y003145315D01*
X000287756Y003147679D01*
X000281749Y003149121D01*
X000277115Y003149486D01*
X000274188Y003149827D01*
X000271294Y003150386D01*
X000268451Y003151160D01*
X000265673Y003152144D01*
X000262977Y003153333D01*
X000260377Y003154721D01*
X000257889Y003156299D01*
X000255525Y003158059D01*
X000253300Y003159991D01*
X000251225Y003162084D01*
X000249313Y003164326D01*
X000247574Y003166705D01*
X000246017Y003169208D01*
X000244652Y003171820D01*
X000243487Y003174526D01*
X000242527Y003177312D01*
X000241778Y003180162D01*
X000241244Y003183061D01*
X000240929Y003185991D01*
X000240834Y003188936D01*
X000240836Y003189419D01*
X000240960Y003192343D01*
X000241301Y003195250D01*
X000241856Y003198123D01*
X000242624Y003200947D01*
X000243599Y003203707D01*
X000244777Y003206386D01*
X000246150Y003208971D01*
X000247711Y003211446D01*
X000249452Y003213798D01*
X000251363Y003216015D01*
X000253434Y003218084D01*
X000255652Y003219993D01*
X000258006Y003221732D01*
X000260483Y003223291D01*
X000263068Y003224662D01*
X000265749Y003225837D01*
X000268509Y003226810D01*
X000271334Y003227575D01*
X000274208Y003228128D01*
X000277115Y003228466D01*
X000281749Y003228831D01*
X000287756Y003230273D01*
X000293464Y003232637D01*
X000298731Y003235865D01*
X000303429Y003239877D01*
X000307441Y003244575D01*
X000310669Y003249842D01*
X000313033Y003255550D01*
X000314475Y003261557D01*
X000314840Y003266191D01*
X000314840Y003266191D01*
X000315178Y003269098D01*
X000315731Y003271972D01*
X000316496Y003274797D01*
X000317469Y003277557D01*
X000318644Y003280238D01*
X000320015Y003282823D01*
X000321574Y003285300D01*
X000323313Y003287654D01*
X000325222Y003289872D01*
X000327291Y003291943D01*
X000329508Y003293854D01*
X000331860Y003295595D01*
X000334335Y003297156D01*
X000336920Y003298529D01*
X000339599Y003299707D01*
X000342359Y003300682D01*
X000345183Y003301450D01*
X000348056Y003302005D01*
X000350963Y003302346D01*
X000353887Y003302470D01*
X000354370Y003302472D01*
X000357315Y003302377D01*
X000360245Y003302062D01*
X000363144Y003301528D01*
X000365994Y003300779D01*
X000368780Y003299819D01*
X000371487Y003298654D01*
X000374098Y003297289D01*
X000376601Y003295732D01*
X000378980Y003293993D01*
X000381222Y003292081D01*
X000383315Y003290006D01*
X000385247Y003287781D01*
X000387007Y003285417D01*
X000388585Y003282929D01*
X000389973Y003280329D01*
X000391162Y003277633D01*
X000392147Y003274855D01*
X000392920Y003272012D01*
X000393479Y003269118D01*
X000393820Y003266191D01*
X000394185Y003261557D01*
X000395627Y003255550D01*
X000397991Y003249842D01*
X000401219Y003244575D01*
X000405231Y003239877D01*
X000409929Y003235865D01*
X000415196Y003232637D01*
X000420904Y003230273D01*
X000426911Y003228831D01*
X000431545Y003228466D01*
X000434452Y003228128D01*
X000437325Y003227575D01*
X000440149Y003226811D01*
X000442909Y003225838D01*
X000445588Y003224664D01*
X000448173Y003223293D01*
X000450649Y003221735D01*
X000453003Y003219997D01*
X000455221Y003218089D01*
X000457291Y003216021D01*
X000459202Y003213806D01*
X000460943Y003211454D01*
X000462505Y003208980D01*
X000463879Y003206397D01*
X000465057Y003203718D01*
X000466032Y003200960D01*
X000466801Y003198137D01*
X000467357Y003195265D01*
X000467699Y003192359D01*
X000467824Y003189436D01*
X000467827Y003188953D01*
X000467732Y003186006D01*
X000467418Y003183076D01*
X000466886Y003180176D01*
X000466138Y003177325D01*
X000465178Y003174538D01*
X000464013Y003171830D01*
X000462649Y003169217D01*
X000461093Y003166714D01*
X000459353Y003164333D01*
X000457441Y003162090D01*
X000455366Y003159996D01*
X000453141Y003158063D01*
X000450777Y003156303D01*
X000448288Y003154723D01*
X000445687Y003153335D01*
X000442990Y003152145D01*
X000440212Y003151160D01*
X000437368Y003150386D01*
X000434473Y003149827D01*
X000431545Y003149486D01*
X000426911Y003149121D01*
X000420904Y003147679D01*
X000415196Y003145315D01*
X000409929Y003142087D01*
X000405231Y003138075D01*
X000401219Y003133377D01*
X000397991Y003128110D01*
X000395627Y003122402D01*
X000394185Y003116395D01*
X000393820Y003111761D01*
X000670816Y002755785D02*
X000670816Y002755785D01*
X000667889Y002756126D01*
X000664995Y002756685D01*
X000662152Y002757459D01*
X000659374Y002758443D01*
X000656678Y002759633D01*
X000654078Y002761020D01*
X000651589Y002762598D01*
X000649226Y002764358D01*
X000647000Y002766290D01*
X000644926Y002768383D01*
X000643014Y002770626D01*
X000641274Y002773004D01*
X000639718Y002775507D01*
X000638353Y002778119D01*
X000637188Y002780825D01*
X000636228Y002783612D01*
X000635479Y002786462D01*
X000634945Y002789360D01*
X000634630Y002792290D01*
X000634535Y002795235D01*
X000634537Y002795718D01*
X000634661Y002798642D01*
X000635002Y002801549D01*
X000635557Y002804422D01*
X000636325Y002807247D01*
X000637300Y002810006D01*
X000638477Y002812685D01*
X000639851Y002815270D01*
X000641412Y002817745D01*
X000643153Y002820098D01*
X000645064Y002822314D01*
X000647135Y002824383D01*
X000649353Y002826292D01*
X000651707Y002828031D01*
X000654184Y002829590D01*
X000656769Y002830961D01*
X000659450Y002832136D01*
X000662210Y002833109D01*
X000665035Y002833874D01*
X000667909Y002834427D01*
X000670816Y002834765D01*
X000675449Y002835130D01*
X000681457Y002836572D01*
X000687164Y002838937D01*
X000692432Y002842164D01*
X000697129Y002846177D01*
X000701142Y002850874D01*
X000704370Y002856142D01*
X000706734Y002861849D01*
X000708176Y002867857D01*
X000708541Y002872490D01*
X000708879Y002875397D01*
X000709432Y002878271D01*
X000710197Y002881096D01*
X000711170Y002883856D01*
X000712345Y002886537D01*
X000713716Y002889123D01*
X000715275Y002891599D01*
X000717014Y002893953D01*
X000718923Y002896171D01*
X000720992Y002898242D01*
X000723208Y002900153D01*
X000725561Y002901894D01*
X000728036Y002903455D01*
X000730621Y002904829D01*
X000733300Y002906006D01*
X000736059Y002906981D01*
X000738884Y002907749D01*
X000741757Y002908304D01*
X000744664Y002908645D01*
X000747588Y002908769D01*
X000748071Y002908771D01*
X000751016Y002908676D01*
X000753946Y002908361D01*
X000756844Y002907827D01*
X000759695Y002907078D01*
X000762481Y002906119D01*
X000765187Y002904953D01*
X000767799Y002903588D01*
X000770302Y002902032D01*
X000772681Y002900293D01*
X000774923Y002898380D01*
X000777016Y002896306D01*
X000778948Y002894080D01*
X000780708Y002891717D01*
X000782286Y002889228D01*
X000783674Y002886628D01*
X000784863Y002883932D01*
X000785847Y002881154D01*
X000786621Y002878311D01*
X000787180Y002875417D01*
X000787521Y002872490D01*
X000787886Y002867857D01*
X000789328Y002861849D01*
X000791692Y002856142D01*
X000794920Y002850874D01*
X000798932Y002846177D01*
X000803630Y002842164D01*
X000808897Y002838937D01*
X000814605Y002836572D01*
X000820612Y002835130D01*
X000825246Y002834765D01*
X000828153Y002834427D01*
X000831026Y002833874D01*
X000833850Y002833110D01*
X000836609Y002832137D01*
X000839289Y002830963D01*
X000841874Y002829593D01*
X000844350Y002828034D01*
X000846704Y002826296D01*
X000848922Y002824388D01*
X000850992Y002822320D01*
X000852903Y002820105D01*
X000854644Y002817753D01*
X000856206Y002815279D01*
X000857579Y002812696D01*
X000858757Y002810018D01*
X000859733Y002807259D01*
X000860502Y002804436D01*
X000861058Y002801564D01*
X000861400Y002798658D01*
X000861525Y002795735D01*
X000861527Y002795252D01*
X000861433Y002792306D01*
X000861119Y002789375D01*
X000860586Y002786476D01*
X000859838Y002783624D01*
X000858879Y002780837D01*
X000857714Y002778129D01*
X000856349Y002775516D01*
X000854793Y002773013D01*
X000853054Y002770633D01*
X000851142Y002768389D01*
X000849067Y002766295D01*
X000846841Y002764363D01*
X000844477Y002762602D01*
X000841988Y002761023D01*
X000839388Y002759634D01*
X000836691Y002758444D01*
X000833913Y002757460D01*
X000831068Y002756685D01*
X000828174Y002756126D01*
X000825246Y002755785D01*
X000820612Y002755420D01*
X000814605Y002753978D01*
X000808897Y002751614D01*
X000803630Y002748386D01*
X000798932Y002744374D01*
X000794920Y002739676D01*
X000791692Y002734409D01*
X000789328Y002728701D01*
X000787886Y002722694D01*
X000787521Y002718060D01*
X000787180Y002715134D01*
X000786621Y002712241D01*
X000785848Y002709398D01*
X000784864Y002706621D01*
X000783675Y002703926D01*
X000782288Y002701326D01*
X000780711Y002698838D01*
X000778952Y002696475D01*
X000777021Y002694250D01*
X000774929Y002692176D01*
X000772688Y002690263D01*
X000770310Y002688524D01*
X000767809Y002686967D01*
X000765198Y002685602D01*
X000762492Y002684436D01*
X000759707Y002683476D01*
X000756858Y002682726D01*
X000753961Y002682192D01*
X000751032Y002681875D01*
X000748087Y002681779D01*
X000747604Y002681781D01*
X000744680Y002681904D01*
X000741772Y002682243D01*
X000738897Y002682798D01*
X000736072Y002683565D01*
X000733312Y002684539D01*
X000730631Y002685716D01*
X000728046Y002687089D01*
X000725569Y002688651D01*
X000723216Y002690392D01*
X000720998Y002692303D01*
X000718928Y002694373D01*
X000717018Y002696592D01*
X000715278Y002698946D01*
X000713718Y002701423D01*
X000712347Y002704010D01*
X000711171Y002706691D01*
X000710198Y002709452D01*
X000709432Y002712277D01*
X000708879Y002715152D01*
X000708541Y002718060D01*
X000708176Y002722694D01*
X000706734Y002728701D01*
X000704370Y002734409D01*
X000701142Y002739676D01*
X000697129Y002744374D01*
X000692432Y002748386D01*
X000687164Y002751614D01*
X000681457Y002753978D01*
X000675449Y002755420D01*
X000670816Y002755785D01*
X000277115Y002755785D02*
X000277115Y002755785D01*
X000274188Y002756126D01*
X000271294Y002756685D01*
X000268451Y002757459D01*
X000265673Y002758443D01*
X000262977Y002759633D01*
X000260377Y002761020D01*
X000257889Y002762598D01*
X000255525Y002764358D01*
X000253300Y002766290D01*
X000251225Y002768383D01*
X000249313Y002770626D01*
X000247574Y002773004D01*
X000246017Y002775507D01*
X000244652Y002778119D01*
X000243487Y002780825D01*
X000242527Y002783612D01*
X000241778Y002786462D01*
X000241244Y002789360D01*
X000240929Y002792290D01*
X000240834Y002795235D01*
X000240836Y002795718D01*
X000240960Y002798642D01*
X000241301Y002801549D01*
X000241856Y002804422D01*
X000242624Y002807247D01*
X000243599Y002810006D01*
X000244777Y002812685D01*
X000246150Y002815270D01*
X000247711Y002817745D01*
X000249452Y002820098D01*
X000251363Y002822314D01*
X000253434Y002824383D01*
X000255652Y002826292D01*
X000258006Y002828031D01*
X000260483Y002829590D01*
X000263068Y002830961D01*
X000265749Y002832136D01*
X000268509Y002833109D01*
X000271334Y002833874D01*
X000274208Y002834427D01*
X000277115Y002834765D01*
X000281749Y002835130D01*
X000287756Y002836572D01*
X000293464Y002838937D01*
X000298731Y002842164D01*
X000303429Y002846177D01*
X000307441Y002850874D01*
X000310669Y002856142D01*
X000313033Y002861849D01*
X000314475Y002867857D01*
X000314840Y002872490D01*
X000314840Y002872490D01*
X000315178Y002875397D01*
X000315731Y002878271D01*
X000316496Y002881096D01*
X000317469Y002883856D01*
X000318644Y002886537D01*
X000320015Y002889123D01*
X000321574Y002891599D01*
X000323313Y002893953D01*
X000325222Y002896171D01*
X000327291Y002898242D01*
X000329508Y002900153D01*
X000331860Y002901894D01*
X000334335Y002903455D01*
X000336920Y002904829D01*
X000339599Y002906006D01*
X000342359Y002906981D01*
X000345183Y002907749D01*
X000348056Y002908304D01*
X000350963Y002908645D01*
X000353887Y002908769D01*
X000354370Y002908771D01*
X000357315Y002908676D01*
X000360245Y002908361D01*
X000363144Y002907827D01*
X000365994Y002907078D01*
X000368780Y002906119D01*
X000371487Y002904953D01*
X000374098Y002903588D01*
X000376601Y002902032D01*
X000378980Y002900293D01*
X000381222Y002898380D01*
X000383315Y002896306D01*
X000385247Y002894080D01*
X000387007Y002891717D01*
X000388585Y002889228D01*
X000389973Y002886628D01*
X000391162Y002883932D01*
X000392147Y002881154D01*
X000392920Y002878311D01*
X000393479Y002875417D01*
X000393820Y002872490D01*
X000394185Y002867857D01*
X000395627Y002861849D01*
X000397991Y002856142D01*
X000401219Y002850874D01*
X000405231Y002846177D01*
X000409929Y002842164D01*
X000415196Y002838937D01*
X000420904Y002836572D01*
X000426911Y002835130D01*
X000431545Y002834765D01*
X000434452Y002834427D01*
X000437325Y002833874D01*
X000440149Y002833110D01*
X000442909Y002832137D01*
X000445588Y002830963D01*
X000448173Y002829593D01*
X000450649Y002828034D01*
X000453003Y002826296D01*
X000455221Y002824388D01*
X000457291Y002822320D01*
X000459202Y002820105D01*
X000460943Y002817753D01*
X000462505Y002815279D01*
X000463879Y002812696D01*
X000465057Y002810018D01*
X000466032Y002807259D01*
X000466801Y002804436D01*
X000467357Y002801564D01*
X000467699Y002798658D01*
X000467824Y002795735D01*
X000467827Y002795252D01*
X000467732Y002792306D01*
X000467418Y002789375D01*
X000466886Y002786476D01*
X000466138Y002783624D01*
X000465178Y002780837D01*
X000464013Y002778129D01*
X000462649Y002775516D01*
X000461093Y002773013D01*
X000459353Y002770633D01*
X000457441Y002768389D01*
X000455366Y002766295D01*
X000453141Y002764363D01*
X000450777Y002762602D01*
X000448288Y002761023D01*
X000445687Y002759634D01*
X000442990Y002758444D01*
X000440212Y002757460D01*
X000437368Y002756685D01*
X000434473Y002756126D01*
X000431545Y002755785D01*
X000426911Y002755420D01*
X000420904Y002753978D01*
X000415196Y002751614D01*
X000409929Y002748386D01*
X000405231Y002744374D01*
X000401219Y002739676D01*
X000397991Y002734409D01*
X000395627Y002728701D01*
X000394185Y002722694D01*
X000393820Y002718060D01*
X000393479Y002715134D01*
X000392921Y002712241D01*
X000392147Y002709398D01*
X000391163Y002706621D01*
X000389975Y002703926D01*
X000388588Y002701326D01*
X000387010Y002698838D01*
X000385251Y002696475D01*
X000383320Y002694250D01*
X000381228Y002692176D01*
X000378987Y002690263D01*
X000376609Y002688524D01*
X000374108Y002686967D01*
X000371497Y002685602D01*
X000368792Y002684436D01*
X000366006Y002683476D01*
X000363157Y002682726D01*
X000360260Y002682192D01*
X000357331Y002681875D01*
X000354387Y002681779D01*
X000353904Y002681781D01*
X000350979Y002681904D01*
X000348071Y002682243D01*
X000345197Y002682798D01*
X000342371Y002683565D01*
X000339611Y002684539D01*
X000336930Y002685716D01*
X000334345Y002687089D01*
X000331868Y002688651D01*
X000329515Y002690392D01*
X000327297Y002692303D01*
X000325228Y002694373D01*
X000323318Y002696592D01*
X000321578Y002698946D01*
X000320018Y002701423D01*
X000318646Y002704010D01*
X000317470Y002706691D01*
X000316497Y002709452D01*
X000315732Y002712277D01*
X000315178Y002715152D01*
X000314840Y002718060D01*
X000314840Y002718060D01*
X000314475Y002722694D01*
X000313033Y002728701D01*
X000310669Y002734409D01*
X000307441Y002739676D01*
X000303429Y002744374D01*
X000298731Y002748386D01*
X000293464Y002751614D01*
X000287756Y002753978D01*
X000281749Y002755420D01*
X000277115Y002755785D01*
X000037845Y002834765D02*
X000037845Y002834765D01*
X000037845Y002834765D01*
X000040751Y002834427D01*
X000043624Y002833874D01*
X000046448Y002833110D01*
X000049208Y002832137D01*
X000051887Y002830963D01*
X000054473Y002829593D01*
X000056949Y002828034D01*
X000059302Y002826296D01*
X000061520Y002824388D01*
X000063590Y002822320D01*
X000065501Y002820105D01*
X000067243Y002817753D01*
X000068804Y002815279D01*
X000070178Y002812696D01*
X000071356Y002810018D01*
X000072332Y002807259D01*
X000073100Y002804436D01*
X000073656Y002801564D01*
X000073998Y002798658D01*
X000074123Y002795735D01*
X000074126Y002795252D01*
X000074032Y002792306D01*
X000073718Y002789375D01*
X000073185Y002786476D01*
X000072437Y002783624D01*
X000071478Y002780837D01*
X000070312Y002778129D01*
X000068948Y002775516D01*
X000067392Y002773013D01*
X000065653Y002770633D01*
X000063740Y002768389D01*
X000061666Y002766295D01*
X000059440Y002764363D01*
X000057076Y002762602D01*
X000054587Y002761023D01*
X000051986Y002759634D01*
X000049290Y002758444D01*
X000046511Y002757460D01*
X000043667Y002756685D01*
X000040773Y002756126D01*
X000037845Y002755785D01*
X000037845Y002755785D01*
X000033211Y002755420D01*
X000027203Y002753978D01*
X000021496Y002751614D01*
X000016228Y002748386D01*
X000011531Y002744374D01*
X000007518Y002739676D01*
X000004290Y002734409D01*
X000001926Y002728701D01*
X000000484Y002722694D01*
X000000000Y002716535D01*
X000000000Y002480314D01*
X000000484Y002474156D01*
X000001926Y002468149D01*
X000004290Y002462441D01*
X000007518Y002457174D01*
X000011531Y002452476D01*
X000016228Y002448464D01*
X000021496Y002445236D01*
X000027203Y002442872D01*
X000033211Y002441429D01*
X000039369Y002440944D01*
X000275590Y002440944D01*
X000281749Y002441429D01*
X000287756Y002442872D01*
X000293464Y002445236D01*
X000298731Y002448464D01*
X000303429Y002452476D01*
X000307441Y002457174D01*
X000310669Y002462441D01*
X000313033Y002468149D01*
X000314475Y002474156D01*
X000314840Y002478790D01*
X000314840Y002478790D01*
X000315178Y002481697D01*
X000315731Y002484571D01*
X000316496Y002487395D01*
X000317469Y002490156D01*
X000318644Y002492836D01*
X000320015Y002495422D01*
X000321574Y002497898D01*
X000323313Y002500252D01*
X000325222Y002502471D01*
X000327291Y002504541D01*
X000329508Y002506452D01*
X000331860Y002508193D01*
X000334335Y002509755D01*
X000336920Y002511128D01*
X000339599Y002512305D01*
X000342359Y002513281D01*
X000345183Y002514048D01*
X000348056Y002514604D01*
X000350963Y002514944D01*
X000353887Y002515068D01*
X000354370Y002515071D01*
X000357315Y002514975D01*
X000360245Y002514660D01*
X000363144Y002514126D01*
X000365994Y002513378D01*
X000368780Y002512418D01*
X000371487Y002511252D01*
X000374098Y002509887D01*
X000376601Y002508331D01*
X000378980Y002506592D01*
X000381222Y002504679D01*
X000383315Y002502605D01*
X000385247Y002500380D01*
X000387007Y002498016D01*
X000388585Y002495527D01*
X000389973Y002492928D01*
X000391162Y002490231D01*
X000392147Y002487454D01*
X000392920Y002484610D01*
X000393479Y002481717D01*
X000393820Y002478790D01*
X000394185Y002474156D01*
X000395627Y002468149D01*
X000397991Y002462441D01*
X000401219Y002457174D01*
X000405231Y002452476D01*
X000409929Y002448464D01*
X000415196Y002445236D01*
X000420904Y002442872D01*
X000426911Y002441429D01*
X000433070Y002440944D01*
X000669291Y002440944D01*
X000675449Y002441429D01*
X000681457Y002442872D01*
X000687164Y002445236D01*
X000692432Y002448464D01*
X000697129Y002452476D01*
X000701142Y002457174D01*
X000704370Y002462441D01*
X000706734Y002468149D01*
X000708176Y002474156D01*
X000708541Y002478790D01*
X000708879Y002481697D01*
X000709432Y002484571D01*
X000710197Y002487395D01*
X000711170Y002490156D01*
X000712345Y002492836D01*
X000713716Y002495422D01*
X000715275Y002497898D01*
X000717014Y002500252D01*
X000718923Y002502471D01*
X000720992Y002504541D01*
X000723208Y002506452D01*
X000725561Y002508193D01*
X000728036Y002509755D01*
X000730621Y002511128D01*
X000733300Y002512305D01*
X000736059Y002513281D01*
X000738884Y002514048D01*
X000741757Y002514604D01*
X000744664Y002514944D01*
X000747588Y002515068D01*
X000748071Y002515071D01*
X000751016Y002514975D01*
X000753946Y002514660D01*
X000756844Y002514126D01*
X000759695Y002513378D01*
X000762481Y002512418D01*
X000765187Y002511252D01*
X000767799Y002509887D01*
X000770302Y002508331D01*
X000772681Y002506592D01*
X000774923Y002504679D01*
X000777016Y002502605D01*
X000778948Y002500380D01*
X000780708Y002498016D01*
X000782286Y002495527D01*
X000783674Y002492928D01*
X000784863Y002490231D01*
X000785847Y002487454D01*
X000786621Y002484610D01*
X000787180Y002481717D01*
X000787521Y002478790D01*
X000787886Y002474156D01*
X000789328Y002468149D01*
X000791692Y002462441D01*
X000794920Y002457174D01*
X000798932Y002452476D01*
X000803630Y002448464D01*
X000808897Y002445236D01*
X000814605Y002442872D01*
X000820612Y002441429D01*
X000826771Y002440944D01*
X001062992Y002440944D01*
X001069150Y002441429D01*
X001075157Y002442872D01*
X001080865Y002445236D01*
X001086133Y002448464D01*
X001090830Y002452476D01*
X001094842Y002457174D01*
X001098070Y002462441D01*
X001100435Y002468149D01*
X001101877Y002474156D01*
X001102242Y002478790D01*
X001102580Y002481697D01*
X001103133Y002484571D01*
X001103898Y002487395D01*
X001104871Y002490156D01*
X001106046Y002492836D01*
X001107417Y002495422D01*
X001108976Y002497898D01*
X001110715Y002500252D01*
X001112624Y002502471D01*
X001114693Y002504541D01*
X001116909Y002506452D01*
X001119262Y002508193D01*
X001121737Y002509755D01*
X001124321Y002511128D01*
X001127001Y002512305D01*
X001129760Y002513281D01*
X001132584Y002514048D01*
X001135458Y002514604D01*
X001138365Y002514944D01*
X001141289Y002515068D01*
X001141772Y002515071D01*
X001144717Y002514975D01*
X001147647Y002514660D01*
X001150545Y002514126D01*
X001153395Y002513378D01*
X001156182Y002512418D01*
X001158888Y002511252D01*
X001161500Y002509887D01*
X001164002Y002508331D01*
X001166381Y002506592D01*
X001168624Y002504679D01*
X001170717Y002502605D01*
X001172648Y002500380D01*
X001174408Y002498016D01*
X001175987Y002495527D01*
X001177374Y002492928D01*
X001178564Y002490231D01*
X001179548Y002487454D01*
X001180322Y002484610D01*
X001180881Y002481717D01*
X001181222Y002478790D01*
X001181587Y002474156D01*
X001183029Y002468149D01*
X001185393Y002462441D01*
X001188621Y002457174D01*
X001192633Y002452476D01*
X001197331Y002448464D01*
X001202598Y002445236D01*
X001208306Y002442872D01*
X001214313Y002441429D01*
X001220472Y002440944D01*
X001456692Y002440944D01*
X001462851Y002441429D01*
X001468858Y002442872D01*
X001474566Y002445236D01*
X001479833Y002448464D01*
X001484531Y002452476D01*
X001488543Y002457174D01*
X001491771Y002462441D01*
X001494135Y002468149D01*
X001495577Y002474156D01*
X001496062Y002480314D01*
X001496062Y002716535D01*
X001495577Y002722694D01*
X001494135Y002728701D01*
X001491771Y002734409D01*
X001488543Y002739676D01*
X001484531Y002744374D01*
X001479833Y002748386D01*
X001474566Y002751614D01*
X001468858Y002753978D01*
X001462851Y002755420D01*
X001458217Y002755785D01*
X001455290Y002756126D01*
X001452397Y002756685D01*
X001449553Y002757459D01*
X001446776Y002758443D01*
X001444079Y002759633D01*
X001441480Y002761020D01*
X001438991Y002762598D01*
X001436627Y002764358D01*
X001434402Y002766290D01*
X001432327Y002768383D01*
X001430415Y002770626D01*
X001428676Y002773004D01*
X001427120Y002775507D01*
X001425755Y002778119D01*
X001424589Y002780825D01*
X001423629Y002783612D01*
X001422880Y002786462D01*
X001422347Y002789360D01*
X001422032Y002792290D01*
X001421936Y002795235D01*
X001421939Y002795718D01*
X001422063Y002798642D01*
X001422403Y002801549D01*
X001422959Y002804422D01*
X001423726Y002807247D01*
X001424702Y002810006D01*
X001425879Y002812685D01*
X001427252Y002815270D01*
X001428814Y002817745D01*
X001430555Y002820098D01*
X001432466Y002822314D01*
X001434536Y002824383D01*
X001436754Y002826292D01*
X001439108Y002828031D01*
X001441585Y002829590D01*
X001444171Y002830961D01*
X001446851Y002832136D01*
X001449611Y002833109D01*
X001452436Y002833874D01*
X001455310Y002834427D01*
X001458217Y002834765D01*
X001462851Y002835130D01*
X001468858Y002836572D01*
X001474566Y002838937D01*
X001479833Y002842164D01*
X001484531Y002846177D01*
X001488543Y002850874D01*
X001491771Y002856142D01*
X001494135Y002861849D01*
X001495577Y002867857D01*
X001496062Y002874015D01*
X001496062Y003110236D01*
X001495577Y003116395D01*
X001494135Y003122402D01*
X001491771Y003128110D01*
X001488543Y003133377D01*
X001484531Y003138075D01*
X001479833Y003142087D01*
X001474566Y003145315D01*
X001468858Y003147679D01*
X001462851Y003149121D01*
X001458217Y003149486D01*
X001455290Y003149827D01*
X001452397Y003150386D01*
X001449553Y003151160D01*
X001446776Y003152144D01*
X001444079Y003153333D01*
X001441480Y003154721D01*
X001438991Y003156299D01*
X001436627Y003158059D01*
X001434402Y003159991D01*
X001432327Y003162084D01*
X001430415Y003164326D01*
X001428676Y003166705D01*
X001427120Y003169208D01*
X001425755Y003171820D01*
X001424589Y003174526D01*
X001423629Y003177312D01*
X001422880Y003180162D01*
X001422347Y003183061D01*
X001422032Y003185991D01*
X001421936Y003188936D01*
X001421939Y003189419D01*
X001422063Y003192343D01*
X001422403Y003195250D01*
X001422959Y003198123D01*
X001423726Y003200947D01*
X001424702Y003203707D01*
X001425879Y003206386D01*
X001427252Y003208971D01*
X001428814Y003211446D01*
X001430555Y003213798D01*
X001432466Y003216015D01*
X001434536Y003218084D01*
X001436754Y003219993D01*
X001439108Y003221732D01*
X001441585Y003223291D01*
X001444171Y003224662D01*
X001446851Y003225837D01*
X001449611Y003226810D01*
X001452436Y003227575D01*
X001455310Y003228128D01*
X001458217Y003228466D01*
X001462851Y003228831D01*
X001468858Y003230273D01*
X001474566Y003232637D01*
X001479833Y003235865D01*
X001484531Y003239877D01*
X001488543Y003244575D01*
X001491771Y003249842D01*
X001494135Y003255550D01*
X001495577Y003261557D01*
X001496062Y003267716D01*
X001496062Y003503937D01*
X001495577Y003510096D01*
X001494135Y003516103D01*
X001491771Y003521811D01*
X001488543Y003527078D01*
X001484531Y003531775D01*
X001479833Y003535788D01*
X001474566Y003539016D01*
X001468858Y003541380D01*
X001462851Y003542822D01*
X001458217Y003543187D01*
X001455290Y003543528D01*
X001452397Y003544087D01*
X001449553Y003544860D01*
X001446776Y003545845D01*
X001444079Y003547034D01*
X001441480Y003548422D01*
X001438991Y003550000D01*
X001436627Y003551760D01*
X001434402Y003553692D01*
X001432327Y003555785D01*
X001430415Y003558027D01*
X001428676Y003560406D01*
X001427120Y003562908D01*
X001425755Y003565520D01*
X001424589Y003568227D01*
X001423629Y003571013D01*
X001422880Y003573863D01*
X001422347Y003576761D01*
X001422032Y003579691D01*
X001421936Y003582637D01*
X001421939Y003583120D01*
X001422063Y003586044D01*
X001422403Y003588951D01*
X001422959Y003591824D01*
X001423726Y003594648D01*
X001424702Y003597408D01*
X001425879Y003600087D01*
X001427252Y003602671D01*
X001428814Y003605147D01*
X001430555Y003607499D01*
X001432466Y003609716D01*
X001434536Y003611784D01*
X001436754Y003613693D01*
X001439108Y003615432D01*
X001441585Y003616992D01*
X001444171Y003618363D01*
X001446851Y003619538D01*
X001449611Y003620511D01*
X001452436Y003621276D01*
X001455310Y003621829D01*
X001458217Y003622167D01*
X001462851Y003622532D01*
X001468858Y003623974D01*
X001474566Y003626338D01*
X001479833Y003629566D01*
X001484531Y003633578D01*
X001488543Y003638276D01*
X001491771Y003643543D01*
X001494135Y003649251D01*
X001495577Y003655258D01*
X001496062Y003661417D01*
X001496062Y003897637D01*
X001495577Y003903796D01*
X001494135Y003909803D01*
X001491771Y003915511D01*
X001488543Y003920779D01*
X001484531Y003925476D01*
X001479833Y003929488D01*
X001474566Y003932716D01*
X001468858Y003935081D01*
X001462851Y003936523D01*
X001456692Y003937007D01*
X001220472Y003937007D01*
X001214313Y003936523D01*
X001208306Y003935081D01*
X001202598Y003932716D01*
X001197331Y003929488D01*
X001192633Y003925476D01*
X001188621Y003920779D01*
X001185393Y003915511D01*
X001183029Y003909803D01*
X001181587Y003903796D01*
X001181222Y003899162D01*
X001180881Y003896236D01*
X001180322Y003893343D01*
X001179549Y003890501D01*
X001178565Y003887724D01*
X001177376Y003885028D01*
X001175989Y003882429D01*
X001174412Y003879941D01*
X001172653Y003877577D01*
X001170722Y003875352D01*
X001168630Y003873278D01*
X001166389Y003871366D01*
X001164011Y003869626D01*
X001161509Y003868070D01*
X001158899Y003866705D01*
X001156193Y003865539D01*
X001153408Y003864578D01*
X001150559Y003863828D01*
X001147662Y003863294D01*
X001144733Y003862978D01*
X001141788Y003862881D01*
X001141305Y003862883D01*
X001138380Y003863006D01*
X001135473Y003863346D01*
X001132598Y003863900D01*
X001129773Y003864667D01*
X001127012Y003865642D01*
X001124332Y003866819D01*
X001121746Y003868192D01*
X001119270Y003869753D01*
X001116916Y003871494D01*
X001114699Y003873405D01*
X001112629Y003875475D01*
X001110719Y003877694D01*
X001108979Y003880048D01*
X001107419Y003882526D01*
X001106048Y003885112D01*
X001104872Y003887793D01*
X001103899Y003890554D01*
X001103133Y003893380D01*
X001102580Y003896254D01*
X001102242Y003899162D01*
X001101877Y003903796D01*
X001100435Y003909803D01*
X001098070Y003915511D01*
X001094842Y003920779D01*
X001090830Y003925476D01*
X001086133Y003929488D01*
X001080865Y003932716D01*
X001075157Y003935081D01*
X001069150Y003936523D01*
X001062992Y003937007D01*
X000826771Y003937007D01*
X000820612Y003936523D01*
X000814605Y003935081D01*
X000808897Y003932716D01*
X000803630Y003929488D01*
X000798932Y003925476D01*
X000794920Y003920779D01*
X000791692Y003915511D01*
X000789328Y003909803D01*
X000787886Y003903796D01*
X000787521Y003899162D01*
X000787180Y003896236D01*
X000786621Y003893343D01*
X000785848Y003890501D01*
X000784864Y003887724D01*
X000783675Y003885028D01*
X000782288Y003882429D01*
X000780711Y003879941D01*
X000778952Y003877577D01*
X000777021Y003875352D01*
X000774929Y003873278D01*
X000772688Y003871366D01*
X000770310Y003869626D01*
X000767809Y003868070D01*
X000765198Y003866705D01*
X000762492Y003865539D01*
X000759707Y003864578D01*
X000756858Y003863828D01*
X000753961Y003863294D01*
X000751032Y003862978D01*
X000748087Y003862881D01*
X000747604Y003862883D01*
X000744680Y003863006D01*
X000741772Y003863346D01*
X000738897Y003863900D01*
X000736072Y003864667D01*
X000733312Y003865642D01*
X000730631Y003866819D01*
X000728046Y003868192D01*
X000725569Y003869753D01*
X000723216Y003871494D01*
X000720998Y003873405D01*
X000718928Y003875475D01*
X000717018Y003877694D01*
X000715278Y003880048D01*
X000713718Y003882526D01*
X000712347Y003885112D01*
X000711171Y003887793D01*
X000710198Y003890554D01*
X000709432Y003893380D01*
X000708879Y003896254D01*
X000708541Y003899162D01*
X000708176Y003903796D01*
X000706734Y003909803D01*
X000704370Y003915511D01*
X000701142Y003920779D01*
X000697129Y003925476D01*
X000692432Y003929488D01*
X000687164Y003932716D01*
X000681457Y003935081D01*
X000675449Y003936523D01*
X000669291Y003937007D01*
X000433070Y003937007D01*
X000426911Y003936523D01*
X000420904Y003935081D01*
X000415196Y003932716D01*
X000409929Y003929488D01*
X000405231Y003925476D01*
X000401219Y003920779D01*
X000397991Y003915511D01*
X000395627Y003909803D01*
X000394185Y003903796D01*
X000393820Y003899162D01*
X000393479Y003896236D01*
X000392921Y003893343D01*
X000392147Y003890501D01*
X000391163Y003887724D01*
X000389975Y003885028D01*
X000388588Y003882429D01*
X000387010Y003879941D01*
X000385251Y003877577D01*
X000383320Y003875352D01*
X000381228Y003873278D01*
X000378987Y003871366D01*
X000376609Y003869626D01*
X000374108Y003868070D01*
X000371497Y003866705D01*
X000368792Y003865539D01*
X000366006Y003864578D01*
X000363157Y003863828D01*
X000360260Y003863294D01*
X000357331Y003862978D01*
X000354387Y003862881D01*
X000353904Y003862883D01*
X000350979Y003863006D01*
X000348071Y003863346D01*
X000345197Y003863900D01*
X000342371Y003864667D01*
X000339611Y003865642D01*
X000336930Y003866819D01*
X000334345Y003868192D01*
X000331868Y003869753D01*
X000329515Y003871494D01*
X000327297Y003873405D01*
X000325228Y003875475D01*
X000323318Y003877694D01*
X000321578Y003880048D01*
X000320018Y003882526D01*
X000318646Y003885112D01*
X000317470Y003887793D01*
X000316497Y003890554D01*
X000315732Y003893380D01*
X000315178Y003896254D01*
X000314840Y003899162D01*
X000314840Y003899162D01*
X000314475Y003903796D01*
X000313033Y003909803D01*
X000310669Y003915511D01*
X000307441Y003920779D01*
X000303429Y003925476D01*
X000298731Y003929488D01*
X000293464Y003932716D01*
X000287756Y003935081D01*
X000281749Y003936523D01*
X000275590Y003937007D01*
X000039370Y003937007D01*
X000033211Y003936523D01*
X000027203Y003935081D01*
X000021496Y003932716D01*
X000016228Y003929488D01*
X000011531Y003925476D01*
X000007518Y003920779D01*
X000004290Y003915511D01*
X000001926Y003909803D01*
X000000484Y003903796D01*
X000000000Y003897638D01*
X000000000Y003661417D01*
X000000484Y003655258D01*
X000001926Y003649251D01*
X000004290Y003643543D01*
X000007518Y003638276D01*
X000011531Y003633578D01*
X000016228Y003629566D01*
X000021496Y003626338D01*
X000027203Y003623974D01*
X000033211Y003622532D01*
X000037845Y003622167D01*
X000037845Y003622167D01*
X000040751Y003621829D01*
X000043624Y003621276D01*
X000046448Y003620511D01*
X000049208Y003619539D01*
X000051887Y003618364D01*
X000054473Y003616994D01*
X000056949Y003615436D01*
X000059302Y003613698D01*
X000061520Y003611789D01*
X000063590Y003609722D01*
X000065501Y003607506D01*
X000067243Y003605155D01*
X000068804Y003602681D01*
X000070178Y003600097D01*
X000071356Y003597419D01*
X000072332Y003594661D01*
X000073100Y003591838D01*
X000073656Y003588965D01*
X000073998Y003586060D01*
X000074123Y003583136D01*
X000074126Y003582654D01*
X000074032Y003579707D01*
X000073718Y003576776D01*
X000073185Y003573877D01*
X000072437Y003571026D01*
X000071478Y003568239D01*
X000070312Y003565531D01*
X000068948Y003562918D01*
X000067392Y003560414D01*
X000065653Y003558034D01*
X000063740Y003555791D01*
X000061666Y003553697D01*
X000059440Y003551764D01*
X000057076Y003550003D01*
X000054587Y003548424D01*
X000051986Y003547036D01*
X000049290Y003545846D01*
X000046511Y003544861D01*
X000043667Y003544087D01*
X000040773Y003543528D01*
X000037845Y003543187D01*
X000037845Y003543187D01*
X000033211Y003542822D01*
X000027203Y003541380D01*
X000021496Y003539016D01*
X000016228Y003535788D01*
X000011531Y003531775D01*
X000007518Y003527078D01*
X000004290Y003521811D01*
X000001926Y003516103D01*
X000000484Y003510096D01*
X000000000Y003503937D01*
X000000000Y003267716D01*
X000000484Y003261557D01*
X000001926Y003255550D01*
X000004290Y003249842D01*
X000007518Y003244575D01*
X000011531Y003239877D01*
X000016228Y003235865D01*
X000021496Y003232637D01*
X000027203Y003230273D01*
X000033211Y003228831D01*
X000037845Y003228466D01*
X000037845Y003228466D01*
X000040751Y003228128D01*
X000043624Y003227575D01*
X000046448Y003226811D01*
X000049208Y003225838D01*
X000051887Y003224664D01*
X000054473Y003223293D01*
X000056949Y003221735D01*
X000059302Y003219997D01*
X000061520Y003218089D01*
X000063590Y003216021D01*
X000065501Y003213806D01*
X000067243Y003211454D01*
X000068804Y003208980D01*
X000070178Y003206397D01*
X000071356Y003203718D01*
X000072332Y003200960D01*
X000073100Y003198137D01*
X000073656Y003195265D01*
X000073998Y003192359D01*
X000074123Y003189436D01*
X000074126Y003188953D01*
X000074032Y003186006D01*
X000073718Y003183076D01*
X000073185Y003180176D01*
X000072437Y003177325D01*
X000071478Y003174538D01*
X000070312Y003171830D01*
X000068948Y003169217D01*
X000067392Y003166714D01*
X000065653Y003164333D01*
X000063740Y003162090D01*
X000061666Y003159996D01*
X000059440Y003158063D01*
X000057076Y003156303D01*
X000054587Y003154723D01*
X000051986Y003153335D01*
X000049290Y003152145D01*
X000046511Y003151160D01*
X000043667Y003150386D01*
X000040773Y003149827D01*
X000037845Y003149486D01*
X000037845Y003149486D01*
X000033211Y003149121D01*
X000027203Y003147679D01*
X000021496Y003145315D01*
X000016228Y003142087D01*
X000011531Y003138075D01*
X000007518Y003133377D01*
X000004290Y003128110D01*
X000001926Y003122402D01*
X000000484Y003116395D01*
X000000000Y003110236D01*
X000000000Y002874015D01*
X000000484Y002867857D01*
X000001926Y002861849D01*
X000004290Y002856142D01*
X000007518Y002850874D01*
X000011531Y002846177D01*
X000016228Y002842164D01*
X000021496Y002838937D01*
X000027203Y002836572D01*
X000033211Y002835130D01*
X000037845Y002834765D01*
M02*