%MOIN*%
%OFA0B0*%
%FSLAX46Y46*%
%IPPOS*%
%LPD*%
%ADD10C,0.0039370078740157488*%
%ADD11C,0.0047244094488188976*%
%ADD22C,0.0039370078740157488*%
%ADD23C,0.0047244094488188976*%
%ADD24C,0.0039370078740157488*%
%ADD25C,0.0047244094488188976*%
%ADD26C,0.0039370078740157488*%
%ADD27C,0.0047244094488188976*%
%ADD28C,0.0039370078740157488*%
%ADD29C,0.0047244094488188976*%
%ADD30C,0.0039370078740157488*%
%ADD31C,0.0047244094488188976*%
%ADD32C,0.0039370078740157488*%
%ADD33C,0.0047244094488188976*%
%ADD34C,0.0039370078740157488*%
%ADD35C,0.0047244094488188976*%
%ADD36C,0.0039370078740157488*%
%ADD37C,0.0047244094488188976*%
%ADD38C,0.0039370078740157488*%
%ADD39C,0.0047244094488188976*%
%ADD40C,0.0039370078740157488*%
%ADD41C,0.0047244094488188976*%
%ADD42C,0.0039370078740157488*%
%ADD43C,0.0047244094488188976*%
%ADD44C,0.0039370078740157488*%
%ADD45C,0.0047244094488188976*%
%ADD46C,0.0039370078740157488*%
%ADD47C,0.0047244094488188976*%
%ADD48C,0.0039370078740157488*%
%ADD49C,0.0047244094488188976*%
%ADD50C,0.0039370078740157488*%
%ADD51C,0.0047244094488188976*%
D10*
X0000202624Y0003713648D02*
X0000230183Y0003722834D01*
X0000202624Y0003732021D01*
X0000227559Y0003756955D02*
X0000228871Y0003755643D01*
X0000230183Y0003751706D01*
X0000230183Y0003749081D01*
X0000228871Y0003745144D01*
X0000226246Y0003742519D01*
X0000223622Y0003741207D01*
X0000218372Y0003739895D01*
X0000214435Y0003739895D01*
X0000209186Y0003741207D01*
X0000206561Y0003742519D01*
X0000203937Y0003745144D01*
X0000202624Y0003749081D01*
X0000202624Y0003751706D01*
X0000203937Y0003755643D01*
X0000205249Y0003756955D01*
X0000227559Y0003784514D02*
X0000228871Y0003783202D01*
X0000230183Y0003779265D01*
X0000230183Y0003776640D01*
X0000228871Y0003772703D01*
X0000226246Y0003770078D01*
X0000223622Y0003768766D01*
X0000218372Y0003767454D01*
X0000214435Y0003767454D01*
X0000209186Y0003768766D01*
X0000206561Y0003770078D01*
X0000203937Y0003772703D01*
X0000202624Y0003776640D01*
X0000202624Y0003779265D01*
X0000203937Y0003783202D01*
X0000205249Y0003784514D01*
X0000164566Y0003730183D02*
X0000163254Y0003727559D01*
X0000163254Y0003723622D01*
X0000164566Y0003719685D01*
X0000167191Y0003717060D01*
X0000169816Y0003715748D01*
X0000175065Y0003714435D01*
X0000179002Y0003714435D01*
X0000184251Y0003715748D01*
X0000186876Y0003717060D01*
X0000189501Y0003719685D01*
X0000190813Y0003723622D01*
X0000190813Y0003726246D01*
X0000189501Y0003730183D01*
X0000188188Y0003731496D01*
X0000179002Y0003731496D01*
X0000179002Y0003726246D01*
X0000190813Y0003743307D02*
X0000163254Y0003743307D01*
X0000190813Y0003759055D01*
X0000163254Y0003759055D01*
X0000190813Y0003772178D02*
X0000163254Y0003772178D01*
X0000163254Y0003778740D01*
X0000164566Y0003782677D01*
X0000167191Y0003785301D01*
X0000169816Y0003786614D01*
X0000175065Y0003787926D01*
X0000179002Y0003787926D01*
X0000184251Y0003786614D01*
X0000186876Y0003785301D01*
X0000189501Y0003782677D01*
X0000190813Y0003778740D01*
X0000190813Y0003772178D01*
X0000137007Y0003714173D02*
X0000137007Y0003723359D01*
X0000151443Y0003727296D02*
X0000151443Y0003714173D01*
X0000123884Y0003714173D01*
X0000123884Y0003727296D01*
X0000112467Y0003714042D02*
X0000084908Y0003714042D01*
X0000084908Y0003720603D01*
X0000086220Y0003724540D01*
X0000088845Y0003727165D01*
X0000091469Y0003728477D01*
X0000096719Y0003729790D01*
X0000100656Y0003729790D01*
X0000105905Y0003728477D01*
X0000108530Y0003727165D01*
X0000111154Y0003724540D01*
X0000112467Y0003720603D01*
X0000112467Y0003714042D01*
D11*
X0000070866Y0003874015D02*
X0000070866Y0003803149D01*
G04 next file*
G04 #@! TF.GenerationSoftware,KiCad,Pcbnew,(5.1.5)-3*
G04 #@! TF.CreationDate,2021-04-29T13:46:15+02:00*
G04 #@! TF.ProjectId,Hivetracker,48697665-7472-4616-936b-65722e6b6963,rev?*
G04 #@! TF.SameCoordinates,PX2562500PY28a0640*
G04 #@! TF.FileFunction,Legend,Top*
G04 #@! TF.FilePolarity,Positive*
G04 Gerber Fmt 4.6, Leading zero omitted, Abs format (unit mm)*
G04 Created by KiCad (PCBNEW (5.1.5)-3) date 2021-04-29 13:46:15*
G04 APERTURE LIST*
G04 APERTURE END LIST*
D22*
X0000596325Y0003713648D02*
X0000623884Y0003722834D01*
X0000596325Y0003732021D01*
X0000621259Y0003756955D02*
X0000622572Y0003755643D01*
X0000623884Y0003751706D01*
X0000623884Y0003749081D01*
X0000622572Y0003745144D01*
X0000619947Y0003742519D01*
X0000617322Y0003741207D01*
X0000612073Y0003739895D01*
X0000608136Y0003739895D01*
X0000602887Y0003741207D01*
X0000600262Y0003742519D01*
X0000597637Y0003745144D01*
X0000596325Y0003749081D01*
X0000596325Y0003751706D01*
X0000597637Y0003755643D01*
X0000598950Y0003756955D01*
X0000621259Y0003784514D02*
X0000622572Y0003783202D01*
X0000623884Y0003779265D01*
X0000623884Y0003776640D01*
X0000622572Y0003772703D01*
X0000619947Y0003770078D01*
X0000617322Y0003768766D01*
X0000612073Y0003767454D01*
X0000608136Y0003767454D01*
X0000602887Y0003768766D01*
X0000600262Y0003770078D01*
X0000597637Y0003772703D01*
X0000596325Y0003776640D01*
X0000596325Y0003779265D01*
X0000597637Y0003783202D01*
X0000598950Y0003784514D01*
X0000558267Y0003730183D02*
X0000556955Y0003727559D01*
X0000556955Y0003723622D01*
X0000558267Y0003719685D01*
X0000560892Y0003717060D01*
X0000563517Y0003715748D01*
X0000568766Y0003714435D01*
X0000572703Y0003714435D01*
X0000577952Y0003715748D01*
X0000580577Y0003717060D01*
X0000583202Y0003719685D01*
X0000584514Y0003723622D01*
X0000584514Y0003726246D01*
X0000583202Y0003730183D01*
X0000581889Y0003731496D01*
X0000572703Y0003731496D01*
X0000572703Y0003726246D01*
X0000584514Y0003743307D02*
X0000556955Y0003743307D01*
X0000584514Y0003759055D01*
X0000556955Y0003759055D01*
X0000584514Y0003772178D02*
X0000556955Y0003772178D01*
X0000556955Y0003778740D01*
X0000558267Y0003782677D01*
X0000560892Y0003785301D01*
X0000563517Y0003786614D01*
X0000568766Y0003787926D01*
X0000572703Y0003787926D01*
X0000577952Y0003786614D01*
X0000580577Y0003785301D01*
X0000583202Y0003782677D01*
X0000584514Y0003778740D01*
X0000584514Y0003772178D01*
X0000530708Y0003714173D02*
X0000530708Y0003723359D01*
X0000545144Y0003727296D02*
X0000545144Y0003714173D01*
X0000517585Y0003714173D01*
X0000517585Y0003727296D01*
X0000506167Y0003714042D02*
X0000478608Y0003714042D01*
X0000478608Y0003720603D01*
X0000479921Y0003724540D01*
X0000482545Y0003727165D01*
X0000485170Y0003728477D01*
X0000490419Y0003729790D01*
X0000494356Y0003729790D01*
X0000499606Y0003728477D01*
X0000502230Y0003727165D01*
X0000504855Y0003724540D01*
X0000506167Y0003720603D01*
X0000506167Y0003714042D01*
D23*
X0000464566Y0003874015D02*
X0000464566Y0003803149D01*
G04 next file*
G04 #@! TF.GenerationSoftware,KiCad,Pcbnew,(5.1.5)-3*
G04 #@! TF.CreationDate,2021-04-29T13:46:15+02:00*
G04 #@! TF.ProjectId,Hivetracker,48697665-7472-4616-936b-65722e6b6963,rev?*
G04 #@! TF.SameCoordinates,PX2562500PY28a0640*
G04 #@! TF.FileFunction,Legend,Top*
G04 #@! TF.FilePolarity,Positive*
G04 Gerber Fmt 4.6, Leading zero omitted, Abs format (unit mm)*
G04 Created by KiCad (PCBNEW (5.1.5)-3) date 2021-04-29 13:46:15*
G04 APERTURE LIST*
G04 APERTURE END LIST*
D24*
X0000990026Y0003713648D02*
X0001017585Y0003722834D01*
X0000990026Y0003732021D01*
X0001014960Y0003756955D02*
X0001016272Y0003755643D01*
X0001017585Y0003751706D01*
X0001017585Y0003749081D01*
X0001016272Y0003745144D01*
X0001013648Y0003742519D01*
X0001011023Y0003741207D01*
X0001005774Y0003739895D01*
X0001001837Y0003739895D01*
X0000996587Y0003741207D01*
X0000993963Y0003742519D01*
X0000991338Y0003745144D01*
X0000990026Y0003749081D01*
X0000990026Y0003751706D01*
X0000991338Y0003755643D01*
X0000992650Y0003756955D01*
X0001014960Y0003784514D02*
X0001016272Y0003783202D01*
X0001017585Y0003779265D01*
X0001017585Y0003776640D01*
X0001016272Y0003772703D01*
X0001013648Y0003770078D01*
X0001011023Y0003768766D01*
X0001005774Y0003767454D01*
X0001001837Y0003767454D01*
X0000996587Y0003768766D01*
X0000993963Y0003770078D01*
X0000991338Y0003772703D01*
X0000990026Y0003776640D01*
X0000990026Y0003779265D01*
X0000991338Y0003783202D01*
X0000992650Y0003784514D01*
X0000951968Y0003730183D02*
X0000950656Y0003727559D01*
X0000950656Y0003723622D01*
X0000951968Y0003719685D01*
X0000954593Y0003717060D01*
X0000957217Y0003715748D01*
X0000962467Y0003714435D01*
X0000966404Y0003714435D01*
X0000971653Y0003715748D01*
X0000974278Y0003717060D01*
X0000976902Y0003719685D01*
X0000978215Y0003723622D01*
X0000978215Y0003726246D01*
X0000976902Y0003730183D01*
X0000975590Y0003731496D01*
X0000966404Y0003731496D01*
X0000966404Y0003726246D01*
X0000978215Y0003743307D02*
X0000950656Y0003743307D01*
X0000978215Y0003759055D01*
X0000950656Y0003759055D01*
X0000978215Y0003772178D02*
X0000950656Y0003772178D01*
X0000950656Y0003778740D01*
X0000951968Y0003782677D01*
X0000954593Y0003785301D01*
X0000957217Y0003786614D01*
X0000962467Y0003787926D01*
X0000966404Y0003787926D01*
X0000971653Y0003786614D01*
X0000974278Y0003785301D01*
X0000976902Y0003782677D01*
X0000978215Y0003778740D01*
X0000978215Y0003772178D01*
X0000924409Y0003714173D02*
X0000924409Y0003723359D01*
X0000938845Y0003727296D02*
X0000938845Y0003714173D01*
X0000911286Y0003714173D01*
X0000911286Y0003727296D01*
X0000899868Y0003714042D02*
X0000872309Y0003714042D01*
X0000872309Y0003720603D01*
X0000873622Y0003724540D01*
X0000876246Y0003727165D01*
X0000878871Y0003728477D01*
X0000884120Y0003729790D01*
X0000888057Y0003729790D01*
X0000893307Y0003728477D01*
X0000895931Y0003727165D01*
X0000898556Y0003724540D01*
X0000899868Y0003720603D01*
X0000899868Y0003714042D01*
D25*
X0000858267Y0003874015D02*
X0000858267Y0003803149D01*
G04 next file*
G04 #@! TF.GenerationSoftware,KiCad,Pcbnew,(5.1.5)-3*
G04 #@! TF.CreationDate,2021-04-29T13:46:15+02:00*
G04 #@! TF.ProjectId,Hivetracker,48697665-7472-4616-936b-65722e6b6963,rev?*
G04 #@! TF.SameCoordinates,PX2562500PY28a0640*
G04 #@! TF.FileFunction,Legend,Top*
G04 #@! TF.FilePolarity,Positive*
G04 Gerber Fmt 4.6, Leading zero omitted, Abs format (unit mm)*
G04 Created by KiCad (PCBNEW (5.1.5)-3) date 2021-04-29 13:46:15*
G04 APERTURE LIST*
G04 APERTURE END LIST*
D26*
X0000202624Y0003319947D02*
X0000230183Y0003329133D01*
X0000202624Y0003338320D01*
X0000227559Y0003363254D02*
X0000228871Y0003361942D01*
X0000230183Y0003358005D01*
X0000230183Y0003355380D01*
X0000228871Y0003351443D01*
X0000226246Y0003348818D01*
X0000223622Y0003347506D01*
X0000218372Y0003346194D01*
X0000214435Y0003346194D01*
X0000209186Y0003347506D01*
X0000206561Y0003348818D01*
X0000203937Y0003351443D01*
X0000202624Y0003355380D01*
X0000202624Y0003358005D01*
X0000203937Y0003361942D01*
X0000205249Y0003363254D01*
X0000227559Y0003390813D02*
X0000228871Y0003389501D01*
X0000230183Y0003385564D01*
X0000230183Y0003382939D01*
X0000228871Y0003379002D01*
X0000226246Y0003376377D01*
X0000223622Y0003375065D01*
X0000218372Y0003373753D01*
X0000214435Y0003373753D01*
X0000209186Y0003375065D01*
X0000206561Y0003376377D01*
X0000203937Y0003379002D01*
X0000202624Y0003382939D01*
X0000202624Y0003385564D01*
X0000203937Y0003389501D01*
X0000205249Y0003390813D01*
X0000164566Y0003336482D02*
X0000163254Y0003333858D01*
X0000163254Y0003329921D01*
X0000164566Y0003325984D01*
X0000167191Y0003323359D01*
X0000169816Y0003322047D01*
X0000175065Y0003320734D01*
X0000179002Y0003320734D01*
X0000184251Y0003322047D01*
X0000186876Y0003323359D01*
X0000189501Y0003325984D01*
X0000190813Y0003329921D01*
X0000190813Y0003332545D01*
X0000189501Y0003336482D01*
X0000188188Y0003337795D01*
X0000179002Y0003337795D01*
X0000179002Y0003332545D01*
X0000190813Y0003349606D02*
X0000163254Y0003349606D01*
X0000190813Y0003365354D01*
X0000163254Y0003365354D01*
X0000190813Y0003378477D02*
X0000163254Y0003378477D01*
X0000163254Y0003385039D01*
X0000164566Y0003388976D01*
X0000167191Y0003391601D01*
X0000169816Y0003392913D01*
X0000175065Y0003394225D01*
X0000179002Y0003394225D01*
X0000184251Y0003392913D01*
X0000186876Y0003391601D01*
X0000189501Y0003388976D01*
X0000190813Y0003385039D01*
X0000190813Y0003378477D01*
X0000137007Y0003320472D02*
X0000137007Y0003329658D01*
X0000151443Y0003333595D02*
X0000151443Y0003320472D01*
X0000123884Y0003320472D01*
X0000123884Y0003333595D01*
X0000112467Y0003320341D02*
X0000084908Y0003320341D01*
X0000084908Y0003326902D01*
X0000086220Y0003330839D01*
X0000088845Y0003333464D01*
X0000091469Y0003334776D01*
X0000096719Y0003336089D01*
X0000100656Y0003336089D01*
X0000105905Y0003334776D01*
X0000108530Y0003333464D01*
X0000111154Y0003330839D01*
X0000112467Y0003326902D01*
X0000112467Y0003320341D01*
D27*
X0000070866Y0003480314D02*
X0000070866Y0003409448D01*
G04 next file*
G04 #@! TF.GenerationSoftware,KiCad,Pcbnew,(5.1.5)-3*
G04 #@! TF.CreationDate,2021-04-29T13:46:15+02:00*
G04 #@! TF.ProjectId,Hivetracker,48697665-7472-4616-936b-65722e6b6963,rev?*
G04 #@! TF.SameCoordinates,PX2562500PY28a0640*
G04 #@! TF.FileFunction,Legend,Top*
G04 #@! TF.FilePolarity,Positive*
G04 Gerber Fmt 4.6, Leading zero omitted, Abs format (unit mm)*
G04 Created by KiCad (PCBNEW (5.1.5)-3) date 2021-04-29 13:46:15*
G04 APERTURE LIST*
G04 APERTURE END LIST*
D28*
X0000596325Y0003319947D02*
X0000623884Y0003329133D01*
X0000596325Y0003338320D01*
X0000621259Y0003363254D02*
X0000622572Y0003361942D01*
X0000623884Y0003358005D01*
X0000623884Y0003355380D01*
X0000622572Y0003351443D01*
X0000619947Y0003348818D01*
X0000617322Y0003347506D01*
X0000612073Y0003346194D01*
X0000608136Y0003346194D01*
X0000602887Y0003347506D01*
X0000600262Y0003348818D01*
X0000597637Y0003351443D01*
X0000596325Y0003355380D01*
X0000596325Y0003358005D01*
X0000597637Y0003361942D01*
X0000598950Y0003363254D01*
X0000621259Y0003390813D02*
X0000622572Y0003389501D01*
X0000623884Y0003385564D01*
X0000623884Y0003382939D01*
X0000622572Y0003379002D01*
X0000619947Y0003376377D01*
X0000617322Y0003375065D01*
X0000612073Y0003373753D01*
X0000608136Y0003373753D01*
X0000602887Y0003375065D01*
X0000600262Y0003376377D01*
X0000597637Y0003379002D01*
X0000596325Y0003382939D01*
X0000596325Y0003385564D01*
X0000597637Y0003389501D01*
X0000598950Y0003390813D01*
X0000558267Y0003336482D02*
X0000556955Y0003333858D01*
X0000556955Y0003329921D01*
X0000558267Y0003325984D01*
X0000560892Y0003323359D01*
X0000563517Y0003322047D01*
X0000568766Y0003320734D01*
X0000572703Y0003320734D01*
X0000577952Y0003322047D01*
X0000580577Y0003323359D01*
X0000583202Y0003325984D01*
X0000584514Y0003329921D01*
X0000584514Y0003332545D01*
X0000583202Y0003336482D01*
X0000581889Y0003337795D01*
X0000572703Y0003337795D01*
X0000572703Y0003332545D01*
X0000584514Y0003349606D02*
X0000556955Y0003349606D01*
X0000584514Y0003365354D01*
X0000556955Y0003365354D01*
X0000584514Y0003378477D02*
X0000556955Y0003378477D01*
X0000556955Y0003385039D01*
X0000558267Y0003388976D01*
X0000560892Y0003391601D01*
X0000563517Y0003392913D01*
X0000568766Y0003394225D01*
X0000572703Y0003394225D01*
X0000577952Y0003392913D01*
X0000580577Y0003391601D01*
X0000583202Y0003388976D01*
X0000584514Y0003385039D01*
X0000584514Y0003378477D01*
X0000530708Y0003320472D02*
X0000530708Y0003329658D01*
X0000545144Y0003333595D02*
X0000545144Y0003320472D01*
X0000517585Y0003320472D01*
X0000517585Y0003333595D01*
X0000506167Y0003320341D02*
X0000478608Y0003320341D01*
X0000478608Y0003326902D01*
X0000479921Y0003330839D01*
X0000482545Y0003333464D01*
X0000485170Y0003334776D01*
X0000490419Y0003336089D01*
X0000494356Y0003336089D01*
X0000499606Y0003334776D01*
X0000502230Y0003333464D01*
X0000504855Y0003330839D01*
X0000506167Y0003326902D01*
X0000506167Y0003320341D01*
D29*
X0000464566Y0003480314D02*
X0000464566Y0003409448D01*
G04 next file*
G04 #@! TF.GenerationSoftware,KiCad,Pcbnew,(5.1.5)-3*
G04 #@! TF.CreationDate,2021-04-29T13:46:15+02:00*
G04 #@! TF.ProjectId,Hivetracker,48697665-7472-4616-936b-65722e6b6963,rev?*
G04 #@! TF.SameCoordinates,PX2562500PY28a0640*
G04 #@! TF.FileFunction,Legend,Top*
G04 #@! TF.FilePolarity,Positive*
G04 Gerber Fmt 4.6, Leading zero omitted, Abs format (unit mm)*
G04 Created by KiCad (PCBNEW (5.1.5)-3) date 2021-04-29 13:46:15*
G04 APERTURE LIST*
G04 APERTURE END LIST*
D30*
X0000202624Y0002926246D02*
X0000230183Y0002935433D01*
X0000202624Y0002944619D01*
X0000227559Y0002969553D02*
X0000228871Y0002968241D01*
X0000230183Y0002964304D01*
X0000230183Y0002961679D01*
X0000228871Y0002957742D01*
X0000226246Y0002955118D01*
X0000223622Y0002953805D01*
X0000218372Y0002952493D01*
X0000214435Y0002952493D01*
X0000209186Y0002953805D01*
X0000206561Y0002955118D01*
X0000203937Y0002957742D01*
X0000202624Y0002961679D01*
X0000202624Y0002964304D01*
X0000203937Y0002968241D01*
X0000205249Y0002969553D01*
X0000227559Y0002997112D02*
X0000228871Y0002995800D01*
X0000230183Y0002991863D01*
X0000230183Y0002989238D01*
X0000228871Y0002985301D01*
X0000226246Y0002982677D01*
X0000223622Y0002981364D01*
X0000218372Y0002980052D01*
X0000214435Y0002980052D01*
X0000209186Y0002981364D01*
X0000206561Y0002982677D01*
X0000203937Y0002985301D01*
X0000202624Y0002989238D01*
X0000202624Y0002991863D01*
X0000203937Y0002995800D01*
X0000205249Y0002997112D01*
X0000164566Y0002942782D02*
X0000163254Y0002940157D01*
X0000163254Y0002936220D01*
X0000164566Y0002932283D01*
X0000167191Y0002929658D01*
X0000169816Y0002928346D01*
X0000175065Y0002927034D01*
X0000179002Y0002927034D01*
X0000184251Y0002928346D01*
X0000186876Y0002929658D01*
X0000189501Y0002932283D01*
X0000190813Y0002936220D01*
X0000190813Y0002938845D01*
X0000189501Y0002942782D01*
X0000188188Y0002944094D01*
X0000179002Y0002944094D01*
X0000179002Y0002938845D01*
X0000190813Y0002955905D02*
X0000163254Y0002955905D01*
X0000190813Y0002971653D01*
X0000163254Y0002971653D01*
X0000190813Y0002984776D02*
X0000163254Y0002984776D01*
X0000163254Y0002991338D01*
X0000164566Y0002995275D01*
X0000167191Y0002997900D01*
X0000169816Y0002999212D01*
X0000175065Y0003000524D01*
X0000179002Y0003000524D01*
X0000184251Y0002999212D01*
X0000186876Y0002997900D01*
X0000189501Y0002995275D01*
X0000190813Y0002991338D01*
X0000190813Y0002984776D01*
X0000137007Y0002926771D02*
X0000137007Y0002935958D01*
X0000151443Y0002939895D02*
X0000151443Y0002926771D01*
X0000123884Y0002926771D01*
X0000123884Y0002939895D01*
X0000112467Y0002926640D02*
X0000084908Y0002926640D01*
X0000084908Y0002933202D01*
X0000086220Y0002937139D01*
X0000088845Y0002939763D01*
X0000091469Y0002941076D01*
X0000096719Y0002942388D01*
X0000100656Y0002942388D01*
X0000105905Y0002941076D01*
X0000108530Y0002939763D01*
X0000111154Y0002937139D01*
X0000112467Y0002933202D01*
X0000112467Y0002926640D01*
D31*
X0000070866Y0003086614D02*
X0000070866Y0003015748D01*
G04 next file*
G04 #@! TF.GenerationSoftware,KiCad,Pcbnew,(5.1.5)-3*
G04 #@! TF.CreationDate,2021-04-29T13:46:15+02:00*
G04 #@! TF.ProjectId,Hivetracker,48697665-7472-4616-936b-65722e6b6963,rev?*
G04 #@! TF.SameCoordinates,PX2562500PY28a0640*
G04 #@! TF.FileFunction,Legend,Top*
G04 #@! TF.FilePolarity,Positive*
G04 Gerber Fmt 4.6, Leading zero omitted, Abs format (unit mm)*
G04 Created by KiCad (PCBNEW (5.1.5)-3) date 2021-04-29 13:46:15*
G04 APERTURE LIST*
G04 APERTURE END LIST*
D32*
X0000596325Y0002926246D02*
X0000623884Y0002935433D01*
X0000596325Y0002944619D01*
X0000621259Y0002969553D02*
X0000622572Y0002968241D01*
X0000623884Y0002964304D01*
X0000623884Y0002961679D01*
X0000622572Y0002957742D01*
X0000619947Y0002955118D01*
X0000617322Y0002953805D01*
X0000612073Y0002952493D01*
X0000608136Y0002952493D01*
X0000602887Y0002953805D01*
X0000600262Y0002955118D01*
X0000597637Y0002957742D01*
X0000596325Y0002961679D01*
X0000596325Y0002964304D01*
X0000597637Y0002968241D01*
X0000598950Y0002969553D01*
X0000621259Y0002997112D02*
X0000622572Y0002995800D01*
X0000623884Y0002991863D01*
X0000623884Y0002989238D01*
X0000622572Y0002985301D01*
X0000619947Y0002982677D01*
X0000617322Y0002981364D01*
X0000612073Y0002980052D01*
X0000608136Y0002980052D01*
X0000602887Y0002981364D01*
X0000600262Y0002982677D01*
X0000597637Y0002985301D01*
X0000596325Y0002989238D01*
X0000596325Y0002991863D01*
X0000597637Y0002995800D01*
X0000598950Y0002997112D01*
X0000558267Y0002942782D02*
X0000556955Y0002940157D01*
X0000556955Y0002936220D01*
X0000558267Y0002932283D01*
X0000560892Y0002929658D01*
X0000563517Y0002928346D01*
X0000568766Y0002927034D01*
X0000572703Y0002927034D01*
X0000577952Y0002928346D01*
X0000580577Y0002929658D01*
X0000583202Y0002932283D01*
X0000584514Y0002936220D01*
X0000584514Y0002938845D01*
X0000583202Y0002942782D01*
X0000581889Y0002944094D01*
X0000572703Y0002944094D01*
X0000572703Y0002938845D01*
X0000584514Y0002955905D02*
X0000556955Y0002955905D01*
X0000584514Y0002971653D01*
X0000556955Y0002971653D01*
X0000584514Y0002984776D02*
X0000556955Y0002984776D01*
X0000556955Y0002991338D01*
X0000558267Y0002995275D01*
X0000560892Y0002997900D01*
X0000563517Y0002999212D01*
X0000568766Y0003000524D01*
X0000572703Y0003000524D01*
X0000577952Y0002999212D01*
X0000580577Y0002997900D01*
X0000583202Y0002995275D01*
X0000584514Y0002991338D01*
X0000584514Y0002984776D01*
X0000530708Y0002926771D02*
X0000530708Y0002935958D01*
X0000545144Y0002939895D02*
X0000545144Y0002926771D01*
X0000517585Y0002926771D01*
X0000517585Y0002939895D01*
X0000506167Y0002926640D02*
X0000478608Y0002926640D01*
X0000478608Y0002933202D01*
X0000479921Y0002937139D01*
X0000482545Y0002939763D01*
X0000485170Y0002941076D01*
X0000490419Y0002942388D01*
X0000494356Y0002942388D01*
X0000499606Y0002941076D01*
X0000502230Y0002939763D01*
X0000504855Y0002937139D01*
X0000506167Y0002933202D01*
X0000506167Y0002926640D01*
D33*
X0000464566Y0003086614D02*
X0000464566Y0003015748D01*
G04 next file*
G04 #@! TF.GenerationSoftware,KiCad,Pcbnew,(5.1.5)-3*
G04 #@! TF.CreationDate,2021-04-29T13:46:15+02:00*
G04 #@! TF.ProjectId,Hivetracker,48697665-7472-4616-936b-65722e6b6963,rev?*
G04 #@! TF.SameCoordinates,PX2562500PY28a0640*
G04 #@! TF.FileFunction,Legend,Top*
G04 #@! TF.FilePolarity,Positive*
G04 Gerber Fmt 4.6, Leading zero omitted, Abs format (unit mm)*
G04 Created by KiCad (PCBNEW (5.1.5)-3) date 2021-04-29 13:46:15*
G04 APERTURE LIST*
G04 APERTURE END LIST*
D34*
X0000990026Y0002926246D02*
X0001017585Y0002935433D01*
X0000990026Y0002944619D01*
X0001014960Y0002969553D02*
X0001016272Y0002968241D01*
X0001017585Y0002964304D01*
X0001017585Y0002961679D01*
X0001016272Y0002957742D01*
X0001013648Y0002955118D01*
X0001011023Y0002953805D01*
X0001005774Y0002952493D01*
X0001001837Y0002952493D01*
X0000996587Y0002953805D01*
X0000993963Y0002955118D01*
X0000991338Y0002957742D01*
X0000990026Y0002961679D01*
X0000990026Y0002964304D01*
X0000991338Y0002968241D01*
X0000992650Y0002969553D01*
X0001014960Y0002997112D02*
X0001016272Y0002995800D01*
X0001017585Y0002991863D01*
X0001017585Y0002989238D01*
X0001016272Y0002985301D01*
X0001013648Y0002982677D01*
X0001011023Y0002981364D01*
X0001005774Y0002980052D01*
X0001001837Y0002980052D01*
X0000996587Y0002981364D01*
X0000993963Y0002982677D01*
X0000991338Y0002985301D01*
X0000990026Y0002989238D01*
X0000990026Y0002991863D01*
X0000991338Y0002995800D01*
X0000992650Y0002997112D01*
X0000951968Y0002942782D02*
X0000950656Y0002940157D01*
X0000950656Y0002936220D01*
X0000951968Y0002932283D01*
X0000954593Y0002929658D01*
X0000957217Y0002928346D01*
X0000962467Y0002927034D01*
X0000966404Y0002927034D01*
X0000971653Y0002928346D01*
X0000974278Y0002929658D01*
X0000976902Y0002932283D01*
X0000978215Y0002936220D01*
X0000978215Y0002938845D01*
X0000976902Y0002942782D01*
X0000975590Y0002944094D01*
X0000966404Y0002944094D01*
X0000966404Y0002938845D01*
X0000978215Y0002955905D02*
X0000950656Y0002955905D01*
X0000978215Y0002971653D01*
X0000950656Y0002971653D01*
X0000978215Y0002984776D02*
X0000950656Y0002984776D01*
X0000950656Y0002991338D01*
X0000951968Y0002995275D01*
X0000954593Y0002997900D01*
X0000957217Y0002999212D01*
X0000962467Y0003000524D01*
X0000966404Y0003000524D01*
X0000971653Y0002999212D01*
X0000974278Y0002997900D01*
X0000976902Y0002995275D01*
X0000978215Y0002991338D01*
X0000978215Y0002984776D01*
X0000924409Y0002926771D02*
X0000924409Y0002935958D01*
X0000938845Y0002939895D02*
X0000938845Y0002926771D01*
X0000911286Y0002926771D01*
X0000911286Y0002939895D01*
X0000899868Y0002926640D02*
X0000872309Y0002926640D01*
X0000872309Y0002933202D01*
X0000873622Y0002937139D01*
X0000876246Y0002939763D01*
X0000878871Y0002941076D01*
X0000884120Y0002942388D01*
X0000888057Y0002942388D01*
X0000893307Y0002941076D01*
X0000895931Y0002939763D01*
X0000898556Y0002937139D01*
X0000899868Y0002933202D01*
X0000899868Y0002926640D01*
D35*
X0000858267Y0003086614D02*
X0000858267Y0003015748D01*
G04 next file*
G04 #@! TF.GenerationSoftware,KiCad,Pcbnew,(5.1.5)-3*
G04 #@! TF.CreationDate,2021-04-29T13:46:15+02:00*
G04 #@! TF.ProjectId,Hivetracker,48697665-7472-4616-936b-65722e6b6963,rev?*
G04 #@! TF.SameCoordinates,PX2562500PY28a0640*
G04 #@! TF.FileFunction,Legend,Top*
G04 #@! TF.FilePolarity,Positive*
G04 Gerber Fmt 4.6, Leading zero omitted, Abs format (unit mm)*
G04 Created by KiCad (PCBNEW (5.1.5)-3) date 2021-04-29 13:46:15*
G04 APERTURE LIST*
G04 APERTURE END LIST*
D36*
X0000990026Y0003319947D02*
X0001017585Y0003329133D01*
X0000990026Y0003338320D01*
X0001014960Y0003363254D02*
X0001016272Y0003361942D01*
X0001017585Y0003358005D01*
X0001017585Y0003355380D01*
X0001016272Y0003351443D01*
X0001013648Y0003348818D01*
X0001011023Y0003347506D01*
X0001005774Y0003346194D01*
X0001001837Y0003346194D01*
X0000996587Y0003347506D01*
X0000993963Y0003348818D01*
X0000991338Y0003351443D01*
X0000990026Y0003355380D01*
X0000990026Y0003358005D01*
X0000991338Y0003361942D01*
X0000992650Y0003363254D01*
X0001014960Y0003390813D02*
X0001016272Y0003389501D01*
X0001017585Y0003385564D01*
X0001017585Y0003382939D01*
X0001016272Y0003379002D01*
X0001013648Y0003376377D01*
X0001011023Y0003375065D01*
X0001005774Y0003373753D01*
X0001001837Y0003373753D01*
X0000996587Y0003375065D01*
X0000993963Y0003376377D01*
X0000991338Y0003379002D01*
X0000990026Y0003382939D01*
X0000990026Y0003385564D01*
X0000991338Y0003389501D01*
X0000992650Y0003390813D01*
X0000951968Y0003336482D02*
X0000950656Y0003333858D01*
X0000950656Y0003329921D01*
X0000951968Y0003325984D01*
X0000954593Y0003323359D01*
X0000957217Y0003322047D01*
X0000962467Y0003320734D01*
X0000966404Y0003320734D01*
X0000971653Y0003322047D01*
X0000974278Y0003323359D01*
X0000976902Y0003325984D01*
X0000978215Y0003329921D01*
X0000978215Y0003332545D01*
X0000976902Y0003336482D01*
X0000975590Y0003337795D01*
X0000966404Y0003337795D01*
X0000966404Y0003332545D01*
X0000978215Y0003349606D02*
X0000950656Y0003349606D01*
X0000978215Y0003365354D01*
X0000950656Y0003365354D01*
X0000978215Y0003378477D02*
X0000950656Y0003378477D01*
X0000950656Y0003385039D01*
X0000951968Y0003388976D01*
X0000954593Y0003391601D01*
X0000957217Y0003392913D01*
X0000962467Y0003394225D01*
X0000966404Y0003394225D01*
X0000971653Y0003392913D01*
X0000974278Y0003391601D01*
X0000976902Y0003388976D01*
X0000978215Y0003385039D01*
X0000978215Y0003378477D01*
X0000924409Y0003320472D02*
X0000924409Y0003329658D01*
X0000938845Y0003333595D02*
X0000938845Y0003320472D01*
X0000911286Y0003320472D01*
X0000911286Y0003333595D01*
X0000899868Y0003320341D02*
X0000872309Y0003320341D01*
X0000872309Y0003326902D01*
X0000873622Y0003330839D01*
X0000876246Y0003333464D01*
X0000878871Y0003334776D01*
X0000884120Y0003336089D01*
X0000888057Y0003336089D01*
X0000893307Y0003334776D01*
X0000895931Y0003333464D01*
X0000898556Y0003330839D01*
X0000899868Y0003326902D01*
X0000899868Y0003320341D01*
D37*
X0000858267Y0003480314D02*
X0000858267Y0003409448D01*
G04 next file*
G04 #@! TF.GenerationSoftware,KiCad,Pcbnew,(5.1.5)-3*
G04 #@! TF.CreationDate,2021-04-29T13:46:15+02:00*
G04 #@! TF.ProjectId,Hivetracker,48697665-7472-4616-936b-65722e6b6963,rev?*
G04 #@! TF.SameCoordinates,PX2562500PY28a0640*
G04 #@! TF.FileFunction,Legend,Top*
G04 #@! TF.FilePolarity,Positive*
G04 Gerber Fmt 4.6, Leading zero omitted, Abs format (unit mm)*
G04 Created by KiCad (PCBNEW (5.1.5)-3) date 2021-04-29 13:46:15*
G04 APERTURE LIST*
G04 APERTURE END LIST*
D38*
X0001383726Y0003713648D02*
X0001411286Y0003722834D01*
X0001383726Y0003732021D01*
X0001408661Y0003756955D02*
X0001409973Y0003755643D01*
X0001411286Y0003751706D01*
X0001411286Y0003749081D01*
X0001409973Y0003745144D01*
X0001407349Y0003742519D01*
X0001404724Y0003741207D01*
X0001399475Y0003739895D01*
X0001395538Y0003739895D01*
X0001390288Y0003741207D01*
X0001387664Y0003742519D01*
X0001385039Y0003745144D01*
X0001383726Y0003749081D01*
X0001383726Y0003751706D01*
X0001385039Y0003755643D01*
X0001386351Y0003756955D01*
X0001408661Y0003784514D02*
X0001409973Y0003783202D01*
X0001411286Y0003779265D01*
X0001411286Y0003776640D01*
X0001409973Y0003772703D01*
X0001407349Y0003770078D01*
X0001404724Y0003768766D01*
X0001399475Y0003767454D01*
X0001395538Y0003767454D01*
X0001390288Y0003768766D01*
X0001387664Y0003770078D01*
X0001385039Y0003772703D01*
X0001383726Y0003776640D01*
X0001383726Y0003779265D01*
X0001385039Y0003783202D01*
X0001386351Y0003784514D01*
X0001345669Y0003730183D02*
X0001344356Y0003727559D01*
X0001344356Y0003723622D01*
X0001345669Y0003719685D01*
X0001348293Y0003717060D01*
X0001350918Y0003715748D01*
X0001356167Y0003714435D01*
X0001360104Y0003714435D01*
X0001365354Y0003715748D01*
X0001367978Y0003717060D01*
X0001370603Y0003719685D01*
X0001371915Y0003723622D01*
X0001371915Y0003726246D01*
X0001370603Y0003730183D01*
X0001369291Y0003731496D01*
X0001360104Y0003731496D01*
X0001360104Y0003726246D01*
X0001371915Y0003743307D02*
X0001344356Y0003743307D01*
X0001371915Y0003759055D01*
X0001344356Y0003759055D01*
X0001371915Y0003772178D02*
X0001344356Y0003772178D01*
X0001344356Y0003778740D01*
X0001345669Y0003782677D01*
X0001348293Y0003785301D01*
X0001350918Y0003786614D01*
X0001356167Y0003787926D01*
X0001360104Y0003787926D01*
X0001365354Y0003786614D01*
X0001367978Y0003785301D01*
X0001370603Y0003782677D01*
X0001371915Y0003778740D01*
X0001371915Y0003772178D01*
X0001318110Y0003714173D02*
X0001318110Y0003723359D01*
X0001332545Y0003727296D02*
X0001332545Y0003714173D01*
X0001304986Y0003714173D01*
X0001304986Y0003727296D01*
X0001293569Y0003714042D02*
X0001266010Y0003714042D01*
X0001266010Y0003720603D01*
X0001267322Y0003724540D01*
X0001269947Y0003727165D01*
X0001272572Y0003728477D01*
X0001277821Y0003729790D01*
X0001281758Y0003729790D01*
X0001287007Y0003728477D01*
X0001289632Y0003727165D01*
X0001292257Y0003724540D01*
X0001293569Y0003720603D01*
X0001293569Y0003714042D01*
D39*
X0001251968Y0003874015D02*
X0001251968Y0003803149D01*
G04 next file*
G04 #@! TF.GenerationSoftware,KiCad,Pcbnew,(5.1.5)-3*
G04 #@! TF.CreationDate,2021-04-29T13:46:15+02:00*
G04 #@! TF.ProjectId,Hivetracker,48697665-7472-4616-936b-65722e6b6963,rev?*
G04 #@! TF.SameCoordinates,PX2562500PY28a0640*
G04 #@! TF.FileFunction,Legend,Top*
G04 #@! TF.FilePolarity,Positive*
G04 Gerber Fmt 4.6, Leading zero omitted, Abs format (unit mm)*
G04 Created by KiCad (PCBNEW (5.1.5)-3) date 2021-04-29 13:46:15*
G04 APERTURE LIST*
G04 APERTURE END LIST*
D40*
X0001383726Y0003319947D02*
X0001411286Y0003329133D01*
X0001383726Y0003338320D01*
X0001408661Y0003363254D02*
X0001409973Y0003361942D01*
X0001411286Y0003358005D01*
X0001411286Y0003355380D01*
X0001409973Y0003351443D01*
X0001407349Y0003348818D01*
X0001404724Y0003347506D01*
X0001399475Y0003346194D01*
X0001395538Y0003346194D01*
X0001390288Y0003347506D01*
X0001387664Y0003348818D01*
X0001385039Y0003351443D01*
X0001383726Y0003355380D01*
X0001383726Y0003358005D01*
X0001385039Y0003361942D01*
X0001386351Y0003363254D01*
X0001408661Y0003390813D02*
X0001409973Y0003389501D01*
X0001411286Y0003385564D01*
X0001411286Y0003382939D01*
X0001409973Y0003379002D01*
X0001407349Y0003376377D01*
X0001404724Y0003375065D01*
X0001399475Y0003373753D01*
X0001395538Y0003373753D01*
X0001390288Y0003375065D01*
X0001387664Y0003376377D01*
X0001385039Y0003379002D01*
X0001383726Y0003382939D01*
X0001383726Y0003385564D01*
X0001385039Y0003389501D01*
X0001386351Y0003390813D01*
X0001345669Y0003336482D02*
X0001344356Y0003333858D01*
X0001344356Y0003329921D01*
X0001345669Y0003325984D01*
X0001348293Y0003323359D01*
X0001350918Y0003322047D01*
X0001356167Y0003320734D01*
X0001360104Y0003320734D01*
X0001365354Y0003322047D01*
X0001367978Y0003323359D01*
X0001370603Y0003325984D01*
X0001371915Y0003329921D01*
X0001371915Y0003332545D01*
X0001370603Y0003336482D01*
X0001369291Y0003337795D01*
X0001360104Y0003337795D01*
X0001360104Y0003332545D01*
X0001371915Y0003349606D02*
X0001344356Y0003349606D01*
X0001371915Y0003365354D01*
X0001344356Y0003365354D01*
X0001371915Y0003378477D02*
X0001344356Y0003378477D01*
X0001344356Y0003385039D01*
X0001345669Y0003388976D01*
X0001348293Y0003391601D01*
X0001350918Y0003392913D01*
X0001356167Y0003394225D01*
X0001360104Y0003394225D01*
X0001365354Y0003392913D01*
X0001367978Y0003391601D01*
X0001370603Y0003388976D01*
X0001371915Y0003385039D01*
X0001371915Y0003378477D01*
X0001318110Y0003320472D02*
X0001318110Y0003329658D01*
X0001332545Y0003333595D02*
X0001332545Y0003320472D01*
X0001304986Y0003320472D01*
X0001304986Y0003333595D01*
X0001293569Y0003320341D02*
X0001266010Y0003320341D01*
X0001266010Y0003326902D01*
X0001267322Y0003330839D01*
X0001269947Y0003333464D01*
X0001272572Y0003334776D01*
X0001277821Y0003336089D01*
X0001281758Y0003336089D01*
X0001287007Y0003334776D01*
X0001289632Y0003333464D01*
X0001292257Y0003330839D01*
X0001293569Y0003326902D01*
X0001293569Y0003320341D01*
D41*
X0001251968Y0003480314D02*
X0001251968Y0003409448D01*
G04 next file*
G04 #@! TF.GenerationSoftware,KiCad,Pcbnew,(5.1.5)-3*
G04 #@! TF.CreationDate,2021-04-29T13:46:15+02:00*
G04 #@! TF.ProjectId,Hivetracker,48697665-7472-4616-936b-65722e6b6963,rev?*
G04 #@! TF.SameCoordinates,PX2562500PY28a0640*
G04 #@! TF.FileFunction,Legend,Top*
G04 #@! TF.FilePolarity,Positive*
G04 Gerber Fmt 4.6, Leading zero omitted, Abs format (unit mm)*
G04 Created by KiCad (PCBNEW (5.1.5)-3) date 2021-04-29 13:46:15*
G04 APERTURE LIST*
G04 APERTURE END LIST*
D42*
X0001383726Y0002926246D02*
X0001411286Y0002935433D01*
X0001383726Y0002944619D01*
X0001408661Y0002969553D02*
X0001409973Y0002968241D01*
X0001411286Y0002964304D01*
X0001411286Y0002961679D01*
X0001409973Y0002957742D01*
X0001407349Y0002955118D01*
X0001404724Y0002953805D01*
X0001399475Y0002952493D01*
X0001395538Y0002952493D01*
X0001390288Y0002953805D01*
X0001387664Y0002955118D01*
X0001385039Y0002957742D01*
X0001383726Y0002961679D01*
X0001383726Y0002964304D01*
X0001385039Y0002968241D01*
X0001386351Y0002969553D01*
X0001408661Y0002997112D02*
X0001409973Y0002995800D01*
X0001411286Y0002991863D01*
X0001411286Y0002989238D01*
X0001409973Y0002985301D01*
X0001407349Y0002982677D01*
X0001404724Y0002981364D01*
X0001399475Y0002980052D01*
X0001395538Y0002980052D01*
X0001390288Y0002981364D01*
X0001387664Y0002982677D01*
X0001385039Y0002985301D01*
X0001383726Y0002989238D01*
X0001383726Y0002991863D01*
X0001385039Y0002995800D01*
X0001386351Y0002997112D01*
X0001345669Y0002942782D02*
X0001344356Y0002940157D01*
X0001344356Y0002936220D01*
X0001345669Y0002932283D01*
X0001348293Y0002929658D01*
X0001350918Y0002928346D01*
X0001356167Y0002927034D01*
X0001360104Y0002927034D01*
X0001365354Y0002928346D01*
X0001367978Y0002929658D01*
X0001370603Y0002932283D01*
X0001371915Y0002936220D01*
X0001371915Y0002938845D01*
X0001370603Y0002942782D01*
X0001369291Y0002944094D01*
X0001360104Y0002944094D01*
X0001360104Y0002938845D01*
X0001371915Y0002955905D02*
X0001344356Y0002955905D01*
X0001371915Y0002971653D01*
X0001344356Y0002971653D01*
X0001371915Y0002984776D02*
X0001344356Y0002984776D01*
X0001344356Y0002991338D01*
X0001345669Y0002995275D01*
X0001348293Y0002997900D01*
X0001350918Y0002999212D01*
X0001356167Y0003000524D01*
X0001360104Y0003000524D01*
X0001365354Y0002999212D01*
X0001367978Y0002997900D01*
X0001370603Y0002995275D01*
X0001371915Y0002991338D01*
X0001371915Y0002984776D01*
X0001318110Y0002926771D02*
X0001318110Y0002935958D01*
X0001332545Y0002939895D02*
X0001332545Y0002926771D01*
X0001304986Y0002926771D01*
X0001304986Y0002939895D01*
X0001293569Y0002926640D02*
X0001266010Y0002926640D01*
X0001266010Y0002933202D01*
X0001267322Y0002937139D01*
X0001269947Y0002939763D01*
X0001272572Y0002941076D01*
X0001277821Y0002942388D01*
X0001281758Y0002942388D01*
X0001287007Y0002941076D01*
X0001289632Y0002939763D01*
X0001292257Y0002937139D01*
X0001293569Y0002933202D01*
X0001293569Y0002926640D01*
D43*
X0001251968Y0003086614D02*
X0001251968Y0003015748D01*
G04 next file*
G04 #@! TF.GenerationSoftware,KiCad,Pcbnew,(5.1.5)-3*
G04 #@! TF.CreationDate,2021-04-29T13:46:15+02:00*
G04 #@! TF.ProjectId,Hivetracker,48697665-7472-4616-936b-65722e6b6963,rev?*
G04 #@! TF.SameCoordinates,PX2562500PY28a0640*
G04 #@! TF.FileFunction,Legend,Top*
G04 #@! TF.FilePolarity,Positive*
G04 Gerber Fmt 4.6, Leading zero omitted, Abs format (unit mm)*
G04 Created by KiCad (PCBNEW (5.1.5)-3) date 2021-04-29 13:46:15*
G04 APERTURE LIST*
G04 APERTURE END LIST*
D44*
X0000202624Y0002532545D02*
X0000230183Y0002541732D01*
X0000202624Y0002550918D01*
X0000227559Y0002575852D02*
X0000228871Y0002574540D01*
X0000230183Y0002570603D01*
X0000230183Y0002567979D01*
X0000228871Y0002564042D01*
X0000226246Y0002561417D01*
X0000223622Y0002560105D01*
X0000218372Y0002558792D01*
X0000214435Y0002558792D01*
X0000209186Y0002560105D01*
X0000206561Y0002561417D01*
X0000203937Y0002564042D01*
X0000202624Y0002567979D01*
X0000202624Y0002570603D01*
X0000203937Y0002574540D01*
X0000205249Y0002575852D01*
X0000227559Y0002603412D02*
X0000228871Y0002602099D01*
X0000230183Y0002598162D01*
X0000230183Y0002595538D01*
X0000228871Y0002591601D01*
X0000226246Y0002588976D01*
X0000223622Y0002587664D01*
X0000218372Y0002586351D01*
X0000214435Y0002586351D01*
X0000209186Y0002587664D01*
X0000206561Y0002588976D01*
X0000203937Y0002591601D01*
X0000202624Y0002595538D01*
X0000202624Y0002598162D01*
X0000203937Y0002602099D01*
X0000205249Y0002603412D01*
X0000164566Y0002549081D02*
X0000163254Y0002546456D01*
X0000163254Y0002542519D01*
X0000164566Y0002538582D01*
X0000167191Y0002535958D01*
X0000169816Y0002534645D01*
X0000175065Y0002533333D01*
X0000179002Y0002533333D01*
X0000184251Y0002534645D01*
X0000186876Y0002535958D01*
X0000189501Y0002538582D01*
X0000190813Y0002542519D01*
X0000190813Y0002545144D01*
X0000189501Y0002549081D01*
X0000188188Y0002550393D01*
X0000179002Y0002550393D01*
X0000179002Y0002545144D01*
X0000190813Y0002562204D02*
X0000163254Y0002562204D01*
X0000190813Y0002577952D01*
X0000163254Y0002577952D01*
X0000190813Y0002591076D02*
X0000163254Y0002591076D01*
X0000163254Y0002597637D01*
X0000164566Y0002601574D01*
X0000167191Y0002604199D01*
X0000169816Y0002605511D01*
X0000175065Y0002606824D01*
X0000179002Y0002606824D01*
X0000184251Y0002605511D01*
X0000186876Y0002604199D01*
X0000189501Y0002601574D01*
X0000190813Y0002597637D01*
X0000190813Y0002591076D01*
X0000137007Y0002533070D02*
X0000137007Y0002542257D01*
X0000151443Y0002546194D02*
X0000151443Y0002533070D01*
X0000123884Y0002533070D01*
X0000123884Y0002546194D01*
X0000112467Y0002532939D02*
X0000084908Y0002532939D01*
X0000084908Y0002539501D01*
X0000086220Y0002543438D01*
X0000088845Y0002546062D01*
X0000091469Y0002547375D01*
X0000096719Y0002548687D01*
X0000100656Y0002548687D01*
X0000105905Y0002547375D01*
X0000108530Y0002546062D01*
X0000111154Y0002543438D01*
X0000112467Y0002539501D01*
X0000112467Y0002532939D01*
D45*
X0000070866Y0002692913D02*
X0000070866Y0002622047D01*
G04 next file*
G04 #@! TF.GenerationSoftware,KiCad,Pcbnew,(5.1.5)-3*
G04 #@! TF.CreationDate,2021-04-29T13:46:15+02:00*
G04 #@! TF.ProjectId,Hivetracker,48697665-7472-4616-936b-65722e6b6963,rev?*
G04 #@! TF.SameCoordinates,PX2562500PY28a0640*
G04 #@! TF.FileFunction,Legend,Top*
G04 #@! TF.FilePolarity,Positive*
G04 Gerber Fmt 4.6, Leading zero omitted, Abs format (unit mm)*
G04 Created by KiCad (PCBNEW (5.1.5)-3) date 2021-04-29 13:46:15*
G04 APERTURE LIST*
G04 APERTURE END LIST*
D46*
X0000596325Y0002532545D02*
X0000623884Y0002541732D01*
X0000596325Y0002550918D01*
X0000621259Y0002575852D02*
X0000622572Y0002574540D01*
X0000623884Y0002570603D01*
X0000623884Y0002567979D01*
X0000622572Y0002564042D01*
X0000619947Y0002561417D01*
X0000617322Y0002560105D01*
X0000612073Y0002558792D01*
X0000608136Y0002558792D01*
X0000602887Y0002560105D01*
X0000600262Y0002561417D01*
X0000597637Y0002564042D01*
X0000596325Y0002567979D01*
X0000596325Y0002570603D01*
X0000597637Y0002574540D01*
X0000598950Y0002575852D01*
X0000621259Y0002603412D02*
X0000622572Y0002602099D01*
X0000623884Y0002598162D01*
X0000623884Y0002595538D01*
X0000622572Y0002591601D01*
X0000619947Y0002588976D01*
X0000617322Y0002587664D01*
X0000612073Y0002586351D01*
X0000608136Y0002586351D01*
X0000602887Y0002587664D01*
X0000600262Y0002588976D01*
X0000597637Y0002591601D01*
X0000596325Y0002595538D01*
X0000596325Y0002598162D01*
X0000597637Y0002602099D01*
X0000598950Y0002603412D01*
X0000558267Y0002549081D02*
X0000556955Y0002546456D01*
X0000556955Y0002542519D01*
X0000558267Y0002538582D01*
X0000560892Y0002535958D01*
X0000563517Y0002534645D01*
X0000568766Y0002533333D01*
X0000572703Y0002533333D01*
X0000577952Y0002534645D01*
X0000580577Y0002535958D01*
X0000583202Y0002538582D01*
X0000584514Y0002542519D01*
X0000584514Y0002545144D01*
X0000583202Y0002549081D01*
X0000581889Y0002550393D01*
X0000572703Y0002550393D01*
X0000572703Y0002545144D01*
X0000584514Y0002562204D02*
X0000556955Y0002562204D01*
X0000584514Y0002577952D01*
X0000556955Y0002577952D01*
X0000584514Y0002591076D02*
X0000556955Y0002591076D01*
X0000556955Y0002597637D01*
X0000558267Y0002601574D01*
X0000560892Y0002604199D01*
X0000563517Y0002605511D01*
X0000568766Y0002606824D01*
X0000572703Y0002606824D01*
X0000577952Y0002605511D01*
X0000580577Y0002604199D01*
X0000583202Y0002601574D01*
X0000584514Y0002597637D01*
X0000584514Y0002591076D01*
X0000530708Y0002533070D02*
X0000530708Y0002542257D01*
X0000545144Y0002546194D02*
X0000545144Y0002533070D01*
X0000517585Y0002533070D01*
X0000517585Y0002546194D01*
X0000506167Y0002532939D02*
X0000478608Y0002532939D01*
X0000478608Y0002539501D01*
X0000479921Y0002543438D01*
X0000482545Y0002546062D01*
X0000485170Y0002547375D01*
X0000490419Y0002548687D01*
X0000494356Y0002548687D01*
X0000499606Y0002547375D01*
X0000502230Y0002546062D01*
X0000504855Y0002543438D01*
X0000506167Y0002539501D01*
X0000506167Y0002532939D01*
D47*
X0000464566Y0002692913D02*
X0000464566Y0002622047D01*
G04 next file*
G04 #@! TF.GenerationSoftware,KiCad,Pcbnew,(5.1.5)-3*
G04 #@! TF.CreationDate,2021-04-29T13:46:15+02:00*
G04 #@! TF.ProjectId,Hivetracker,48697665-7472-4616-936b-65722e6b6963,rev?*
G04 #@! TF.SameCoordinates,PX2562500PY28a0640*
G04 #@! TF.FileFunction,Legend,Top*
G04 #@! TF.FilePolarity,Positive*
G04 Gerber Fmt 4.6, Leading zero omitted, Abs format (unit mm)*
G04 Created by KiCad (PCBNEW (5.1.5)-3) date 2021-04-29 13:46:15*
G04 APERTURE LIST*
G04 APERTURE END LIST*
D48*
X0000990026Y0002532545D02*
X0001017585Y0002541732D01*
X0000990026Y0002550918D01*
X0001014960Y0002575852D02*
X0001016272Y0002574540D01*
X0001017585Y0002570603D01*
X0001017585Y0002567979D01*
X0001016272Y0002564042D01*
X0001013648Y0002561417D01*
X0001011023Y0002560105D01*
X0001005774Y0002558792D01*
X0001001837Y0002558792D01*
X0000996587Y0002560105D01*
X0000993963Y0002561417D01*
X0000991338Y0002564042D01*
X0000990026Y0002567979D01*
X0000990026Y0002570603D01*
X0000991338Y0002574540D01*
X0000992650Y0002575852D01*
X0001014960Y0002603412D02*
X0001016272Y0002602099D01*
X0001017585Y0002598162D01*
X0001017585Y0002595538D01*
X0001016272Y0002591601D01*
X0001013648Y0002588976D01*
X0001011023Y0002587664D01*
X0001005774Y0002586351D01*
X0001001837Y0002586351D01*
X0000996587Y0002587664D01*
X0000993963Y0002588976D01*
X0000991338Y0002591601D01*
X0000990026Y0002595538D01*
X0000990026Y0002598162D01*
X0000991338Y0002602099D01*
X0000992650Y0002603412D01*
X0000951968Y0002549081D02*
X0000950656Y0002546456D01*
X0000950656Y0002542519D01*
X0000951968Y0002538582D01*
X0000954593Y0002535958D01*
X0000957217Y0002534645D01*
X0000962467Y0002533333D01*
X0000966404Y0002533333D01*
X0000971653Y0002534645D01*
X0000974278Y0002535958D01*
X0000976902Y0002538582D01*
X0000978215Y0002542519D01*
X0000978215Y0002545144D01*
X0000976902Y0002549081D01*
X0000975590Y0002550393D01*
X0000966404Y0002550393D01*
X0000966404Y0002545144D01*
X0000978215Y0002562204D02*
X0000950656Y0002562204D01*
X0000978215Y0002577952D01*
X0000950656Y0002577952D01*
X0000978215Y0002591076D02*
X0000950656Y0002591076D01*
X0000950656Y0002597637D01*
X0000951968Y0002601574D01*
X0000954593Y0002604199D01*
X0000957217Y0002605511D01*
X0000962467Y0002606824D01*
X0000966404Y0002606824D01*
X0000971653Y0002605511D01*
X0000974278Y0002604199D01*
X0000976902Y0002601574D01*
X0000978215Y0002597637D01*
X0000978215Y0002591076D01*
X0000924409Y0002533070D02*
X0000924409Y0002542257D01*
X0000938845Y0002546194D02*
X0000938845Y0002533070D01*
X0000911286Y0002533070D01*
X0000911286Y0002546194D01*
X0000899868Y0002532939D02*
X0000872309Y0002532939D01*
X0000872309Y0002539501D01*
X0000873622Y0002543438D01*
X0000876246Y0002546062D01*
X0000878871Y0002547375D01*
X0000884120Y0002548687D01*
X0000888057Y0002548687D01*
X0000893307Y0002547375D01*
X0000895931Y0002546062D01*
X0000898556Y0002543438D01*
X0000899868Y0002539501D01*
X0000899868Y0002532939D01*
D49*
X0000858267Y0002692913D02*
X0000858267Y0002622047D01*
G04 next file*
G04 #@! TF.GenerationSoftware,KiCad,Pcbnew,(5.1.5)-3*
G04 #@! TF.CreationDate,2021-04-29T13:46:15+02:00*
G04 #@! TF.ProjectId,Hivetracker,48697665-7472-4616-936b-65722e6b6963,rev?*
G04 #@! TF.SameCoordinates,PX2562500PY28a0640*
G04 #@! TF.FileFunction,Legend,Top*
G04 #@! TF.FilePolarity,Positive*
G04 Gerber Fmt 4.6, Leading zero omitted, Abs format (unit mm)*
G04 Created by KiCad (PCBNEW (5.1.5)-3) date 2021-04-29 13:46:15*
G04 APERTURE LIST*
G04 APERTURE END LIST*
D50*
X0001383726Y0002532545D02*
X0001411286Y0002541732D01*
X0001383726Y0002550918D01*
X0001408661Y0002575852D02*
X0001409973Y0002574540D01*
X0001411286Y0002570603D01*
X0001411286Y0002567979D01*
X0001409973Y0002564042D01*
X0001407349Y0002561417D01*
X0001404724Y0002560105D01*
X0001399475Y0002558792D01*
X0001395538Y0002558792D01*
X0001390288Y0002560105D01*
X0001387664Y0002561417D01*
X0001385039Y0002564042D01*
X0001383726Y0002567979D01*
X0001383726Y0002570603D01*
X0001385039Y0002574540D01*
X0001386351Y0002575852D01*
X0001408661Y0002603412D02*
X0001409973Y0002602099D01*
X0001411286Y0002598162D01*
X0001411286Y0002595538D01*
X0001409973Y0002591601D01*
X0001407349Y0002588976D01*
X0001404724Y0002587664D01*
X0001399475Y0002586351D01*
X0001395538Y0002586351D01*
X0001390288Y0002587664D01*
X0001387664Y0002588976D01*
X0001385039Y0002591601D01*
X0001383726Y0002595538D01*
X0001383726Y0002598162D01*
X0001385039Y0002602099D01*
X0001386351Y0002603412D01*
X0001345669Y0002549081D02*
X0001344356Y0002546456D01*
X0001344356Y0002542519D01*
X0001345669Y0002538582D01*
X0001348293Y0002535958D01*
X0001350918Y0002534645D01*
X0001356167Y0002533333D01*
X0001360104Y0002533333D01*
X0001365354Y0002534645D01*
X0001367978Y0002535958D01*
X0001370603Y0002538582D01*
X0001371915Y0002542519D01*
X0001371915Y0002545144D01*
X0001370603Y0002549081D01*
X0001369291Y0002550393D01*
X0001360104Y0002550393D01*
X0001360104Y0002545144D01*
X0001371915Y0002562204D02*
X0001344356Y0002562204D01*
X0001371915Y0002577952D01*
X0001344356Y0002577952D01*
X0001371915Y0002591076D02*
X0001344356Y0002591076D01*
X0001344356Y0002597637D01*
X0001345669Y0002601574D01*
X0001348293Y0002604199D01*
X0001350918Y0002605511D01*
X0001356167Y0002606824D01*
X0001360104Y0002606824D01*
X0001365354Y0002605511D01*
X0001367978Y0002604199D01*
X0001370603Y0002601574D01*
X0001371915Y0002597637D01*
X0001371915Y0002591076D01*
X0001318110Y0002533070D02*
X0001318110Y0002542257D01*
X0001332545Y0002546194D02*
X0001332545Y0002533070D01*
X0001304986Y0002533070D01*
X0001304986Y0002546194D01*
X0001293569Y0002532939D02*
X0001266010Y0002532939D01*
X0001266010Y0002539501D01*
X0001267322Y0002543438D01*
X0001269947Y0002546062D01*
X0001272572Y0002547375D01*
X0001277821Y0002548687D01*
X0001281758Y0002548687D01*
X0001287007Y0002547375D01*
X0001289632Y0002546062D01*
X0001292257Y0002543438D01*
X0001293569Y0002539501D01*
X0001293569Y0002532939D01*
D51*
X0001251968Y0002692913D02*
X0001251968Y0002622047D01*
M02*