%MOIN*%
%OFA0B0*%
%FSLAX46Y46*%
%IPPOS*%
%LPD*%
%ADD10C,0.0039370078740157488*%
%ADD11C,0.010314960629921261*%
%ADD22C,0.0039370078740157488*%
%ADD23C,0.010314960629921261*%
%ADD24C,0.0039370078740157488*%
%ADD25C,0.010314960629921261*%
%ADD26C,0.0039370078740157488*%
%ADD27C,0.010314960629921261*%
%ADD28C,0.0039370078740157488*%
%ADD29C,0.010314960629921261*%
%ADD30C,0.0039370078740157488*%
%ADD31C,0.010314960629921261*%
%ADD32C,0.0039370078740157488*%
%ADD33C,0.010314960629921261*%
%ADD34C,0.0039370078740157488*%
%ADD35C,0.010314960629921261*%
%ADD36C,0.0039370078740157488*%
%ADD37C,0.010314960629921261*%
%ADD38C,0.0039370078740157488*%
%ADD39C,0.010314960629921261*%
%ADD40C,0.0039370078740157488*%
%ADD41C,0.010314960629921261*%
%ADD42C,0.0039370078740157488*%
%ADD43C,0.010314960629921261*%
%ADD44C,0.0039370078740157488*%
%ADD45C,0.010314960629921261*%
%ADD46C,0.0039370078740157488*%
%ADD47C,0.010314960629921261*%
%ADD48C,0.0039370078740157488*%
%ADD49C,0.010314960629921261*%
%ADD50C,0.0039370078740157488*%
%ADD51C,0.010314960629921261*%
D10*
G36*
X0000062478Y0003718869D02*
G01*
X0000063042Y0003718786D01*
X0000063595Y0003718647D01*
X0000064131Y0003718455D01*
X0000064646Y0003718211D01*
X0000065135Y0003717918D01*
X0000065593Y0003717579D01*
X0000066015Y0003717196D01*
X0000066398Y0003716774D01*
X0000066737Y0003716316D01*
X0000067030Y0003715827D01*
X0000067274Y0003715312D01*
X0000067466Y0003714776D01*
X0000067604Y0003714223D01*
X0000067688Y0003713659D01*
X0000067716Y0003713090D01*
X0000067716Y0003701476D01*
X0000067688Y0003700907D01*
X0000067604Y0003700343D01*
X0000067466Y0003699790D01*
X0000067274Y0003699254D01*
X0000067030Y0003698738D01*
X0000066737Y0003698250D01*
X0000066398Y0003697792D01*
X0000066015Y0003697370D01*
X0000065593Y0003696987D01*
X0000065135Y0003696647D01*
X0000064646Y0003696355D01*
X0000064131Y0003696111D01*
X0000063595Y0003695919D01*
X0000063042Y0003695780D01*
X0000062478Y0003695697D01*
X0000061909Y0003695669D01*
X0000048326Y0003695669D01*
X0000047757Y0003695697D01*
X0000047193Y0003695780D01*
X0000046641Y0003695919D01*
X0000046104Y0003696111D01*
X0000045589Y0003696355D01*
X0000045100Y0003696647D01*
X0000044642Y0003696987D01*
X0000044220Y0003697370D01*
X0000043837Y0003697792D01*
X0000043498Y0003698250D01*
X0000043205Y0003698738D01*
X0000042961Y0003699254D01*
X0000042769Y0003699790D01*
X0000042631Y0003700343D01*
X0000042547Y0003700907D01*
X0000042519Y0003701476D01*
X0000042519Y0003713090D01*
X0000042547Y0003713659D01*
X0000042631Y0003714223D01*
X0000042769Y0003714776D01*
X0000042961Y0003715312D01*
X0000043205Y0003715827D01*
X0000043498Y0003716316D01*
X0000043837Y0003716774D01*
X0000044220Y0003717196D01*
X0000044642Y0003717579D01*
X0000045100Y0003717918D01*
X0000045589Y0003718211D01*
X0000046104Y0003718455D01*
X0000046641Y0003718647D01*
X0000047193Y0003718786D01*
X0000047757Y0003718869D01*
X0000048326Y0003718897D01*
X0000061909Y0003718897D01*
X0000062478Y0003718869D01*
G37*
G36*
X0000062478Y0003757058D02*
G01*
X0000063042Y0003756975D01*
X0000063595Y0003756836D01*
X0000064131Y0003756644D01*
X0000064646Y0003756400D01*
X0000065135Y0003756107D01*
X0000065593Y0003755768D01*
X0000066015Y0003755385D01*
X0000066398Y0003754963D01*
X0000066737Y0003754505D01*
X0000067030Y0003754016D01*
X0000067274Y0003753501D01*
X0000067466Y0003752965D01*
X0000067604Y0003752412D01*
X0000067688Y0003751848D01*
X0000067716Y0003751279D01*
X0000067716Y0003739665D01*
X0000067688Y0003739096D01*
X0000067604Y0003738532D01*
X0000067466Y0003737979D01*
X0000067274Y0003737443D01*
X0000067030Y0003736927D01*
X0000066737Y0003736439D01*
X0000066398Y0003735981D01*
X0000066015Y0003735559D01*
X0000065593Y0003735176D01*
X0000065135Y0003734836D01*
X0000064646Y0003734543D01*
X0000064131Y0003734300D01*
X0000063595Y0003734108D01*
X0000063042Y0003733969D01*
X0000062478Y0003733886D01*
X0000061909Y0003733858D01*
X0000048326Y0003733858D01*
X0000047757Y0003733886D01*
X0000047193Y0003733969D01*
X0000046641Y0003734108D01*
X0000046104Y0003734300D01*
X0000045589Y0003734543D01*
X0000045100Y0003734836D01*
X0000044642Y0003735176D01*
X0000044220Y0003735559D01*
X0000043837Y0003735981D01*
X0000043498Y0003736439D01*
X0000043205Y0003736927D01*
X0000042961Y0003737443D01*
X0000042769Y0003737979D01*
X0000042631Y0003738532D01*
X0000042547Y0003739096D01*
X0000042519Y0003739665D01*
X0000042519Y0003751279D01*
X0000042547Y0003751848D01*
X0000042631Y0003752412D01*
X0000042769Y0003752965D01*
X0000042961Y0003753501D01*
X0000043205Y0003754016D01*
X0000043498Y0003754505D01*
X0000043837Y0003754963D01*
X0000044220Y0003755385D01*
X0000044642Y0003755768D01*
X0000045100Y0003756107D01*
X0000045589Y0003756400D01*
X0000046104Y0003756644D01*
X0000046641Y0003756836D01*
X0000047193Y0003756975D01*
X0000047757Y0003757058D01*
X0000048326Y0003757086D01*
X0000061909Y0003757086D01*
X0000062478Y0003757058D01*
G37*
G36*
X0000199486Y0003829893D02*
G01*
X0000200050Y0003829809D01*
X0000200603Y0003829671D01*
X0000201139Y0003829479D01*
X0000201654Y0003829235D01*
X0000202143Y0003828942D01*
X0000202601Y0003828603D01*
X0000203023Y0003828220D01*
X0000203406Y0003827798D01*
X0000203745Y0003827340D01*
X0000204038Y0003826851D01*
X0000204282Y0003826336D01*
X0000204474Y0003825799D01*
X0000204612Y0003825247D01*
X0000204696Y0003824683D01*
X0000204724Y0003824114D01*
X0000204724Y0003812500D01*
X0000204696Y0003811930D01*
X0000204612Y0003811367D01*
X0000204474Y0003810814D01*
X0000204282Y0003810277D01*
X0000204038Y0003809762D01*
X0000203745Y0003809273D01*
X0000203406Y0003808816D01*
X0000203023Y0003808393D01*
X0000202601Y0003808011D01*
X0000202143Y0003807671D01*
X0000201654Y0003807378D01*
X0000201139Y0003807134D01*
X0000200603Y0003806942D01*
X0000200050Y0003806804D01*
X0000199486Y0003806720D01*
X0000198917Y0003806692D01*
X0000185334Y0003806692D01*
X0000184765Y0003806720D01*
X0000184201Y0003806804D01*
X0000183648Y0003806942D01*
X0000183112Y0003807134D01*
X0000182597Y0003807378D01*
X0000182108Y0003807671D01*
X0000181650Y0003808011D01*
X0000181228Y0003808393D01*
X0000180845Y0003808816D01*
X0000180506Y0003809273D01*
X0000180213Y0003809762D01*
X0000179969Y0003810277D01*
X0000179777Y0003810814D01*
X0000179639Y0003811367D01*
X0000179555Y0003811930D01*
X0000179527Y0003812500D01*
X0000179527Y0003824114D01*
X0000179555Y0003824683D01*
X0000179639Y0003825247D01*
X0000179777Y0003825799D01*
X0000179969Y0003826336D01*
X0000180213Y0003826851D01*
X0000180506Y0003827340D01*
X0000180845Y0003827798D01*
X0000181228Y0003828220D01*
X0000181650Y0003828603D01*
X0000182108Y0003828942D01*
X0000182597Y0003829235D01*
X0000183112Y0003829479D01*
X0000183648Y0003829671D01*
X0000184201Y0003829809D01*
X0000184765Y0003829893D01*
X0000185334Y0003829921D01*
X0000198917Y0003829921D01*
X0000199486Y0003829893D01*
G37*
G36*
X0000199486Y0003868082D02*
G01*
X0000200050Y0003867998D01*
X0000200603Y0003867860D01*
X0000201139Y0003867668D01*
X0000201654Y0003867424D01*
X0000202143Y0003867131D01*
X0000202601Y0003866792D01*
X0000203023Y0003866409D01*
X0000203406Y0003865987D01*
X0000203745Y0003865529D01*
X0000204038Y0003865040D01*
X0000204282Y0003864525D01*
X0000204474Y0003863988D01*
X0000204612Y0003863436D01*
X0000204696Y0003862872D01*
X0000204724Y0003862303D01*
X0000204724Y0003850688D01*
X0000204696Y0003850119D01*
X0000204612Y0003849556D01*
X0000204474Y0003849003D01*
X0000204282Y0003848466D01*
X0000204038Y0003847951D01*
X0000203745Y0003847462D01*
X0000203406Y0003847005D01*
X0000203023Y0003846582D01*
X0000202601Y0003846200D01*
X0000202143Y0003845860D01*
X0000201654Y0003845567D01*
X0000201139Y0003845323D01*
X0000200603Y0003845131D01*
X0000200050Y0003844993D01*
X0000199486Y0003844909D01*
X0000198917Y0003844881D01*
X0000185334Y0003844881D01*
X0000184765Y0003844909D01*
X0000184201Y0003844993D01*
X0000183648Y0003845131D01*
X0000183112Y0003845323D01*
X0000182597Y0003845567D01*
X0000182108Y0003845860D01*
X0000181650Y0003846200D01*
X0000181228Y0003846582D01*
X0000180845Y0003847005D01*
X0000180506Y0003847462D01*
X0000180213Y0003847951D01*
X0000179969Y0003848466D01*
X0000179777Y0003849003D01*
X0000179639Y0003849556D01*
X0000179555Y0003850119D01*
X0000179527Y0003850688D01*
X0000179527Y0003862303D01*
X0000179555Y0003862872D01*
X0000179639Y0003863436D01*
X0000179777Y0003863988D01*
X0000179969Y0003864525D01*
X0000180213Y0003865040D01*
X0000180506Y0003865529D01*
X0000180845Y0003865987D01*
X0000181228Y0003866409D01*
X0000181650Y0003866792D01*
X0000182108Y0003867131D01*
X0000182597Y0003867424D01*
X0000183112Y0003867668D01*
X0000183648Y0003867860D01*
X0000184201Y0003867998D01*
X0000184765Y0003868082D01*
X0000185334Y0003868110D01*
X0000198917Y0003868110D01*
X0000199486Y0003868082D01*
G37*
G36*
X0000240037Y0003829893D02*
G01*
X0000240601Y0003829809D01*
X0000241154Y0003829671D01*
X0000241690Y0003829479D01*
X0000242205Y0003829235D01*
X0000242694Y0003828942D01*
X0000243152Y0003828603D01*
X0000243574Y0003828220D01*
X0000243957Y0003827798D01*
X0000244296Y0003827340D01*
X0000244589Y0003826851D01*
X0000244833Y0003826336D01*
X0000245025Y0003825799D01*
X0000245164Y0003825247D01*
X0000245247Y0003824683D01*
X0000245275Y0003824114D01*
X0000245275Y0003812500D01*
X0000245247Y0003811930D01*
X0000245164Y0003811367D01*
X0000245025Y0003810814D01*
X0000244833Y0003810277D01*
X0000244589Y0003809762D01*
X0000244296Y0003809273D01*
X0000243957Y0003808816D01*
X0000243574Y0003808393D01*
X0000243152Y0003808011D01*
X0000242694Y0003807671D01*
X0000242205Y0003807378D01*
X0000241690Y0003807134D01*
X0000241154Y0003806942D01*
X0000240601Y0003806804D01*
X0000240037Y0003806720D01*
X0000239468Y0003806692D01*
X0000225885Y0003806692D01*
X0000225316Y0003806720D01*
X0000224752Y0003806804D01*
X0000224200Y0003806942D01*
X0000223663Y0003807134D01*
X0000223148Y0003807378D01*
X0000222659Y0003807671D01*
X0000222201Y0003808011D01*
X0000221779Y0003808393D01*
X0000221396Y0003808816D01*
X0000221057Y0003809273D01*
X0000220764Y0003809762D01*
X0000220520Y0003810277D01*
X0000220328Y0003810814D01*
X0000220190Y0003811367D01*
X0000220106Y0003811930D01*
X0000220078Y0003812500D01*
X0000220078Y0003824114D01*
X0000220106Y0003824683D01*
X0000220190Y0003825247D01*
X0000220328Y0003825799D01*
X0000220520Y0003826336D01*
X0000220764Y0003826851D01*
X0000221057Y0003827340D01*
X0000221396Y0003827798D01*
X0000221779Y0003828220D01*
X0000222201Y0003828603D01*
X0000222659Y0003828942D01*
X0000223148Y0003829235D01*
X0000223663Y0003829479D01*
X0000224200Y0003829671D01*
X0000224752Y0003829809D01*
X0000225316Y0003829893D01*
X0000225885Y0003829921D01*
X0000239468Y0003829921D01*
X0000240037Y0003829893D01*
G37*
G36*
X0000240037Y0003868082D02*
G01*
X0000240601Y0003867998D01*
X0000241154Y0003867860D01*
X0000241690Y0003867668D01*
X0000242205Y0003867424D01*
X0000242694Y0003867131D01*
X0000243152Y0003866792D01*
X0000243574Y0003866409D01*
X0000243957Y0003865987D01*
X0000244296Y0003865529D01*
X0000244589Y0003865040D01*
X0000244833Y0003864525D01*
X0000245025Y0003863988D01*
X0000245164Y0003863436D01*
X0000245247Y0003862872D01*
X0000245275Y0003862303D01*
X0000245275Y0003850688D01*
X0000245247Y0003850119D01*
X0000245164Y0003849556D01*
X0000245025Y0003849003D01*
X0000244833Y0003848466D01*
X0000244589Y0003847951D01*
X0000244296Y0003847462D01*
X0000243957Y0003847005D01*
X0000243574Y0003846582D01*
X0000243152Y0003846200D01*
X0000242694Y0003845860D01*
X0000242205Y0003845567D01*
X0000241690Y0003845323D01*
X0000241154Y0003845131D01*
X0000240601Y0003844993D01*
X0000240037Y0003844909D01*
X0000239468Y0003844881D01*
X0000225885Y0003844881D01*
X0000225316Y0003844909D01*
X0000224752Y0003844993D01*
X0000224200Y0003845131D01*
X0000223663Y0003845323D01*
X0000223148Y0003845567D01*
X0000222659Y0003845860D01*
X0000222201Y0003846200D01*
X0000221779Y0003846582D01*
X0000221396Y0003847005D01*
X0000221057Y0003847462D01*
X0000220764Y0003847951D01*
X0000220520Y0003848466D01*
X0000220328Y0003849003D01*
X0000220190Y0003849556D01*
X0000220106Y0003850119D01*
X0000220078Y0003850688D01*
X0000220078Y0003862303D01*
X0000220106Y0003862872D01*
X0000220190Y0003863436D01*
X0000220328Y0003863988D01*
X0000220520Y0003864525D01*
X0000220764Y0003865040D01*
X0000221057Y0003865529D01*
X0000221396Y0003865987D01*
X0000221779Y0003866409D01*
X0000222201Y0003866792D01*
X0000222659Y0003867131D01*
X0000223148Y0003867424D01*
X0000223663Y0003867668D01*
X0000224200Y0003867860D01*
X0000224752Y0003867998D01*
X0000225316Y0003868082D01*
X0000225885Y0003868110D01*
X0000239468Y0003868110D01*
X0000240037Y0003868082D01*
G37*
D11*
X0000157480Y0003761811D03*
X0000157480Y0003781496D03*
X0000177165Y0003781496D03*
X0000137795Y0003781496D03*
X0000137795Y0003761811D03*
X0000177165Y0003761811D03*
X0000177165Y0003742125D03*
X0000157480Y0003742125D03*
X0000137795Y0003742125D03*
G04 next file*
G04 #@! TF.GenerationSoftware,KiCad,Pcbnew,(5.1.5)-3*
G04 #@! TF.CreationDate,2021-04-29T13:46:15+02:00*
G04 #@! TF.ProjectId,Hivetracker,48697665-7472-4616-936b-65722e6b6963,rev?*
G04 #@! TF.SameCoordinates,PX2562500PY28a0640*
G04 #@! TF.FileFunction,Paste,Bot*
G04 #@! TF.FilePolarity,Positive*
G04 Gerber Fmt 4.6, Leading zero omitted, Abs format (unit mm)*
G04 Created by KiCad (PCBNEW (5.1.5)-3) date 2021-04-29 13:46:15*
G04 APERTURE LIST*
G04 APERTURE END LIST*
D22*
G36*
X0000456179Y0003718869D02*
G01*
X0000456743Y0003718786D01*
X0000457295Y0003718647D01*
X0000457832Y0003718455D01*
X0000458347Y0003718211D01*
X0000458836Y0003717918D01*
X0000459294Y0003717579D01*
X0000459716Y0003717196D01*
X0000460099Y0003716774D01*
X0000460438Y0003716316D01*
X0000460731Y0003715827D01*
X0000460975Y0003715312D01*
X0000461167Y0003714776D01*
X0000461305Y0003714223D01*
X0000461389Y0003713659D01*
X0000461417Y0003713090D01*
X0000461417Y0003701476D01*
X0000461389Y0003700907D01*
X0000461305Y0003700343D01*
X0000461167Y0003699790D01*
X0000460975Y0003699254D01*
X0000460731Y0003698738D01*
X0000460438Y0003698250D01*
X0000460099Y0003697792D01*
X0000459716Y0003697370D01*
X0000459294Y0003696987D01*
X0000458836Y0003696647D01*
X0000458347Y0003696355D01*
X0000457832Y0003696111D01*
X0000457295Y0003695919D01*
X0000456743Y0003695780D01*
X0000456179Y0003695697D01*
X0000455610Y0003695669D01*
X0000442027Y0003695669D01*
X0000441458Y0003695697D01*
X0000440894Y0003695780D01*
X0000440341Y0003695919D01*
X0000439805Y0003696111D01*
X0000439290Y0003696355D01*
X0000438801Y0003696647D01*
X0000438343Y0003696987D01*
X0000437921Y0003697370D01*
X0000437538Y0003697792D01*
X0000437199Y0003698250D01*
X0000436906Y0003698738D01*
X0000436662Y0003699254D01*
X0000436470Y0003699790D01*
X0000436332Y0003700343D01*
X0000436248Y0003700907D01*
X0000436220Y0003701476D01*
X0000436220Y0003713090D01*
X0000436248Y0003713659D01*
X0000436332Y0003714223D01*
X0000436470Y0003714776D01*
X0000436662Y0003715312D01*
X0000436906Y0003715827D01*
X0000437199Y0003716316D01*
X0000437538Y0003716774D01*
X0000437921Y0003717196D01*
X0000438343Y0003717579D01*
X0000438801Y0003717918D01*
X0000439290Y0003718211D01*
X0000439805Y0003718455D01*
X0000440341Y0003718647D01*
X0000440894Y0003718786D01*
X0000441458Y0003718869D01*
X0000442027Y0003718897D01*
X0000455610Y0003718897D01*
X0000456179Y0003718869D01*
G37*
G36*
X0000456179Y0003757058D02*
G01*
X0000456743Y0003756975D01*
X0000457295Y0003756836D01*
X0000457832Y0003756644D01*
X0000458347Y0003756400D01*
X0000458836Y0003756107D01*
X0000459294Y0003755768D01*
X0000459716Y0003755385D01*
X0000460099Y0003754963D01*
X0000460438Y0003754505D01*
X0000460731Y0003754016D01*
X0000460975Y0003753501D01*
X0000461167Y0003752965D01*
X0000461305Y0003752412D01*
X0000461389Y0003751848D01*
X0000461417Y0003751279D01*
X0000461417Y0003739665D01*
X0000461389Y0003739096D01*
X0000461305Y0003738532D01*
X0000461167Y0003737979D01*
X0000460975Y0003737443D01*
X0000460731Y0003736927D01*
X0000460438Y0003736439D01*
X0000460099Y0003735981D01*
X0000459716Y0003735559D01*
X0000459294Y0003735176D01*
X0000458836Y0003734836D01*
X0000458347Y0003734543D01*
X0000457832Y0003734300D01*
X0000457295Y0003734108D01*
X0000456743Y0003733969D01*
X0000456179Y0003733886D01*
X0000455610Y0003733858D01*
X0000442027Y0003733858D01*
X0000441458Y0003733886D01*
X0000440894Y0003733969D01*
X0000440341Y0003734108D01*
X0000439805Y0003734300D01*
X0000439290Y0003734543D01*
X0000438801Y0003734836D01*
X0000438343Y0003735176D01*
X0000437921Y0003735559D01*
X0000437538Y0003735981D01*
X0000437199Y0003736439D01*
X0000436906Y0003736927D01*
X0000436662Y0003737443D01*
X0000436470Y0003737979D01*
X0000436332Y0003738532D01*
X0000436248Y0003739096D01*
X0000436220Y0003739665D01*
X0000436220Y0003751279D01*
X0000436248Y0003751848D01*
X0000436332Y0003752412D01*
X0000436470Y0003752965D01*
X0000436662Y0003753501D01*
X0000436906Y0003754016D01*
X0000437199Y0003754505D01*
X0000437538Y0003754963D01*
X0000437921Y0003755385D01*
X0000438343Y0003755768D01*
X0000438801Y0003756107D01*
X0000439290Y0003756400D01*
X0000439805Y0003756644D01*
X0000440341Y0003756836D01*
X0000440894Y0003756975D01*
X0000441458Y0003757058D01*
X0000442027Y0003757086D01*
X0000455610Y0003757086D01*
X0000456179Y0003757058D01*
G37*
G36*
X0000593187Y0003829893D02*
G01*
X0000593750Y0003829809D01*
X0000594303Y0003829671D01*
X0000594840Y0003829479D01*
X0000595355Y0003829235D01*
X0000595844Y0003828942D01*
X0000596302Y0003828603D01*
X0000596724Y0003828220D01*
X0000597107Y0003827798D01*
X0000597446Y0003827340D01*
X0000597739Y0003826851D01*
X0000597983Y0003826336D01*
X0000598175Y0003825799D01*
X0000598313Y0003825247D01*
X0000598397Y0003824683D01*
X0000598425Y0003824114D01*
X0000598425Y0003812500D01*
X0000598397Y0003811930D01*
X0000598313Y0003811367D01*
X0000598175Y0003810814D01*
X0000597983Y0003810277D01*
X0000597739Y0003809762D01*
X0000597446Y0003809273D01*
X0000597107Y0003808816D01*
X0000596724Y0003808393D01*
X0000596302Y0003808011D01*
X0000595844Y0003807671D01*
X0000595355Y0003807378D01*
X0000594840Y0003807134D01*
X0000594303Y0003806942D01*
X0000593750Y0003806804D01*
X0000593187Y0003806720D01*
X0000592618Y0003806692D01*
X0000579035Y0003806692D01*
X0000578466Y0003806720D01*
X0000577902Y0003806804D01*
X0000577349Y0003806942D01*
X0000576813Y0003807134D01*
X0000576297Y0003807378D01*
X0000575809Y0003807671D01*
X0000575351Y0003808011D01*
X0000574929Y0003808393D01*
X0000574546Y0003808816D01*
X0000574207Y0003809273D01*
X0000573914Y0003809762D01*
X0000573670Y0003810277D01*
X0000573478Y0003810814D01*
X0000573339Y0003811367D01*
X0000573256Y0003811930D01*
X0000573228Y0003812500D01*
X0000573228Y0003824114D01*
X0000573256Y0003824683D01*
X0000573339Y0003825247D01*
X0000573478Y0003825799D01*
X0000573670Y0003826336D01*
X0000573914Y0003826851D01*
X0000574207Y0003827340D01*
X0000574546Y0003827798D01*
X0000574929Y0003828220D01*
X0000575351Y0003828603D01*
X0000575809Y0003828942D01*
X0000576297Y0003829235D01*
X0000576813Y0003829479D01*
X0000577349Y0003829671D01*
X0000577902Y0003829809D01*
X0000578466Y0003829893D01*
X0000579035Y0003829921D01*
X0000592618Y0003829921D01*
X0000593187Y0003829893D01*
G37*
G36*
X0000593187Y0003868082D02*
G01*
X0000593750Y0003867998D01*
X0000594303Y0003867860D01*
X0000594840Y0003867668D01*
X0000595355Y0003867424D01*
X0000595844Y0003867131D01*
X0000596302Y0003866792D01*
X0000596724Y0003866409D01*
X0000597107Y0003865987D01*
X0000597446Y0003865529D01*
X0000597739Y0003865040D01*
X0000597983Y0003864525D01*
X0000598175Y0003863988D01*
X0000598313Y0003863436D01*
X0000598397Y0003862872D01*
X0000598425Y0003862303D01*
X0000598425Y0003850688D01*
X0000598397Y0003850119D01*
X0000598313Y0003849556D01*
X0000598175Y0003849003D01*
X0000597983Y0003848466D01*
X0000597739Y0003847951D01*
X0000597446Y0003847462D01*
X0000597107Y0003847005D01*
X0000596724Y0003846582D01*
X0000596302Y0003846200D01*
X0000595844Y0003845860D01*
X0000595355Y0003845567D01*
X0000594840Y0003845323D01*
X0000594303Y0003845131D01*
X0000593750Y0003844993D01*
X0000593187Y0003844909D01*
X0000592618Y0003844881D01*
X0000579035Y0003844881D01*
X0000578466Y0003844909D01*
X0000577902Y0003844993D01*
X0000577349Y0003845131D01*
X0000576813Y0003845323D01*
X0000576297Y0003845567D01*
X0000575809Y0003845860D01*
X0000575351Y0003846200D01*
X0000574929Y0003846582D01*
X0000574546Y0003847005D01*
X0000574207Y0003847462D01*
X0000573914Y0003847951D01*
X0000573670Y0003848466D01*
X0000573478Y0003849003D01*
X0000573339Y0003849556D01*
X0000573256Y0003850119D01*
X0000573228Y0003850688D01*
X0000573228Y0003862303D01*
X0000573256Y0003862872D01*
X0000573339Y0003863436D01*
X0000573478Y0003863988D01*
X0000573670Y0003864525D01*
X0000573914Y0003865040D01*
X0000574207Y0003865529D01*
X0000574546Y0003865987D01*
X0000574929Y0003866409D01*
X0000575351Y0003866792D01*
X0000575809Y0003867131D01*
X0000576297Y0003867424D01*
X0000576813Y0003867668D01*
X0000577349Y0003867860D01*
X0000577902Y0003867998D01*
X0000578466Y0003868082D01*
X0000579035Y0003868110D01*
X0000592618Y0003868110D01*
X0000593187Y0003868082D01*
G37*
G36*
X0000633738Y0003829893D02*
G01*
X0000634302Y0003829809D01*
X0000634854Y0003829671D01*
X0000635391Y0003829479D01*
X0000635906Y0003829235D01*
X0000636395Y0003828942D01*
X0000636853Y0003828603D01*
X0000637275Y0003828220D01*
X0000637658Y0003827798D01*
X0000637997Y0003827340D01*
X0000638290Y0003826851D01*
X0000638534Y0003826336D01*
X0000638726Y0003825799D01*
X0000638864Y0003825247D01*
X0000638948Y0003824683D01*
X0000638976Y0003824114D01*
X0000638976Y0003812500D01*
X0000638948Y0003811930D01*
X0000638864Y0003811367D01*
X0000638726Y0003810814D01*
X0000638534Y0003810277D01*
X0000638290Y0003809762D01*
X0000637997Y0003809273D01*
X0000637658Y0003808816D01*
X0000637275Y0003808393D01*
X0000636853Y0003808011D01*
X0000636395Y0003807671D01*
X0000635906Y0003807378D01*
X0000635391Y0003807134D01*
X0000634854Y0003806942D01*
X0000634302Y0003806804D01*
X0000633738Y0003806720D01*
X0000633169Y0003806692D01*
X0000619586Y0003806692D01*
X0000619017Y0003806720D01*
X0000618453Y0003806804D01*
X0000617900Y0003806942D01*
X0000617364Y0003807134D01*
X0000616849Y0003807378D01*
X0000616360Y0003807671D01*
X0000615902Y0003808011D01*
X0000615480Y0003808393D01*
X0000615097Y0003808816D01*
X0000614758Y0003809273D01*
X0000614465Y0003809762D01*
X0000614221Y0003810277D01*
X0000614029Y0003810814D01*
X0000613891Y0003811367D01*
X0000613807Y0003811930D01*
X0000613779Y0003812500D01*
X0000613779Y0003824114D01*
X0000613807Y0003824683D01*
X0000613891Y0003825247D01*
X0000614029Y0003825799D01*
X0000614221Y0003826336D01*
X0000614465Y0003826851D01*
X0000614758Y0003827340D01*
X0000615097Y0003827798D01*
X0000615480Y0003828220D01*
X0000615902Y0003828603D01*
X0000616360Y0003828942D01*
X0000616849Y0003829235D01*
X0000617364Y0003829479D01*
X0000617900Y0003829671D01*
X0000618453Y0003829809D01*
X0000619017Y0003829893D01*
X0000619586Y0003829921D01*
X0000633169Y0003829921D01*
X0000633738Y0003829893D01*
G37*
G36*
X0000633738Y0003868082D02*
G01*
X0000634302Y0003867998D01*
X0000634854Y0003867860D01*
X0000635391Y0003867668D01*
X0000635906Y0003867424D01*
X0000636395Y0003867131D01*
X0000636853Y0003866792D01*
X0000637275Y0003866409D01*
X0000637658Y0003865987D01*
X0000637997Y0003865529D01*
X0000638290Y0003865040D01*
X0000638534Y0003864525D01*
X0000638726Y0003863988D01*
X0000638864Y0003863436D01*
X0000638948Y0003862872D01*
X0000638976Y0003862303D01*
X0000638976Y0003850688D01*
X0000638948Y0003850119D01*
X0000638864Y0003849556D01*
X0000638726Y0003849003D01*
X0000638534Y0003848466D01*
X0000638290Y0003847951D01*
X0000637997Y0003847462D01*
X0000637658Y0003847005D01*
X0000637275Y0003846582D01*
X0000636853Y0003846200D01*
X0000636395Y0003845860D01*
X0000635906Y0003845567D01*
X0000635391Y0003845323D01*
X0000634854Y0003845131D01*
X0000634302Y0003844993D01*
X0000633738Y0003844909D01*
X0000633169Y0003844881D01*
X0000619586Y0003844881D01*
X0000619017Y0003844909D01*
X0000618453Y0003844993D01*
X0000617900Y0003845131D01*
X0000617364Y0003845323D01*
X0000616849Y0003845567D01*
X0000616360Y0003845860D01*
X0000615902Y0003846200D01*
X0000615480Y0003846582D01*
X0000615097Y0003847005D01*
X0000614758Y0003847462D01*
X0000614465Y0003847951D01*
X0000614221Y0003848466D01*
X0000614029Y0003849003D01*
X0000613891Y0003849556D01*
X0000613807Y0003850119D01*
X0000613779Y0003850688D01*
X0000613779Y0003862303D01*
X0000613807Y0003862872D01*
X0000613891Y0003863436D01*
X0000614029Y0003863988D01*
X0000614221Y0003864525D01*
X0000614465Y0003865040D01*
X0000614758Y0003865529D01*
X0000615097Y0003865987D01*
X0000615480Y0003866409D01*
X0000615902Y0003866792D01*
X0000616360Y0003867131D01*
X0000616849Y0003867424D01*
X0000617364Y0003867668D01*
X0000617900Y0003867860D01*
X0000618453Y0003867998D01*
X0000619017Y0003868082D01*
X0000619586Y0003868110D01*
X0000633169Y0003868110D01*
X0000633738Y0003868082D01*
G37*
D23*
X0000551181Y0003761811D03*
X0000551181Y0003781496D03*
X0000570866Y0003781496D03*
X0000531496Y0003781496D03*
X0000531496Y0003761811D03*
X0000570866Y0003761811D03*
X0000570866Y0003742125D03*
X0000551181Y0003742125D03*
X0000531496Y0003742125D03*
G04 next file*
G04 #@! TF.GenerationSoftware,KiCad,Pcbnew,(5.1.5)-3*
G04 #@! TF.CreationDate,2021-04-29T13:46:15+02:00*
G04 #@! TF.ProjectId,Hivetracker,48697665-7472-4616-936b-65722e6b6963,rev?*
G04 #@! TF.SameCoordinates,PX2562500PY28a0640*
G04 #@! TF.FileFunction,Paste,Bot*
G04 #@! TF.FilePolarity,Positive*
G04 Gerber Fmt 4.6, Leading zero omitted, Abs format (unit mm)*
G04 Created by KiCad (PCBNEW (5.1.5)-3) date 2021-04-29 13:46:15*
G04 APERTURE LIST*
G04 APERTURE END LIST*
D24*
G36*
X0000849880Y0003718869D02*
G01*
X0000850443Y0003718786D01*
X0000850996Y0003718647D01*
X0000851533Y0003718455D01*
X0000852048Y0003718211D01*
X0000852537Y0003717918D01*
X0000852995Y0003717579D01*
X0000853417Y0003717196D01*
X0000853799Y0003716774D01*
X0000854139Y0003716316D01*
X0000854432Y0003715827D01*
X0000854676Y0003715312D01*
X0000854868Y0003714776D01*
X0000855006Y0003714223D01*
X0000855090Y0003713659D01*
X0000855118Y0003713090D01*
X0000855118Y0003701476D01*
X0000855090Y0003700907D01*
X0000855006Y0003700343D01*
X0000854868Y0003699790D01*
X0000854676Y0003699254D01*
X0000854432Y0003698738D01*
X0000854139Y0003698250D01*
X0000853799Y0003697792D01*
X0000853417Y0003697370D01*
X0000852995Y0003696987D01*
X0000852537Y0003696647D01*
X0000852048Y0003696355D01*
X0000851533Y0003696111D01*
X0000850996Y0003695919D01*
X0000850443Y0003695780D01*
X0000849880Y0003695697D01*
X0000849311Y0003695669D01*
X0000835728Y0003695669D01*
X0000835159Y0003695697D01*
X0000834595Y0003695780D01*
X0000834042Y0003695919D01*
X0000833506Y0003696111D01*
X0000832990Y0003696355D01*
X0000832502Y0003696647D01*
X0000832044Y0003696987D01*
X0000831622Y0003697370D01*
X0000831239Y0003697792D01*
X0000830899Y0003698250D01*
X0000830606Y0003698738D01*
X0000830363Y0003699254D01*
X0000830171Y0003699790D01*
X0000830032Y0003700343D01*
X0000829949Y0003700907D01*
X0000829921Y0003701476D01*
X0000829921Y0003713090D01*
X0000829949Y0003713659D01*
X0000830032Y0003714223D01*
X0000830171Y0003714776D01*
X0000830363Y0003715312D01*
X0000830606Y0003715827D01*
X0000830899Y0003716316D01*
X0000831239Y0003716774D01*
X0000831622Y0003717196D01*
X0000832044Y0003717579D01*
X0000832502Y0003717918D01*
X0000832990Y0003718211D01*
X0000833506Y0003718455D01*
X0000834042Y0003718647D01*
X0000834595Y0003718786D01*
X0000835159Y0003718869D01*
X0000835728Y0003718897D01*
X0000849311Y0003718897D01*
X0000849880Y0003718869D01*
G37*
G36*
X0000849880Y0003757058D02*
G01*
X0000850443Y0003756975D01*
X0000850996Y0003756836D01*
X0000851533Y0003756644D01*
X0000852048Y0003756400D01*
X0000852537Y0003756107D01*
X0000852995Y0003755768D01*
X0000853417Y0003755385D01*
X0000853799Y0003754963D01*
X0000854139Y0003754505D01*
X0000854432Y0003754016D01*
X0000854676Y0003753501D01*
X0000854868Y0003752965D01*
X0000855006Y0003752412D01*
X0000855090Y0003751848D01*
X0000855118Y0003751279D01*
X0000855118Y0003739665D01*
X0000855090Y0003739096D01*
X0000855006Y0003738532D01*
X0000854868Y0003737979D01*
X0000854676Y0003737443D01*
X0000854432Y0003736927D01*
X0000854139Y0003736439D01*
X0000853799Y0003735981D01*
X0000853417Y0003735559D01*
X0000852995Y0003735176D01*
X0000852537Y0003734836D01*
X0000852048Y0003734543D01*
X0000851533Y0003734300D01*
X0000850996Y0003734108D01*
X0000850443Y0003733969D01*
X0000849880Y0003733886D01*
X0000849311Y0003733858D01*
X0000835728Y0003733858D01*
X0000835159Y0003733886D01*
X0000834595Y0003733969D01*
X0000834042Y0003734108D01*
X0000833506Y0003734300D01*
X0000832990Y0003734543D01*
X0000832502Y0003734836D01*
X0000832044Y0003735176D01*
X0000831622Y0003735559D01*
X0000831239Y0003735981D01*
X0000830899Y0003736439D01*
X0000830606Y0003736927D01*
X0000830363Y0003737443D01*
X0000830171Y0003737979D01*
X0000830032Y0003738532D01*
X0000829949Y0003739096D01*
X0000829921Y0003739665D01*
X0000829921Y0003751279D01*
X0000829949Y0003751848D01*
X0000830032Y0003752412D01*
X0000830171Y0003752965D01*
X0000830363Y0003753501D01*
X0000830606Y0003754016D01*
X0000830899Y0003754505D01*
X0000831239Y0003754963D01*
X0000831622Y0003755385D01*
X0000832044Y0003755768D01*
X0000832502Y0003756107D01*
X0000832990Y0003756400D01*
X0000833506Y0003756644D01*
X0000834042Y0003756836D01*
X0000834595Y0003756975D01*
X0000835159Y0003757058D01*
X0000835728Y0003757086D01*
X0000849311Y0003757086D01*
X0000849880Y0003757058D01*
G37*
G36*
X0000986888Y0003829893D02*
G01*
X0000987451Y0003829809D01*
X0000988004Y0003829671D01*
X0000988541Y0003829479D01*
X0000989056Y0003829235D01*
X0000989545Y0003828942D01*
X0000990002Y0003828603D01*
X0000990425Y0003828220D01*
X0000990807Y0003827798D01*
X0000991147Y0003827340D01*
X0000991440Y0003826851D01*
X0000991683Y0003826336D01*
X0000991875Y0003825799D01*
X0000992014Y0003825247D01*
X0000992098Y0003824683D01*
X0000992125Y0003824114D01*
X0000992125Y0003812500D01*
X0000992098Y0003811930D01*
X0000992014Y0003811367D01*
X0000991875Y0003810814D01*
X0000991683Y0003810277D01*
X0000991440Y0003809762D01*
X0000991147Y0003809273D01*
X0000990807Y0003808816D01*
X0000990425Y0003808393D01*
X0000990002Y0003808011D01*
X0000989545Y0003807671D01*
X0000989056Y0003807378D01*
X0000988541Y0003807134D01*
X0000988004Y0003806942D01*
X0000987451Y0003806804D01*
X0000986888Y0003806720D01*
X0000986318Y0003806692D01*
X0000972736Y0003806692D01*
X0000972167Y0003806720D01*
X0000971603Y0003806804D01*
X0000971050Y0003806942D01*
X0000970513Y0003807134D01*
X0000969998Y0003807378D01*
X0000969509Y0003807671D01*
X0000969052Y0003808011D01*
X0000968630Y0003808393D01*
X0000968247Y0003808816D01*
X0000967907Y0003809273D01*
X0000967614Y0003809762D01*
X0000967371Y0003810277D01*
X0000967179Y0003810814D01*
X0000967040Y0003811367D01*
X0000966957Y0003811930D01*
X0000966929Y0003812500D01*
X0000966929Y0003824114D01*
X0000966957Y0003824683D01*
X0000967040Y0003825247D01*
X0000967179Y0003825799D01*
X0000967371Y0003826336D01*
X0000967614Y0003826851D01*
X0000967907Y0003827340D01*
X0000968247Y0003827798D01*
X0000968630Y0003828220D01*
X0000969052Y0003828603D01*
X0000969509Y0003828942D01*
X0000969998Y0003829235D01*
X0000970513Y0003829479D01*
X0000971050Y0003829671D01*
X0000971603Y0003829809D01*
X0000972167Y0003829893D01*
X0000972736Y0003829921D01*
X0000986318Y0003829921D01*
X0000986888Y0003829893D01*
G37*
G36*
X0000986888Y0003868082D02*
G01*
X0000987451Y0003867998D01*
X0000988004Y0003867860D01*
X0000988541Y0003867668D01*
X0000989056Y0003867424D01*
X0000989545Y0003867131D01*
X0000990002Y0003866792D01*
X0000990425Y0003866409D01*
X0000990807Y0003865987D01*
X0000991147Y0003865529D01*
X0000991440Y0003865040D01*
X0000991683Y0003864525D01*
X0000991875Y0003863988D01*
X0000992014Y0003863436D01*
X0000992098Y0003862872D01*
X0000992125Y0003862303D01*
X0000992125Y0003850688D01*
X0000992098Y0003850119D01*
X0000992014Y0003849556D01*
X0000991875Y0003849003D01*
X0000991683Y0003848466D01*
X0000991440Y0003847951D01*
X0000991147Y0003847462D01*
X0000990807Y0003847005D01*
X0000990425Y0003846582D01*
X0000990002Y0003846200D01*
X0000989545Y0003845860D01*
X0000989056Y0003845567D01*
X0000988541Y0003845323D01*
X0000988004Y0003845131D01*
X0000987451Y0003844993D01*
X0000986888Y0003844909D01*
X0000986318Y0003844881D01*
X0000972736Y0003844881D01*
X0000972167Y0003844909D01*
X0000971603Y0003844993D01*
X0000971050Y0003845131D01*
X0000970513Y0003845323D01*
X0000969998Y0003845567D01*
X0000969509Y0003845860D01*
X0000969052Y0003846200D01*
X0000968630Y0003846582D01*
X0000968247Y0003847005D01*
X0000967907Y0003847462D01*
X0000967614Y0003847951D01*
X0000967371Y0003848466D01*
X0000967179Y0003849003D01*
X0000967040Y0003849556D01*
X0000966957Y0003850119D01*
X0000966929Y0003850688D01*
X0000966929Y0003862303D01*
X0000966957Y0003862872D01*
X0000967040Y0003863436D01*
X0000967179Y0003863988D01*
X0000967371Y0003864525D01*
X0000967614Y0003865040D01*
X0000967907Y0003865529D01*
X0000968247Y0003865987D01*
X0000968630Y0003866409D01*
X0000969052Y0003866792D01*
X0000969509Y0003867131D01*
X0000969998Y0003867424D01*
X0000970513Y0003867668D01*
X0000971050Y0003867860D01*
X0000971603Y0003867998D01*
X0000972167Y0003868082D01*
X0000972736Y0003868110D01*
X0000986318Y0003868110D01*
X0000986888Y0003868082D01*
G37*
G36*
X0001027439Y0003829893D02*
G01*
X0001028002Y0003829809D01*
X0001028555Y0003829671D01*
X0001029092Y0003829479D01*
X0001029607Y0003829235D01*
X0001030096Y0003828942D01*
X0001030554Y0003828603D01*
X0001030976Y0003828220D01*
X0001031359Y0003827798D01*
X0001031698Y0003827340D01*
X0001031991Y0003826851D01*
X0001032235Y0003826336D01*
X0001032427Y0003825799D01*
X0001032565Y0003825247D01*
X0001032649Y0003824683D01*
X0001032677Y0003824114D01*
X0001032677Y0003812500D01*
X0001032649Y0003811930D01*
X0001032565Y0003811367D01*
X0001032427Y0003810814D01*
X0001032235Y0003810277D01*
X0001031991Y0003809762D01*
X0001031698Y0003809273D01*
X0001031359Y0003808816D01*
X0001030976Y0003808393D01*
X0001030554Y0003808011D01*
X0001030096Y0003807671D01*
X0001029607Y0003807378D01*
X0001029092Y0003807134D01*
X0001028555Y0003806942D01*
X0001028002Y0003806804D01*
X0001027439Y0003806720D01*
X0001026870Y0003806692D01*
X0001013287Y0003806692D01*
X0001012718Y0003806720D01*
X0001012154Y0003806804D01*
X0001011601Y0003806942D01*
X0001011065Y0003807134D01*
X0001010549Y0003807378D01*
X0001010061Y0003807671D01*
X0001009603Y0003808011D01*
X0001009181Y0003808393D01*
X0001008798Y0003808816D01*
X0001008458Y0003809273D01*
X0001008165Y0003809762D01*
X0001007922Y0003810277D01*
X0001007730Y0003810814D01*
X0001007591Y0003811367D01*
X0001007508Y0003811930D01*
X0001007480Y0003812500D01*
X0001007480Y0003824114D01*
X0001007508Y0003824683D01*
X0001007591Y0003825247D01*
X0001007730Y0003825799D01*
X0001007922Y0003826336D01*
X0001008165Y0003826851D01*
X0001008458Y0003827340D01*
X0001008798Y0003827798D01*
X0001009181Y0003828220D01*
X0001009603Y0003828603D01*
X0001010061Y0003828942D01*
X0001010549Y0003829235D01*
X0001011065Y0003829479D01*
X0001011601Y0003829671D01*
X0001012154Y0003829809D01*
X0001012718Y0003829893D01*
X0001013287Y0003829921D01*
X0001026870Y0003829921D01*
X0001027439Y0003829893D01*
G37*
G36*
X0001027439Y0003868082D02*
G01*
X0001028002Y0003867998D01*
X0001028555Y0003867860D01*
X0001029092Y0003867668D01*
X0001029607Y0003867424D01*
X0001030096Y0003867131D01*
X0001030554Y0003866792D01*
X0001030976Y0003866409D01*
X0001031359Y0003865987D01*
X0001031698Y0003865529D01*
X0001031991Y0003865040D01*
X0001032235Y0003864525D01*
X0001032427Y0003863988D01*
X0001032565Y0003863436D01*
X0001032649Y0003862872D01*
X0001032677Y0003862303D01*
X0001032677Y0003850688D01*
X0001032649Y0003850119D01*
X0001032565Y0003849556D01*
X0001032427Y0003849003D01*
X0001032235Y0003848466D01*
X0001031991Y0003847951D01*
X0001031698Y0003847462D01*
X0001031359Y0003847005D01*
X0001030976Y0003846582D01*
X0001030554Y0003846200D01*
X0001030096Y0003845860D01*
X0001029607Y0003845567D01*
X0001029092Y0003845323D01*
X0001028555Y0003845131D01*
X0001028002Y0003844993D01*
X0001027439Y0003844909D01*
X0001026870Y0003844881D01*
X0001013287Y0003844881D01*
X0001012718Y0003844909D01*
X0001012154Y0003844993D01*
X0001011601Y0003845131D01*
X0001011065Y0003845323D01*
X0001010549Y0003845567D01*
X0001010061Y0003845860D01*
X0001009603Y0003846200D01*
X0001009181Y0003846582D01*
X0001008798Y0003847005D01*
X0001008458Y0003847462D01*
X0001008165Y0003847951D01*
X0001007922Y0003848466D01*
X0001007730Y0003849003D01*
X0001007591Y0003849556D01*
X0001007508Y0003850119D01*
X0001007480Y0003850688D01*
X0001007480Y0003862303D01*
X0001007508Y0003862872D01*
X0001007591Y0003863436D01*
X0001007730Y0003863988D01*
X0001007922Y0003864525D01*
X0001008165Y0003865040D01*
X0001008458Y0003865529D01*
X0001008798Y0003865987D01*
X0001009181Y0003866409D01*
X0001009603Y0003866792D01*
X0001010061Y0003867131D01*
X0001010549Y0003867424D01*
X0001011065Y0003867668D01*
X0001011601Y0003867860D01*
X0001012154Y0003867998D01*
X0001012718Y0003868082D01*
X0001013287Y0003868110D01*
X0001026870Y0003868110D01*
X0001027439Y0003868082D01*
G37*
D25*
X0000944881Y0003761811D03*
X0000944881Y0003781496D03*
X0000964566Y0003781496D03*
X0000925196Y0003781496D03*
X0000925196Y0003761811D03*
X0000964566Y0003761811D03*
X0000964566Y0003742125D03*
X0000944881Y0003742125D03*
X0000925196Y0003742125D03*
G04 next file*
G04 #@! TF.GenerationSoftware,KiCad,Pcbnew,(5.1.5)-3*
G04 #@! TF.CreationDate,2021-04-29T13:46:15+02:00*
G04 #@! TF.ProjectId,Hivetracker,48697665-7472-4616-936b-65722e6b6963,rev?*
G04 #@! TF.SameCoordinates,PX2562500PY28a0640*
G04 #@! TF.FileFunction,Paste,Bot*
G04 #@! TF.FilePolarity,Positive*
G04 Gerber Fmt 4.6, Leading zero omitted, Abs format (unit mm)*
G04 Created by KiCad (PCBNEW (5.1.5)-3) date 2021-04-29 13:46:15*
G04 APERTURE LIST*
G04 APERTURE END LIST*
D26*
G36*
X0000062478Y0003325168D02*
G01*
X0000063042Y0003325085D01*
X0000063595Y0003324946D01*
X0000064131Y0003324754D01*
X0000064646Y0003324511D01*
X0000065135Y0003324218D01*
X0000065593Y0003323878D01*
X0000066015Y0003323495D01*
X0000066398Y0003323073D01*
X0000066737Y0003322616D01*
X0000067030Y0003322127D01*
X0000067274Y0003321612D01*
X0000067466Y0003321075D01*
X0000067604Y0003320522D01*
X0000067688Y0003319958D01*
X0000067716Y0003319389D01*
X0000067716Y0003307775D01*
X0000067688Y0003307206D01*
X0000067604Y0003306642D01*
X0000067466Y0003306089D01*
X0000067274Y0003305553D01*
X0000067030Y0003305038D01*
X0000066737Y0003304549D01*
X0000066398Y0003304091D01*
X0000066015Y0003303669D01*
X0000065593Y0003303286D01*
X0000065135Y0003302947D01*
X0000064646Y0003302654D01*
X0000064131Y0003302410D01*
X0000063595Y0003302218D01*
X0000063042Y0003302080D01*
X0000062478Y0003301996D01*
X0000061909Y0003301968D01*
X0000048326Y0003301968D01*
X0000047757Y0003301996D01*
X0000047193Y0003302080D01*
X0000046641Y0003302218D01*
X0000046104Y0003302410D01*
X0000045589Y0003302654D01*
X0000045100Y0003302947D01*
X0000044642Y0003303286D01*
X0000044220Y0003303669D01*
X0000043837Y0003304091D01*
X0000043498Y0003304549D01*
X0000043205Y0003305038D01*
X0000042961Y0003305553D01*
X0000042769Y0003306089D01*
X0000042631Y0003306642D01*
X0000042547Y0003307206D01*
X0000042519Y0003307775D01*
X0000042519Y0003319389D01*
X0000042547Y0003319958D01*
X0000042631Y0003320522D01*
X0000042769Y0003321075D01*
X0000042961Y0003321612D01*
X0000043205Y0003322127D01*
X0000043498Y0003322616D01*
X0000043837Y0003323073D01*
X0000044220Y0003323495D01*
X0000044642Y0003323878D01*
X0000045100Y0003324218D01*
X0000045589Y0003324511D01*
X0000046104Y0003324754D01*
X0000046641Y0003324946D01*
X0000047193Y0003325085D01*
X0000047757Y0003325168D01*
X0000048326Y0003325196D01*
X0000061909Y0003325196D01*
X0000062478Y0003325168D01*
G37*
G36*
X0000062478Y0003363357D02*
G01*
X0000063042Y0003363274D01*
X0000063595Y0003363135D01*
X0000064131Y0003362943D01*
X0000064646Y0003362700D01*
X0000065135Y0003362407D01*
X0000065593Y0003362067D01*
X0000066015Y0003361684D01*
X0000066398Y0003361262D01*
X0000066737Y0003360805D01*
X0000067030Y0003360316D01*
X0000067274Y0003359801D01*
X0000067466Y0003359264D01*
X0000067604Y0003358711D01*
X0000067688Y0003358147D01*
X0000067716Y0003357578D01*
X0000067716Y0003345964D01*
X0000067688Y0003345395D01*
X0000067604Y0003344831D01*
X0000067466Y0003344278D01*
X0000067274Y0003343742D01*
X0000067030Y0003343227D01*
X0000066737Y0003342738D01*
X0000066398Y0003342280D01*
X0000066015Y0003341858D01*
X0000065593Y0003341475D01*
X0000065135Y0003341136D01*
X0000064646Y0003340843D01*
X0000064131Y0003340599D01*
X0000063595Y0003340407D01*
X0000063042Y0003340269D01*
X0000062478Y0003340185D01*
X0000061909Y0003340157D01*
X0000048326Y0003340157D01*
X0000047757Y0003340185D01*
X0000047193Y0003340269D01*
X0000046641Y0003340407D01*
X0000046104Y0003340599D01*
X0000045589Y0003340843D01*
X0000045100Y0003341136D01*
X0000044642Y0003341475D01*
X0000044220Y0003341858D01*
X0000043837Y0003342280D01*
X0000043498Y0003342738D01*
X0000043205Y0003343227D01*
X0000042961Y0003343742D01*
X0000042769Y0003344278D01*
X0000042631Y0003344831D01*
X0000042547Y0003345395D01*
X0000042519Y0003345964D01*
X0000042519Y0003357578D01*
X0000042547Y0003358147D01*
X0000042631Y0003358711D01*
X0000042769Y0003359264D01*
X0000042961Y0003359801D01*
X0000043205Y0003360316D01*
X0000043498Y0003360805D01*
X0000043837Y0003361262D01*
X0000044220Y0003361684D01*
X0000044642Y0003362067D01*
X0000045100Y0003362407D01*
X0000045589Y0003362700D01*
X0000046104Y0003362943D01*
X0000046641Y0003363135D01*
X0000047193Y0003363274D01*
X0000047757Y0003363357D01*
X0000048326Y0003363385D01*
X0000061909Y0003363385D01*
X0000062478Y0003363357D01*
G37*
G36*
X0000199486Y0003436192D02*
G01*
X0000200050Y0003436108D01*
X0000200603Y0003435970D01*
X0000201139Y0003435778D01*
X0000201654Y0003435534D01*
X0000202143Y0003435241D01*
X0000202601Y0003434902D01*
X0000203023Y0003434519D01*
X0000203406Y0003434097D01*
X0000203745Y0003433639D01*
X0000204038Y0003433150D01*
X0000204282Y0003432635D01*
X0000204474Y0003432099D01*
X0000204612Y0003431546D01*
X0000204696Y0003430982D01*
X0000204724Y0003430413D01*
X0000204724Y0003418799D01*
X0000204696Y0003418230D01*
X0000204612Y0003417666D01*
X0000204474Y0003417113D01*
X0000204282Y0003416576D01*
X0000204038Y0003416061D01*
X0000203745Y0003415572D01*
X0000203406Y0003415115D01*
X0000203023Y0003414692D01*
X0000202601Y0003414310D01*
X0000202143Y0003413970D01*
X0000201654Y0003413677D01*
X0000201139Y0003413434D01*
X0000200603Y0003413242D01*
X0000200050Y0003413103D01*
X0000199486Y0003413020D01*
X0000198917Y0003412992D01*
X0000185334Y0003412992D01*
X0000184765Y0003413020D01*
X0000184201Y0003413103D01*
X0000183648Y0003413242D01*
X0000183112Y0003413434D01*
X0000182597Y0003413677D01*
X0000182108Y0003413970D01*
X0000181650Y0003414310D01*
X0000181228Y0003414692D01*
X0000180845Y0003415115D01*
X0000180506Y0003415572D01*
X0000180213Y0003416061D01*
X0000179969Y0003416576D01*
X0000179777Y0003417113D01*
X0000179639Y0003417666D01*
X0000179555Y0003418230D01*
X0000179527Y0003418799D01*
X0000179527Y0003430413D01*
X0000179555Y0003430982D01*
X0000179639Y0003431546D01*
X0000179777Y0003432099D01*
X0000179969Y0003432635D01*
X0000180213Y0003433150D01*
X0000180506Y0003433639D01*
X0000180845Y0003434097D01*
X0000181228Y0003434519D01*
X0000181650Y0003434902D01*
X0000182108Y0003435241D01*
X0000182597Y0003435534D01*
X0000183112Y0003435778D01*
X0000183648Y0003435970D01*
X0000184201Y0003436108D01*
X0000184765Y0003436192D01*
X0000185334Y0003436220D01*
X0000198917Y0003436220D01*
X0000199486Y0003436192D01*
G37*
G36*
X0000199486Y0003474381D02*
G01*
X0000200050Y0003474297D01*
X0000200603Y0003474159D01*
X0000201139Y0003473967D01*
X0000201654Y0003473723D01*
X0000202143Y0003473430D01*
X0000202601Y0003473091D01*
X0000203023Y0003472708D01*
X0000203406Y0003472286D01*
X0000203745Y0003471828D01*
X0000204038Y0003471339D01*
X0000204282Y0003470824D01*
X0000204474Y0003470288D01*
X0000204612Y0003469735D01*
X0000204696Y0003469171D01*
X0000204724Y0003468602D01*
X0000204724Y0003456988D01*
X0000204696Y0003456418D01*
X0000204612Y0003455855D01*
X0000204474Y0003455302D01*
X0000204282Y0003454765D01*
X0000204038Y0003454250D01*
X0000203745Y0003453761D01*
X0000203406Y0003453304D01*
X0000203023Y0003452881D01*
X0000202601Y0003452499D01*
X0000202143Y0003452159D01*
X0000201654Y0003451866D01*
X0000201139Y0003451623D01*
X0000200603Y0003451431D01*
X0000200050Y0003451292D01*
X0000199486Y0003451209D01*
X0000198917Y0003451181D01*
X0000185334Y0003451181D01*
X0000184765Y0003451209D01*
X0000184201Y0003451292D01*
X0000183648Y0003451431D01*
X0000183112Y0003451623D01*
X0000182597Y0003451866D01*
X0000182108Y0003452159D01*
X0000181650Y0003452499D01*
X0000181228Y0003452881D01*
X0000180845Y0003453304D01*
X0000180506Y0003453761D01*
X0000180213Y0003454250D01*
X0000179969Y0003454765D01*
X0000179777Y0003455302D01*
X0000179639Y0003455855D01*
X0000179555Y0003456418D01*
X0000179527Y0003456988D01*
X0000179527Y0003468602D01*
X0000179555Y0003469171D01*
X0000179639Y0003469735D01*
X0000179777Y0003470288D01*
X0000179969Y0003470824D01*
X0000180213Y0003471339D01*
X0000180506Y0003471828D01*
X0000180845Y0003472286D01*
X0000181228Y0003472708D01*
X0000181650Y0003473091D01*
X0000182108Y0003473430D01*
X0000182597Y0003473723D01*
X0000183112Y0003473967D01*
X0000183648Y0003474159D01*
X0000184201Y0003474297D01*
X0000184765Y0003474381D01*
X0000185334Y0003474409D01*
X0000198917Y0003474409D01*
X0000199486Y0003474381D01*
G37*
G36*
X0000240037Y0003436192D02*
G01*
X0000240601Y0003436108D01*
X0000241154Y0003435970D01*
X0000241690Y0003435778D01*
X0000242205Y0003435534D01*
X0000242694Y0003435241D01*
X0000243152Y0003434902D01*
X0000243574Y0003434519D01*
X0000243957Y0003434097D01*
X0000244296Y0003433639D01*
X0000244589Y0003433150D01*
X0000244833Y0003432635D01*
X0000245025Y0003432099D01*
X0000245164Y0003431546D01*
X0000245247Y0003430982D01*
X0000245275Y0003430413D01*
X0000245275Y0003418799D01*
X0000245247Y0003418230D01*
X0000245164Y0003417666D01*
X0000245025Y0003417113D01*
X0000244833Y0003416576D01*
X0000244589Y0003416061D01*
X0000244296Y0003415572D01*
X0000243957Y0003415115D01*
X0000243574Y0003414692D01*
X0000243152Y0003414310D01*
X0000242694Y0003413970D01*
X0000242205Y0003413677D01*
X0000241690Y0003413434D01*
X0000241154Y0003413242D01*
X0000240601Y0003413103D01*
X0000240037Y0003413020D01*
X0000239468Y0003412992D01*
X0000225885Y0003412992D01*
X0000225316Y0003413020D01*
X0000224752Y0003413103D01*
X0000224200Y0003413242D01*
X0000223663Y0003413434D01*
X0000223148Y0003413677D01*
X0000222659Y0003413970D01*
X0000222201Y0003414310D01*
X0000221779Y0003414692D01*
X0000221396Y0003415115D01*
X0000221057Y0003415572D01*
X0000220764Y0003416061D01*
X0000220520Y0003416576D01*
X0000220328Y0003417113D01*
X0000220190Y0003417666D01*
X0000220106Y0003418230D01*
X0000220078Y0003418799D01*
X0000220078Y0003430413D01*
X0000220106Y0003430982D01*
X0000220190Y0003431546D01*
X0000220328Y0003432099D01*
X0000220520Y0003432635D01*
X0000220764Y0003433150D01*
X0000221057Y0003433639D01*
X0000221396Y0003434097D01*
X0000221779Y0003434519D01*
X0000222201Y0003434902D01*
X0000222659Y0003435241D01*
X0000223148Y0003435534D01*
X0000223663Y0003435778D01*
X0000224200Y0003435970D01*
X0000224752Y0003436108D01*
X0000225316Y0003436192D01*
X0000225885Y0003436220D01*
X0000239468Y0003436220D01*
X0000240037Y0003436192D01*
G37*
G36*
X0000240037Y0003474381D02*
G01*
X0000240601Y0003474297D01*
X0000241154Y0003474159D01*
X0000241690Y0003473967D01*
X0000242205Y0003473723D01*
X0000242694Y0003473430D01*
X0000243152Y0003473091D01*
X0000243574Y0003472708D01*
X0000243957Y0003472286D01*
X0000244296Y0003471828D01*
X0000244589Y0003471339D01*
X0000244833Y0003470824D01*
X0000245025Y0003470288D01*
X0000245164Y0003469735D01*
X0000245247Y0003469171D01*
X0000245275Y0003468602D01*
X0000245275Y0003456988D01*
X0000245247Y0003456418D01*
X0000245164Y0003455855D01*
X0000245025Y0003455302D01*
X0000244833Y0003454765D01*
X0000244589Y0003454250D01*
X0000244296Y0003453761D01*
X0000243957Y0003453304D01*
X0000243574Y0003452881D01*
X0000243152Y0003452499D01*
X0000242694Y0003452159D01*
X0000242205Y0003451866D01*
X0000241690Y0003451623D01*
X0000241154Y0003451431D01*
X0000240601Y0003451292D01*
X0000240037Y0003451209D01*
X0000239468Y0003451181D01*
X0000225885Y0003451181D01*
X0000225316Y0003451209D01*
X0000224752Y0003451292D01*
X0000224200Y0003451431D01*
X0000223663Y0003451623D01*
X0000223148Y0003451866D01*
X0000222659Y0003452159D01*
X0000222201Y0003452499D01*
X0000221779Y0003452881D01*
X0000221396Y0003453304D01*
X0000221057Y0003453761D01*
X0000220764Y0003454250D01*
X0000220520Y0003454765D01*
X0000220328Y0003455302D01*
X0000220190Y0003455855D01*
X0000220106Y0003456418D01*
X0000220078Y0003456988D01*
X0000220078Y0003468602D01*
X0000220106Y0003469171D01*
X0000220190Y0003469735D01*
X0000220328Y0003470288D01*
X0000220520Y0003470824D01*
X0000220764Y0003471339D01*
X0000221057Y0003471828D01*
X0000221396Y0003472286D01*
X0000221779Y0003472708D01*
X0000222201Y0003473091D01*
X0000222659Y0003473430D01*
X0000223148Y0003473723D01*
X0000223663Y0003473967D01*
X0000224200Y0003474159D01*
X0000224752Y0003474297D01*
X0000225316Y0003474381D01*
X0000225885Y0003474409D01*
X0000239468Y0003474409D01*
X0000240037Y0003474381D01*
G37*
D27*
X0000157480Y0003368110D03*
X0000157480Y0003387795D03*
X0000177165Y0003387795D03*
X0000137795Y0003387795D03*
X0000137795Y0003368110D03*
X0000177165Y0003368110D03*
X0000177165Y0003348425D03*
X0000157480Y0003348425D03*
X0000137795Y0003348425D03*
G04 next file*
G04 #@! TF.GenerationSoftware,KiCad,Pcbnew,(5.1.5)-3*
G04 #@! TF.CreationDate,2021-04-29T13:46:15+02:00*
G04 #@! TF.ProjectId,Hivetracker,48697665-7472-4616-936b-65722e6b6963,rev?*
G04 #@! TF.SameCoordinates,PX2562500PY28a0640*
G04 #@! TF.FileFunction,Paste,Bot*
G04 #@! TF.FilePolarity,Positive*
G04 Gerber Fmt 4.6, Leading zero omitted, Abs format (unit mm)*
G04 Created by KiCad (PCBNEW (5.1.5)-3) date 2021-04-29 13:46:15*
G04 APERTURE LIST*
G04 APERTURE END LIST*
D28*
G36*
X0000456179Y0003325168D02*
G01*
X0000456743Y0003325085D01*
X0000457295Y0003324946D01*
X0000457832Y0003324754D01*
X0000458347Y0003324511D01*
X0000458836Y0003324218D01*
X0000459294Y0003323878D01*
X0000459716Y0003323495D01*
X0000460099Y0003323073D01*
X0000460438Y0003322616D01*
X0000460731Y0003322127D01*
X0000460975Y0003321612D01*
X0000461167Y0003321075D01*
X0000461305Y0003320522D01*
X0000461389Y0003319958D01*
X0000461417Y0003319389D01*
X0000461417Y0003307775D01*
X0000461389Y0003307206D01*
X0000461305Y0003306642D01*
X0000461167Y0003306089D01*
X0000460975Y0003305553D01*
X0000460731Y0003305038D01*
X0000460438Y0003304549D01*
X0000460099Y0003304091D01*
X0000459716Y0003303669D01*
X0000459294Y0003303286D01*
X0000458836Y0003302947D01*
X0000458347Y0003302654D01*
X0000457832Y0003302410D01*
X0000457295Y0003302218D01*
X0000456743Y0003302080D01*
X0000456179Y0003301996D01*
X0000455610Y0003301968D01*
X0000442027Y0003301968D01*
X0000441458Y0003301996D01*
X0000440894Y0003302080D01*
X0000440341Y0003302218D01*
X0000439805Y0003302410D01*
X0000439290Y0003302654D01*
X0000438801Y0003302947D01*
X0000438343Y0003303286D01*
X0000437921Y0003303669D01*
X0000437538Y0003304091D01*
X0000437199Y0003304549D01*
X0000436906Y0003305038D01*
X0000436662Y0003305553D01*
X0000436470Y0003306089D01*
X0000436332Y0003306642D01*
X0000436248Y0003307206D01*
X0000436220Y0003307775D01*
X0000436220Y0003319389D01*
X0000436248Y0003319958D01*
X0000436332Y0003320522D01*
X0000436470Y0003321075D01*
X0000436662Y0003321612D01*
X0000436906Y0003322127D01*
X0000437199Y0003322616D01*
X0000437538Y0003323073D01*
X0000437921Y0003323495D01*
X0000438343Y0003323878D01*
X0000438801Y0003324218D01*
X0000439290Y0003324511D01*
X0000439805Y0003324754D01*
X0000440341Y0003324946D01*
X0000440894Y0003325085D01*
X0000441458Y0003325168D01*
X0000442027Y0003325196D01*
X0000455610Y0003325196D01*
X0000456179Y0003325168D01*
G37*
G36*
X0000456179Y0003363357D02*
G01*
X0000456743Y0003363274D01*
X0000457295Y0003363135D01*
X0000457832Y0003362943D01*
X0000458347Y0003362700D01*
X0000458836Y0003362407D01*
X0000459294Y0003362067D01*
X0000459716Y0003361684D01*
X0000460099Y0003361262D01*
X0000460438Y0003360805D01*
X0000460731Y0003360316D01*
X0000460975Y0003359801D01*
X0000461167Y0003359264D01*
X0000461305Y0003358711D01*
X0000461389Y0003358147D01*
X0000461417Y0003357578D01*
X0000461417Y0003345964D01*
X0000461389Y0003345395D01*
X0000461305Y0003344831D01*
X0000461167Y0003344278D01*
X0000460975Y0003343742D01*
X0000460731Y0003343227D01*
X0000460438Y0003342738D01*
X0000460099Y0003342280D01*
X0000459716Y0003341858D01*
X0000459294Y0003341475D01*
X0000458836Y0003341136D01*
X0000458347Y0003340843D01*
X0000457832Y0003340599D01*
X0000457295Y0003340407D01*
X0000456743Y0003340269D01*
X0000456179Y0003340185D01*
X0000455610Y0003340157D01*
X0000442027Y0003340157D01*
X0000441458Y0003340185D01*
X0000440894Y0003340269D01*
X0000440341Y0003340407D01*
X0000439805Y0003340599D01*
X0000439290Y0003340843D01*
X0000438801Y0003341136D01*
X0000438343Y0003341475D01*
X0000437921Y0003341858D01*
X0000437538Y0003342280D01*
X0000437199Y0003342738D01*
X0000436906Y0003343227D01*
X0000436662Y0003343742D01*
X0000436470Y0003344278D01*
X0000436332Y0003344831D01*
X0000436248Y0003345395D01*
X0000436220Y0003345964D01*
X0000436220Y0003357578D01*
X0000436248Y0003358147D01*
X0000436332Y0003358711D01*
X0000436470Y0003359264D01*
X0000436662Y0003359801D01*
X0000436906Y0003360316D01*
X0000437199Y0003360805D01*
X0000437538Y0003361262D01*
X0000437921Y0003361684D01*
X0000438343Y0003362067D01*
X0000438801Y0003362407D01*
X0000439290Y0003362700D01*
X0000439805Y0003362943D01*
X0000440341Y0003363135D01*
X0000440894Y0003363274D01*
X0000441458Y0003363357D01*
X0000442027Y0003363385D01*
X0000455610Y0003363385D01*
X0000456179Y0003363357D01*
G37*
G36*
X0000593187Y0003436192D02*
G01*
X0000593750Y0003436108D01*
X0000594303Y0003435970D01*
X0000594840Y0003435778D01*
X0000595355Y0003435534D01*
X0000595844Y0003435241D01*
X0000596302Y0003434902D01*
X0000596724Y0003434519D01*
X0000597107Y0003434097D01*
X0000597446Y0003433639D01*
X0000597739Y0003433150D01*
X0000597983Y0003432635D01*
X0000598175Y0003432099D01*
X0000598313Y0003431546D01*
X0000598397Y0003430982D01*
X0000598425Y0003430413D01*
X0000598425Y0003418799D01*
X0000598397Y0003418230D01*
X0000598313Y0003417666D01*
X0000598175Y0003417113D01*
X0000597983Y0003416576D01*
X0000597739Y0003416061D01*
X0000597446Y0003415572D01*
X0000597107Y0003415115D01*
X0000596724Y0003414692D01*
X0000596302Y0003414310D01*
X0000595844Y0003413970D01*
X0000595355Y0003413677D01*
X0000594840Y0003413434D01*
X0000594303Y0003413242D01*
X0000593750Y0003413103D01*
X0000593187Y0003413020D01*
X0000592618Y0003412992D01*
X0000579035Y0003412992D01*
X0000578466Y0003413020D01*
X0000577902Y0003413103D01*
X0000577349Y0003413242D01*
X0000576813Y0003413434D01*
X0000576297Y0003413677D01*
X0000575809Y0003413970D01*
X0000575351Y0003414310D01*
X0000574929Y0003414692D01*
X0000574546Y0003415115D01*
X0000574207Y0003415572D01*
X0000573914Y0003416061D01*
X0000573670Y0003416576D01*
X0000573478Y0003417113D01*
X0000573339Y0003417666D01*
X0000573256Y0003418230D01*
X0000573228Y0003418799D01*
X0000573228Y0003430413D01*
X0000573256Y0003430982D01*
X0000573339Y0003431546D01*
X0000573478Y0003432099D01*
X0000573670Y0003432635D01*
X0000573914Y0003433150D01*
X0000574207Y0003433639D01*
X0000574546Y0003434097D01*
X0000574929Y0003434519D01*
X0000575351Y0003434902D01*
X0000575809Y0003435241D01*
X0000576297Y0003435534D01*
X0000576813Y0003435778D01*
X0000577349Y0003435970D01*
X0000577902Y0003436108D01*
X0000578466Y0003436192D01*
X0000579035Y0003436220D01*
X0000592618Y0003436220D01*
X0000593187Y0003436192D01*
G37*
G36*
X0000593187Y0003474381D02*
G01*
X0000593750Y0003474297D01*
X0000594303Y0003474159D01*
X0000594840Y0003473967D01*
X0000595355Y0003473723D01*
X0000595844Y0003473430D01*
X0000596302Y0003473091D01*
X0000596724Y0003472708D01*
X0000597107Y0003472286D01*
X0000597446Y0003471828D01*
X0000597739Y0003471339D01*
X0000597983Y0003470824D01*
X0000598175Y0003470288D01*
X0000598313Y0003469735D01*
X0000598397Y0003469171D01*
X0000598425Y0003468602D01*
X0000598425Y0003456988D01*
X0000598397Y0003456418D01*
X0000598313Y0003455855D01*
X0000598175Y0003455302D01*
X0000597983Y0003454765D01*
X0000597739Y0003454250D01*
X0000597446Y0003453761D01*
X0000597107Y0003453304D01*
X0000596724Y0003452881D01*
X0000596302Y0003452499D01*
X0000595844Y0003452159D01*
X0000595355Y0003451866D01*
X0000594840Y0003451623D01*
X0000594303Y0003451431D01*
X0000593750Y0003451292D01*
X0000593187Y0003451209D01*
X0000592618Y0003451181D01*
X0000579035Y0003451181D01*
X0000578466Y0003451209D01*
X0000577902Y0003451292D01*
X0000577349Y0003451431D01*
X0000576813Y0003451623D01*
X0000576297Y0003451866D01*
X0000575809Y0003452159D01*
X0000575351Y0003452499D01*
X0000574929Y0003452881D01*
X0000574546Y0003453304D01*
X0000574207Y0003453761D01*
X0000573914Y0003454250D01*
X0000573670Y0003454765D01*
X0000573478Y0003455302D01*
X0000573339Y0003455855D01*
X0000573256Y0003456418D01*
X0000573228Y0003456988D01*
X0000573228Y0003468602D01*
X0000573256Y0003469171D01*
X0000573339Y0003469735D01*
X0000573478Y0003470288D01*
X0000573670Y0003470824D01*
X0000573914Y0003471339D01*
X0000574207Y0003471828D01*
X0000574546Y0003472286D01*
X0000574929Y0003472708D01*
X0000575351Y0003473091D01*
X0000575809Y0003473430D01*
X0000576297Y0003473723D01*
X0000576813Y0003473967D01*
X0000577349Y0003474159D01*
X0000577902Y0003474297D01*
X0000578466Y0003474381D01*
X0000579035Y0003474409D01*
X0000592618Y0003474409D01*
X0000593187Y0003474381D01*
G37*
G36*
X0000633738Y0003436192D02*
G01*
X0000634302Y0003436108D01*
X0000634854Y0003435970D01*
X0000635391Y0003435778D01*
X0000635906Y0003435534D01*
X0000636395Y0003435241D01*
X0000636853Y0003434902D01*
X0000637275Y0003434519D01*
X0000637658Y0003434097D01*
X0000637997Y0003433639D01*
X0000638290Y0003433150D01*
X0000638534Y0003432635D01*
X0000638726Y0003432099D01*
X0000638864Y0003431546D01*
X0000638948Y0003430982D01*
X0000638976Y0003430413D01*
X0000638976Y0003418799D01*
X0000638948Y0003418230D01*
X0000638864Y0003417666D01*
X0000638726Y0003417113D01*
X0000638534Y0003416576D01*
X0000638290Y0003416061D01*
X0000637997Y0003415572D01*
X0000637658Y0003415115D01*
X0000637275Y0003414692D01*
X0000636853Y0003414310D01*
X0000636395Y0003413970D01*
X0000635906Y0003413677D01*
X0000635391Y0003413434D01*
X0000634854Y0003413242D01*
X0000634302Y0003413103D01*
X0000633738Y0003413020D01*
X0000633169Y0003412992D01*
X0000619586Y0003412992D01*
X0000619017Y0003413020D01*
X0000618453Y0003413103D01*
X0000617900Y0003413242D01*
X0000617364Y0003413434D01*
X0000616849Y0003413677D01*
X0000616360Y0003413970D01*
X0000615902Y0003414310D01*
X0000615480Y0003414692D01*
X0000615097Y0003415115D01*
X0000614758Y0003415572D01*
X0000614465Y0003416061D01*
X0000614221Y0003416576D01*
X0000614029Y0003417113D01*
X0000613891Y0003417666D01*
X0000613807Y0003418230D01*
X0000613779Y0003418799D01*
X0000613779Y0003430413D01*
X0000613807Y0003430982D01*
X0000613891Y0003431546D01*
X0000614029Y0003432099D01*
X0000614221Y0003432635D01*
X0000614465Y0003433150D01*
X0000614758Y0003433639D01*
X0000615097Y0003434097D01*
X0000615480Y0003434519D01*
X0000615902Y0003434902D01*
X0000616360Y0003435241D01*
X0000616849Y0003435534D01*
X0000617364Y0003435778D01*
X0000617900Y0003435970D01*
X0000618453Y0003436108D01*
X0000619017Y0003436192D01*
X0000619586Y0003436220D01*
X0000633169Y0003436220D01*
X0000633738Y0003436192D01*
G37*
G36*
X0000633738Y0003474381D02*
G01*
X0000634302Y0003474297D01*
X0000634854Y0003474159D01*
X0000635391Y0003473967D01*
X0000635906Y0003473723D01*
X0000636395Y0003473430D01*
X0000636853Y0003473091D01*
X0000637275Y0003472708D01*
X0000637658Y0003472286D01*
X0000637997Y0003471828D01*
X0000638290Y0003471339D01*
X0000638534Y0003470824D01*
X0000638726Y0003470288D01*
X0000638864Y0003469735D01*
X0000638948Y0003469171D01*
X0000638976Y0003468602D01*
X0000638976Y0003456988D01*
X0000638948Y0003456418D01*
X0000638864Y0003455855D01*
X0000638726Y0003455302D01*
X0000638534Y0003454765D01*
X0000638290Y0003454250D01*
X0000637997Y0003453761D01*
X0000637658Y0003453304D01*
X0000637275Y0003452881D01*
X0000636853Y0003452499D01*
X0000636395Y0003452159D01*
X0000635906Y0003451866D01*
X0000635391Y0003451623D01*
X0000634854Y0003451431D01*
X0000634302Y0003451292D01*
X0000633738Y0003451209D01*
X0000633169Y0003451181D01*
X0000619586Y0003451181D01*
X0000619017Y0003451209D01*
X0000618453Y0003451292D01*
X0000617900Y0003451431D01*
X0000617364Y0003451623D01*
X0000616849Y0003451866D01*
X0000616360Y0003452159D01*
X0000615902Y0003452499D01*
X0000615480Y0003452881D01*
X0000615097Y0003453304D01*
X0000614758Y0003453761D01*
X0000614465Y0003454250D01*
X0000614221Y0003454765D01*
X0000614029Y0003455302D01*
X0000613891Y0003455855D01*
X0000613807Y0003456418D01*
X0000613779Y0003456988D01*
X0000613779Y0003468602D01*
X0000613807Y0003469171D01*
X0000613891Y0003469735D01*
X0000614029Y0003470288D01*
X0000614221Y0003470824D01*
X0000614465Y0003471339D01*
X0000614758Y0003471828D01*
X0000615097Y0003472286D01*
X0000615480Y0003472708D01*
X0000615902Y0003473091D01*
X0000616360Y0003473430D01*
X0000616849Y0003473723D01*
X0000617364Y0003473967D01*
X0000617900Y0003474159D01*
X0000618453Y0003474297D01*
X0000619017Y0003474381D01*
X0000619586Y0003474409D01*
X0000633169Y0003474409D01*
X0000633738Y0003474381D01*
G37*
D29*
X0000551181Y0003368110D03*
X0000551181Y0003387795D03*
X0000570866Y0003387795D03*
X0000531496Y0003387795D03*
X0000531496Y0003368110D03*
X0000570866Y0003368110D03*
X0000570866Y0003348425D03*
X0000551181Y0003348425D03*
X0000531496Y0003348425D03*
G04 next file*
G04 #@! TF.GenerationSoftware,KiCad,Pcbnew,(5.1.5)-3*
G04 #@! TF.CreationDate,2021-04-29T13:46:15+02:00*
G04 #@! TF.ProjectId,Hivetracker,48697665-7472-4616-936b-65722e6b6963,rev?*
G04 #@! TF.SameCoordinates,PX2562500PY28a0640*
G04 #@! TF.FileFunction,Paste,Bot*
G04 #@! TF.FilePolarity,Positive*
G04 Gerber Fmt 4.6, Leading zero omitted, Abs format (unit mm)*
G04 Created by KiCad (PCBNEW (5.1.5)-3) date 2021-04-29 13:46:15*
G04 APERTURE LIST*
G04 APERTURE END LIST*
D30*
G36*
X0000062478Y0002931468D02*
G01*
X0000063042Y0002931384D01*
X0000063595Y0002931246D01*
X0000064131Y0002931054D01*
X0000064646Y0002930810D01*
X0000065135Y0002930517D01*
X0000065593Y0002930177D01*
X0000066015Y0002929795D01*
X0000066398Y0002929372D01*
X0000066737Y0002928915D01*
X0000067030Y0002928426D01*
X0000067274Y0002927911D01*
X0000067466Y0002927374D01*
X0000067604Y0002926821D01*
X0000067688Y0002926258D01*
X0000067716Y0002925688D01*
X0000067716Y0002914074D01*
X0000067688Y0002913505D01*
X0000067604Y0002912941D01*
X0000067466Y0002912389D01*
X0000067274Y0002911852D01*
X0000067030Y0002911337D01*
X0000066737Y0002910848D01*
X0000066398Y0002910390D01*
X0000066015Y0002909968D01*
X0000065593Y0002909585D01*
X0000065135Y0002909246D01*
X0000064646Y0002908953D01*
X0000064131Y0002908709D01*
X0000063595Y0002908517D01*
X0000063042Y0002908379D01*
X0000062478Y0002908295D01*
X0000061909Y0002908267D01*
X0000048326Y0002908267D01*
X0000047757Y0002908295D01*
X0000047193Y0002908379D01*
X0000046641Y0002908517D01*
X0000046104Y0002908709D01*
X0000045589Y0002908953D01*
X0000045100Y0002909246D01*
X0000044642Y0002909585D01*
X0000044220Y0002909968D01*
X0000043837Y0002910390D01*
X0000043498Y0002910848D01*
X0000043205Y0002911337D01*
X0000042961Y0002911852D01*
X0000042769Y0002912389D01*
X0000042631Y0002912941D01*
X0000042547Y0002913505D01*
X0000042519Y0002914074D01*
X0000042519Y0002925688D01*
X0000042547Y0002926258D01*
X0000042631Y0002926821D01*
X0000042769Y0002927374D01*
X0000042961Y0002927911D01*
X0000043205Y0002928426D01*
X0000043498Y0002928915D01*
X0000043837Y0002929372D01*
X0000044220Y0002929795D01*
X0000044642Y0002930177D01*
X0000045100Y0002930517D01*
X0000045589Y0002930810D01*
X0000046104Y0002931054D01*
X0000046641Y0002931246D01*
X0000047193Y0002931384D01*
X0000047757Y0002931468D01*
X0000048326Y0002931496D01*
X0000061909Y0002931496D01*
X0000062478Y0002931468D01*
G37*
G36*
X0000062478Y0002969657D02*
G01*
X0000063042Y0002969573D01*
X0000063595Y0002969435D01*
X0000064131Y0002969242D01*
X0000064646Y0002968999D01*
X0000065135Y0002968706D01*
X0000065593Y0002968366D01*
X0000066015Y0002967984D01*
X0000066398Y0002967561D01*
X0000066737Y0002967104D01*
X0000067030Y0002966615D01*
X0000067274Y0002966100D01*
X0000067466Y0002965563D01*
X0000067604Y0002965010D01*
X0000067688Y0002964447D01*
X0000067716Y0002963877D01*
X0000067716Y0002952263D01*
X0000067688Y0002951694D01*
X0000067604Y0002951130D01*
X0000067466Y0002950578D01*
X0000067274Y0002950041D01*
X0000067030Y0002949526D01*
X0000066737Y0002949037D01*
X0000066398Y0002948579D01*
X0000066015Y0002948157D01*
X0000065593Y0002947774D01*
X0000065135Y0002947435D01*
X0000064646Y0002947142D01*
X0000064131Y0002946898D01*
X0000063595Y0002946706D01*
X0000063042Y0002946568D01*
X0000062478Y0002946484D01*
X0000061909Y0002946456D01*
X0000048326Y0002946456D01*
X0000047757Y0002946484D01*
X0000047193Y0002946568D01*
X0000046641Y0002946706D01*
X0000046104Y0002946898D01*
X0000045589Y0002947142D01*
X0000045100Y0002947435D01*
X0000044642Y0002947774D01*
X0000044220Y0002948157D01*
X0000043837Y0002948579D01*
X0000043498Y0002949037D01*
X0000043205Y0002949526D01*
X0000042961Y0002950041D01*
X0000042769Y0002950578D01*
X0000042631Y0002951130D01*
X0000042547Y0002951694D01*
X0000042519Y0002952263D01*
X0000042519Y0002963877D01*
X0000042547Y0002964447D01*
X0000042631Y0002965010D01*
X0000042769Y0002965563D01*
X0000042961Y0002966100D01*
X0000043205Y0002966615D01*
X0000043498Y0002967104D01*
X0000043837Y0002967561D01*
X0000044220Y0002967984D01*
X0000044642Y0002968366D01*
X0000045100Y0002968706D01*
X0000045589Y0002968999D01*
X0000046104Y0002969242D01*
X0000046641Y0002969435D01*
X0000047193Y0002969573D01*
X0000047757Y0002969657D01*
X0000048326Y0002969685D01*
X0000061909Y0002969685D01*
X0000062478Y0002969657D01*
G37*
G36*
X0000199486Y0003042491D02*
G01*
X0000200050Y0003042408D01*
X0000200603Y0003042269D01*
X0000201139Y0003042077D01*
X0000201654Y0003041833D01*
X0000202143Y0003041541D01*
X0000202601Y0003041201D01*
X0000203023Y0003040818D01*
X0000203406Y0003040396D01*
X0000203745Y0003039938D01*
X0000204038Y0003039450D01*
X0000204282Y0003038934D01*
X0000204474Y0003038398D01*
X0000204612Y0003037845D01*
X0000204696Y0003037281D01*
X0000204724Y0003036712D01*
X0000204724Y0003025098D01*
X0000204696Y0003024529D01*
X0000204612Y0003023965D01*
X0000204474Y0003023412D01*
X0000204282Y0003022876D01*
X0000204038Y0003022360D01*
X0000203745Y0003021872D01*
X0000203406Y0003021414D01*
X0000203023Y0003020992D01*
X0000202601Y0003020609D01*
X0000202143Y0003020270D01*
X0000201654Y0003019977D01*
X0000201139Y0003019733D01*
X0000200603Y0003019541D01*
X0000200050Y0003019402D01*
X0000199486Y0003019319D01*
X0000198917Y0003019291D01*
X0000185334Y0003019291D01*
X0000184765Y0003019319D01*
X0000184201Y0003019402D01*
X0000183648Y0003019541D01*
X0000183112Y0003019733D01*
X0000182597Y0003019977D01*
X0000182108Y0003020270D01*
X0000181650Y0003020609D01*
X0000181228Y0003020992D01*
X0000180845Y0003021414D01*
X0000180506Y0003021872D01*
X0000180213Y0003022360D01*
X0000179969Y0003022876D01*
X0000179777Y0003023412D01*
X0000179639Y0003023965D01*
X0000179555Y0003024529D01*
X0000179527Y0003025098D01*
X0000179527Y0003036712D01*
X0000179555Y0003037281D01*
X0000179639Y0003037845D01*
X0000179777Y0003038398D01*
X0000179969Y0003038934D01*
X0000180213Y0003039450D01*
X0000180506Y0003039938D01*
X0000180845Y0003040396D01*
X0000181228Y0003040818D01*
X0000181650Y0003041201D01*
X0000182108Y0003041541D01*
X0000182597Y0003041833D01*
X0000183112Y0003042077D01*
X0000183648Y0003042269D01*
X0000184201Y0003042408D01*
X0000184765Y0003042491D01*
X0000185334Y0003042519D01*
X0000198917Y0003042519D01*
X0000199486Y0003042491D01*
G37*
G36*
X0000199486Y0003080680D02*
G01*
X0000200050Y0003080597D01*
X0000200603Y0003080458D01*
X0000201139Y0003080266D01*
X0000201654Y0003080022D01*
X0000202143Y0003079730D01*
X0000202601Y0003079390D01*
X0000203023Y0003079007D01*
X0000203406Y0003078585D01*
X0000203745Y0003078127D01*
X0000204038Y0003077639D01*
X0000204282Y0003077123D01*
X0000204474Y0003076587D01*
X0000204612Y0003076034D01*
X0000204696Y0003075470D01*
X0000204724Y0003074901D01*
X0000204724Y0003063287D01*
X0000204696Y0003062718D01*
X0000204612Y0003062154D01*
X0000204474Y0003061601D01*
X0000204282Y0003061065D01*
X0000204038Y0003060549D01*
X0000203745Y0003060061D01*
X0000203406Y0003059603D01*
X0000203023Y0003059181D01*
X0000202601Y0003058798D01*
X0000202143Y0003058458D01*
X0000201654Y0003058166D01*
X0000201139Y0003057922D01*
X0000200603Y0003057730D01*
X0000200050Y0003057591D01*
X0000199486Y0003057508D01*
X0000198917Y0003057480D01*
X0000185334Y0003057480D01*
X0000184765Y0003057508D01*
X0000184201Y0003057591D01*
X0000183648Y0003057730D01*
X0000183112Y0003057922D01*
X0000182597Y0003058166D01*
X0000182108Y0003058458D01*
X0000181650Y0003058798D01*
X0000181228Y0003059181D01*
X0000180845Y0003059603D01*
X0000180506Y0003060061D01*
X0000180213Y0003060549D01*
X0000179969Y0003061065D01*
X0000179777Y0003061601D01*
X0000179639Y0003062154D01*
X0000179555Y0003062718D01*
X0000179527Y0003063287D01*
X0000179527Y0003074901D01*
X0000179555Y0003075470D01*
X0000179639Y0003076034D01*
X0000179777Y0003076587D01*
X0000179969Y0003077123D01*
X0000180213Y0003077639D01*
X0000180506Y0003078127D01*
X0000180845Y0003078585D01*
X0000181228Y0003079007D01*
X0000181650Y0003079390D01*
X0000182108Y0003079730D01*
X0000182597Y0003080022D01*
X0000183112Y0003080266D01*
X0000183648Y0003080458D01*
X0000184201Y0003080597D01*
X0000184765Y0003080680D01*
X0000185334Y0003080708D01*
X0000198917Y0003080708D01*
X0000199486Y0003080680D01*
G37*
G36*
X0000240037Y0003042491D02*
G01*
X0000240601Y0003042408D01*
X0000241154Y0003042269D01*
X0000241690Y0003042077D01*
X0000242205Y0003041833D01*
X0000242694Y0003041541D01*
X0000243152Y0003041201D01*
X0000243574Y0003040818D01*
X0000243957Y0003040396D01*
X0000244296Y0003039938D01*
X0000244589Y0003039450D01*
X0000244833Y0003038934D01*
X0000245025Y0003038398D01*
X0000245164Y0003037845D01*
X0000245247Y0003037281D01*
X0000245275Y0003036712D01*
X0000245275Y0003025098D01*
X0000245247Y0003024529D01*
X0000245164Y0003023965D01*
X0000245025Y0003023412D01*
X0000244833Y0003022876D01*
X0000244589Y0003022360D01*
X0000244296Y0003021872D01*
X0000243957Y0003021414D01*
X0000243574Y0003020992D01*
X0000243152Y0003020609D01*
X0000242694Y0003020270D01*
X0000242205Y0003019977D01*
X0000241690Y0003019733D01*
X0000241154Y0003019541D01*
X0000240601Y0003019402D01*
X0000240037Y0003019319D01*
X0000239468Y0003019291D01*
X0000225885Y0003019291D01*
X0000225316Y0003019319D01*
X0000224752Y0003019402D01*
X0000224200Y0003019541D01*
X0000223663Y0003019733D01*
X0000223148Y0003019977D01*
X0000222659Y0003020270D01*
X0000222201Y0003020609D01*
X0000221779Y0003020992D01*
X0000221396Y0003021414D01*
X0000221057Y0003021872D01*
X0000220764Y0003022360D01*
X0000220520Y0003022876D01*
X0000220328Y0003023412D01*
X0000220190Y0003023965D01*
X0000220106Y0003024529D01*
X0000220078Y0003025098D01*
X0000220078Y0003036712D01*
X0000220106Y0003037281D01*
X0000220190Y0003037845D01*
X0000220328Y0003038398D01*
X0000220520Y0003038934D01*
X0000220764Y0003039450D01*
X0000221057Y0003039938D01*
X0000221396Y0003040396D01*
X0000221779Y0003040818D01*
X0000222201Y0003041201D01*
X0000222659Y0003041541D01*
X0000223148Y0003041833D01*
X0000223663Y0003042077D01*
X0000224200Y0003042269D01*
X0000224752Y0003042408D01*
X0000225316Y0003042491D01*
X0000225885Y0003042519D01*
X0000239468Y0003042519D01*
X0000240037Y0003042491D01*
G37*
G36*
X0000240037Y0003080680D02*
G01*
X0000240601Y0003080597D01*
X0000241154Y0003080458D01*
X0000241690Y0003080266D01*
X0000242205Y0003080022D01*
X0000242694Y0003079730D01*
X0000243152Y0003079390D01*
X0000243574Y0003079007D01*
X0000243957Y0003078585D01*
X0000244296Y0003078127D01*
X0000244589Y0003077639D01*
X0000244833Y0003077123D01*
X0000245025Y0003076587D01*
X0000245164Y0003076034D01*
X0000245247Y0003075470D01*
X0000245275Y0003074901D01*
X0000245275Y0003063287D01*
X0000245247Y0003062718D01*
X0000245164Y0003062154D01*
X0000245025Y0003061601D01*
X0000244833Y0003061065D01*
X0000244589Y0003060549D01*
X0000244296Y0003060061D01*
X0000243957Y0003059603D01*
X0000243574Y0003059181D01*
X0000243152Y0003058798D01*
X0000242694Y0003058458D01*
X0000242205Y0003058166D01*
X0000241690Y0003057922D01*
X0000241154Y0003057730D01*
X0000240601Y0003057591D01*
X0000240037Y0003057508D01*
X0000239468Y0003057480D01*
X0000225885Y0003057480D01*
X0000225316Y0003057508D01*
X0000224752Y0003057591D01*
X0000224200Y0003057730D01*
X0000223663Y0003057922D01*
X0000223148Y0003058166D01*
X0000222659Y0003058458D01*
X0000222201Y0003058798D01*
X0000221779Y0003059181D01*
X0000221396Y0003059603D01*
X0000221057Y0003060061D01*
X0000220764Y0003060549D01*
X0000220520Y0003061065D01*
X0000220328Y0003061601D01*
X0000220190Y0003062154D01*
X0000220106Y0003062718D01*
X0000220078Y0003063287D01*
X0000220078Y0003074901D01*
X0000220106Y0003075470D01*
X0000220190Y0003076034D01*
X0000220328Y0003076587D01*
X0000220520Y0003077123D01*
X0000220764Y0003077639D01*
X0000221057Y0003078127D01*
X0000221396Y0003078585D01*
X0000221779Y0003079007D01*
X0000222201Y0003079390D01*
X0000222659Y0003079730D01*
X0000223148Y0003080022D01*
X0000223663Y0003080266D01*
X0000224200Y0003080458D01*
X0000224752Y0003080597D01*
X0000225316Y0003080680D01*
X0000225885Y0003080708D01*
X0000239468Y0003080708D01*
X0000240037Y0003080680D01*
G37*
D31*
X0000157480Y0002974409D03*
X0000157480Y0002994094D03*
X0000177165Y0002994094D03*
X0000137795Y0002994094D03*
X0000137795Y0002974409D03*
X0000177165Y0002974409D03*
X0000177165Y0002954724D03*
X0000157480Y0002954724D03*
X0000137795Y0002954724D03*
G04 next file*
G04 #@! TF.GenerationSoftware,KiCad,Pcbnew,(5.1.5)-3*
G04 #@! TF.CreationDate,2021-04-29T13:46:15+02:00*
G04 #@! TF.ProjectId,Hivetracker,48697665-7472-4616-936b-65722e6b6963,rev?*
G04 #@! TF.SameCoordinates,PX2562500PY28a0640*
G04 #@! TF.FileFunction,Paste,Bot*
G04 #@! TF.FilePolarity,Positive*
G04 Gerber Fmt 4.6, Leading zero omitted, Abs format (unit mm)*
G04 Created by KiCad (PCBNEW (5.1.5)-3) date 2021-04-29 13:46:15*
G04 APERTURE LIST*
G04 APERTURE END LIST*
D32*
G36*
X0000456179Y0002931468D02*
G01*
X0000456743Y0002931384D01*
X0000457295Y0002931246D01*
X0000457832Y0002931054D01*
X0000458347Y0002930810D01*
X0000458836Y0002930517D01*
X0000459294Y0002930177D01*
X0000459716Y0002929795D01*
X0000460099Y0002929372D01*
X0000460438Y0002928915D01*
X0000460731Y0002928426D01*
X0000460975Y0002927911D01*
X0000461167Y0002927374D01*
X0000461305Y0002926821D01*
X0000461389Y0002926258D01*
X0000461417Y0002925688D01*
X0000461417Y0002914074D01*
X0000461389Y0002913505D01*
X0000461305Y0002912941D01*
X0000461167Y0002912389D01*
X0000460975Y0002911852D01*
X0000460731Y0002911337D01*
X0000460438Y0002910848D01*
X0000460099Y0002910390D01*
X0000459716Y0002909968D01*
X0000459294Y0002909585D01*
X0000458836Y0002909246D01*
X0000458347Y0002908953D01*
X0000457832Y0002908709D01*
X0000457295Y0002908517D01*
X0000456743Y0002908379D01*
X0000456179Y0002908295D01*
X0000455610Y0002908267D01*
X0000442027Y0002908267D01*
X0000441458Y0002908295D01*
X0000440894Y0002908379D01*
X0000440341Y0002908517D01*
X0000439805Y0002908709D01*
X0000439290Y0002908953D01*
X0000438801Y0002909246D01*
X0000438343Y0002909585D01*
X0000437921Y0002909968D01*
X0000437538Y0002910390D01*
X0000437199Y0002910848D01*
X0000436906Y0002911337D01*
X0000436662Y0002911852D01*
X0000436470Y0002912389D01*
X0000436332Y0002912941D01*
X0000436248Y0002913505D01*
X0000436220Y0002914074D01*
X0000436220Y0002925688D01*
X0000436248Y0002926258D01*
X0000436332Y0002926821D01*
X0000436470Y0002927374D01*
X0000436662Y0002927911D01*
X0000436906Y0002928426D01*
X0000437199Y0002928915D01*
X0000437538Y0002929372D01*
X0000437921Y0002929795D01*
X0000438343Y0002930177D01*
X0000438801Y0002930517D01*
X0000439290Y0002930810D01*
X0000439805Y0002931054D01*
X0000440341Y0002931246D01*
X0000440894Y0002931384D01*
X0000441458Y0002931468D01*
X0000442027Y0002931496D01*
X0000455610Y0002931496D01*
X0000456179Y0002931468D01*
G37*
G36*
X0000456179Y0002969657D02*
G01*
X0000456743Y0002969573D01*
X0000457295Y0002969435D01*
X0000457832Y0002969242D01*
X0000458347Y0002968999D01*
X0000458836Y0002968706D01*
X0000459294Y0002968366D01*
X0000459716Y0002967984D01*
X0000460099Y0002967561D01*
X0000460438Y0002967104D01*
X0000460731Y0002966615D01*
X0000460975Y0002966100D01*
X0000461167Y0002965563D01*
X0000461305Y0002965010D01*
X0000461389Y0002964447D01*
X0000461417Y0002963877D01*
X0000461417Y0002952263D01*
X0000461389Y0002951694D01*
X0000461305Y0002951130D01*
X0000461167Y0002950578D01*
X0000460975Y0002950041D01*
X0000460731Y0002949526D01*
X0000460438Y0002949037D01*
X0000460099Y0002948579D01*
X0000459716Y0002948157D01*
X0000459294Y0002947774D01*
X0000458836Y0002947435D01*
X0000458347Y0002947142D01*
X0000457832Y0002946898D01*
X0000457295Y0002946706D01*
X0000456743Y0002946568D01*
X0000456179Y0002946484D01*
X0000455610Y0002946456D01*
X0000442027Y0002946456D01*
X0000441458Y0002946484D01*
X0000440894Y0002946568D01*
X0000440341Y0002946706D01*
X0000439805Y0002946898D01*
X0000439290Y0002947142D01*
X0000438801Y0002947435D01*
X0000438343Y0002947774D01*
X0000437921Y0002948157D01*
X0000437538Y0002948579D01*
X0000437199Y0002949037D01*
X0000436906Y0002949526D01*
X0000436662Y0002950041D01*
X0000436470Y0002950578D01*
X0000436332Y0002951130D01*
X0000436248Y0002951694D01*
X0000436220Y0002952263D01*
X0000436220Y0002963877D01*
X0000436248Y0002964447D01*
X0000436332Y0002965010D01*
X0000436470Y0002965563D01*
X0000436662Y0002966100D01*
X0000436906Y0002966615D01*
X0000437199Y0002967104D01*
X0000437538Y0002967561D01*
X0000437921Y0002967984D01*
X0000438343Y0002968366D01*
X0000438801Y0002968706D01*
X0000439290Y0002968999D01*
X0000439805Y0002969242D01*
X0000440341Y0002969435D01*
X0000440894Y0002969573D01*
X0000441458Y0002969657D01*
X0000442027Y0002969685D01*
X0000455610Y0002969685D01*
X0000456179Y0002969657D01*
G37*
G36*
X0000593187Y0003042491D02*
G01*
X0000593750Y0003042408D01*
X0000594303Y0003042269D01*
X0000594840Y0003042077D01*
X0000595355Y0003041833D01*
X0000595844Y0003041541D01*
X0000596302Y0003041201D01*
X0000596724Y0003040818D01*
X0000597107Y0003040396D01*
X0000597446Y0003039938D01*
X0000597739Y0003039450D01*
X0000597983Y0003038934D01*
X0000598175Y0003038398D01*
X0000598313Y0003037845D01*
X0000598397Y0003037281D01*
X0000598425Y0003036712D01*
X0000598425Y0003025098D01*
X0000598397Y0003024529D01*
X0000598313Y0003023965D01*
X0000598175Y0003023412D01*
X0000597983Y0003022876D01*
X0000597739Y0003022360D01*
X0000597446Y0003021872D01*
X0000597107Y0003021414D01*
X0000596724Y0003020992D01*
X0000596302Y0003020609D01*
X0000595844Y0003020270D01*
X0000595355Y0003019977D01*
X0000594840Y0003019733D01*
X0000594303Y0003019541D01*
X0000593750Y0003019402D01*
X0000593187Y0003019319D01*
X0000592618Y0003019291D01*
X0000579035Y0003019291D01*
X0000578466Y0003019319D01*
X0000577902Y0003019402D01*
X0000577349Y0003019541D01*
X0000576813Y0003019733D01*
X0000576297Y0003019977D01*
X0000575809Y0003020270D01*
X0000575351Y0003020609D01*
X0000574929Y0003020992D01*
X0000574546Y0003021414D01*
X0000574207Y0003021872D01*
X0000573914Y0003022360D01*
X0000573670Y0003022876D01*
X0000573478Y0003023412D01*
X0000573339Y0003023965D01*
X0000573256Y0003024529D01*
X0000573228Y0003025098D01*
X0000573228Y0003036712D01*
X0000573256Y0003037281D01*
X0000573339Y0003037845D01*
X0000573478Y0003038398D01*
X0000573670Y0003038934D01*
X0000573914Y0003039450D01*
X0000574207Y0003039938D01*
X0000574546Y0003040396D01*
X0000574929Y0003040818D01*
X0000575351Y0003041201D01*
X0000575809Y0003041541D01*
X0000576297Y0003041833D01*
X0000576813Y0003042077D01*
X0000577349Y0003042269D01*
X0000577902Y0003042408D01*
X0000578466Y0003042491D01*
X0000579035Y0003042519D01*
X0000592618Y0003042519D01*
X0000593187Y0003042491D01*
G37*
G36*
X0000593187Y0003080680D02*
G01*
X0000593750Y0003080597D01*
X0000594303Y0003080458D01*
X0000594840Y0003080266D01*
X0000595355Y0003080022D01*
X0000595844Y0003079730D01*
X0000596302Y0003079390D01*
X0000596724Y0003079007D01*
X0000597107Y0003078585D01*
X0000597446Y0003078127D01*
X0000597739Y0003077639D01*
X0000597983Y0003077123D01*
X0000598175Y0003076587D01*
X0000598313Y0003076034D01*
X0000598397Y0003075470D01*
X0000598425Y0003074901D01*
X0000598425Y0003063287D01*
X0000598397Y0003062718D01*
X0000598313Y0003062154D01*
X0000598175Y0003061601D01*
X0000597983Y0003061065D01*
X0000597739Y0003060549D01*
X0000597446Y0003060061D01*
X0000597107Y0003059603D01*
X0000596724Y0003059181D01*
X0000596302Y0003058798D01*
X0000595844Y0003058458D01*
X0000595355Y0003058166D01*
X0000594840Y0003057922D01*
X0000594303Y0003057730D01*
X0000593750Y0003057591D01*
X0000593187Y0003057508D01*
X0000592618Y0003057480D01*
X0000579035Y0003057480D01*
X0000578466Y0003057508D01*
X0000577902Y0003057591D01*
X0000577349Y0003057730D01*
X0000576813Y0003057922D01*
X0000576297Y0003058166D01*
X0000575809Y0003058458D01*
X0000575351Y0003058798D01*
X0000574929Y0003059181D01*
X0000574546Y0003059603D01*
X0000574207Y0003060061D01*
X0000573914Y0003060549D01*
X0000573670Y0003061065D01*
X0000573478Y0003061601D01*
X0000573339Y0003062154D01*
X0000573256Y0003062718D01*
X0000573228Y0003063287D01*
X0000573228Y0003074901D01*
X0000573256Y0003075470D01*
X0000573339Y0003076034D01*
X0000573478Y0003076587D01*
X0000573670Y0003077123D01*
X0000573914Y0003077639D01*
X0000574207Y0003078127D01*
X0000574546Y0003078585D01*
X0000574929Y0003079007D01*
X0000575351Y0003079390D01*
X0000575809Y0003079730D01*
X0000576297Y0003080022D01*
X0000576813Y0003080266D01*
X0000577349Y0003080458D01*
X0000577902Y0003080597D01*
X0000578466Y0003080680D01*
X0000579035Y0003080708D01*
X0000592618Y0003080708D01*
X0000593187Y0003080680D01*
G37*
G36*
X0000633738Y0003042491D02*
G01*
X0000634302Y0003042408D01*
X0000634854Y0003042269D01*
X0000635391Y0003042077D01*
X0000635906Y0003041833D01*
X0000636395Y0003041541D01*
X0000636853Y0003041201D01*
X0000637275Y0003040818D01*
X0000637658Y0003040396D01*
X0000637997Y0003039938D01*
X0000638290Y0003039450D01*
X0000638534Y0003038934D01*
X0000638726Y0003038398D01*
X0000638864Y0003037845D01*
X0000638948Y0003037281D01*
X0000638976Y0003036712D01*
X0000638976Y0003025098D01*
X0000638948Y0003024529D01*
X0000638864Y0003023965D01*
X0000638726Y0003023412D01*
X0000638534Y0003022876D01*
X0000638290Y0003022360D01*
X0000637997Y0003021872D01*
X0000637658Y0003021414D01*
X0000637275Y0003020992D01*
X0000636853Y0003020609D01*
X0000636395Y0003020270D01*
X0000635906Y0003019977D01*
X0000635391Y0003019733D01*
X0000634854Y0003019541D01*
X0000634302Y0003019402D01*
X0000633738Y0003019319D01*
X0000633169Y0003019291D01*
X0000619586Y0003019291D01*
X0000619017Y0003019319D01*
X0000618453Y0003019402D01*
X0000617900Y0003019541D01*
X0000617364Y0003019733D01*
X0000616849Y0003019977D01*
X0000616360Y0003020270D01*
X0000615902Y0003020609D01*
X0000615480Y0003020992D01*
X0000615097Y0003021414D01*
X0000614758Y0003021872D01*
X0000614465Y0003022360D01*
X0000614221Y0003022876D01*
X0000614029Y0003023412D01*
X0000613891Y0003023965D01*
X0000613807Y0003024529D01*
X0000613779Y0003025098D01*
X0000613779Y0003036712D01*
X0000613807Y0003037281D01*
X0000613891Y0003037845D01*
X0000614029Y0003038398D01*
X0000614221Y0003038934D01*
X0000614465Y0003039450D01*
X0000614758Y0003039938D01*
X0000615097Y0003040396D01*
X0000615480Y0003040818D01*
X0000615902Y0003041201D01*
X0000616360Y0003041541D01*
X0000616849Y0003041833D01*
X0000617364Y0003042077D01*
X0000617900Y0003042269D01*
X0000618453Y0003042408D01*
X0000619017Y0003042491D01*
X0000619586Y0003042519D01*
X0000633169Y0003042519D01*
X0000633738Y0003042491D01*
G37*
G36*
X0000633738Y0003080680D02*
G01*
X0000634302Y0003080597D01*
X0000634854Y0003080458D01*
X0000635391Y0003080266D01*
X0000635906Y0003080022D01*
X0000636395Y0003079730D01*
X0000636853Y0003079390D01*
X0000637275Y0003079007D01*
X0000637658Y0003078585D01*
X0000637997Y0003078127D01*
X0000638290Y0003077639D01*
X0000638534Y0003077123D01*
X0000638726Y0003076587D01*
X0000638864Y0003076034D01*
X0000638948Y0003075470D01*
X0000638976Y0003074901D01*
X0000638976Y0003063287D01*
X0000638948Y0003062718D01*
X0000638864Y0003062154D01*
X0000638726Y0003061601D01*
X0000638534Y0003061065D01*
X0000638290Y0003060549D01*
X0000637997Y0003060061D01*
X0000637658Y0003059603D01*
X0000637275Y0003059181D01*
X0000636853Y0003058798D01*
X0000636395Y0003058458D01*
X0000635906Y0003058166D01*
X0000635391Y0003057922D01*
X0000634854Y0003057730D01*
X0000634302Y0003057591D01*
X0000633738Y0003057508D01*
X0000633169Y0003057480D01*
X0000619586Y0003057480D01*
X0000619017Y0003057508D01*
X0000618453Y0003057591D01*
X0000617900Y0003057730D01*
X0000617364Y0003057922D01*
X0000616849Y0003058166D01*
X0000616360Y0003058458D01*
X0000615902Y0003058798D01*
X0000615480Y0003059181D01*
X0000615097Y0003059603D01*
X0000614758Y0003060061D01*
X0000614465Y0003060549D01*
X0000614221Y0003061065D01*
X0000614029Y0003061601D01*
X0000613891Y0003062154D01*
X0000613807Y0003062718D01*
X0000613779Y0003063287D01*
X0000613779Y0003074901D01*
X0000613807Y0003075470D01*
X0000613891Y0003076034D01*
X0000614029Y0003076587D01*
X0000614221Y0003077123D01*
X0000614465Y0003077639D01*
X0000614758Y0003078127D01*
X0000615097Y0003078585D01*
X0000615480Y0003079007D01*
X0000615902Y0003079390D01*
X0000616360Y0003079730D01*
X0000616849Y0003080022D01*
X0000617364Y0003080266D01*
X0000617900Y0003080458D01*
X0000618453Y0003080597D01*
X0000619017Y0003080680D01*
X0000619586Y0003080708D01*
X0000633169Y0003080708D01*
X0000633738Y0003080680D01*
G37*
D33*
X0000551181Y0002974409D03*
X0000551181Y0002994094D03*
X0000570866Y0002994094D03*
X0000531496Y0002994094D03*
X0000531496Y0002974409D03*
X0000570866Y0002974409D03*
X0000570866Y0002954724D03*
X0000551181Y0002954724D03*
X0000531496Y0002954724D03*
G04 next file*
G04 #@! TF.GenerationSoftware,KiCad,Pcbnew,(5.1.5)-3*
G04 #@! TF.CreationDate,2021-04-29T13:46:15+02:00*
G04 #@! TF.ProjectId,Hivetracker,48697665-7472-4616-936b-65722e6b6963,rev?*
G04 #@! TF.SameCoordinates,PX2562500PY28a0640*
G04 #@! TF.FileFunction,Paste,Bot*
G04 #@! TF.FilePolarity,Positive*
G04 Gerber Fmt 4.6, Leading zero omitted, Abs format (unit mm)*
G04 Created by KiCad (PCBNEW (5.1.5)-3) date 2021-04-29 13:46:15*
G04 APERTURE LIST*
G04 APERTURE END LIST*
D34*
G36*
X0000849880Y0002931468D02*
G01*
X0000850443Y0002931384D01*
X0000850996Y0002931246D01*
X0000851533Y0002931054D01*
X0000852048Y0002930810D01*
X0000852537Y0002930517D01*
X0000852995Y0002930177D01*
X0000853417Y0002929795D01*
X0000853799Y0002929372D01*
X0000854139Y0002928915D01*
X0000854432Y0002928426D01*
X0000854676Y0002927911D01*
X0000854868Y0002927374D01*
X0000855006Y0002926821D01*
X0000855090Y0002926258D01*
X0000855118Y0002925688D01*
X0000855118Y0002914074D01*
X0000855090Y0002913505D01*
X0000855006Y0002912941D01*
X0000854868Y0002912389D01*
X0000854676Y0002911852D01*
X0000854432Y0002911337D01*
X0000854139Y0002910848D01*
X0000853799Y0002910390D01*
X0000853417Y0002909968D01*
X0000852995Y0002909585D01*
X0000852537Y0002909246D01*
X0000852048Y0002908953D01*
X0000851533Y0002908709D01*
X0000850996Y0002908517D01*
X0000850443Y0002908379D01*
X0000849880Y0002908295D01*
X0000849311Y0002908267D01*
X0000835728Y0002908267D01*
X0000835159Y0002908295D01*
X0000834595Y0002908379D01*
X0000834042Y0002908517D01*
X0000833506Y0002908709D01*
X0000832990Y0002908953D01*
X0000832502Y0002909246D01*
X0000832044Y0002909585D01*
X0000831622Y0002909968D01*
X0000831239Y0002910390D01*
X0000830899Y0002910848D01*
X0000830606Y0002911337D01*
X0000830363Y0002911852D01*
X0000830171Y0002912389D01*
X0000830032Y0002912941D01*
X0000829949Y0002913505D01*
X0000829921Y0002914074D01*
X0000829921Y0002925688D01*
X0000829949Y0002926258D01*
X0000830032Y0002926821D01*
X0000830171Y0002927374D01*
X0000830363Y0002927911D01*
X0000830606Y0002928426D01*
X0000830899Y0002928915D01*
X0000831239Y0002929372D01*
X0000831622Y0002929795D01*
X0000832044Y0002930177D01*
X0000832502Y0002930517D01*
X0000832990Y0002930810D01*
X0000833506Y0002931054D01*
X0000834042Y0002931246D01*
X0000834595Y0002931384D01*
X0000835159Y0002931468D01*
X0000835728Y0002931496D01*
X0000849311Y0002931496D01*
X0000849880Y0002931468D01*
G37*
G36*
X0000849880Y0002969657D02*
G01*
X0000850443Y0002969573D01*
X0000850996Y0002969435D01*
X0000851533Y0002969242D01*
X0000852048Y0002968999D01*
X0000852537Y0002968706D01*
X0000852995Y0002968366D01*
X0000853417Y0002967984D01*
X0000853799Y0002967561D01*
X0000854139Y0002967104D01*
X0000854432Y0002966615D01*
X0000854676Y0002966100D01*
X0000854868Y0002965563D01*
X0000855006Y0002965010D01*
X0000855090Y0002964447D01*
X0000855118Y0002963877D01*
X0000855118Y0002952263D01*
X0000855090Y0002951694D01*
X0000855006Y0002951130D01*
X0000854868Y0002950578D01*
X0000854676Y0002950041D01*
X0000854432Y0002949526D01*
X0000854139Y0002949037D01*
X0000853799Y0002948579D01*
X0000853417Y0002948157D01*
X0000852995Y0002947774D01*
X0000852537Y0002947435D01*
X0000852048Y0002947142D01*
X0000851533Y0002946898D01*
X0000850996Y0002946706D01*
X0000850443Y0002946568D01*
X0000849880Y0002946484D01*
X0000849311Y0002946456D01*
X0000835728Y0002946456D01*
X0000835159Y0002946484D01*
X0000834595Y0002946568D01*
X0000834042Y0002946706D01*
X0000833506Y0002946898D01*
X0000832990Y0002947142D01*
X0000832502Y0002947435D01*
X0000832044Y0002947774D01*
X0000831622Y0002948157D01*
X0000831239Y0002948579D01*
X0000830899Y0002949037D01*
X0000830606Y0002949526D01*
X0000830363Y0002950041D01*
X0000830171Y0002950578D01*
X0000830032Y0002951130D01*
X0000829949Y0002951694D01*
X0000829921Y0002952263D01*
X0000829921Y0002963877D01*
X0000829949Y0002964447D01*
X0000830032Y0002965010D01*
X0000830171Y0002965563D01*
X0000830363Y0002966100D01*
X0000830606Y0002966615D01*
X0000830899Y0002967104D01*
X0000831239Y0002967561D01*
X0000831622Y0002967984D01*
X0000832044Y0002968366D01*
X0000832502Y0002968706D01*
X0000832990Y0002968999D01*
X0000833506Y0002969242D01*
X0000834042Y0002969435D01*
X0000834595Y0002969573D01*
X0000835159Y0002969657D01*
X0000835728Y0002969685D01*
X0000849311Y0002969685D01*
X0000849880Y0002969657D01*
G37*
G36*
X0000986888Y0003042491D02*
G01*
X0000987451Y0003042408D01*
X0000988004Y0003042269D01*
X0000988541Y0003042077D01*
X0000989056Y0003041833D01*
X0000989545Y0003041541D01*
X0000990002Y0003041201D01*
X0000990425Y0003040818D01*
X0000990807Y0003040396D01*
X0000991147Y0003039938D01*
X0000991440Y0003039450D01*
X0000991683Y0003038934D01*
X0000991875Y0003038398D01*
X0000992014Y0003037845D01*
X0000992098Y0003037281D01*
X0000992125Y0003036712D01*
X0000992125Y0003025098D01*
X0000992098Y0003024529D01*
X0000992014Y0003023965D01*
X0000991875Y0003023412D01*
X0000991683Y0003022876D01*
X0000991440Y0003022360D01*
X0000991147Y0003021872D01*
X0000990807Y0003021414D01*
X0000990425Y0003020992D01*
X0000990002Y0003020609D01*
X0000989545Y0003020270D01*
X0000989056Y0003019977D01*
X0000988541Y0003019733D01*
X0000988004Y0003019541D01*
X0000987451Y0003019402D01*
X0000986888Y0003019319D01*
X0000986318Y0003019291D01*
X0000972736Y0003019291D01*
X0000972167Y0003019319D01*
X0000971603Y0003019402D01*
X0000971050Y0003019541D01*
X0000970513Y0003019733D01*
X0000969998Y0003019977D01*
X0000969509Y0003020270D01*
X0000969052Y0003020609D01*
X0000968630Y0003020992D01*
X0000968247Y0003021414D01*
X0000967907Y0003021872D01*
X0000967614Y0003022360D01*
X0000967371Y0003022876D01*
X0000967179Y0003023412D01*
X0000967040Y0003023965D01*
X0000966957Y0003024529D01*
X0000966929Y0003025098D01*
X0000966929Y0003036712D01*
X0000966957Y0003037281D01*
X0000967040Y0003037845D01*
X0000967179Y0003038398D01*
X0000967371Y0003038934D01*
X0000967614Y0003039450D01*
X0000967907Y0003039938D01*
X0000968247Y0003040396D01*
X0000968630Y0003040818D01*
X0000969052Y0003041201D01*
X0000969509Y0003041541D01*
X0000969998Y0003041833D01*
X0000970513Y0003042077D01*
X0000971050Y0003042269D01*
X0000971603Y0003042408D01*
X0000972167Y0003042491D01*
X0000972736Y0003042519D01*
X0000986318Y0003042519D01*
X0000986888Y0003042491D01*
G37*
G36*
X0000986888Y0003080680D02*
G01*
X0000987451Y0003080597D01*
X0000988004Y0003080458D01*
X0000988541Y0003080266D01*
X0000989056Y0003080022D01*
X0000989545Y0003079730D01*
X0000990002Y0003079390D01*
X0000990425Y0003079007D01*
X0000990807Y0003078585D01*
X0000991147Y0003078127D01*
X0000991440Y0003077639D01*
X0000991683Y0003077123D01*
X0000991875Y0003076587D01*
X0000992014Y0003076034D01*
X0000992098Y0003075470D01*
X0000992125Y0003074901D01*
X0000992125Y0003063287D01*
X0000992098Y0003062718D01*
X0000992014Y0003062154D01*
X0000991875Y0003061601D01*
X0000991683Y0003061065D01*
X0000991440Y0003060549D01*
X0000991147Y0003060061D01*
X0000990807Y0003059603D01*
X0000990425Y0003059181D01*
X0000990002Y0003058798D01*
X0000989545Y0003058458D01*
X0000989056Y0003058166D01*
X0000988541Y0003057922D01*
X0000988004Y0003057730D01*
X0000987451Y0003057591D01*
X0000986888Y0003057508D01*
X0000986318Y0003057480D01*
X0000972736Y0003057480D01*
X0000972167Y0003057508D01*
X0000971603Y0003057591D01*
X0000971050Y0003057730D01*
X0000970513Y0003057922D01*
X0000969998Y0003058166D01*
X0000969509Y0003058458D01*
X0000969052Y0003058798D01*
X0000968630Y0003059181D01*
X0000968247Y0003059603D01*
X0000967907Y0003060061D01*
X0000967614Y0003060549D01*
X0000967371Y0003061065D01*
X0000967179Y0003061601D01*
X0000967040Y0003062154D01*
X0000966957Y0003062718D01*
X0000966929Y0003063287D01*
X0000966929Y0003074901D01*
X0000966957Y0003075470D01*
X0000967040Y0003076034D01*
X0000967179Y0003076587D01*
X0000967371Y0003077123D01*
X0000967614Y0003077639D01*
X0000967907Y0003078127D01*
X0000968247Y0003078585D01*
X0000968630Y0003079007D01*
X0000969052Y0003079390D01*
X0000969509Y0003079730D01*
X0000969998Y0003080022D01*
X0000970513Y0003080266D01*
X0000971050Y0003080458D01*
X0000971603Y0003080597D01*
X0000972167Y0003080680D01*
X0000972736Y0003080708D01*
X0000986318Y0003080708D01*
X0000986888Y0003080680D01*
G37*
G36*
X0001027439Y0003042491D02*
G01*
X0001028002Y0003042408D01*
X0001028555Y0003042269D01*
X0001029092Y0003042077D01*
X0001029607Y0003041833D01*
X0001030096Y0003041541D01*
X0001030554Y0003041201D01*
X0001030976Y0003040818D01*
X0001031359Y0003040396D01*
X0001031698Y0003039938D01*
X0001031991Y0003039450D01*
X0001032235Y0003038934D01*
X0001032427Y0003038398D01*
X0001032565Y0003037845D01*
X0001032649Y0003037281D01*
X0001032677Y0003036712D01*
X0001032677Y0003025098D01*
X0001032649Y0003024529D01*
X0001032565Y0003023965D01*
X0001032427Y0003023412D01*
X0001032235Y0003022876D01*
X0001031991Y0003022360D01*
X0001031698Y0003021872D01*
X0001031359Y0003021414D01*
X0001030976Y0003020992D01*
X0001030554Y0003020609D01*
X0001030096Y0003020270D01*
X0001029607Y0003019977D01*
X0001029092Y0003019733D01*
X0001028555Y0003019541D01*
X0001028002Y0003019402D01*
X0001027439Y0003019319D01*
X0001026870Y0003019291D01*
X0001013287Y0003019291D01*
X0001012718Y0003019319D01*
X0001012154Y0003019402D01*
X0001011601Y0003019541D01*
X0001011065Y0003019733D01*
X0001010549Y0003019977D01*
X0001010061Y0003020270D01*
X0001009603Y0003020609D01*
X0001009181Y0003020992D01*
X0001008798Y0003021414D01*
X0001008458Y0003021872D01*
X0001008165Y0003022360D01*
X0001007922Y0003022876D01*
X0001007730Y0003023412D01*
X0001007591Y0003023965D01*
X0001007508Y0003024529D01*
X0001007480Y0003025098D01*
X0001007480Y0003036712D01*
X0001007508Y0003037281D01*
X0001007591Y0003037845D01*
X0001007730Y0003038398D01*
X0001007922Y0003038934D01*
X0001008165Y0003039450D01*
X0001008458Y0003039938D01*
X0001008798Y0003040396D01*
X0001009181Y0003040818D01*
X0001009603Y0003041201D01*
X0001010061Y0003041541D01*
X0001010549Y0003041833D01*
X0001011065Y0003042077D01*
X0001011601Y0003042269D01*
X0001012154Y0003042408D01*
X0001012718Y0003042491D01*
X0001013287Y0003042519D01*
X0001026870Y0003042519D01*
X0001027439Y0003042491D01*
G37*
G36*
X0001027439Y0003080680D02*
G01*
X0001028002Y0003080597D01*
X0001028555Y0003080458D01*
X0001029092Y0003080266D01*
X0001029607Y0003080022D01*
X0001030096Y0003079730D01*
X0001030554Y0003079390D01*
X0001030976Y0003079007D01*
X0001031359Y0003078585D01*
X0001031698Y0003078127D01*
X0001031991Y0003077639D01*
X0001032235Y0003077123D01*
X0001032427Y0003076587D01*
X0001032565Y0003076034D01*
X0001032649Y0003075470D01*
X0001032677Y0003074901D01*
X0001032677Y0003063287D01*
X0001032649Y0003062718D01*
X0001032565Y0003062154D01*
X0001032427Y0003061601D01*
X0001032235Y0003061065D01*
X0001031991Y0003060549D01*
X0001031698Y0003060061D01*
X0001031359Y0003059603D01*
X0001030976Y0003059181D01*
X0001030554Y0003058798D01*
X0001030096Y0003058458D01*
X0001029607Y0003058166D01*
X0001029092Y0003057922D01*
X0001028555Y0003057730D01*
X0001028002Y0003057591D01*
X0001027439Y0003057508D01*
X0001026870Y0003057480D01*
X0001013287Y0003057480D01*
X0001012718Y0003057508D01*
X0001012154Y0003057591D01*
X0001011601Y0003057730D01*
X0001011065Y0003057922D01*
X0001010549Y0003058166D01*
X0001010061Y0003058458D01*
X0001009603Y0003058798D01*
X0001009181Y0003059181D01*
X0001008798Y0003059603D01*
X0001008458Y0003060061D01*
X0001008165Y0003060549D01*
X0001007922Y0003061065D01*
X0001007730Y0003061601D01*
X0001007591Y0003062154D01*
X0001007508Y0003062718D01*
X0001007480Y0003063287D01*
X0001007480Y0003074901D01*
X0001007508Y0003075470D01*
X0001007591Y0003076034D01*
X0001007730Y0003076587D01*
X0001007922Y0003077123D01*
X0001008165Y0003077639D01*
X0001008458Y0003078127D01*
X0001008798Y0003078585D01*
X0001009181Y0003079007D01*
X0001009603Y0003079390D01*
X0001010061Y0003079730D01*
X0001010549Y0003080022D01*
X0001011065Y0003080266D01*
X0001011601Y0003080458D01*
X0001012154Y0003080597D01*
X0001012718Y0003080680D01*
X0001013287Y0003080708D01*
X0001026870Y0003080708D01*
X0001027439Y0003080680D01*
G37*
D35*
X0000944881Y0002974409D03*
X0000944881Y0002994094D03*
X0000964566Y0002994094D03*
X0000925196Y0002994094D03*
X0000925196Y0002974409D03*
X0000964566Y0002974409D03*
X0000964566Y0002954724D03*
X0000944881Y0002954724D03*
X0000925196Y0002954724D03*
G04 next file*
G04 #@! TF.GenerationSoftware,KiCad,Pcbnew,(5.1.5)-3*
G04 #@! TF.CreationDate,2021-04-29T13:46:15+02:00*
G04 #@! TF.ProjectId,Hivetracker,48697665-7472-4616-936b-65722e6b6963,rev?*
G04 #@! TF.SameCoordinates,PX2562500PY28a0640*
G04 #@! TF.FileFunction,Paste,Bot*
G04 #@! TF.FilePolarity,Positive*
G04 Gerber Fmt 4.6, Leading zero omitted, Abs format (unit mm)*
G04 Created by KiCad (PCBNEW (5.1.5)-3) date 2021-04-29 13:46:15*
G04 APERTURE LIST*
G04 APERTURE END LIST*
D36*
G36*
X0000849880Y0003325168D02*
G01*
X0000850443Y0003325085D01*
X0000850996Y0003324946D01*
X0000851533Y0003324754D01*
X0000852048Y0003324511D01*
X0000852537Y0003324218D01*
X0000852995Y0003323878D01*
X0000853417Y0003323495D01*
X0000853799Y0003323073D01*
X0000854139Y0003322616D01*
X0000854432Y0003322127D01*
X0000854676Y0003321612D01*
X0000854868Y0003321075D01*
X0000855006Y0003320522D01*
X0000855090Y0003319958D01*
X0000855118Y0003319389D01*
X0000855118Y0003307775D01*
X0000855090Y0003307206D01*
X0000855006Y0003306642D01*
X0000854868Y0003306089D01*
X0000854676Y0003305553D01*
X0000854432Y0003305038D01*
X0000854139Y0003304549D01*
X0000853799Y0003304091D01*
X0000853417Y0003303669D01*
X0000852995Y0003303286D01*
X0000852537Y0003302947D01*
X0000852048Y0003302654D01*
X0000851533Y0003302410D01*
X0000850996Y0003302218D01*
X0000850443Y0003302080D01*
X0000849880Y0003301996D01*
X0000849311Y0003301968D01*
X0000835728Y0003301968D01*
X0000835159Y0003301996D01*
X0000834595Y0003302080D01*
X0000834042Y0003302218D01*
X0000833506Y0003302410D01*
X0000832990Y0003302654D01*
X0000832502Y0003302947D01*
X0000832044Y0003303286D01*
X0000831622Y0003303669D01*
X0000831239Y0003304091D01*
X0000830899Y0003304549D01*
X0000830606Y0003305038D01*
X0000830363Y0003305553D01*
X0000830171Y0003306089D01*
X0000830032Y0003306642D01*
X0000829949Y0003307206D01*
X0000829921Y0003307775D01*
X0000829921Y0003319389D01*
X0000829949Y0003319958D01*
X0000830032Y0003320522D01*
X0000830171Y0003321075D01*
X0000830363Y0003321612D01*
X0000830606Y0003322127D01*
X0000830899Y0003322616D01*
X0000831239Y0003323073D01*
X0000831622Y0003323495D01*
X0000832044Y0003323878D01*
X0000832502Y0003324218D01*
X0000832990Y0003324511D01*
X0000833506Y0003324754D01*
X0000834042Y0003324946D01*
X0000834595Y0003325085D01*
X0000835159Y0003325168D01*
X0000835728Y0003325196D01*
X0000849311Y0003325196D01*
X0000849880Y0003325168D01*
G37*
G36*
X0000849880Y0003363357D02*
G01*
X0000850443Y0003363274D01*
X0000850996Y0003363135D01*
X0000851533Y0003362943D01*
X0000852048Y0003362700D01*
X0000852537Y0003362407D01*
X0000852995Y0003362067D01*
X0000853417Y0003361684D01*
X0000853799Y0003361262D01*
X0000854139Y0003360805D01*
X0000854432Y0003360316D01*
X0000854676Y0003359801D01*
X0000854868Y0003359264D01*
X0000855006Y0003358711D01*
X0000855090Y0003358147D01*
X0000855118Y0003357578D01*
X0000855118Y0003345964D01*
X0000855090Y0003345395D01*
X0000855006Y0003344831D01*
X0000854868Y0003344278D01*
X0000854676Y0003343742D01*
X0000854432Y0003343227D01*
X0000854139Y0003342738D01*
X0000853799Y0003342280D01*
X0000853417Y0003341858D01*
X0000852995Y0003341475D01*
X0000852537Y0003341136D01*
X0000852048Y0003340843D01*
X0000851533Y0003340599D01*
X0000850996Y0003340407D01*
X0000850443Y0003340269D01*
X0000849880Y0003340185D01*
X0000849311Y0003340157D01*
X0000835728Y0003340157D01*
X0000835159Y0003340185D01*
X0000834595Y0003340269D01*
X0000834042Y0003340407D01*
X0000833506Y0003340599D01*
X0000832990Y0003340843D01*
X0000832502Y0003341136D01*
X0000832044Y0003341475D01*
X0000831622Y0003341858D01*
X0000831239Y0003342280D01*
X0000830899Y0003342738D01*
X0000830606Y0003343227D01*
X0000830363Y0003343742D01*
X0000830171Y0003344278D01*
X0000830032Y0003344831D01*
X0000829949Y0003345395D01*
X0000829921Y0003345964D01*
X0000829921Y0003357578D01*
X0000829949Y0003358147D01*
X0000830032Y0003358711D01*
X0000830171Y0003359264D01*
X0000830363Y0003359801D01*
X0000830606Y0003360316D01*
X0000830899Y0003360805D01*
X0000831239Y0003361262D01*
X0000831622Y0003361684D01*
X0000832044Y0003362067D01*
X0000832502Y0003362407D01*
X0000832990Y0003362700D01*
X0000833506Y0003362943D01*
X0000834042Y0003363135D01*
X0000834595Y0003363274D01*
X0000835159Y0003363357D01*
X0000835728Y0003363385D01*
X0000849311Y0003363385D01*
X0000849880Y0003363357D01*
G37*
G36*
X0000986888Y0003436192D02*
G01*
X0000987451Y0003436108D01*
X0000988004Y0003435970D01*
X0000988541Y0003435778D01*
X0000989056Y0003435534D01*
X0000989545Y0003435241D01*
X0000990002Y0003434902D01*
X0000990425Y0003434519D01*
X0000990807Y0003434097D01*
X0000991147Y0003433639D01*
X0000991440Y0003433150D01*
X0000991683Y0003432635D01*
X0000991875Y0003432099D01*
X0000992014Y0003431546D01*
X0000992098Y0003430982D01*
X0000992125Y0003430413D01*
X0000992125Y0003418799D01*
X0000992098Y0003418230D01*
X0000992014Y0003417666D01*
X0000991875Y0003417113D01*
X0000991683Y0003416576D01*
X0000991440Y0003416061D01*
X0000991147Y0003415572D01*
X0000990807Y0003415115D01*
X0000990425Y0003414692D01*
X0000990002Y0003414310D01*
X0000989545Y0003413970D01*
X0000989056Y0003413677D01*
X0000988541Y0003413434D01*
X0000988004Y0003413242D01*
X0000987451Y0003413103D01*
X0000986888Y0003413020D01*
X0000986318Y0003412992D01*
X0000972736Y0003412992D01*
X0000972167Y0003413020D01*
X0000971603Y0003413103D01*
X0000971050Y0003413242D01*
X0000970513Y0003413434D01*
X0000969998Y0003413677D01*
X0000969509Y0003413970D01*
X0000969052Y0003414310D01*
X0000968630Y0003414692D01*
X0000968247Y0003415115D01*
X0000967907Y0003415572D01*
X0000967614Y0003416061D01*
X0000967371Y0003416576D01*
X0000967179Y0003417113D01*
X0000967040Y0003417666D01*
X0000966957Y0003418230D01*
X0000966929Y0003418799D01*
X0000966929Y0003430413D01*
X0000966957Y0003430982D01*
X0000967040Y0003431546D01*
X0000967179Y0003432099D01*
X0000967371Y0003432635D01*
X0000967614Y0003433150D01*
X0000967907Y0003433639D01*
X0000968247Y0003434097D01*
X0000968630Y0003434519D01*
X0000969052Y0003434902D01*
X0000969509Y0003435241D01*
X0000969998Y0003435534D01*
X0000970513Y0003435778D01*
X0000971050Y0003435970D01*
X0000971603Y0003436108D01*
X0000972167Y0003436192D01*
X0000972736Y0003436220D01*
X0000986318Y0003436220D01*
X0000986888Y0003436192D01*
G37*
G36*
X0000986888Y0003474381D02*
G01*
X0000987451Y0003474297D01*
X0000988004Y0003474159D01*
X0000988541Y0003473967D01*
X0000989056Y0003473723D01*
X0000989545Y0003473430D01*
X0000990002Y0003473091D01*
X0000990425Y0003472708D01*
X0000990807Y0003472286D01*
X0000991147Y0003471828D01*
X0000991440Y0003471339D01*
X0000991683Y0003470824D01*
X0000991875Y0003470288D01*
X0000992014Y0003469735D01*
X0000992098Y0003469171D01*
X0000992125Y0003468602D01*
X0000992125Y0003456988D01*
X0000992098Y0003456418D01*
X0000992014Y0003455855D01*
X0000991875Y0003455302D01*
X0000991683Y0003454765D01*
X0000991440Y0003454250D01*
X0000991147Y0003453761D01*
X0000990807Y0003453304D01*
X0000990425Y0003452881D01*
X0000990002Y0003452499D01*
X0000989545Y0003452159D01*
X0000989056Y0003451866D01*
X0000988541Y0003451623D01*
X0000988004Y0003451431D01*
X0000987451Y0003451292D01*
X0000986888Y0003451209D01*
X0000986318Y0003451181D01*
X0000972736Y0003451181D01*
X0000972167Y0003451209D01*
X0000971603Y0003451292D01*
X0000971050Y0003451431D01*
X0000970513Y0003451623D01*
X0000969998Y0003451866D01*
X0000969509Y0003452159D01*
X0000969052Y0003452499D01*
X0000968630Y0003452881D01*
X0000968247Y0003453304D01*
X0000967907Y0003453761D01*
X0000967614Y0003454250D01*
X0000967371Y0003454765D01*
X0000967179Y0003455302D01*
X0000967040Y0003455855D01*
X0000966957Y0003456418D01*
X0000966929Y0003456988D01*
X0000966929Y0003468602D01*
X0000966957Y0003469171D01*
X0000967040Y0003469735D01*
X0000967179Y0003470288D01*
X0000967371Y0003470824D01*
X0000967614Y0003471339D01*
X0000967907Y0003471828D01*
X0000968247Y0003472286D01*
X0000968630Y0003472708D01*
X0000969052Y0003473091D01*
X0000969509Y0003473430D01*
X0000969998Y0003473723D01*
X0000970513Y0003473967D01*
X0000971050Y0003474159D01*
X0000971603Y0003474297D01*
X0000972167Y0003474381D01*
X0000972736Y0003474409D01*
X0000986318Y0003474409D01*
X0000986888Y0003474381D01*
G37*
G36*
X0001027439Y0003436192D02*
G01*
X0001028002Y0003436108D01*
X0001028555Y0003435970D01*
X0001029092Y0003435778D01*
X0001029607Y0003435534D01*
X0001030096Y0003435241D01*
X0001030554Y0003434902D01*
X0001030976Y0003434519D01*
X0001031359Y0003434097D01*
X0001031698Y0003433639D01*
X0001031991Y0003433150D01*
X0001032235Y0003432635D01*
X0001032427Y0003432099D01*
X0001032565Y0003431546D01*
X0001032649Y0003430982D01*
X0001032677Y0003430413D01*
X0001032677Y0003418799D01*
X0001032649Y0003418230D01*
X0001032565Y0003417666D01*
X0001032427Y0003417113D01*
X0001032235Y0003416576D01*
X0001031991Y0003416061D01*
X0001031698Y0003415572D01*
X0001031359Y0003415115D01*
X0001030976Y0003414692D01*
X0001030554Y0003414310D01*
X0001030096Y0003413970D01*
X0001029607Y0003413677D01*
X0001029092Y0003413434D01*
X0001028555Y0003413242D01*
X0001028002Y0003413103D01*
X0001027439Y0003413020D01*
X0001026870Y0003412992D01*
X0001013287Y0003412992D01*
X0001012718Y0003413020D01*
X0001012154Y0003413103D01*
X0001011601Y0003413242D01*
X0001011065Y0003413434D01*
X0001010549Y0003413677D01*
X0001010061Y0003413970D01*
X0001009603Y0003414310D01*
X0001009181Y0003414692D01*
X0001008798Y0003415115D01*
X0001008458Y0003415572D01*
X0001008165Y0003416061D01*
X0001007922Y0003416576D01*
X0001007730Y0003417113D01*
X0001007591Y0003417666D01*
X0001007508Y0003418230D01*
X0001007480Y0003418799D01*
X0001007480Y0003430413D01*
X0001007508Y0003430982D01*
X0001007591Y0003431546D01*
X0001007730Y0003432099D01*
X0001007922Y0003432635D01*
X0001008165Y0003433150D01*
X0001008458Y0003433639D01*
X0001008798Y0003434097D01*
X0001009181Y0003434519D01*
X0001009603Y0003434902D01*
X0001010061Y0003435241D01*
X0001010549Y0003435534D01*
X0001011065Y0003435778D01*
X0001011601Y0003435970D01*
X0001012154Y0003436108D01*
X0001012718Y0003436192D01*
X0001013287Y0003436220D01*
X0001026870Y0003436220D01*
X0001027439Y0003436192D01*
G37*
G36*
X0001027439Y0003474381D02*
G01*
X0001028002Y0003474297D01*
X0001028555Y0003474159D01*
X0001029092Y0003473967D01*
X0001029607Y0003473723D01*
X0001030096Y0003473430D01*
X0001030554Y0003473091D01*
X0001030976Y0003472708D01*
X0001031359Y0003472286D01*
X0001031698Y0003471828D01*
X0001031991Y0003471339D01*
X0001032235Y0003470824D01*
X0001032427Y0003470288D01*
X0001032565Y0003469735D01*
X0001032649Y0003469171D01*
X0001032677Y0003468602D01*
X0001032677Y0003456988D01*
X0001032649Y0003456418D01*
X0001032565Y0003455855D01*
X0001032427Y0003455302D01*
X0001032235Y0003454765D01*
X0001031991Y0003454250D01*
X0001031698Y0003453761D01*
X0001031359Y0003453304D01*
X0001030976Y0003452881D01*
X0001030554Y0003452499D01*
X0001030096Y0003452159D01*
X0001029607Y0003451866D01*
X0001029092Y0003451623D01*
X0001028555Y0003451431D01*
X0001028002Y0003451292D01*
X0001027439Y0003451209D01*
X0001026870Y0003451181D01*
X0001013287Y0003451181D01*
X0001012718Y0003451209D01*
X0001012154Y0003451292D01*
X0001011601Y0003451431D01*
X0001011065Y0003451623D01*
X0001010549Y0003451866D01*
X0001010061Y0003452159D01*
X0001009603Y0003452499D01*
X0001009181Y0003452881D01*
X0001008798Y0003453304D01*
X0001008458Y0003453761D01*
X0001008165Y0003454250D01*
X0001007922Y0003454765D01*
X0001007730Y0003455302D01*
X0001007591Y0003455855D01*
X0001007508Y0003456418D01*
X0001007480Y0003456988D01*
X0001007480Y0003468602D01*
X0001007508Y0003469171D01*
X0001007591Y0003469735D01*
X0001007730Y0003470288D01*
X0001007922Y0003470824D01*
X0001008165Y0003471339D01*
X0001008458Y0003471828D01*
X0001008798Y0003472286D01*
X0001009181Y0003472708D01*
X0001009603Y0003473091D01*
X0001010061Y0003473430D01*
X0001010549Y0003473723D01*
X0001011065Y0003473967D01*
X0001011601Y0003474159D01*
X0001012154Y0003474297D01*
X0001012718Y0003474381D01*
X0001013287Y0003474409D01*
X0001026870Y0003474409D01*
X0001027439Y0003474381D01*
G37*
D37*
X0000944881Y0003368110D03*
X0000944881Y0003387795D03*
X0000964566Y0003387795D03*
X0000925196Y0003387795D03*
X0000925196Y0003368110D03*
X0000964566Y0003368110D03*
X0000964566Y0003348425D03*
X0000944881Y0003348425D03*
X0000925196Y0003348425D03*
G04 next file*
G04 #@! TF.GenerationSoftware,KiCad,Pcbnew,(5.1.5)-3*
G04 #@! TF.CreationDate,2021-04-29T13:46:15+02:00*
G04 #@! TF.ProjectId,Hivetracker,48697665-7472-4616-936b-65722e6b6963,rev?*
G04 #@! TF.SameCoordinates,PX2562500PY28a0640*
G04 #@! TF.FileFunction,Paste,Bot*
G04 #@! TF.FilePolarity,Positive*
G04 Gerber Fmt 4.6, Leading zero omitted, Abs format (unit mm)*
G04 Created by KiCad (PCBNEW (5.1.5)-3) date 2021-04-29 13:46:15*
G04 APERTURE LIST*
G04 APERTURE END LIST*
D38*
G36*
X0001243581Y0003718869D02*
G01*
X0001244144Y0003718786D01*
X0001244697Y0003718647D01*
X0001245234Y0003718455D01*
X0001245749Y0003718211D01*
X0001246238Y0003717918D01*
X0001246695Y0003717579D01*
X0001247118Y0003717196D01*
X0001247500Y0003716774D01*
X0001247840Y0003716316D01*
X0001248133Y0003715827D01*
X0001248376Y0003715312D01*
X0001248568Y0003714776D01*
X0001248707Y0003714223D01*
X0001248790Y0003713659D01*
X0001248818Y0003713090D01*
X0001248818Y0003701476D01*
X0001248790Y0003700907D01*
X0001248707Y0003700343D01*
X0001248568Y0003699790D01*
X0001248376Y0003699254D01*
X0001248133Y0003698738D01*
X0001247840Y0003698250D01*
X0001247500Y0003697792D01*
X0001247118Y0003697370D01*
X0001246695Y0003696987D01*
X0001246238Y0003696647D01*
X0001245749Y0003696355D01*
X0001245234Y0003696111D01*
X0001244697Y0003695919D01*
X0001244144Y0003695780D01*
X0001243581Y0003695697D01*
X0001243011Y0003695669D01*
X0001229429Y0003695669D01*
X0001228859Y0003695697D01*
X0001228296Y0003695780D01*
X0001227743Y0003695919D01*
X0001227206Y0003696111D01*
X0001226691Y0003696355D01*
X0001226202Y0003696647D01*
X0001225745Y0003696987D01*
X0001225322Y0003697370D01*
X0001224940Y0003697792D01*
X0001224600Y0003698250D01*
X0001224307Y0003698738D01*
X0001224064Y0003699254D01*
X0001223872Y0003699790D01*
X0001223733Y0003700343D01*
X0001223650Y0003700907D01*
X0001223622Y0003701476D01*
X0001223622Y0003713090D01*
X0001223650Y0003713659D01*
X0001223733Y0003714223D01*
X0001223872Y0003714776D01*
X0001224064Y0003715312D01*
X0001224307Y0003715827D01*
X0001224600Y0003716316D01*
X0001224940Y0003716774D01*
X0001225322Y0003717196D01*
X0001225745Y0003717579D01*
X0001226202Y0003717918D01*
X0001226691Y0003718211D01*
X0001227206Y0003718455D01*
X0001227743Y0003718647D01*
X0001228296Y0003718786D01*
X0001228859Y0003718869D01*
X0001229429Y0003718897D01*
X0001243011Y0003718897D01*
X0001243581Y0003718869D01*
G37*
G36*
X0001243581Y0003757058D02*
G01*
X0001244144Y0003756975D01*
X0001244697Y0003756836D01*
X0001245234Y0003756644D01*
X0001245749Y0003756400D01*
X0001246238Y0003756107D01*
X0001246695Y0003755768D01*
X0001247118Y0003755385D01*
X0001247500Y0003754963D01*
X0001247840Y0003754505D01*
X0001248133Y0003754016D01*
X0001248376Y0003753501D01*
X0001248568Y0003752965D01*
X0001248707Y0003752412D01*
X0001248790Y0003751848D01*
X0001248818Y0003751279D01*
X0001248818Y0003739665D01*
X0001248790Y0003739096D01*
X0001248707Y0003738532D01*
X0001248568Y0003737979D01*
X0001248376Y0003737443D01*
X0001248133Y0003736927D01*
X0001247840Y0003736439D01*
X0001247500Y0003735981D01*
X0001247118Y0003735559D01*
X0001246695Y0003735176D01*
X0001246238Y0003734836D01*
X0001245749Y0003734543D01*
X0001245234Y0003734300D01*
X0001244697Y0003734108D01*
X0001244144Y0003733969D01*
X0001243581Y0003733886D01*
X0001243011Y0003733858D01*
X0001229429Y0003733858D01*
X0001228859Y0003733886D01*
X0001228296Y0003733969D01*
X0001227743Y0003734108D01*
X0001227206Y0003734300D01*
X0001226691Y0003734543D01*
X0001226202Y0003734836D01*
X0001225745Y0003735176D01*
X0001225322Y0003735559D01*
X0001224940Y0003735981D01*
X0001224600Y0003736439D01*
X0001224307Y0003736927D01*
X0001224064Y0003737443D01*
X0001223872Y0003737979D01*
X0001223733Y0003738532D01*
X0001223650Y0003739096D01*
X0001223622Y0003739665D01*
X0001223622Y0003751279D01*
X0001223650Y0003751848D01*
X0001223733Y0003752412D01*
X0001223872Y0003752965D01*
X0001224064Y0003753501D01*
X0001224307Y0003754016D01*
X0001224600Y0003754505D01*
X0001224940Y0003754963D01*
X0001225322Y0003755385D01*
X0001225745Y0003755768D01*
X0001226202Y0003756107D01*
X0001226691Y0003756400D01*
X0001227206Y0003756644D01*
X0001227743Y0003756836D01*
X0001228296Y0003756975D01*
X0001228859Y0003757058D01*
X0001229429Y0003757086D01*
X0001243011Y0003757086D01*
X0001243581Y0003757058D01*
G37*
G36*
X0001380588Y0003829893D02*
G01*
X0001381152Y0003829809D01*
X0001381705Y0003829671D01*
X0001382241Y0003829479D01*
X0001382757Y0003829235D01*
X0001383245Y0003828942D01*
X0001383703Y0003828603D01*
X0001384125Y0003828220D01*
X0001384508Y0003827798D01*
X0001384848Y0003827340D01*
X0001385141Y0003826851D01*
X0001385384Y0003826336D01*
X0001385576Y0003825799D01*
X0001385715Y0003825247D01*
X0001385798Y0003824683D01*
X0001385826Y0003824114D01*
X0001385826Y0003812500D01*
X0001385798Y0003811930D01*
X0001385715Y0003811367D01*
X0001385576Y0003810814D01*
X0001385384Y0003810277D01*
X0001385141Y0003809762D01*
X0001384848Y0003809273D01*
X0001384508Y0003808816D01*
X0001384125Y0003808393D01*
X0001383703Y0003808011D01*
X0001383245Y0003807671D01*
X0001382757Y0003807378D01*
X0001382241Y0003807134D01*
X0001381705Y0003806942D01*
X0001381152Y0003806804D01*
X0001380588Y0003806720D01*
X0001380019Y0003806692D01*
X0001366436Y0003806692D01*
X0001365867Y0003806720D01*
X0001365304Y0003806804D01*
X0001364751Y0003806942D01*
X0001364214Y0003807134D01*
X0001363699Y0003807378D01*
X0001363210Y0003807671D01*
X0001362753Y0003808011D01*
X0001362330Y0003808393D01*
X0001361948Y0003808816D01*
X0001361608Y0003809273D01*
X0001361315Y0003809762D01*
X0001361071Y0003810277D01*
X0001360879Y0003810814D01*
X0001360741Y0003811367D01*
X0001360657Y0003811930D01*
X0001360629Y0003812500D01*
X0001360629Y0003824114D01*
X0001360657Y0003824683D01*
X0001360741Y0003825247D01*
X0001360879Y0003825799D01*
X0001361071Y0003826336D01*
X0001361315Y0003826851D01*
X0001361608Y0003827340D01*
X0001361948Y0003827798D01*
X0001362330Y0003828220D01*
X0001362753Y0003828603D01*
X0001363210Y0003828942D01*
X0001363699Y0003829235D01*
X0001364214Y0003829479D01*
X0001364751Y0003829671D01*
X0001365304Y0003829809D01*
X0001365867Y0003829893D01*
X0001366436Y0003829921D01*
X0001380019Y0003829921D01*
X0001380588Y0003829893D01*
G37*
G36*
X0001380588Y0003868082D02*
G01*
X0001381152Y0003867998D01*
X0001381705Y0003867860D01*
X0001382241Y0003867668D01*
X0001382757Y0003867424D01*
X0001383245Y0003867131D01*
X0001383703Y0003866792D01*
X0001384125Y0003866409D01*
X0001384508Y0003865987D01*
X0001384848Y0003865529D01*
X0001385141Y0003865040D01*
X0001385384Y0003864525D01*
X0001385576Y0003863988D01*
X0001385715Y0003863436D01*
X0001385798Y0003862872D01*
X0001385826Y0003862303D01*
X0001385826Y0003850688D01*
X0001385798Y0003850119D01*
X0001385715Y0003849556D01*
X0001385576Y0003849003D01*
X0001385384Y0003848466D01*
X0001385141Y0003847951D01*
X0001384848Y0003847462D01*
X0001384508Y0003847005D01*
X0001384125Y0003846582D01*
X0001383703Y0003846200D01*
X0001383245Y0003845860D01*
X0001382757Y0003845567D01*
X0001382241Y0003845323D01*
X0001381705Y0003845131D01*
X0001381152Y0003844993D01*
X0001380588Y0003844909D01*
X0001380019Y0003844881D01*
X0001366436Y0003844881D01*
X0001365867Y0003844909D01*
X0001365304Y0003844993D01*
X0001364751Y0003845131D01*
X0001364214Y0003845323D01*
X0001363699Y0003845567D01*
X0001363210Y0003845860D01*
X0001362753Y0003846200D01*
X0001362330Y0003846582D01*
X0001361948Y0003847005D01*
X0001361608Y0003847462D01*
X0001361315Y0003847951D01*
X0001361071Y0003848466D01*
X0001360879Y0003849003D01*
X0001360741Y0003849556D01*
X0001360657Y0003850119D01*
X0001360629Y0003850688D01*
X0001360629Y0003862303D01*
X0001360657Y0003862872D01*
X0001360741Y0003863436D01*
X0001360879Y0003863988D01*
X0001361071Y0003864525D01*
X0001361315Y0003865040D01*
X0001361608Y0003865529D01*
X0001361948Y0003865987D01*
X0001362330Y0003866409D01*
X0001362753Y0003866792D01*
X0001363210Y0003867131D01*
X0001363699Y0003867424D01*
X0001364214Y0003867668D01*
X0001364751Y0003867860D01*
X0001365304Y0003867998D01*
X0001365867Y0003868082D01*
X0001366436Y0003868110D01*
X0001380019Y0003868110D01*
X0001380588Y0003868082D01*
G37*
G36*
X0001421140Y0003829893D02*
G01*
X0001421703Y0003829809D01*
X0001422256Y0003829671D01*
X0001422793Y0003829479D01*
X0001423308Y0003829235D01*
X0001423797Y0003828942D01*
X0001424254Y0003828603D01*
X0001424677Y0003828220D01*
X0001425059Y0003827798D01*
X0001425399Y0003827340D01*
X0001425692Y0003826851D01*
X0001425935Y0003826336D01*
X0001426127Y0003825799D01*
X0001426266Y0003825247D01*
X0001426350Y0003824683D01*
X0001426377Y0003824114D01*
X0001426377Y0003812500D01*
X0001426350Y0003811930D01*
X0001426266Y0003811367D01*
X0001426127Y0003810814D01*
X0001425935Y0003810277D01*
X0001425692Y0003809762D01*
X0001425399Y0003809273D01*
X0001425059Y0003808816D01*
X0001424677Y0003808393D01*
X0001424254Y0003808011D01*
X0001423797Y0003807671D01*
X0001423308Y0003807378D01*
X0001422793Y0003807134D01*
X0001422256Y0003806942D01*
X0001421703Y0003806804D01*
X0001421140Y0003806720D01*
X0001420570Y0003806692D01*
X0001406988Y0003806692D01*
X0001406418Y0003806720D01*
X0001405855Y0003806804D01*
X0001405302Y0003806942D01*
X0001404765Y0003807134D01*
X0001404250Y0003807378D01*
X0001403761Y0003807671D01*
X0001403304Y0003808011D01*
X0001402881Y0003808393D01*
X0001402499Y0003808816D01*
X0001402159Y0003809273D01*
X0001401866Y0003809762D01*
X0001401623Y0003810277D01*
X0001401431Y0003810814D01*
X0001401292Y0003811367D01*
X0001401209Y0003811930D01*
X0001401181Y0003812500D01*
X0001401181Y0003824114D01*
X0001401209Y0003824683D01*
X0001401292Y0003825247D01*
X0001401431Y0003825799D01*
X0001401623Y0003826336D01*
X0001401866Y0003826851D01*
X0001402159Y0003827340D01*
X0001402499Y0003827798D01*
X0001402881Y0003828220D01*
X0001403304Y0003828603D01*
X0001403761Y0003828942D01*
X0001404250Y0003829235D01*
X0001404765Y0003829479D01*
X0001405302Y0003829671D01*
X0001405855Y0003829809D01*
X0001406418Y0003829893D01*
X0001406988Y0003829921D01*
X0001420570Y0003829921D01*
X0001421140Y0003829893D01*
G37*
G36*
X0001421140Y0003868082D02*
G01*
X0001421703Y0003867998D01*
X0001422256Y0003867860D01*
X0001422793Y0003867668D01*
X0001423308Y0003867424D01*
X0001423797Y0003867131D01*
X0001424254Y0003866792D01*
X0001424677Y0003866409D01*
X0001425059Y0003865987D01*
X0001425399Y0003865529D01*
X0001425692Y0003865040D01*
X0001425935Y0003864525D01*
X0001426127Y0003863988D01*
X0001426266Y0003863436D01*
X0001426350Y0003862872D01*
X0001426377Y0003862303D01*
X0001426377Y0003850688D01*
X0001426350Y0003850119D01*
X0001426266Y0003849556D01*
X0001426127Y0003849003D01*
X0001425935Y0003848466D01*
X0001425692Y0003847951D01*
X0001425399Y0003847462D01*
X0001425059Y0003847005D01*
X0001424677Y0003846582D01*
X0001424254Y0003846200D01*
X0001423797Y0003845860D01*
X0001423308Y0003845567D01*
X0001422793Y0003845323D01*
X0001422256Y0003845131D01*
X0001421703Y0003844993D01*
X0001421140Y0003844909D01*
X0001420570Y0003844881D01*
X0001406988Y0003844881D01*
X0001406418Y0003844909D01*
X0001405855Y0003844993D01*
X0001405302Y0003845131D01*
X0001404765Y0003845323D01*
X0001404250Y0003845567D01*
X0001403761Y0003845860D01*
X0001403304Y0003846200D01*
X0001402881Y0003846582D01*
X0001402499Y0003847005D01*
X0001402159Y0003847462D01*
X0001401866Y0003847951D01*
X0001401623Y0003848466D01*
X0001401431Y0003849003D01*
X0001401292Y0003849556D01*
X0001401209Y0003850119D01*
X0001401181Y0003850688D01*
X0001401181Y0003862303D01*
X0001401209Y0003862872D01*
X0001401292Y0003863436D01*
X0001401431Y0003863988D01*
X0001401623Y0003864525D01*
X0001401866Y0003865040D01*
X0001402159Y0003865529D01*
X0001402499Y0003865987D01*
X0001402881Y0003866409D01*
X0001403304Y0003866792D01*
X0001403761Y0003867131D01*
X0001404250Y0003867424D01*
X0001404765Y0003867668D01*
X0001405302Y0003867860D01*
X0001405855Y0003867998D01*
X0001406418Y0003868082D01*
X0001406988Y0003868110D01*
X0001420570Y0003868110D01*
X0001421140Y0003868082D01*
G37*
D39*
X0001338582Y0003761811D03*
X0001338582Y0003781496D03*
X0001358267Y0003781496D03*
X0001318897Y0003781496D03*
X0001318897Y0003761811D03*
X0001358267Y0003761811D03*
X0001358267Y0003742125D03*
X0001338582Y0003742125D03*
X0001318897Y0003742125D03*
G04 next file*
G04 #@! TF.GenerationSoftware,KiCad,Pcbnew,(5.1.5)-3*
G04 #@! TF.CreationDate,2021-04-29T13:46:15+02:00*
G04 #@! TF.ProjectId,Hivetracker,48697665-7472-4616-936b-65722e6b6963,rev?*
G04 #@! TF.SameCoordinates,PX2562500PY28a0640*
G04 #@! TF.FileFunction,Paste,Bot*
G04 #@! TF.FilePolarity,Positive*
G04 Gerber Fmt 4.6, Leading zero omitted, Abs format (unit mm)*
G04 Created by KiCad (PCBNEW (5.1.5)-3) date 2021-04-29 13:46:15*
G04 APERTURE LIST*
G04 APERTURE END LIST*
D40*
G36*
X0001243581Y0003325168D02*
G01*
X0001244144Y0003325085D01*
X0001244697Y0003324946D01*
X0001245234Y0003324754D01*
X0001245749Y0003324511D01*
X0001246238Y0003324218D01*
X0001246695Y0003323878D01*
X0001247118Y0003323495D01*
X0001247500Y0003323073D01*
X0001247840Y0003322616D01*
X0001248133Y0003322127D01*
X0001248376Y0003321612D01*
X0001248568Y0003321075D01*
X0001248707Y0003320522D01*
X0001248790Y0003319958D01*
X0001248818Y0003319389D01*
X0001248818Y0003307775D01*
X0001248790Y0003307206D01*
X0001248707Y0003306642D01*
X0001248568Y0003306089D01*
X0001248376Y0003305553D01*
X0001248133Y0003305038D01*
X0001247840Y0003304549D01*
X0001247500Y0003304091D01*
X0001247118Y0003303669D01*
X0001246695Y0003303286D01*
X0001246238Y0003302947D01*
X0001245749Y0003302654D01*
X0001245234Y0003302410D01*
X0001244697Y0003302218D01*
X0001244144Y0003302080D01*
X0001243581Y0003301996D01*
X0001243011Y0003301968D01*
X0001229429Y0003301968D01*
X0001228859Y0003301996D01*
X0001228296Y0003302080D01*
X0001227743Y0003302218D01*
X0001227206Y0003302410D01*
X0001226691Y0003302654D01*
X0001226202Y0003302947D01*
X0001225745Y0003303286D01*
X0001225322Y0003303669D01*
X0001224940Y0003304091D01*
X0001224600Y0003304549D01*
X0001224307Y0003305038D01*
X0001224064Y0003305553D01*
X0001223872Y0003306089D01*
X0001223733Y0003306642D01*
X0001223650Y0003307206D01*
X0001223622Y0003307775D01*
X0001223622Y0003319389D01*
X0001223650Y0003319958D01*
X0001223733Y0003320522D01*
X0001223872Y0003321075D01*
X0001224064Y0003321612D01*
X0001224307Y0003322127D01*
X0001224600Y0003322616D01*
X0001224940Y0003323073D01*
X0001225322Y0003323495D01*
X0001225745Y0003323878D01*
X0001226202Y0003324218D01*
X0001226691Y0003324511D01*
X0001227206Y0003324754D01*
X0001227743Y0003324946D01*
X0001228296Y0003325085D01*
X0001228859Y0003325168D01*
X0001229429Y0003325196D01*
X0001243011Y0003325196D01*
X0001243581Y0003325168D01*
G37*
G36*
X0001243581Y0003363357D02*
G01*
X0001244144Y0003363274D01*
X0001244697Y0003363135D01*
X0001245234Y0003362943D01*
X0001245749Y0003362700D01*
X0001246238Y0003362407D01*
X0001246695Y0003362067D01*
X0001247118Y0003361684D01*
X0001247500Y0003361262D01*
X0001247840Y0003360805D01*
X0001248133Y0003360316D01*
X0001248376Y0003359801D01*
X0001248568Y0003359264D01*
X0001248707Y0003358711D01*
X0001248790Y0003358147D01*
X0001248818Y0003357578D01*
X0001248818Y0003345964D01*
X0001248790Y0003345395D01*
X0001248707Y0003344831D01*
X0001248568Y0003344278D01*
X0001248376Y0003343742D01*
X0001248133Y0003343227D01*
X0001247840Y0003342738D01*
X0001247500Y0003342280D01*
X0001247118Y0003341858D01*
X0001246695Y0003341475D01*
X0001246238Y0003341136D01*
X0001245749Y0003340843D01*
X0001245234Y0003340599D01*
X0001244697Y0003340407D01*
X0001244144Y0003340269D01*
X0001243581Y0003340185D01*
X0001243011Y0003340157D01*
X0001229429Y0003340157D01*
X0001228859Y0003340185D01*
X0001228296Y0003340269D01*
X0001227743Y0003340407D01*
X0001227206Y0003340599D01*
X0001226691Y0003340843D01*
X0001226202Y0003341136D01*
X0001225745Y0003341475D01*
X0001225322Y0003341858D01*
X0001224940Y0003342280D01*
X0001224600Y0003342738D01*
X0001224307Y0003343227D01*
X0001224064Y0003343742D01*
X0001223872Y0003344278D01*
X0001223733Y0003344831D01*
X0001223650Y0003345395D01*
X0001223622Y0003345964D01*
X0001223622Y0003357578D01*
X0001223650Y0003358147D01*
X0001223733Y0003358711D01*
X0001223872Y0003359264D01*
X0001224064Y0003359801D01*
X0001224307Y0003360316D01*
X0001224600Y0003360805D01*
X0001224940Y0003361262D01*
X0001225322Y0003361684D01*
X0001225745Y0003362067D01*
X0001226202Y0003362407D01*
X0001226691Y0003362700D01*
X0001227206Y0003362943D01*
X0001227743Y0003363135D01*
X0001228296Y0003363274D01*
X0001228859Y0003363357D01*
X0001229429Y0003363385D01*
X0001243011Y0003363385D01*
X0001243581Y0003363357D01*
G37*
G36*
X0001380588Y0003436192D02*
G01*
X0001381152Y0003436108D01*
X0001381705Y0003435970D01*
X0001382241Y0003435778D01*
X0001382757Y0003435534D01*
X0001383245Y0003435241D01*
X0001383703Y0003434902D01*
X0001384125Y0003434519D01*
X0001384508Y0003434097D01*
X0001384848Y0003433639D01*
X0001385141Y0003433150D01*
X0001385384Y0003432635D01*
X0001385576Y0003432099D01*
X0001385715Y0003431546D01*
X0001385798Y0003430982D01*
X0001385826Y0003430413D01*
X0001385826Y0003418799D01*
X0001385798Y0003418230D01*
X0001385715Y0003417666D01*
X0001385576Y0003417113D01*
X0001385384Y0003416576D01*
X0001385141Y0003416061D01*
X0001384848Y0003415572D01*
X0001384508Y0003415115D01*
X0001384125Y0003414692D01*
X0001383703Y0003414310D01*
X0001383245Y0003413970D01*
X0001382757Y0003413677D01*
X0001382241Y0003413434D01*
X0001381705Y0003413242D01*
X0001381152Y0003413103D01*
X0001380588Y0003413020D01*
X0001380019Y0003412992D01*
X0001366436Y0003412992D01*
X0001365867Y0003413020D01*
X0001365304Y0003413103D01*
X0001364751Y0003413242D01*
X0001364214Y0003413434D01*
X0001363699Y0003413677D01*
X0001363210Y0003413970D01*
X0001362753Y0003414310D01*
X0001362330Y0003414692D01*
X0001361948Y0003415115D01*
X0001361608Y0003415572D01*
X0001361315Y0003416061D01*
X0001361071Y0003416576D01*
X0001360879Y0003417113D01*
X0001360741Y0003417666D01*
X0001360657Y0003418230D01*
X0001360629Y0003418799D01*
X0001360629Y0003430413D01*
X0001360657Y0003430982D01*
X0001360741Y0003431546D01*
X0001360879Y0003432099D01*
X0001361071Y0003432635D01*
X0001361315Y0003433150D01*
X0001361608Y0003433639D01*
X0001361948Y0003434097D01*
X0001362330Y0003434519D01*
X0001362753Y0003434902D01*
X0001363210Y0003435241D01*
X0001363699Y0003435534D01*
X0001364214Y0003435778D01*
X0001364751Y0003435970D01*
X0001365304Y0003436108D01*
X0001365867Y0003436192D01*
X0001366436Y0003436220D01*
X0001380019Y0003436220D01*
X0001380588Y0003436192D01*
G37*
G36*
X0001380588Y0003474381D02*
G01*
X0001381152Y0003474297D01*
X0001381705Y0003474159D01*
X0001382241Y0003473967D01*
X0001382757Y0003473723D01*
X0001383245Y0003473430D01*
X0001383703Y0003473091D01*
X0001384125Y0003472708D01*
X0001384508Y0003472286D01*
X0001384848Y0003471828D01*
X0001385141Y0003471339D01*
X0001385384Y0003470824D01*
X0001385576Y0003470288D01*
X0001385715Y0003469735D01*
X0001385798Y0003469171D01*
X0001385826Y0003468602D01*
X0001385826Y0003456988D01*
X0001385798Y0003456418D01*
X0001385715Y0003455855D01*
X0001385576Y0003455302D01*
X0001385384Y0003454765D01*
X0001385141Y0003454250D01*
X0001384848Y0003453761D01*
X0001384508Y0003453304D01*
X0001384125Y0003452881D01*
X0001383703Y0003452499D01*
X0001383245Y0003452159D01*
X0001382757Y0003451866D01*
X0001382241Y0003451623D01*
X0001381705Y0003451431D01*
X0001381152Y0003451292D01*
X0001380588Y0003451209D01*
X0001380019Y0003451181D01*
X0001366436Y0003451181D01*
X0001365867Y0003451209D01*
X0001365304Y0003451292D01*
X0001364751Y0003451431D01*
X0001364214Y0003451623D01*
X0001363699Y0003451866D01*
X0001363210Y0003452159D01*
X0001362753Y0003452499D01*
X0001362330Y0003452881D01*
X0001361948Y0003453304D01*
X0001361608Y0003453761D01*
X0001361315Y0003454250D01*
X0001361071Y0003454765D01*
X0001360879Y0003455302D01*
X0001360741Y0003455855D01*
X0001360657Y0003456418D01*
X0001360629Y0003456988D01*
X0001360629Y0003468602D01*
X0001360657Y0003469171D01*
X0001360741Y0003469735D01*
X0001360879Y0003470288D01*
X0001361071Y0003470824D01*
X0001361315Y0003471339D01*
X0001361608Y0003471828D01*
X0001361948Y0003472286D01*
X0001362330Y0003472708D01*
X0001362753Y0003473091D01*
X0001363210Y0003473430D01*
X0001363699Y0003473723D01*
X0001364214Y0003473967D01*
X0001364751Y0003474159D01*
X0001365304Y0003474297D01*
X0001365867Y0003474381D01*
X0001366436Y0003474409D01*
X0001380019Y0003474409D01*
X0001380588Y0003474381D01*
G37*
G36*
X0001421140Y0003436192D02*
G01*
X0001421703Y0003436108D01*
X0001422256Y0003435970D01*
X0001422793Y0003435778D01*
X0001423308Y0003435534D01*
X0001423797Y0003435241D01*
X0001424254Y0003434902D01*
X0001424677Y0003434519D01*
X0001425059Y0003434097D01*
X0001425399Y0003433639D01*
X0001425692Y0003433150D01*
X0001425935Y0003432635D01*
X0001426127Y0003432099D01*
X0001426266Y0003431546D01*
X0001426350Y0003430982D01*
X0001426377Y0003430413D01*
X0001426377Y0003418799D01*
X0001426350Y0003418230D01*
X0001426266Y0003417666D01*
X0001426127Y0003417113D01*
X0001425935Y0003416576D01*
X0001425692Y0003416061D01*
X0001425399Y0003415572D01*
X0001425059Y0003415115D01*
X0001424677Y0003414692D01*
X0001424254Y0003414310D01*
X0001423797Y0003413970D01*
X0001423308Y0003413677D01*
X0001422793Y0003413434D01*
X0001422256Y0003413242D01*
X0001421703Y0003413103D01*
X0001421140Y0003413020D01*
X0001420570Y0003412992D01*
X0001406988Y0003412992D01*
X0001406418Y0003413020D01*
X0001405855Y0003413103D01*
X0001405302Y0003413242D01*
X0001404765Y0003413434D01*
X0001404250Y0003413677D01*
X0001403761Y0003413970D01*
X0001403304Y0003414310D01*
X0001402881Y0003414692D01*
X0001402499Y0003415115D01*
X0001402159Y0003415572D01*
X0001401866Y0003416061D01*
X0001401623Y0003416576D01*
X0001401431Y0003417113D01*
X0001401292Y0003417666D01*
X0001401209Y0003418230D01*
X0001401181Y0003418799D01*
X0001401181Y0003430413D01*
X0001401209Y0003430982D01*
X0001401292Y0003431546D01*
X0001401431Y0003432099D01*
X0001401623Y0003432635D01*
X0001401866Y0003433150D01*
X0001402159Y0003433639D01*
X0001402499Y0003434097D01*
X0001402881Y0003434519D01*
X0001403304Y0003434902D01*
X0001403761Y0003435241D01*
X0001404250Y0003435534D01*
X0001404765Y0003435778D01*
X0001405302Y0003435970D01*
X0001405855Y0003436108D01*
X0001406418Y0003436192D01*
X0001406988Y0003436220D01*
X0001420570Y0003436220D01*
X0001421140Y0003436192D01*
G37*
G36*
X0001421140Y0003474381D02*
G01*
X0001421703Y0003474297D01*
X0001422256Y0003474159D01*
X0001422793Y0003473967D01*
X0001423308Y0003473723D01*
X0001423797Y0003473430D01*
X0001424254Y0003473091D01*
X0001424677Y0003472708D01*
X0001425059Y0003472286D01*
X0001425399Y0003471828D01*
X0001425692Y0003471339D01*
X0001425935Y0003470824D01*
X0001426127Y0003470288D01*
X0001426266Y0003469735D01*
X0001426350Y0003469171D01*
X0001426377Y0003468602D01*
X0001426377Y0003456988D01*
X0001426350Y0003456418D01*
X0001426266Y0003455855D01*
X0001426127Y0003455302D01*
X0001425935Y0003454765D01*
X0001425692Y0003454250D01*
X0001425399Y0003453761D01*
X0001425059Y0003453304D01*
X0001424677Y0003452881D01*
X0001424254Y0003452499D01*
X0001423797Y0003452159D01*
X0001423308Y0003451866D01*
X0001422793Y0003451623D01*
X0001422256Y0003451431D01*
X0001421703Y0003451292D01*
X0001421140Y0003451209D01*
X0001420570Y0003451181D01*
X0001406988Y0003451181D01*
X0001406418Y0003451209D01*
X0001405855Y0003451292D01*
X0001405302Y0003451431D01*
X0001404765Y0003451623D01*
X0001404250Y0003451866D01*
X0001403761Y0003452159D01*
X0001403304Y0003452499D01*
X0001402881Y0003452881D01*
X0001402499Y0003453304D01*
X0001402159Y0003453761D01*
X0001401866Y0003454250D01*
X0001401623Y0003454765D01*
X0001401431Y0003455302D01*
X0001401292Y0003455855D01*
X0001401209Y0003456418D01*
X0001401181Y0003456988D01*
X0001401181Y0003468602D01*
X0001401209Y0003469171D01*
X0001401292Y0003469735D01*
X0001401431Y0003470288D01*
X0001401623Y0003470824D01*
X0001401866Y0003471339D01*
X0001402159Y0003471828D01*
X0001402499Y0003472286D01*
X0001402881Y0003472708D01*
X0001403304Y0003473091D01*
X0001403761Y0003473430D01*
X0001404250Y0003473723D01*
X0001404765Y0003473967D01*
X0001405302Y0003474159D01*
X0001405855Y0003474297D01*
X0001406418Y0003474381D01*
X0001406988Y0003474409D01*
X0001420570Y0003474409D01*
X0001421140Y0003474381D01*
G37*
D41*
X0001338582Y0003368110D03*
X0001338582Y0003387795D03*
X0001358267Y0003387795D03*
X0001318897Y0003387795D03*
X0001318897Y0003368110D03*
X0001358267Y0003368110D03*
X0001358267Y0003348425D03*
X0001338582Y0003348425D03*
X0001318897Y0003348425D03*
G04 next file*
G04 #@! TF.GenerationSoftware,KiCad,Pcbnew,(5.1.5)-3*
G04 #@! TF.CreationDate,2021-04-29T13:46:15+02:00*
G04 #@! TF.ProjectId,Hivetracker,48697665-7472-4616-936b-65722e6b6963,rev?*
G04 #@! TF.SameCoordinates,PX2562500PY28a0640*
G04 #@! TF.FileFunction,Paste,Bot*
G04 #@! TF.FilePolarity,Positive*
G04 Gerber Fmt 4.6, Leading zero omitted, Abs format (unit mm)*
G04 Created by KiCad (PCBNEW (5.1.5)-3) date 2021-04-29 13:46:15*
G04 APERTURE LIST*
G04 APERTURE END LIST*
D42*
G36*
X0001243581Y0002931468D02*
G01*
X0001244144Y0002931384D01*
X0001244697Y0002931246D01*
X0001245234Y0002931054D01*
X0001245749Y0002930810D01*
X0001246238Y0002930517D01*
X0001246695Y0002930177D01*
X0001247118Y0002929795D01*
X0001247500Y0002929372D01*
X0001247840Y0002928915D01*
X0001248133Y0002928426D01*
X0001248376Y0002927911D01*
X0001248568Y0002927374D01*
X0001248707Y0002926821D01*
X0001248790Y0002926258D01*
X0001248818Y0002925688D01*
X0001248818Y0002914074D01*
X0001248790Y0002913505D01*
X0001248707Y0002912941D01*
X0001248568Y0002912389D01*
X0001248376Y0002911852D01*
X0001248133Y0002911337D01*
X0001247840Y0002910848D01*
X0001247500Y0002910390D01*
X0001247118Y0002909968D01*
X0001246695Y0002909585D01*
X0001246238Y0002909246D01*
X0001245749Y0002908953D01*
X0001245234Y0002908709D01*
X0001244697Y0002908517D01*
X0001244144Y0002908379D01*
X0001243581Y0002908295D01*
X0001243011Y0002908267D01*
X0001229429Y0002908267D01*
X0001228859Y0002908295D01*
X0001228296Y0002908379D01*
X0001227743Y0002908517D01*
X0001227206Y0002908709D01*
X0001226691Y0002908953D01*
X0001226202Y0002909246D01*
X0001225745Y0002909585D01*
X0001225322Y0002909968D01*
X0001224940Y0002910390D01*
X0001224600Y0002910848D01*
X0001224307Y0002911337D01*
X0001224064Y0002911852D01*
X0001223872Y0002912389D01*
X0001223733Y0002912941D01*
X0001223650Y0002913505D01*
X0001223622Y0002914074D01*
X0001223622Y0002925688D01*
X0001223650Y0002926258D01*
X0001223733Y0002926821D01*
X0001223872Y0002927374D01*
X0001224064Y0002927911D01*
X0001224307Y0002928426D01*
X0001224600Y0002928915D01*
X0001224940Y0002929372D01*
X0001225322Y0002929795D01*
X0001225745Y0002930177D01*
X0001226202Y0002930517D01*
X0001226691Y0002930810D01*
X0001227206Y0002931054D01*
X0001227743Y0002931246D01*
X0001228296Y0002931384D01*
X0001228859Y0002931468D01*
X0001229429Y0002931496D01*
X0001243011Y0002931496D01*
X0001243581Y0002931468D01*
G37*
G36*
X0001243581Y0002969657D02*
G01*
X0001244144Y0002969573D01*
X0001244697Y0002969435D01*
X0001245234Y0002969242D01*
X0001245749Y0002968999D01*
X0001246238Y0002968706D01*
X0001246695Y0002968366D01*
X0001247118Y0002967984D01*
X0001247500Y0002967561D01*
X0001247840Y0002967104D01*
X0001248133Y0002966615D01*
X0001248376Y0002966100D01*
X0001248568Y0002965563D01*
X0001248707Y0002965010D01*
X0001248790Y0002964447D01*
X0001248818Y0002963877D01*
X0001248818Y0002952263D01*
X0001248790Y0002951694D01*
X0001248707Y0002951130D01*
X0001248568Y0002950578D01*
X0001248376Y0002950041D01*
X0001248133Y0002949526D01*
X0001247840Y0002949037D01*
X0001247500Y0002948579D01*
X0001247118Y0002948157D01*
X0001246695Y0002947774D01*
X0001246238Y0002947435D01*
X0001245749Y0002947142D01*
X0001245234Y0002946898D01*
X0001244697Y0002946706D01*
X0001244144Y0002946568D01*
X0001243581Y0002946484D01*
X0001243011Y0002946456D01*
X0001229429Y0002946456D01*
X0001228859Y0002946484D01*
X0001228296Y0002946568D01*
X0001227743Y0002946706D01*
X0001227206Y0002946898D01*
X0001226691Y0002947142D01*
X0001226202Y0002947435D01*
X0001225745Y0002947774D01*
X0001225322Y0002948157D01*
X0001224940Y0002948579D01*
X0001224600Y0002949037D01*
X0001224307Y0002949526D01*
X0001224064Y0002950041D01*
X0001223872Y0002950578D01*
X0001223733Y0002951130D01*
X0001223650Y0002951694D01*
X0001223622Y0002952263D01*
X0001223622Y0002963877D01*
X0001223650Y0002964447D01*
X0001223733Y0002965010D01*
X0001223872Y0002965563D01*
X0001224064Y0002966100D01*
X0001224307Y0002966615D01*
X0001224600Y0002967104D01*
X0001224940Y0002967561D01*
X0001225322Y0002967984D01*
X0001225745Y0002968366D01*
X0001226202Y0002968706D01*
X0001226691Y0002968999D01*
X0001227206Y0002969242D01*
X0001227743Y0002969435D01*
X0001228296Y0002969573D01*
X0001228859Y0002969657D01*
X0001229429Y0002969685D01*
X0001243011Y0002969685D01*
X0001243581Y0002969657D01*
G37*
G36*
X0001380588Y0003042491D02*
G01*
X0001381152Y0003042408D01*
X0001381705Y0003042269D01*
X0001382241Y0003042077D01*
X0001382757Y0003041833D01*
X0001383245Y0003041541D01*
X0001383703Y0003041201D01*
X0001384125Y0003040818D01*
X0001384508Y0003040396D01*
X0001384848Y0003039938D01*
X0001385141Y0003039450D01*
X0001385384Y0003038934D01*
X0001385576Y0003038398D01*
X0001385715Y0003037845D01*
X0001385798Y0003037281D01*
X0001385826Y0003036712D01*
X0001385826Y0003025098D01*
X0001385798Y0003024529D01*
X0001385715Y0003023965D01*
X0001385576Y0003023412D01*
X0001385384Y0003022876D01*
X0001385141Y0003022360D01*
X0001384848Y0003021872D01*
X0001384508Y0003021414D01*
X0001384125Y0003020992D01*
X0001383703Y0003020609D01*
X0001383245Y0003020270D01*
X0001382757Y0003019977D01*
X0001382241Y0003019733D01*
X0001381705Y0003019541D01*
X0001381152Y0003019402D01*
X0001380588Y0003019319D01*
X0001380019Y0003019291D01*
X0001366436Y0003019291D01*
X0001365867Y0003019319D01*
X0001365304Y0003019402D01*
X0001364751Y0003019541D01*
X0001364214Y0003019733D01*
X0001363699Y0003019977D01*
X0001363210Y0003020270D01*
X0001362753Y0003020609D01*
X0001362330Y0003020992D01*
X0001361948Y0003021414D01*
X0001361608Y0003021872D01*
X0001361315Y0003022360D01*
X0001361071Y0003022876D01*
X0001360879Y0003023412D01*
X0001360741Y0003023965D01*
X0001360657Y0003024529D01*
X0001360629Y0003025098D01*
X0001360629Y0003036712D01*
X0001360657Y0003037281D01*
X0001360741Y0003037845D01*
X0001360879Y0003038398D01*
X0001361071Y0003038934D01*
X0001361315Y0003039450D01*
X0001361608Y0003039938D01*
X0001361948Y0003040396D01*
X0001362330Y0003040818D01*
X0001362753Y0003041201D01*
X0001363210Y0003041541D01*
X0001363699Y0003041833D01*
X0001364214Y0003042077D01*
X0001364751Y0003042269D01*
X0001365304Y0003042408D01*
X0001365867Y0003042491D01*
X0001366436Y0003042519D01*
X0001380019Y0003042519D01*
X0001380588Y0003042491D01*
G37*
G36*
X0001380588Y0003080680D02*
G01*
X0001381152Y0003080597D01*
X0001381705Y0003080458D01*
X0001382241Y0003080266D01*
X0001382757Y0003080022D01*
X0001383245Y0003079730D01*
X0001383703Y0003079390D01*
X0001384125Y0003079007D01*
X0001384508Y0003078585D01*
X0001384848Y0003078127D01*
X0001385141Y0003077639D01*
X0001385384Y0003077123D01*
X0001385576Y0003076587D01*
X0001385715Y0003076034D01*
X0001385798Y0003075470D01*
X0001385826Y0003074901D01*
X0001385826Y0003063287D01*
X0001385798Y0003062718D01*
X0001385715Y0003062154D01*
X0001385576Y0003061601D01*
X0001385384Y0003061065D01*
X0001385141Y0003060549D01*
X0001384848Y0003060061D01*
X0001384508Y0003059603D01*
X0001384125Y0003059181D01*
X0001383703Y0003058798D01*
X0001383245Y0003058458D01*
X0001382757Y0003058166D01*
X0001382241Y0003057922D01*
X0001381705Y0003057730D01*
X0001381152Y0003057591D01*
X0001380588Y0003057508D01*
X0001380019Y0003057480D01*
X0001366436Y0003057480D01*
X0001365867Y0003057508D01*
X0001365304Y0003057591D01*
X0001364751Y0003057730D01*
X0001364214Y0003057922D01*
X0001363699Y0003058166D01*
X0001363210Y0003058458D01*
X0001362753Y0003058798D01*
X0001362330Y0003059181D01*
X0001361948Y0003059603D01*
X0001361608Y0003060061D01*
X0001361315Y0003060549D01*
X0001361071Y0003061065D01*
X0001360879Y0003061601D01*
X0001360741Y0003062154D01*
X0001360657Y0003062718D01*
X0001360629Y0003063287D01*
X0001360629Y0003074901D01*
X0001360657Y0003075470D01*
X0001360741Y0003076034D01*
X0001360879Y0003076587D01*
X0001361071Y0003077123D01*
X0001361315Y0003077639D01*
X0001361608Y0003078127D01*
X0001361948Y0003078585D01*
X0001362330Y0003079007D01*
X0001362753Y0003079390D01*
X0001363210Y0003079730D01*
X0001363699Y0003080022D01*
X0001364214Y0003080266D01*
X0001364751Y0003080458D01*
X0001365304Y0003080597D01*
X0001365867Y0003080680D01*
X0001366436Y0003080708D01*
X0001380019Y0003080708D01*
X0001380588Y0003080680D01*
G37*
G36*
X0001421140Y0003042491D02*
G01*
X0001421703Y0003042408D01*
X0001422256Y0003042269D01*
X0001422793Y0003042077D01*
X0001423308Y0003041833D01*
X0001423797Y0003041541D01*
X0001424254Y0003041201D01*
X0001424677Y0003040818D01*
X0001425059Y0003040396D01*
X0001425399Y0003039938D01*
X0001425692Y0003039450D01*
X0001425935Y0003038934D01*
X0001426127Y0003038398D01*
X0001426266Y0003037845D01*
X0001426350Y0003037281D01*
X0001426377Y0003036712D01*
X0001426377Y0003025098D01*
X0001426350Y0003024529D01*
X0001426266Y0003023965D01*
X0001426127Y0003023412D01*
X0001425935Y0003022876D01*
X0001425692Y0003022360D01*
X0001425399Y0003021872D01*
X0001425059Y0003021414D01*
X0001424677Y0003020992D01*
X0001424254Y0003020609D01*
X0001423797Y0003020270D01*
X0001423308Y0003019977D01*
X0001422793Y0003019733D01*
X0001422256Y0003019541D01*
X0001421703Y0003019402D01*
X0001421140Y0003019319D01*
X0001420570Y0003019291D01*
X0001406988Y0003019291D01*
X0001406418Y0003019319D01*
X0001405855Y0003019402D01*
X0001405302Y0003019541D01*
X0001404765Y0003019733D01*
X0001404250Y0003019977D01*
X0001403761Y0003020270D01*
X0001403304Y0003020609D01*
X0001402881Y0003020992D01*
X0001402499Y0003021414D01*
X0001402159Y0003021872D01*
X0001401866Y0003022360D01*
X0001401623Y0003022876D01*
X0001401431Y0003023412D01*
X0001401292Y0003023965D01*
X0001401209Y0003024529D01*
X0001401181Y0003025098D01*
X0001401181Y0003036712D01*
X0001401209Y0003037281D01*
X0001401292Y0003037845D01*
X0001401431Y0003038398D01*
X0001401623Y0003038934D01*
X0001401866Y0003039450D01*
X0001402159Y0003039938D01*
X0001402499Y0003040396D01*
X0001402881Y0003040818D01*
X0001403304Y0003041201D01*
X0001403761Y0003041541D01*
X0001404250Y0003041833D01*
X0001404765Y0003042077D01*
X0001405302Y0003042269D01*
X0001405855Y0003042408D01*
X0001406418Y0003042491D01*
X0001406988Y0003042519D01*
X0001420570Y0003042519D01*
X0001421140Y0003042491D01*
G37*
G36*
X0001421140Y0003080680D02*
G01*
X0001421703Y0003080597D01*
X0001422256Y0003080458D01*
X0001422793Y0003080266D01*
X0001423308Y0003080022D01*
X0001423797Y0003079730D01*
X0001424254Y0003079390D01*
X0001424677Y0003079007D01*
X0001425059Y0003078585D01*
X0001425399Y0003078127D01*
X0001425692Y0003077639D01*
X0001425935Y0003077123D01*
X0001426127Y0003076587D01*
X0001426266Y0003076034D01*
X0001426350Y0003075470D01*
X0001426377Y0003074901D01*
X0001426377Y0003063287D01*
X0001426350Y0003062718D01*
X0001426266Y0003062154D01*
X0001426127Y0003061601D01*
X0001425935Y0003061065D01*
X0001425692Y0003060549D01*
X0001425399Y0003060061D01*
X0001425059Y0003059603D01*
X0001424677Y0003059181D01*
X0001424254Y0003058798D01*
X0001423797Y0003058458D01*
X0001423308Y0003058166D01*
X0001422793Y0003057922D01*
X0001422256Y0003057730D01*
X0001421703Y0003057591D01*
X0001421140Y0003057508D01*
X0001420570Y0003057480D01*
X0001406988Y0003057480D01*
X0001406418Y0003057508D01*
X0001405855Y0003057591D01*
X0001405302Y0003057730D01*
X0001404765Y0003057922D01*
X0001404250Y0003058166D01*
X0001403761Y0003058458D01*
X0001403304Y0003058798D01*
X0001402881Y0003059181D01*
X0001402499Y0003059603D01*
X0001402159Y0003060061D01*
X0001401866Y0003060549D01*
X0001401623Y0003061065D01*
X0001401431Y0003061601D01*
X0001401292Y0003062154D01*
X0001401209Y0003062718D01*
X0001401181Y0003063287D01*
X0001401181Y0003074901D01*
X0001401209Y0003075470D01*
X0001401292Y0003076034D01*
X0001401431Y0003076587D01*
X0001401623Y0003077123D01*
X0001401866Y0003077639D01*
X0001402159Y0003078127D01*
X0001402499Y0003078585D01*
X0001402881Y0003079007D01*
X0001403304Y0003079390D01*
X0001403761Y0003079730D01*
X0001404250Y0003080022D01*
X0001404765Y0003080266D01*
X0001405302Y0003080458D01*
X0001405855Y0003080597D01*
X0001406418Y0003080680D01*
X0001406988Y0003080708D01*
X0001420570Y0003080708D01*
X0001421140Y0003080680D01*
G37*
D43*
X0001338582Y0002974409D03*
X0001338582Y0002994094D03*
X0001358267Y0002994094D03*
X0001318897Y0002994094D03*
X0001318897Y0002974409D03*
X0001358267Y0002974409D03*
X0001358267Y0002954724D03*
X0001338582Y0002954724D03*
X0001318897Y0002954724D03*
G04 next file*
G04 #@! TF.GenerationSoftware,KiCad,Pcbnew,(5.1.5)-3*
G04 #@! TF.CreationDate,2021-04-29T13:46:15+02:00*
G04 #@! TF.ProjectId,Hivetracker,48697665-7472-4616-936b-65722e6b6963,rev?*
G04 #@! TF.SameCoordinates,PX2562500PY28a0640*
G04 #@! TF.FileFunction,Paste,Bot*
G04 #@! TF.FilePolarity,Positive*
G04 Gerber Fmt 4.6, Leading zero omitted, Abs format (unit mm)*
G04 Created by KiCad (PCBNEW (5.1.5)-3) date 2021-04-29 13:46:15*
G04 APERTURE LIST*
G04 APERTURE END LIST*
D44*
G36*
X0000062478Y0002537767D02*
G01*
X0000063042Y0002537683D01*
X0000063595Y0002537545D01*
X0000064131Y0002537353D01*
X0000064646Y0002537109D01*
X0000065135Y0002536816D01*
X0000065593Y0002536477D01*
X0000066015Y0002536094D01*
X0000066398Y0002535672D01*
X0000066737Y0002535214D01*
X0000067030Y0002534725D01*
X0000067274Y0002534210D01*
X0000067466Y0002533673D01*
X0000067604Y0002533121D01*
X0000067688Y0002532557D01*
X0000067716Y0002531988D01*
X0000067716Y0002520374D01*
X0000067688Y0002519804D01*
X0000067604Y0002519241D01*
X0000067466Y0002518688D01*
X0000067274Y0002518151D01*
X0000067030Y0002517636D01*
X0000066737Y0002517147D01*
X0000066398Y0002516690D01*
X0000066015Y0002516267D01*
X0000065593Y0002515885D01*
X0000065135Y0002515545D01*
X0000064646Y0002515252D01*
X0000064131Y0002515008D01*
X0000063595Y0002514816D01*
X0000063042Y0002514678D01*
X0000062478Y0002514594D01*
X0000061909Y0002514566D01*
X0000048326Y0002514566D01*
X0000047757Y0002514594D01*
X0000047193Y0002514678D01*
X0000046641Y0002514816D01*
X0000046104Y0002515008D01*
X0000045589Y0002515252D01*
X0000045100Y0002515545D01*
X0000044642Y0002515885D01*
X0000044220Y0002516267D01*
X0000043837Y0002516690D01*
X0000043498Y0002517147D01*
X0000043205Y0002517636D01*
X0000042961Y0002518151D01*
X0000042769Y0002518688D01*
X0000042631Y0002519241D01*
X0000042547Y0002519804D01*
X0000042519Y0002520374D01*
X0000042519Y0002531988D01*
X0000042547Y0002532557D01*
X0000042631Y0002533121D01*
X0000042769Y0002533673D01*
X0000042961Y0002534210D01*
X0000043205Y0002534725D01*
X0000043498Y0002535214D01*
X0000043837Y0002535672D01*
X0000044220Y0002536094D01*
X0000044642Y0002536477D01*
X0000045100Y0002536816D01*
X0000045589Y0002537109D01*
X0000046104Y0002537353D01*
X0000046641Y0002537545D01*
X0000047193Y0002537683D01*
X0000047757Y0002537767D01*
X0000048326Y0002537795D01*
X0000061909Y0002537795D01*
X0000062478Y0002537767D01*
G37*
G36*
X0000062478Y0002575956D02*
G01*
X0000063042Y0002575872D01*
X0000063595Y0002575734D01*
X0000064131Y0002575542D01*
X0000064646Y0002575298D01*
X0000065135Y0002575005D01*
X0000065593Y0002574666D01*
X0000066015Y0002574283D01*
X0000066398Y0002573861D01*
X0000066737Y0002573403D01*
X0000067030Y0002572914D01*
X0000067274Y0002572399D01*
X0000067466Y0002571862D01*
X0000067604Y0002571310D01*
X0000067688Y0002570746D01*
X0000067716Y0002570177D01*
X0000067716Y0002558562D01*
X0000067688Y0002557993D01*
X0000067604Y0002557430D01*
X0000067466Y0002556877D01*
X0000067274Y0002556340D01*
X0000067030Y0002555825D01*
X0000066737Y0002555336D01*
X0000066398Y0002554879D01*
X0000066015Y0002554456D01*
X0000065593Y0002554074D01*
X0000065135Y0002553734D01*
X0000064646Y0002553441D01*
X0000064131Y0002553197D01*
X0000063595Y0002553005D01*
X0000063042Y0002552867D01*
X0000062478Y0002552783D01*
X0000061909Y0002552755D01*
X0000048326Y0002552755D01*
X0000047757Y0002552783D01*
X0000047193Y0002552867D01*
X0000046641Y0002553005D01*
X0000046104Y0002553197D01*
X0000045589Y0002553441D01*
X0000045100Y0002553734D01*
X0000044642Y0002554074D01*
X0000044220Y0002554456D01*
X0000043837Y0002554879D01*
X0000043498Y0002555336D01*
X0000043205Y0002555825D01*
X0000042961Y0002556340D01*
X0000042769Y0002556877D01*
X0000042631Y0002557430D01*
X0000042547Y0002557993D01*
X0000042519Y0002558562D01*
X0000042519Y0002570177D01*
X0000042547Y0002570746D01*
X0000042631Y0002571310D01*
X0000042769Y0002571862D01*
X0000042961Y0002572399D01*
X0000043205Y0002572914D01*
X0000043498Y0002573403D01*
X0000043837Y0002573861D01*
X0000044220Y0002574283D01*
X0000044642Y0002574666D01*
X0000045100Y0002575005D01*
X0000045589Y0002575298D01*
X0000046104Y0002575542D01*
X0000046641Y0002575734D01*
X0000047193Y0002575872D01*
X0000047757Y0002575956D01*
X0000048326Y0002575984D01*
X0000061909Y0002575984D01*
X0000062478Y0002575956D01*
G37*
G36*
X0000199486Y0002648790D02*
G01*
X0000200050Y0002648707D01*
X0000200603Y0002648568D01*
X0000201139Y0002648376D01*
X0000201654Y0002648133D01*
X0000202143Y0002647840D01*
X0000202601Y0002647500D01*
X0000203023Y0002647118D01*
X0000203406Y0002646695D01*
X0000203745Y0002646238D01*
X0000204038Y0002645749D01*
X0000204282Y0002645234D01*
X0000204474Y0002644697D01*
X0000204612Y0002644144D01*
X0000204696Y0002643581D01*
X0000204724Y0002643011D01*
X0000204724Y0002631397D01*
X0000204696Y0002630828D01*
X0000204612Y0002630264D01*
X0000204474Y0002629711D01*
X0000204282Y0002629175D01*
X0000204038Y0002628660D01*
X0000203745Y0002628171D01*
X0000203406Y0002627713D01*
X0000203023Y0002627291D01*
X0000202601Y0002626908D01*
X0000202143Y0002626569D01*
X0000201654Y0002626276D01*
X0000201139Y0002626032D01*
X0000200603Y0002625840D01*
X0000200050Y0002625702D01*
X0000199486Y0002625618D01*
X0000198917Y0002625590D01*
X0000185334Y0002625590D01*
X0000184765Y0002625618D01*
X0000184201Y0002625702D01*
X0000183648Y0002625840D01*
X0000183112Y0002626032D01*
X0000182597Y0002626276D01*
X0000182108Y0002626569D01*
X0000181650Y0002626908D01*
X0000181228Y0002627291D01*
X0000180845Y0002627713D01*
X0000180506Y0002628171D01*
X0000180213Y0002628660D01*
X0000179969Y0002629175D01*
X0000179777Y0002629711D01*
X0000179639Y0002630264D01*
X0000179555Y0002630828D01*
X0000179527Y0002631397D01*
X0000179527Y0002643011D01*
X0000179555Y0002643581D01*
X0000179639Y0002644144D01*
X0000179777Y0002644697D01*
X0000179969Y0002645234D01*
X0000180213Y0002645749D01*
X0000180506Y0002646238D01*
X0000180845Y0002646695D01*
X0000181228Y0002647118D01*
X0000181650Y0002647500D01*
X0000182108Y0002647840D01*
X0000182597Y0002648133D01*
X0000183112Y0002648376D01*
X0000183648Y0002648568D01*
X0000184201Y0002648707D01*
X0000184765Y0002648790D01*
X0000185334Y0002648818D01*
X0000198917Y0002648818D01*
X0000199486Y0002648790D01*
G37*
G36*
X0000199486Y0002686979D02*
G01*
X0000200050Y0002686896D01*
X0000200603Y0002686757D01*
X0000201139Y0002686565D01*
X0000201654Y0002686322D01*
X0000202143Y0002686029D01*
X0000202601Y0002685689D01*
X0000203023Y0002685307D01*
X0000203406Y0002684884D01*
X0000203745Y0002684427D01*
X0000204038Y0002683938D01*
X0000204282Y0002683423D01*
X0000204474Y0002682886D01*
X0000204612Y0002682333D01*
X0000204696Y0002681770D01*
X0000204724Y0002681200D01*
X0000204724Y0002669586D01*
X0000204696Y0002669017D01*
X0000204612Y0002668453D01*
X0000204474Y0002667900D01*
X0000204282Y0002667364D01*
X0000204038Y0002666849D01*
X0000203745Y0002666360D01*
X0000203406Y0002665902D01*
X0000203023Y0002665480D01*
X0000202601Y0002665097D01*
X0000202143Y0002664758D01*
X0000201654Y0002664465D01*
X0000201139Y0002664221D01*
X0000200603Y0002664029D01*
X0000200050Y0002663891D01*
X0000199486Y0002663807D01*
X0000198917Y0002663779D01*
X0000185334Y0002663779D01*
X0000184765Y0002663807D01*
X0000184201Y0002663891D01*
X0000183648Y0002664029D01*
X0000183112Y0002664221D01*
X0000182597Y0002664465D01*
X0000182108Y0002664758D01*
X0000181650Y0002665097D01*
X0000181228Y0002665480D01*
X0000180845Y0002665902D01*
X0000180506Y0002666360D01*
X0000180213Y0002666849D01*
X0000179969Y0002667364D01*
X0000179777Y0002667900D01*
X0000179639Y0002668453D01*
X0000179555Y0002669017D01*
X0000179527Y0002669586D01*
X0000179527Y0002681200D01*
X0000179555Y0002681770D01*
X0000179639Y0002682333D01*
X0000179777Y0002682886D01*
X0000179969Y0002683423D01*
X0000180213Y0002683938D01*
X0000180506Y0002684427D01*
X0000180845Y0002684884D01*
X0000181228Y0002685307D01*
X0000181650Y0002685689D01*
X0000182108Y0002686029D01*
X0000182597Y0002686322D01*
X0000183112Y0002686565D01*
X0000183648Y0002686757D01*
X0000184201Y0002686896D01*
X0000184765Y0002686979D01*
X0000185334Y0002687007D01*
X0000198917Y0002687007D01*
X0000199486Y0002686979D01*
G37*
G36*
X0000240037Y0002648790D02*
G01*
X0000240601Y0002648707D01*
X0000241154Y0002648568D01*
X0000241690Y0002648376D01*
X0000242205Y0002648133D01*
X0000242694Y0002647840D01*
X0000243152Y0002647500D01*
X0000243574Y0002647118D01*
X0000243957Y0002646695D01*
X0000244296Y0002646238D01*
X0000244589Y0002645749D01*
X0000244833Y0002645234D01*
X0000245025Y0002644697D01*
X0000245164Y0002644144D01*
X0000245247Y0002643581D01*
X0000245275Y0002643011D01*
X0000245275Y0002631397D01*
X0000245247Y0002630828D01*
X0000245164Y0002630264D01*
X0000245025Y0002629711D01*
X0000244833Y0002629175D01*
X0000244589Y0002628660D01*
X0000244296Y0002628171D01*
X0000243957Y0002627713D01*
X0000243574Y0002627291D01*
X0000243152Y0002626908D01*
X0000242694Y0002626569D01*
X0000242205Y0002626276D01*
X0000241690Y0002626032D01*
X0000241154Y0002625840D01*
X0000240601Y0002625702D01*
X0000240037Y0002625618D01*
X0000239468Y0002625590D01*
X0000225885Y0002625590D01*
X0000225316Y0002625618D01*
X0000224752Y0002625702D01*
X0000224200Y0002625840D01*
X0000223663Y0002626032D01*
X0000223148Y0002626276D01*
X0000222659Y0002626569D01*
X0000222201Y0002626908D01*
X0000221779Y0002627291D01*
X0000221396Y0002627713D01*
X0000221057Y0002628171D01*
X0000220764Y0002628660D01*
X0000220520Y0002629175D01*
X0000220328Y0002629711D01*
X0000220190Y0002630264D01*
X0000220106Y0002630828D01*
X0000220078Y0002631397D01*
X0000220078Y0002643011D01*
X0000220106Y0002643581D01*
X0000220190Y0002644144D01*
X0000220328Y0002644697D01*
X0000220520Y0002645234D01*
X0000220764Y0002645749D01*
X0000221057Y0002646238D01*
X0000221396Y0002646695D01*
X0000221779Y0002647118D01*
X0000222201Y0002647500D01*
X0000222659Y0002647840D01*
X0000223148Y0002648133D01*
X0000223663Y0002648376D01*
X0000224200Y0002648568D01*
X0000224752Y0002648707D01*
X0000225316Y0002648790D01*
X0000225885Y0002648818D01*
X0000239468Y0002648818D01*
X0000240037Y0002648790D01*
G37*
G36*
X0000240037Y0002686979D02*
G01*
X0000240601Y0002686896D01*
X0000241154Y0002686757D01*
X0000241690Y0002686565D01*
X0000242205Y0002686322D01*
X0000242694Y0002686029D01*
X0000243152Y0002685689D01*
X0000243574Y0002685307D01*
X0000243957Y0002684884D01*
X0000244296Y0002684427D01*
X0000244589Y0002683938D01*
X0000244833Y0002683423D01*
X0000245025Y0002682886D01*
X0000245164Y0002682333D01*
X0000245247Y0002681770D01*
X0000245275Y0002681200D01*
X0000245275Y0002669586D01*
X0000245247Y0002669017D01*
X0000245164Y0002668453D01*
X0000245025Y0002667900D01*
X0000244833Y0002667364D01*
X0000244589Y0002666849D01*
X0000244296Y0002666360D01*
X0000243957Y0002665902D01*
X0000243574Y0002665480D01*
X0000243152Y0002665097D01*
X0000242694Y0002664758D01*
X0000242205Y0002664465D01*
X0000241690Y0002664221D01*
X0000241154Y0002664029D01*
X0000240601Y0002663891D01*
X0000240037Y0002663807D01*
X0000239468Y0002663779D01*
X0000225885Y0002663779D01*
X0000225316Y0002663807D01*
X0000224752Y0002663891D01*
X0000224200Y0002664029D01*
X0000223663Y0002664221D01*
X0000223148Y0002664465D01*
X0000222659Y0002664758D01*
X0000222201Y0002665097D01*
X0000221779Y0002665480D01*
X0000221396Y0002665902D01*
X0000221057Y0002666360D01*
X0000220764Y0002666849D01*
X0000220520Y0002667364D01*
X0000220328Y0002667900D01*
X0000220190Y0002668453D01*
X0000220106Y0002669017D01*
X0000220078Y0002669586D01*
X0000220078Y0002681200D01*
X0000220106Y0002681770D01*
X0000220190Y0002682333D01*
X0000220328Y0002682886D01*
X0000220520Y0002683423D01*
X0000220764Y0002683938D01*
X0000221057Y0002684427D01*
X0000221396Y0002684884D01*
X0000221779Y0002685307D01*
X0000222201Y0002685689D01*
X0000222659Y0002686029D01*
X0000223148Y0002686322D01*
X0000223663Y0002686565D01*
X0000224200Y0002686757D01*
X0000224752Y0002686896D01*
X0000225316Y0002686979D01*
X0000225885Y0002687007D01*
X0000239468Y0002687007D01*
X0000240037Y0002686979D01*
G37*
D45*
X0000157480Y0002580708D03*
X0000157480Y0002600393D03*
X0000177165Y0002600393D03*
X0000137795Y0002600393D03*
X0000137795Y0002580708D03*
X0000177165Y0002580708D03*
X0000177165Y0002561023D03*
X0000157480Y0002561023D03*
X0000137795Y0002561023D03*
G04 next file*
G04 #@! TF.GenerationSoftware,KiCad,Pcbnew,(5.1.5)-3*
G04 #@! TF.CreationDate,2021-04-29T13:46:15+02:00*
G04 #@! TF.ProjectId,Hivetracker,48697665-7472-4616-936b-65722e6b6963,rev?*
G04 #@! TF.SameCoordinates,PX2562500PY28a0640*
G04 #@! TF.FileFunction,Paste,Bot*
G04 #@! TF.FilePolarity,Positive*
G04 Gerber Fmt 4.6, Leading zero omitted, Abs format (unit mm)*
G04 Created by KiCad (PCBNEW (5.1.5)-3) date 2021-04-29 13:46:15*
G04 APERTURE LIST*
G04 APERTURE END LIST*
D46*
G36*
X0000456179Y0002537767D02*
G01*
X0000456743Y0002537683D01*
X0000457295Y0002537545D01*
X0000457832Y0002537353D01*
X0000458347Y0002537109D01*
X0000458836Y0002536816D01*
X0000459294Y0002536477D01*
X0000459716Y0002536094D01*
X0000460099Y0002535672D01*
X0000460438Y0002535214D01*
X0000460731Y0002534725D01*
X0000460975Y0002534210D01*
X0000461167Y0002533673D01*
X0000461305Y0002533121D01*
X0000461389Y0002532557D01*
X0000461417Y0002531988D01*
X0000461417Y0002520374D01*
X0000461389Y0002519804D01*
X0000461305Y0002519241D01*
X0000461167Y0002518688D01*
X0000460975Y0002518151D01*
X0000460731Y0002517636D01*
X0000460438Y0002517147D01*
X0000460099Y0002516690D01*
X0000459716Y0002516267D01*
X0000459294Y0002515885D01*
X0000458836Y0002515545D01*
X0000458347Y0002515252D01*
X0000457832Y0002515008D01*
X0000457295Y0002514816D01*
X0000456743Y0002514678D01*
X0000456179Y0002514594D01*
X0000455610Y0002514566D01*
X0000442027Y0002514566D01*
X0000441458Y0002514594D01*
X0000440894Y0002514678D01*
X0000440341Y0002514816D01*
X0000439805Y0002515008D01*
X0000439290Y0002515252D01*
X0000438801Y0002515545D01*
X0000438343Y0002515885D01*
X0000437921Y0002516267D01*
X0000437538Y0002516690D01*
X0000437199Y0002517147D01*
X0000436906Y0002517636D01*
X0000436662Y0002518151D01*
X0000436470Y0002518688D01*
X0000436332Y0002519241D01*
X0000436248Y0002519804D01*
X0000436220Y0002520374D01*
X0000436220Y0002531988D01*
X0000436248Y0002532557D01*
X0000436332Y0002533121D01*
X0000436470Y0002533673D01*
X0000436662Y0002534210D01*
X0000436906Y0002534725D01*
X0000437199Y0002535214D01*
X0000437538Y0002535672D01*
X0000437921Y0002536094D01*
X0000438343Y0002536477D01*
X0000438801Y0002536816D01*
X0000439290Y0002537109D01*
X0000439805Y0002537353D01*
X0000440341Y0002537545D01*
X0000440894Y0002537683D01*
X0000441458Y0002537767D01*
X0000442027Y0002537795D01*
X0000455610Y0002537795D01*
X0000456179Y0002537767D01*
G37*
G36*
X0000456179Y0002575956D02*
G01*
X0000456743Y0002575872D01*
X0000457295Y0002575734D01*
X0000457832Y0002575542D01*
X0000458347Y0002575298D01*
X0000458836Y0002575005D01*
X0000459294Y0002574666D01*
X0000459716Y0002574283D01*
X0000460099Y0002573861D01*
X0000460438Y0002573403D01*
X0000460731Y0002572914D01*
X0000460975Y0002572399D01*
X0000461167Y0002571862D01*
X0000461305Y0002571310D01*
X0000461389Y0002570746D01*
X0000461417Y0002570177D01*
X0000461417Y0002558562D01*
X0000461389Y0002557993D01*
X0000461305Y0002557430D01*
X0000461167Y0002556877D01*
X0000460975Y0002556340D01*
X0000460731Y0002555825D01*
X0000460438Y0002555336D01*
X0000460099Y0002554879D01*
X0000459716Y0002554456D01*
X0000459294Y0002554074D01*
X0000458836Y0002553734D01*
X0000458347Y0002553441D01*
X0000457832Y0002553197D01*
X0000457295Y0002553005D01*
X0000456743Y0002552867D01*
X0000456179Y0002552783D01*
X0000455610Y0002552755D01*
X0000442027Y0002552755D01*
X0000441458Y0002552783D01*
X0000440894Y0002552867D01*
X0000440341Y0002553005D01*
X0000439805Y0002553197D01*
X0000439290Y0002553441D01*
X0000438801Y0002553734D01*
X0000438343Y0002554074D01*
X0000437921Y0002554456D01*
X0000437538Y0002554879D01*
X0000437199Y0002555336D01*
X0000436906Y0002555825D01*
X0000436662Y0002556340D01*
X0000436470Y0002556877D01*
X0000436332Y0002557430D01*
X0000436248Y0002557993D01*
X0000436220Y0002558562D01*
X0000436220Y0002570177D01*
X0000436248Y0002570746D01*
X0000436332Y0002571310D01*
X0000436470Y0002571862D01*
X0000436662Y0002572399D01*
X0000436906Y0002572914D01*
X0000437199Y0002573403D01*
X0000437538Y0002573861D01*
X0000437921Y0002574283D01*
X0000438343Y0002574666D01*
X0000438801Y0002575005D01*
X0000439290Y0002575298D01*
X0000439805Y0002575542D01*
X0000440341Y0002575734D01*
X0000440894Y0002575872D01*
X0000441458Y0002575956D01*
X0000442027Y0002575984D01*
X0000455610Y0002575984D01*
X0000456179Y0002575956D01*
G37*
G36*
X0000593187Y0002648790D02*
G01*
X0000593750Y0002648707D01*
X0000594303Y0002648568D01*
X0000594840Y0002648376D01*
X0000595355Y0002648133D01*
X0000595844Y0002647840D01*
X0000596302Y0002647500D01*
X0000596724Y0002647118D01*
X0000597107Y0002646695D01*
X0000597446Y0002646238D01*
X0000597739Y0002645749D01*
X0000597983Y0002645234D01*
X0000598175Y0002644697D01*
X0000598313Y0002644144D01*
X0000598397Y0002643581D01*
X0000598425Y0002643011D01*
X0000598425Y0002631397D01*
X0000598397Y0002630828D01*
X0000598313Y0002630264D01*
X0000598175Y0002629711D01*
X0000597983Y0002629175D01*
X0000597739Y0002628660D01*
X0000597446Y0002628171D01*
X0000597107Y0002627713D01*
X0000596724Y0002627291D01*
X0000596302Y0002626908D01*
X0000595844Y0002626569D01*
X0000595355Y0002626276D01*
X0000594840Y0002626032D01*
X0000594303Y0002625840D01*
X0000593750Y0002625702D01*
X0000593187Y0002625618D01*
X0000592618Y0002625590D01*
X0000579035Y0002625590D01*
X0000578466Y0002625618D01*
X0000577902Y0002625702D01*
X0000577349Y0002625840D01*
X0000576813Y0002626032D01*
X0000576297Y0002626276D01*
X0000575809Y0002626569D01*
X0000575351Y0002626908D01*
X0000574929Y0002627291D01*
X0000574546Y0002627713D01*
X0000574207Y0002628171D01*
X0000573914Y0002628660D01*
X0000573670Y0002629175D01*
X0000573478Y0002629711D01*
X0000573339Y0002630264D01*
X0000573256Y0002630828D01*
X0000573228Y0002631397D01*
X0000573228Y0002643011D01*
X0000573256Y0002643581D01*
X0000573339Y0002644144D01*
X0000573478Y0002644697D01*
X0000573670Y0002645234D01*
X0000573914Y0002645749D01*
X0000574207Y0002646238D01*
X0000574546Y0002646695D01*
X0000574929Y0002647118D01*
X0000575351Y0002647500D01*
X0000575809Y0002647840D01*
X0000576297Y0002648133D01*
X0000576813Y0002648376D01*
X0000577349Y0002648568D01*
X0000577902Y0002648707D01*
X0000578466Y0002648790D01*
X0000579035Y0002648818D01*
X0000592618Y0002648818D01*
X0000593187Y0002648790D01*
G37*
G36*
X0000593187Y0002686979D02*
G01*
X0000593750Y0002686896D01*
X0000594303Y0002686757D01*
X0000594840Y0002686565D01*
X0000595355Y0002686322D01*
X0000595844Y0002686029D01*
X0000596302Y0002685689D01*
X0000596724Y0002685307D01*
X0000597107Y0002684884D01*
X0000597446Y0002684427D01*
X0000597739Y0002683938D01*
X0000597983Y0002683423D01*
X0000598175Y0002682886D01*
X0000598313Y0002682333D01*
X0000598397Y0002681770D01*
X0000598425Y0002681200D01*
X0000598425Y0002669586D01*
X0000598397Y0002669017D01*
X0000598313Y0002668453D01*
X0000598175Y0002667900D01*
X0000597983Y0002667364D01*
X0000597739Y0002666849D01*
X0000597446Y0002666360D01*
X0000597107Y0002665902D01*
X0000596724Y0002665480D01*
X0000596302Y0002665097D01*
X0000595844Y0002664758D01*
X0000595355Y0002664465D01*
X0000594840Y0002664221D01*
X0000594303Y0002664029D01*
X0000593750Y0002663891D01*
X0000593187Y0002663807D01*
X0000592618Y0002663779D01*
X0000579035Y0002663779D01*
X0000578466Y0002663807D01*
X0000577902Y0002663891D01*
X0000577349Y0002664029D01*
X0000576813Y0002664221D01*
X0000576297Y0002664465D01*
X0000575809Y0002664758D01*
X0000575351Y0002665097D01*
X0000574929Y0002665480D01*
X0000574546Y0002665902D01*
X0000574207Y0002666360D01*
X0000573914Y0002666849D01*
X0000573670Y0002667364D01*
X0000573478Y0002667900D01*
X0000573339Y0002668453D01*
X0000573256Y0002669017D01*
X0000573228Y0002669586D01*
X0000573228Y0002681200D01*
X0000573256Y0002681770D01*
X0000573339Y0002682333D01*
X0000573478Y0002682886D01*
X0000573670Y0002683423D01*
X0000573914Y0002683938D01*
X0000574207Y0002684427D01*
X0000574546Y0002684884D01*
X0000574929Y0002685307D01*
X0000575351Y0002685689D01*
X0000575809Y0002686029D01*
X0000576297Y0002686322D01*
X0000576813Y0002686565D01*
X0000577349Y0002686757D01*
X0000577902Y0002686896D01*
X0000578466Y0002686979D01*
X0000579035Y0002687007D01*
X0000592618Y0002687007D01*
X0000593187Y0002686979D01*
G37*
G36*
X0000633738Y0002648790D02*
G01*
X0000634302Y0002648707D01*
X0000634854Y0002648568D01*
X0000635391Y0002648376D01*
X0000635906Y0002648133D01*
X0000636395Y0002647840D01*
X0000636853Y0002647500D01*
X0000637275Y0002647118D01*
X0000637658Y0002646695D01*
X0000637997Y0002646238D01*
X0000638290Y0002645749D01*
X0000638534Y0002645234D01*
X0000638726Y0002644697D01*
X0000638864Y0002644144D01*
X0000638948Y0002643581D01*
X0000638976Y0002643011D01*
X0000638976Y0002631397D01*
X0000638948Y0002630828D01*
X0000638864Y0002630264D01*
X0000638726Y0002629711D01*
X0000638534Y0002629175D01*
X0000638290Y0002628660D01*
X0000637997Y0002628171D01*
X0000637658Y0002627713D01*
X0000637275Y0002627291D01*
X0000636853Y0002626908D01*
X0000636395Y0002626569D01*
X0000635906Y0002626276D01*
X0000635391Y0002626032D01*
X0000634854Y0002625840D01*
X0000634302Y0002625702D01*
X0000633738Y0002625618D01*
X0000633169Y0002625590D01*
X0000619586Y0002625590D01*
X0000619017Y0002625618D01*
X0000618453Y0002625702D01*
X0000617900Y0002625840D01*
X0000617364Y0002626032D01*
X0000616849Y0002626276D01*
X0000616360Y0002626569D01*
X0000615902Y0002626908D01*
X0000615480Y0002627291D01*
X0000615097Y0002627713D01*
X0000614758Y0002628171D01*
X0000614465Y0002628660D01*
X0000614221Y0002629175D01*
X0000614029Y0002629711D01*
X0000613891Y0002630264D01*
X0000613807Y0002630828D01*
X0000613779Y0002631397D01*
X0000613779Y0002643011D01*
X0000613807Y0002643581D01*
X0000613891Y0002644144D01*
X0000614029Y0002644697D01*
X0000614221Y0002645234D01*
X0000614465Y0002645749D01*
X0000614758Y0002646238D01*
X0000615097Y0002646695D01*
X0000615480Y0002647118D01*
X0000615902Y0002647500D01*
X0000616360Y0002647840D01*
X0000616849Y0002648133D01*
X0000617364Y0002648376D01*
X0000617900Y0002648568D01*
X0000618453Y0002648707D01*
X0000619017Y0002648790D01*
X0000619586Y0002648818D01*
X0000633169Y0002648818D01*
X0000633738Y0002648790D01*
G37*
G36*
X0000633738Y0002686979D02*
G01*
X0000634302Y0002686896D01*
X0000634854Y0002686757D01*
X0000635391Y0002686565D01*
X0000635906Y0002686322D01*
X0000636395Y0002686029D01*
X0000636853Y0002685689D01*
X0000637275Y0002685307D01*
X0000637658Y0002684884D01*
X0000637997Y0002684427D01*
X0000638290Y0002683938D01*
X0000638534Y0002683423D01*
X0000638726Y0002682886D01*
X0000638864Y0002682333D01*
X0000638948Y0002681770D01*
X0000638976Y0002681200D01*
X0000638976Y0002669586D01*
X0000638948Y0002669017D01*
X0000638864Y0002668453D01*
X0000638726Y0002667900D01*
X0000638534Y0002667364D01*
X0000638290Y0002666849D01*
X0000637997Y0002666360D01*
X0000637658Y0002665902D01*
X0000637275Y0002665480D01*
X0000636853Y0002665097D01*
X0000636395Y0002664758D01*
X0000635906Y0002664465D01*
X0000635391Y0002664221D01*
X0000634854Y0002664029D01*
X0000634302Y0002663891D01*
X0000633738Y0002663807D01*
X0000633169Y0002663779D01*
X0000619586Y0002663779D01*
X0000619017Y0002663807D01*
X0000618453Y0002663891D01*
X0000617900Y0002664029D01*
X0000617364Y0002664221D01*
X0000616849Y0002664465D01*
X0000616360Y0002664758D01*
X0000615902Y0002665097D01*
X0000615480Y0002665480D01*
X0000615097Y0002665902D01*
X0000614758Y0002666360D01*
X0000614465Y0002666849D01*
X0000614221Y0002667364D01*
X0000614029Y0002667900D01*
X0000613891Y0002668453D01*
X0000613807Y0002669017D01*
X0000613779Y0002669586D01*
X0000613779Y0002681200D01*
X0000613807Y0002681770D01*
X0000613891Y0002682333D01*
X0000614029Y0002682886D01*
X0000614221Y0002683423D01*
X0000614465Y0002683938D01*
X0000614758Y0002684427D01*
X0000615097Y0002684884D01*
X0000615480Y0002685307D01*
X0000615902Y0002685689D01*
X0000616360Y0002686029D01*
X0000616849Y0002686322D01*
X0000617364Y0002686565D01*
X0000617900Y0002686757D01*
X0000618453Y0002686896D01*
X0000619017Y0002686979D01*
X0000619586Y0002687007D01*
X0000633169Y0002687007D01*
X0000633738Y0002686979D01*
G37*
D47*
X0000551181Y0002580708D03*
X0000551181Y0002600393D03*
X0000570866Y0002600393D03*
X0000531496Y0002600393D03*
X0000531496Y0002580708D03*
X0000570866Y0002580708D03*
X0000570866Y0002561023D03*
X0000551181Y0002561023D03*
X0000531496Y0002561023D03*
G04 next file*
G04 #@! TF.GenerationSoftware,KiCad,Pcbnew,(5.1.5)-3*
G04 #@! TF.CreationDate,2021-04-29T13:46:15+02:00*
G04 #@! TF.ProjectId,Hivetracker,48697665-7472-4616-936b-65722e6b6963,rev?*
G04 #@! TF.SameCoordinates,PX2562500PY28a0640*
G04 #@! TF.FileFunction,Paste,Bot*
G04 #@! TF.FilePolarity,Positive*
G04 Gerber Fmt 4.6, Leading zero omitted, Abs format (unit mm)*
G04 Created by KiCad (PCBNEW (5.1.5)-3) date 2021-04-29 13:46:15*
G04 APERTURE LIST*
G04 APERTURE END LIST*
D48*
G36*
X0000849880Y0002537767D02*
G01*
X0000850443Y0002537683D01*
X0000850996Y0002537545D01*
X0000851533Y0002537353D01*
X0000852048Y0002537109D01*
X0000852537Y0002536816D01*
X0000852995Y0002536477D01*
X0000853417Y0002536094D01*
X0000853799Y0002535672D01*
X0000854139Y0002535214D01*
X0000854432Y0002534725D01*
X0000854676Y0002534210D01*
X0000854868Y0002533673D01*
X0000855006Y0002533121D01*
X0000855090Y0002532557D01*
X0000855118Y0002531988D01*
X0000855118Y0002520374D01*
X0000855090Y0002519804D01*
X0000855006Y0002519241D01*
X0000854868Y0002518688D01*
X0000854676Y0002518151D01*
X0000854432Y0002517636D01*
X0000854139Y0002517147D01*
X0000853799Y0002516690D01*
X0000853417Y0002516267D01*
X0000852995Y0002515885D01*
X0000852537Y0002515545D01*
X0000852048Y0002515252D01*
X0000851533Y0002515008D01*
X0000850996Y0002514816D01*
X0000850443Y0002514678D01*
X0000849880Y0002514594D01*
X0000849311Y0002514566D01*
X0000835728Y0002514566D01*
X0000835159Y0002514594D01*
X0000834595Y0002514678D01*
X0000834042Y0002514816D01*
X0000833506Y0002515008D01*
X0000832990Y0002515252D01*
X0000832502Y0002515545D01*
X0000832044Y0002515885D01*
X0000831622Y0002516267D01*
X0000831239Y0002516690D01*
X0000830899Y0002517147D01*
X0000830606Y0002517636D01*
X0000830363Y0002518151D01*
X0000830171Y0002518688D01*
X0000830032Y0002519241D01*
X0000829949Y0002519804D01*
X0000829921Y0002520374D01*
X0000829921Y0002531988D01*
X0000829949Y0002532557D01*
X0000830032Y0002533121D01*
X0000830171Y0002533673D01*
X0000830363Y0002534210D01*
X0000830606Y0002534725D01*
X0000830899Y0002535214D01*
X0000831239Y0002535672D01*
X0000831622Y0002536094D01*
X0000832044Y0002536477D01*
X0000832502Y0002536816D01*
X0000832990Y0002537109D01*
X0000833506Y0002537353D01*
X0000834042Y0002537545D01*
X0000834595Y0002537683D01*
X0000835159Y0002537767D01*
X0000835728Y0002537795D01*
X0000849311Y0002537795D01*
X0000849880Y0002537767D01*
G37*
G36*
X0000849880Y0002575956D02*
G01*
X0000850443Y0002575872D01*
X0000850996Y0002575734D01*
X0000851533Y0002575542D01*
X0000852048Y0002575298D01*
X0000852537Y0002575005D01*
X0000852995Y0002574666D01*
X0000853417Y0002574283D01*
X0000853799Y0002573861D01*
X0000854139Y0002573403D01*
X0000854432Y0002572914D01*
X0000854676Y0002572399D01*
X0000854868Y0002571862D01*
X0000855006Y0002571310D01*
X0000855090Y0002570746D01*
X0000855118Y0002570177D01*
X0000855118Y0002558562D01*
X0000855090Y0002557993D01*
X0000855006Y0002557430D01*
X0000854868Y0002556877D01*
X0000854676Y0002556340D01*
X0000854432Y0002555825D01*
X0000854139Y0002555336D01*
X0000853799Y0002554879D01*
X0000853417Y0002554456D01*
X0000852995Y0002554074D01*
X0000852537Y0002553734D01*
X0000852048Y0002553441D01*
X0000851533Y0002553197D01*
X0000850996Y0002553005D01*
X0000850443Y0002552867D01*
X0000849880Y0002552783D01*
X0000849311Y0002552755D01*
X0000835728Y0002552755D01*
X0000835159Y0002552783D01*
X0000834595Y0002552867D01*
X0000834042Y0002553005D01*
X0000833506Y0002553197D01*
X0000832990Y0002553441D01*
X0000832502Y0002553734D01*
X0000832044Y0002554074D01*
X0000831622Y0002554456D01*
X0000831239Y0002554879D01*
X0000830899Y0002555336D01*
X0000830606Y0002555825D01*
X0000830363Y0002556340D01*
X0000830171Y0002556877D01*
X0000830032Y0002557430D01*
X0000829949Y0002557993D01*
X0000829921Y0002558562D01*
X0000829921Y0002570177D01*
X0000829949Y0002570746D01*
X0000830032Y0002571310D01*
X0000830171Y0002571862D01*
X0000830363Y0002572399D01*
X0000830606Y0002572914D01*
X0000830899Y0002573403D01*
X0000831239Y0002573861D01*
X0000831622Y0002574283D01*
X0000832044Y0002574666D01*
X0000832502Y0002575005D01*
X0000832990Y0002575298D01*
X0000833506Y0002575542D01*
X0000834042Y0002575734D01*
X0000834595Y0002575872D01*
X0000835159Y0002575956D01*
X0000835728Y0002575984D01*
X0000849311Y0002575984D01*
X0000849880Y0002575956D01*
G37*
G36*
X0000986888Y0002648790D02*
G01*
X0000987451Y0002648707D01*
X0000988004Y0002648568D01*
X0000988541Y0002648376D01*
X0000989056Y0002648133D01*
X0000989545Y0002647840D01*
X0000990002Y0002647500D01*
X0000990425Y0002647118D01*
X0000990807Y0002646695D01*
X0000991147Y0002646238D01*
X0000991440Y0002645749D01*
X0000991683Y0002645234D01*
X0000991875Y0002644697D01*
X0000992014Y0002644144D01*
X0000992098Y0002643581D01*
X0000992125Y0002643011D01*
X0000992125Y0002631397D01*
X0000992098Y0002630828D01*
X0000992014Y0002630264D01*
X0000991875Y0002629711D01*
X0000991683Y0002629175D01*
X0000991440Y0002628660D01*
X0000991147Y0002628171D01*
X0000990807Y0002627713D01*
X0000990425Y0002627291D01*
X0000990002Y0002626908D01*
X0000989545Y0002626569D01*
X0000989056Y0002626276D01*
X0000988541Y0002626032D01*
X0000988004Y0002625840D01*
X0000987451Y0002625702D01*
X0000986888Y0002625618D01*
X0000986318Y0002625590D01*
X0000972736Y0002625590D01*
X0000972167Y0002625618D01*
X0000971603Y0002625702D01*
X0000971050Y0002625840D01*
X0000970513Y0002626032D01*
X0000969998Y0002626276D01*
X0000969509Y0002626569D01*
X0000969052Y0002626908D01*
X0000968630Y0002627291D01*
X0000968247Y0002627713D01*
X0000967907Y0002628171D01*
X0000967614Y0002628660D01*
X0000967371Y0002629175D01*
X0000967179Y0002629711D01*
X0000967040Y0002630264D01*
X0000966957Y0002630828D01*
X0000966929Y0002631397D01*
X0000966929Y0002643011D01*
X0000966957Y0002643581D01*
X0000967040Y0002644144D01*
X0000967179Y0002644697D01*
X0000967371Y0002645234D01*
X0000967614Y0002645749D01*
X0000967907Y0002646238D01*
X0000968247Y0002646695D01*
X0000968630Y0002647118D01*
X0000969052Y0002647500D01*
X0000969509Y0002647840D01*
X0000969998Y0002648133D01*
X0000970513Y0002648376D01*
X0000971050Y0002648568D01*
X0000971603Y0002648707D01*
X0000972167Y0002648790D01*
X0000972736Y0002648818D01*
X0000986318Y0002648818D01*
X0000986888Y0002648790D01*
G37*
G36*
X0000986888Y0002686979D02*
G01*
X0000987451Y0002686896D01*
X0000988004Y0002686757D01*
X0000988541Y0002686565D01*
X0000989056Y0002686322D01*
X0000989545Y0002686029D01*
X0000990002Y0002685689D01*
X0000990425Y0002685307D01*
X0000990807Y0002684884D01*
X0000991147Y0002684427D01*
X0000991440Y0002683938D01*
X0000991683Y0002683423D01*
X0000991875Y0002682886D01*
X0000992014Y0002682333D01*
X0000992098Y0002681770D01*
X0000992125Y0002681200D01*
X0000992125Y0002669586D01*
X0000992098Y0002669017D01*
X0000992014Y0002668453D01*
X0000991875Y0002667900D01*
X0000991683Y0002667364D01*
X0000991440Y0002666849D01*
X0000991147Y0002666360D01*
X0000990807Y0002665902D01*
X0000990425Y0002665480D01*
X0000990002Y0002665097D01*
X0000989545Y0002664758D01*
X0000989056Y0002664465D01*
X0000988541Y0002664221D01*
X0000988004Y0002664029D01*
X0000987451Y0002663891D01*
X0000986888Y0002663807D01*
X0000986318Y0002663779D01*
X0000972736Y0002663779D01*
X0000972167Y0002663807D01*
X0000971603Y0002663891D01*
X0000971050Y0002664029D01*
X0000970513Y0002664221D01*
X0000969998Y0002664465D01*
X0000969509Y0002664758D01*
X0000969052Y0002665097D01*
X0000968630Y0002665480D01*
X0000968247Y0002665902D01*
X0000967907Y0002666360D01*
X0000967614Y0002666849D01*
X0000967371Y0002667364D01*
X0000967179Y0002667900D01*
X0000967040Y0002668453D01*
X0000966957Y0002669017D01*
X0000966929Y0002669586D01*
X0000966929Y0002681200D01*
X0000966957Y0002681770D01*
X0000967040Y0002682333D01*
X0000967179Y0002682886D01*
X0000967371Y0002683423D01*
X0000967614Y0002683938D01*
X0000967907Y0002684427D01*
X0000968247Y0002684884D01*
X0000968630Y0002685307D01*
X0000969052Y0002685689D01*
X0000969509Y0002686029D01*
X0000969998Y0002686322D01*
X0000970513Y0002686565D01*
X0000971050Y0002686757D01*
X0000971603Y0002686896D01*
X0000972167Y0002686979D01*
X0000972736Y0002687007D01*
X0000986318Y0002687007D01*
X0000986888Y0002686979D01*
G37*
G36*
X0001027439Y0002648790D02*
G01*
X0001028002Y0002648707D01*
X0001028555Y0002648568D01*
X0001029092Y0002648376D01*
X0001029607Y0002648133D01*
X0001030096Y0002647840D01*
X0001030554Y0002647500D01*
X0001030976Y0002647118D01*
X0001031359Y0002646695D01*
X0001031698Y0002646238D01*
X0001031991Y0002645749D01*
X0001032235Y0002645234D01*
X0001032427Y0002644697D01*
X0001032565Y0002644144D01*
X0001032649Y0002643581D01*
X0001032677Y0002643011D01*
X0001032677Y0002631397D01*
X0001032649Y0002630828D01*
X0001032565Y0002630264D01*
X0001032427Y0002629711D01*
X0001032235Y0002629175D01*
X0001031991Y0002628660D01*
X0001031698Y0002628171D01*
X0001031359Y0002627713D01*
X0001030976Y0002627291D01*
X0001030554Y0002626908D01*
X0001030096Y0002626569D01*
X0001029607Y0002626276D01*
X0001029092Y0002626032D01*
X0001028555Y0002625840D01*
X0001028002Y0002625702D01*
X0001027439Y0002625618D01*
X0001026870Y0002625590D01*
X0001013287Y0002625590D01*
X0001012718Y0002625618D01*
X0001012154Y0002625702D01*
X0001011601Y0002625840D01*
X0001011065Y0002626032D01*
X0001010549Y0002626276D01*
X0001010061Y0002626569D01*
X0001009603Y0002626908D01*
X0001009181Y0002627291D01*
X0001008798Y0002627713D01*
X0001008458Y0002628171D01*
X0001008165Y0002628660D01*
X0001007922Y0002629175D01*
X0001007730Y0002629711D01*
X0001007591Y0002630264D01*
X0001007508Y0002630828D01*
X0001007480Y0002631397D01*
X0001007480Y0002643011D01*
X0001007508Y0002643581D01*
X0001007591Y0002644144D01*
X0001007730Y0002644697D01*
X0001007922Y0002645234D01*
X0001008165Y0002645749D01*
X0001008458Y0002646238D01*
X0001008798Y0002646695D01*
X0001009181Y0002647118D01*
X0001009603Y0002647500D01*
X0001010061Y0002647840D01*
X0001010549Y0002648133D01*
X0001011065Y0002648376D01*
X0001011601Y0002648568D01*
X0001012154Y0002648707D01*
X0001012718Y0002648790D01*
X0001013287Y0002648818D01*
X0001026870Y0002648818D01*
X0001027439Y0002648790D01*
G37*
G36*
X0001027439Y0002686979D02*
G01*
X0001028002Y0002686896D01*
X0001028555Y0002686757D01*
X0001029092Y0002686565D01*
X0001029607Y0002686322D01*
X0001030096Y0002686029D01*
X0001030554Y0002685689D01*
X0001030976Y0002685307D01*
X0001031359Y0002684884D01*
X0001031698Y0002684427D01*
X0001031991Y0002683938D01*
X0001032235Y0002683423D01*
X0001032427Y0002682886D01*
X0001032565Y0002682333D01*
X0001032649Y0002681770D01*
X0001032677Y0002681200D01*
X0001032677Y0002669586D01*
X0001032649Y0002669017D01*
X0001032565Y0002668453D01*
X0001032427Y0002667900D01*
X0001032235Y0002667364D01*
X0001031991Y0002666849D01*
X0001031698Y0002666360D01*
X0001031359Y0002665902D01*
X0001030976Y0002665480D01*
X0001030554Y0002665097D01*
X0001030096Y0002664758D01*
X0001029607Y0002664465D01*
X0001029092Y0002664221D01*
X0001028555Y0002664029D01*
X0001028002Y0002663891D01*
X0001027439Y0002663807D01*
X0001026870Y0002663779D01*
X0001013287Y0002663779D01*
X0001012718Y0002663807D01*
X0001012154Y0002663891D01*
X0001011601Y0002664029D01*
X0001011065Y0002664221D01*
X0001010549Y0002664465D01*
X0001010061Y0002664758D01*
X0001009603Y0002665097D01*
X0001009181Y0002665480D01*
X0001008798Y0002665902D01*
X0001008458Y0002666360D01*
X0001008165Y0002666849D01*
X0001007922Y0002667364D01*
X0001007730Y0002667900D01*
X0001007591Y0002668453D01*
X0001007508Y0002669017D01*
X0001007480Y0002669586D01*
X0001007480Y0002681200D01*
X0001007508Y0002681770D01*
X0001007591Y0002682333D01*
X0001007730Y0002682886D01*
X0001007922Y0002683423D01*
X0001008165Y0002683938D01*
X0001008458Y0002684427D01*
X0001008798Y0002684884D01*
X0001009181Y0002685307D01*
X0001009603Y0002685689D01*
X0001010061Y0002686029D01*
X0001010549Y0002686322D01*
X0001011065Y0002686565D01*
X0001011601Y0002686757D01*
X0001012154Y0002686896D01*
X0001012718Y0002686979D01*
X0001013287Y0002687007D01*
X0001026870Y0002687007D01*
X0001027439Y0002686979D01*
G37*
D49*
X0000944881Y0002580708D03*
X0000944881Y0002600393D03*
X0000964566Y0002600393D03*
X0000925196Y0002600393D03*
X0000925196Y0002580708D03*
X0000964566Y0002580708D03*
X0000964566Y0002561023D03*
X0000944881Y0002561023D03*
X0000925196Y0002561023D03*
G04 next file*
G04 #@! TF.GenerationSoftware,KiCad,Pcbnew,(5.1.5)-3*
G04 #@! TF.CreationDate,2021-04-29T13:46:15+02:00*
G04 #@! TF.ProjectId,Hivetracker,48697665-7472-4616-936b-65722e6b6963,rev?*
G04 #@! TF.SameCoordinates,PX2562500PY28a0640*
G04 #@! TF.FileFunction,Paste,Bot*
G04 #@! TF.FilePolarity,Positive*
G04 Gerber Fmt 4.6, Leading zero omitted, Abs format (unit mm)*
G04 Created by KiCad (PCBNEW (5.1.5)-3) date 2021-04-29 13:46:15*
G04 APERTURE LIST*
G04 APERTURE END LIST*
D50*
G36*
X0001243581Y0002537767D02*
G01*
X0001244144Y0002537683D01*
X0001244697Y0002537545D01*
X0001245234Y0002537353D01*
X0001245749Y0002537109D01*
X0001246238Y0002536816D01*
X0001246695Y0002536477D01*
X0001247118Y0002536094D01*
X0001247500Y0002535672D01*
X0001247840Y0002535214D01*
X0001248133Y0002534725D01*
X0001248376Y0002534210D01*
X0001248568Y0002533673D01*
X0001248707Y0002533121D01*
X0001248790Y0002532557D01*
X0001248818Y0002531988D01*
X0001248818Y0002520374D01*
X0001248790Y0002519804D01*
X0001248707Y0002519241D01*
X0001248568Y0002518688D01*
X0001248376Y0002518151D01*
X0001248133Y0002517636D01*
X0001247840Y0002517147D01*
X0001247500Y0002516690D01*
X0001247118Y0002516267D01*
X0001246695Y0002515885D01*
X0001246238Y0002515545D01*
X0001245749Y0002515252D01*
X0001245234Y0002515008D01*
X0001244697Y0002514816D01*
X0001244144Y0002514678D01*
X0001243581Y0002514594D01*
X0001243011Y0002514566D01*
X0001229429Y0002514566D01*
X0001228859Y0002514594D01*
X0001228296Y0002514678D01*
X0001227743Y0002514816D01*
X0001227206Y0002515008D01*
X0001226691Y0002515252D01*
X0001226202Y0002515545D01*
X0001225745Y0002515885D01*
X0001225322Y0002516267D01*
X0001224940Y0002516690D01*
X0001224600Y0002517147D01*
X0001224307Y0002517636D01*
X0001224064Y0002518151D01*
X0001223872Y0002518688D01*
X0001223733Y0002519241D01*
X0001223650Y0002519804D01*
X0001223622Y0002520374D01*
X0001223622Y0002531988D01*
X0001223650Y0002532557D01*
X0001223733Y0002533121D01*
X0001223872Y0002533673D01*
X0001224064Y0002534210D01*
X0001224307Y0002534725D01*
X0001224600Y0002535214D01*
X0001224940Y0002535672D01*
X0001225322Y0002536094D01*
X0001225745Y0002536477D01*
X0001226202Y0002536816D01*
X0001226691Y0002537109D01*
X0001227206Y0002537353D01*
X0001227743Y0002537545D01*
X0001228296Y0002537683D01*
X0001228859Y0002537767D01*
X0001229429Y0002537795D01*
X0001243011Y0002537795D01*
X0001243581Y0002537767D01*
G37*
G36*
X0001243581Y0002575956D02*
G01*
X0001244144Y0002575872D01*
X0001244697Y0002575734D01*
X0001245234Y0002575542D01*
X0001245749Y0002575298D01*
X0001246238Y0002575005D01*
X0001246695Y0002574666D01*
X0001247118Y0002574283D01*
X0001247500Y0002573861D01*
X0001247840Y0002573403D01*
X0001248133Y0002572914D01*
X0001248376Y0002572399D01*
X0001248568Y0002571862D01*
X0001248707Y0002571310D01*
X0001248790Y0002570746D01*
X0001248818Y0002570177D01*
X0001248818Y0002558562D01*
X0001248790Y0002557993D01*
X0001248707Y0002557430D01*
X0001248568Y0002556877D01*
X0001248376Y0002556340D01*
X0001248133Y0002555825D01*
X0001247840Y0002555336D01*
X0001247500Y0002554879D01*
X0001247118Y0002554456D01*
X0001246695Y0002554074D01*
X0001246238Y0002553734D01*
X0001245749Y0002553441D01*
X0001245234Y0002553197D01*
X0001244697Y0002553005D01*
X0001244144Y0002552867D01*
X0001243581Y0002552783D01*
X0001243011Y0002552755D01*
X0001229429Y0002552755D01*
X0001228859Y0002552783D01*
X0001228296Y0002552867D01*
X0001227743Y0002553005D01*
X0001227206Y0002553197D01*
X0001226691Y0002553441D01*
X0001226202Y0002553734D01*
X0001225745Y0002554074D01*
X0001225322Y0002554456D01*
X0001224940Y0002554879D01*
X0001224600Y0002555336D01*
X0001224307Y0002555825D01*
X0001224064Y0002556340D01*
X0001223872Y0002556877D01*
X0001223733Y0002557430D01*
X0001223650Y0002557993D01*
X0001223622Y0002558562D01*
X0001223622Y0002570177D01*
X0001223650Y0002570746D01*
X0001223733Y0002571310D01*
X0001223872Y0002571862D01*
X0001224064Y0002572399D01*
X0001224307Y0002572914D01*
X0001224600Y0002573403D01*
X0001224940Y0002573861D01*
X0001225322Y0002574283D01*
X0001225745Y0002574666D01*
X0001226202Y0002575005D01*
X0001226691Y0002575298D01*
X0001227206Y0002575542D01*
X0001227743Y0002575734D01*
X0001228296Y0002575872D01*
X0001228859Y0002575956D01*
X0001229429Y0002575984D01*
X0001243011Y0002575984D01*
X0001243581Y0002575956D01*
G37*
G36*
X0001380588Y0002648790D02*
G01*
X0001381152Y0002648707D01*
X0001381705Y0002648568D01*
X0001382241Y0002648376D01*
X0001382757Y0002648133D01*
X0001383245Y0002647840D01*
X0001383703Y0002647500D01*
X0001384125Y0002647118D01*
X0001384508Y0002646695D01*
X0001384848Y0002646238D01*
X0001385141Y0002645749D01*
X0001385384Y0002645234D01*
X0001385576Y0002644697D01*
X0001385715Y0002644144D01*
X0001385798Y0002643581D01*
X0001385826Y0002643011D01*
X0001385826Y0002631397D01*
X0001385798Y0002630828D01*
X0001385715Y0002630264D01*
X0001385576Y0002629711D01*
X0001385384Y0002629175D01*
X0001385141Y0002628660D01*
X0001384848Y0002628171D01*
X0001384508Y0002627713D01*
X0001384125Y0002627291D01*
X0001383703Y0002626908D01*
X0001383245Y0002626569D01*
X0001382757Y0002626276D01*
X0001382241Y0002626032D01*
X0001381705Y0002625840D01*
X0001381152Y0002625702D01*
X0001380588Y0002625618D01*
X0001380019Y0002625590D01*
X0001366436Y0002625590D01*
X0001365867Y0002625618D01*
X0001365304Y0002625702D01*
X0001364751Y0002625840D01*
X0001364214Y0002626032D01*
X0001363699Y0002626276D01*
X0001363210Y0002626569D01*
X0001362753Y0002626908D01*
X0001362330Y0002627291D01*
X0001361948Y0002627713D01*
X0001361608Y0002628171D01*
X0001361315Y0002628660D01*
X0001361071Y0002629175D01*
X0001360879Y0002629711D01*
X0001360741Y0002630264D01*
X0001360657Y0002630828D01*
X0001360629Y0002631397D01*
X0001360629Y0002643011D01*
X0001360657Y0002643581D01*
X0001360741Y0002644144D01*
X0001360879Y0002644697D01*
X0001361071Y0002645234D01*
X0001361315Y0002645749D01*
X0001361608Y0002646238D01*
X0001361948Y0002646695D01*
X0001362330Y0002647118D01*
X0001362753Y0002647500D01*
X0001363210Y0002647840D01*
X0001363699Y0002648133D01*
X0001364214Y0002648376D01*
X0001364751Y0002648568D01*
X0001365304Y0002648707D01*
X0001365867Y0002648790D01*
X0001366436Y0002648818D01*
X0001380019Y0002648818D01*
X0001380588Y0002648790D01*
G37*
G36*
X0001380588Y0002686979D02*
G01*
X0001381152Y0002686896D01*
X0001381705Y0002686757D01*
X0001382241Y0002686565D01*
X0001382757Y0002686322D01*
X0001383245Y0002686029D01*
X0001383703Y0002685689D01*
X0001384125Y0002685307D01*
X0001384508Y0002684884D01*
X0001384848Y0002684427D01*
X0001385141Y0002683938D01*
X0001385384Y0002683423D01*
X0001385576Y0002682886D01*
X0001385715Y0002682333D01*
X0001385798Y0002681770D01*
X0001385826Y0002681200D01*
X0001385826Y0002669586D01*
X0001385798Y0002669017D01*
X0001385715Y0002668453D01*
X0001385576Y0002667900D01*
X0001385384Y0002667364D01*
X0001385141Y0002666849D01*
X0001384848Y0002666360D01*
X0001384508Y0002665902D01*
X0001384125Y0002665480D01*
X0001383703Y0002665097D01*
X0001383245Y0002664758D01*
X0001382757Y0002664465D01*
X0001382241Y0002664221D01*
X0001381705Y0002664029D01*
X0001381152Y0002663891D01*
X0001380588Y0002663807D01*
X0001380019Y0002663779D01*
X0001366436Y0002663779D01*
X0001365867Y0002663807D01*
X0001365304Y0002663891D01*
X0001364751Y0002664029D01*
X0001364214Y0002664221D01*
X0001363699Y0002664465D01*
X0001363210Y0002664758D01*
X0001362753Y0002665097D01*
X0001362330Y0002665480D01*
X0001361948Y0002665902D01*
X0001361608Y0002666360D01*
X0001361315Y0002666849D01*
X0001361071Y0002667364D01*
X0001360879Y0002667900D01*
X0001360741Y0002668453D01*
X0001360657Y0002669017D01*
X0001360629Y0002669586D01*
X0001360629Y0002681200D01*
X0001360657Y0002681770D01*
X0001360741Y0002682333D01*
X0001360879Y0002682886D01*
X0001361071Y0002683423D01*
X0001361315Y0002683938D01*
X0001361608Y0002684427D01*
X0001361948Y0002684884D01*
X0001362330Y0002685307D01*
X0001362753Y0002685689D01*
X0001363210Y0002686029D01*
X0001363699Y0002686322D01*
X0001364214Y0002686565D01*
X0001364751Y0002686757D01*
X0001365304Y0002686896D01*
X0001365867Y0002686979D01*
X0001366436Y0002687007D01*
X0001380019Y0002687007D01*
X0001380588Y0002686979D01*
G37*
G36*
X0001421140Y0002648790D02*
G01*
X0001421703Y0002648707D01*
X0001422256Y0002648568D01*
X0001422793Y0002648376D01*
X0001423308Y0002648133D01*
X0001423797Y0002647840D01*
X0001424254Y0002647500D01*
X0001424677Y0002647118D01*
X0001425059Y0002646695D01*
X0001425399Y0002646238D01*
X0001425692Y0002645749D01*
X0001425935Y0002645234D01*
X0001426127Y0002644697D01*
X0001426266Y0002644144D01*
X0001426350Y0002643581D01*
X0001426377Y0002643011D01*
X0001426377Y0002631397D01*
X0001426350Y0002630828D01*
X0001426266Y0002630264D01*
X0001426127Y0002629711D01*
X0001425935Y0002629175D01*
X0001425692Y0002628660D01*
X0001425399Y0002628171D01*
X0001425059Y0002627713D01*
X0001424677Y0002627291D01*
X0001424254Y0002626908D01*
X0001423797Y0002626569D01*
X0001423308Y0002626276D01*
X0001422793Y0002626032D01*
X0001422256Y0002625840D01*
X0001421703Y0002625702D01*
X0001421140Y0002625618D01*
X0001420570Y0002625590D01*
X0001406988Y0002625590D01*
X0001406418Y0002625618D01*
X0001405855Y0002625702D01*
X0001405302Y0002625840D01*
X0001404765Y0002626032D01*
X0001404250Y0002626276D01*
X0001403761Y0002626569D01*
X0001403304Y0002626908D01*
X0001402881Y0002627291D01*
X0001402499Y0002627713D01*
X0001402159Y0002628171D01*
X0001401866Y0002628660D01*
X0001401623Y0002629175D01*
X0001401431Y0002629711D01*
X0001401292Y0002630264D01*
X0001401209Y0002630828D01*
X0001401181Y0002631397D01*
X0001401181Y0002643011D01*
X0001401209Y0002643581D01*
X0001401292Y0002644144D01*
X0001401431Y0002644697D01*
X0001401623Y0002645234D01*
X0001401866Y0002645749D01*
X0001402159Y0002646238D01*
X0001402499Y0002646695D01*
X0001402881Y0002647118D01*
X0001403304Y0002647500D01*
X0001403761Y0002647840D01*
X0001404250Y0002648133D01*
X0001404765Y0002648376D01*
X0001405302Y0002648568D01*
X0001405855Y0002648707D01*
X0001406418Y0002648790D01*
X0001406988Y0002648818D01*
X0001420570Y0002648818D01*
X0001421140Y0002648790D01*
G37*
G36*
X0001421140Y0002686979D02*
G01*
X0001421703Y0002686896D01*
X0001422256Y0002686757D01*
X0001422793Y0002686565D01*
X0001423308Y0002686322D01*
X0001423797Y0002686029D01*
X0001424254Y0002685689D01*
X0001424677Y0002685307D01*
X0001425059Y0002684884D01*
X0001425399Y0002684427D01*
X0001425692Y0002683938D01*
X0001425935Y0002683423D01*
X0001426127Y0002682886D01*
X0001426266Y0002682333D01*
X0001426350Y0002681770D01*
X0001426377Y0002681200D01*
X0001426377Y0002669586D01*
X0001426350Y0002669017D01*
X0001426266Y0002668453D01*
X0001426127Y0002667900D01*
X0001425935Y0002667364D01*
X0001425692Y0002666849D01*
X0001425399Y0002666360D01*
X0001425059Y0002665902D01*
X0001424677Y0002665480D01*
X0001424254Y0002665097D01*
X0001423797Y0002664758D01*
X0001423308Y0002664465D01*
X0001422793Y0002664221D01*
X0001422256Y0002664029D01*
X0001421703Y0002663891D01*
X0001421140Y0002663807D01*
X0001420570Y0002663779D01*
X0001406988Y0002663779D01*
X0001406418Y0002663807D01*
X0001405855Y0002663891D01*
X0001405302Y0002664029D01*
X0001404765Y0002664221D01*
X0001404250Y0002664465D01*
X0001403761Y0002664758D01*
X0001403304Y0002665097D01*
X0001402881Y0002665480D01*
X0001402499Y0002665902D01*
X0001402159Y0002666360D01*
X0001401866Y0002666849D01*
X0001401623Y0002667364D01*
X0001401431Y0002667900D01*
X0001401292Y0002668453D01*
X0001401209Y0002669017D01*
X0001401181Y0002669586D01*
X0001401181Y0002681200D01*
X0001401209Y0002681770D01*
X0001401292Y0002682333D01*
X0001401431Y0002682886D01*
X0001401623Y0002683423D01*
X0001401866Y0002683938D01*
X0001402159Y0002684427D01*
X0001402499Y0002684884D01*
X0001402881Y0002685307D01*
X0001403304Y0002685689D01*
X0001403761Y0002686029D01*
X0001404250Y0002686322D01*
X0001404765Y0002686565D01*
X0001405302Y0002686757D01*
X0001405855Y0002686896D01*
X0001406418Y0002686979D01*
X0001406988Y0002687007D01*
X0001420570Y0002687007D01*
X0001421140Y0002686979D01*
G37*
D51*
X0001338582Y0002580708D03*
X0001338582Y0002600393D03*
X0001358267Y0002600393D03*
X0001318897Y0002600393D03*
X0001318897Y0002580708D03*
X0001358267Y0002580708D03*
X0001358267Y0002561023D03*
X0001338582Y0002561023D03*
X0001318897Y0002561023D03*
M02*