%
M48
METRIC,000.000
T10C0.40
T11C0.50
%
T10
X003490Y099425
X004490Y099420
X005450Y098720
X013490Y099425
X014490Y099420
X015450Y098720
X023490Y099425
X024490Y099420
X025450Y098720
X003490Y089425
X004490Y089420
X005450Y088720
X013490Y089425
X014490Y089420
X015450Y088720
X003490Y079425
X004490Y079420
X005450Y078720
X013490Y079425
X014490Y079420
X015450Y078720
X023490Y079425
X024490Y079420
X025450Y078720
X023490Y089425
X024490Y089420
X025450Y088720
X033490Y099425
X034490Y099420
X035450Y098720
X033490Y089425
X034490Y089420
X035450Y088720
X033490Y079425
X034490Y079420
X035450Y078720
X003490Y069425
X004490Y069420
X005450Y068720
X013490Y069425
X014490Y069420
X015450Y068720
X023490Y069425
X024490Y069420
X025450Y068720
X033490Y069425
X034490Y069420
X035450Y068720
T11
X002525Y093650
X003525Y093650
X004525Y093650
X005525Y093650
X012525Y093650
X013525Y093650
X014525Y093650
X015525Y093650
X022525Y093650
X023525Y093650
X024525Y093650
X025525Y093650
X002525Y083650
X003525Y083650
X004525Y083650
X005525Y083650
X012525Y083650
X013525Y083650
X014525Y083650
X015525Y083650
X002525Y073650
X003525Y073650
X004525Y073650
X005525Y073650
X012525Y073650
X013525Y073650
X014525Y073650
X015525Y073650
X022525Y073650
X023525Y073650
X024525Y073650
X025525Y073650
X022525Y083650
X023525Y083650
X024525Y083650
X025525Y083650
X032525Y093650
X033525Y093650
X034525Y093650
X035525Y093650
X032525Y083650
X033525Y083650
X034525Y083650
X035525Y083650
X032525Y073650
X033525Y073650
X034525Y073650
X035525Y073650
X002525Y063650
X003525Y063650
X004525Y063650
X005525Y063650
X012525Y063650
X013525Y063650
X014525Y063650
X015525Y063650
X022525Y063650
X023525Y063650
X024525Y063650
X025525Y063650
X032525Y063650
X033525Y063650
X034525Y063650
X035525Y063650
X001153Y071750
X002153Y071750
X003153Y071750
X004153Y071750
X005153Y071750
X006153Y071750
X006922Y070250
X005922Y070250
X004922Y070250
X003922Y070250
X002922Y070250
X001922Y070250
X000923Y070244
X008250Y063038
X008250Y064038
X008250Y065038
X008250Y066038
X008250Y067038
X008250Y068038
X008247Y069038
X009750Y068884
X009750Y067884
X009750Y066884
X009750Y065884
X009750Y064884
X009750Y063884
X011153Y071750
X012153Y071750
X013153Y071750
X014153Y071750
X015153Y071750
X016152Y071750
X016922Y070250
X015922Y070250
X014922Y070250
X013922Y070250
X012922Y070250
X011922Y070250
X010923Y070244
X008250Y073038
X008250Y074038
X008250Y075038
X008250Y076038
X008250Y077038
X008250Y078038
X008247Y079038
X009750Y078884
X009750Y077884
X009750Y076884
X009750Y075884
X009750Y074884
X009750Y073884
X018250Y063038
X018250Y064038
X018250Y065038
X018250Y066038
X018250Y067038
X018250Y068038
X018247Y069038
X019750Y068884
X019750Y067884
X019750Y066884
X019750Y065884
X019750Y064884
X019750Y063884
X011153Y081750
X012153Y081750
X013153Y081750
X014153Y081750
X015153Y081750
X016152Y081750
X016922Y080250
X015922Y080250
X014922Y080250
X013922Y080250
X012922Y080250
X011922Y080250
X010923Y080244
X001153Y091750
X002153Y091750
X003153Y091750
X004153Y091750
X005153Y091750
X006153Y091750
X006922Y090250
X005922Y090250
X004922Y090250
X003922Y090250
X002922Y090250
X001922Y090250
X000923Y090244
X008250Y083038
X008250Y084038
X008250Y085038
X008250Y086038
X008250Y087038
X008250Y088038
X008247Y089038
X009750Y088884
X009750Y087884
X009750Y086884
X009750Y085884
X009750Y084884
X009750Y083884
X011153Y091750
X012153Y091750
X013153Y091750
X014153Y091750
X015153Y091750
X016152Y091750
X016922Y090250
X015922Y090250
X014922Y090250
X013922Y090250
X012922Y090250
X011922Y090250
X010923Y090244
X008250Y093038
X008250Y094038
X008250Y095038
X008250Y096038
X008250Y097038
X008250Y098038
X008247Y099038
X009750Y098884
X009750Y097884
X009750Y096884
X009750Y095884
X009750Y094884
X009750Y093884
X018250Y083038
X018250Y084038
X018250Y085038
X018250Y086038
X018250Y087038
X018250Y088038
X018247Y089038
X019750Y088884
X019750Y087884
X019750Y086884
X019750Y085884
X019750Y084884
X019750Y083884
X001153Y081750
X002153Y081750
X003153Y081750
X004153Y081750
X005153Y081750
X006153Y081750
X006922Y080250
X005922Y080250
X004922Y080250
X003922Y080250
X002922Y080250
X001922Y080250
X000923Y080244
X018250Y073038
X018250Y074038
X018250Y075038
X018250Y076038
X018250Y077038
X018250Y078038
X018247Y079038
X019750Y078884
X019750Y077884
X019750Y076884
X019750Y075884
X019750Y074884
X019750Y073884
X021153Y071750
X022153Y071750
X023153Y071750
X024153Y071750
X025153Y071750
X026153Y071750
X026922Y070250
X025922Y070250
X024922Y070250
X023922Y070250
X022922Y070250
X021922Y070250
X020923Y070244
X028250Y063038
X028250Y064038
X028250Y065038
X028250Y066038
X028250Y067038
X028250Y068038
X028247Y069038
X029750Y068884
X029750Y067884
X029750Y066884
X029750Y065884
X029750Y064884
X029750Y063884
X031153Y071750
X032153Y071750
X033153Y071750
X034153Y071750
X035153Y071750
X036153Y071750
X036922Y070250
X035922Y070250
X034922Y070250
X033922Y070250
X032922Y070250
X031922Y070250
X030923Y070244
X028250Y073038
X028250Y074038
X028250Y075038
X028250Y076038
X028250Y077038
X028250Y078038
X028247Y079038
X029750Y078884
X029750Y077884
X029750Y076884
X029750Y075884
X029750Y074884
X029750Y073884
X031153Y081750
X032153Y081750
X033153Y081750
X034153Y081750
X035153Y081750
X036153Y081750
X036922Y080250
X035922Y080250
X034922Y080250
X033922Y080250
X032922Y080250
X031922Y080250
X030923Y080244
X021153Y091750
X022153Y091750
X023153Y091750
X024153Y091750
X025153Y091750
X026153Y091750
X026922Y090250
X025922Y090250
X024922Y090250
X023922Y090250
X022922Y090250
X021922Y090250
X020923Y090244
X018250Y093038
X018250Y094038
X018250Y095038
X018250Y096038
X018250Y097038
X018250Y098038
X018247Y099038
X019750Y098884
X019750Y097884
X019750Y096884
X019750Y095884
X019750Y094884
X019750Y093884
X028250Y083038
X028250Y084038
X028250Y085038
X028250Y086038
X028250Y087038
X028250Y088038
X028247Y089038
X029750Y088884
X029750Y087884
X029750Y086884
X029750Y085884
X029750Y084884
X029750Y083884
X031153Y091750
X032153Y091750
X033153Y091750
X034153Y091750
X035153Y091750
X036153Y091750
X036922Y090250
X035922Y090250
X034922Y090250
X033922Y090250
X032922Y090250
X031922Y090250
X030923Y090244
X028250Y093038
X028250Y094038
X028250Y095038
X028250Y096038
X028250Y097038
X028250Y098038
X028247Y099038
X029750Y098884
X029750Y097884
X029750Y096884
X029750Y095884
X029750Y094884
X029750Y093884
X026922Y080250
X025922Y080250
X024922Y080250
X023922Y080250
X022922Y080250
X021922Y080250
X020923Y080244
X021153Y081750
X022153Y081750
X023153Y081750
X024153Y081750
X025153Y081750
X026153Y081750
M30