%MOIN*%
%OFA0B0*%
%FSLAX46Y46*%
%IPPOS*%
%LPD*%
%ADD10R,0.0475590157480315X0.06936220472440946*%
%ADD11R,0.033464566929133861X0.033464566929133861*%
%ADD12O,0.033464566929133861X0.033464566929133861*%
%ADD13C,0.031496062992125991*%
%ADD14C,0.0078740157480314977*%
%ADD25R,0.0475590157480315X0.06936220472440946*%
%ADD26R,0.033464566929133861X0.033464566929133861*%
%ADD27O,0.033464566929133861X0.033464566929133861*%
%ADD28C,0.031496062992125991*%
%ADD29C,0.0078740157480314977*%
%ADD30R,0.0475590157480315X0.06936220472440946*%
%ADD31R,0.033464566929133861X0.033464566929133861*%
%ADD32O,0.033464566929133861X0.033464566929133861*%
%ADD33C,0.031496062992125991*%
%ADD34C,0.0078740157480314977*%
%ADD35R,0.0475590157480315X0.06936220472440946*%
%ADD36R,0.033464566929133861X0.033464566929133861*%
%ADD37O,0.033464566929133861X0.033464566929133861*%
%ADD38C,0.031496062992125991*%
%ADD39C,0.0078740157480314977*%
%ADD40R,0.0475590157480315X0.06936220472440946*%
%ADD41R,0.033464566929133861X0.033464566929133861*%
%ADD42O,0.033464566929133861X0.033464566929133861*%
%ADD43C,0.031496062992125991*%
%ADD44C,0.0078740157480314977*%
%ADD45R,0.0475590157480315X0.06936220472440946*%
%ADD46R,0.033464566929133861X0.033464566929133861*%
%ADD47O,0.033464566929133861X0.033464566929133861*%
%ADD48C,0.031496062992125991*%
%ADD49C,0.0078740157480314977*%
%ADD50R,0.0475590157480315X0.06936220472440946*%
%ADD51R,0.033464566929133861X0.033464566929133861*%
%ADD52O,0.033464566929133861X0.033464566929133861*%
%ADD53C,0.031496062992125991*%
%ADD54C,0.0078740157480314977*%
%ADD55R,0.0475590157480315X0.06936220472440946*%
%ADD56R,0.033464566929133861X0.033464566929133861*%
%ADD57O,0.033464566929133861X0.033464566929133861*%
%ADD58C,0.031496062992125991*%
%ADD59C,0.0078740157480314977*%
%ADD60R,0.0475590157480315X0.06936220472440946*%
%ADD61R,0.033464566929133861X0.033464566929133861*%
%ADD62O,0.033464566929133861X0.033464566929133861*%
%ADD63C,0.031496062992125991*%
%ADD64C,0.0078740157480314977*%
%ADD65R,0.0475590157480315X0.06936220472440946*%
%ADD66R,0.033464566929133861X0.033464566929133861*%
%ADD67O,0.033464566929133861X0.033464566929133861*%
%ADD68C,0.031496062992125991*%
%ADD69C,0.0078740157480314977*%
%ADD70R,0.0475590157480315X0.06936220472440946*%
%ADD71R,0.033464566929133861X0.033464566929133861*%
%ADD72O,0.033464566929133861X0.033464566929133861*%
%ADD73C,0.031496062992125991*%
%ADD74C,0.0078740157480314977*%
%ADD75R,0.0475590157480315X0.06936220472440946*%
%ADD76R,0.033464566929133861X0.033464566929133861*%
%ADD77O,0.033464566929133861X0.033464566929133861*%
%ADD78C,0.031496062992125991*%
%ADD79C,0.0078740157480314977*%
%ADD80R,0.0475590157480315X0.06936220472440946*%
%ADD81R,0.033464566929133861X0.033464566929133861*%
%ADD82O,0.033464566929133861X0.033464566929133861*%
%ADD83C,0.031496062992125991*%
%ADD84C,0.0078740157480314977*%
%ADD85R,0.0475590157480315X0.06936220472440946*%
%ADD86R,0.033464566929133861X0.033464566929133861*%
%ADD87O,0.033464566929133861X0.033464566929133861*%
%ADD88C,0.031496062992125991*%
%ADD89C,0.0078740157480314977*%
%ADD90R,0.0475590157480315X0.06936220472440946*%
%ADD91R,0.033464566929133861X0.033464566929133861*%
%ADD92O,0.033464566929133861X0.033464566929133861*%
%ADD93C,0.031496062992125991*%
%ADD94C,0.0078740157480314977*%
%ADD95R,0.0475590157480315X0.06936220472440946*%
%ADD96R,0.033464566929133861X0.033464566929133861*%
%ADD97O,0.033464566929133861X0.033464566929133861*%
%ADD98C,0.031496062992125991*%
%ADD99C,0.0078740157480314977*%
D10*
X0000000000Y0003937007D02*
X0000035480Y0003838582D03*
X0000279480Y0003838582D03*
D11*
X0000099409Y0003687007D03*
D12*
X0000138779Y0003687007D03*
X0000178149Y0003687007D03*
X0000217519Y0003687007D03*
D13*
X0000214566Y0003886614D03*
X0000137402Y0003914370D03*
X0000176771Y0003914173D03*
D14*
X0000157480Y0003757874D02*
X0000157480Y0003787401D01*
X0000068712Y0003914370D02*
X0000137402Y0003914370D01*
X0000035480Y0003838582D02*
X0000035480Y0003881137D01*
X0000035480Y0003881137D02*
X0000068712Y0003914370D01*
X0000246444Y0003914173D02*
X0000176771Y0003914173D01*
X0000279480Y0003838582D02*
X0000279480Y0003881137D01*
X0000279480Y0003881137D02*
X0000246444Y0003914173D01*
G36*
X0000302165Y0003662043D02*
G01*
X0000301599Y0003656267D01*
X0000300103Y0003651313D01*
X0000297674Y0003646745D01*
X0000294403Y0003642735D01*
X0000290416Y0003639436D01*
X0000285865Y0003636975D01*
X0000280921Y0003635445D01*
X0000275185Y0003634842D01*
X0000039995Y0003634842D01*
X0000034220Y0003635408D01*
X0000029266Y0003636904D01*
X0000024697Y0003639333D01*
X0000020687Y0003642604D01*
X0000017389Y0003646591D01*
X0000014928Y0003651142D01*
X0000013398Y0003656086D01*
X0000012795Y0003661822D01*
X0000012795Y0003703740D01*
X0000070809Y0003703740D01*
X0000070809Y0003670275D01*
X0000071037Y0003667960D01*
X0000071712Y0003665733D01*
X0000072809Y0003663682D01*
X0000074285Y0003661883D01*
X0000076083Y0003660407D01*
X0000078135Y0003659310D01*
X0000080361Y0003658635D01*
X0000082677Y0003658407D01*
X0000116141Y0003658407D01*
X0000118457Y0003658635D01*
X0000120683Y0003659310D01*
X0000122735Y0003660407D01*
X0000124533Y0003661883D01*
X0000124700Y0003662086D01*
X0000125259Y0003661713D01*
X0000130453Y0003659561D01*
X0000135968Y0003658464D01*
X0000141590Y0003658464D01*
X0000147105Y0003659561D01*
X0000152299Y0003661713D01*
X0000156974Y0003664836D01*
X0000160950Y0003668812D01*
X0000164074Y0003673487D01*
X0000166225Y0003678682D01*
X0000167322Y0003684196D01*
X0000167322Y0003689819D01*
X0000188976Y0003689819D01*
X0000188976Y0003684196D01*
X0000190073Y0003678682D01*
X0000192224Y0003673487D01*
X0000195348Y0003668812D01*
X0000199324Y0003664836D01*
X0000203999Y0003661713D01*
X0000209193Y0003659561D01*
X0000214708Y0003658464D01*
X0000220330Y0003658464D01*
X0000225845Y0003659561D01*
X0000231040Y0003661713D01*
X0000235715Y0003664836D01*
X0000239690Y0003668812D01*
X0000242814Y0003673487D01*
X0000244966Y0003678682D01*
X0000246062Y0003684196D01*
X0000246062Y0003689819D01*
X0000244966Y0003695333D01*
X0000242814Y0003700528D01*
X0000239690Y0003705203D01*
X0000235715Y0003709178D01*
X0000231040Y0003712302D01*
X0000225845Y0003714454D01*
X0000220330Y0003715551D01*
X0000214708Y0003715551D01*
X0000209193Y0003714454D01*
X0000203999Y0003712302D01*
X0000199324Y0003709178D01*
X0000195348Y0003705203D01*
X0000192224Y0003700528D01*
X0000190073Y0003695333D01*
X0000188976Y0003689819D01*
X0000167322Y0003689819D01*
X0000166225Y0003695333D01*
X0000164074Y0003700528D01*
X0000160950Y0003705203D01*
X0000156974Y0003709178D01*
X0000152299Y0003712302D01*
X0000147105Y0003714454D01*
X0000141590Y0003715551D01*
X0000135968Y0003715551D01*
X0000130453Y0003714454D01*
X0000125259Y0003712302D01*
X0000124700Y0003711929D01*
X0000124533Y0003712132D01*
X0000122735Y0003713608D01*
X0000120683Y0003714704D01*
X0000118457Y0003715380D01*
X0000116141Y0003715608D01*
X0000082677Y0003715608D01*
X0000080361Y0003715380D01*
X0000078135Y0003714704D01*
X0000076083Y0003713608D01*
X0000074285Y0003712132D01*
X0000072809Y0003710333D01*
X0000071712Y0003708281D01*
X0000071037Y0003706055D01*
X0000070809Y0003703740D01*
X0000012795Y0003703740D01*
X0000012795Y0003759842D01*
X0000302165Y0003759842D01*
X0000302165Y0003662043D01*
G37*
X0000302165Y0003662043D02*
X0000301599Y0003656267D01*
X0000300103Y0003651313D01*
X0000297674Y0003646745D01*
X0000294403Y0003642735D01*
X0000290416Y0003639436D01*
X0000285865Y0003636975D01*
X0000280921Y0003635445D01*
X0000275185Y0003634842D01*
X0000039995Y0003634842D01*
X0000034220Y0003635408D01*
X0000029266Y0003636904D01*
X0000024697Y0003639333D01*
X0000020687Y0003642604D01*
X0000017389Y0003646591D01*
X0000014928Y0003651142D01*
X0000013398Y0003656086D01*
X0000012795Y0003661822D01*
X0000012795Y0003703740D01*
X0000070809Y0003703740D01*
X0000070809Y0003670275D01*
X0000071037Y0003667960D01*
X0000071712Y0003665733D01*
X0000072809Y0003663682D01*
X0000074285Y0003661883D01*
X0000076083Y0003660407D01*
X0000078135Y0003659310D01*
X0000080361Y0003658635D01*
X0000082677Y0003658407D01*
X0000116141Y0003658407D01*
X0000118457Y0003658635D01*
X0000120683Y0003659310D01*
X0000122735Y0003660407D01*
X0000124533Y0003661883D01*
X0000124700Y0003662086D01*
X0000125259Y0003661713D01*
X0000130453Y0003659561D01*
X0000135968Y0003658464D01*
X0000141590Y0003658464D01*
X0000147105Y0003659561D01*
X0000152299Y0003661713D01*
X0000156974Y0003664836D01*
X0000160950Y0003668812D01*
X0000164074Y0003673487D01*
X0000166225Y0003678682D01*
X0000167322Y0003684196D01*
X0000167322Y0003689819D01*
X0000188976Y0003689819D01*
X0000188976Y0003684196D01*
X0000190073Y0003678682D01*
X0000192224Y0003673487D01*
X0000195348Y0003668812D01*
X0000199324Y0003664836D01*
X0000203999Y0003661713D01*
X0000209193Y0003659561D01*
X0000214708Y0003658464D01*
X0000220330Y0003658464D01*
X0000225845Y0003659561D01*
X0000231040Y0003661713D01*
X0000235715Y0003664836D01*
X0000239690Y0003668812D01*
X0000242814Y0003673487D01*
X0000244966Y0003678682D01*
X0000246062Y0003684196D01*
X0000246062Y0003689819D01*
X0000244966Y0003695333D01*
X0000242814Y0003700528D01*
X0000239690Y0003705203D01*
X0000235715Y0003709178D01*
X0000231040Y0003712302D01*
X0000225845Y0003714454D01*
X0000220330Y0003715551D01*
X0000214708Y0003715551D01*
X0000209193Y0003714454D01*
X0000203999Y0003712302D01*
X0000199324Y0003709178D01*
X0000195348Y0003705203D01*
X0000192224Y0003700528D01*
X0000190073Y0003695333D01*
X0000188976Y0003689819D01*
X0000167322Y0003689819D01*
X0000166225Y0003695333D01*
X0000164074Y0003700528D01*
X0000160950Y0003705203D01*
X0000156974Y0003709178D01*
X0000152299Y0003712302D01*
X0000147105Y0003714454D01*
X0000141590Y0003715551D01*
X0000135968Y0003715551D01*
X0000130453Y0003714454D01*
X0000125259Y0003712302D01*
X0000124700Y0003711929D01*
X0000124533Y0003712132D01*
X0000122735Y0003713608D01*
X0000120683Y0003714704D01*
X0000118457Y0003715380D01*
X0000116141Y0003715608D01*
X0000082677Y0003715608D01*
X0000080361Y0003715380D01*
X0000078135Y0003714704D01*
X0000076083Y0003713608D01*
X0000074285Y0003712132D01*
X0000072809Y0003710333D01*
X0000071712Y0003708281D01*
X0000071037Y0003706055D01*
X0000070809Y0003703740D01*
X0000012795Y0003703740D01*
X0000012795Y0003759842D01*
X0000302165Y0003759842D01*
X0000302165Y0003662043D01*
G36*
X0000115995Y0003896802D02*
G01*
X0000119834Y0003892963D01*
X0000124347Y0003889947D01*
X0000129363Y0003887870D01*
X0000134687Y0003886811D01*
X0000140116Y0003886811D01*
X0000145440Y0003887870D01*
X0000150456Y0003889947D01*
X0000154969Y0003892963D01*
X0000156988Y0003894982D01*
X0000159203Y0003892766D01*
X0000163717Y0003889750D01*
X0000168732Y0003887673D01*
X0000174057Y0003886614D01*
X0000179485Y0003886614D01*
X0000184810Y0003887673D01*
X0000189825Y0003889750D01*
X0000194339Y0003892766D01*
X0000198178Y0003896605D01*
X0000199394Y0003898425D01*
X0000239921Y0003898425D01*
X0000253437Y0003884909D01*
X0000253385Y0003884903D01*
X0000251159Y0003884228D01*
X0000249107Y0003883131D01*
X0000247308Y0003881655D01*
X0000245832Y0003879857D01*
X0000244736Y0003877805D01*
X0000244060Y0003875579D01*
X0000243832Y0003873263D01*
X0000243832Y0003803901D01*
X0000244060Y0003801586D01*
X0000244736Y0003799359D01*
X0000245832Y0003797307D01*
X0000247308Y0003795509D01*
X0000249107Y0003794033D01*
X0000251159Y0003792936D01*
X0000253385Y0003792261D01*
X0000255700Y0003792033D01*
X0000302165Y0003792033D01*
X0000302165Y0003785433D01*
X0000012795Y0003785433D01*
X0000012795Y0003792033D01*
X0000059259Y0003792033D01*
X0000061575Y0003792261D01*
X0000063801Y0003792936D01*
X0000065853Y0003794033D01*
X0000067651Y0003795509D01*
X0000069127Y0003797307D01*
X0000070224Y0003799359D01*
X0000070899Y0003801586D01*
X0000071127Y0003803901D01*
X0000071127Y0003873263D01*
X0000070899Y0003875579D01*
X0000070224Y0003877805D01*
X0000069127Y0003879857D01*
X0000067651Y0003881655D01*
X0000065853Y0003883131D01*
X0000063801Y0003884228D01*
X0000061575Y0003884903D01*
X0000061522Y0003884909D01*
X0000075235Y0003898622D01*
X0000114779Y0003898622D01*
X0000115995Y0003896802D01*
G37*
X0000115995Y0003896802D02*
X0000119834Y0003892963D01*
X0000124347Y0003889947D01*
X0000129363Y0003887870D01*
X0000134687Y0003886811D01*
X0000140116Y0003886811D01*
X0000145440Y0003887870D01*
X0000150456Y0003889947D01*
X0000154969Y0003892963D01*
X0000156988Y0003894982D01*
X0000159203Y0003892766D01*
X0000163717Y0003889750D01*
X0000168732Y0003887673D01*
X0000174057Y0003886614D01*
X0000179485Y0003886614D01*
X0000184810Y0003887673D01*
X0000189825Y0003889750D01*
X0000194339Y0003892766D01*
X0000198178Y0003896605D01*
X0000199394Y0003898425D01*
X0000239921Y0003898425D01*
X0000253437Y0003884909D01*
X0000253385Y0003884903D01*
X0000251159Y0003884228D01*
X0000249107Y0003883131D01*
X0000247308Y0003881655D01*
X0000245832Y0003879857D01*
X0000244736Y0003877805D01*
X0000244060Y0003875579D01*
X0000243832Y0003873263D01*
X0000243832Y0003803901D01*
X0000244060Y0003801586D01*
X0000244736Y0003799359D01*
X0000245832Y0003797307D01*
X0000247308Y0003795509D01*
X0000249107Y0003794033D01*
X0000251159Y0003792936D01*
X0000253385Y0003792261D01*
X0000255700Y0003792033D01*
X0000302165Y0003792033D01*
X0000302165Y0003785433D01*
X0000012795Y0003785433D01*
X0000012795Y0003792033D01*
X0000059259Y0003792033D01*
X0000061575Y0003792261D01*
X0000063801Y0003792936D01*
X0000065853Y0003794033D01*
X0000067651Y0003795509D01*
X0000069127Y0003797307D01*
X0000070224Y0003799359D01*
X0000070899Y0003801586D01*
X0000071127Y0003803901D01*
X0000071127Y0003873263D01*
X0000070899Y0003875579D01*
X0000070224Y0003877805D01*
X0000069127Y0003879857D01*
X0000067651Y0003881655D01*
X0000065853Y0003883131D01*
X0000063801Y0003884228D01*
X0000061575Y0003884903D01*
X0000061522Y0003884909D01*
X0000075235Y0003898622D01*
X0000114779Y0003898622D01*
X0000115995Y0003896802D01*
G04 next file*
G04 #@! TF.GenerationSoftware,KiCad,Pcbnew,(5.1.5)-3*
G04 #@! TF.CreationDate,2021-04-29T13:46:15+02:00*
G04 #@! TF.ProjectId,Hivetracker,48697665-7472-4616-936b-65722e6b6963,rev?*
G04 #@! TF.SameCoordinates,PX2562500PY28a0640*
G04 #@! TF.FileFunction,Copper,L1,Top*
G04 #@! TF.FilePolarity,Positive*
G04 Gerber Fmt 4.6, Leading zero omitted, Abs format (unit mm)*
G04 Created by KiCad (PCBNEW (5.1.5)-3) date 2021-04-29 13:46:15*
G04 APERTURE LIST*
G04 APERTURE END LIST*
D25*
X0000393700Y0003937007D02*
X0000429181Y0003838582D03*
X0000673181Y0003838582D03*
D26*
X0000493110Y0003687007D03*
D27*
X0000532480Y0003687007D03*
X0000571850Y0003687007D03*
X0000611220Y0003687007D03*
D28*
X0000608267Y0003886614D03*
X0000531102Y0003914370D03*
X0000570472Y0003914173D03*
D29*
X0000551181Y0003757874D02*
X0000551181Y0003787401D01*
X0000462413Y0003914370D02*
X0000531102Y0003914370D01*
X0000429181Y0003838582D02*
X0000429181Y0003881137D01*
X0000429181Y0003881137D02*
X0000462413Y0003914370D01*
X0000640145Y0003914173D02*
X0000570472Y0003914173D01*
X0000673181Y0003838582D02*
X0000673181Y0003881137D01*
X0000673181Y0003881137D02*
X0000640145Y0003914173D01*
G36*
X0000695866Y0003662043D02*
G01*
X0000695299Y0003656267D01*
X0000693804Y0003651313D01*
X0000691374Y0003646745D01*
X0000688104Y0003642735D01*
X0000684117Y0003639436D01*
X0000679565Y0003636975D01*
X0000674622Y0003635445D01*
X0000668886Y0003634842D01*
X0000433696Y0003634842D01*
X0000427921Y0003635408D01*
X0000422967Y0003636904D01*
X0000418398Y0003639333D01*
X0000414388Y0003642604D01*
X0000411090Y0003646591D01*
X0000408629Y0003651142D01*
X0000407098Y0003656086D01*
X0000406496Y0003661822D01*
X0000406496Y0003703740D01*
X0000464509Y0003703740D01*
X0000464509Y0003670275D01*
X0000464737Y0003667960D01*
X0000465413Y0003665733D01*
X0000466509Y0003663682D01*
X0000467985Y0003661883D01*
X0000469784Y0003660407D01*
X0000471836Y0003659310D01*
X0000474062Y0003658635D01*
X0000476377Y0003658407D01*
X0000509842Y0003658407D01*
X0000512157Y0003658635D01*
X0000514384Y0003659310D01*
X0000516436Y0003660407D01*
X0000518234Y0003661883D01*
X0000518401Y0003662086D01*
X0000518960Y0003661713D01*
X0000524154Y0003659561D01*
X0000529669Y0003658464D01*
X0000535291Y0003658464D01*
X0000540806Y0003659561D01*
X0000546000Y0003661713D01*
X0000550675Y0003664836D01*
X0000554651Y0003668812D01*
X0000557775Y0003673487D01*
X0000559926Y0003678682D01*
X0000561023Y0003684196D01*
X0000561023Y0003689819D01*
X0000582677Y0003689819D01*
X0000582677Y0003684196D01*
X0000583774Y0003678682D01*
X0000585925Y0003673487D01*
X0000589049Y0003668812D01*
X0000593025Y0003664836D01*
X0000597700Y0003661713D01*
X0000602894Y0003659561D01*
X0000608409Y0003658464D01*
X0000614031Y0003658464D01*
X0000619546Y0003659561D01*
X0000624740Y0003661713D01*
X0000629415Y0003664836D01*
X0000633391Y0003668812D01*
X0000636515Y0003673487D01*
X0000638666Y0003678682D01*
X0000639763Y0003684196D01*
X0000639763Y0003689819D01*
X0000638666Y0003695333D01*
X0000636515Y0003700528D01*
X0000633391Y0003705203D01*
X0000629415Y0003709178D01*
X0000624740Y0003712302D01*
X0000619546Y0003714454D01*
X0000614031Y0003715551D01*
X0000608409Y0003715551D01*
X0000602894Y0003714454D01*
X0000597700Y0003712302D01*
X0000593025Y0003709178D01*
X0000589049Y0003705203D01*
X0000585925Y0003700528D01*
X0000583774Y0003695333D01*
X0000582677Y0003689819D01*
X0000561023Y0003689819D01*
X0000559926Y0003695333D01*
X0000557775Y0003700528D01*
X0000554651Y0003705203D01*
X0000550675Y0003709178D01*
X0000546000Y0003712302D01*
X0000540806Y0003714454D01*
X0000535291Y0003715551D01*
X0000529669Y0003715551D01*
X0000524154Y0003714454D01*
X0000518960Y0003712302D01*
X0000518401Y0003711929D01*
X0000518234Y0003712132D01*
X0000516436Y0003713608D01*
X0000514384Y0003714704D01*
X0000512157Y0003715380D01*
X0000509842Y0003715608D01*
X0000476377Y0003715608D01*
X0000474062Y0003715380D01*
X0000471836Y0003714704D01*
X0000469784Y0003713608D01*
X0000467985Y0003712132D01*
X0000466509Y0003710333D01*
X0000465413Y0003708281D01*
X0000464737Y0003706055D01*
X0000464509Y0003703740D01*
X0000406496Y0003703740D01*
X0000406496Y0003759842D01*
X0000695866Y0003759842D01*
X0000695866Y0003662043D01*
G37*
X0000695866Y0003662043D02*
X0000695299Y0003656267D01*
X0000693804Y0003651313D01*
X0000691374Y0003646745D01*
X0000688104Y0003642735D01*
X0000684117Y0003639436D01*
X0000679565Y0003636975D01*
X0000674622Y0003635445D01*
X0000668886Y0003634842D01*
X0000433696Y0003634842D01*
X0000427921Y0003635408D01*
X0000422967Y0003636904D01*
X0000418398Y0003639333D01*
X0000414388Y0003642604D01*
X0000411090Y0003646591D01*
X0000408629Y0003651142D01*
X0000407098Y0003656086D01*
X0000406496Y0003661822D01*
X0000406496Y0003703740D01*
X0000464509Y0003703740D01*
X0000464509Y0003670275D01*
X0000464737Y0003667960D01*
X0000465413Y0003665733D01*
X0000466509Y0003663682D01*
X0000467985Y0003661883D01*
X0000469784Y0003660407D01*
X0000471836Y0003659310D01*
X0000474062Y0003658635D01*
X0000476377Y0003658407D01*
X0000509842Y0003658407D01*
X0000512157Y0003658635D01*
X0000514384Y0003659310D01*
X0000516436Y0003660407D01*
X0000518234Y0003661883D01*
X0000518401Y0003662086D01*
X0000518960Y0003661713D01*
X0000524154Y0003659561D01*
X0000529669Y0003658464D01*
X0000535291Y0003658464D01*
X0000540806Y0003659561D01*
X0000546000Y0003661713D01*
X0000550675Y0003664836D01*
X0000554651Y0003668812D01*
X0000557775Y0003673487D01*
X0000559926Y0003678682D01*
X0000561023Y0003684196D01*
X0000561023Y0003689819D01*
X0000582677Y0003689819D01*
X0000582677Y0003684196D01*
X0000583774Y0003678682D01*
X0000585925Y0003673487D01*
X0000589049Y0003668812D01*
X0000593025Y0003664836D01*
X0000597700Y0003661713D01*
X0000602894Y0003659561D01*
X0000608409Y0003658464D01*
X0000614031Y0003658464D01*
X0000619546Y0003659561D01*
X0000624740Y0003661713D01*
X0000629415Y0003664836D01*
X0000633391Y0003668812D01*
X0000636515Y0003673487D01*
X0000638666Y0003678682D01*
X0000639763Y0003684196D01*
X0000639763Y0003689819D01*
X0000638666Y0003695333D01*
X0000636515Y0003700528D01*
X0000633391Y0003705203D01*
X0000629415Y0003709178D01*
X0000624740Y0003712302D01*
X0000619546Y0003714454D01*
X0000614031Y0003715551D01*
X0000608409Y0003715551D01*
X0000602894Y0003714454D01*
X0000597700Y0003712302D01*
X0000593025Y0003709178D01*
X0000589049Y0003705203D01*
X0000585925Y0003700528D01*
X0000583774Y0003695333D01*
X0000582677Y0003689819D01*
X0000561023Y0003689819D01*
X0000559926Y0003695333D01*
X0000557775Y0003700528D01*
X0000554651Y0003705203D01*
X0000550675Y0003709178D01*
X0000546000Y0003712302D01*
X0000540806Y0003714454D01*
X0000535291Y0003715551D01*
X0000529669Y0003715551D01*
X0000524154Y0003714454D01*
X0000518960Y0003712302D01*
X0000518401Y0003711929D01*
X0000518234Y0003712132D01*
X0000516436Y0003713608D01*
X0000514384Y0003714704D01*
X0000512157Y0003715380D01*
X0000509842Y0003715608D01*
X0000476377Y0003715608D01*
X0000474062Y0003715380D01*
X0000471836Y0003714704D01*
X0000469784Y0003713608D01*
X0000467985Y0003712132D01*
X0000466509Y0003710333D01*
X0000465413Y0003708281D01*
X0000464737Y0003706055D01*
X0000464509Y0003703740D01*
X0000406496Y0003703740D01*
X0000406496Y0003759842D01*
X0000695866Y0003759842D01*
X0000695866Y0003662043D01*
G36*
X0000509696Y0003896802D02*
G01*
X0000513534Y0003892963D01*
X0000518048Y0003889947D01*
X0000523064Y0003887870D01*
X0000528388Y0003886811D01*
X0000533817Y0003886811D01*
X0000539141Y0003887870D01*
X0000544156Y0003889947D01*
X0000548670Y0003892963D01*
X0000550689Y0003894982D01*
X0000552904Y0003892766D01*
X0000557418Y0003889750D01*
X0000562433Y0003887673D01*
X0000567758Y0003886614D01*
X0000573186Y0003886614D01*
X0000578511Y0003887673D01*
X0000583526Y0003889750D01*
X0000588040Y0003892766D01*
X0000591878Y0003896605D01*
X0000593094Y0003898425D01*
X0000633622Y0003898425D01*
X0000647138Y0003884909D01*
X0000647086Y0003884903D01*
X0000644859Y0003884228D01*
X0000642808Y0003883131D01*
X0000641009Y0003881655D01*
X0000639533Y0003879857D01*
X0000638436Y0003877805D01*
X0000637761Y0003875579D01*
X0000637533Y0003873263D01*
X0000637533Y0003803901D01*
X0000637761Y0003801586D01*
X0000638436Y0003799359D01*
X0000639533Y0003797307D01*
X0000641009Y0003795509D01*
X0000642808Y0003794033D01*
X0000644859Y0003792936D01*
X0000647086Y0003792261D01*
X0000649401Y0003792033D01*
X0000695866Y0003792033D01*
X0000695866Y0003785433D01*
X0000406496Y0003785433D01*
X0000406496Y0003792033D01*
X0000452960Y0003792033D01*
X0000455275Y0003792261D01*
X0000457502Y0003792936D01*
X0000459554Y0003794033D01*
X0000461352Y0003795509D01*
X0000462828Y0003797307D01*
X0000463925Y0003799359D01*
X0000464600Y0003801586D01*
X0000464828Y0003803901D01*
X0000464828Y0003873263D01*
X0000464600Y0003875579D01*
X0000463925Y0003877805D01*
X0000462828Y0003879857D01*
X0000461352Y0003881655D01*
X0000459554Y0003883131D01*
X0000457502Y0003884228D01*
X0000455275Y0003884903D01*
X0000455223Y0003884909D01*
X0000468936Y0003898622D01*
X0000508480Y0003898622D01*
X0000509696Y0003896802D01*
G37*
X0000509696Y0003896802D02*
X0000513534Y0003892963D01*
X0000518048Y0003889947D01*
X0000523064Y0003887870D01*
X0000528388Y0003886811D01*
X0000533817Y0003886811D01*
X0000539141Y0003887870D01*
X0000544156Y0003889947D01*
X0000548670Y0003892963D01*
X0000550689Y0003894982D01*
X0000552904Y0003892766D01*
X0000557418Y0003889750D01*
X0000562433Y0003887673D01*
X0000567758Y0003886614D01*
X0000573186Y0003886614D01*
X0000578511Y0003887673D01*
X0000583526Y0003889750D01*
X0000588040Y0003892766D01*
X0000591878Y0003896605D01*
X0000593094Y0003898425D01*
X0000633622Y0003898425D01*
X0000647138Y0003884909D01*
X0000647086Y0003884903D01*
X0000644859Y0003884228D01*
X0000642808Y0003883131D01*
X0000641009Y0003881655D01*
X0000639533Y0003879857D01*
X0000638436Y0003877805D01*
X0000637761Y0003875579D01*
X0000637533Y0003873263D01*
X0000637533Y0003803901D01*
X0000637761Y0003801586D01*
X0000638436Y0003799359D01*
X0000639533Y0003797307D01*
X0000641009Y0003795509D01*
X0000642808Y0003794033D01*
X0000644859Y0003792936D01*
X0000647086Y0003792261D01*
X0000649401Y0003792033D01*
X0000695866Y0003792033D01*
X0000695866Y0003785433D01*
X0000406496Y0003785433D01*
X0000406496Y0003792033D01*
X0000452960Y0003792033D01*
X0000455275Y0003792261D01*
X0000457502Y0003792936D01*
X0000459554Y0003794033D01*
X0000461352Y0003795509D01*
X0000462828Y0003797307D01*
X0000463925Y0003799359D01*
X0000464600Y0003801586D01*
X0000464828Y0003803901D01*
X0000464828Y0003873263D01*
X0000464600Y0003875579D01*
X0000463925Y0003877805D01*
X0000462828Y0003879857D01*
X0000461352Y0003881655D01*
X0000459554Y0003883131D01*
X0000457502Y0003884228D01*
X0000455275Y0003884903D01*
X0000455223Y0003884909D01*
X0000468936Y0003898622D01*
X0000508480Y0003898622D01*
X0000509696Y0003896802D01*
G04 next file*
G04 #@! TF.GenerationSoftware,KiCad,Pcbnew,(5.1.5)-3*
G04 #@! TF.CreationDate,2021-04-29T13:46:15+02:00*
G04 #@! TF.ProjectId,Hivetracker,48697665-7472-4616-936b-65722e6b6963,rev?*
G04 #@! TF.SameCoordinates,PX2562500PY28a0640*
G04 #@! TF.FileFunction,Copper,L1,Top*
G04 #@! TF.FilePolarity,Positive*
G04 Gerber Fmt 4.6, Leading zero omitted, Abs format (unit mm)*
G04 Created by KiCad (PCBNEW (5.1.5)-3) date 2021-04-29 13:46:15*
G04 APERTURE LIST*
G04 APERTURE END LIST*
D30*
X0000787401Y0003937007D02*
X0000822881Y0003838582D03*
X0001066881Y0003838582D03*
D31*
X0000886811Y0003687007D03*
D32*
X0000926181Y0003687007D03*
X0000965551Y0003687007D03*
X0001004921Y0003687007D03*
D33*
X0001001968Y0003886614D03*
X0000924803Y0003914370D03*
X0000964173Y0003914173D03*
D34*
X0000944881Y0003757874D02*
X0000944881Y0003787401D01*
X0000856114Y0003914370D02*
X0000924803Y0003914370D01*
X0000822881Y0003838582D02*
X0000822881Y0003881137D01*
X0000822881Y0003881137D02*
X0000856114Y0003914370D01*
X0001033846Y0003914173D02*
X0000964173Y0003914173D01*
X0001066881Y0003838582D02*
X0001066881Y0003881137D01*
X0001066881Y0003881137D02*
X0001033846Y0003914173D01*
G36*
X0001089566Y0003662043D02*
G01*
X0001089000Y0003656267D01*
X0001087505Y0003651313D01*
X0001085075Y0003646745D01*
X0001081805Y0003642735D01*
X0001077818Y0003639436D01*
X0001073266Y0003636975D01*
X0001068323Y0003635445D01*
X0001062587Y0003634842D01*
X0000827397Y0003634842D01*
X0000821621Y0003635408D01*
X0000816668Y0003636904D01*
X0000812099Y0003639333D01*
X0000808089Y0003642604D01*
X0000804791Y0003646591D01*
X0000802329Y0003651142D01*
X0000800799Y0003656086D01*
X0000800196Y0003661822D01*
X0000800196Y0003703740D01*
X0000858210Y0003703740D01*
X0000858210Y0003670275D01*
X0000858438Y0003667960D01*
X0000859114Y0003665733D01*
X0000860210Y0003663682D01*
X0000861686Y0003661883D01*
X0000863485Y0003660407D01*
X0000865537Y0003659310D01*
X0000867763Y0003658635D01*
X0000870078Y0003658407D01*
X0000903543Y0003658407D01*
X0000905858Y0003658635D01*
X0000908085Y0003659310D01*
X0000910136Y0003660407D01*
X0000911935Y0003661883D01*
X0000912101Y0003662086D01*
X0000912660Y0003661713D01*
X0000917855Y0003659561D01*
X0000923369Y0003658464D01*
X0000928992Y0003658464D01*
X0000934506Y0003659561D01*
X0000939701Y0003661713D01*
X0000944376Y0003664836D01*
X0000948352Y0003668812D01*
X0000951475Y0003673487D01*
X0000953627Y0003678682D01*
X0000954724Y0003684196D01*
X0000954724Y0003689819D01*
X0000976377Y0003689819D01*
X0000976377Y0003684196D01*
X0000977474Y0003678682D01*
X0000979626Y0003673487D01*
X0000982750Y0003668812D01*
X0000986725Y0003664836D01*
X0000991400Y0003661713D01*
X0000996595Y0003659561D01*
X0001002110Y0003658464D01*
X0001007732Y0003658464D01*
X0001013247Y0003659561D01*
X0001018441Y0003661713D01*
X0001023116Y0003664836D01*
X0001027092Y0003668812D01*
X0001030216Y0003673487D01*
X0001032367Y0003678682D01*
X0001033464Y0003684196D01*
X0001033464Y0003689819D01*
X0001032367Y0003695333D01*
X0001030216Y0003700528D01*
X0001027092Y0003705203D01*
X0001023116Y0003709178D01*
X0001018441Y0003712302D01*
X0001013247Y0003714454D01*
X0001007732Y0003715551D01*
X0001002110Y0003715551D01*
X0000996595Y0003714454D01*
X0000991400Y0003712302D01*
X0000986725Y0003709178D01*
X0000982750Y0003705203D01*
X0000979626Y0003700528D01*
X0000977474Y0003695333D01*
X0000976377Y0003689819D01*
X0000954724Y0003689819D01*
X0000953627Y0003695333D01*
X0000951475Y0003700528D01*
X0000948352Y0003705203D01*
X0000944376Y0003709178D01*
X0000939701Y0003712302D01*
X0000934506Y0003714454D01*
X0000928992Y0003715551D01*
X0000923369Y0003715551D01*
X0000917855Y0003714454D01*
X0000912660Y0003712302D01*
X0000912101Y0003711929D01*
X0000911935Y0003712132D01*
X0000910136Y0003713608D01*
X0000908085Y0003714704D01*
X0000905858Y0003715380D01*
X0000903543Y0003715608D01*
X0000870078Y0003715608D01*
X0000867763Y0003715380D01*
X0000865537Y0003714704D01*
X0000863485Y0003713608D01*
X0000861686Y0003712132D01*
X0000860210Y0003710333D01*
X0000859114Y0003708281D01*
X0000858438Y0003706055D01*
X0000858210Y0003703740D01*
X0000800196Y0003703740D01*
X0000800196Y0003759842D01*
X0001089566Y0003759842D01*
X0001089566Y0003662043D01*
G37*
X0001089566Y0003662043D02*
X0001089000Y0003656267D01*
X0001087505Y0003651313D01*
X0001085075Y0003646745D01*
X0001081805Y0003642735D01*
X0001077818Y0003639436D01*
X0001073266Y0003636975D01*
X0001068323Y0003635445D01*
X0001062587Y0003634842D01*
X0000827397Y0003634842D01*
X0000821621Y0003635408D01*
X0000816668Y0003636904D01*
X0000812099Y0003639333D01*
X0000808089Y0003642604D01*
X0000804791Y0003646591D01*
X0000802329Y0003651142D01*
X0000800799Y0003656086D01*
X0000800196Y0003661822D01*
X0000800196Y0003703740D01*
X0000858210Y0003703740D01*
X0000858210Y0003670275D01*
X0000858438Y0003667960D01*
X0000859114Y0003665733D01*
X0000860210Y0003663682D01*
X0000861686Y0003661883D01*
X0000863485Y0003660407D01*
X0000865537Y0003659310D01*
X0000867763Y0003658635D01*
X0000870078Y0003658407D01*
X0000903543Y0003658407D01*
X0000905858Y0003658635D01*
X0000908085Y0003659310D01*
X0000910136Y0003660407D01*
X0000911935Y0003661883D01*
X0000912101Y0003662086D01*
X0000912660Y0003661713D01*
X0000917855Y0003659561D01*
X0000923369Y0003658464D01*
X0000928992Y0003658464D01*
X0000934506Y0003659561D01*
X0000939701Y0003661713D01*
X0000944376Y0003664836D01*
X0000948352Y0003668812D01*
X0000951475Y0003673487D01*
X0000953627Y0003678682D01*
X0000954724Y0003684196D01*
X0000954724Y0003689819D01*
X0000976377Y0003689819D01*
X0000976377Y0003684196D01*
X0000977474Y0003678682D01*
X0000979626Y0003673487D01*
X0000982750Y0003668812D01*
X0000986725Y0003664836D01*
X0000991400Y0003661713D01*
X0000996595Y0003659561D01*
X0001002110Y0003658464D01*
X0001007732Y0003658464D01*
X0001013247Y0003659561D01*
X0001018441Y0003661713D01*
X0001023116Y0003664836D01*
X0001027092Y0003668812D01*
X0001030216Y0003673487D01*
X0001032367Y0003678682D01*
X0001033464Y0003684196D01*
X0001033464Y0003689819D01*
X0001032367Y0003695333D01*
X0001030216Y0003700528D01*
X0001027092Y0003705203D01*
X0001023116Y0003709178D01*
X0001018441Y0003712302D01*
X0001013247Y0003714454D01*
X0001007732Y0003715551D01*
X0001002110Y0003715551D01*
X0000996595Y0003714454D01*
X0000991400Y0003712302D01*
X0000986725Y0003709178D01*
X0000982750Y0003705203D01*
X0000979626Y0003700528D01*
X0000977474Y0003695333D01*
X0000976377Y0003689819D01*
X0000954724Y0003689819D01*
X0000953627Y0003695333D01*
X0000951475Y0003700528D01*
X0000948352Y0003705203D01*
X0000944376Y0003709178D01*
X0000939701Y0003712302D01*
X0000934506Y0003714454D01*
X0000928992Y0003715551D01*
X0000923369Y0003715551D01*
X0000917855Y0003714454D01*
X0000912660Y0003712302D01*
X0000912101Y0003711929D01*
X0000911935Y0003712132D01*
X0000910136Y0003713608D01*
X0000908085Y0003714704D01*
X0000905858Y0003715380D01*
X0000903543Y0003715608D01*
X0000870078Y0003715608D01*
X0000867763Y0003715380D01*
X0000865537Y0003714704D01*
X0000863485Y0003713608D01*
X0000861686Y0003712132D01*
X0000860210Y0003710333D01*
X0000859114Y0003708281D01*
X0000858438Y0003706055D01*
X0000858210Y0003703740D01*
X0000800196Y0003703740D01*
X0000800196Y0003759842D01*
X0001089566Y0003759842D01*
X0001089566Y0003662043D01*
G36*
X0000903397Y0003896802D02*
G01*
X0000907235Y0003892963D01*
X0000911749Y0003889947D01*
X0000916764Y0003887870D01*
X0000922089Y0003886811D01*
X0000927517Y0003886811D01*
X0000932842Y0003887870D01*
X0000937857Y0003889947D01*
X0000942371Y0003892963D01*
X0000944390Y0003894982D01*
X0000946605Y0003892766D01*
X0000951119Y0003889750D01*
X0000956134Y0003887673D01*
X0000961458Y0003886614D01*
X0000966887Y0003886614D01*
X0000972211Y0003887673D01*
X0000977227Y0003889750D01*
X0000981741Y0003892766D01*
X0000985579Y0003896605D01*
X0000986795Y0003898425D01*
X0001027323Y0003898425D01*
X0001040839Y0003884909D01*
X0001040787Y0003884903D01*
X0001038560Y0003884228D01*
X0001036508Y0003883131D01*
X0001034710Y0003881655D01*
X0001033234Y0003879857D01*
X0001032137Y0003877805D01*
X0001031462Y0003875579D01*
X0001031234Y0003873263D01*
X0001031234Y0003803901D01*
X0001031462Y0003801586D01*
X0001032137Y0003799359D01*
X0001033234Y0003797307D01*
X0001034710Y0003795509D01*
X0001036508Y0003794033D01*
X0001038560Y0003792936D01*
X0001040787Y0003792261D01*
X0001043102Y0003792033D01*
X0001089566Y0003792033D01*
X0001089566Y0003785433D01*
X0000800196Y0003785433D01*
X0000800196Y0003792033D01*
X0000846661Y0003792033D01*
X0000848976Y0003792261D01*
X0000851203Y0003792936D01*
X0000853254Y0003794033D01*
X0000855053Y0003795509D01*
X0000856529Y0003797307D01*
X0000857626Y0003799359D01*
X0000858301Y0003801586D01*
X0000858529Y0003803901D01*
X0000858529Y0003873263D01*
X0000858301Y0003875579D01*
X0000857626Y0003877805D01*
X0000856529Y0003879857D01*
X0000855053Y0003881655D01*
X0000853254Y0003883131D01*
X0000851203Y0003884228D01*
X0000848976Y0003884903D01*
X0000848924Y0003884909D01*
X0000862637Y0003898622D01*
X0000902181Y0003898622D01*
X0000903397Y0003896802D01*
G37*
X0000903397Y0003896802D02*
X0000907235Y0003892963D01*
X0000911749Y0003889947D01*
X0000916764Y0003887870D01*
X0000922089Y0003886811D01*
X0000927517Y0003886811D01*
X0000932842Y0003887870D01*
X0000937857Y0003889947D01*
X0000942371Y0003892963D01*
X0000944390Y0003894982D01*
X0000946605Y0003892766D01*
X0000951119Y0003889750D01*
X0000956134Y0003887673D01*
X0000961458Y0003886614D01*
X0000966887Y0003886614D01*
X0000972211Y0003887673D01*
X0000977227Y0003889750D01*
X0000981741Y0003892766D01*
X0000985579Y0003896605D01*
X0000986795Y0003898425D01*
X0001027323Y0003898425D01*
X0001040839Y0003884909D01*
X0001040787Y0003884903D01*
X0001038560Y0003884228D01*
X0001036508Y0003883131D01*
X0001034710Y0003881655D01*
X0001033234Y0003879857D01*
X0001032137Y0003877805D01*
X0001031462Y0003875579D01*
X0001031234Y0003873263D01*
X0001031234Y0003803901D01*
X0001031462Y0003801586D01*
X0001032137Y0003799359D01*
X0001033234Y0003797307D01*
X0001034710Y0003795509D01*
X0001036508Y0003794033D01*
X0001038560Y0003792936D01*
X0001040787Y0003792261D01*
X0001043102Y0003792033D01*
X0001089566Y0003792033D01*
X0001089566Y0003785433D01*
X0000800196Y0003785433D01*
X0000800196Y0003792033D01*
X0000846661Y0003792033D01*
X0000848976Y0003792261D01*
X0000851203Y0003792936D01*
X0000853254Y0003794033D01*
X0000855053Y0003795509D01*
X0000856529Y0003797307D01*
X0000857626Y0003799359D01*
X0000858301Y0003801586D01*
X0000858529Y0003803901D01*
X0000858529Y0003873263D01*
X0000858301Y0003875579D01*
X0000857626Y0003877805D01*
X0000856529Y0003879857D01*
X0000855053Y0003881655D01*
X0000853254Y0003883131D01*
X0000851203Y0003884228D01*
X0000848976Y0003884903D01*
X0000848924Y0003884909D01*
X0000862637Y0003898622D01*
X0000902181Y0003898622D01*
X0000903397Y0003896802D01*
G04 next file*
G04 #@! TF.GenerationSoftware,KiCad,Pcbnew,(5.1.5)-3*
G04 #@! TF.CreationDate,2021-04-29T13:46:15+02:00*
G04 #@! TF.ProjectId,Hivetracker,48697665-7472-4616-936b-65722e6b6963,rev?*
G04 #@! TF.SameCoordinates,PX2562500PY28a0640*
G04 #@! TF.FileFunction,Copper,L1,Top*
G04 #@! TF.FilePolarity,Positive*
G04 Gerber Fmt 4.6, Leading zero omitted, Abs format (unit mm)*
G04 Created by KiCad (PCBNEW (5.1.5)-3) date 2021-04-29 13:46:15*
G04 APERTURE LIST*
G04 APERTURE END LIST*
D35*
X0000000000Y0003543307D02*
X0000035480Y0003444881D03*
X0000279480Y0003444881D03*
D36*
X0000099409Y0003293307D03*
D37*
X0000138779Y0003293307D03*
X0000178149Y0003293307D03*
X0000217519Y0003293307D03*
D38*
X0000214566Y0003492913D03*
X0000137402Y0003520669D03*
X0000176771Y0003520472D03*
D39*
X0000157480Y0003364173D02*
X0000157480Y0003393700D01*
X0000068712Y0003520669D02*
X0000137402Y0003520669D01*
X0000035480Y0003444881D02*
X0000035480Y0003487437D01*
X0000035480Y0003487437D02*
X0000068712Y0003520669D01*
X0000246444Y0003520472D02*
X0000176771Y0003520472D01*
X0000279480Y0003444881D02*
X0000279480Y0003487437D01*
X0000279480Y0003487437D02*
X0000246444Y0003520472D01*
G36*
X0000302165Y0003268342D02*
G01*
X0000301599Y0003262566D01*
X0000300103Y0003257613D01*
X0000297674Y0003253044D01*
X0000294403Y0003249034D01*
X0000290416Y0003245735D01*
X0000285865Y0003243274D01*
X0000280921Y0003241744D01*
X0000275185Y0003241141D01*
X0000039995Y0003241141D01*
X0000034220Y0003241708D01*
X0000029266Y0003243203D01*
X0000024697Y0003245632D01*
X0000020687Y0003248903D01*
X0000017389Y0003252890D01*
X0000014928Y0003257442D01*
X0000013398Y0003262385D01*
X0000012795Y0003268121D01*
X0000012795Y0003310039D01*
X0000070809Y0003310039D01*
X0000070809Y0003276574D01*
X0000071037Y0003274259D01*
X0000071712Y0003272033D01*
X0000072809Y0003269981D01*
X0000074285Y0003268182D01*
X0000076083Y0003266706D01*
X0000078135Y0003265610D01*
X0000080361Y0003264934D01*
X0000082677Y0003264706D01*
X0000116141Y0003264706D01*
X0000118457Y0003264934D01*
X0000120683Y0003265610D01*
X0000122735Y0003266706D01*
X0000124533Y0003268182D01*
X0000124700Y0003268385D01*
X0000125259Y0003268012D01*
X0000130453Y0003265860D01*
X0000135968Y0003264763D01*
X0000141590Y0003264763D01*
X0000147105Y0003265860D01*
X0000152299Y0003268012D01*
X0000156974Y0003271136D01*
X0000160950Y0003275111D01*
X0000164074Y0003279786D01*
X0000166225Y0003284981D01*
X0000167322Y0003290495D01*
X0000167322Y0003296118D01*
X0000188976Y0003296118D01*
X0000188976Y0003290495D01*
X0000190073Y0003284981D01*
X0000192224Y0003279786D01*
X0000195348Y0003275111D01*
X0000199324Y0003271136D01*
X0000203999Y0003268012D01*
X0000209193Y0003265860D01*
X0000214708Y0003264763D01*
X0000220330Y0003264763D01*
X0000225845Y0003265860D01*
X0000231040Y0003268012D01*
X0000235715Y0003271136D01*
X0000239690Y0003275111D01*
X0000242814Y0003279786D01*
X0000244966Y0003284981D01*
X0000246062Y0003290495D01*
X0000246062Y0003296118D01*
X0000244966Y0003301632D01*
X0000242814Y0003306827D01*
X0000239690Y0003311502D01*
X0000235715Y0003315478D01*
X0000231040Y0003318601D01*
X0000225845Y0003320753D01*
X0000220330Y0003321850D01*
X0000214708Y0003321850D01*
X0000209193Y0003320753D01*
X0000203999Y0003318601D01*
X0000199324Y0003315478D01*
X0000195348Y0003311502D01*
X0000192224Y0003306827D01*
X0000190073Y0003301632D01*
X0000188976Y0003296118D01*
X0000167322Y0003296118D01*
X0000166225Y0003301632D01*
X0000164074Y0003306827D01*
X0000160950Y0003311502D01*
X0000156974Y0003315478D01*
X0000152299Y0003318601D01*
X0000147105Y0003320753D01*
X0000141590Y0003321850D01*
X0000135968Y0003321850D01*
X0000130453Y0003320753D01*
X0000125259Y0003318601D01*
X0000124700Y0003318228D01*
X0000124533Y0003318431D01*
X0000122735Y0003319907D01*
X0000120683Y0003321004D01*
X0000118457Y0003321679D01*
X0000116141Y0003321907D01*
X0000082677Y0003321907D01*
X0000080361Y0003321679D01*
X0000078135Y0003321004D01*
X0000076083Y0003319907D01*
X0000074285Y0003318431D01*
X0000072809Y0003316632D01*
X0000071712Y0003314581D01*
X0000071037Y0003312354D01*
X0000070809Y0003310039D01*
X0000012795Y0003310039D01*
X0000012795Y0003366141D01*
X0000302165Y0003366141D01*
X0000302165Y0003268342D01*
G37*
X0000302165Y0003268342D02*
X0000301599Y0003262566D01*
X0000300103Y0003257613D01*
X0000297674Y0003253044D01*
X0000294403Y0003249034D01*
X0000290416Y0003245735D01*
X0000285865Y0003243274D01*
X0000280921Y0003241744D01*
X0000275185Y0003241141D01*
X0000039995Y0003241141D01*
X0000034220Y0003241708D01*
X0000029266Y0003243203D01*
X0000024697Y0003245632D01*
X0000020687Y0003248903D01*
X0000017389Y0003252890D01*
X0000014928Y0003257442D01*
X0000013398Y0003262385D01*
X0000012795Y0003268121D01*
X0000012795Y0003310039D01*
X0000070809Y0003310039D01*
X0000070809Y0003276574D01*
X0000071037Y0003274259D01*
X0000071712Y0003272033D01*
X0000072809Y0003269981D01*
X0000074285Y0003268182D01*
X0000076083Y0003266706D01*
X0000078135Y0003265610D01*
X0000080361Y0003264934D01*
X0000082677Y0003264706D01*
X0000116141Y0003264706D01*
X0000118457Y0003264934D01*
X0000120683Y0003265610D01*
X0000122735Y0003266706D01*
X0000124533Y0003268182D01*
X0000124700Y0003268385D01*
X0000125259Y0003268012D01*
X0000130453Y0003265860D01*
X0000135968Y0003264763D01*
X0000141590Y0003264763D01*
X0000147105Y0003265860D01*
X0000152299Y0003268012D01*
X0000156974Y0003271136D01*
X0000160950Y0003275111D01*
X0000164074Y0003279786D01*
X0000166225Y0003284981D01*
X0000167322Y0003290495D01*
X0000167322Y0003296118D01*
X0000188976Y0003296118D01*
X0000188976Y0003290495D01*
X0000190073Y0003284981D01*
X0000192224Y0003279786D01*
X0000195348Y0003275111D01*
X0000199324Y0003271136D01*
X0000203999Y0003268012D01*
X0000209193Y0003265860D01*
X0000214708Y0003264763D01*
X0000220330Y0003264763D01*
X0000225845Y0003265860D01*
X0000231040Y0003268012D01*
X0000235715Y0003271136D01*
X0000239690Y0003275111D01*
X0000242814Y0003279786D01*
X0000244966Y0003284981D01*
X0000246062Y0003290495D01*
X0000246062Y0003296118D01*
X0000244966Y0003301632D01*
X0000242814Y0003306827D01*
X0000239690Y0003311502D01*
X0000235715Y0003315478D01*
X0000231040Y0003318601D01*
X0000225845Y0003320753D01*
X0000220330Y0003321850D01*
X0000214708Y0003321850D01*
X0000209193Y0003320753D01*
X0000203999Y0003318601D01*
X0000199324Y0003315478D01*
X0000195348Y0003311502D01*
X0000192224Y0003306827D01*
X0000190073Y0003301632D01*
X0000188976Y0003296118D01*
X0000167322Y0003296118D01*
X0000166225Y0003301632D01*
X0000164074Y0003306827D01*
X0000160950Y0003311502D01*
X0000156974Y0003315478D01*
X0000152299Y0003318601D01*
X0000147105Y0003320753D01*
X0000141590Y0003321850D01*
X0000135968Y0003321850D01*
X0000130453Y0003320753D01*
X0000125259Y0003318601D01*
X0000124700Y0003318228D01*
X0000124533Y0003318431D01*
X0000122735Y0003319907D01*
X0000120683Y0003321004D01*
X0000118457Y0003321679D01*
X0000116141Y0003321907D01*
X0000082677Y0003321907D01*
X0000080361Y0003321679D01*
X0000078135Y0003321004D01*
X0000076083Y0003319907D01*
X0000074285Y0003318431D01*
X0000072809Y0003316632D01*
X0000071712Y0003314581D01*
X0000071037Y0003312354D01*
X0000070809Y0003310039D01*
X0000012795Y0003310039D01*
X0000012795Y0003366141D01*
X0000302165Y0003366141D01*
X0000302165Y0003268342D01*
G36*
X0000115995Y0003503101D02*
G01*
X0000119834Y0003499262D01*
X0000124347Y0003496246D01*
X0000129363Y0003494169D01*
X0000134687Y0003493110D01*
X0000140116Y0003493110D01*
X0000145440Y0003494169D01*
X0000150456Y0003496246D01*
X0000154969Y0003499262D01*
X0000156988Y0003501281D01*
X0000159203Y0003499065D01*
X0000163717Y0003496049D01*
X0000168732Y0003493972D01*
X0000174057Y0003492913D01*
X0000179485Y0003492913D01*
X0000184810Y0003493972D01*
X0000189825Y0003496049D01*
X0000194339Y0003499065D01*
X0000198178Y0003502904D01*
X0000199394Y0003504724D01*
X0000239921Y0003504724D01*
X0000253437Y0003491208D01*
X0000253385Y0003491203D01*
X0000251159Y0003490527D01*
X0000249107Y0003489430D01*
X0000247308Y0003487955D01*
X0000245832Y0003486156D01*
X0000244736Y0003484104D01*
X0000244060Y0003481878D01*
X0000243832Y0003479562D01*
X0000243832Y0003410200D01*
X0000244060Y0003407885D01*
X0000244736Y0003405659D01*
X0000245832Y0003403607D01*
X0000247308Y0003401808D01*
X0000249107Y0003400332D01*
X0000251159Y0003399236D01*
X0000253385Y0003398560D01*
X0000255700Y0003398332D01*
X0000302165Y0003398332D01*
X0000302165Y0003391732D01*
X0000012795Y0003391732D01*
X0000012795Y0003398332D01*
X0000059259Y0003398332D01*
X0000061575Y0003398560D01*
X0000063801Y0003399236D01*
X0000065853Y0003400332D01*
X0000067651Y0003401808D01*
X0000069127Y0003403607D01*
X0000070224Y0003405659D01*
X0000070899Y0003407885D01*
X0000071127Y0003410200D01*
X0000071127Y0003479562D01*
X0000070899Y0003481878D01*
X0000070224Y0003484104D01*
X0000069127Y0003486156D01*
X0000067651Y0003487955D01*
X0000065853Y0003489430D01*
X0000063801Y0003490527D01*
X0000061575Y0003491203D01*
X0000061522Y0003491208D01*
X0000075235Y0003504921D01*
X0000114779Y0003504921D01*
X0000115995Y0003503101D01*
G37*
X0000115995Y0003503101D02*
X0000119834Y0003499262D01*
X0000124347Y0003496246D01*
X0000129363Y0003494169D01*
X0000134687Y0003493110D01*
X0000140116Y0003493110D01*
X0000145440Y0003494169D01*
X0000150456Y0003496246D01*
X0000154969Y0003499262D01*
X0000156988Y0003501281D01*
X0000159203Y0003499065D01*
X0000163717Y0003496049D01*
X0000168732Y0003493972D01*
X0000174057Y0003492913D01*
X0000179485Y0003492913D01*
X0000184810Y0003493972D01*
X0000189825Y0003496049D01*
X0000194339Y0003499065D01*
X0000198178Y0003502904D01*
X0000199394Y0003504724D01*
X0000239921Y0003504724D01*
X0000253437Y0003491208D01*
X0000253385Y0003491203D01*
X0000251159Y0003490527D01*
X0000249107Y0003489430D01*
X0000247308Y0003487955D01*
X0000245832Y0003486156D01*
X0000244736Y0003484104D01*
X0000244060Y0003481878D01*
X0000243832Y0003479562D01*
X0000243832Y0003410200D01*
X0000244060Y0003407885D01*
X0000244736Y0003405659D01*
X0000245832Y0003403607D01*
X0000247308Y0003401808D01*
X0000249107Y0003400332D01*
X0000251159Y0003399236D01*
X0000253385Y0003398560D01*
X0000255700Y0003398332D01*
X0000302165Y0003398332D01*
X0000302165Y0003391732D01*
X0000012795Y0003391732D01*
X0000012795Y0003398332D01*
X0000059259Y0003398332D01*
X0000061575Y0003398560D01*
X0000063801Y0003399236D01*
X0000065853Y0003400332D01*
X0000067651Y0003401808D01*
X0000069127Y0003403607D01*
X0000070224Y0003405659D01*
X0000070899Y0003407885D01*
X0000071127Y0003410200D01*
X0000071127Y0003479562D01*
X0000070899Y0003481878D01*
X0000070224Y0003484104D01*
X0000069127Y0003486156D01*
X0000067651Y0003487955D01*
X0000065853Y0003489430D01*
X0000063801Y0003490527D01*
X0000061575Y0003491203D01*
X0000061522Y0003491208D01*
X0000075235Y0003504921D01*
X0000114779Y0003504921D01*
X0000115995Y0003503101D01*
G04 next file*
G04 #@! TF.GenerationSoftware,KiCad,Pcbnew,(5.1.5)-3*
G04 #@! TF.CreationDate,2021-04-29T13:46:15+02:00*
G04 #@! TF.ProjectId,Hivetracker,48697665-7472-4616-936b-65722e6b6963,rev?*
G04 #@! TF.SameCoordinates,PX2562500PY28a0640*
G04 #@! TF.FileFunction,Copper,L1,Top*
G04 #@! TF.FilePolarity,Positive*
G04 Gerber Fmt 4.6, Leading zero omitted, Abs format (unit mm)*
G04 Created by KiCad (PCBNEW (5.1.5)-3) date 2021-04-29 13:46:15*
G04 APERTURE LIST*
G04 APERTURE END LIST*
D40*
X0000393700Y0003543307D02*
X0000429181Y0003444881D03*
X0000673181Y0003444881D03*
D41*
X0000493110Y0003293307D03*
D42*
X0000532480Y0003293307D03*
X0000571850Y0003293307D03*
X0000611220Y0003293307D03*
D43*
X0000608267Y0003492913D03*
X0000531102Y0003520669D03*
X0000570472Y0003520472D03*
D44*
X0000551181Y0003364173D02*
X0000551181Y0003393700D01*
X0000462413Y0003520669D02*
X0000531102Y0003520669D01*
X0000429181Y0003444881D02*
X0000429181Y0003487437D01*
X0000429181Y0003487437D02*
X0000462413Y0003520669D01*
X0000640145Y0003520472D02*
X0000570472Y0003520472D01*
X0000673181Y0003444881D02*
X0000673181Y0003487437D01*
X0000673181Y0003487437D02*
X0000640145Y0003520472D01*
G36*
X0000695866Y0003268342D02*
G01*
X0000695299Y0003262566D01*
X0000693804Y0003257613D01*
X0000691374Y0003253044D01*
X0000688104Y0003249034D01*
X0000684117Y0003245735D01*
X0000679565Y0003243274D01*
X0000674622Y0003241744D01*
X0000668886Y0003241141D01*
X0000433696Y0003241141D01*
X0000427921Y0003241708D01*
X0000422967Y0003243203D01*
X0000418398Y0003245632D01*
X0000414388Y0003248903D01*
X0000411090Y0003252890D01*
X0000408629Y0003257442D01*
X0000407098Y0003262385D01*
X0000406496Y0003268121D01*
X0000406496Y0003310039D01*
X0000464509Y0003310039D01*
X0000464509Y0003276574D01*
X0000464737Y0003274259D01*
X0000465413Y0003272033D01*
X0000466509Y0003269981D01*
X0000467985Y0003268182D01*
X0000469784Y0003266706D01*
X0000471836Y0003265610D01*
X0000474062Y0003264934D01*
X0000476377Y0003264706D01*
X0000509842Y0003264706D01*
X0000512157Y0003264934D01*
X0000514384Y0003265610D01*
X0000516436Y0003266706D01*
X0000518234Y0003268182D01*
X0000518401Y0003268385D01*
X0000518960Y0003268012D01*
X0000524154Y0003265860D01*
X0000529669Y0003264763D01*
X0000535291Y0003264763D01*
X0000540806Y0003265860D01*
X0000546000Y0003268012D01*
X0000550675Y0003271136D01*
X0000554651Y0003275111D01*
X0000557775Y0003279786D01*
X0000559926Y0003284981D01*
X0000561023Y0003290495D01*
X0000561023Y0003296118D01*
X0000582677Y0003296118D01*
X0000582677Y0003290495D01*
X0000583774Y0003284981D01*
X0000585925Y0003279786D01*
X0000589049Y0003275111D01*
X0000593025Y0003271136D01*
X0000597700Y0003268012D01*
X0000602894Y0003265860D01*
X0000608409Y0003264763D01*
X0000614031Y0003264763D01*
X0000619546Y0003265860D01*
X0000624740Y0003268012D01*
X0000629415Y0003271136D01*
X0000633391Y0003275111D01*
X0000636515Y0003279786D01*
X0000638666Y0003284981D01*
X0000639763Y0003290495D01*
X0000639763Y0003296118D01*
X0000638666Y0003301632D01*
X0000636515Y0003306827D01*
X0000633391Y0003311502D01*
X0000629415Y0003315478D01*
X0000624740Y0003318601D01*
X0000619546Y0003320753D01*
X0000614031Y0003321850D01*
X0000608409Y0003321850D01*
X0000602894Y0003320753D01*
X0000597700Y0003318601D01*
X0000593025Y0003315478D01*
X0000589049Y0003311502D01*
X0000585925Y0003306827D01*
X0000583774Y0003301632D01*
X0000582677Y0003296118D01*
X0000561023Y0003296118D01*
X0000559926Y0003301632D01*
X0000557775Y0003306827D01*
X0000554651Y0003311502D01*
X0000550675Y0003315478D01*
X0000546000Y0003318601D01*
X0000540806Y0003320753D01*
X0000535291Y0003321850D01*
X0000529669Y0003321850D01*
X0000524154Y0003320753D01*
X0000518960Y0003318601D01*
X0000518401Y0003318228D01*
X0000518234Y0003318431D01*
X0000516436Y0003319907D01*
X0000514384Y0003321004D01*
X0000512157Y0003321679D01*
X0000509842Y0003321907D01*
X0000476377Y0003321907D01*
X0000474062Y0003321679D01*
X0000471836Y0003321004D01*
X0000469784Y0003319907D01*
X0000467985Y0003318431D01*
X0000466509Y0003316632D01*
X0000465413Y0003314581D01*
X0000464737Y0003312354D01*
X0000464509Y0003310039D01*
X0000406496Y0003310039D01*
X0000406496Y0003366141D01*
X0000695866Y0003366141D01*
X0000695866Y0003268342D01*
G37*
X0000695866Y0003268342D02*
X0000695299Y0003262566D01*
X0000693804Y0003257613D01*
X0000691374Y0003253044D01*
X0000688104Y0003249034D01*
X0000684117Y0003245735D01*
X0000679565Y0003243274D01*
X0000674622Y0003241744D01*
X0000668886Y0003241141D01*
X0000433696Y0003241141D01*
X0000427921Y0003241708D01*
X0000422967Y0003243203D01*
X0000418398Y0003245632D01*
X0000414388Y0003248903D01*
X0000411090Y0003252890D01*
X0000408629Y0003257442D01*
X0000407098Y0003262385D01*
X0000406496Y0003268121D01*
X0000406496Y0003310039D01*
X0000464509Y0003310039D01*
X0000464509Y0003276574D01*
X0000464737Y0003274259D01*
X0000465413Y0003272033D01*
X0000466509Y0003269981D01*
X0000467985Y0003268182D01*
X0000469784Y0003266706D01*
X0000471836Y0003265610D01*
X0000474062Y0003264934D01*
X0000476377Y0003264706D01*
X0000509842Y0003264706D01*
X0000512157Y0003264934D01*
X0000514384Y0003265610D01*
X0000516436Y0003266706D01*
X0000518234Y0003268182D01*
X0000518401Y0003268385D01*
X0000518960Y0003268012D01*
X0000524154Y0003265860D01*
X0000529669Y0003264763D01*
X0000535291Y0003264763D01*
X0000540806Y0003265860D01*
X0000546000Y0003268012D01*
X0000550675Y0003271136D01*
X0000554651Y0003275111D01*
X0000557775Y0003279786D01*
X0000559926Y0003284981D01*
X0000561023Y0003290495D01*
X0000561023Y0003296118D01*
X0000582677Y0003296118D01*
X0000582677Y0003290495D01*
X0000583774Y0003284981D01*
X0000585925Y0003279786D01*
X0000589049Y0003275111D01*
X0000593025Y0003271136D01*
X0000597700Y0003268012D01*
X0000602894Y0003265860D01*
X0000608409Y0003264763D01*
X0000614031Y0003264763D01*
X0000619546Y0003265860D01*
X0000624740Y0003268012D01*
X0000629415Y0003271136D01*
X0000633391Y0003275111D01*
X0000636515Y0003279786D01*
X0000638666Y0003284981D01*
X0000639763Y0003290495D01*
X0000639763Y0003296118D01*
X0000638666Y0003301632D01*
X0000636515Y0003306827D01*
X0000633391Y0003311502D01*
X0000629415Y0003315478D01*
X0000624740Y0003318601D01*
X0000619546Y0003320753D01*
X0000614031Y0003321850D01*
X0000608409Y0003321850D01*
X0000602894Y0003320753D01*
X0000597700Y0003318601D01*
X0000593025Y0003315478D01*
X0000589049Y0003311502D01*
X0000585925Y0003306827D01*
X0000583774Y0003301632D01*
X0000582677Y0003296118D01*
X0000561023Y0003296118D01*
X0000559926Y0003301632D01*
X0000557775Y0003306827D01*
X0000554651Y0003311502D01*
X0000550675Y0003315478D01*
X0000546000Y0003318601D01*
X0000540806Y0003320753D01*
X0000535291Y0003321850D01*
X0000529669Y0003321850D01*
X0000524154Y0003320753D01*
X0000518960Y0003318601D01*
X0000518401Y0003318228D01*
X0000518234Y0003318431D01*
X0000516436Y0003319907D01*
X0000514384Y0003321004D01*
X0000512157Y0003321679D01*
X0000509842Y0003321907D01*
X0000476377Y0003321907D01*
X0000474062Y0003321679D01*
X0000471836Y0003321004D01*
X0000469784Y0003319907D01*
X0000467985Y0003318431D01*
X0000466509Y0003316632D01*
X0000465413Y0003314581D01*
X0000464737Y0003312354D01*
X0000464509Y0003310039D01*
X0000406496Y0003310039D01*
X0000406496Y0003366141D01*
X0000695866Y0003366141D01*
X0000695866Y0003268342D01*
G36*
X0000509696Y0003503101D02*
G01*
X0000513534Y0003499262D01*
X0000518048Y0003496246D01*
X0000523064Y0003494169D01*
X0000528388Y0003493110D01*
X0000533817Y0003493110D01*
X0000539141Y0003494169D01*
X0000544156Y0003496246D01*
X0000548670Y0003499262D01*
X0000550689Y0003501281D01*
X0000552904Y0003499065D01*
X0000557418Y0003496049D01*
X0000562433Y0003493972D01*
X0000567758Y0003492913D01*
X0000573186Y0003492913D01*
X0000578511Y0003493972D01*
X0000583526Y0003496049D01*
X0000588040Y0003499065D01*
X0000591878Y0003502904D01*
X0000593094Y0003504724D01*
X0000633622Y0003504724D01*
X0000647138Y0003491208D01*
X0000647086Y0003491203D01*
X0000644859Y0003490527D01*
X0000642808Y0003489430D01*
X0000641009Y0003487955D01*
X0000639533Y0003486156D01*
X0000638436Y0003484104D01*
X0000637761Y0003481878D01*
X0000637533Y0003479562D01*
X0000637533Y0003410200D01*
X0000637761Y0003407885D01*
X0000638436Y0003405659D01*
X0000639533Y0003403607D01*
X0000641009Y0003401808D01*
X0000642808Y0003400332D01*
X0000644859Y0003399236D01*
X0000647086Y0003398560D01*
X0000649401Y0003398332D01*
X0000695866Y0003398332D01*
X0000695866Y0003391732D01*
X0000406496Y0003391732D01*
X0000406496Y0003398332D01*
X0000452960Y0003398332D01*
X0000455275Y0003398560D01*
X0000457502Y0003399236D01*
X0000459554Y0003400332D01*
X0000461352Y0003401808D01*
X0000462828Y0003403607D01*
X0000463925Y0003405659D01*
X0000464600Y0003407885D01*
X0000464828Y0003410200D01*
X0000464828Y0003479562D01*
X0000464600Y0003481878D01*
X0000463925Y0003484104D01*
X0000462828Y0003486156D01*
X0000461352Y0003487955D01*
X0000459554Y0003489430D01*
X0000457502Y0003490527D01*
X0000455275Y0003491203D01*
X0000455223Y0003491208D01*
X0000468936Y0003504921D01*
X0000508480Y0003504921D01*
X0000509696Y0003503101D01*
G37*
X0000509696Y0003503101D02*
X0000513534Y0003499262D01*
X0000518048Y0003496246D01*
X0000523064Y0003494169D01*
X0000528388Y0003493110D01*
X0000533817Y0003493110D01*
X0000539141Y0003494169D01*
X0000544156Y0003496246D01*
X0000548670Y0003499262D01*
X0000550689Y0003501281D01*
X0000552904Y0003499065D01*
X0000557418Y0003496049D01*
X0000562433Y0003493972D01*
X0000567758Y0003492913D01*
X0000573186Y0003492913D01*
X0000578511Y0003493972D01*
X0000583526Y0003496049D01*
X0000588040Y0003499065D01*
X0000591878Y0003502904D01*
X0000593094Y0003504724D01*
X0000633622Y0003504724D01*
X0000647138Y0003491208D01*
X0000647086Y0003491203D01*
X0000644859Y0003490527D01*
X0000642808Y0003489430D01*
X0000641009Y0003487955D01*
X0000639533Y0003486156D01*
X0000638436Y0003484104D01*
X0000637761Y0003481878D01*
X0000637533Y0003479562D01*
X0000637533Y0003410200D01*
X0000637761Y0003407885D01*
X0000638436Y0003405659D01*
X0000639533Y0003403607D01*
X0000641009Y0003401808D01*
X0000642808Y0003400332D01*
X0000644859Y0003399236D01*
X0000647086Y0003398560D01*
X0000649401Y0003398332D01*
X0000695866Y0003398332D01*
X0000695866Y0003391732D01*
X0000406496Y0003391732D01*
X0000406496Y0003398332D01*
X0000452960Y0003398332D01*
X0000455275Y0003398560D01*
X0000457502Y0003399236D01*
X0000459554Y0003400332D01*
X0000461352Y0003401808D01*
X0000462828Y0003403607D01*
X0000463925Y0003405659D01*
X0000464600Y0003407885D01*
X0000464828Y0003410200D01*
X0000464828Y0003479562D01*
X0000464600Y0003481878D01*
X0000463925Y0003484104D01*
X0000462828Y0003486156D01*
X0000461352Y0003487955D01*
X0000459554Y0003489430D01*
X0000457502Y0003490527D01*
X0000455275Y0003491203D01*
X0000455223Y0003491208D01*
X0000468936Y0003504921D01*
X0000508480Y0003504921D01*
X0000509696Y0003503101D01*
G04 next file*
G04 #@! TF.GenerationSoftware,KiCad,Pcbnew,(5.1.5)-3*
G04 #@! TF.CreationDate,2021-04-29T13:46:15+02:00*
G04 #@! TF.ProjectId,Hivetracker,48697665-7472-4616-936b-65722e6b6963,rev?*
G04 #@! TF.SameCoordinates,PX2562500PY28a0640*
G04 #@! TF.FileFunction,Copper,L1,Top*
G04 #@! TF.FilePolarity,Positive*
G04 Gerber Fmt 4.6, Leading zero omitted, Abs format (unit mm)*
G04 Created by KiCad (PCBNEW (5.1.5)-3) date 2021-04-29 13:46:15*
G04 APERTURE LIST*
G04 APERTURE END LIST*
D45*
X0000000000Y0003149606D02*
X0000035480Y0003051181D03*
X0000279480Y0003051181D03*
D46*
X0000099409Y0002899606D03*
D47*
X0000138779Y0002899606D03*
X0000178149Y0002899606D03*
X0000217519Y0002899606D03*
D48*
X0000214566Y0003099212D03*
X0000137402Y0003126968D03*
X0000176771Y0003126771D03*
D49*
X0000157480Y0002970472D02*
X0000157480Y0003000000D01*
X0000068712Y0003126968D02*
X0000137402Y0003126968D01*
X0000035480Y0003051181D02*
X0000035480Y0003093736D01*
X0000035480Y0003093736D02*
X0000068712Y0003126968D01*
X0000246444Y0003126771D02*
X0000176771Y0003126771D01*
X0000279480Y0003051181D02*
X0000279480Y0003093736D01*
X0000279480Y0003093736D02*
X0000246444Y0003126771D01*
G36*
X0000302165Y0002874641D02*
G01*
X0000301599Y0002868865D01*
X0000300103Y0002863912D01*
X0000297674Y0002859343D01*
X0000294403Y0002855333D01*
X0000290416Y0002852035D01*
X0000285865Y0002849574D01*
X0000280921Y0002848043D01*
X0000275185Y0002847440D01*
X0000039995Y0002847440D01*
X0000034220Y0002848007D01*
X0000029266Y0002849502D01*
X0000024697Y0002851932D01*
X0000020687Y0002855202D01*
X0000017389Y0002859189D01*
X0000014928Y0002863741D01*
X0000013398Y0002868684D01*
X0000012795Y0002874420D01*
X0000012795Y0002916338D01*
X0000070809Y0002916338D01*
X0000070809Y0002882874D01*
X0000071037Y0002880558D01*
X0000071712Y0002878332D01*
X0000072809Y0002876280D01*
X0000074285Y0002874481D01*
X0000076083Y0002873006D01*
X0000078135Y0002871909D01*
X0000080361Y0002871233D01*
X0000082677Y0002871005D01*
X0000116141Y0002871005D01*
X0000118457Y0002871233D01*
X0000120683Y0002871909D01*
X0000122735Y0002873006D01*
X0000124533Y0002874481D01*
X0000124700Y0002874684D01*
X0000125259Y0002874311D01*
X0000130453Y0002872159D01*
X0000135968Y0002871062D01*
X0000141590Y0002871062D01*
X0000147105Y0002872159D01*
X0000152299Y0002874311D01*
X0000156974Y0002877435D01*
X0000160950Y0002881410D01*
X0000164074Y0002886085D01*
X0000166225Y0002891280D01*
X0000167322Y0002896795D01*
X0000167322Y0002902417D01*
X0000188976Y0002902417D01*
X0000188976Y0002896795D01*
X0000190073Y0002891280D01*
X0000192224Y0002886085D01*
X0000195348Y0002881410D01*
X0000199324Y0002877435D01*
X0000203999Y0002874311D01*
X0000209193Y0002872159D01*
X0000214708Y0002871062D01*
X0000220330Y0002871062D01*
X0000225845Y0002872159D01*
X0000231040Y0002874311D01*
X0000235715Y0002877435D01*
X0000239690Y0002881410D01*
X0000242814Y0002886085D01*
X0000244966Y0002891280D01*
X0000246062Y0002896795D01*
X0000246062Y0002902417D01*
X0000244966Y0002907932D01*
X0000242814Y0002913126D01*
X0000239690Y0002917801D01*
X0000235715Y0002921777D01*
X0000231040Y0002924901D01*
X0000225845Y0002927052D01*
X0000220330Y0002928149D01*
X0000214708Y0002928149D01*
X0000209193Y0002927052D01*
X0000203999Y0002924901D01*
X0000199324Y0002921777D01*
X0000195348Y0002917801D01*
X0000192224Y0002913126D01*
X0000190073Y0002907932D01*
X0000188976Y0002902417D01*
X0000167322Y0002902417D01*
X0000166225Y0002907932D01*
X0000164074Y0002913126D01*
X0000160950Y0002917801D01*
X0000156974Y0002921777D01*
X0000152299Y0002924901D01*
X0000147105Y0002927052D01*
X0000141590Y0002928149D01*
X0000135968Y0002928149D01*
X0000130453Y0002927052D01*
X0000125259Y0002924901D01*
X0000124700Y0002924527D01*
X0000124533Y0002924730D01*
X0000122735Y0002926206D01*
X0000120683Y0002927303D01*
X0000118457Y0002927978D01*
X0000116141Y0002928206D01*
X0000082677Y0002928206D01*
X0000080361Y0002927978D01*
X0000078135Y0002927303D01*
X0000076083Y0002926206D01*
X0000074285Y0002924730D01*
X0000072809Y0002922932D01*
X0000071712Y0002920880D01*
X0000071037Y0002918653D01*
X0000070809Y0002916338D01*
X0000012795Y0002916338D01*
X0000012795Y0002972440D01*
X0000302165Y0002972440D01*
X0000302165Y0002874641D01*
G37*
X0000302165Y0002874641D02*
X0000301599Y0002868865D01*
X0000300103Y0002863912D01*
X0000297674Y0002859343D01*
X0000294403Y0002855333D01*
X0000290416Y0002852035D01*
X0000285865Y0002849574D01*
X0000280921Y0002848043D01*
X0000275185Y0002847440D01*
X0000039995Y0002847440D01*
X0000034220Y0002848007D01*
X0000029266Y0002849502D01*
X0000024697Y0002851932D01*
X0000020687Y0002855202D01*
X0000017389Y0002859189D01*
X0000014928Y0002863741D01*
X0000013398Y0002868684D01*
X0000012795Y0002874420D01*
X0000012795Y0002916338D01*
X0000070809Y0002916338D01*
X0000070809Y0002882874D01*
X0000071037Y0002880558D01*
X0000071712Y0002878332D01*
X0000072809Y0002876280D01*
X0000074285Y0002874481D01*
X0000076083Y0002873006D01*
X0000078135Y0002871909D01*
X0000080361Y0002871233D01*
X0000082677Y0002871005D01*
X0000116141Y0002871005D01*
X0000118457Y0002871233D01*
X0000120683Y0002871909D01*
X0000122735Y0002873006D01*
X0000124533Y0002874481D01*
X0000124700Y0002874684D01*
X0000125259Y0002874311D01*
X0000130453Y0002872159D01*
X0000135968Y0002871062D01*
X0000141590Y0002871062D01*
X0000147105Y0002872159D01*
X0000152299Y0002874311D01*
X0000156974Y0002877435D01*
X0000160950Y0002881410D01*
X0000164074Y0002886085D01*
X0000166225Y0002891280D01*
X0000167322Y0002896795D01*
X0000167322Y0002902417D01*
X0000188976Y0002902417D01*
X0000188976Y0002896795D01*
X0000190073Y0002891280D01*
X0000192224Y0002886085D01*
X0000195348Y0002881410D01*
X0000199324Y0002877435D01*
X0000203999Y0002874311D01*
X0000209193Y0002872159D01*
X0000214708Y0002871062D01*
X0000220330Y0002871062D01*
X0000225845Y0002872159D01*
X0000231040Y0002874311D01*
X0000235715Y0002877435D01*
X0000239690Y0002881410D01*
X0000242814Y0002886085D01*
X0000244966Y0002891280D01*
X0000246062Y0002896795D01*
X0000246062Y0002902417D01*
X0000244966Y0002907932D01*
X0000242814Y0002913126D01*
X0000239690Y0002917801D01*
X0000235715Y0002921777D01*
X0000231040Y0002924901D01*
X0000225845Y0002927052D01*
X0000220330Y0002928149D01*
X0000214708Y0002928149D01*
X0000209193Y0002927052D01*
X0000203999Y0002924901D01*
X0000199324Y0002921777D01*
X0000195348Y0002917801D01*
X0000192224Y0002913126D01*
X0000190073Y0002907932D01*
X0000188976Y0002902417D01*
X0000167322Y0002902417D01*
X0000166225Y0002907932D01*
X0000164074Y0002913126D01*
X0000160950Y0002917801D01*
X0000156974Y0002921777D01*
X0000152299Y0002924901D01*
X0000147105Y0002927052D01*
X0000141590Y0002928149D01*
X0000135968Y0002928149D01*
X0000130453Y0002927052D01*
X0000125259Y0002924901D01*
X0000124700Y0002924527D01*
X0000124533Y0002924730D01*
X0000122735Y0002926206D01*
X0000120683Y0002927303D01*
X0000118457Y0002927978D01*
X0000116141Y0002928206D01*
X0000082677Y0002928206D01*
X0000080361Y0002927978D01*
X0000078135Y0002927303D01*
X0000076083Y0002926206D01*
X0000074285Y0002924730D01*
X0000072809Y0002922932D01*
X0000071712Y0002920880D01*
X0000071037Y0002918653D01*
X0000070809Y0002916338D01*
X0000012795Y0002916338D01*
X0000012795Y0002972440D01*
X0000302165Y0002972440D01*
X0000302165Y0002874641D01*
G36*
X0000115995Y0003109400D02*
G01*
X0000119834Y0003105561D01*
X0000124347Y0003102545D01*
X0000129363Y0003100468D01*
X0000134687Y0003099409D01*
X0000140116Y0003099409D01*
X0000145440Y0003100468D01*
X0000150456Y0003102545D01*
X0000154969Y0003105561D01*
X0000156988Y0003107580D01*
X0000159203Y0003105365D01*
X0000163717Y0003102349D01*
X0000168732Y0003100271D01*
X0000174057Y0003099212D01*
X0000179485Y0003099212D01*
X0000184810Y0003100271D01*
X0000189825Y0003102349D01*
X0000194339Y0003105365D01*
X0000198178Y0003109203D01*
X0000199394Y0003111023D01*
X0000239921Y0003111023D01*
X0000253437Y0003097507D01*
X0000253385Y0003097502D01*
X0000251159Y0003096826D01*
X0000249107Y0003095730D01*
X0000247308Y0003094254D01*
X0000245832Y0003092455D01*
X0000244736Y0003090403D01*
X0000244060Y0003088177D01*
X0000243832Y0003085862D01*
X0000243832Y0003016500D01*
X0000244060Y0003014184D01*
X0000244736Y0003011958D01*
X0000245832Y0003009906D01*
X0000247308Y0003008107D01*
X0000249107Y0003006632D01*
X0000251159Y0003005535D01*
X0000253385Y0003004859D01*
X0000255700Y0003004631D01*
X0000302165Y0003004631D01*
X0000302165Y0002998031D01*
X0000012795Y0002998031D01*
X0000012795Y0003004631D01*
X0000059259Y0003004631D01*
X0000061575Y0003004859D01*
X0000063801Y0003005535D01*
X0000065853Y0003006632D01*
X0000067651Y0003008107D01*
X0000069127Y0003009906D01*
X0000070224Y0003011958D01*
X0000070899Y0003014184D01*
X0000071127Y0003016500D01*
X0000071127Y0003085862D01*
X0000070899Y0003088177D01*
X0000070224Y0003090403D01*
X0000069127Y0003092455D01*
X0000067651Y0003094254D01*
X0000065853Y0003095730D01*
X0000063801Y0003096826D01*
X0000061575Y0003097502D01*
X0000061522Y0003097507D01*
X0000075235Y0003111220D01*
X0000114779Y0003111220D01*
X0000115995Y0003109400D01*
G37*
X0000115995Y0003109400D02*
X0000119834Y0003105561D01*
X0000124347Y0003102545D01*
X0000129363Y0003100468D01*
X0000134687Y0003099409D01*
X0000140116Y0003099409D01*
X0000145440Y0003100468D01*
X0000150456Y0003102545D01*
X0000154969Y0003105561D01*
X0000156988Y0003107580D01*
X0000159203Y0003105365D01*
X0000163717Y0003102349D01*
X0000168732Y0003100271D01*
X0000174057Y0003099212D01*
X0000179485Y0003099212D01*
X0000184810Y0003100271D01*
X0000189825Y0003102349D01*
X0000194339Y0003105365D01*
X0000198178Y0003109203D01*
X0000199394Y0003111023D01*
X0000239921Y0003111023D01*
X0000253437Y0003097507D01*
X0000253385Y0003097502D01*
X0000251159Y0003096826D01*
X0000249107Y0003095730D01*
X0000247308Y0003094254D01*
X0000245832Y0003092455D01*
X0000244736Y0003090403D01*
X0000244060Y0003088177D01*
X0000243832Y0003085862D01*
X0000243832Y0003016500D01*
X0000244060Y0003014184D01*
X0000244736Y0003011958D01*
X0000245832Y0003009906D01*
X0000247308Y0003008107D01*
X0000249107Y0003006632D01*
X0000251159Y0003005535D01*
X0000253385Y0003004859D01*
X0000255700Y0003004631D01*
X0000302165Y0003004631D01*
X0000302165Y0002998031D01*
X0000012795Y0002998031D01*
X0000012795Y0003004631D01*
X0000059259Y0003004631D01*
X0000061575Y0003004859D01*
X0000063801Y0003005535D01*
X0000065853Y0003006632D01*
X0000067651Y0003008107D01*
X0000069127Y0003009906D01*
X0000070224Y0003011958D01*
X0000070899Y0003014184D01*
X0000071127Y0003016500D01*
X0000071127Y0003085862D01*
X0000070899Y0003088177D01*
X0000070224Y0003090403D01*
X0000069127Y0003092455D01*
X0000067651Y0003094254D01*
X0000065853Y0003095730D01*
X0000063801Y0003096826D01*
X0000061575Y0003097502D01*
X0000061522Y0003097507D01*
X0000075235Y0003111220D01*
X0000114779Y0003111220D01*
X0000115995Y0003109400D01*
G04 next file*
G04 #@! TF.GenerationSoftware,KiCad,Pcbnew,(5.1.5)-3*
G04 #@! TF.CreationDate,2021-04-29T13:46:15+02:00*
G04 #@! TF.ProjectId,Hivetracker,48697665-7472-4616-936b-65722e6b6963,rev?*
G04 #@! TF.SameCoordinates,PX2562500PY28a0640*
G04 #@! TF.FileFunction,Copper,L1,Top*
G04 #@! TF.FilePolarity,Positive*
G04 Gerber Fmt 4.6, Leading zero omitted, Abs format (unit mm)*
G04 Created by KiCad (PCBNEW (5.1.5)-3) date 2021-04-29 13:46:15*
G04 APERTURE LIST*
G04 APERTURE END LIST*
D50*
X0000393700Y0003149606D02*
X0000429181Y0003051181D03*
X0000673181Y0003051181D03*
D51*
X0000493110Y0002899606D03*
D52*
X0000532480Y0002899606D03*
X0000571850Y0002899606D03*
X0000611220Y0002899606D03*
D53*
X0000608267Y0003099212D03*
X0000531102Y0003126968D03*
X0000570472Y0003126771D03*
D54*
X0000551181Y0002970472D02*
X0000551181Y0003000000D01*
X0000462413Y0003126968D02*
X0000531102Y0003126968D01*
X0000429181Y0003051181D02*
X0000429181Y0003093736D01*
X0000429181Y0003093736D02*
X0000462413Y0003126968D01*
X0000640145Y0003126771D02*
X0000570472Y0003126771D01*
X0000673181Y0003051181D02*
X0000673181Y0003093736D01*
X0000673181Y0003093736D02*
X0000640145Y0003126771D01*
G36*
X0000695866Y0002874641D02*
G01*
X0000695299Y0002868865D01*
X0000693804Y0002863912D01*
X0000691374Y0002859343D01*
X0000688104Y0002855333D01*
X0000684117Y0002852035D01*
X0000679565Y0002849574D01*
X0000674622Y0002848043D01*
X0000668886Y0002847440D01*
X0000433696Y0002847440D01*
X0000427921Y0002848007D01*
X0000422967Y0002849502D01*
X0000418398Y0002851932D01*
X0000414388Y0002855202D01*
X0000411090Y0002859189D01*
X0000408629Y0002863741D01*
X0000407098Y0002868684D01*
X0000406496Y0002874420D01*
X0000406496Y0002916338D01*
X0000464509Y0002916338D01*
X0000464509Y0002882874D01*
X0000464737Y0002880558D01*
X0000465413Y0002878332D01*
X0000466509Y0002876280D01*
X0000467985Y0002874481D01*
X0000469784Y0002873006D01*
X0000471836Y0002871909D01*
X0000474062Y0002871233D01*
X0000476377Y0002871005D01*
X0000509842Y0002871005D01*
X0000512157Y0002871233D01*
X0000514384Y0002871909D01*
X0000516436Y0002873006D01*
X0000518234Y0002874481D01*
X0000518401Y0002874684D01*
X0000518960Y0002874311D01*
X0000524154Y0002872159D01*
X0000529669Y0002871062D01*
X0000535291Y0002871062D01*
X0000540806Y0002872159D01*
X0000546000Y0002874311D01*
X0000550675Y0002877435D01*
X0000554651Y0002881410D01*
X0000557775Y0002886085D01*
X0000559926Y0002891280D01*
X0000561023Y0002896795D01*
X0000561023Y0002902417D01*
X0000582677Y0002902417D01*
X0000582677Y0002896795D01*
X0000583774Y0002891280D01*
X0000585925Y0002886085D01*
X0000589049Y0002881410D01*
X0000593025Y0002877435D01*
X0000597700Y0002874311D01*
X0000602894Y0002872159D01*
X0000608409Y0002871062D01*
X0000614031Y0002871062D01*
X0000619546Y0002872159D01*
X0000624740Y0002874311D01*
X0000629415Y0002877435D01*
X0000633391Y0002881410D01*
X0000636515Y0002886085D01*
X0000638666Y0002891280D01*
X0000639763Y0002896795D01*
X0000639763Y0002902417D01*
X0000638666Y0002907932D01*
X0000636515Y0002913126D01*
X0000633391Y0002917801D01*
X0000629415Y0002921777D01*
X0000624740Y0002924901D01*
X0000619546Y0002927052D01*
X0000614031Y0002928149D01*
X0000608409Y0002928149D01*
X0000602894Y0002927052D01*
X0000597700Y0002924901D01*
X0000593025Y0002921777D01*
X0000589049Y0002917801D01*
X0000585925Y0002913126D01*
X0000583774Y0002907932D01*
X0000582677Y0002902417D01*
X0000561023Y0002902417D01*
X0000559926Y0002907932D01*
X0000557775Y0002913126D01*
X0000554651Y0002917801D01*
X0000550675Y0002921777D01*
X0000546000Y0002924901D01*
X0000540806Y0002927052D01*
X0000535291Y0002928149D01*
X0000529669Y0002928149D01*
X0000524154Y0002927052D01*
X0000518960Y0002924901D01*
X0000518401Y0002924527D01*
X0000518234Y0002924730D01*
X0000516436Y0002926206D01*
X0000514384Y0002927303D01*
X0000512157Y0002927978D01*
X0000509842Y0002928206D01*
X0000476377Y0002928206D01*
X0000474062Y0002927978D01*
X0000471836Y0002927303D01*
X0000469784Y0002926206D01*
X0000467985Y0002924730D01*
X0000466509Y0002922932D01*
X0000465413Y0002920880D01*
X0000464737Y0002918653D01*
X0000464509Y0002916338D01*
X0000406496Y0002916338D01*
X0000406496Y0002972440D01*
X0000695866Y0002972440D01*
X0000695866Y0002874641D01*
G37*
X0000695866Y0002874641D02*
X0000695299Y0002868865D01*
X0000693804Y0002863912D01*
X0000691374Y0002859343D01*
X0000688104Y0002855333D01*
X0000684117Y0002852035D01*
X0000679565Y0002849574D01*
X0000674622Y0002848043D01*
X0000668886Y0002847440D01*
X0000433696Y0002847440D01*
X0000427921Y0002848007D01*
X0000422967Y0002849502D01*
X0000418398Y0002851932D01*
X0000414388Y0002855202D01*
X0000411090Y0002859189D01*
X0000408629Y0002863741D01*
X0000407098Y0002868684D01*
X0000406496Y0002874420D01*
X0000406496Y0002916338D01*
X0000464509Y0002916338D01*
X0000464509Y0002882874D01*
X0000464737Y0002880558D01*
X0000465413Y0002878332D01*
X0000466509Y0002876280D01*
X0000467985Y0002874481D01*
X0000469784Y0002873006D01*
X0000471836Y0002871909D01*
X0000474062Y0002871233D01*
X0000476377Y0002871005D01*
X0000509842Y0002871005D01*
X0000512157Y0002871233D01*
X0000514384Y0002871909D01*
X0000516436Y0002873006D01*
X0000518234Y0002874481D01*
X0000518401Y0002874684D01*
X0000518960Y0002874311D01*
X0000524154Y0002872159D01*
X0000529669Y0002871062D01*
X0000535291Y0002871062D01*
X0000540806Y0002872159D01*
X0000546000Y0002874311D01*
X0000550675Y0002877435D01*
X0000554651Y0002881410D01*
X0000557775Y0002886085D01*
X0000559926Y0002891280D01*
X0000561023Y0002896795D01*
X0000561023Y0002902417D01*
X0000582677Y0002902417D01*
X0000582677Y0002896795D01*
X0000583774Y0002891280D01*
X0000585925Y0002886085D01*
X0000589049Y0002881410D01*
X0000593025Y0002877435D01*
X0000597700Y0002874311D01*
X0000602894Y0002872159D01*
X0000608409Y0002871062D01*
X0000614031Y0002871062D01*
X0000619546Y0002872159D01*
X0000624740Y0002874311D01*
X0000629415Y0002877435D01*
X0000633391Y0002881410D01*
X0000636515Y0002886085D01*
X0000638666Y0002891280D01*
X0000639763Y0002896795D01*
X0000639763Y0002902417D01*
X0000638666Y0002907932D01*
X0000636515Y0002913126D01*
X0000633391Y0002917801D01*
X0000629415Y0002921777D01*
X0000624740Y0002924901D01*
X0000619546Y0002927052D01*
X0000614031Y0002928149D01*
X0000608409Y0002928149D01*
X0000602894Y0002927052D01*
X0000597700Y0002924901D01*
X0000593025Y0002921777D01*
X0000589049Y0002917801D01*
X0000585925Y0002913126D01*
X0000583774Y0002907932D01*
X0000582677Y0002902417D01*
X0000561023Y0002902417D01*
X0000559926Y0002907932D01*
X0000557775Y0002913126D01*
X0000554651Y0002917801D01*
X0000550675Y0002921777D01*
X0000546000Y0002924901D01*
X0000540806Y0002927052D01*
X0000535291Y0002928149D01*
X0000529669Y0002928149D01*
X0000524154Y0002927052D01*
X0000518960Y0002924901D01*
X0000518401Y0002924527D01*
X0000518234Y0002924730D01*
X0000516436Y0002926206D01*
X0000514384Y0002927303D01*
X0000512157Y0002927978D01*
X0000509842Y0002928206D01*
X0000476377Y0002928206D01*
X0000474062Y0002927978D01*
X0000471836Y0002927303D01*
X0000469784Y0002926206D01*
X0000467985Y0002924730D01*
X0000466509Y0002922932D01*
X0000465413Y0002920880D01*
X0000464737Y0002918653D01*
X0000464509Y0002916338D01*
X0000406496Y0002916338D01*
X0000406496Y0002972440D01*
X0000695866Y0002972440D01*
X0000695866Y0002874641D01*
G36*
X0000509696Y0003109400D02*
G01*
X0000513534Y0003105561D01*
X0000518048Y0003102545D01*
X0000523064Y0003100468D01*
X0000528388Y0003099409D01*
X0000533817Y0003099409D01*
X0000539141Y0003100468D01*
X0000544156Y0003102545D01*
X0000548670Y0003105561D01*
X0000550689Y0003107580D01*
X0000552904Y0003105365D01*
X0000557418Y0003102349D01*
X0000562433Y0003100271D01*
X0000567758Y0003099212D01*
X0000573186Y0003099212D01*
X0000578511Y0003100271D01*
X0000583526Y0003102349D01*
X0000588040Y0003105365D01*
X0000591878Y0003109203D01*
X0000593094Y0003111023D01*
X0000633622Y0003111023D01*
X0000647138Y0003097507D01*
X0000647086Y0003097502D01*
X0000644859Y0003096826D01*
X0000642808Y0003095730D01*
X0000641009Y0003094254D01*
X0000639533Y0003092455D01*
X0000638436Y0003090403D01*
X0000637761Y0003088177D01*
X0000637533Y0003085862D01*
X0000637533Y0003016500D01*
X0000637761Y0003014184D01*
X0000638436Y0003011958D01*
X0000639533Y0003009906D01*
X0000641009Y0003008107D01*
X0000642808Y0003006632D01*
X0000644859Y0003005535D01*
X0000647086Y0003004859D01*
X0000649401Y0003004631D01*
X0000695866Y0003004631D01*
X0000695866Y0002998031D01*
X0000406496Y0002998031D01*
X0000406496Y0003004631D01*
X0000452960Y0003004631D01*
X0000455275Y0003004859D01*
X0000457502Y0003005535D01*
X0000459554Y0003006632D01*
X0000461352Y0003008107D01*
X0000462828Y0003009906D01*
X0000463925Y0003011958D01*
X0000464600Y0003014184D01*
X0000464828Y0003016500D01*
X0000464828Y0003085862D01*
X0000464600Y0003088177D01*
X0000463925Y0003090403D01*
X0000462828Y0003092455D01*
X0000461352Y0003094254D01*
X0000459554Y0003095730D01*
X0000457502Y0003096826D01*
X0000455275Y0003097502D01*
X0000455223Y0003097507D01*
X0000468936Y0003111220D01*
X0000508480Y0003111220D01*
X0000509696Y0003109400D01*
G37*
X0000509696Y0003109400D02*
X0000513534Y0003105561D01*
X0000518048Y0003102545D01*
X0000523064Y0003100468D01*
X0000528388Y0003099409D01*
X0000533817Y0003099409D01*
X0000539141Y0003100468D01*
X0000544156Y0003102545D01*
X0000548670Y0003105561D01*
X0000550689Y0003107580D01*
X0000552904Y0003105365D01*
X0000557418Y0003102349D01*
X0000562433Y0003100271D01*
X0000567758Y0003099212D01*
X0000573186Y0003099212D01*
X0000578511Y0003100271D01*
X0000583526Y0003102349D01*
X0000588040Y0003105365D01*
X0000591878Y0003109203D01*
X0000593094Y0003111023D01*
X0000633622Y0003111023D01*
X0000647138Y0003097507D01*
X0000647086Y0003097502D01*
X0000644859Y0003096826D01*
X0000642808Y0003095730D01*
X0000641009Y0003094254D01*
X0000639533Y0003092455D01*
X0000638436Y0003090403D01*
X0000637761Y0003088177D01*
X0000637533Y0003085862D01*
X0000637533Y0003016500D01*
X0000637761Y0003014184D01*
X0000638436Y0003011958D01*
X0000639533Y0003009906D01*
X0000641009Y0003008107D01*
X0000642808Y0003006632D01*
X0000644859Y0003005535D01*
X0000647086Y0003004859D01*
X0000649401Y0003004631D01*
X0000695866Y0003004631D01*
X0000695866Y0002998031D01*
X0000406496Y0002998031D01*
X0000406496Y0003004631D01*
X0000452960Y0003004631D01*
X0000455275Y0003004859D01*
X0000457502Y0003005535D01*
X0000459554Y0003006632D01*
X0000461352Y0003008107D01*
X0000462828Y0003009906D01*
X0000463925Y0003011958D01*
X0000464600Y0003014184D01*
X0000464828Y0003016500D01*
X0000464828Y0003085862D01*
X0000464600Y0003088177D01*
X0000463925Y0003090403D01*
X0000462828Y0003092455D01*
X0000461352Y0003094254D01*
X0000459554Y0003095730D01*
X0000457502Y0003096826D01*
X0000455275Y0003097502D01*
X0000455223Y0003097507D01*
X0000468936Y0003111220D01*
X0000508480Y0003111220D01*
X0000509696Y0003109400D01*
G04 next file*
G04 #@! TF.GenerationSoftware,KiCad,Pcbnew,(5.1.5)-3*
G04 #@! TF.CreationDate,2021-04-29T13:46:15+02:00*
G04 #@! TF.ProjectId,Hivetracker,48697665-7472-4616-936b-65722e6b6963,rev?*
G04 #@! TF.SameCoordinates,PX2562500PY28a0640*
G04 #@! TF.FileFunction,Copper,L1,Top*
G04 #@! TF.FilePolarity,Positive*
G04 Gerber Fmt 4.6, Leading zero omitted, Abs format (unit mm)*
G04 Created by KiCad (PCBNEW (5.1.5)-3) date 2021-04-29 13:46:15*
G04 APERTURE LIST*
G04 APERTURE END LIST*
D55*
X0000787401Y0003149606D02*
X0000822881Y0003051181D03*
X0001066881Y0003051181D03*
D56*
X0000886811Y0002899606D03*
D57*
X0000926181Y0002899606D03*
X0000965551Y0002899606D03*
X0001004921Y0002899606D03*
D58*
X0001001968Y0003099212D03*
X0000924803Y0003126968D03*
X0000964173Y0003126771D03*
D59*
X0000944881Y0002970472D02*
X0000944881Y0003000000D01*
X0000856114Y0003126968D02*
X0000924803Y0003126968D01*
X0000822881Y0003051181D02*
X0000822881Y0003093736D01*
X0000822881Y0003093736D02*
X0000856114Y0003126968D01*
X0001033846Y0003126771D02*
X0000964173Y0003126771D01*
X0001066881Y0003051181D02*
X0001066881Y0003093736D01*
X0001066881Y0003093736D02*
X0001033846Y0003126771D01*
G36*
X0001089566Y0002874641D02*
G01*
X0001089000Y0002868865D01*
X0001087505Y0002863912D01*
X0001085075Y0002859343D01*
X0001081805Y0002855333D01*
X0001077818Y0002852035D01*
X0001073266Y0002849574D01*
X0001068323Y0002848043D01*
X0001062587Y0002847440D01*
X0000827397Y0002847440D01*
X0000821621Y0002848007D01*
X0000816668Y0002849502D01*
X0000812099Y0002851932D01*
X0000808089Y0002855202D01*
X0000804791Y0002859189D01*
X0000802329Y0002863741D01*
X0000800799Y0002868684D01*
X0000800196Y0002874420D01*
X0000800196Y0002916338D01*
X0000858210Y0002916338D01*
X0000858210Y0002882874D01*
X0000858438Y0002880558D01*
X0000859114Y0002878332D01*
X0000860210Y0002876280D01*
X0000861686Y0002874481D01*
X0000863485Y0002873006D01*
X0000865537Y0002871909D01*
X0000867763Y0002871233D01*
X0000870078Y0002871005D01*
X0000903543Y0002871005D01*
X0000905858Y0002871233D01*
X0000908085Y0002871909D01*
X0000910136Y0002873006D01*
X0000911935Y0002874481D01*
X0000912101Y0002874684D01*
X0000912660Y0002874311D01*
X0000917855Y0002872159D01*
X0000923369Y0002871062D01*
X0000928992Y0002871062D01*
X0000934506Y0002872159D01*
X0000939701Y0002874311D01*
X0000944376Y0002877435D01*
X0000948352Y0002881410D01*
X0000951475Y0002886085D01*
X0000953627Y0002891280D01*
X0000954724Y0002896795D01*
X0000954724Y0002902417D01*
X0000976377Y0002902417D01*
X0000976377Y0002896795D01*
X0000977474Y0002891280D01*
X0000979626Y0002886085D01*
X0000982750Y0002881410D01*
X0000986725Y0002877435D01*
X0000991400Y0002874311D01*
X0000996595Y0002872159D01*
X0001002110Y0002871062D01*
X0001007732Y0002871062D01*
X0001013247Y0002872159D01*
X0001018441Y0002874311D01*
X0001023116Y0002877435D01*
X0001027092Y0002881410D01*
X0001030216Y0002886085D01*
X0001032367Y0002891280D01*
X0001033464Y0002896795D01*
X0001033464Y0002902417D01*
X0001032367Y0002907932D01*
X0001030216Y0002913126D01*
X0001027092Y0002917801D01*
X0001023116Y0002921777D01*
X0001018441Y0002924901D01*
X0001013247Y0002927052D01*
X0001007732Y0002928149D01*
X0001002110Y0002928149D01*
X0000996595Y0002927052D01*
X0000991400Y0002924901D01*
X0000986725Y0002921777D01*
X0000982750Y0002917801D01*
X0000979626Y0002913126D01*
X0000977474Y0002907932D01*
X0000976377Y0002902417D01*
X0000954724Y0002902417D01*
X0000953627Y0002907932D01*
X0000951475Y0002913126D01*
X0000948352Y0002917801D01*
X0000944376Y0002921777D01*
X0000939701Y0002924901D01*
X0000934506Y0002927052D01*
X0000928992Y0002928149D01*
X0000923369Y0002928149D01*
X0000917855Y0002927052D01*
X0000912660Y0002924901D01*
X0000912101Y0002924527D01*
X0000911935Y0002924730D01*
X0000910136Y0002926206D01*
X0000908085Y0002927303D01*
X0000905858Y0002927978D01*
X0000903543Y0002928206D01*
X0000870078Y0002928206D01*
X0000867763Y0002927978D01*
X0000865537Y0002927303D01*
X0000863485Y0002926206D01*
X0000861686Y0002924730D01*
X0000860210Y0002922932D01*
X0000859114Y0002920880D01*
X0000858438Y0002918653D01*
X0000858210Y0002916338D01*
X0000800196Y0002916338D01*
X0000800196Y0002972440D01*
X0001089566Y0002972440D01*
X0001089566Y0002874641D01*
G37*
X0001089566Y0002874641D02*
X0001089000Y0002868865D01*
X0001087505Y0002863912D01*
X0001085075Y0002859343D01*
X0001081805Y0002855333D01*
X0001077818Y0002852035D01*
X0001073266Y0002849574D01*
X0001068323Y0002848043D01*
X0001062587Y0002847440D01*
X0000827397Y0002847440D01*
X0000821621Y0002848007D01*
X0000816668Y0002849502D01*
X0000812099Y0002851932D01*
X0000808089Y0002855202D01*
X0000804791Y0002859189D01*
X0000802329Y0002863741D01*
X0000800799Y0002868684D01*
X0000800196Y0002874420D01*
X0000800196Y0002916338D01*
X0000858210Y0002916338D01*
X0000858210Y0002882874D01*
X0000858438Y0002880558D01*
X0000859114Y0002878332D01*
X0000860210Y0002876280D01*
X0000861686Y0002874481D01*
X0000863485Y0002873006D01*
X0000865537Y0002871909D01*
X0000867763Y0002871233D01*
X0000870078Y0002871005D01*
X0000903543Y0002871005D01*
X0000905858Y0002871233D01*
X0000908085Y0002871909D01*
X0000910136Y0002873006D01*
X0000911935Y0002874481D01*
X0000912101Y0002874684D01*
X0000912660Y0002874311D01*
X0000917855Y0002872159D01*
X0000923369Y0002871062D01*
X0000928992Y0002871062D01*
X0000934506Y0002872159D01*
X0000939701Y0002874311D01*
X0000944376Y0002877435D01*
X0000948352Y0002881410D01*
X0000951475Y0002886085D01*
X0000953627Y0002891280D01*
X0000954724Y0002896795D01*
X0000954724Y0002902417D01*
X0000976377Y0002902417D01*
X0000976377Y0002896795D01*
X0000977474Y0002891280D01*
X0000979626Y0002886085D01*
X0000982750Y0002881410D01*
X0000986725Y0002877435D01*
X0000991400Y0002874311D01*
X0000996595Y0002872159D01*
X0001002110Y0002871062D01*
X0001007732Y0002871062D01*
X0001013247Y0002872159D01*
X0001018441Y0002874311D01*
X0001023116Y0002877435D01*
X0001027092Y0002881410D01*
X0001030216Y0002886085D01*
X0001032367Y0002891280D01*
X0001033464Y0002896795D01*
X0001033464Y0002902417D01*
X0001032367Y0002907932D01*
X0001030216Y0002913126D01*
X0001027092Y0002917801D01*
X0001023116Y0002921777D01*
X0001018441Y0002924901D01*
X0001013247Y0002927052D01*
X0001007732Y0002928149D01*
X0001002110Y0002928149D01*
X0000996595Y0002927052D01*
X0000991400Y0002924901D01*
X0000986725Y0002921777D01*
X0000982750Y0002917801D01*
X0000979626Y0002913126D01*
X0000977474Y0002907932D01*
X0000976377Y0002902417D01*
X0000954724Y0002902417D01*
X0000953627Y0002907932D01*
X0000951475Y0002913126D01*
X0000948352Y0002917801D01*
X0000944376Y0002921777D01*
X0000939701Y0002924901D01*
X0000934506Y0002927052D01*
X0000928992Y0002928149D01*
X0000923369Y0002928149D01*
X0000917855Y0002927052D01*
X0000912660Y0002924901D01*
X0000912101Y0002924527D01*
X0000911935Y0002924730D01*
X0000910136Y0002926206D01*
X0000908085Y0002927303D01*
X0000905858Y0002927978D01*
X0000903543Y0002928206D01*
X0000870078Y0002928206D01*
X0000867763Y0002927978D01*
X0000865537Y0002927303D01*
X0000863485Y0002926206D01*
X0000861686Y0002924730D01*
X0000860210Y0002922932D01*
X0000859114Y0002920880D01*
X0000858438Y0002918653D01*
X0000858210Y0002916338D01*
X0000800196Y0002916338D01*
X0000800196Y0002972440D01*
X0001089566Y0002972440D01*
X0001089566Y0002874641D01*
G36*
X0000903397Y0003109400D02*
G01*
X0000907235Y0003105561D01*
X0000911749Y0003102545D01*
X0000916764Y0003100468D01*
X0000922089Y0003099409D01*
X0000927517Y0003099409D01*
X0000932842Y0003100468D01*
X0000937857Y0003102545D01*
X0000942371Y0003105561D01*
X0000944390Y0003107580D01*
X0000946605Y0003105365D01*
X0000951119Y0003102349D01*
X0000956134Y0003100271D01*
X0000961458Y0003099212D01*
X0000966887Y0003099212D01*
X0000972211Y0003100271D01*
X0000977227Y0003102349D01*
X0000981741Y0003105365D01*
X0000985579Y0003109203D01*
X0000986795Y0003111023D01*
X0001027323Y0003111023D01*
X0001040839Y0003097507D01*
X0001040787Y0003097502D01*
X0001038560Y0003096826D01*
X0001036508Y0003095730D01*
X0001034710Y0003094254D01*
X0001033234Y0003092455D01*
X0001032137Y0003090403D01*
X0001031462Y0003088177D01*
X0001031234Y0003085862D01*
X0001031234Y0003016500D01*
X0001031462Y0003014184D01*
X0001032137Y0003011958D01*
X0001033234Y0003009906D01*
X0001034710Y0003008107D01*
X0001036508Y0003006632D01*
X0001038560Y0003005535D01*
X0001040787Y0003004859D01*
X0001043102Y0003004631D01*
X0001089566Y0003004631D01*
X0001089566Y0002998031D01*
X0000800196Y0002998031D01*
X0000800196Y0003004631D01*
X0000846661Y0003004631D01*
X0000848976Y0003004859D01*
X0000851203Y0003005535D01*
X0000853254Y0003006632D01*
X0000855053Y0003008107D01*
X0000856529Y0003009906D01*
X0000857626Y0003011958D01*
X0000858301Y0003014184D01*
X0000858529Y0003016500D01*
X0000858529Y0003085862D01*
X0000858301Y0003088177D01*
X0000857626Y0003090403D01*
X0000856529Y0003092455D01*
X0000855053Y0003094254D01*
X0000853254Y0003095730D01*
X0000851203Y0003096826D01*
X0000848976Y0003097502D01*
X0000848924Y0003097507D01*
X0000862637Y0003111220D01*
X0000902181Y0003111220D01*
X0000903397Y0003109400D01*
G37*
X0000903397Y0003109400D02*
X0000907235Y0003105561D01*
X0000911749Y0003102545D01*
X0000916764Y0003100468D01*
X0000922089Y0003099409D01*
X0000927517Y0003099409D01*
X0000932842Y0003100468D01*
X0000937857Y0003102545D01*
X0000942371Y0003105561D01*
X0000944390Y0003107580D01*
X0000946605Y0003105365D01*
X0000951119Y0003102349D01*
X0000956134Y0003100271D01*
X0000961458Y0003099212D01*
X0000966887Y0003099212D01*
X0000972211Y0003100271D01*
X0000977227Y0003102349D01*
X0000981741Y0003105365D01*
X0000985579Y0003109203D01*
X0000986795Y0003111023D01*
X0001027323Y0003111023D01*
X0001040839Y0003097507D01*
X0001040787Y0003097502D01*
X0001038560Y0003096826D01*
X0001036508Y0003095730D01*
X0001034710Y0003094254D01*
X0001033234Y0003092455D01*
X0001032137Y0003090403D01*
X0001031462Y0003088177D01*
X0001031234Y0003085862D01*
X0001031234Y0003016500D01*
X0001031462Y0003014184D01*
X0001032137Y0003011958D01*
X0001033234Y0003009906D01*
X0001034710Y0003008107D01*
X0001036508Y0003006632D01*
X0001038560Y0003005535D01*
X0001040787Y0003004859D01*
X0001043102Y0003004631D01*
X0001089566Y0003004631D01*
X0001089566Y0002998031D01*
X0000800196Y0002998031D01*
X0000800196Y0003004631D01*
X0000846661Y0003004631D01*
X0000848976Y0003004859D01*
X0000851203Y0003005535D01*
X0000853254Y0003006632D01*
X0000855053Y0003008107D01*
X0000856529Y0003009906D01*
X0000857626Y0003011958D01*
X0000858301Y0003014184D01*
X0000858529Y0003016500D01*
X0000858529Y0003085862D01*
X0000858301Y0003088177D01*
X0000857626Y0003090403D01*
X0000856529Y0003092455D01*
X0000855053Y0003094254D01*
X0000853254Y0003095730D01*
X0000851203Y0003096826D01*
X0000848976Y0003097502D01*
X0000848924Y0003097507D01*
X0000862637Y0003111220D01*
X0000902181Y0003111220D01*
X0000903397Y0003109400D01*
G04 next file*
G04 #@! TF.GenerationSoftware,KiCad,Pcbnew,(5.1.5)-3*
G04 #@! TF.CreationDate,2021-04-29T13:46:15+02:00*
G04 #@! TF.ProjectId,Hivetracker,48697665-7472-4616-936b-65722e6b6963,rev?*
G04 #@! TF.SameCoordinates,PX2562500PY28a0640*
G04 #@! TF.FileFunction,Copper,L1,Top*
G04 #@! TF.FilePolarity,Positive*
G04 Gerber Fmt 4.6, Leading zero omitted, Abs format (unit mm)*
G04 Created by KiCad (PCBNEW (5.1.5)-3) date 2021-04-29 13:46:15*
G04 APERTURE LIST*
G04 APERTURE END LIST*
D60*
X0000787401Y0003543307D02*
X0000822881Y0003444881D03*
X0001066881Y0003444881D03*
D61*
X0000886811Y0003293307D03*
D62*
X0000926181Y0003293307D03*
X0000965551Y0003293307D03*
X0001004921Y0003293307D03*
D63*
X0001001968Y0003492913D03*
X0000924803Y0003520669D03*
X0000964173Y0003520472D03*
D64*
X0000944881Y0003364173D02*
X0000944881Y0003393700D01*
X0000856114Y0003520669D02*
X0000924803Y0003520669D01*
X0000822881Y0003444881D02*
X0000822881Y0003487437D01*
X0000822881Y0003487437D02*
X0000856114Y0003520669D01*
X0001033846Y0003520472D02*
X0000964173Y0003520472D01*
X0001066881Y0003444881D02*
X0001066881Y0003487437D01*
X0001066881Y0003487437D02*
X0001033846Y0003520472D01*
G36*
X0001089566Y0003268342D02*
G01*
X0001089000Y0003262566D01*
X0001087505Y0003257613D01*
X0001085075Y0003253044D01*
X0001081805Y0003249034D01*
X0001077818Y0003245735D01*
X0001073266Y0003243274D01*
X0001068323Y0003241744D01*
X0001062587Y0003241141D01*
X0000827397Y0003241141D01*
X0000821621Y0003241708D01*
X0000816668Y0003243203D01*
X0000812099Y0003245632D01*
X0000808089Y0003248903D01*
X0000804791Y0003252890D01*
X0000802329Y0003257442D01*
X0000800799Y0003262385D01*
X0000800196Y0003268121D01*
X0000800196Y0003310039D01*
X0000858210Y0003310039D01*
X0000858210Y0003276574D01*
X0000858438Y0003274259D01*
X0000859114Y0003272033D01*
X0000860210Y0003269981D01*
X0000861686Y0003268182D01*
X0000863485Y0003266706D01*
X0000865537Y0003265610D01*
X0000867763Y0003264934D01*
X0000870078Y0003264706D01*
X0000903543Y0003264706D01*
X0000905858Y0003264934D01*
X0000908085Y0003265610D01*
X0000910136Y0003266706D01*
X0000911935Y0003268182D01*
X0000912101Y0003268385D01*
X0000912660Y0003268012D01*
X0000917855Y0003265860D01*
X0000923369Y0003264763D01*
X0000928992Y0003264763D01*
X0000934506Y0003265860D01*
X0000939701Y0003268012D01*
X0000944376Y0003271136D01*
X0000948352Y0003275111D01*
X0000951475Y0003279786D01*
X0000953627Y0003284981D01*
X0000954724Y0003290495D01*
X0000954724Y0003296118D01*
X0000976377Y0003296118D01*
X0000976377Y0003290495D01*
X0000977474Y0003284981D01*
X0000979626Y0003279786D01*
X0000982750Y0003275111D01*
X0000986725Y0003271136D01*
X0000991400Y0003268012D01*
X0000996595Y0003265860D01*
X0001002110Y0003264763D01*
X0001007732Y0003264763D01*
X0001013247Y0003265860D01*
X0001018441Y0003268012D01*
X0001023116Y0003271136D01*
X0001027092Y0003275111D01*
X0001030216Y0003279786D01*
X0001032367Y0003284981D01*
X0001033464Y0003290495D01*
X0001033464Y0003296118D01*
X0001032367Y0003301632D01*
X0001030216Y0003306827D01*
X0001027092Y0003311502D01*
X0001023116Y0003315478D01*
X0001018441Y0003318601D01*
X0001013247Y0003320753D01*
X0001007732Y0003321850D01*
X0001002110Y0003321850D01*
X0000996595Y0003320753D01*
X0000991400Y0003318601D01*
X0000986725Y0003315478D01*
X0000982750Y0003311502D01*
X0000979626Y0003306827D01*
X0000977474Y0003301632D01*
X0000976377Y0003296118D01*
X0000954724Y0003296118D01*
X0000953627Y0003301632D01*
X0000951475Y0003306827D01*
X0000948352Y0003311502D01*
X0000944376Y0003315478D01*
X0000939701Y0003318601D01*
X0000934506Y0003320753D01*
X0000928992Y0003321850D01*
X0000923369Y0003321850D01*
X0000917855Y0003320753D01*
X0000912660Y0003318601D01*
X0000912101Y0003318228D01*
X0000911935Y0003318431D01*
X0000910136Y0003319907D01*
X0000908085Y0003321004D01*
X0000905858Y0003321679D01*
X0000903543Y0003321907D01*
X0000870078Y0003321907D01*
X0000867763Y0003321679D01*
X0000865537Y0003321004D01*
X0000863485Y0003319907D01*
X0000861686Y0003318431D01*
X0000860210Y0003316632D01*
X0000859114Y0003314581D01*
X0000858438Y0003312354D01*
X0000858210Y0003310039D01*
X0000800196Y0003310039D01*
X0000800196Y0003366141D01*
X0001089566Y0003366141D01*
X0001089566Y0003268342D01*
G37*
X0001089566Y0003268342D02*
X0001089000Y0003262566D01*
X0001087505Y0003257613D01*
X0001085075Y0003253044D01*
X0001081805Y0003249034D01*
X0001077818Y0003245735D01*
X0001073266Y0003243274D01*
X0001068323Y0003241744D01*
X0001062587Y0003241141D01*
X0000827397Y0003241141D01*
X0000821621Y0003241708D01*
X0000816668Y0003243203D01*
X0000812099Y0003245632D01*
X0000808089Y0003248903D01*
X0000804791Y0003252890D01*
X0000802329Y0003257442D01*
X0000800799Y0003262385D01*
X0000800196Y0003268121D01*
X0000800196Y0003310039D01*
X0000858210Y0003310039D01*
X0000858210Y0003276574D01*
X0000858438Y0003274259D01*
X0000859114Y0003272033D01*
X0000860210Y0003269981D01*
X0000861686Y0003268182D01*
X0000863485Y0003266706D01*
X0000865537Y0003265610D01*
X0000867763Y0003264934D01*
X0000870078Y0003264706D01*
X0000903543Y0003264706D01*
X0000905858Y0003264934D01*
X0000908085Y0003265610D01*
X0000910136Y0003266706D01*
X0000911935Y0003268182D01*
X0000912101Y0003268385D01*
X0000912660Y0003268012D01*
X0000917855Y0003265860D01*
X0000923369Y0003264763D01*
X0000928992Y0003264763D01*
X0000934506Y0003265860D01*
X0000939701Y0003268012D01*
X0000944376Y0003271136D01*
X0000948352Y0003275111D01*
X0000951475Y0003279786D01*
X0000953627Y0003284981D01*
X0000954724Y0003290495D01*
X0000954724Y0003296118D01*
X0000976377Y0003296118D01*
X0000976377Y0003290495D01*
X0000977474Y0003284981D01*
X0000979626Y0003279786D01*
X0000982750Y0003275111D01*
X0000986725Y0003271136D01*
X0000991400Y0003268012D01*
X0000996595Y0003265860D01*
X0001002110Y0003264763D01*
X0001007732Y0003264763D01*
X0001013247Y0003265860D01*
X0001018441Y0003268012D01*
X0001023116Y0003271136D01*
X0001027092Y0003275111D01*
X0001030216Y0003279786D01*
X0001032367Y0003284981D01*
X0001033464Y0003290495D01*
X0001033464Y0003296118D01*
X0001032367Y0003301632D01*
X0001030216Y0003306827D01*
X0001027092Y0003311502D01*
X0001023116Y0003315478D01*
X0001018441Y0003318601D01*
X0001013247Y0003320753D01*
X0001007732Y0003321850D01*
X0001002110Y0003321850D01*
X0000996595Y0003320753D01*
X0000991400Y0003318601D01*
X0000986725Y0003315478D01*
X0000982750Y0003311502D01*
X0000979626Y0003306827D01*
X0000977474Y0003301632D01*
X0000976377Y0003296118D01*
X0000954724Y0003296118D01*
X0000953627Y0003301632D01*
X0000951475Y0003306827D01*
X0000948352Y0003311502D01*
X0000944376Y0003315478D01*
X0000939701Y0003318601D01*
X0000934506Y0003320753D01*
X0000928992Y0003321850D01*
X0000923369Y0003321850D01*
X0000917855Y0003320753D01*
X0000912660Y0003318601D01*
X0000912101Y0003318228D01*
X0000911935Y0003318431D01*
X0000910136Y0003319907D01*
X0000908085Y0003321004D01*
X0000905858Y0003321679D01*
X0000903543Y0003321907D01*
X0000870078Y0003321907D01*
X0000867763Y0003321679D01*
X0000865537Y0003321004D01*
X0000863485Y0003319907D01*
X0000861686Y0003318431D01*
X0000860210Y0003316632D01*
X0000859114Y0003314581D01*
X0000858438Y0003312354D01*
X0000858210Y0003310039D01*
X0000800196Y0003310039D01*
X0000800196Y0003366141D01*
X0001089566Y0003366141D01*
X0001089566Y0003268342D01*
G36*
X0000903397Y0003503101D02*
G01*
X0000907235Y0003499262D01*
X0000911749Y0003496246D01*
X0000916764Y0003494169D01*
X0000922089Y0003493110D01*
X0000927517Y0003493110D01*
X0000932842Y0003494169D01*
X0000937857Y0003496246D01*
X0000942371Y0003499262D01*
X0000944390Y0003501281D01*
X0000946605Y0003499065D01*
X0000951119Y0003496049D01*
X0000956134Y0003493972D01*
X0000961458Y0003492913D01*
X0000966887Y0003492913D01*
X0000972211Y0003493972D01*
X0000977227Y0003496049D01*
X0000981741Y0003499065D01*
X0000985579Y0003502904D01*
X0000986795Y0003504724D01*
X0001027323Y0003504724D01*
X0001040839Y0003491208D01*
X0001040787Y0003491203D01*
X0001038560Y0003490527D01*
X0001036508Y0003489430D01*
X0001034710Y0003487955D01*
X0001033234Y0003486156D01*
X0001032137Y0003484104D01*
X0001031462Y0003481878D01*
X0001031234Y0003479562D01*
X0001031234Y0003410200D01*
X0001031462Y0003407885D01*
X0001032137Y0003405659D01*
X0001033234Y0003403607D01*
X0001034710Y0003401808D01*
X0001036508Y0003400332D01*
X0001038560Y0003399236D01*
X0001040787Y0003398560D01*
X0001043102Y0003398332D01*
X0001089566Y0003398332D01*
X0001089566Y0003391732D01*
X0000800196Y0003391732D01*
X0000800196Y0003398332D01*
X0000846661Y0003398332D01*
X0000848976Y0003398560D01*
X0000851203Y0003399236D01*
X0000853254Y0003400332D01*
X0000855053Y0003401808D01*
X0000856529Y0003403607D01*
X0000857626Y0003405659D01*
X0000858301Y0003407885D01*
X0000858529Y0003410200D01*
X0000858529Y0003479562D01*
X0000858301Y0003481878D01*
X0000857626Y0003484104D01*
X0000856529Y0003486156D01*
X0000855053Y0003487955D01*
X0000853254Y0003489430D01*
X0000851203Y0003490527D01*
X0000848976Y0003491203D01*
X0000848924Y0003491208D01*
X0000862637Y0003504921D01*
X0000902181Y0003504921D01*
X0000903397Y0003503101D01*
G37*
X0000903397Y0003503101D02*
X0000907235Y0003499262D01*
X0000911749Y0003496246D01*
X0000916764Y0003494169D01*
X0000922089Y0003493110D01*
X0000927517Y0003493110D01*
X0000932842Y0003494169D01*
X0000937857Y0003496246D01*
X0000942371Y0003499262D01*
X0000944390Y0003501281D01*
X0000946605Y0003499065D01*
X0000951119Y0003496049D01*
X0000956134Y0003493972D01*
X0000961458Y0003492913D01*
X0000966887Y0003492913D01*
X0000972211Y0003493972D01*
X0000977227Y0003496049D01*
X0000981741Y0003499065D01*
X0000985579Y0003502904D01*
X0000986795Y0003504724D01*
X0001027323Y0003504724D01*
X0001040839Y0003491208D01*
X0001040787Y0003491203D01*
X0001038560Y0003490527D01*
X0001036508Y0003489430D01*
X0001034710Y0003487955D01*
X0001033234Y0003486156D01*
X0001032137Y0003484104D01*
X0001031462Y0003481878D01*
X0001031234Y0003479562D01*
X0001031234Y0003410200D01*
X0001031462Y0003407885D01*
X0001032137Y0003405659D01*
X0001033234Y0003403607D01*
X0001034710Y0003401808D01*
X0001036508Y0003400332D01*
X0001038560Y0003399236D01*
X0001040787Y0003398560D01*
X0001043102Y0003398332D01*
X0001089566Y0003398332D01*
X0001089566Y0003391732D01*
X0000800196Y0003391732D01*
X0000800196Y0003398332D01*
X0000846661Y0003398332D01*
X0000848976Y0003398560D01*
X0000851203Y0003399236D01*
X0000853254Y0003400332D01*
X0000855053Y0003401808D01*
X0000856529Y0003403607D01*
X0000857626Y0003405659D01*
X0000858301Y0003407885D01*
X0000858529Y0003410200D01*
X0000858529Y0003479562D01*
X0000858301Y0003481878D01*
X0000857626Y0003484104D01*
X0000856529Y0003486156D01*
X0000855053Y0003487955D01*
X0000853254Y0003489430D01*
X0000851203Y0003490527D01*
X0000848976Y0003491203D01*
X0000848924Y0003491208D01*
X0000862637Y0003504921D01*
X0000902181Y0003504921D01*
X0000903397Y0003503101D01*
G04 next file*
G04 #@! TF.GenerationSoftware,KiCad,Pcbnew,(5.1.5)-3*
G04 #@! TF.CreationDate,2021-04-29T13:46:15+02:00*
G04 #@! TF.ProjectId,Hivetracker,48697665-7472-4616-936b-65722e6b6963,rev?*
G04 #@! TF.SameCoordinates,PX2562500PY28a0640*
G04 #@! TF.FileFunction,Copper,L1,Top*
G04 #@! TF.FilePolarity,Positive*
G04 Gerber Fmt 4.6, Leading zero omitted, Abs format (unit mm)*
G04 Created by KiCad (PCBNEW (5.1.5)-3) date 2021-04-29 13:46:15*
G04 APERTURE LIST*
G04 APERTURE END LIST*
D65*
X0001181102Y0003937007D02*
X0001216582Y0003838582D03*
X0001460582Y0003838582D03*
D66*
X0001280511Y0003687007D03*
D67*
X0001319881Y0003687007D03*
X0001359251Y0003687007D03*
X0001398622Y0003687007D03*
D68*
X0001395669Y0003886614D03*
X0001318504Y0003914370D03*
X0001357874Y0003914173D03*
D69*
X0001338582Y0003757874D02*
X0001338582Y0003787401D01*
X0001249814Y0003914370D02*
X0001318504Y0003914370D01*
X0001216582Y0003838582D02*
X0001216582Y0003881137D01*
X0001216582Y0003881137D02*
X0001249814Y0003914370D01*
X0001427547Y0003914173D02*
X0001357874Y0003914173D01*
X0001460582Y0003838582D02*
X0001460582Y0003881137D01*
X0001460582Y0003881137D02*
X0001427547Y0003914173D01*
G36*
X0001483267Y0003662043D02*
G01*
X0001482701Y0003656267D01*
X0001481205Y0003651313D01*
X0001478776Y0003646745D01*
X0001475505Y0003642735D01*
X0001471519Y0003639436D01*
X0001466967Y0003636975D01*
X0001462024Y0003635445D01*
X0001456288Y0003634842D01*
X0001221098Y0003634842D01*
X0001215322Y0003635408D01*
X0001210368Y0003636904D01*
X0001205800Y0003639333D01*
X0001201790Y0003642604D01*
X0001198491Y0003646591D01*
X0001196030Y0003651142D01*
X0001194500Y0003656086D01*
X0001193897Y0003661822D01*
X0001193897Y0003703740D01*
X0001251911Y0003703740D01*
X0001251911Y0003670275D01*
X0001252139Y0003667960D01*
X0001252814Y0003665733D01*
X0001253911Y0003663682D01*
X0001255387Y0003661883D01*
X0001257185Y0003660407D01*
X0001259237Y0003659310D01*
X0001261464Y0003658635D01*
X0001263779Y0003658407D01*
X0001297244Y0003658407D01*
X0001299559Y0003658635D01*
X0001301785Y0003659310D01*
X0001303837Y0003660407D01*
X0001305636Y0003661883D01*
X0001305802Y0003662086D01*
X0001306361Y0003661713D01*
X0001311556Y0003659561D01*
X0001317070Y0003658464D01*
X0001322693Y0003658464D01*
X0001328207Y0003659561D01*
X0001333402Y0003661713D01*
X0001338077Y0003664836D01*
X0001342052Y0003668812D01*
X0001345176Y0003673487D01*
X0001347328Y0003678682D01*
X0001348425Y0003684196D01*
X0001348425Y0003689819D01*
X0001370078Y0003689819D01*
X0001370078Y0003684196D01*
X0001371175Y0003678682D01*
X0001373327Y0003673487D01*
X0001376451Y0003668812D01*
X0001380426Y0003664836D01*
X0001385101Y0003661713D01*
X0001390296Y0003659561D01*
X0001395810Y0003658464D01*
X0001401433Y0003658464D01*
X0001406947Y0003659561D01*
X0001412142Y0003661713D01*
X0001416817Y0003664836D01*
X0001420793Y0003668812D01*
X0001423916Y0003673487D01*
X0001426068Y0003678682D01*
X0001427165Y0003684196D01*
X0001427165Y0003689819D01*
X0001426068Y0003695333D01*
X0001423916Y0003700528D01*
X0001420793Y0003705203D01*
X0001416817Y0003709178D01*
X0001412142Y0003712302D01*
X0001406947Y0003714454D01*
X0001401433Y0003715551D01*
X0001395810Y0003715551D01*
X0001390296Y0003714454D01*
X0001385101Y0003712302D01*
X0001380426Y0003709178D01*
X0001376451Y0003705203D01*
X0001373327Y0003700528D01*
X0001371175Y0003695333D01*
X0001370078Y0003689819D01*
X0001348425Y0003689819D01*
X0001347328Y0003695333D01*
X0001345176Y0003700528D01*
X0001342052Y0003705203D01*
X0001338077Y0003709178D01*
X0001333402Y0003712302D01*
X0001328207Y0003714454D01*
X0001322693Y0003715551D01*
X0001317070Y0003715551D01*
X0001311556Y0003714454D01*
X0001306361Y0003712302D01*
X0001305802Y0003711929D01*
X0001305636Y0003712132D01*
X0001303837Y0003713608D01*
X0001301785Y0003714704D01*
X0001299559Y0003715380D01*
X0001297244Y0003715608D01*
X0001263779Y0003715608D01*
X0001261464Y0003715380D01*
X0001259237Y0003714704D01*
X0001257185Y0003713608D01*
X0001255387Y0003712132D01*
X0001253911Y0003710333D01*
X0001252814Y0003708281D01*
X0001252139Y0003706055D01*
X0001251911Y0003703740D01*
X0001193897Y0003703740D01*
X0001193897Y0003759842D01*
X0001483267Y0003759842D01*
X0001483267Y0003662043D01*
G37*
X0001483267Y0003662043D02*
X0001482701Y0003656267D01*
X0001481205Y0003651313D01*
X0001478776Y0003646745D01*
X0001475505Y0003642735D01*
X0001471519Y0003639436D01*
X0001466967Y0003636975D01*
X0001462024Y0003635445D01*
X0001456288Y0003634842D01*
X0001221098Y0003634842D01*
X0001215322Y0003635408D01*
X0001210368Y0003636904D01*
X0001205800Y0003639333D01*
X0001201790Y0003642604D01*
X0001198491Y0003646591D01*
X0001196030Y0003651142D01*
X0001194500Y0003656086D01*
X0001193897Y0003661822D01*
X0001193897Y0003703740D01*
X0001251911Y0003703740D01*
X0001251911Y0003670275D01*
X0001252139Y0003667960D01*
X0001252814Y0003665733D01*
X0001253911Y0003663682D01*
X0001255387Y0003661883D01*
X0001257185Y0003660407D01*
X0001259237Y0003659310D01*
X0001261464Y0003658635D01*
X0001263779Y0003658407D01*
X0001297244Y0003658407D01*
X0001299559Y0003658635D01*
X0001301785Y0003659310D01*
X0001303837Y0003660407D01*
X0001305636Y0003661883D01*
X0001305802Y0003662086D01*
X0001306361Y0003661713D01*
X0001311556Y0003659561D01*
X0001317070Y0003658464D01*
X0001322693Y0003658464D01*
X0001328207Y0003659561D01*
X0001333402Y0003661713D01*
X0001338077Y0003664836D01*
X0001342052Y0003668812D01*
X0001345176Y0003673487D01*
X0001347328Y0003678682D01*
X0001348425Y0003684196D01*
X0001348425Y0003689819D01*
X0001370078Y0003689819D01*
X0001370078Y0003684196D01*
X0001371175Y0003678682D01*
X0001373327Y0003673487D01*
X0001376451Y0003668812D01*
X0001380426Y0003664836D01*
X0001385101Y0003661713D01*
X0001390296Y0003659561D01*
X0001395810Y0003658464D01*
X0001401433Y0003658464D01*
X0001406947Y0003659561D01*
X0001412142Y0003661713D01*
X0001416817Y0003664836D01*
X0001420793Y0003668812D01*
X0001423916Y0003673487D01*
X0001426068Y0003678682D01*
X0001427165Y0003684196D01*
X0001427165Y0003689819D01*
X0001426068Y0003695333D01*
X0001423916Y0003700528D01*
X0001420793Y0003705203D01*
X0001416817Y0003709178D01*
X0001412142Y0003712302D01*
X0001406947Y0003714454D01*
X0001401433Y0003715551D01*
X0001395810Y0003715551D01*
X0001390296Y0003714454D01*
X0001385101Y0003712302D01*
X0001380426Y0003709178D01*
X0001376451Y0003705203D01*
X0001373327Y0003700528D01*
X0001371175Y0003695333D01*
X0001370078Y0003689819D01*
X0001348425Y0003689819D01*
X0001347328Y0003695333D01*
X0001345176Y0003700528D01*
X0001342052Y0003705203D01*
X0001338077Y0003709178D01*
X0001333402Y0003712302D01*
X0001328207Y0003714454D01*
X0001322693Y0003715551D01*
X0001317070Y0003715551D01*
X0001311556Y0003714454D01*
X0001306361Y0003712302D01*
X0001305802Y0003711929D01*
X0001305636Y0003712132D01*
X0001303837Y0003713608D01*
X0001301785Y0003714704D01*
X0001299559Y0003715380D01*
X0001297244Y0003715608D01*
X0001263779Y0003715608D01*
X0001261464Y0003715380D01*
X0001259237Y0003714704D01*
X0001257185Y0003713608D01*
X0001255387Y0003712132D01*
X0001253911Y0003710333D01*
X0001252814Y0003708281D01*
X0001252139Y0003706055D01*
X0001251911Y0003703740D01*
X0001193897Y0003703740D01*
X0001193897Y0003759842D01*
X0001483267Y0003759842D01*
X0001483267Y0003662043D01*
G36*
X0001297097Y0003896802D02*
G01*
X0001300936Y0003892963D01*
X0001305450Y0003889947D01*
X0001310465Y0003887870D01*
X0001315790Y0003886811D01*
X0001321218Y0003886811D01*
X0001326543Y0003887870D01*
X0001331558Y0003889947D01*
X0001336072Y0003892963D01*
X0001338090Y0003894982D01*
X0001340306Y0003892766D01*
X0001344819Y0003889750D01*
X0001349835Y0003887673D01*
X0001355159Y0003886614D01*
X0001360588Y0003886614D01*
X0001365912Y0003887673D01*
X0001370928Y0003889750D01*
X0001375441Y0003892766D01*
X0001379280Y0003896605D01*
X0001380496Y0003898425D01*
X0001421024Y0003898425D01*
X0001434540Y0003884909D01*
X0001434487Y0003884903D01*
X0001432261Y0003884228D01*
X0001430209Y0003883131D01*
X0001428411Y0003881655D01*
X0001426935Y0003879857D01*
X0001425838Y0003877805D01*
X0001425163Y0003875579D01*
X0001424935Y0003873263D01*
X0001424935Y0003803901D01*
X0001425163Y0003801586D01*
X0001425838Y0003799359D01*
X0001426935Y0003797307D01*
X0001428411Y0003795509D01*
X0001430209Y0003794033D01*
X0001432261Y0003792936D01*
X0001434487Y0003792261D01*
X0001436803Y0003792033D01*
X0001483267Y0003792033D01*
X0001483267Y0003785433D01*
X0001193897Y0003785433D01*
X0001193897Y0003792033D01*
X0001240362Y0003792033D01*
X0001242677Y0003792261D01*
X0001244903Y0003792936D01*
X0001246955Y0003794033D01*
X0001248754Y0003795509D01*
X0001250230Y0003797307D01*
X0001251326Y0003799359D01*
X0001252002Y0003801586D01*
X0001252230Y0003803901D01*
X0001252230Y0003873263D01*
X0001252002Y0003875579D01*
X0001251326Y0003877805D01*
X0001250230Y0003879857D01*
X0001248754Y0003881655D01*
X0001246955Y0003883131D01*
X0001244903Y0003884228D01*
X0001242677Y0003884903D01*
X0001242625Y0003884909D01*
X0001256337Y0003898622D01*
X0001295881Y0003898622D01*
X0001297097Y0003896802D01*
G37*
X0001297097Y0003896802D02*
X0001300936Y0003892963D01*
X0001305450Y0003889947D01*
X0001310465Y0003887870D01*
X0001315790Y0003886811D01*
X0001321218Y0003886811D01*
X0001326543Y0003887870D01*
X0001331558Y0003889947D01*
X0001336072Y0003892963D01*
X0001338090Y0003894982D01*
X0001340306Y0003892766D01*
X0001344819Y0003889750D01*
X0001349835Y0003887673D01*
X0001355159Y0003886614D01*
X0001360588Y0003886614D01*
X0001365912Y0003887673D01*
X0001370928Y0003889750D01*
X0001375441Y0003892766D01*
X0001379280Y0003896605D01*
X0001380496Y0003898425D01*
X0001421024Y0003898425D01*
X0001434540Y0003884909D01*
X0001434487Y0003884903D01*
X0001432261Y0003884228D01*
X0001430209Y0003883131D01*
X0001428411Y0003881655D01*
X0001426935Y0003879857D01*
X0001425838Y0003877805D01*
X0001425163Y0003875579D01*
X0001424935Y0003873263D01*
X0001424935Y0003803901D01*
X0001425163Y0003801586D01*
X0001425838Y0003799359D01*
X0001426935Y0003797307D01*
X0001428411Y0003795509D01*
X0001430209Y0003794033D01*
X0001432261Y0003792936D01*
X0001434487Y0003792261D01*
X0001436803Y0003792033D01*
X0001483267Y0003792033D01*
X0001483267Y0003785433D01*
X0001193897Y0003785433D01*
X0001193897Y0003792033D01*
X0001240362Y0003792033D01*
X0001242677Y0003792261D01*
X0001244903Y0003792936D01*
X0001246955Y0003794033D01*
X0001248754Y0003795509D01*
X0001250230Y0003797307D01*
X0001251326Y0003799359D01*
X0001252002Y0003801586D01*
X0001252230Y0003803901D01*
X0001252230Y0003873263D01*
X0001252002Y0003875579D01*
X0001251326Y0003877805D01*
X0001250230Y0003879857D01*
X0001248754Y0003881655D01*
X0001246955Y0003883131D01*
X0001244903Y0003884228D01*
X0001242677Y0003884903D01*
X0001242625Y0003884909D01*
X0001256337Y0003898622D01*
X0001295881Y0003898622D01*
X0001297097Y0003896802D01*
G04 next file*
G04 #@! TF.GenerationSoftware,KiCad,Pcbnew,(5.1.5)-3*
G04 #@! TF.CreationDate,2021-04-29T13:46:15+02:00*
G04 #@! TF.ProjectId,Hivetracker,48697665-7472-4616-936b-65722e6b6963,rev?*
G04 #@! TF.SameCoordinates,PX2562500PY28a0640*
G04 #@! TF.FileFunction,Copper,L1,Top*
G04 #@! TF.FilePolarity,Positive*
G04 Gerber Fmt 4.6, Leading zero omitted, Abs format (unit mm)*
G04 Created by KiCad (PCBNEW (5.1.5)-3) date 2021-04-29 13:46:15*
G04 APERTURE LIST*
G04 APERTURE END LIST*
D70*
X0001181102Y0003543307D02*
X0001216582Y0003444881D03*
X0001460582Y0003444881D03*
D71*
X0001280511Y0003293307D03*
D72*
X0001319881Y0003293307D03*
X0001359251Y0003293307D03*
X0001398622Y0003293307D03*
D73*
X0001395669Y0003492913D03*
X0001318504Y0003520669D03*
X0001357874Y0003520472D03*
D74*
X0001338582Y0003364173D02*
X0001338582Y0003393700D01*
X0001249814Y0003520669D02*
X0001318504Y0003520669D01*
X0001216582Y0003444881D02*
X0001216582Y0003487437D01*
X0001216582Y0003487437D02*
X0001249814Y0003520669D01*
X0001427547Y0003520472D02*
X0001357874Y0003520472D01*
X0001460582Y0003444881D02*
X0001460582Y0003487437D01*
X0001460582Y0003487437D02*
X0001427547Y0003520472D01*
G36*
X0001483267Y0003268342D02*
G01*
X0001482701Y0003262566D01*
X0001481205Y0003257613D01*
X0001478776Y0003253044D01*
X0001475505Y0003249034D01*
X0001471519Y0003245735D01*
X0001466967Y0003243274D01*
X0001462024Y0003241744D01*
X0001456288Y0003241141D01*
X0001221098Y0003241141D01*
X0001215322Y0003241708D01*
X0001210368Y0003243203D01*
X0001205800Y0003245632D01*
X0001201790Y0003248903D01*
X0001198491Y0003252890D01*
X0001196030Y0003257442D01*
X0001194500Y0003262385D01*
X0001193897Y0003268121D01*
X0001193897Y0003310039D01*
X0001251911Y0003310039D01*
X0001251911Y0003276574D01*
X0001252139Y0003274259D01*
X0001252814Y0003272033D01*
X0001253911Y0003269981D01*
X0001255387Y0003268182D01*
X0001257185Y0003266706D01*
X0001259237Y0003265610D01*
X0001261464Y0003264934D01*
X0001263779Y0003264706D01*
X0001297244Y0003264706D01*
X0001299559Y0003264934D01*
X0001301785Y0003265610D01*
X0001303837Y0003266706D01*
X0001305636Y0003268182D01*
X0001305802Y0003268385D01*
X0001306361Y0003268012D01*
X0001311556Y0003265860D01*
X0001317070Y0003264763D01*
X0001322693Y0003264763D01*
X0001328207Y0003265860D01*
X0001333402Y0003268012D01*
X0001338077Y0003271136D01*
X0001342052Y0003275111D01*
X0001345176Y0003279786D01*
X0001347328Y0003284981D01*
X0001348425Y0003290495D01*
X0001348425Y0003296118D01*
X0001370078Y0003296118D01*
X0001370078Y0003290495D01*
X0001371175Y0003284981D01*
X0001373327Y0003279786D01*
X0001376451Y0003275111D01*
X0001380426Y0003271136D01*
X0001385101Y0003268012D01*
X0001390296Y0003265860D01*
X0001395810Y0003264763D01*
X0001401433Y0003264763D01*
X0001406947Y0003265860D01*
X0001412142Y0003268012D01*
X0001416817Y0003271136D01*
X0001420793Y0003275111D01*
X0001423916Y0003279786D01*
X0001426068Y0003284981D01*
X0001427165Y0003290495D01*
X0001427165Y0003296118D01*
X0001426068Y0003301632D01*
X0001423916Y0003306827D01*
X0001420793Y0003311502D01*
X0001416817Y0003315478D01*
X0001412142Y0003318601D01*
X0001406947Y0003320753D01*
X0001401433Y0003321850D01*
X0001395810Y0003321850D01*
X0001390296Y0003320753D01*
X0001385101Y0003318601D01*
X0001380426Y0003315478D01*
X0001376451Y0003311502D01*
X0001373327Y0003306827D01*
X0001371175Y0003301632D01*
X0001370078Y0003296118D01*
X0001348425Y0003296118D01*
X0001347328Y0003301632D01*
X0001345176Y0003306827D01*
X0001342052Y0003311502D01*
X0001338077Y0003315478D01*
X0001333402Y0003318601D01*
X0001328207Y0003320753D01*
X0001322693Y0003321850D01*
X0001317070Y0003321850D01*
X0001311556Y0003320753D01*
X0001306361Y0003318601D01*
X0001305802Y0003318228D01*
X0001305636Y0003318431D01*
X0001303837Y0003319907D01*
X0001301785Y0003321004D01*
X0001299559Y0003321679D01*
X0001297244Y0003321907D01*
X0001263779Y0003321907D01*
X0001261464Y0003321679D01*
X0001259237Y0003321004D01*
X0001257185Y0003319907D01*
X0001255387Y0003318431D01*
X0001253911Y0003316632D01*
X0001252814Y0003314581D01*
X0001252139Y0003312354D01*
X0001251911Y0003310039D01*
X0001193897Y0003310039D01*
X0001193897Y0003366141D01*
X0001483267Y0003366141D01*
X0001483267Y0003268342D01*
G37*
X0001483267Y0003268342D02*
X0001482701Y0003262566D01*
X0001481205Y0003257613D01*
X0001478776Y0003253044D01*
X0001475505Y0003249034D01*
X0001471519Y0003245735D01*
X0001466967Y0003243274D01*
X0001462024Y0003241744D01*
X0001456288Y0003241141D01*
X0001221098Y0003241141D01*
X0001215322Y0003241708D01*
X0001210368Y0003243203D01*
X0001205800Y0003245632D01*
X0001201790Y0003248903D01*
X0001198491Y0003252890D01*
X0001196030Y0003257442D01*
X0001194500Y0003262385D01*
X0001193897Y0003268121D01*
X0001193897Y0003310039D01*
X0001251911Y0003310039D01*
X0001251911Y0003276574D01*
X0001252139Y0003274259D01*
X0001252814Y0003272033D01*
X0001253911Y0003269981D01*
X0001255387Y0003268182D01*
X0001257185Y0003266706D01*
X0001259237Y0003265610D01*
X0001261464Y0003264934D01*
X0001263779Y0003264706D01*
X0001297244Y0003264706D01*
X0001299559Y0003264934D01*
X0001301785Y0003265610D01*
X0001303837Y0003266706D01*
X0001305636Y0003268182D01*
X0001305802Y0003268385D01*
X0001306361Y0003268012D01*
X0001311556Y0003265860D01*
X0001317070Y0003264763D01*
X0001322693Y0003264763D01*
X0001328207Y0003265860D01*
X0001333402Y0003268012D01*
X0001338077Y0003271136D01*
X0001342052Y0003275111D01*
X0001345176Y0003279786D01*
X0001347328Y0003284981D01*
X0001348425Y0003290495D01*
X0001348425Y0003296118D01*
X0001370078Y0003296118D01*
X0001370078Y0003290495D01*
X0001371175Y0003284981D01*
X0001373327Y0003279786D01*
X0001376451Y0003275111D01*
X0001380426Y0003271136D01*
X0001385101Y0003268012D01*
X0001390296Y0003265860D01*
X0001395810Y0003264763D01*
X0001401433Y0003264763D01*
X0001406947Y0003265860D01*
X0001412142Y0003268012D01*
X0001416817Y0003271136D01*
X0001420793Y0003275111D01*
X0001423916Y0003279786D01*
X0001426068Y0003284981D01*
X0001427165Y0003290495D01*
X0001427165Y0003296118D01*
X0001426068Y0003301632D01*
X0001423916Y0003306827D01*
X0001420793Y0003311502D01*
X0001416817Y0003315478D01*
X0001412142Y0003318601D01*
X0001406947Y0003320753D01*
X0001401433Y0003321850D01*
X0001395810Y0003321850D01*
X0001390296Y0003320753D01*
X0001385101Y0003318601D01*
X0001380426Y0003315478D01*
X0001376451Y0003311502D01*
X0001373327Y0003306827D01*
X0001371175Y0003301632D01*
X0001370078Y0003296118D01*
X0001348425Y0003296118D01*
X0001347328Y0003301632D01*
X0001345176Y0003306827D01*
X0001342052Y0003311502D01*
X0001338077Y0003315478D01*
X0001333402Y0003318601D01*
X0001328207Y0003320753D01*
X0001322693Y0003321850D01*
X0001317070Y0003321850D01*
X0001311556Y0003320753D01*
X0001306361Y0003318601D01*
X0001305802Y0003318228D01*
X0001305636Y0003318431D01*
X0001303837Y0003319907D01*
X0001301785Y0003321004D01*
X0001299559Y0003321679D01*
X0001297244Y0003321907D01*
X0001263779Y0003321907D01*
X0001261464Y0003321679D01*
X0001259237Y0003321004D01*
X0001257185Y0003319907D01*
X0001255387Y0003318431D01*
X0001253911Y0003316632D01*
X0001252814Y0003314581D01*
X0001252139Y0003312354D01*
X0001251911Y0003310039D01*
X0001193897Y0003310039D01*
X0001193897Y0003366141D01*
X0001483267Y0003366141D01*
X0001483267Y0003268342D01*
G36*
X0001297097Y0003503101D02*
G01*
X0001300936Y0003499262D01*
X0001305450Y0003496246D01*
X0001310465Y0003494169D01*
X0001315790Y0003493110D01*
X0001321218Y0003493110D01*
X0001326543Y0003494169D01*
X0001331558Y0003496246D01*
X0001336072Y0003499262D01*
X0001338090Y0003501281D01*
X0001340306Y0003499065D01*
X0001344819Y0003496049D01*
X0001349835Y0003493972D01*
X0001355159Y0003492913D01*
X0001360588Y0003492913D01*
X0001365912Y0003493972D01*
X0001370928Y0003496049D01*
X0001375441Y0003499065D01*
X0001379280Y0003502904D01*
X0001380496Y0003504724D01*
X0001421024Y0003504724D01*
X0001434540Y0003491208D01*
X0001434487Y0003491203D01*
X0001432261Y0003490527D01*
X0001430209Y0003489430D01*
X0001428411Y0003487955D01*
X0001426935Y0003486156D01*
X0001425838Y0003484104D01*
X0001425163Y0003481878D01*
X0001424935Y0003479562D01*
X0001424935Y0003410200D01*
X0001425163Y0003407885D01*
X0001425838Y0003405659D01*
X0001426935Y0003403607D01*
X0001428411Y0003401808D01*
X0001430209Y0003400332D01*
X0001432261Y0003399236D01*
X0001434487Y0003398560D01*
X0001436803Y0003398332D01*
X0001483267Y0003398332D01*
X0001483267Y0003391732D01*
X0001193897Y0003391732D01*
X0001193897Y0003398332D01*
X0001240362Y0003398332D01*
X0001242677Y0003398560D01*
X0001244903Y0003399236D01*
X0001246955Y0003400332D01*
X0001248754Y0003401808D01*
X0001250230Y0003403607D01*
X0001251326Y0003405659D01*
X0001252002Y0003407885D01*
X0001252230Y0003410200D01*
X0001252230Y0003479562D01*
X0001252002Y0003481878D01*
X0001251326Y0003484104D01*
X0001250230Y0003486156D01*
X0001248754Y0003487955D01*
X0001246955Y0003489430D01*
X0001244903Y0003490527D01*
X0001242677Y0003491203D01*
X0001242625Y0003491208D01*
X0001256337Y0003504921D01*
X0001295881Y0003504921D01*
X0001297097Y0003503101D01*
G37*
X0001297097Y0003503101D02*
X0001300936Y0003499262D01*
X0001305450Y0003496246D01*
X0001310465Y0003494169D01*
X0001315790Y0003493110D01*
X0001321218Y0003493110D01*
X0001326543Y0003494169D01*
X0001331558Y0003496246D01*
X0001336072Y0003499262D01*
X0001338090Y0003501281D01*
X0001340306Y0003499065D01*
X0001344819Y0003496049D01*
X0001349835Y0003493972D01*
X0001355159Y0003492913D01*
X0001360588Y0003492913D01*
X0001365912Y0003493972D01*
X0001370928Y0003496049D01*
X0001375441Y0003499065D01*
X0001379280Y0003502904D01*
X0001380496Y0003504724D01*
X0001421024Y0003504724D01*
X0001434540Y0003491208D01*
X0001434487Y0003491203D01*
X0001432261Y0003490527D01*
X0001430209Y0003489430D01*
X0001428411Y0003487955D01*
X0001426935Y0003486156D01*
X0001425838Y0003484104D01*
X0001425163Y0003481878D01*
X0001424935Y0003479562D01*
X0001424935Y0003410200D01*
X0001425163Y0003407885D01*
X0001425838Y0003405659D01*
X0001426935Y0003403607D01*
X0001428411Y0003401808D01*
X0001430209Y0003400332D01*
X0001432261Y0003399236D01*
X0001434487Y0003398560D01*
X0001436803Y0003398332D01*
X0001483267Y0003398332D01*
X0001483267Y0003391732D01*
X0001193897Y0003391732D01*
X0001193897Y0003398332D01*
X0001240362Y0003398332D01*
X0001242677Y0003398560D01*
X0001244903Y0003399236D01*
X0001246955Y0003400332D01*
X0001248754Y0003401808D01*
X0001250230Y0003403607D01*
X0001251326Y0003405659D01*
X0001252002Y0003407885D01*
X0001252230Y0003410200D01*
X0001252230Y0003479562D01*
X0001252002Y0003481878D01*
X0001251326Y0003484104D01*
X0001250230Y0003486156D01*
X0001248754Y0003487955D01*
X0001246955Y0003489430D01*
X0001244903Y0003490527D01*
X0001242677Y0003491203D01*
X0001242625Y0003491208D01*
X0001256337Y0003504921D01*
X0001295881Y0003504921D01*
X0001297097Y0003503101D01*
G04 next file*
G04 #@! TF.GenerationSoftware,KiCad,Pcbnew,(5.1.5)-3*
G04 #@! TF.CreationDate,2021-04-29T13:46:15+02:00*
G04 #@! TF.ProjectId,Hivetracker,48697665-7472-4616-936b-65722e6b6963,rev?*
G04 #@! TF.SameCoordinates,PX2562500PY28a0640*
G04 #@! TF.FileFunction,Copper,L1,Top*
G04 #@! TF.FilePolarity,Positive*
G04 Gerber Fmt 4.6, Leading zero omitted, Abs format (unit mm)*
G04 Created by KiCad (PCBNEW (5.1.5)-3) date 2021-04-29 13:46:15*
G04 APERTURE LIST*
G04 APERTURE END LIST*
D75*
X0001181102Y0003149606D02*
X0001216582Y0003051181D03*
X0001460582Y0003051181D03*
D76*
X0001280511Y0002899606D03*
D77*
X0001319881Y0002899606D03*
X0001359251Y0002899606D03*
X0001398622Y0002899606D03*
D78*
X0001395669Y0003099212D03*
X0001318504Y0003126968D03*
X0001357874Y0003126771D03*
D79*
X0001338582Y0002970472D02*
X0001338582Y0003000000D01*
X0001249814Y0003126968D02*
X0001318504Y0003126968D01*
X0001216582Y0003051181D02*
X0001216582Y0003093736D01*
X0001216582Y0003093736D02*
X0001249814Y0003126968D01*
X0001427547Y0003126771D02*
X0001357874Y0003126771D01*
X0001460582Y0003051181D02*
X0001460582Y0003093736D01*
X0001460582Y0003093736D02*
X0001427547Y0003126771D01*
G36*
X0001483267Y0002874641D02*
G01*
X0001482701Y0002868865D01*
X0001481205Y0002863912D01*
X0001478776Y0002859343D01*
X0001475505Y0002855333D01*
X0001471519Y0002852035D01*
X0001466967Y0002849574D01*
X0001462024Y0002848043D01*
X0001456288Y0002847440D01*
X0001221098Y0002847440D01*
X0001215322Y0002848007D01*
X0001210368Y0002849502D01*
X0001205800Y0002851932D01*
X0001201790Y0002855202D01*
X0001198491Y0002859189D01*
X0001196030Y0002863741D01*
X0001194500Y0002868684D01*
X0001193897Y0002874420D01*
X0001193897Y0002916338D01*
X0001251911Y0002916338D01*
X0001251911Y0002882874D01*
X0001252139Y0002880558D01*
X0001252814Y0002878332D01*
X0001253911Y0002876280D01*
X0001255387Y0002874481D01*
X0001257185Y0002873006D01*
X0001259237Y0002871909D01*
X0001261464Y0002871233D01*
X0001263779Y0002871005D01*
X0001297244Y0002871005D01*
X0001299559Y0002871233D01*
X0001301785Y0002871909D01*
X0001303837Y0002873006D01*
X0001305636Y0002874481D01*
X0001305802Y0002874684D01*
X0001306361Y0002874311D01*
X0001311556Y0002872159D01*
X0001317070Y0002871062D01*
X0001322693Y0002871062D01*
X0001328207Y0002872159D01*
X0001333402Y0002874311D01*
X0001338077Y0002877435D01*
X0001342052Y0002881410D01*
X0001345176Y0002886085D01*
X0001347328Y0002891280D01*
X0001348425Y0002896795D01*
X0001348425Y0002902417D01*
X0001370078Y0002902417D01*
X0001370078Y0002896795D01*
X0001371175Y0002891280D01*
X0001373327Y0002886085D01*
X0001376451Y0002881410D01*
X0001380426Y0002877435D01*
X0001385101Y0002874311D01*
X0001390296Y0002872159D01*
X0001395810Y0002871062D01*
X0001401433Y0002871062D01*
X0001406947Y0002872159D01*
X0001412142Y0002874311D01*
X0001416817Y0002877435D01*
X0001420793Y0002881410D01*
X0001423916Y0002886085D01*
X0001426068Y0002891280D01*
X0001427165Y0002896795D01*
X0001427165Y0002902417D01*
X0001426068Y0002907932D01*
X0001423916Y0002913126D01*
X0001420793Y0002917801D01*
X0001416817Y0002921777D01*
X0001412142Y0002924901D01*
X0001406947Y0002927052D01*
X0001401433Y0002928149D01*
X0001395810Y0002928149D01*
X0001390296Y0002927052D01*
X0001385101Y0002924901D01*
X0001380426Y0002921777D01*
X0001376451Y0002917801D01*
X0001373327Y0002913126D01*
X0001371175Y0002907932D01*
X0001370078Y0002902417D01*
X0001348425Y0002902417D01*
X0001347328Y0002907932D01*
X0001345176Y0002913126D01*
X0001342052Y0002917801D01*
X0001338077Y0002921777D01*
X0001333402Y0002924901D01*
X0001328207Y0002927052D01*
X0001322693Y0002928149D01*
X0001317070Y0002928149D01*
X0001311556Y0002927052D01*
X0001306361Y0002924901D01*
X0001305802Y0002924527D01*
X0001305636Y0002924730D01*
X0001303837Y0002926206D01*
X0001301785Y0002927303D01*
X0001299559Y0002927978D01*
X0001297244Y0002928206D01*
X0001263779Y0002928206D01*
X0001261464Y0002927978D01*
X0001259237Y0002927303D01*
X0001257185Y0002926206D01*
X0001255387Y0002924730D01*
X0001253911Y0002922932D01*
X0001252814Y0002920880D01*
X0001252139Y0002918653D01*
X0001251911Y0002916338D01*
X0001193897Y0002916338D01*
X0001193897Y0002972440D01*
X0001483267Y0002972440D01*
X0001483267Y0002874641D01*
G37*
X0001483267Y0002874641D02*
X0001482701Y0002868865D01*
X0001481205Y0002863912D01*
X0001478776Y0002859343D01*
X0001475505Y0002855333D01*
X0001471519Y0002852035D01*
X0001466967Y0002849574D01*
X0001462024Y0002848043D01*
X0001456288Y0002847440D01*
X0001221098Y0002847440D01*
X0001215322Y0002848007D01*
X0001210368Y0002849502D01*
X0001205800Y0002851932D01*
X0001201790Y0002855202D01*
X0001198491Y0002859189D01*
X0001196030Y0002863741D01*
X0001194500Y0002868684D01*
X0001193897Y0002874420D01*
X0001193897Y0002916338D01*
X0001251911Y0002916338D01*
X0001251911Y0002882874D01*
X0001252139Y0002880558D01*
X0001252814Y0002878332D01*
X0001253911Y0002876280D01*
X0001255387Y0002874481D01*
X0001257185Y0002873006D01*
X0001259237Y0002871909D01*
X0001261464Y0002871233D01*
X0001263779Y0002871005D01*
X0001297244Y0002871005D01*
X0001299559Y0002871233D01*
X0001301785Y0002871909D01*
X0001303837Y0002873006D01*
X0001305636Y0002874481D01*
X0001305802Y0002874684D01*
X0001306361Y0002874311D01*
X0001311556Y0002872159D01*
X0001317070Y0002871062D01*
X0001322693Y0002871062D01*
X0001328207Y0002872159D01*
X0001333402Y0002874311D01*
X0001338077Y0002877435D01*
X0001342052Y0002881410D01*
X0001345176Y0002886085D01*
X0001347328Y0002891280D01*
X0001348425Y0002896795D01*
X0001348425Y0002902417D01*
X0001370078Y0002902417D01*
X0001370078Y0002896795D01*
X0001371175Y0002891280D01*
X0001373327Y0002886085D01*
X0001376451Y0002881410D01*
X0001380426Y0002877435D01*
X0001385101Y0002874311D01*
X0001390296Y0002872159D01*
X0001395810Y0002871062D01*
X0001401433Y0002871062D01*
X0001406947Y0002872159D01*
X0001412142Y0002874311D01*
X0001416817Y0002877435D01*
X0001420793Y0002881410D01*
X0001423916Y0002886085D01*
X0001426068Y0002891280D01*
X0001427165Y0002896795D01*
X0001427165Y0002902417D01*
X0001426068Y0002907932D01*
X0001423916Y0002913126D01*
X0001420793Y0002917801D01*
X0001416817Y0002921777D01*
X0001412142Y0002924901D01*
X0001406947Y0002927052D01*
X0001401433Y0002928149D01*
X0001395810Y0002928149D01*
X0001390296Y0002927052D01*
X0001385101Y0002924901D01*
X0001380426Y0002921777D01*
X0001376451Y0002917801D01*
X0001373327Y0002913126D01*
X0001371175Y0002907932D01*
X0001370078Y0002902417D01*
X0001348425Y0002902417D01*
X0001347328Y0002907932D01*
X0001345176Y0002913126D01*
X0001342052Y0002917801D01*
X0001338077Y0002921777D01*
X0001333402Y0002924901D01*
X0001328207Y0002927052D01*
X0001322693Y0002928149D01*
X0001317070Y0002928149D01*
X0001311556Y0002927052D01*
X0001306361Y0002924901D01*
X0001305802Y0002924527D01*
X0001305636Y0002924730D01*
X0001303837Y0002926206D01*
X0001301785Y0002927303D01*
X0001299559Y0002927978D01*
X0001297244Y0002928206D01*
X0001263779Y0002928206D01*
X0001261464Y0002927978D01*
X0001259237Y0002927303D01*
X0001257185Y0002926206D01*
X0001255387Y0002924730D01*
X0001253911Y0002922932D01*
X0001252814Y0002920880D01*
X0001252139Y0002918653D01*
X0001251911Y0002916338D01*
X0001193897Y0002916338D01*
X0001193897Y0002972440D01*
X0001483267Y0002972440D01*
X0001483267Y0002874641D01*
G36*
X0001297097Y0003109400D02*
G01*
X0001300936Y0003105561D01*
X0001305450Y0003102545D01*
X0001310465Y0003100468D01*
X0001315790Y0003099409D01*
X0001321218Y0003099409D01*
X0001326543Y0003100468D01*
X0001331558Y0003102545D01*
X0001336072Y0003105561D01*
X0001338090Y0003107580D01*
X0001340306Y0003105365D01*
X0001344819Y0003102349D01*
X0001349835Y0003100271D01*
X0001355159Y0003099212D01*
X0001360588Y0003099212D01*
X0001365912Y0003100271D01*
X0001370928Y0003102349D01*
X0001375441Y0003105365D01*
X0001379280Y0003109203D01*
X0001380496Y0003111023D01*
X0001421024Y0003111023D01*
X0001434540Y0003097507D01*
X0001434487Y0003097502D01*
X0001432261Y0003096826D01*
X0001430209Y0003095730D01*
X0001428411Y0003094254D01*
X0001426935Y0003092455D01*
X0001425838Y0003090403D01*
X0001425163Y0003088177D01*
X0001424935Y0003085862D01*
X0001424935Y0003016500D01*
X0001425163Y0003014184D01*
X0001425838Y0003011958D01*
X0001426935Y0003009906D01*
X0001428411Y0003008107D01*
X0001430209Y0003006632D01*
X0001432261Y0003005535D01*
X0001434487Y0003004859D01*
X0001436803Y0003004631D01*
X0001483267Y0003004631D01*
X0001483267Y0002998031D01*
X0001193897Y0002998031D01*
X0001193897Y0003004631D01*
X0001240362Y0003004631D01*
X0001242677Y0003004859D01*
X0001244903Y0003005535D01*
X0001246955Y0003006632D01*
X0001248754Y0003008107D01*
X0001250230Y0003009906D01*
X0001251326Y0003011958D01*
X0001252002Y0003014184D01*
X0001252230Y0003016500D01*
X0001252230Y0003085862D01*
X0001252002Y0003088177D01*
X0001251326Y0003090403D01*
X0001250230Y0003092455D01*
X0001248754Y0003094254D01*
X0001246955Y0003095730D01*
X0001244903Y0003096826D01*
X0001242677Y0003097502D01*
X0001242625Y0003097507D01*
X0001256337Y0003111220D01*
X0001295881Y0003111220D01*
X0001297097Y0003109400D01*
G37*
X0001297097Y0003109400D02*
X0001300936Y0003105561D01*
X0001305450Y0003102545D01*
X0001310465Y0003100468D01*
X0001315790Y0003099409D01*
X0001321218Y0003099409D01*
X0001326543Y0003100468D01*
X0001331558Y0003102545D01*
X0001336072Y0003105561D01*
X0001338090Y0003107580D01*
X0001340306Y0003105365D01*
X0001344819Y0003102349D01*
X0001349835Y0003100271D01*
X0001355159Y0003099212D01*
X0001360588Y0003099212D01*
X0001365912Y0003100271D01*
X0001370928Y0003102349D01*
X0001375441Y0003105365D01*
X0001379280Y0003109203D01*
X0001380496Y0003111023D01*
X0001421024Y0003111023D01*
X0001434540Y0003097507D01*
X0001434487Y0003097502D01*
X0001432261Y0003096826D01*
X0001430209Y0003095730D01*
X0001428411Y0003094254D01*
X0001426935Y0003092455D01*
X0001425838Y0003090403D01*
X0001425163Y0003088177D01*
X0001424935Y0003085862D01*
X0001424935Y0003016500D01*
X0001425163Y0003014184D01*
X0001425838Y0003011958D01*
X0001426935Y0003009906D01*
X0001428411Y0003008107D01*
X0001430209Y0003006632D01*
X0001432261Y0003005535D01*
X0001434487Y0003004859D01*
X0001436803Y0003004631D01*
X0001483267Y0003004631D01*
X0001483267Y0002998031D01*
X0001193897Y0002998031D01*
X0001193897Y0003004631D01*
X0001240362Y0003004631D01*
X0001242677Y0003004859D01*
X0001244903Y0003005535D01*
X0001246955Y0003006632D01*
X0001248754Y0003008107D01*
X0001250230Y0003009906D01*
X0001251326Y0003011958D01*
X0001252002Y0003014184D01*
X0001252230Y0003016500D01*
X0001252230Y0003085862D01*
X0001252002Y0003088177D01*
X0001251326Y0003090403D01*
X0001250230Y0003092455D01*
X0001248754Y0003094254D01*
X0001246955Y0003095730D01*
X0001244903Y0003096826D01*
X0001242677Y0003097502D01*
X0001242625Y0003097507D01*
X0001256337Y0003111220D01*
X0001295881Y0003111220D01*
X0001297097Y0003109400D01*
G04 next file*
G04 #@! TF.GenerationSoftware,KiCad,Pcbnew,(5.1.5)-3*
G04 #@! TF.CreationDate,2021-04-29T13:46:15+02:00*
G04 #@! TF.ProjectId,Hivetracker,48697665-7472-4616-936b-65722e6b6963,rev?*
G04 #@! TF.SameCoordinates,PX2562500PY28a0640*
G04 #@! TF.FileFunction,Copper,L1,Top*
G04 #@! TF.FilePolarity,Positive*
G04 Gerber Fmt 4.6, Leading zero omitted, Abs format (unit mm)*
G04 Created by KiCad (PCBNEW (5.1.5)-3) date 2021-04-29 13:46:15*
G04 APERTURE LIST*
G04 APERTURE END LIST*
D80*
X0000000000Y0002755905D02*
X0000035480Y0002657480D03*
X0000279480Y0002657480D03*
D81*
X0000099409Y0002505905D03*
D82*
X0000138779Y0002505905D03*
X0000178149Y0002505905D03*
X0000217519Y0002505905D03*
D83*
X0000214566Y0002705511D03*
X0000137402Y0002733267D03*
X0000176771Y0002733070D03*
D84*
X0000157480Y0002576771D02*
X0000157480Y0002606299D01*
X0000068712Y0002733267D02*
X0000137402Y0002733267D01*
X0000035480Y0002657480D02*
X0000035480Y0002700035D01*
X0000035480Y0002700035D02*
X0000068712Y0002733267D01*
X0000246444Y0002733070D02*
X0000176771Y0002733070D01*
X0000279480Y0002657480D02*
X0000279480Y0002700035D01*
X0000279480Y0002700035D02*
X0000246444Y0002733070D01*
G36*
X0000302165Y0002480941D02*
G01*
X0000301599Y0002475165D01*
X0000300103Y0002470211D01*
X0000297674Y0002465642D01*
X0000294403Y0002461632D01*
X0000290416Y0002458334D01*
X0000285865Y0002455873D01*
X0000280921Y0002454343D01*
X0000275185Y0002453740D01*
X0000039995Y0002453740D01*
X0000034220Y0002454306D01*
X0000029266Y0002455802D01*
X0000024697Y0002458231D01*
X0000020687Y0002461501D01*
X0000017389Y0002465488D01*
X0000014928Y0002470040D01*
X0000013398Y0002474983D01*
X0000012795Y0002480719D01*
X0000012795Y0002522637D01*
X0000070809Y0002522637D01*
X0000070809Y0002489173D01*
X0000071037Y0002486857D01*
X0000071712Y0002484631D01*
X0000072809Y0002482579D01*
X0000074285Y0002480781D01*
X0000076083Y0002479305D01*
X0000078135Y0002478208D01*
X0000080361Y0002477533D01*
X0000082677Y0002477305D01*
X0000116141Y0002477305D01*
X0000118457Y0002477533D01*
X0000120683Y0002478208D01*
X0000122735Y0002479305D01*
X0000124533Y0002480781D01*
X0000124700Y0002480984D01*
X0000125259Y0002480610D01*
X0000130453Y0002478459D01*
X0000135968Y0002477362D01*
X0000141590Y0002477362D01*
X0000147105Y0002478459D01*
X0000152299Y0002480610D01*
X0000156974Y0002483734D01*
X0000160950Y0002487710D01*
X0000164074Y0002492385D01*
X0000166225Y0002497579D01*
X0000167322Y0002503094D01*
X0000167322Y0002508716D01*
X0000188976Y0002508716D01*
X0000188976Y0002503094D01*
X0000190073Y0002497579D01*
X0000192224Y0002492385D01*
X0000195348Y0002487710D01*
X0000199324Y0002483734D01*
X0000203999Y0002480610D01*
X0000209193Y0002478459D01*
X0000214708Y0002477362D01*
X0000220330Y0002477362D01*
X0000225845Y0002478459D01*
X0000231040Y0002480610D01*
X0000235715Y0002483734D01*
X0000239690Y0002487710D01*
X0000242814Y0002492385D01*
X0000244966Y0002497579D01*
X0000246062Y0002503094D01*
X0000246062Y0002508716D01*
X0000244966Y0002514231D01*
X0000242814Y0002519425D01*
X0000239690Y0002524100D01*
X0000235715Y0002528076D01*
X0000231040Y0002531200D01*
X0000225845Y0002533351D01*
X0000220330Y0002534448D01*
X0000214708Y0002534448D01*
X0000209193Y0002533351D01*
X0000203999Y0002531200D01*
X0000199324Y0002528076D01*
X0000195348Y0002524100D01*
X0000192224Y0002519425D01*
X0000190073Y0002514231D01*
X0000188976Y0002508716D01*
X0000167322Y0002508716D01*
X0000166225Y0002514231D01*
X0000164074Y0002519425D01*
X0000160950Y0002524100D01*
X0000156974Y0002528076D01*
X0000152299Y0002531200D01*
X0000147105Y0002533351D01*
X0000141590Y0002534448D01*
X0000135968Y0002534448D01*
X0000130453Y0002533351D01*
X0000125259Y0002531200D01*
X0000124700Y0002530826D01*
X0000124533Y0002531029D01*
X0000122735Y0002532505D01*
X0000120683Y0002533602D01*
X0000118457Y0002534277D01*
X0000116141Y0002534505D01*
X0000082677Y0002534505D01*
X0000080361Y0002534277D01*
X0000078135Y0002533602D01*
X0000076083Y0002532505D01*
X0000074285Y0002531029D01*
X0000072809Y0002529231D01*
X0000071712Y0002527179D01*
X0000071037Y0002524953D01*
X0000070809Y0002522637D01*
X0000012795Y0002522637D01*
X0000012795Y0002578740D01*
X0000302165Y0002578740D01*
X0000302165Y0002480941D01*
G37*
X0000302165Y0002480941D02*
X0000301599Y0002475165D01*
X0000300103Y0002470211D01*
X0000297674Y0002465642D01*
X0000294403Y0002461632D01*
X0000290416Y0002458334D01*
X0000285865Y0002455873D01*
X0000280921Y0002454343D01*
X0000275185Y0002453740D01*
X0000039995Y0002453740D01*
X0000034220Y0002454306D01*
X0000029266Y0002455802D01*
X0000024697Y0002458231D01*
X0000020687Y0002461501D01*
X0000017389Y0002465488D01*
X0000014928Y0002470040D01*
X0000013398Y0002474983D01*
X0000012795Y0002480719D01*
X0000012795Y0002522637D01*
X0000070809Y0002522637D01*
X0000070809Y0002489173D01*
X0000071037Y0002486857D01*
X0000071712Y0002484631D01*
X0000072809Y0002482579D01*
X0000074285Y0002480781D01*
X0000076083Y0002479305D01*
X0000078135Y0002478208D01*
X0000080361Y0002477533D01*
X0000082677Y0002477305D01*
X0000116141Y0002477305D01*
X0000118457Y0002477533D01*
X0000120683Y0002478208D01*
X0000122735Y0002479305D01*
X0000124533Y0002480781D01*
X0000124700Y0002480984D01*
X0000125259Y0002480610D01*
X0000130453Y0002478459D01*
X0000135968Y0002477362D01*
X0000141590Y0002477362D01*
X0000147105Y0002478459D01*
X0000152299Y0002480610D01*
X0000156974Y0002483734D01*
X0000160950Y0002487710D01*
X0000164074Y0002492385D01*
X0000166225Y0002497579D01*
X0000167322Y0002503094D01*
X0000167322Y0002508716D01*
X0000188976Y0002508716D01*
X0000188976Y0002503094D01*
X0000190073Y0002497579D01*
X0000192224Y0002492385D01*
X0000195348Y0002487710D01*
X0000199324Y0002483734D01*
X0000203999Y0002480610D01*
X0000209193Y0002478459D01*
X0000214708Y0002477362D01*
X0000220330Y0002477362D01*
X0000225845Y0002478459D01*
X0000231040Y0002480610D01*
X0000235715Y0002483734D01*
X0000239690Y0002487710D01*
X0000242814Y0002492385D01*
X0000244966Y0002497579D01*
X0000246062Y0002503094D01*
X0000246062Y0002508716D01*
X0000244966Y0002514231D01*
X0000242814Y0002519425D01*
X0000239690Y0002524100D01*
X0000235715Y0002528076D01*
X0000231040Y0002531200D01*
X0000225845Y0002533351D01*
X0000220330Y0002534448D01*
X0000214708Y0002534448D01*
X0000209193Y0002533351D01*
X0000203999Y0002531200D01*
X0000199324Y0002528076D01*
X0000195348Y0002524100D01*
X0000192224Y0002519425D01*
X0000190073Y0002514231D01*
X0000188976Y0002508716D01*
X0000167322Y0002508716D01*
X0000166225Y0002514231D01*
X0000164074Y0002519425D01*
X0000160950Y0002524100D01*
X0000156974Y0002528076D01*
X0000152299Y0002531200D01*
X0000147105Y0002533351D01*
X0000141590Y0002534448D01*
X0000135968Y0002534448D01*
X0000130453Y0002533351D01*
X0000125259Y0002531200D01*
X0000124700Y0002530826D01*
X0000124533Y0002531029D01*
X0000122735Y0002532505D01*
X0000120683Y0002533602D01*
X0000118457Y0002534277D01*
X0000116141Y0002534505D01*
X0000082677Y0002534505D01*
X0000080361Y0002534277D01*
X0000078135Y0002533602D01*
X0000076083Y0002532505D01*
X0000074285Y0002531029D01*
X0000072809Y0002529231D01*
X0000071712Y0002527179D01*
X0000071037Y0002524953D01*
X0000070809Y0002522637D01*
X0000012795Y0002522637D01*
X0000012795Y0002578740D01*
X0000302165Y0002578740D01*
X0000302165Y0002480941D01*
G36*
X0000115995Y0002715699D02*
G01*
X0000119834Y0002711861D01*
X0000124347Y0002708845D01*
X0000129363Y0002706767D01*
X0000134687Y0002705708D01*
X0000140116Y0002705708D01*
X0000145440Y0002706767D01*
X0000150456Y0002708845D01*
X0000154969Y0002711861D01*
X0000156988Y0002713879D01*
X0000159203Y0002711664D01*
X0000163717Y0002708648D01*
X0000168732Y0002706570D01*
X0000174057Y0002705511D01*
X0000179485Y0002705511D01*
X0000184810Y0002706570D01*
X0000189825Y0002708648D01*
X0000194339Y0002711664D01*
X0000198178Y0002715502D01*
X0000199394Y0002717322D01*
X0000239921Y0002717322D01*
X0000253437Y0002703806D01*
X0000253385Y0002703801D01*
X0000251159Y0002703126D01*
X0000249107Y0002702029D01*
X0000247308Y0002700553D01*
X0000245832Y0002698755D01*
X0000244736Y0002696703D01*
X0000244060Y0002694476D01*
X0000243832Y0002692161D01*
X0000243832Y0002622799D01*
X0000244060Y0002620483D01*
X0000244736Y0002618257D01*
X0000245832Y0002616205D01*
X0000247308Y0002614407D01*
X0000249107Y0002612931D01*
X0000251159Y0002611834D01*
X0000253385Y0002611159D01*
X0000255700Y0002610931D01*
X0000302165Y0002610931D01*
X0000302165Y0002604330D01*
X0000012795Y0002604330D01*
X0000012795Y0002610931D01*
X0000059259Y0002610931D01*
X0000061575Y0002611159D01*
X0000063801Y0002611834D01*
X0000065853Y0002612931D01*
X0000067651Y0002614407D01*
X0000069127Y0002616205D01*
X0000070224Y0002618257D01*
X0000070899Y0002620483D01*
X0000071127Y0002622799D01*
X0000071127Y0002692161D01*
X0000070899Y0002694476D01*
X0000070224Y0002696703D01*
X0000069127Y0002698755D01*
X0000067651Y0002700553D01*
X0000065853Y0002702029D01*
X0000063801Y0002703126D01*
X0000061575Y0002703801D01*
X0000061522Y0002703806D01*
X0000075235Y0002717519D01*
X0000114779Y0002717519D01*
X0000115995Y0002715699D01*
G37*
X0000115995Y0002715699D02*
X0000119834Y0002711861D01*
X0000124347Y0002708845D01*
X0000129363Y0002706767D01*
X0000134687Y0002705708D01*
X0000140116Y0002705708D01*
X0000145440Y0002706767D01*
X0000150456Y0002708845D01*
X0000154969Y0002711861D01*
X0000156988Y0002713879D01*
X0000159203Y0002711664D01*
X0000163717Y0002708648D01*
X0000168732Y0002706570D01*
X0000174057Y0002705511D01*
X0000179485Y0002705511D01*
X0000184810Y0002706570D01*
X0000189825Y0002708648D01*
X0000194339Y0002711664D01*
X0000198178Y0002715502D01*
X0000199394Y0002717322D01*
X0000239921Y0002717322D01*
X0000253437Y0002703806D01*
X0000253385Y0002703801D01*
X0000251159Y0002703126D01*
X0000249107Y0002702029D01*
X0000247308Y0002700553D01*
X0000245832Y0002698755D01*
X0000244736Y0002696703D01*
X0000244060Y0002694476D01*
X0000243832Y0002692161D01*
X0000243832Y0002622799D01*
X0000244060Y0002620483D01*
X0000244736Y0002618257D01*
X0000245832Y0002616205D01*
X0000247308Y0002614407D01*
X0000249107Y0002612931D01*
X0000251159Y0002611834D01*
X0000253385Y0002611159D01*
X0000255700Y0002610931D01*
X0000302165Y0002610931D01*
X0000302165Y0002604330D01*
X0000012795Y0002604330D01*
X0000012795Y0002610931D01*
X0000059259Y0002610931D01*
X0000061575Y0002611159D01*
X0000063801Y0002611834D01*
X0000065853Y0002612931D01*
X0000067651Y0002614407D01*
X0000069127Y0002616205D01*
X0000070224Y0002618257D01*
X0000070899Y0002620483D01*
X0000071127Y0002622799D01*
X0000071127Y0002692161D01*
X0000070899Y0002694476D01*
X0000070224Y0002696703D01*
X0000069127Y0002698755D01*
X0000067651Y0002700553D01*
X0000065853Y0002702029D01*
X0000063801Y0002703126D01*
X0000061575Y0002703801D01*
X0000061522Y0002703806D01*
X0000075235Y0002717519D01*
X0000114779Y0002717519D01*
X0000115995Y0002715699D01*
G04 next file*
G04 #@! TF.GenerationSoftware,KiCad,Pcbnew,(5.1.5)-3*
G04 #@! TF.CreationDate,2021-04-29T13:46:15+02:00*
G04 #@! TF.ProjectId,Hivetracker,48697665-7472-4616-936b-65722e6b6963,rev?*
G04 #@! TF.SameCoordinates,PX2562500PY28a0640*
G04 #@! TF.FileFunction,Copper,L1,Top*
G04 #@! TF.FilePolarity,Positive*
G04 Gerber Fmt 4.6, Leading zero omitted, Abs format (unit mm)*
G04 Created by KiCad (PCBNEW (5.1.5)-3) date 2021-04-29 13:46:15*
G04 APERTURE LIST*
G04 APERTURE END LIST*
D85*
X0000393700Y0002755905D02*
X0000429181Y0002657480D03*
X0000673181Y0002657480D03*
D86*
X0000493110Y0002505905D03*
D87*
X0000532480Y0002505905D03*
X0000571850Y0002505905D03*
X0000611220Y0002505905D03*
D88*
X0000608267Y0002705511D03*
X0000531102Y0002733267D03*
X0000570472Y0002733070D03*
D89*
X0000551181Y0002576771D02*
X0000551181Y0002606299D01*
X0000462413Y0002733267D02*
X0000531102Y0002733267D01*
X0000429181Y0002657480D02*
X0000429181Y0002700035D01*
X0000429181Y0002700035D02*
X0000462413Y0002733267D01*
X0000640145Y0002733070D02*
X0000570472Y0002733070D01*
X0000673181Y0002657480D02*
X0000673181Y0002700035D01*
X0000673181Y0002700035D02*
X0000640145Y0002733070D01*
G36*
X0000695866Y0002480941D02*
G01*
X0000695299Y0002475165D01*
X0000693804Y0002470211D01*
X0000691374Y0002465642D01*
X0000688104Y0002461632D01*
X0000684117Y0002458334D01*
X0000679565Y0002455873D01*
X0000674622Y0002454343D01*
X0000668886Y0002453740D01*
X0000433696Y0002453740D01*
X0000427921Y0002454306D01*
X0000422967Y0002455802D01*
X0000418398Y0002458231D01*
X0000414388Y0002461501D01*
X0000411090Y0002465488D01*
X0000408629Y0002470040D01*
X0000407098Y0002474983D01*
X0000406496Y0002480719D01*
X0000406496Y0002522637D01*
X0000464509Y0002522637D01*
X0000464509Y0002489173D01*
X0000464737Y0002486857D01*
X0000465413Y0002484631D01*
X0000466509Y0002482579D01*
X0000467985Y0002480781D01*
X0000469784Y0002479305D01*
X0000471836Y0002478208D01*
X0000474062Y0002477533D01*
X0000476377Y0002477305D01*
X0000509842Y0002477305D01*
X0000512157Y0002477533D01*
X0000514384Y0002478208D01*
X0000516436Y0002479305D01*
X0000518234Y0002480781D01*
X0000518401Y0002480984D01*
X0000518960Y0002480610D01*
X0000524154Y0002478459D01*
X0000529669Y0002477362D01*
X0000535291Y0002477362D01*
X0000540806Y0002478459D01*
X0000546000Y0002480610D01*
X0000550675Y0002483734D01*
X0000554651Y0002487710D01*
X0000557775Y0002492385D01*
X0000559926Y0002497579D01*
X0000561023Y0002503094D01*
X0000561023Y0002508716D01*
X0000582677Y0002508716D01*
X0000582677Y0002503094D01*
X0000583774Y0002497579D01*
X0000585925Y0002492385D01*
X0000589049Y0002487710D01*
X0000593025Y0002483734D01*
X0000597700Y0002480610D01*
X0000602894Y0002478459D01*
X0000608409Y0002477362D01*
X0000614031Y0002477362D01*
X0000619546Y0002478459D01*
X0000624740Y0002480610D01*
X0000629415Y0002483734D01*
X0000633391Y0002487710D01*
X0000636515Y0002492385D01*
X0000638666Y0002497579D01*
X0000639763Y0002503094D01*
X0000639763Y0002508716D01*
X0000638666Y0002514231D01*
X0000636515Y0002519425D01*
X0000633391Y0002524100D01*
X0000629415Y0002528076D01*
X0000624740Y0002531200D01*
X0000619546Y0002533351D01*
X0000614031Y0002534448D01*
X0000608409Y0002534448D01*
X0000602894Y0002533351D01*
X0000597700Y0002531200D01*
X0000593025Y0002528076D01*
X0000589049Y0002524100D01*
X0000585925Y0002519425D01*
X0000583774Y0002514231D01*
X0000582677Y0002508716D01*
X0000561023Y0002508716D01*
X0000559926Y0002514231D01*
X0000557775Y0002519425D01*
X0000554651Y0002524100D01*
X0000550675Y0002528076D01*
X0000546000Y0002531200D01*
X0000540806Y0002533351D01*
X0000535291Y0002534448D01*
X0000529669Y0002534448D01*
X0000524154Y0002533351D01*
X0000518960Y0002531200D01*
X0000518401Y0002530826D01*
X0000518234Y0002531029D01*
X0000516436Y0002532505D01*
X0000514384Y0002533602D01*
X0000512157Y0002534277D01*
X0000509842Y0002534505D01*
X0000476377Y0002534505D01*
X0000474062Y0002534277D01*
X0000471836Y0002533602D01*
X0000469784Y0002532505D01*
X0000467985Y0002531029D01*
X0000466509Y0002529231D01*
X0000465413Y0002527179D01*
X0000464737Y0002524953D01*
X0000464509Y0002522637D01*
X0000406496Y0002522637D01*
X0000406496Y0002578740D01*
X0000695866Y0002578740D01*
X0000695866Y0002480941D01*
G37*
X0000695866Y0002480941D02*
X0000695299Y0002475165D01*
X0000693804Y0002470211D01*
X0000691374Y0002465642D01*
X0000688104Y0002461632D01*
X0000684117Y0002458334D01*
X0000679565Y0002455873D01*
X0000674622Y0002454343D01*
X0000668886Y0002453740D01*
X0000433696Y0002453740D01*
X0000427921Y0002454306D01*
X0000422967Y0002455802D01*
X0000418398Y0002458231D01*
X0000414388Y0002461501D01*
X0000411090Y0002465488D01*
X0000408629Y0002470040D01*
X0000407098Y0002474983D01*
X0000406496Y0002480719D01*
X0000406496Y0002522637D01*
X0000464509Y0002522637D01*
X0000464509Y0002489173D01*
X0000464737Y0002486857D01*
X0000465413Y0002484631D01*
X0000466509Y0002482579D01*
X0000467985Y0002480781D01*
X0000469784Y0002479305D01*
X0000471836Y0002478208D01*
X0000474062Y0002477533D01*
X0000476377Y0002477305D01*
X0000509842Y0002477305D01*
X0000512157Y0002477533D01*
X0000514384Y0002478208D01*
X0000516436Y0002479305D01*
X0000518234Y0002480781D01*
X0000518401Y0002480984D01*
X0000518960Y0002480610D01*
X0000524154Y0002478459D01*
X0000529669Y0002477362D01*
X0000535291Y0002477362D01*
X0000540806Y0002478459D01*
X0000546000Y0002480610D01*
X0000550675Y0002483734D01*
X0000554651Y0002487710D01*
X0000557775Y0002492385D01*
X0000559926Y0002497579D01*
X0000561023Y0002503094D01*
X0000561023Y0002508716D01*
X0000582677Y0002508716D01*
X0000582677Y0002503094D01*
X0000583774Y0002497579D01*
X0000585925Y0002492385D01*
X0000589049Y0002487710D01*
X0000593025Y0002483734D01*
X0000597700Y0002480610D01*
X0000602894Y0002478459D01*
X0000608409Y0002477362D01*
X0000614031Y0002477362D01*
X0000619546Y0002478459D01*
X0000624740Y0002480610D01*
X0000629415Y0002483734D01*
X0000633391Y0002487710D01*
X0000636515Y0002492385D01*
X0000638666Y0002497579D01*
X0000639763Y0002503094D01*
X0000639763Y0002508716D01*
X0000638666Y0002514231D01*
X0000636515Y0002519425D01*
X0000633391Y0002524100D01*
X0000629415Y0002528076D01*
X0000624740Y0002531200D01*
X0000619546Y0002533351D01*
X0000614031Y0002534448D01*
X0000608409Y0002534448D01*
X0000602894Y0002533351D01*
X0000597700Y0002531200D01*
X0000593025Y0002528076D01*
X0000589049Y0002524100D01*
X0000585925Y0002519425D01*
X0000583774Y0002514231D01*
X0000582677Y0002508716D01*
X0000561023Y0002508716D01*
X0000559926Y0002514231D01*
X0000557775Y0002519425D01*
X0000554651Y0002524100D01*
X0000550675Y0002528076D01*
X0000546000Y0002531200D01*
X0000540806Y0002533351D01*
X0000535291Y0002534448D01*
X0000529669Y0002534448D01*
X0000524154Y0002533351D01*
X0000518960Y0002531200D01*
X0000518401Y0002530826D01*
X0000518234Y0002531029D01*
X0000516436Y0002532505D01*
X0000514384Y0002533602D01*
X0000512157Y0002534277D01*
X0000509842Y0002534505D01*
X0000476377Y0002534505D01*
X0000474062Y0002534277D01*
X0000471836Y0002533602D01*
X0000469784Y0002532505D01*
X0000467985Y0002531029D01*
X0000466509Y0002529231D01*
X0000465413Y0002527179D01*
X0000464737Y0002524953D01*
X0000464509Y0002522637D01*
X0000406496Y0002522637D01*
X0000406496Y0002578740D01*
X0000695866Y0002578740D01*
X0000695866Y0002480941D01*
G36*
X0000509696Y0002715699D02*
G01*
X0000513534Y0002711861D01*
X0000518048Y0002708845D01*
X0000523064Y0002706767D01*
X0000528388Y0002705708D01*
X0000533817Y0002705708D01*
X0000539141Y0002706767D01*
X0000544156Y0002708845D01*
X0000548670Y0002711861D01*
X0000550689Y0002713879D01*
X0000552904Y0002711664D01*
X0000557418Y0002708648D01*
X0000562433Y0002706570D01*
X0000567758Y0002705511D01*
X0000573186Y0002705511D01*
X0000578511Y0002706570D01*
X0000583526Y0002708648D01*
X0000588040Y0002711664D01*
X0000591878Y0002715502D01*
X0000593094Y0002717322D01*
X0000633622Y0002717322D01*
X0000647138Y0002703806D01*
X0000647086Y0002703801D01*
X0000644859Y0002703126D01*
X0000642808Y0002702029D01*
X0000641009Y0002700553D01*
X0000639533Y0002698755D01*
X0000638436Y0002696703D01*
X0000637761Y0002694476D01*
X0000637533Y0002692161D01*
X0000637533Y0002622799D01*
X0000637761Y0002620483D01*
X0000638436Y0002618257D01*
X0000639533Y0002616205D01*
X0000641009Y0002614407D01*
X0000642808Y0002612931D01*
X0000644859Y0002611834D01*
X0000647086Y0002611159D01*
X0000649401Y0002610931D01*
X0000695866Y0002610931D01*
X0000695866Y0002604330D01*
X0000406496Y0002604330D01*
X0000406496Y0002610931D01*
X0000452960Y0002610931D01*
X0000455275Y0002611159D01*
X0000457502Y0002611834D01*
X0000459554Y0002612931D01*
X0000461352Y0002614407D01*
X0000462828Y0002616205D01*
X0000463925Y0002618257D01*
X0000464600Y0002620483D01*
X0000464828Y0002622799D01*
X0000464828Y0002692161D01*
X0000464600Y0002694476D01*
X0000463925Y0002696703D01*
X0000462828Y0002698755D01*
X0000461352Y0002700553D01*
X0000459554Y0002702029D01*
X0000457502Y0002703126D01*
X0000455275Y0002703801D01*
X0000455223Y0002703806D01*
X0000468936Y0002717519D01*
X0000508480Y0002717519D01*
X0000509696Y0002715699D01*
G37*
X0000509696Y0002715699D02*
X0000513534Y0002711861D01*
X0000518048Y0002708845D01*
X0000523064Y0002706767D01*
X0000528388Y0002705708D01*
X0000533817Y0002705708D01*
X0000539141Y0002706767D01*
X0000544156Y0002708845D01*
X0000548670Y0002711861D01*
X0000550689Y0002713879D01*
X0000552904Y0002711664D01*
X0000557418Y0002708648D01*
X0000562433Y0002706570D01*
X0000567758Y0002705511D01*
X0000573186Y0002705511D01*
X0000578511Y0002706570D01*
X0000583526Y0002708648D01*
X0000588040Y0002711664D01*
X0000591878Y0002715502D01*
X0000593094Y0002717322D01*
X0000633622Y0002717322D01*
X0000647138Y0002703806D01*
X0000647086Y0002703801D01*
X0000644859Y0002703126D01*
X0000642808Y0002702029D01*
X0000641009Y0002700553D01*
X0000639533Y0002698755D01*
X0000638436Y0002696703D01*
X0000637761Y0002694476D01*
X0000637533Y0002692161D01*
X0000637533Y0002622799D01*
X0000637761Y0002620483D01*
X0000638436Y0002618257D01*
X0000639533Y0002616205D01*
X0000641009Y0002614407D01*
X0000642808Y0002612931D01*
X0000644859Y0002611834D01*
X0000647086Y0002611159D01*
X0000649401Y0002610931D01*
X0000695866Y0002610931D01*
X0000695866Y0002604330D01*
X0000406496Y0002604330D01*
X0000406496Y0002610931D01*
X0000452960Y0002610931D01*
X0000455275Y0002611159D01*
X0000457502Y0002611834D01*
X0000459554Y0002612931D01*
X0000461352Y0002614407D01*
X0000462828Y0002616205D01*
X0000463925Y0002618257D01*
X0000464600Y0002620483D01*
X0000464828Y0002622799D01*
X0000464828Y0002692161D01*
X0000464600Y0002694476D01*
X0000463925Y0002696703D01*
X0000462828Y0002698755D01*
X0000461352Y0002700553D01*
X0000459554Y0002702029D01*
X0000457502Y0002703126D01*
X0000455275Y0002703801D01*
X0000455223Y0002703806D01*
X0000468936Y0002717519D01*
X0000508480Y0002717519D01*
X0000509696Y0002715699D01*
G04 next file*
G04 #@! TF.GenerationSoftware,KiCad,Pcbnew,(5.1.5)-3*
G04 #@! TF.CreationDate,2021-04-29T13:46:15+02:00*
G04 #@! TF.ProjectId,Hivetracker,48697665-7472-4616-936b-65722e6b6963,rev?*
G04 #@! TF.SameCoordinates,PX2562500PY28a0640*
G04 #@! TF.FileFunction,Copper,L1,Top*
G04 #@! TF.FilePolarity,Positive*
G04 Gerber Fmt 4.6, Leading zero omitted, Abs format (unit mm)*
G04 Created by KiCad (PCBNEW (5.1.5)-3) date 2021-04-29 13:46:15*
G04 APERTURE LIST*
G04 APERTURE END LIST*
D90*
X0000787401Y0002755905D02*
X0000822881Y0002657480D03*
X0001066881Y0002657480D03*
D91*
X0000886811Y0002505905D03*
D92*
X0000926181Y0002505905D03*
X0000965551Y0002505905D03*
X0001004921Y0002505905D03*
D93*
X0001001968Y0002705511D03*
X0000924803Y0002733267D03*
X0000964173Y0002733070D03*
D94*
X0000944881Y0002576771D02*
X0000944881Y0002606299D01*
X0000856114Y0002733267D02*
X0000924803Y0002733267D01*
X0000822881Y0002657480D02*
X0000822881Y0002700035D01*
X0000822881Y0002700035D02*
X0000856114Y0002733267D01*
X0001033846Y0002733070D02*
X0000964173Y0002733070D01*
X0001066881Y0002657480D02*
X0001066881Y0002700035D01*
X0001066881Y0002700035D02*
X0001033846Y0002733070D01*
G36*
X0001089566Y0002480941D02*
G01*
X0001089000Y0002475165D01*
X0001087505Y0002470211D01*
X0001085075Y0002465642D01*
X0001081805Y0002461632D01*
X0001077818Y0002458334D01*
X0001073266Y0002455873D01*
X0001068323Y0002454343D01*
X0001062587Y0002453740D01*
X0000827397Y0002453740D01*
X0000821621Y0002454306D01*
X0000816668Y0002455802D01*
X0000812099Y0002458231D01*
X0000808089Y0002461501D01*
X0000804791Y0002465488D01*
X0000802329Y0002470040D01*
X0000800799Y0002474983D01*
X0000800196Y0002480719D01*
X0000800196Y0002522637D01*
X0000858210Y0002522637D01*
X0000858210Y0002489173D01*
X0000858438Y0002486857D01*
X0000859114Y0002484631D01*
X0000860210Y0002482579D01*
X0000861686Y0002480781D01*
X0000863485Y0002479305D01*
X0000865537Y0002478208D01*
X0000867763Y0002477533D01*
X0000870078Y0002477305D01*
X0000903543Y0002477305D01*
X0000905858Y0002477533D01*
X0000908085Y0002478208D01*
X0000910136Y0002479305D01*
X0000911935Y0002480781D01*
X0000912101Y0002480984D01*
X0000912660Y0002480610D01*
X0000917855Y0002478459D01*
X0000923369Y0002477362D01*
X0000928992Y0002477362D01*
X0000934506Y0002478459D01*
X0000939701Y0002480610D01*
X0000944376Y0002483734D01*
X0000948352Y0002487710D01*
X0000951475Y0002492385D01*
X0000953627Y0002497579D01*
X0000954724Y0002503094D01*
X0000954724Y0002508716D01*
X0000976377Y0002508716D01*
X0000976377Y0002503094D01*
X0000977474Y0002497579D01*
X0000979626Y0002492385D01*
X0000982750Y0002487710D01*
X0000986725Y0002483734D01*
X0000991400Y0002480610D01*
X0000996595Y0002478459D01*
X0001002110Y0002477362D01*
X0001007732Y0002477362D01*
X0001013247Y0002478459D01*
X0001018441Y0002480610D01*
X0001023116Y0002483734D01*
X0001027092Y0002487710D01*
X0001030216Y0002492385D01*
X0001032367Y0002497579D01*
X0001033464Y0002503094D01*
X0001033464Y0002508716D01*
X0001032367Y0002514231D01*
X0001030216Y0002519425D01*
X0001027092Y0002524100D01*
X0001023116Y0002528076D01*
X0001018441Y0002531200D01*
X0001013247Y0002533351D01*
X0001007732Y0002534448D01*
X0001002110Y0002534448D01*
X0000996595Y0002533351D01*
X0000991400Y0002531200D01*
X0000986725Y0002528076D01*
X0000982750Y0002524100D01*
X0000979626Y0002519425D01*
X0000977474Y0002514231D01*
X0000976377Y0002508716D01*
X0000954724Y0002508716D01*
X0000953627Y0002514231D01*
X0000951475Y0002519425D01*
X0000948352Y0002524100D01*
X0000944376Y0002528076D01*
X0000939701Y0002531200D01*
X0000934506Y0002533351D01*
X0000928992Y0002534448D01*
X0000923369Y0002534448D01*
X0000917855Y0002533351D01*
X0000912660Y0002531200D01*
X0000912101Y0002530826D01*
X0000911935Y0002531029D01*
X0000910136Y0002532505D01*
X0000908085Y0002533602D01*
X0000905858Y0002534277D01*
X0000903543Y0002534505D01*
X0000870078Y0002534505D01*
X0000867763Y0002534277D01*
X0000865537Y0002533602D01*
X0000863485Y0002532505D01*
X0000861686Y0002531029D01*
X0000860210Y0002529231D01*
X0000859114Y0002527179D01*
X0000858438Y0002524953D01*
X0000858210Y0002522637D01*
X0000800196Y0002522637D01*
X0000800196Y0002578740D01*
X0001089566Y0002578740D01*
X0001089566Y0002480941D01*
G37*
X0001089566Y0002480941D02*
X0001089000Y0002475165D01*
X0001087505Y0002470211D01*
X0001085075Y0002465642D01*
X0001081805Y0002461632D01*
X0001077818Y0002458334D01*
X0001073266Y0002455873D01*
X0001068323Y0002454343D01*
X0001062587Y0002453740D01*
X0000827397Y0002453740D01*
X0000821621Y0002454306D01*
X0000816668Y0002455802D01*
X0000812099Y0002458231D01*
X0000808089Y0002461501D01*
X0000804791Y0002465488D01*
X0000802329Y0002470040D01*
X0000800799Y0002474983D01*
X0000800196Y0002480719D01*
X0000800196Y0002522637D01*
X0000858210Y0002522637D01*
X0000858210Y0002489173D01*
X0000858438Y0002486857D01*
X0000859114Y0002484631D01*
X0000860210Y0002482579D01*
X0000861686Y0002480781D01*
X0000863485Y0002479305D01*
X0000865537Y0002478208D01*
X0000867763Y0002477533D01*
X0000870078Y0002477305D01*
X0000903543Y0002477305D01*
X0000905858Y0002477533D01*
X0000908085Y0002478208D01*
X0000910136Y0002479305D01*
X0000911935Y0002480781D01*
X0000912101Y0002480984D01*
X0000912660Y0002480610D01*
X0000917855Y0002478459D01*
X0000923369Y0002477362D01*
X0000928992Y0002477362D01*
X0000934506Y0002478459D01*
X0000939701Y0002480610D01*
X0000944376Y0002483734D01*
X0000948352Y0002487710D01*
X0000951475Y0002492385D01*
X0000953627Y0002497579D01*
X0000954724Y0002503094D01*
X0000954724Y0002508716D01*
X0000976377Y0002508716D01*
X0000976377Y0002503094D01*
X0000977474Y0002497579D01*
X0000979626Y0002492385D01*
X0000982750Y0002487710D01*
X0000986725Y0002483734D01*
X0000991400Y0002480610D01*
X0000996595Y0002478459D01*
X0001002110Y0002477362D01*
X0001007732Y0002477362D01*
X0001013247Y0002478459D01*
X0001018441Y0002480610D01*
X0001023116Y0002483734D01*
X0001027092Y0002487710D01*
X0001030216Y0002492385D01*
X0001032367Y0002497579D01*
X0001033464Y0002503094D01*
X0001033464Y0002508716D01*
X0001032367Y0002514231D01*
X0001030216Y0002519425D01*
X0001027092Y0002524100D01*
X0001023116Y0002528076D01*
X0001018441Y0002531200D01*
X0001013247Y0002533351D01*
X0001007732Y0002534448D01*
X0001002110Y0002534448D01*
X0000996595Y0002533351D01*
X0000991400Y0002531200D01*
X0000986725Y0002528076D01*
X0000982750Y0002524100D01*
X0000979626Y0002519425D01*
X0000977474Y0002514231D01*
X0000976377Y0002508716D01*
X0000954724Y0002508716D01*
X0000953627Y0002514231D01*
X0000951475Y0002519425D01*
X0000948352Y0002524100D01*
X0000944376Y0002528076D01*
X0000939701Y0002531200D01*
X0000934506Y0002533351D01*
X0000928992Y0002534448D01*
X0000923369Y0002534448D01*
X0000917855Y0002533351D01*
X0000912660Y0002531200D01*
X0000912101Y0002530826D01*
X0000911935Y0002531029D01*
X0000910136Y0002532505D01*
X0000908085Y0002533602D01*
X0000905858Y0002534277D01*
X0000903543Y0002534505D01*
X0000870078Y0002534505D01*
X0000867763Y0002534277D01*
X0000865537Y0002533602D01*
X0000863485Y0002532505D01*
X0000861686Y0002531029D01*
X0000860210Y0002529231D01*
X0000859114Y0002527179D01*
X0000858438Y0002524953D01*
X0000858210Y0002522637D01*
X0000800196Y0002522637D01*
X0000800196Y0002578740D01*
X0001089566Y0002578740D01*
X0001089566Y0002480941D01*
G36*
X0000903397Y0002715699D02*
G01*
X0000907235Y0002711861D01*
X0000911749Y0002708845D01*
X0000916764Y0002706767D01*
X0000922089Y0002705708D01*
X0000927517Y0002705708D01*
X0000932842Y0002706767D01*
X0000937857Y0002708845D01*
X0000942371Y0002711861D01*
X0000944390Y0002713879D01*
X0000946605Y0002711664D01*
X0000951119Y0002708648D01*
X0000956134Y0002706570D01*
X0000961458Y0002705511D01*
X0000966887Y0002705511D01*
X0000972211Y0002706570D01*
X0000977227Y0002708648D01*
X0000981741Y0002711664D01*
X0000985579Y0002715502D01*
X0000986795Y0002717322D01*
X0001027323Y0002717322D01*
X0001040839Y0002703806D01*
X0001040787Y0002703801D01*
X0001038560Y0002703126D01*
X0001036508Y0002702029D01*
X0001034710Y0002700553D01*
X0001033234Y0002698755D01*
X0001032137Y0002696703D01*
X0001031462Y0002694476D01*
X0001031234Y0002692161D01*
X0001031234Y0002622799D01*
X0001031462Y0002620483D01*
X0001032137Y0002618257D01*
X0001033234Y0002616205D01*
X0001034710Y0002614407D01*
X0001036508Y0002612931D01*
X0001038560Y0002611834D01*
X0001040787Y0002611159D01*
X0001043102Y0002610931D01*
X0001089566Y0002610931D01*
X0001089566Y0002604330D01*
X0000800196Y0002604330D01*
X0000800196Y0002610931D01*
X0000846661Y0002610931D01*
X0000848976Y0002611159D01*
X0000851203Y0002611834D01*
X0000853254Y0002612931D01*
X0000855053Y0002614407D01*
X0000856529Y0002616205D01*
X0000857626Y0002618257D01*
X0000858301Y0002620483D01*
X0000858529Y0002622799D01*
X0000858529Y0002692161D01*
X0000858301Y0002694476D01*
X0000857626Y0002696703D01*
X0000856529Y0002698755D01*
X0000855053Y0002700553D01*
X0000853254Y0002702029D01*
X0000851203Y0002703126D01*
X0000848976Y0002703801D01*
X0000848924Y0002703806D01*
X0000862637Y0002717519D01*
X0000902181Y0002717519D01*
X0000903397Y0002715699D01*
G37*
X0000903397Y0002715699D02*
X0000907235Y0002711861D01*
X0000911749Y0002708845D01*
X0000916764Y0002706767D01*
X0000922089Y0002705708D01*
X0000927517Y0002705708D01*
X0000932842Y0002706767D01*
X0000937857Y0002708845D01*
X0000942371Y0002711861D01*
X0000944390Y0002713879D01*
X0000946605Y0002711664D01*
X0000951119Y0002708648D01*
X0000956134Y0002706570D01*
X0000961458Y0002705511D01*
X0000966887Y0002705511D01*
X0000972211Y0002706570D01*
X0000977227Y0002708648D01*
X0000981741Y0002711664D01*
X0000985579Y0002715502D01*
X0000986795Y0002717322D01*
X0001027323Y0002717322D01*
X0001040839Y0002703806D01*
X0001040787Y0002703801D01*
X0001038560Y0002703126D01*
X0001036508Y0002702029D01*
X0001034710Y0002700553D01*
X0001033234Y0002698755D01*
X0001032137Y0002696703D01*
X0001031462Y0002694476D01*
X0001031234Y0002692161D01*
X0001031234Y0002622799D01*
X0001031462Y0002620483D01*
X0001032137Y0002618257D01*
X0001033234Y0002616205D01*
X0001034710Y0002614407D01*
X0001036508Y0002612931D01*
X0001038560Y0002611834D01*
X0001040787Y0002611159D01*
X0001043102Y0002610931D01*
X0001089566Y0002610931D01*
X0001089566Y0002604330D01*
X0000800196Y0002604330D01*
X0000800196Y0002610931D01*
X0000846661Y0002610931D01*
X0000848976Y0002611159D01*
X0000851203Y0002611834D01*
X0000853254Y0002612931D01*
X0000855053Y0002614407D01*
X0000856529Y0002616205D01*
X0000857626Y0002618257D01*
X0000858301Y0002620483D01*
X0000858529Y0002622799D01*
X0000858529Y0002692161D01*
X0000858301Y0002694476D01*
X0000857626Y0002696703D01*
X0000856529Y0002698755D01*
X0000855053Y0002700553D01*
X0000853254Y0002702029D01*
X0000851203Y0002703126D01*
X0000848976Y0002703801D01*
X0000848924Y0002703806D01*
X0000862637Y0002717519D01*
X0000902181Y0002717519D01*
X0000903397Y0002715699D01*
G04 next file*
G04 #@! TF.GenerationSoftware,KiCad,Pcbnew,(5.1.5)-3*
G04 #@! TF.CreationDate,2021-04-29T13:46:15+02:00*
G04 #@! TF.ProjectId,Hivetracker,48697665-7472-4616-936b-65722e6b6963,rev?*
G04 #@! TF.SameCoordinates,PX2562500PY28a0640*
G04 #@! TF.FileFunction,Copper,L1,Top*
G04 #@! TF.FilePolarity,Positive*
G04 Gerber Fmt 4.6, Leading zero omitted, Abs format (unit mm)*
G04 Created by KiCad (PCBNEW (5.1.5)-3) date 2021-04-29 13:46:15*
G04 APERTURE LIST*
G04 APERTURE END LIST*
D95*
X0001181102Y0002755905D02*
X0001216582Y0002657480D03*
X0001460582Y0002657480D03*
D96*
X0001280511Y0002505905D03*
D97*
X0001319881Y0002505905D03*
X0001359251Y0002505905D03*
X0001398622Y0002505905D03*
D98*
X0001395669Y0002705511D03*
X0001318504Y0002733267D03*
X0001357874Y0002733070D03*
D99*
X0001338582Y0002576771D02*
X0001338582Y0002606299D01*
X0001249814Y0002733267D02*
X0001318504Y0002733267D01*
X0001216582Y0002657480D02*
X0001216582Y0002700035D01*
X0001216582Y0002700035D02*
X0001249814Y0002733267D01*
X0001427547Y0002733070D02*
X0001357874Y0002733070D01*
X0001460582Y0002657480D02*
X0001460582Y0002700035D01*
X0001460582Y0002700035D02*
X0001427547Y0002733070D01*
G36*
X0001483267Y0002480941D02*
G01*
X0001482701Y0002475165D01*
X0001481205Y0002470211D01*
X0001478776Y0002465642D01*
X0001475505Y0002461632D01*
X0001471519Y0002458334D01*
X0001466967Y0002455873D01*
X0001462024Y0002454343D01*
X0001456288Y0002453740D01*
X0001221098Y0002453740D01*
X0001215322Y0002454306D01*
X0001210368Y0002455802D01*
X0001205800Y0002458231D01*
X0001201790Y0002461501D01*
X0001198491Y0002465488D01*
X0001196030Y0002470040D01*
X0001194500Y0002474983D01*
X0001193897Y0002480719D01*
X0001193897Y0002522637D01*
X0001251911Y0002522637D01*
X0001251911Y0002489173D01*
X0001252139Y0002486857D01*
X0001252814Y0002484631D01*
X0001253911Y0002482579D01*
X0001255387Y0002480781D01*
X0001257185Y0002479305D01*
X0001259237Y0002478208D01*
X0001261464Y0002477533D01*
X0001263779Y0002477305D01*
X0001297244Y0002477305D01*
X0001299559Y0002477533D01*
X0001301785Y0002478208D01*
X0001303837Y0002479305D01*
X0001305636Y0002480781D01*
X0001305802Y0002480984D01*
X0001306361Y0002480610D01*
X0001311556Y0002478459D01*
X0001317070Y0002477362D01*
X0001322693Y0002477362D01*
X0001328207Y0002478459D01*
X0001333402Y0002480610D01*
X0001338077Y0002483734D01*
X0001342052Y0002487710D01*
X0001345176Y0002492385D01*
X0001347328Y0002497579D01*
X0001348425Y0002503094D01*
X0001348425Y0002508716D01*
X0001370078Y0002508716D01*
X0001370078Y0002503094D01*
X0001371175Y0002497579D01*
X0001373327Y0002492385D01*
X0001376451Y0002487710D01*
X0001380426Y0002483734D01*
X0001385101Y0002480610D01*
X0001390296Y0002478459D01*
X0001395810Y0002477362D01*
X0001401433Y0002477362D01*
X0001406947Y0002478459D01*
X0001412142Y0002480610D01*
X0001416817Y0002483734D01*
X0001420793Y0002487710D01*
X0001423916Y0002492385D01*
X0001426068Y0002497579D01*
X0001427165Y0002503094D01*
X0001427165Y0002508716D01*
X0001426068Y0002514231D01*
X0001423916Y0002519425D01*
X0001420793Y0002524100D01*
X0001416817Y0002528076D01*
X0001412142Y0002531200D01*
X0001406947Y0002533351D01*
X0001401433Y0002534448D01*
X0001395810Y0002534448D01*
X0001390296Y0002533351D01*
X0001385101Y0002531200D01*
X0001380426Y0002528076D01*
X0001376451Y0002524100D01*
X0001373327Y0002519425D01*
X0001371175Y0002514231D01*
X0001370078Y0002508716D01*
X0001348425Y0002508716D01*
X0001347328Y0002514231D01*
X0001345176Y0002519425D01*
X0001342052Y0002524100D01*
X0001338077Y0002528076D01*
X0001333402Y0002531200D01*
X0001328207Y0002533351D01*
X0001322693Y0002534448D01*
X0001317070Y0002534448D01*
X0001311556Y0002533351D01*
X0001306361Y0002531200D01*
X0001305802Y0002530826D01*
X0001305636Y0002531029D01*
X0001303837Y0002532505D01*
X0001301785Y0002533602D01*
X0001299559Y0002534277D01*
X0001297244Y0002534505D01*
X0001263779Y0002534505D01*
X0001261464Y0002534277D01*
X0001259237Y0002533602D01*
X0001257185Y0002532505D01*
X0001255387Y0002531029D01*
X0001253911Y0002529231D01*
X0001252814Y0002527179D01*
X0001252139Y0002524953D01*
X0001251911Y0002522637D01*
X0001193897Y0002522637D01*
X0001193897Y0002578740D01*
X0001483267Y0002578740D01*
X0001483267Y0002480941D01*
G37*
X0001483267Y0002480941D02*
X0001482701Y0002475165D01*
X0001481205Y0002470211D01*
X0001478776Y0002465642D01*
X0001475505Y0002461632D01*
X0001471519Y0002458334D01*
X0001466967Y0002455873D01*
X0001462024Y0002454343D01*
X0001456288Y0002453740D01*
X0001221098Y0002453740D01*
X0001215322Y0002454306D01*
X0001210368Y0002455802D01*
X0001205800Y0002458231D01*
X0001201790Y0002461501D01*
X0001198491Y0002465488D01*
X0001196030Y0002470040D01*
X0001194500Y0002474983D01*
X0001193897Y0002480719D01*
X0001193897Y0002522637D01*
X0001251911Y0002522637D01*
X0001251911Y0002489173D01*
X0001252139Y0002486857D01*
X0001252814Y0002484631D01*
X0001253911Y0002482579D01*
X0001255387Y0002480781D01*
X0001257185Y0002479305D01*
X0001259237Y0002478208D01*
X0001261464Y0002477533D01*
X0001263779Y0002477305D01*
X0001297244Y0002477305D01*
X0001299559Y0002477533D01*
X0001301785Y0002478208D01*
X0001303837Y0002479305D01*
X0001305636Y0002480781D01*
X0001305802Y0002480984D01*
X0001306361Y0002480610D01*
X0001311556Y0002478459D01*
X0001317070Y0002477362D01*
X0001322693Y0002477362D01*
X0001328207Y0002478459D01*
X0001333402Y0002480610D01*
X0001338077Y0002483734D01*
X0001342052Y0002487710D01*
X0001345176Y0002492385D01*
X0001347328Y0002497579D01*
X0001348425Y0002503094D01*
X0001348425Y0002508716D01*
X0001370078Y0002508716D01*
X0001370078Y0002503094D01*
X0001371175Y0002497579D01*
X0001373327Y0002492385D01*
X0001376451Y0002487710D01*
X0001380426Y0002483734D01*
X0001385101Y0002480610D01*
X0001390296Y0002478459D01*
X0001395810Y0002477362D01*
X0001401433Y0002477362D01*
X0001406947Y0002478459D01*
X0001412142Y0002480610D01*
X0001416817Y0002483734D01*
X0001420793Y0002487710D01*
X0001423916Y0002492385D01*
X0001426068Y0002497579D01*
X0001427165Y0002503094D01*
X0001427165Y0002508716D01*
X0001426068Y0002514231D01*
X0001423916Y0002519425D01*
X0001420793Y0002524100D01*
X0001416817Y0002528076D01*
X0001412142Y0002531200D01*
X0001406947Y0002533351D01*
X0001401433Y0002534448D01*
X0001395810Y0002534448D01*
X0001390296Y0002533351D01*
X0001385101Y0002531200D01*
X0001380426Y0002528076D01*
X0001376451Y0002524100D01*
X0001373327Y0002519425D01*
X0001371175Y0002514231D01*
X0001370078Y0002508716D01*
X0001348425Y0002508716D01*
X0001347328Y0002514231D01*
X0001345176Y0002519425D01*
X0001342052Y0002524100D01*
X0001338077Y0002528076D01*
X0001333402Y0002531200D01*
X0001328207Y0002533351D01*
X0001322693Y0002534448D01*
X0001317070Y0002534448D01*
X0001311556Y0002533351D01*
X0001306361Y0002531200D01*
X0001305802Y0002530826D01*
X0001305636Y0002531029D01*
X0001303837Y0002532505D01*
X0001301785Y0002533602D01*
X0001299559Y0002534277D01*
X0001297244Y0002534505D01*
X0001263779Y0002534505D01*
X0001261464Y0002534277D01*
X0001259237Y0002533602D01*
X0001257185Y0002532505D01*
X0001255387Y0002531029D01*
X0001253911Y0002529231D01*
X0001252814Y0002527179D01*
X0001252139Y0002524953D01*
X0001251911Y0002522637D01*
X0001193897Y0002522637D01*
X0001193897Y0002578740D01*
X0001483267Y0002578740D01*
X0001483267Y0002480941D01*
G36*
X0001297097Y0002715699D02*
G01*
X0001300936Y0002711861D01*
X0001305450Y0002708845D01*
X0001310465Y0002706767D01*
X0001315790Y0002705708D01*
X0001321218Y0002705708D01*
X0001326543Y0002706767D01*
X0001331558Y0002708845D01*
X0001336072Y0002711861D01*
X0001338090Y0002713879D01*
X0001340306Y0002711664D01*
X0001344819Y0002708648D01*
X0001349835Y0002706570D01*
X0001355159Y0002705511D01*
X0001360588Y0002705511D01*
X0001365912Y0002706570D01*
X0001370928Y0002708648D01*
X0001375441Y0002711664D01*
X0001379280Y0002715502D01*
X0001380496Y0002717322D01*
X0001421024Y0002717322D01*
X0001434540Y0002703806D01*
X0001434487Y0002703801D01*
X0001432261Y0002703126D01*
X0001430209Y0002702029D01*
X0001428411Y0002700553D01*
X0001426935Y0002698755D01*
X0001425838Y0002696703D01*
X0001425163Y0002694476D01*
X0001424935Y0002692161D01*
X0001424935Y0002622799D01*
X0001425163Y0002620483D01*
X0001425838Y0002618257D01*
X0001426935Y0002616205D01*
X0001428411Y0002614407D01*
X0001430209Y0002612931D01*
X0001432261Y0002611834D01*
X0001434487Y0002611159D01*
X0001436803Y0002610931D01*
X0001483267Y0002610931D01*
X0001483267Y0002604330D01*
X0001193897Y0002604330D01*
X0001193897Y0002610931D01*
X0001240362Y0002610931D01*
X0001242677Y0002611159D01*
X0001244903Y0002611834D01*
X0001246955Y0002612931D01*
X0001248754Y0002614407D01*
X0001250230Y0002616205D01*
X0001251326Y0002618257D01*
X0001252002Y0002620483D01*
X0001252230Y0002622799D01*
X0001252230Y0002692161D01*
X0001252002Y0002694476D01*
X0001251326Y0002696703D01*
X0001250230Y0002698755D01*
X0001248754Y0002700553D01*
X0001246955Y0002702029D01*
X0001244903Y0002703126D01*
X0001242677Y0002703801D01*
X0001242625Y0002703806D01*
X0001256337Y0002717519D01*
X0001295881Y0002717519D01*
X0001297097Y0002715699D01*
G37*
X0001297097Y0002715699D02*
X0001300936Y0002711861D01*
X0001305450Y0002708845D01*
X0001310465Y0002706767D01*
X0001315790Y0002705708D01*
X0001321218Y0002705708D01*
X0001326543Y0002706767D01*
X0001331558Y0002708845D01*
X0001336072Y0002711861D01*
X0001338090Y0002713879D01*
X0001340306Y0002711664D01*
X0001344819Y0002708648D01*
X0001349835Y0002706570D01*
X0001355159Y0002705511D01*
X0001360588Y0002705511D01*
X0001365912Y0002706570D01*
X0001370928Y0002708648D01*
X0001375441Y0002711664D01*
X0001379280Y0002715502D01*
X0001380496Y0002717322D01*
X0001421024Y0002717322D01*
X0001434540Y0002703806D01*
X0001434487Y0002703801D01*
X0001432261Y0002703126D01*
X0001430209Y0002702029D01*
X0001428411Y0002700553D01*
X0001426935Y0002698755D01*
X0001425838Y0002696703D01*
X0001425163Y0002694476D01*
X0001424935Y0002692161D01*
X0001424935Y0002622799D01*
X0001425163Y0002620483D01*
X0001425838Y0002618257D01*
X0001426935Y0002616205D01*
X0001428411Y0002614407D01*
X0001430209Y0002612931D01*
X0001432261Y0002611834D01*
X0001434487Y0002611159D01*
X0001436803Y0002610931D01*
X0001483267Y0002610931D01*
X0001483267Y0002604330D01*
X0001193897Y0002604330D01*
X0001193897Y0002610931D01*
X0001240362Y0002610931D01*
X0001242677Y0002611159D01*
X0001244903Y0002611834D01*
X0001246955Y0002612931D01*
X0001248754Y0002614407D01*
X0001250230Y0002616205D01*
X0001251326Y0002618257D01*
X0001252002Y0002620483D01*
X0001252230Y0002622799D01*
X0001252230Y0002692161D01*
X0001252002Y0002694476D01*
X0001251326Y0002696703D01*
X0001250230Y0002698755D01*
X0001248754Y0002700553D01*
X0001246955Y0002702029D01*
X0001244903Y0002703126D01*
X0001242677Y0002703801D01*
X0001242625Y0002703806D01*
X0001256337Y0002717519D01*
X0001295881Y0002717519D01*
X0001297097Y0002715699D01*
M02*