G04 #@! TF.GenerationSoftware,KiCad,Pcbnew,(5.1.5)-3*
G04 #@! TF.CreationDate,2021-04-29T13:46:15+02:00*
G04 #@! TF.ProjectId,Hivetracker,48697665-7472-4616-936b-65722e6b6963,rev?*
G04 #@! TF.SameCoordinates,PX2562500PY28a0640*
G04 #@! TF.FileFunction,Copper,L1,Top*
G04 #@! TF.FilePolarity,Positive*
%FSLAX46Y46*%
G04 Gerber Fmt 4.6, Leading zero omitted, Abs format (unit mm)*
G04 Created by KiCad (PCBNEW (5.1.5)-3) date 2021-04-29 13:46:15*
%MOMM*%
%LPD*%
G04 APERTURE LIST*
%ADD10R,1.207999X1.761800*%
%ADD11R,0.850000X0.850000*%
%ADD12O,0.850000X0.850000*%
%ADD13C,0.800000*%
%ADD14C,0.200000*%
G04 APERTURE END LIST*
D10*
X901200Y-2500000D03*
X7098800Y-2500000D03*
D11*
X2525000Y-6350000D03*
D12*
X3525000Y-6350000D03*
X4525000Y-6350000D03*
X5525000Y-6350000D03*
D13*
X5450000Y-1280000D03*
X3490011Y-575000D03*
X4490000Y-580000D03*
D14*
X4000000Y-4550000D02*
X4000000Y-3800000D01*
X1745300Y-575000D02*
X3490011Y-575000D01*
X901200Y-2500000D02*
X901200Y-1419100D01*
X901200Y-1419100D02*
X1745300Y-575000D01*
X6259700Y-580000D02*
X4490000Y-580000D01*
X7098800Y-2500000D02*
X7098800Y-1419100D01*
X7098800Y-1419100D02*
X6259700Y-580000D01*
G36*
X7675001Y-6984094D02*
G01*
X7660616Y-7130805D01*
X7622627Y-7256629D01*
X7560924Y-7372675D01*
X7477853Y-7474531D01*
X7376586Y-7558307D01*
X7260973Y-7620819D01*
X7135410Y-7659687D01*
X6989716Y-7675000D01*
X1015896Y-7675000D01*
X869195Y-7660616D01*
X743371Y-7622627D01*
X627325Y-7560924D01*
X525469Y-7477853D01*
X441693Y-7376586D01*
X379181Y-7260973D01*
X340313Y-7135410D01*
X325000Y-6989716D01*
X325000Y-5925000D01*
X1798549Y-5925000D01*
X1798549Y-6775000D01*
X1804341Y-6833810D01*
X1821496Y-6890360D01*
X1849353Y-6942477D01*
X1886842Y-6988158D01*
X1932523Y-7025647D01*
X1984640Y-7053504D01*
X2041190Y-7070659D01*
X2100000Y-7076451D01*
X2950000Y-7076451D01*
X3008810Y-7070659D01*
X3065360Y-7053504D01*
X3117477Y-7025647D01*
X3163158Y-6988158D01*
X3167389Y-6983002D01*
X3181584Y-6992487D01*
X3313525Y-7047139D01*
X3453594Y-7075000D01*
X3596406Y-7075000D01*
X3736475Y-7047139D01*
X3868416Y-6992487D01*
X3987161Y-6913144D01*
X4088144Y-6812161D01*
X4167487Y-6693416D01*
X4222139Y-6561475D01*
X4250000Y-6421406D01*
X4250000Y-6278594D01*
X4800000Y-6278594D01*
X4800000Y-6421406D01*
X4827861Y-6561475D01*
X4882513Y-6693416D01*
X4961856Y-6812161D01*
X5062839Y-6913144D01*
X5181584Y-6992487D01*
X5313525Y-7047139D01*
X5453594Y-7075000D01*
X5596406Y-7075000D01*
X5736475Y-7047139D01*
X5868416Y-6992487D01*
X5987161Y-6913144D01*
X6088144Y-6812161D01*
X6167487Y-6693416D01*
X6222139Y-6561475D01*
X6250000Y-6421406D01*
X6250000Y-6278594D01*
X6222139Y-6138525D01*
X6167487Y-6006584D01*
X6088144Y-5887839D01*
X5987161Y-5786856D01*
X5868416Y-5707513D01*
X5736475Y-5652861D01*
X5596406Y-5625000D01*
X5453594Y-5625000D01*
X5313525Y-5652861D01*
X5181584Y-5707513D01*
X5062839Y-5786856D01*
X4961856Y-5887839D01*
X4882513Y-6006584D01*
X4827861Y-6138525D01*
X4800000Y-6278594D01*
X4250000Y-6278594D01*
X4222139Y-6138525D01*
X4167487Y-6006584D01*
X4088144Y-5887839D01*
X3987161Y-5786856D01*
X3868416Y-5707513D01*
X3736475Y-5652861D01*
X3596406Y-5625000D01*
X3453594Y-5625000D01*
X3313525Y-5652861D01*
X3181584Y-5707513D01*
X3167389Y-5716998D01*
X3163158Y-5711842D01*
X3117477Y-5674353D01*
X3065360Y-5646496D01*
X3008810Y-5629341D01*
X2950000Y-5623549D01*
X2100000Y-5623549D01*
X2041190Y-5629341D01*
X1984640Y-5646496D01*
X1932523Y-5674353D01*
X1886842Y-5711842D01*
X1849353Y-5757523D01*
X1821496Y-5809640D01*
X1804341Y-5866190D01*
X1798549Y-5925000D01*
X325000Y-5925000D01*
X325000Y-4500000D01*
X7675001Y-4500000D01*
X7675001Y-6984094D01*
G37*
X7675001Y-6984094D02*
X7660616Y-7130805D01*
X7622627Y-7256629D01*
X7560924Y-7372675D01*
X7477853Y-7474531D01*
X7376586Y-7558307D01*
X7260973Y-7620819D01*
X7135410Y-7659687D01*
X6989716Y-7675000D01*
X1015896Y-7675000D01*
X869195Y-7660616D01*
X743371Y-7622627D01*
X627325Y-7560924D01*
X525469Y-7477853D01*
X441693Y-7376586D01*
X379181Y-7260973D01*
X340313Y-7135410D01*
X325000Y-6989716D01*
X325000Y-5925000D01*
X1798549Y-5925000D01*
X1798549Y-6775000D01*
X1804341Y-6833810D01*
X1821496Y-6890360D01*
X1849353Y-6942477D01*
X1886842Y-6988158D01*
X1932523Y-7025647D01*
X1984640Y-7053504D01*
X2041190Y-7070659D01*
X2100000Y-7076451D01*
X2950000Y-7076451D01*
X3008810Y-7070659D01*
X3065360Y-7053504D01*
X3117477Y-7025647D01*
X3163158Y-6988158D01*
X3167389Y-6983002D01*
X3181584Y-6992487D01*
X3313525Y-7047139D01*
X3453594Y-7075000D01*
X3596406Y-7075000D01*
X3736475Y-7047139D01*
X3868416Y-6992487D01*
X3987161Y-6913144D01*
X4088144Y-6812161D01*
X4167487Y-6693416D01*
X4222139Y-6561475D01*
X4250000Y-6421406D01*
X4250000Y-6278594D01*
X4800000Y-6278594D01*
X4800000Y-6421406D01*
X4827861Y-6561475D01*
X4882513Y-6693416D01*
X4961856Y-6812161D01*
X5062839Y-6913144D01*
X5181584Y-6992487D01*
X5313525Y-7047139D01*
X5453594Y-7075000D01*
X5596406Y-7075000D01*
X5736475Y-7047139D01*
X5868416Y-6992487D01*
X5987161Y-6913144D01*
X6088144Y-6812161D01*
X6167487Y-6693416D01*
X6222139Y-6561475D01*
X6250000Y-6421406D01*
X6250000Y-6278594D01*
X6222139Y-6138525D01*
X6167487Y-6006584D01*
X6088144Y-5887839D01*
X5987161Y-5786856D01*
X5868416Y-5707513D01*
X5736475Y-5652861D01*
X5596406Y-5625000D01*
X5453594Y-5625000D01*
X5313525Y-5652861D01*
X5181584Y-5707513D01*
X5062839Y-5786856D01*
X4961856Y-5887839D01*
X4882513Y-6006584D01*
X4827861Y-6138525D01*
X4800000Y-6278594D01*
X4250000Y-6278594D01*
X4222139Y-6138525D01*
X4167487Y-6006584D01*
X4088144Y-5887839D01*
X3987161Y-5786856D01*
X3868416Y-5707513D01*
X3736475Y-5652861D01*
X3596406Y-5625000D01*
X3453594Y-5625000D01*
X3313525Y-5652861D01*
X3181584Y-5707513D01*
X3167389Y-5716998D01*
X3163158Y-5711842D01*
X3117477Y-5674353D01*
X3065360Y-5646496D01*
X3008810Y-5629341D01*
X2950000Y-5623549D01*
X2100000Y-5623549D01*
X2041190Y-5629341D01*
X1984640Y-5646496D01*
X1932523Y-5674353D01*
X1886842Y-5711842D01*
X1849353Y-5757523D01*
X1821496Y-5809640D01*
X1804341Y-5866190D01*
X1798549Y-5925000D01*
X325000Y-5925000D01*
X325000Y-4500000D01*
X7675001Y-4500000D01*
X7675001Y-6984094D01*
G36*
X2946285Y-1021224D02*
G01*
X3043787Y-1118726D01*
X3158437Y-1195332D01*
X3285829Y-1248099D01*
X3421067Y-1275000D01*
X3558955Y-1275000D01*
X3694193Y-1248099D01*
X3821585Y-1195332D01*
X3936235Y-1118726D01*
X3987506Y-1067456D01*
X4043776Y-1123726D01*
X4158426Y-1200332D01*
X4285818Y-1253099D01*
X4421056Y-1280000D01*
X4558944Y-1280000D01*
X4694182Y-1253099D01*
X4821574Y-1200332D01*
X4936224Y-1123726D01*
X5033726Y-1026224D01*
X5064612Y-980000D01*
X6094015Y-980000D01*
X6437325Y-1323310D01*
X6435991Y-1323441D01*
X6379441Y-1340596D01*
X6327324Y-1368453D01*
X6281643Y-1405942D01*
X6244154Y-1451623D01*
X6216297Y-1503740D01*
X6199142Y-1560290D01*
X6193350Y-1619100D01*
X6193350Y-3380900D01*
X6199142Y-3439710D01*
X6216297Y-3496260D01*
X6244154Y-3548377D01*
X6281643Y-3594058D01*
X6327324Y-3631547D01*
X6379441Y-3659404D01*
X6435991Y-3676559D01*
X6494801Y-3682351D01*
X7675000Y-3682351D01*
X7675000Y-3850000D01*
X325000Y-3850000D01*
X325000Y-3682351D01*
X1505199Y-3682351D01*
X1564009Y-3676559D01*
X1620559Y-3659404D01*
X1672676Y-3631547D01*
X1718357Y-3594058D01*
X1755846Y-3548377D01*
X1783703Y-3496260D01*
X1800858Y-3439710D01*
X1806650Y-3380900D01*
X1806650Y-1619100D01*
X1800858Y-1560290D01*
X1783703Y-1503740D01*
X1755846Y-1451623D01*
X1718357Y-1405942D01*
X1672676Y-1368453D01*
X1620559Y-1340596D01*
X1564009Y-1323441D01*
X1562675Y-1323310D01*
X1910985Y-975000D01*
X2915399Y-975000D01*
X2946285Y-1021224D01*
G37*
X2946285Y-1021224D02*
X3043787Y-1118726D01*
X3158437Y-1195332D01*
X3285829Y-1248099D01*
X3421067Y-1275000D01*
X3558955Y-1275000D01*
X3694193Y-1248099D01*
X3821585Y-1195332D01*
X3936235Y-1118726D01*
X3987506Y-1067456D01*
X4043776Y-1123726D01*
X4158426Y-1200332D01*
X4285818Y-1253099D01*
X4421056Y-1280000D01*
X4558944Y-1280000D01*
X4694182Y-1253099D01*
X4821574Y-1200332D01*
X4936224Y-1123726D01*
X5033726Y-1026224D01*
X5064612Y-980000D01*
X6094015Y-980000D01*
X6437325Y-1323310D01*
X6435991Y-1323441D01*
X6379441Y-1340596D01*
X6327324Y-1368453D01*
X6281643Y-1405942D01*
X6244154Y-1451623D01*
X6216297Y-1503740D01*
X6199142Y-1560290D01*
X6193350Y-1619100D01*
X6193350Y-3380900D01*
X6199142Y-3439710D01*
X6216297Y-3496260D01*
X6244154Y-3548377D01*
X6281643Y-3594058D01*
X6327324Y-3631547D01*
X6379441Y-3659404D01*
X6435991Y-3676559D01*
X6494801Y-3682351D01*
X7675000Y-3682351D01*
X7675000Y-3850000D01*
X325000Y-3850000D01*
X325000Y-3682351D01*
X1505199Y-3682351D01*
X1564009Y-3676559D01*
X1620559Y-3659404D01*
X1672676Y-3631547D01*
X1718357Y-3594058D01*
X1755846Y-3548377D01*
X1783703Y-3496260D01*
X1800858Y-3439710D01*
X1806650Y-3380900D01*
X1806650Y-1619100D01*
X1800858Y-1560290D01*
X1783703Y-1503740D01*
X1755846Y-1451623D01*
X1718357Y-1405942D01*
X1672676Y-1368453D01*
X1620559Y-1340596D01*
X1564009Y-1323441D01*
X1562675Y-1323310D01*
X1910985Y-975000D01*
X2915399Y-975000D01*
X2946285Y-1021224D01*
M02*
