G04 #@! TF.GenerationSoftware,KiCad,Pcbnew,(5.1.5)-3*
G04 #@! TF.CreationDate,2021-04-29T13:46:15+02:00*
G04 #@! TF.ProjectId,Hivetracker,48697665-7472-4616-936b-65722e6b6963,rev?*
G04 #@! TF.SameCoordinates,PX2562500PY28a0640*
G04 #@! TF.FileFunction,Copper,L2,Bot*
G04 #@! TF.FilePolarity,Positive*
%FSLAX46Y46*%
G04 Gerber Fmt 4.6, Leading zero omitted, Abs format (unit mm)*
G04 Created by KiCad (PCBNEW (5.1.5)-3) date 2021-04-29 13:46:15*
%MOMM*%
%LPD*%
G04 APERTURE LIST*
%ADD10R,0.850000X0.850000*%
%ADD11O,0.850000X0.850000*%
%ADD12C,0.100000*%
%ADD13C,0.262000*%
%ADD14C,0.800000*%
%ADD15C,0.200000*%
%ADD16C,0.250000*%
G04 APERTURE END LIST*
D10*
X2525000Y-6350000D03*
D11*
X3525000Y-6350000D03*
X4525000Y-6350000D03*
X5525000Y-6350000D03*
G04 #@! TA.AperFunction,SMDPad,CuDef*
D12*
G36*
X1586958Y-5540710D02*
G01*
X1601276Y-5542834D01*
X1615317Y-5546351D01*
X1628946Y-5551228D01*
X1642031Y-5557417D01*
X1654447Y-5564858D01*
X1666073Y-5573481D01*
X1676798Y-5583202D01*
X1686519Y-5593927D01*
X1695142Y-5605553D01*
X1702583Y-5617969D01*
X1708772Y-5631054D01*
X1713649Y-5644683D01*
X1717166Y-5658724D01*
X1719290Y-5673042D01*
X1720000Y-5687500D01*
X1720000Y-5982500D01*
X1719290Y-5996958D01*
X1717166Y-6011276D01*
X1713649Y-6025317D01*
X1708772Y-6038946D01*
X1702583Y-6052031D01*
X1695142Y-6064447D01*
X1686519Y-6076073D01*
X1676798Y-6086798D01*
X1666073Y-6096519D01*
X1654447Y-6105142D01*
X1642031Y-6112583D01*
X1628946Y-6118772D01*
X1615317Y-6123649D01*
X1601276Y-6127166D01*
X1586958Y-6129290D01*
X1572500Y-6130000D01*
X1227500Y-6130000D01*
X1213042Y-6129290D01*
X1198724Y-6127166D01*
X1184683Y-6123649D01*
X1171054Y-6118772D01*
X1157969Y-6112583D01*
X1145553Y-6105142D01*
X1133927Y-6096519D01*
X1123202Y-6086798D01*
X1113481Y-6076073D01*
X1104858Y-6064447D01*
X1097417Y-6052031D01*
X1091228Y-6038946D01*
X1086351Y-6025317D01*
X1082834Y-6011276D01*
X1080710Y-5996958D01*
X1080000Y-5982500D01*
X1080000Y-5687500D01*
X1080710Y-5673042D01*
X1082834Y-5658724D01*
X1086351Y-5644683D01*
X1091228Y-5631054D01*
X1097417Y-5617969D01*
X1104858Y-5605553D01*
X1113481Y-5593927D01*
X1123202Y-5583202D01*
X1133927Y-5573481D01*
X1145553Y-5564858D01*
X1157969Y-5557417D01*
X1171054Y-5551228D01*
X1184683Y-5546351D01*
X1198724Y-5542834D01*
X1213042Y-5540710D01*
X1227500Y-5540000D01*
X1572500Y-5540000D01*
X1586958Y-5540710D01*
G37*
G04 #@! TD.AperFunction*
G04 #@! TA.AperFunction,SMDPad,CuDef*
G36*
X1586958Y-4570710D02*
G01*
X1601276Y-4572834D01*
X1615317Y-4576351D01*
X1628946Y-4581228D01*
X1642031Y-4587417D01*
X1654447Y-4594858D01*
X1666073Y-4603481D01*
X1676798Y-4613202D01*
X1686519Y-4623927D01*
X1695142Y-4635553D01*
X1702583Y-4647969D01*
X1708772Y-4661054D01*
X1713649Y-4674683D01*
X1717166Y-4688724D01*
X1719290Y-4703042D01*
X1720000Y-4717500D01*
X1720000Y-5012500D01*
X1719290Y-5026958D01*
X1717166Y-5041276D01*
X1713649Y-5055317D01*
X1708772Y-5068946D01*
X1702583Y-5082031D01*
X1695142Y-5094447D01*
X1686519Y-5106073D01*
X1676798Y-5116798D01*
X1666073Y-5126519D01*
X1654447Y-5135142D01*
X1642031Y-5142583D01*
X1628946Y-5148772D01*
X1615317Y-5153649D01*
X1601276Y-5157166D01*
X1586958Y-5159290D01*
X1572500Y-5160000D01*
X1227500Y-5160000D01*
X1213042Y-5159290D01*
X1198724Y-5157166D01*
X1184683Y-5153649D01*
X1171054Y-5148772D01*
X1157969Y-5142583D01*
X1145553Y-5135142D01*
X1133927Y-5126519D01*
X1123202Y-5116798D01*
X1113481Y-5106073D01*
X1104858Y-5094447D01*
X1097417Y-5082031D01*
X1091228Y-5068946D01*
X1086351Y-5055317D01*
X1082834Y-5041276D01*
X1080710Y-5026958D01*
X1080000Y-5012500D01*
X1080000Y-4717500D01*
X1080710Y-4703042D01*
X1082834Y-4688724D01*
X1086351Y-4674683D01*
X1091228Y-4661054D01*
X1097417Y-4647969D01*
X1104858Y-4635553D01*
X1113481Y-4623927D01*
X1123202Y-4613202D01*
X1133927Y-4603481D01*
X1145553Y-4594858D01*
X1157969Y-4587417D01*
X1171054Y-4581228D01*
X1184683Y-4576351D01*
X1198724Y-4572834D01*
X1213042Y-4570710D01*
X1227500Y-4570000D01*
X1572500Y-4570000D01*
X1586958Y-4570710D01*
G37*
G04 #@! TD.AperFunction*
G04 #@! TA.AperFunction,SMDPad,CuDef*
G36*
X5066958Y-2720710D02*
G01*
X5081276Y-2722834D01*
X5095317Y-2726351D01*
X5108946Y-2731228D01*
X5122031Y-2737417D01*
X5134447Y-2744858D01*
X5146073Y-2753481D01*
X5156798Y-2763202D01*
X5166519Y-2773927D01*
X5175142Y-2785553D01*
X5182583Y-2797969D01*
X5188772Y-2811054D01*
X5193649Y-2824683D01*
X5197166Y-2838724D01*
X5199290Y-2853042D01*
X5200000Y-2867500D01*
X5200000Y-3162500D01*
X5199290Y-3176958D01*
X5197166Y-3191276D01*
X5193649Y-3205317D01*
X5188772Y-3218946D01*
X5182583Y-3232031D01*
X5175142Y-3244447D01*
X5166519Y-3256073D01*
X5156798Y-3266798D01*
X5146073Y-3276519D01*
X5134447Y-3285142D01*
X5122031Y-3292583D01*
X5108946Y-3298772D01*
X5095317Y-3303649D01*
X5081276Y-3307166D01*
X5066958Y-3309290D01*
X5052500Y-3310000D01*
X4707500Y-3310000D01*
X4693042Y-3309290D01*
X4678724Y-3307166D01*
X4664683Y-3303649D01*
X4651054Y-3298772D01*
X4637969Y-3292583D01*
X4625553Y-3285142D01*
X4613927Y-3276519D01*
X4603202Y-3266798D01*
X4593481Y-3256073D01*
X4584858Y-3244447D01*
X4577417Y-3232031D01*
X4571228Y-3218946D01*
X4566351Y-3205317D01*
X4562834Y-3191276D01*
X4560710Y-3176958D01*
X4560000Y-3162500D01*
X4560000Y-2867500D01*
X4560710Y-2853042D01*
X4562834Y-2838724D01*
X4566351Y-2824683D01*
X4571228Y-2811054D01*
X4577417Y-2797969D01*
X4584858Y-2785553D01*
X4593481Y-2773927D01*
X4603202Y-2763202D01*
X4613927Y-2753481D01*
X4625553Y-2744858D01*
X4637969Y-2737417D01*
X4651054Y-2731228D01*
X4664683Y-2726351D01*
X4678724Y-2722834D01*
X4693042Y-2720710D01*
X4707500Y-2720000D01*
X5052500Y-2720000D01*
X5066958Y-2720710D01*
G37*
G04 #@! TD.AperFunction*
G04 #@! TA.AperFunction,SMDPad,CuDef*
G36*
X5066958Y-1750710D02*
G01*
X5081276Y-1752834D01*
X5095317Y-1756351D01*
X5108946Y-1761228D01*
X5122031Y-1767417D01*
X5134447Y-1774858D01*
X5146073Y-1783481D01*
X5156798Y-1793202D01*
X5166519Y-1803927D01*
X5175142Y-1815553D01*
X5182583Y-1827969D01*
X5188772Y-1841054D01*
X5193649Y-1854683D01*
X5197166Y-1868724D01*
X5199290Y-1883042D01*
X5200000Y-1897500D01*
X5200000Y-2192500D01*
X5199290Y-2206958D01*
X5197166Y-2221276D01*
X5193649Y-2235317D01*
X5188772Y-2248946D01*
X5182583Y-2262031D01*
X5175142Y-2274447D01*
X5166519Y-2286073D01*
X5156798Y-2296798D01*
X5146073Y-2306519D01*
X5134447Y-2315142D01*
X5122031Y-2322583D01*
X5108946Y-2328772D01*
X5095317Y-2333649D01*
X5081276Y-2337166D01*
X5066958Y-2339290D01*
X5052500Y-2340000D01*
X4707500Y-2340000D01*
X4693042Y-2339290D01*
X4678724Y-2337166D01*
X4664683Y-2333649D01*
X4651054Y-2328772D01*
X4637969Y-2322583D01*
X4625553Y-2315142D01*
X4613927Y-2306519D01*
X4603202Y-2296798D01*
X4593481Y-2286073D01*
X4584858Y-2274447D01*
X4577417Y-2262031D01*
X4571228Y-2248946D01*
X4566351Y-2235317D01*
X4562834Y-2221276D01*
X4560710Y-2206958D01*
X4560000Y-2192500D01*
X4560000Y-1897500D01*
X4560710Y-1883042D01*
X4562834Y-1868724D01*
X4566351Y-1854683D01*
X4571228Y-1841054D01*
X4577417Y-1827969D01*
X4584858Y-1815553D01*
X4593481Y-1803927D01*
X4603202Y-1793202D01*
X4613927Y-1783481D01*
X4625553Y-1774858D01*
X4637969Y-1767417D01*
X4651054Y-1761228D01*
X4664683Y-1756351D01*
X4678724Y-1752834D01*
X4693042Y-1750710D01*
X4707500Y-1750000D01*
X5052500Y-1750000D01*
X5066958Y-1750710D01*
G37*
G04 #@! TD.AperFunction*
G04 #@! TA.AperFunction,SMDPad,CuDef*
G36*
X6096958Y-2720710D02*
G01*
X6111276Y-2722834D01*
X6125317Y-2726351D01*
X6138946Y-2731228D01*
X6152031Y-2737417D01*
X6164447Y-2744858D01*
X6176073Y-2753481D01*
X6186798Y-2763202D01*
X6196519Y-2773927D01*
X6205142Y-2785553D01*
X6212583Y-2797969D01*
X6218772Y-2811054D01*
X6223649Y-2824683D01*
X6227166Y-2838724D01*
X6229290Y-2853042D01*
X6230000Y-2867500D01*
X6230000Y-3162500D01*
X6229290Y-3176958D01*
X6227166Y-3191276D01*
X6223649Y-3205317D01*
X6218772Y-3218946D01*
X6212583Y-3232031D01*
X6205142Y-3244447D01*
X6196519Y-3256073D01*
X6186798Y-3266798D01*
X6176073Y-3276519D01*
X6164447Y-3285142D01*
X6152031Y-3292583D01*
X6138946Y-3298772D01*
X6125317Y-3303649D01*
X6111276Y-3307166D01*
X6096958Y-3309290D01*
X6082500Y-3310000D01*
X5737500Y-3310000D01*
X5723042Y-3309290D01*
X5708724Y-3307166D01*
X5694683Y-3303649D01*
X5681054Y-3298772D01*
X5667969Y-3292583D01*
X5655553Y-3285142D01*
X5643927Y-3276519D01*
X5633202Y-3266798D01*
X5623481Y-3256073D01*
X5614858Y-3244447D01*
X5607417Y-3232031D01*
X5601228Y-3218946D01*
X5596351Y-3205317D01*
X5592834Y-3191276D01*
X5590710Y-3176958D01*
X5590000Y-3162500D01*
X5590000Y-2867500D01*
X5590710Y-2853042D01*
X5592834Y-2838724D01*
X5596351Y-2824683D01*
X5601228Y-2811054D01*
X5607417Y-2797969D01*
X5614858Y-2785553D01*
X5623481Y-2773927D01*
X5633202Y-2763202D01*
X5643927Y-2753481D01*
X5655553Y-2744858D01*
X5667969Y-2737417D01*
X5681054Y-2731228D01*
X5694683Y-2726351D01*
X5708724Y-2722834D01*
X5723042Y-2720710D01*
X5737500Y-2720000D01*
X6082500Y-2720000D01*
X6096958Y-2720710D01*
G37*
G04 #@! TD.AperFunction*
G04 #@! TA.AperFunction,SMDPad,CuDef*
G36*
X6096958Y-1750710D02*
G01*
X6111276Y-1752834D01*
X6125317Y-1756351D01*
X6138946Y-1761228D01*
X6152031Y-1767417D01*
X6164447Y-1774858D01*
X6176073Y-1783481D01*
X6186798Y-1793202D01*
X6196519Y-1803927D01*
X6205142Y-1815553D01*
X6212583Y-1827969D01*
X6218772Y-1841054D01*
X6223649Y-1854683D01*
X6227166Y-1868724D01*
X6229290Y-1883042D01*
X6230000Y-1897500D01*
X6230000Y-2192500D01*
X6229290Y-2206958D01*
X6227166Y-2221276D01*
X6223649Y-2235317D01*
X6218772Y-2248946D01*
X6212583Y-2262031D01*
X6205142Y-2274447D01*
X6196519Y-2286073D01*
X6186798Y-2296798D01*
X6176073Y-2306519D01*
X6164447Y-2315142D01*
X6152031Y-2322583D01*
X6138946Y-2328772D01*
X6125317Y-2333649D01*
X6111276Y-2337166D01*
X6096958Y-2339290D01*
X6082500Y-2340000D01*
X5737500Y-2340000D01*
X5723042Y-2339290D01*
X5708724Y-2337166D01*
X5694683Y-2333649D01*
X5681054Y-2328772D01*
X5667969Y-2322583D01*
X5655553Y-2315142D01*
X5643927Y-2306519D01*
X5633202Y-2296798D01*
X5623481Y-2286073D01*
X5614858Y-2274447D01*
X5607417Y-2262031D01*
X5601228Y-2248946D01*
X5596351Y-2235317D01*
X5592834Y-2221276D01*
X5590710Y-2206958D01*
X5590000Y-2192500D01*
X5590000Y-1897500D01*
X5590710Y-1883042D01*
X5592834Y-1868724D01*
X5596351Y-1854683D01*
X5601228Y-1841054D01*
X5607417Y-1827969D01*
X5614858Y-1815553D01*
X5623481Y-1803927D01*
X5633202Y-1793202D01*
X5643927Y-1783481D01*
X5655553Y-1774858D01*
X5667969Y-1767417D01*
X5681054Y-1761228D01*
X5694683Y-1756351D01*
X5708724Y-1752834D01*
X5723042Y-1750710D01*
X5737500Y-1750000D01*
X6082500Y-1750000D01*
X6096958Y-1750710D01*
G37*
G04 #@! TD.AperFunction*
D13*
X4000000Y-4450000D03*
X4000000Y-3950000D03*
X4500000Y-3950000D03*
X3500000Y-3950000D03*
X3500000Y-4450000D03*
X4500000Y-4450000D03*
X4500000Y-4950000D03*
X4000000Y-4950000D03*
X3500000Y-4950000D03*
D14*
X5450000Y-1280000D03*
X3490011Y-575000D03*
X4490000Y-580000D03*
D15*
X5401039Y-7075001D02*
X5525000Y-6951040D01*
X1859999Y-7075001D02*
X5401039Y-7075001D01*
X5525000Y-6951040D02*
X5525000Y-6350000D01*
X1400000Y-6615002D02*
X1859999Y-7075001D01*
X1400000Y-5835000D02*
X1400000Y-6615002D01*
X2285000Y-4950000D02*
X1400000Y-5835000D01*
X3500000Y-4950000D02*
X2285000Y-4950000D01*
X4880000Y-2045000D02*
X4880000Y-1850000D01*
X4880000Y-1850000D02*
X5450000Y-1280000D01*
X5910000Y-1740000D02*
X5450000Y-1280000D01*
X5910000Y-2045000D02*
X5910000Y-1740000D01*
X4880000Y-3570000D02*
X4500000Y-3950000D01*
X4880000Y-3015000D02*
X4880000Y-3570000D01*
X3490011Y-3940011D02*
X3500000Y-3950000D01*
X3490011Y-575000D02*
X3490011Y-3940011D01*
X4000000Y-1070000D02*
X4000000Y-3950000D01*
X4490000Y-580000D02*
X4000000Y-1070000D01*
D16*
X2525000Y-5675000D02*
X2525000Y-6350000D01*
X3524883Y-5599999D02*
X2600001Y-5599999D01*
X4000000Y-5124882D02*
X3524883Y-5599999D01*
X2600001Y-5599999D02*
X2525000Y-5675000D01*
X4000000Y-4950000D02*
X4000000Y-5124882D01*
X3525000Y-6239998D02*
X3525000Y-6350000D01*
X4500000Y-4950000D02*
X4500000Y-5264998D01*
X4500000Y-5264998D02*
X3525000Y-6239998D01*
D15*
X4770000Y-4450000D02*
X4685261Y-4450000D01*
X4685261Y-4450000D02*
X4500000Y-4450000D01*
X5910000Y-3310000D02*
X4770000Y-4450000D01*
X5910000Y-3015000D02*
X5910000Y-3310000D01*
G36*
X4075592Y-4525592D02*
G01*
X4042450Y-4519000D01*
X3957550Y-4519000D01*
X3874282Y-4535563D01*
X3795845Y-4568053D01*
X3750000Y-4598686D01*
X3704155Y-4568053D01*
X3625718Y-4535563D01*
X3542450Y-4519000D01*
X3457550Y-4519000D01*
X3374282Y-4535563D01*
X3339428Y-4550000D01*
X2304646Y-4550000D01*
X2284999Y-4548065D01*
X2265353Y-4550000D01*
X2206586Y-4555788D01*
X2131186Y-4578660D01*
X2084127Y-4603814D01*
X2061697Y-4615803D01*
X2016049Y-4653265D01*
X2016047Y-4653267D01*
X2000789Y-4665789D01*
X1988267Y-4681047D01*
X1430766Y-5238549D01*
X1227500Y-5238549D01*
X1139914Y-5247175D01*
X1055694Y-5272723D01*
X978076Y-5314211D01*
X910044Y-5370044D01*
X854211Y-5438076D01*
X812723Y-5515694D01*
X787175Y-5599914D01*
X778549Y-5687500D01*
X778549Y-5982500D01*
X787175Y-6070086D01*
X812723Y-6154306D01*
X854211Y-6231924D01*
X910044Y-6299956D01*
X978076Y-6355789D01*
X1000001Y-6367508D01*
X1000001Y-6595346D01*
X998065Y-6615002D01*
X1005788Y-6693415D01*
X1028661Y-6768816D01*
X1065803Y-6838304D01*
X1103265Y-6883952D01*
X1103268Y-6883955D01*
X1115790Y-6899213D01*
X1131047Y-6911734D01*
X1563266Y-7343954D01*
X1575788Y-7359212D01*
X1591046Y-7371734D01*
X1591048Y-7371736D01*
X1636696Y-7409198D01*
X1706185Y-7446341D01*
X1781585Y-7469213D01*
X1859999Y-7476936D01*
X1879646Y-7475001D01*
X5381393Y-7475001D01*
X5401039Y-7476936D01*
X5420685Y-7475001D01*
X5420686Y-7475001D01*
X5479453Y-7469213D01*
X5554853Y-7446341D01*
X5624342Y-7409198D01*
X5685250Y-7359212D01*
X5697776Y-7343949D01*
X5793949Y-7247776D01*
X5809211Y-7235251D01*
X5859197Y-7174343D01*
X5896340Y-7104854D01*
X5919212Y-7029454D01*
X5925000Y-6970687D01*
X5925000Y-6970677D01*
X5926687Y-6953552D01*
X5987161Y-6913144D01*
X6088144Y-6812161D01*
X6167487Y-6693416D01*
X6222139Y-6561475D01*
X6250000Y-6421406D01*
X6250000Y-6278594D01*
X6222139Y-6138525D01*
X6167487Y-6006584D01*
X6088144Y-5887839D01*
X5987161Y-5786856D01*
X5868416Y-5707513D01*
X5736475Y-5652861D01*
X5596406Y-5625000D01*
X5453594Y-5625000D01*
X5313525Y-5652861D01*
X5181584Y-5707513D01*
X5062839Y-5786856D01*
X4961856Y-5887839D01*
X4882513Y-6006584D01*
X4827861Y-6138525D01*
X4800000Y-6278594D01*
X4800000Y-6421406D01*
X4827861Y-6561475D01*
X4874885Y-6675001D01*
X4175115Y-6675001D01*
X4222139Y-6561475D01*
X4250000Y-6421406D01*
X4250000Y-6278594D01*
X4223031Y-6143008D01*
X4785762Y-5580277D01*
X4801974Y-5566972D01*
X4855084Y-5502258D01*
X4894548Y-5428425D01*
X4918850Y-5348312D01*
X4925000Y-5285872D01*
X4925000Y-5285866D01*
X4927055Y-5264999D01*
X4925000Y-5244132D01*
X4925000Y-5022614D01*
X4931000Y-4992450D01*
X4931000Y-4907550D01*
X4914437Y-4824282D01*
X4914401Y-4824195D01*
X4923814Y-4821340D01*
X4993303Y-4784197D01*
X5054211Y-4734211D01*
X5066737Y-4718948D01*
X5285685Y-4500000D01*
X7675001Y-4500000D01*
X7675001Y-6984094D01*
X7660616Y-7130805D01*
X7622627Y-7256629D01*
X7560924Y-7372675D01*
X7477853Y-7474531D01*
X7376586Y-7558307D01*
X7260973Y-7620819D01*
X7135410Y-7659687D01*
X6989716Y-7675000D01*
X1015896Y-7675000D01*
X869195Y-7660616D01*
X743371Y-7622627D01*
X627325Y-7560924D01*
X525469Y-7477853D01*
X441693Y-7376586D01*
X379181Y-7260973D01*
X340313Y-7135410D01*
X325000Y-6989716D01*
X325000Y-4500000D01*
X4070502Y-4500000D01*
X4075592Y-4525592D01*
G37*
X4075592Y-4525592D02*
X4042450Y-4519000D01*
X3957550Y-4519000D01*
X3874282Y-4535563D01*
X3795845Y-4568053D01*
X3750000Y-4598686D01*
X3704155Y-4568053D01*
X3625718Y-4535563D01*
X3542450Y-4519000D01*
X3457550Y-4519000D01*
X3374282Y-4535563D01*
X3339428Y-4550000D01*
X2304646Y-4550000D01*
X2284999Y-4548065D01*
X2265353Y-4550000D01*
X2206586Y-4555788D01*
X2131186Y-4578660D01*
X2084127Y-4603814D01*
X2061697Y-4615803D01*
X2016049Y-4653265D01*
X2016047Y-4653267D01*
X2000789Y-4665789D01*
X1988267Y-4681047D01*
X1430766Y-5238549D01*
X1227500Y-5238549D01*
X1139914Y-5247175D01*
X1055694Y-5272723D01*
X978076Y-5314211D01*
X910044Y-5370044D01*
X854211Y-5438076D01*
X812723Y-5515694D01*
X787175Y-5599914D01*
X778549Y-5687500D01*
X778549Y-5982500D01*
X787175Y-6070086D01*
X812723Y-6154306D01*
X854211Y-6231924D01*
X910044Y-6299956D01*
X978076Y-6355789D01*
X1000001Y-6367508D01*
X1000001Y-6595346D01*
X998065Y-6615002D01*
X1005788Y-6693415D01*
X1028661Y-6768816D01*
X1065803Y-6838304D01*
X1103265Y-6883952D01*
X1103268Y-6883955D01*
X1115790Y-6899213D01*
X1131047Y-6911734D01*
X1563266Y-7343954D01*
X1575788Y-7359212D01*
X1591046Y-7371734D01*
X1591048Y-7371736D01*
X1636696Y-7409198D01*
X1706185Y-7446341D01*
X1781585Y-7469213D01*
X1859999Y-7476936D01*
X1879646Y-7475001D01*
X5381393Y-7475001D01*
X5401039Y-7476936D01*
X5420685Y-7475001D01*
X5420686Y-7475001D01*
X5479453Y-7469213D01*
X5554853Y-7446341D01*
X5624342Y-7409198D01*
X5685250Y-7359212D01*
X5697776Y-7343949D01*
X5793949Y-7247776D01*
X5809211Y-7235251D01*
X5859197Y-7174343D01*
X5896340Y-7104854D01*
X5919212Y-7029454D01*
X5925000Y-6970687D01*
X5925000Y-6970677D01*
X5926687Y-6953552D01*
X5987161Y-6913144D01*
X6088144Y-6812161D01*
X6167487Y-6693416D01*
X6222139Y-6561475D01*
X6250000Y-6421406D01*
X6250000Y-6278594D01*
X6222139Y-6138525D01*
X6167487Y-6006584D01*
X6088144Y-5887839D01*
X5987161Y-5786856D01*
X5868416Y-5707513D01*
X5736475Y-5652861D01*
X5596406Y-5625000D01*
X5453594Y-5625000D01*
X5313525Y-5652861D01*
X5181584Y-5707513D01*
X5062839Y-5786856D01*
X4961856Y-5887839D01*
X4882513Y-6006584D01*
X4827861Y-6138525D01*
X4800000Y-6278594D01*
X4800000Y-6421406D01*
X4827861Y-6561475D01*
X4874885Y-6675001D01*
X4175115Y-6675001D01*
X4222139Y-6561475D01*
X4250000Y-6421406D01*
X4250000Y-6278594D01*
X4223031Y-6143008D01*
X4785762Y-5580277D01*
X4801974Y-5566972D01*
X4855084Y-5502258D01*
X4894548Y-5428425D01*
X4918850Y-5348312D01*
X4925000Y-5285872D01*
X4925000Y-5285866D01*
X4927055Y-5264999D01*
X4925000Y-5244132D01*
X4925000Y-5022614D01*
X4931000Y-4992450D01*
X4931000Y-4907550D01*
X4914437Y-4824282D01*
X4914401Y-4824195D01*
X4923814Y-4821340D01*
X4993303Y-4784197D01*
X5054211Y-4734211D01*
X5066737Y-4718948D01*
X5285685Y-4500000D01*
X7675001Y-4500000D01*
X7675001Y-6984094D01*
X7660616Y-7130805D01*
X7622627Y-7256629D01*
X7560924Y-7372675D01*
X7477853Y-7474531D01*
X7376586Y-7558307D01*
X7260973Y-7620819D01*
X7135410Y-7659687D01*
X6989716Y-7675000D01*
X1015896Y-7675000D01*
X869195Y-7660616D01*
X743371Y-7622627D01*
X627325Y-7560924D01*
X525469Y-7477853D01*
X441693Y-7376586D01*
X379181Y-7260973D01*
X340313Y-7135410D01*
X325000Y-6989716D01*
X325000Y-4500000D01*
X4070502Y-4500000D01*
X4075592Y-4525592D01*
M02*
