G04 #@! TF.GenerationSoftware,KiCad,Pcbnew,(5.1.5)-3*
G04 #@! TF.CreationDate,2021-04-29T13:46:15+02:00*
G04 #@! TF.ProjectId,Hivetracker,48697665-7472-4616-936b-65722e6b6963,rev?*
G04 #@! TF.SameCoordinates,PX2562500PY28a0640*
G04 #@! TF.FileFunction,Paste,Bot*
G04 #@! TF.FilePolarity,Positive*
%FSLAX46Y46*%
G04 Gerber Fmt 4.6, Leading zero omitted, Abs format (unit mm)*
G04 Created by KiCad (PCBNEW (5.1.5)-3) date 2021-04-29 13:46:15*
%MOMM*%
%LPD*%
G04 APERTURE LIST*
%ADD10C,0.100000*%
%ADD11C,0.262000*%
G04 APERTURE END LIST*
D10*
G36*
X1586958Y-5540710D02*
G01*
X1601276Y-5542834D01*
X1615317Y-5546351D01*
X1628946Y-5551228D01*
X1642031Y-5557417D01*
X1654447Y-5564858D01*
X1666073Y-5573481D01*
X1676798Y-5583202D01*
X1686519Y-5593927D01*
X1695142Y-5605553D01*
X1702583Y-5617969D01*
X1708772Y-5631054D01*
X1713649Y-5644683D01*
X1717166Y-5658724D01*
X1719290Y-5673042D01*
X1720000Y-5687500D01*
X1720000Y-5982500D01*
X1719290Y-5996958D01*
X1717166Y-6011276D01*
X1713649Y-6025317D01*
X1708772Y-6038946D01*
X1702583Y-6052031D01*
X1695142Y-6064447D01*
X1686519Y-6076073D01*
X1676798Y-6086798D01*
X1666073Y-6096519D01*
X1654447Y-6105142D01*
X1642031Y-6112583D01*
X1628946Y-6118772D01*
X1615317Y-6123649D01*
X1601276Y-6127166D01*
X1586958Y-6129290D01*
X1572500Y-6130000D01*
X1227500Y-6130000D01*
X1213042Y-6129290D01*
X1198724Y-6127166D01*
X1184683Y-6123649D01*
X1171054Y-6118772D01*
X1157969Y-6112583D01*
X1145553Y-6105142D01*
X1133927Y-6096519D01*
X1123202Y-6086798D01*
X1113481Y-6076073D01*
X1104858Y-6064447D01*
X1097417Y-6052031D01*
X1091228Y-6038946D01*
X1086351Y-6025317D01*
X1082834Y-6011276D01*
X1080710Y-5996958D01*
X1080000Y-5982500D01*
X1080000Y-5687500D01*
X1080710Y-5673042D01*
X1082834Y-5658724D01*
X1086351Y-5644683D01*
X1091228Y-5631054D01*
X1097417Y-5617969D01*
X1104858Y-5605553D01*
X1113481Y-5593927D01*
X1123202Y-5583202D01*
X1133927Y-5573481D01*
X1145553Y-5564858D01*
X1157969Y-5557417D01*
X1171054Y-5551228D01*
X1184683Y-5546351D01*
X1198724Y-5542834D01*
X1213042Y-5540710D01*
X1227500Y-5540000D01*
X1572500Y-5540000D01*
X1586958Y-5540710D01*
G37*
G36*
X1586958Y-4570710D02*
G01*
X1601276Y-4572834D01*
X1615317Y-4576351D01*
X1628946Y-4581228D01*
X1642031Y-4587417D01*
X1654447Y-4594858D01*
X1666073Y-4603481D01*
X1676798Y-4613202D01*
X1686519Y-4623927D01*
X1695142Y-4635553D01*
X1702583Y-4647969D01*
X1708772Y-4661054D01*
X1713649Y-4674683D01*
X1717166Y-4688724D01*
X1719290Y-4703042D01*
X1720000Y-4717500D01*
X1720000Y-5012500D01*
X1719290Y-5026958D01*
X1717166Y-5041276D01*
X1713649Y-5055317D01*
X1708772Y-5068946D01*
X1702583Y-5082031D01*
X1695142Y-5094447D01*
X1686519Y-5106073D01*
X1676798Y-5116798D01*
X1666073Y-5126519D01*
X1654447Y-5135142D01*
X1642031Y-5142583D01*
X1628946Y-5148772D01*
X1615317Y-5153649D01*
X1601276Y-5157166D01*
X1586958Y-5159290D01*
X1572500Y-5160000D01*
X1227500Y-5160000D01*
X1213042Y-5159290D01*
X1198724Y-5157166D01*
X1184683Y-5153649D01*
X1171054Y-5148772D01*
X1157969Y-5142583D01*
X1145553Y-5135142D01*
X1133927Y-5126519D01*
X1123202Y-5116798D01*
X1113481Y-5106073D01*
X1104858Y-5094447D01*
X1097417Y-5082031D01*
X1091228Y-5068946D01*
X1086351Y-5055317D01*
X1082834Y-5041276D01*
X1080710Y-5026958D01*
X1080000Y-5012500D01*
X1080000Y-4717500D01*
X1080710Y-4703042D01*
X1082834Y-4688724D01*
X1086351Y-4674683D01*
X1091228Y-4661054D01*
X1097417Y-4647969D01*
X1104858Y-4635553D01*
X1113481Y-4623927D01*
X1123202Y-4613202D01*
X1133927Y-4603481D01*
X1145553Y-4594858D01*
X1157969Y-4587417D01*
X1171054Y-4581228D01*
X1184683Y-4576351D01*
X1198724Y-4572834D01*
X1213042Y-4570710D01*
X1227500Y-4570000D01*
X1572500Y-4570000D01*
X1586958Y-4570710D01*
G37*
G36*
X5066958Y-2720710D02*
G01*
X5081276Y-2722834D01*
X5095317Y-2726351D01*
X5108946Y-2731228D01*
X5122031Y-2737417D01*
X5134447Y-2744858D01*
X5146073Y-2753481D01*
X5156798Y-2763202D01*
X5166519Y-2773927D01*
X5175142Y-2785553D01*
X5182583Y-2797969D01*
X5188772Y-2811054D01*
X5193649Y-2824683D01*
X5197166Y-2838724D01*
X5199290Y-2853042D01*
X5200000Y-2867500D01*
X5200000Y-3162500D01*
X5199290Y-3176958D01*
X5197166Y-3191276D01*
X5193649Y-3205317D01*
X5188772Y-3218946D01*
X5182583Y-3232031D01*
X5175142Y-3244447D01*
X5166519Y-3256073D01*
X5156798Y-3266798D01*
X5146073Y-3276519D01*
X5134447Y-3285142D01*
X5122031Y-3292583D01*
X5108946Y-3298772D01*
X5095317Y-3303649D01*
X5081276Y-3307166D01*
X5066958Y-3309290D01*
X5052500Y-3310000D01*
X4707500Y-3310000D01*
X4693042Y-3309290D01*
X4678724Y-3307166D01*
X4664683Y-3303649D01*
X4651054Y-3298772D01*
X4637969Y-3292583D01*
X4625553Y-3285142D01*
X4613927Y-3276519D01*
X4603202Y-3266798D01*
X4593481Y-3256073D01*
X4584858Y-3244447D01*
X4577417Y-3232031D01*
X4571228Y-3218946D01*
X4566351Y-3205317D01*
X4562834Y-3191276D01*
X4560710Y-3176958D01*
X4560000Y-3162500D01*
X4560000Y-2867500D01*
X4560710Y-2853042D01*
X4562834Y-2838724D01*
X4566351Y-2824683D01*
X4571228Y-2811054D01*
X4577417Y-2797969D01*
X4584858Y-2785553D01*
X4593481Y-2773927D01*
X4603202Y-2763202D01*
X4613927Y-2753481D01*
X4625553Y-2744858D01*
X4637969Y-2737417D01*
X4651054Y-2731228D01*
X4664683Y-2726351D01*
X4678724Y-2722834D01*
X4693042Y-2720710D01*
X4707500Y-2720000D01*
X5052500Y-2720000D01*
X5066958Y-2720710D01*
G37*
G36*
X5066958Y-1750710D02*
G01*
X5081276Y-1752834D01*
X5095317Y-1756351D01*
X5108946Y-1761228D01*
X5122031Y-1767417D01*
X5134447Y-1774858D01*
X5146073Y-1783481D01*
X5156798Y-1793202D01*
X5166519Y-1803927D01*
X5175142Y-1815553D01*
X5182583Y-1827969D01*
X5188772Y-1841054D01*
X5193649Y-1854683D01*
X5197166Y-1868724D01*
X5199290Y-1883042D01*
X5200000Y-1897500D01*
X5200000Y-2192500D01*
X5199290Y-2206958D01*
X5197166Y-2221276D01*
X5193649Y-2235317D01*
X5188772Y-2248946D01*
X5182583Y-2262031D01*
X5175142Y-2274447D01*
X5166519Y-2286073D01*
X5156798Y-2296798D01*
X5146073Y-2306519D01*
X5134447Y-2315142D01*
X5122031Y-2322583D01*
X5108946Y-2328772D01*
X5095317Y-2333649D01*
X5081276Y-2337166D01*
X5066958Y-2339290D01*
X5052500Y-2340000D01*
X4707500Y-2340000D01*
X4693042Y-2339290D01*
X4678724Y-2337166D01*
X4664683Y-2333649D01*
X4651054Y-2328772D01*
X4637969Y-2322583D01*
X4625553Y-2315142D01*
X4613927Y-2306519D01*
X4603202Y-2296798D01*
X4593481Y-2286073D01*
X4584858Y-2274447D01*
X4577417Y-2262031D01*
X4571228Y-2248946D01*
X4566351Y-2235317D01*
X4562834Y-2221276D01*
X4560710Y-2206958D01*
X4560000Y-2192500D01*
X4560000Y-1897500D01*
X4560710Y-1883042D01*
X4562834Y-1868724D01*
X4566351Y-1854683D01*
X4571228Y-1841054D01*
X4577417Y-1827969D01*
X4584858Y-1815553D01*
X4593481Y-1803927D01*
X4603202Y-1793202D01*
X4613927Y-1783481D01*
X4625553Y-1774858D01*
X4637969Y-1767417D01*
X4651054Y-1761228D01*
X4664683Y-1756351D01*
X4678724Y-1752834D01*
X4693042Y-1750710D01*
X4707500Y-1750000D01*
X5052500Y-1750000D01*
X5066958Y-1750710D01*
G37*
G36*
X6096958Y-2720710D02*
G01*
X6111276Y-2722834D01*
X6125317Y-2726351D01*
X6138946Y-2731228D01*
X6152031Y-2737417D01*
X6164447Y-2744858D01*
X6176073Y-2753481D01*
X6186798Y-2763202D01*
X6196519Y-2773927D01*
X6205142Y-2785553D01*
X6212583Y-2797969D01*
X6218772Y-2811054D01*
X6223649Y-2824683D01*
X6227166Y-2838724D01*
X6229290Y-2853042D01*
X6230000Y-2867500D01*
X6230000Y-3162500D01*
X6229290Y-3176958D01*
X6227166Y-3191276D01*
X6223649Y-3205317D01*
X6218772Y-3218946D01*
X6212583Y-3232031D01*
X6205142Y-3244447D01*
X6196519Y-3256073D01*
X6186798Y-3266798D01*
X6176073Y-3276519D01*
X6164447Y-3285142D01*
X6152031Y-3292583D01*
X6138946Y-3298772D01*
X6125317Y-3303649D01*
X6111276Y-3307166D01*
X6096958Y-3309290D01*
X6082500Y-3310000D01*
X5737500Y-3310000D01*
X5723042Y-3309290D01*
X5708724Y-3307166D01*
X5694683Y-3303649D01*
X5681054Y-3298772D01*
X5667969Y-3292583D01*
X5655553Y-3285142D01*
X5643927Y-3276519D01*
X5633202Y-3266798D01*
X5623481Y-3256073D01*
X5614858Y-3244447D01*
X5607417Y-3232031D01*
X5601228Y-3218946D01*
X5596351Y-3205317D01*
X5592834Y-3191276D01*
X5590710Y-3176958D01*
X5590000Y-3162500D01*
X5590000Y-2867500D01*
X5590710Y-2853042D01*
X5592834Y-2838724D01*
X5596351Y-2824683D01*
X5601228Y-2811054D01*
X5607417Y-2797969D01*
X5614858Y-2785553D01*
X5623481Y-2773927D01*
X5633202Y-2763202D01*
X5643927Y-2753481D01*
X5655553Y-2744858D01*
X5667969Y-2737417D01*
X5681054Y-2731228D01*
X5694683Y-2726351D01*
X5708724Y-2722834D01*
X5723042Y-2720710D01*
X5737500Y-2720000D01*
X6082500Y-2720000D01*
X6096958Y-2720710D01*
G37*
G36*
X6096958Y-1750710D02*
G01*
X6111276Y-1752834D01*
X6125317Y-1756351D01*
X6138946Y-1761228D01*
X6152031Y-1767417D01*
X6164447Y-1774858D01*
X6176073Y-1783481D01*
X6186798Y-1793202D01*
X6196519Y-1803927D01*
X6205142Y-1815553D01*
X6212583Y-1827969D01*
X6218772Y-1841054D01*
X6223649Y-1854683D01*
X6227166Y-1868724D01*
X6229290Y-1883042D01*
X6230000Y-1897500D01*
X6230000Y-2192500D01*
X6229290Y-2206958D01*
X6227166Y-2221276D01*
X6223649Y-2235317D01*
X6218772Y-2248946D01*
X6212583Y-2262031D01*
X6205142Y-2274447D01*
X6196519Y-2286073D01*
X6186798Y-2296798D01*
X6176073Y-2306519D01*
X6164447Y-2315142D01*
X6152031Y-2322583D01*
X6138946Y-2328772D01*
X6125317Y-2333649D01*
X6111276Y-2337166D01*
X6096958Y-2339290D01*
X6082500Y-2340000D01*
X5737500Y-2340000D01*
X5723042Y-2339290D01*
X5708724Y-2337166D01*
X5694683Y-2333649D01*
X5681054Y-2328772D01*
X5667969Y-2322583D01*
X5655553Y-2315142D01*
X5643927Y-2306519D01*
X5633202Y-2296798D01*
X5623481Y-2286073D01*
X5614858Y-2274447D01*
X5607417Y-2262031D01*
X5601228Y-2248946D01*
X5596351Y-2235317D01*
X5592834Y-2221276D01*
X5590710Y-2206958D01*
X5590000Y-2192500D01*
X5590000Y-1897500D01*
X5590710Y-1883042D01*
X5592834Y-1868724D01*
X5596351Y-1854683D01*
X5601228Y-1841054D01*
X5607417Y-1827969D01*
X5614858Y-1815553D01*
X5623481Y-1803927D01*
X5633202Y-1793202D01*
X5643927Y-1783481D01*
X5655553Y-1774858D01*
X5667969Y-1767417D01*
X5681054Y-1761228D01*
X5694683Y-1756351D01*
X5708724Y-1752834D01*
X5723042Y-1750710D01*
X5737500Y-1750000D01*
X6082500Y-1750000D01*
X6096958Y-1750710D01*
G37*
D11*
X4000000Y-4450000D03*
X4000000Y-3950000D03*
X4500000Y-3950000D03*
X3500000Y-3950000D03*
X3500000Y-4450000D03*
X4500000Y-4450000D03*
X4500000Y-4950000D03*
X4000000Y-4950000D03*
X3500000Y-4950000D03*
M02*
