G04 #@! TF.GenerationSoftware,KiCad,Pcbnew,(5.1.5)-3*
G04 #@! TF.CreationDate,2021-04-29T13:46:15+02:00*
G04 #@! TF.ProjectId,Hivetracker,48697665-7472-4616-936b-65722e6b6963,rev?*
G04 #@! TF.SameCoordinates,PX2562500PY28a0640*
G04 #@! TF.FileFunction,Soldermask,Bot*
G04 #@! TF.FilePolarity,Negative*
%FSLAX46Y46*%
G04 Gerber Fmt 4.6, Leading zero omitted, Abs format (unit mm)*
G04 Created by KiCad (PCBNEW (5.1.5)-3) date 2021-04-29 13:46:15*
%MOMM*%
%LPD*%
G04 APERTURE LIST*
%ADD10C,0.100000*%
G04 APERTURE END LIST*
D10*
G36*
X3001000Y-5899060D02*
G01*
X3003402Y-5923446D01*
X3010515Y-5946895D01*
X3022066Y-5968506D01*
X3037611Y-5987448D01*
X3056553Y-6002993D01*
X3078164Y-6014544D01*
X3101613Y-6021657D01*
X3125999Y-6024059D01*
X3150385Y-6021657D01*
X3173834Y-6014544D01*
X3195445Y-6002993D01*
X3214387Y-5987448D01*
X3221568Y-5980267D01*
X3299530Y-5928174D01*
X3335412Y-5913311D01*
X3386157Y-5892292D01*
X3478117Y-5874000D01*
X3571883Y-5874000D01*
X3663843Y-5892292D01*
X3714588Y-5913311D01*
X3750470Y-5928174D01*
X3828432Y-5980267D01*
X3894735Y-6046570D01*
X3921067Y-6085979D01*
X3936612Y-6104921D01*
X3955554Y-6120466D01*
X3977164Y-6132018D01*
X4000613Y-6139131D01*
X4024999Y-6141533D01*
X4049385Y-6139131D01*
X4072834Y-6132018D01*
X4094445Y-6120467D01*
X4113387Y-6104922D01*
X4128933Y-6085979D01*
X4155265Y-6046570D01*
X4221568Y-5980267D01*
X4299530Y-5928174D01*
X4335412Y-5913311D01*
X4386157Y-5892292D01*
X4478117Y-5874000D01*
X4571883Y-5874000D01*
X4663843Y-5892292D01*
X4714588Y-5913311D01*
X4750470Y-5928174D01*
X4828432Y-5980267D01*
X4894735Y-6046570D01*
X4921067Y-6085979D01*
X4936612Y-6104921D01*
X4955554Y-6120466D01*
X4977164Y-6132018D01*
X5000613Y-6139131D01*
X5024999Y-6141533D01*
X5049385Y-6139131D01*
X5072834Y-6132018D01*
X5094445Y-6120467D01*
X5113387Y-6104922D01*
X5128933Y-6085979D01*
X5155265Y-6046570D01*
X5221568Y-5980267D01*
X5299530Y-5928174D01*
X5335412Y-5913311D01*
X5386157Y-5892292D01*
X5478117Y-5874000D01*
X5571883Y-5874000D01*
X5663843Y-5892292D01*
X5714588Y-5913311D01*
X5750470Y-5928174D01*
X5828432Y-5980267D01*
X5894733Y-6046568D01*
X5946826Y-6124530D01*
X5958140Y-6151844D01*
X5982708Y-6211157D01*
X6001000Y-6303117D01*
X6001000Y-6396883D01*
X5982708Y-6488843D01*
X5961689Y-6539588D01*
X5946826Y-6575470D01*
X5894733Y-6653432D01*
X5828432Y-6719733D01*
X5750470Y-6771826D01*
X5739055Y-6776554D01*
X5663843Y-6807708D01*
X5571883Y-6826000D01*
X5478117Y-6826000D01*
X5386157Y-6807708D01*
X5310945Y-6776554D01*
X5299530Y-6771826D01*
X5221568Y-6719733D01*
X5155265Y-6653430D01*
X5128933Y-6614021D01*
X5113388Y-6595079D01*
X5094446Y-6579534D01*
X5072836Y-6567982D01*
X5049387Y-6560869D01*
X5025001Y-6558467D01*
X5000615Y-6560869D01*
X4977166Y-6567982D01*
X4955555Y-6579533D01*
X4936613Y-6595078D01*
X4921067Y-6614021D01*
X4894735Y-6653430D01*
X4828432Y-6719733D01*
X4750470Y-6771826D01*
X4739055Y-6776554D01*
X4663843Y-6807708D01*
X4571883Y-6826000D01*
X4478117Y-6826000D01*
X4386157Y-6807708D01*
X4310945Y-6776554D01*
X4299530Y-6771826D01*
X4221568Y-6719733D01*
X4155265Y-6653430D01*
X4128933Y-6614021D01*
X4113388Y-6595079D01*
X4094446Y-6579534D01*
X4072836Y-6567982D01*
X4049387Y-6560869D01*
X4025001Y-6558467D01*
X4000615Y-6560869D01*
X3977166Y-6567982D01*
X3955555Y-6579533D01*
X3936613Y-6595078D01*
X3921067Y-6614021D01*
X3894735Y-6653430D01*
X3828432Y-6719733D01*
X3750470Y-6771826D01*
X3739055Y-6776554D01*
X3663843Y-6807708D01*
X3571883Y-6826000D01*
X3478117Y-6826000D01*
X3386157Y-6807708D01*
X3310945Y-6776554D01*
X3299530Y-6771826D01*
X3221568Y-6719733D01*
X3214387Y-6712552D01*
X3195445Y-6697007D01*
X3173834Y-6685456D01*
X3150385Y-6678343D01*
X3125999Y-6675941D01*
X3101613Y-6678343D01*
X3078164Y-6685456D01*
X3056553Y-6697007D01*
X3037611Y-6712552D01*
X3022066Y-6731494D01*
X3010515Y-6753105D01*
X3003402Y-6776554D01*
X3001000Y-6800940D01*
X3001000Y-6826000D01*
X2049000Y-6826000D01*
X2049000Y-5874000D01*
X3001000Y-5874000D01*
X3001000Y-5899060D01*
G37*
G36*
X1681938Y-5491716D02*
G01*
X1702557Y-5497971D01*
X1721553Y-5508124D01*
X1738208Y-5521792D01*
X1751876Y-5538447D01*
X1762029Y-5557443D01*
X1768284Y-5578062D01*
X1771000Y-5605640D01*
X1771000Y-6064360D01*
X1768284Y-6091938D01*
X1762029Y-6112557D01*
X1751876Y-6131553D01*
X1738208Y-6148208D01*
X1721553Y-6161876D01*
X1702557Y-6172029D01*
X1681938Y-6178284D01*
X1654360Y-6181000D01*
X1145640Y-6181000D01*
X1118062Y-6178284D01*
X1097443Y-6172029D01*
X1078447Y-6161876D01*
X1061792Y-6148208D01*
X1048124Y-6131553D01*
X1037971Y-6112557D01*
X1031716Y-6091938D01*
X1029000Y-6064360D01*
X1029000Y-5605640D01*
X1031716Y-5578062D01*
X1037971Y-5557443D01*
X1048124Y-5538447D01*
X1061792Y-5521792D01*
X1078447Y-5508124D01*
X1097443Y-5497971D01*
X1118062Y-5491716D01*
X1145640Y-5489000D01*
X1654360Y-5489000D01*
X1681938Y-5491716D01*
G37*
G36*
X1681938Y-4521716D02*
G01*
X1702557Y-4527971D01*
X1721553Y-4538124D01*
X1738208Y-4551792D01*
X1751876Y-4568447D01*
X1762029Y-4587443D01*
X1768284Y-4608062D01*
X1771000Y-4635640D01*
X1771000Y-5094360D01*
X1768284Y-5121938D01*
X1762029Y-5142557D01*
X1751876Y-5161553D01*
X1738208Y-5178208D01*
X1721553Y-5191876D01*
X1702557Y-5202029D01*
X1681938Y-5208284D01*
X1654360Y-5211000D01*
X1145640Y-5211000D01*
X1118062Y-5208284D01*
X1097443Y-5202029D01*
X1078447Y-5191876D01*
X1061792Y-5178208D01*
X1048124Y-5161553D01*
X1037971Y-5142557D01*
X1031716Y-5121938D01*
X1029000Y-5094360D01*
X1029000Y-4635640D01*
X1031716Y-4608062D01*
X1037971Y-4587443D01*
X1048124Y-4568447D01*
X1061792Y-4551792D01*
X1078447Y-4538124D01*
X1097443Y-4527971D01*
X1118062Y-4521716D01*
X1145640Y-4519000D01*
X1654360Y-4519000D01*
X1681938Y-4521716D01*
G37*
G36*
X3553088Y-3774994D02*
G01*
X3586210Y-3788713D01*
X3616018Y-3808631D01*
X3641369Y-3833982D01*
X3646074Y-3841024D01*
X3661613Y-3859957D01*
X3680555Y-3875502D01*
X3702166Y-3887053D01*
X3725615Y-3894166D01*
X3750001Y-3896568D01*
X3774387Y-3894166D01*
X3797836Y-3887053D01*
X3819447Y-3875501D01*
X3838388Y-3859956D01*
X3853926Y-3841024D01*
X3858631Y-3833982D01*
X3883982Y-3808631D01*
X3913790Y-3788713D01*
X3946912Y-3774994D01*
X3982075Y-3768000D01*
X4017925Y-3768000D01*
X4053088Y-3774994D01*
X4086210Y-3788713D01*
X4116018Y-3808631D01*
X4141369Y-3833982D01*
X4146074Y-3841024D01*
X4161613Y-3859957D01*
X4180555Y-3875502D01*
X4202166Y-3887053D01*
X4225615Y-3894166D01*
X4250001Y-3896568D01*
X4274387Y-3894166D01*
X4297836Y-3887053D01*
X4319447Y-3875501D01*
X4338388Y-3859956D01*
X4353926Y-3841024D01*
X4358631Y-3833982D01*
X4383982Y-3808631D01*
X4413790Y-3788713D01*
X4446912Y-3774994D01*
X4482075Y-3768000D01*
X4517925Y-3768000D01*
X4553088Y-3774994D01*
X4586210Y-3788713D01*
X4616018Y-3808631D01*
X4641369Y-3833982D01*
X4661287Y-3863790D01*
X4675006Y-3896912D01*
X4682000Y-3932075D01*
X4682000Y-3967925D01*
X4675006Y-4003088D01*
X4661287Y-4036210D01*
X4641369Y-4066018D01*
X4616018Y-4091369D01*
X4608976Y-4096074D01*
X4590043Y-4111613D01*
X4574498Y-4130555D01*
X4562947Y-4152166D01*
X4555834Y-4175615D01*
X4553432Y-4200001D01*
X4555834Y-4224387D01*
X4562947Y-4247836D01*
X4574499Y-4269447D01*
X4590044Y-4288388D01*
X4608976Y-4303926D01*
X4616018Y-4308631D01*
X4641369Y-4333982D01*
X4661287Y-4363790D01*
X4675006Y-4396912D01*
X4682000Y-4432075D01*
X4682000Y-4467925D01*
X4675006Y-4503088D01*
X4661287Y-4536210D01*
X4641369Y-4566018D01*
X4616018Y-4591369D01*
X4608976Y-4596074D01*
X4590043Y-4611613D01*
X4574498Y-4630555D01*
X4562947Y-4652166D01*
X4555834Y-4675615D01*
X4553432Y-4700001D01*
X4555834Y-4724387D01*
X4562947Y-4747836D01*
X4574499Y-4769447D01*
X4590044Y-4788388D01*
X4608976Y-4803926D01*
X4616018Y-4808631D01*
X4641369Y-4833982D01*
X4661287Y-4863790D01*
X4675006Y-4896912D01*
X4682000Y-4932075D01*
X4682000Y-4967925D01*
X4675006Y-5003088D01*
X4661287Y-5036210D01*
X4641369Y-5066018D01*
X4616018Y-5091369D01*
X4586210Y-5111287D01*
X4553088Y-5125006D01*
X4517925Y-5132000D01*
X4482075Y-5132000D01*
X4446912Y-5125006D01*
X4413790Y-5111287D01*
X4383982Y-5091369D01*
X4358631Y-5066018D01*
X4353926Y-5058976D01*
X4338387Y-5040043D01*
X4319445Y-5024498D01*
X4297834Y-5012947D01*
X4274385Y-5005834D01*
X4249999Y-5003432D01*
X4225613Y-5005834D01*
X4202164Y-5012947D01*
X4180553Y-5024499D01*
X4161612Y-5040044D01*
X4146074Y-5058976D01*
X4141369Y-5066018D01*
X4116018Y-5091369D01*
X4086210Y-5111287D01*
X4053088Y-5125006D01*
X4017925Y-5132000D01*
X3982075Y-5132000D01*
X3946912Y-5125006D01*
X3913790Y-5111287D01*
X3883982Y-5091369D01*
X3858631Y-5066018D01*
X3853926Y-5058976D01*
X3838387Y-5040043D01*
X3819445Y-5024498D01*
X3797834Y-5012947D01*
X3774385Y-5005834D01*
X3749999Y-5003432D01*
X3725613Y-5005834D01*
X3702164Y-5012947D01*
X3680553Y-5024499D01*
X3661612Y-5040044D01*
X3646074Y-5058976D01*
X3641369Y-5066018D01*
X3616018Y-5091369D01*
X3586210Y-5111287D01*
X3553088Y-5125006D01*
X3517925Y-5132000D01*
X3482075Y-5132000D01*
X3446912Y-5125006D01*
X3413790Y-5111287D01*
X3383982Y-5091369D01*
X3358631Y-5066018D01*
X3338713Y-5036210D01*
X3324994Y-5003088D01*
X3318000Y-4967925D01*
X3318000Y-4932075D01*
X3324994Y-4896912D01*
X3338713Y-4863790D01*
X3358631Y-4833982D01*
X3383982Y-4808631D01*
X3391024Y-4803926D01*
X3409957Y-4788387D01*
X3425502Y-4769445D01*
X3437053Y-4747834D01*
X3444166Y-4724385D01*
X3446567Y-4700001D01*
X3553432Y-4700001D01*
X3555834Y-4724387D01*
X3562947Y-4747836D01*
X3574499Y-4769447D01*
X3590044Y-4788388D01*
X3608976Y-4803926D01*
X3616018Y-4808631D01*
X3641369Y-4833982D01*
X3646074Y-4841024D01*
X3661613Y-4859957D01*
X3680555Y-4875502D01*
X3702166Y-4887053D01*
X3725615Y-4894166D01*
X3750001Y-4896568D01*
X3774387Y-4894166D01*
X3797836Y-4887053D01*
X3819447Y-4875501D01*
X3838388Y-4859956D01*
X3853926Y-4841024D01*
X3858631Y-4833982D01*
X3883982Y-4808631D01*
X3891024Y-4803926D01*
X3909957Y-4788387D01*
X3925502Y-4769445D01*
X3937053Y-4747834D01*
X3944166Y-4724385D01*
X3946567Y-4700001D01*
X4053432Y-4700001D01*
X4055834Y-4724387D01*
X4062947Y-4747836D01*
X4074499Y-4769447D01*
X4090044Y-4788388D01*
X4108976Y-4803926D01*
X4116018Y-4808631D01*
X4141369Y-4833982D01*
X4146074Y-4841024D01*
X4161613Y-4859957D01*
X4180555Y-4875502D01*
X4202166Y-4887053D01*
X4225615Y-4894166D01*
X4250001Y-4896568D01*
X4274387Y-4894166D01*
X4297836Y-4887053D01*
X4319447Y-4875501D01*
X4338388Y-4859956D01*
X4353926Y-4841024D01*
X4358631Y-4833982D01*
X4383982Y-4808631D01*
X4391024Y-4803926D01*
X4409957Y-4788387D01*
X4425502Y-4769445D01*
X4437053Y-4747834D01*
X4444166Y-4724385D01*
X4446568Y-4699999D01*
X4444166Y-4675613D01*
X4437053Y-4652164D01*
X4425501Y-4630553D01*
X4409956Y-4611612D01*
X4391024Y-4596074D01*
X4383982Y-4591369D01*
X4358631Y-4566018D01*
X4353926Y-4558976D01*
X4338387Y-4540043D01*
X4319445Y-4524498D01*
X4297834Y-4512947D01*
X4274385Y-4505834D01*
X4249999Y-4503432D01*
X4225613Y-4505834D01*
X4202164Y-4512947D01*
X4180553Y-4524499D01*
X4161612Y-4540044D01*
X4146074Y-4558976D01*
X4141369Y-4566018D01*
X4116018Y-4591369D01*
X4108976Y-4596074D01*
X4090043Y-4611613D01*
X4074498Y-4630555D01*
X4062947Y-4652166D01*
X4055834Y-4675615D01*
X4053432Y-4700001D01*
X3946567Y-4700001D01*
X3946568Y-4699999D01*
X3944166Y-4675613D01*
X3937053Y-4652164D01*
X3925501Y-4630553D01*
X3909956Y-4611612D01*
X3891024Y-4596074D01*
X3883982Y-4591369D01*
X3858631Y-4566018D01*
X3853926Y-4558976D01*
X3838387Y-4540043D01*
X3819445Y-4524498D01*
X3797834Y-4512947D01*
X3774385Y-4505834D01*
X3749999Y-4503432D01*
X3725613Y-4505834D01*
X3702164Y-4512947D01*
X3680553Y-4524499D01*
X3661612Y-4540044D01*
X3646074Y-4558976D01*
X3641369Y-4566018D01*
X3616018Y-4591369D01*
X3608976Y-4596074D01*
X3590043Y-4611613D01*
X3574498Y-4630555D01*
X3562947Y-4652166D01*
X3555834Y-4675615D01*
X3553432Y-4700001D01*
X3446567Y-4700001D01*
X3446568Y-4699999D01*
X3444166Y-4675613D01*
X3437053Y-4652164D01*
X3425501Y-4630553D01*
X3409956Y-4611612D01*
X3391024Y-4596074D01*
X3383982Y-4591369D01*
X3358631Y-4566018D01*
X3338713Y-4536210D01*
X3324994Y-4503088D01*
X3318000Y-4467925D01*
X3318000Y-4432075D01*
X3324994Y-4396912D01*
X3338713Y-4363790D01*
X3358631Y-4333982D01*
X3383982Y-4308631D01*
X3391024Y-4303926D01*
X3409957Y-4288387D01*
X3425502Y-4269445D01*
X3437053Y-4247834D01*
X3444166Y-4224385D01*
X3446567Y-4200001D01*
X3553432Y-4200001D01*
X3555834Y-4224387D01*
X3562947Y-4247836D01*
X3574499Y-4269447D01*
X3590044Y-4288388D01*
X3608976Y-4303926D01*
X3616018Y-4308631D01*
X3641369Y-4333982D01*
X3646074Y-4341024D01*
X3661613Y-4359957D01*
X3680555Y-4375502D01*
X3702166Y-4387053D01*
X3725615Y-4394166D01*
X3750001Y-4396568D01*
X3774387Y-4394166D01*
X3797836Y-4387053D01*
X3819447Y-4375501D01*
X3838388Y-4359956D01*
X3853926Y-4341024D01*
X3858631Y-4333982D01*
X3883982Y-4308631D01*
X3891024Y-4303926D01*
X3909957Y-4288387D01*
X3925502Y-4269445D01*
X3937053Y-4247834D01*
X3944166Y-4224385D01*
X3946567Y-4200001D01*
X4053432Y-4200001D01*
X4055834Y-4224387D01*
X4062947Y-4247836D01*
X4074499Y-4269447D01*
X4090044Y-4288388D01*
X4108976Y-4303926D01*
X4116018Y-4308631D01*
X4141369Y-4333982D01*
X4146074Y-4341024D01*
X4161613Y-4359957D01*
X4180555Y-4375502D01*
X4202166Y-4387053D01*
X4225615Y-4394166D01*
X4250001Y-4396568D01*
X4274387Y-4394166D01*
X4297836Y-4387053D01*
X4319447Y-4375501D01*
X4338388Y-4359956D01*
X4353926Y-4341024D01*
X4358631Y-4333982D01*
X4383982Y-4308631D01*
X4391024Y-4303926D01*
X4409957Y-4288387D01*
X4425502Y-4269445D01*
X4437053Y-4247834D01*
X4444166Y-4224385D01*
X4446568Y-4199999D01*
X4444166Y-4175613D01*
X4437053Y-4152164D01*
X4425501Y-4130553D01*
X4409956Y-4111612D01*
X4391024Y-4096074D01*
X4383982Y-4091369D01*
X4358631Y-4066018D01*
X4353926Y-4058976D01*
X4338387Y-4040043D01*
X4319445Y-4024498D01*
X4297834Y-4012947D01*
X4274385Y-4005834D01*
X4249999Y-4003432D01*
X4225613Y-4005834D01*
X4202164Y-4012947D01*
X4180553Y-4024499D01*
X4161612Y-4040044D01*
X4146074Y-4058976D01*
X4141369Y-4066018D01*
X4116018Y-4091369D01*
X4108976Y-4096074D01*
X4090043Y-4111613D01*
X4074498Y-4130555D01*
X4062947Y-4152166D01*
X4055834Y-4175615D01*
X4053432Y-4200001D01*
X3946567Y-4200001D01*
X3946568Y-4199999D01*
X3944166Y-4175613D01*
X3937053Y-4152164D01*
X3925501Y-4130553D01*
X3909956Y-4111612D01*
X3891024Y-4096074D01*
X3883982Y-4091369D01*
X3858631Y-4066018D01*
X3853926Y-4058976D01*
X3838387Y-4040043D01*
X3819445Y-4024498D01*
X3797834Y-4012947D01*
X3774385Y-4005834D01*
X3749999Y-4003432D01*
X3725613Y-4005834D01*
X3702164Y-4012947D01*
X3680553Y-4024499D01*
X3661612Y-4040044D01*
X3646074Y-4058976D01*
X3641369Y-4066018D01*
X3616018Y-4091369D01*
X3608976Y-4096074D01*
X3590043Y-4111613D01*
X3574498Y-4130555D01*
X3562947Y-4152166D01*
X3555834Y-4175615D01*
X3553432Y-4200001D01*
X3446567Y-4200001D01*
X3446568Y-4199999D01*
X3444166Y-4175613D01*
X3437053Y-4152164D01*
X3425501Y-4130553D01*
X3409956Y-4111612D01*
X3391024Y-4096074D01*
X3383982Y-4091369D01*
X3358631Y-4066018D01*
X3338713Y-4036210D01*
X3324994Y-4003088D01*
X3318000Y-3967925D01*
X3318000Y-3932075D01*
X3324994Y-3896912D01*
X3338713Y-3863790D01*
X3358631Y-3833982D01*
X3383982Y-3808631D01*
X3413790Y-3788713D01*
X3446912Y-3774994D01*
X3482075Y-3768000D01*
X3517925Y-3768000D01*
X3553088Y-3774994D01*
G37*
G36*
X5161938Y-2671716D02*
G01*
X5182557Y-2677971D01*
X5201553Y-2688124D01*
X5218208Y-2701792D01*
X5231876Y-2718447D01*
X5242029Y-2737443D01*
X5248284Y-2758062D01*
X5251000Y-2785640D01*
X5251000Y-3244360D01*
X5248284Y-3271938D01*
X5242029Y-3292557D01*
X5231876Y-3311553D01*
X5218208Y-3328208D01*
X5201553Y-3341876D01*
X5182557Y-3352029D01*
X5161938Y-3358284D01*
X5134360Y-3361000D01*
X4625640Y-3361000D01*
X4598062Y-3358284D01*
X4577443Y-3352029D01*
X4558447Y-3341876D01*
X4541792Y-3328208D01*
X4528124Y-3311553D01*
X4517971Y-3292557D01*
X4511716Y-3271938D01*
X4509000Y-3244360D01*
X4509000Y-2785640D01*
X4511716Y-2758062D01*
X4517971Y-2737443D01*
X4528124Y-2718447D01*
X4541792Y-2701792D01*
X4558447Y-2688124D01*
X4577443Y-2677971D01*
X4598062Y-2671716D01*
X4625640Y-2669000D01*
X5134360Y-2669000D01*
X5161938Y-2671716D01*
G37*
G36*
X6191938Y-2671716D02*
G01*
X6212557Y-2677971D01*
X6231553Y-2688124D01*
X6248208Y-2701792D01*
X6261876Y-2718447D01*
X6272029Y-2737443D01*
X6278284Y-2758062D01*
X6281000Y-2785640D01*
X6281000Y-3244360D01*
X6278284Y-3271938D01*
X6272029Y-3292557D01*
X6261876Y-3311553D01*
X6248208Y-3328208D01*
X6231553Y-3341876D01*
X6212557Y-3352029D01*
X6191938Y-3358284D01*
X6164360Y-3361000D01*
X5655640Y-3361000D01*
X5628062Y-3358284D01*
X5607443Y-3352029D01*
X5588447Y-3341876D01*
X5571792Y-3328208D01*
X5558124Y-3311553D01*
X5547971Y-3292557D01*
X5541716Y-3271938D01*
X5539000Y-3244360D01*
X5539000Y-2785640D01*
X5541716Y-2758062D01*
X5547971Y-2737443D01*
X5558124Y-2718447D01*
X5571792Y-2701792D01*
X5588447Y-2688124D01*
X5607443Y-2677971D01*
X5628062Y-2671716D01*
X5655640Y-2669000D01*
X6164360Y-2669000D01*
X6191938Y-2671716D01*
G37*
G36*
X6191938Y-1701716D02*
G01*
X6212557Y-1707971D01*
X6231553Y-1718124D01*
X6248208Y-1731792D01*
X6261876Y-1748447D01*
X6272029Y-1767443D01*
X6278284Y-1788062D01*
X6281000Y-1815640D01*
X6281000Y-2274360D01*
X6278284Y-2301938D01*
X6272029Y-2322557D01*
X6261876Y-2341553D01*
X6248208Y-2358208D01*
X6231553Y-2371876D01*
X6212557Y-2382029D01*
X6191938Y-2388284D01*
X6164360Y-2391000D01*
X5655640Y-2391000D01*
X5628062Y-2388284D01*
X5607443Y-2382029D01*
X5588447Y-2371876D01*
X5571792Y-2358208D01*
X5558124Y-2341553D01*
X5547971Y-2322557D01*
X5541716Y-2301938D01*
X5539000Y-2274360D01*
X5539000Y-1815640D01*
X5541716Y-1788062D01*
X5547971Y-1767443D01*
X5558124Y-1748447D01*
X5571792Y-1731792D01*
X5588447Y-1718124D01*
X5607443Y-1707971D01*
X5628062Y-1701716D01*
X5655640Y-1699000D01*
X6164360Y-1699000D01*
X6191938Y-1701716D01*
G37*
G36*
X5161938Y-1701716D02*
G01*
X5182557Y-1707971D01*
X5201553Y-1718124D01*
X5218208Y-1731792D01*
X5231876Y-1748447D01*
X5242029Y-1767443D01*
X5248284Y-1788062D01*
X5251000Y-1815640D01*
X5251000Y-2274360D01*
X5248284Y-2301938D01*
X5242029Y-2322557D01*
X5231876Y-2341553D01*
X5218208Y-2358208D01*
X5201553Y-2371876D01*
X5182557Y-2382029D01*
X5161938Y-2388284D01*
X5134360Y-2391000D01*
X4625640Y-2391000D01*
X4598062Y-2388284D01*
X4577443Y-2382029D01*
X4558447Y-2371876D01*
X4541792Y-2358208D01*
X4528124Y-2341553D01*
X4517971Y-2322557D01*
X4511716Y-2301938D01*
X4509000Y-2274360D01*
X4509000Y-1815640D01*
X4511716Y-1788062D01*
X4517971Y-1767443D01*
X4528124Y-1748447D01*
X4541792Y-1731792D01*
X4558447Y-1718124D01*
X4577443Y-1707971D01*
X4598062Y-1701716D01*
X4625640Y-1699000D01*
X5134360Y-1699000D01*
X5161938Y-1701716D01*
G37*
M02*
