G04 #@! TF.GenerationSoftware,KiCad,Pcbnew,(5.1.5)-3*
G04 #@! TF.CreationDate,2021-04-29T13:46:15+02:00*
G04 #@! TF.ProjectId,Hivetracker,48697665-7472-4616-936b-65722e6b6963,rev?*
G04 #@! TF.SameCoordinates,PX2562500PY28a0640*
G04 #@! TF.FileFunction,Legend,Top*
G04 #@! TF.FilePolarity,Positive*
%FSLAX46Y46*%
G04 Gerber Fmt 4.6, Leading zero omitted, Abs format (unit mm)*
G04 Created by KiCad (PCBNEW (5.1.5)-3) date 2021-04-29 13:46:15*
%MOMM*%
%LPD*%
G04 APERTURE LIST*
%ADD10C,0.100000*%
%ADD11C,0.120000*%
G04 APERTURE END LIST*
D10*
X5146666Y-5673333D02*
X5846666Y-5440000D01*
X5146666Y-5206666D01*
X5780000Y-4573333D02*
X5813333Y-4606666D01*
X5846666Y-4706666D01*
X5846666Y-4773333D01*
X5813333Y-4873333D01*
X5746666Y-4940000D01*
X5680000Y-4973333D01*
X5546666Y-5006666D01*
X5446666Y-5006666D01*
X5313333Y-4973333D01*
X5246666Y-4940000D01*
X5180000Y-4873333D01*
X5146666Y-4773333D01*
X5146666Y-4706666D01*
X5180000Y-4606666D01*
X5213333Y-4573333D01*
X5780000Y-3873333D02*
X5813333Y-3906666D01*
X5846666Y-4006666D01*
X5846666Y-4073333D01*
X5813333Y-4173333D01*
X5746666Y-4240000D01*
X5680000Y-4273333D01*
X5546666Y-4306666D01*
X5446666Y-4306666D01*
X5313333Y-4273333D01*
X5246666Y-4240000D01*
X5180000Y-4173333D01*
X5146666Y-4073333D01*
X5146666Y-4006666D01*
X5180000Y-3906666D01*
X5213333Y-3873333D01*
X4180000Y-5253333D02*
X4146666Y-5320000D01*
X4146666Y-5420000D01*
X4180000Y-5520000D01*
X4246666Y-5586666D01*
X4313333Y-5620000D01*
X4446666Y-5653333D01*
X4546666Y-5653333D01*
X4680000Y-5620000D01*
X4746666Y-5586666D01*
X4813333Y-5520000D01*
X4846666Y-5420000D01*
X4846666Y-5353333D01*
X4813333Y-5253333D01*
X4780000Y-5220000D01*
X4546666Y-5220000D01*
X4546666Y-5353333D01*
X4846666Y-4920000D02*
X4146666Y-4920000D01*
X4846666Y-4520000D01*
X4146666Y-4520000D01*
X4846666Y-4186666D02*
X4146666Y-4186666D01*
X4146666Y-4020000D01*
X4180000Y-3920000D01*
X4246666Y-3853333D01*
X4313333Y-3820000D01*
X4446666Y-3786666D01*
X4546666Y-3786666D01*
X4680000Y-3820000D01*
X4746666Y-3853333D01*
X4813333Y-3920000D01*
X4846666Y-4020000D01*
X4846666Y-4186666D01*
X3480000Y-5660000D02*
X3480000Y-5426666D01*
X3846666Y-5326666D02*
X3846666Y-5660000D01*
X3146666Y-5660000D01*
X3146666Y-5326666D01*
X2856666Y-5663333D02*
X2156666Y-5663333D01*
X2156666Y-5496666D01*
X2190000Y-5396666D01*
X2256666Y-5330000D01*
X2323333Y-5296666D01*
X2456666Y-5263333D01*
X2556666Y-5263333D01*
X2690000Y-5296666D01*
X2756666Y-5330000D01*
X2823333Y-5396666D01*
X2856666Y-5496666D01*
X2856666Y-5663333D01*
D11*
X1800000Y-1600000D02*
X1800000Y-3400000D01*
M02*
